<svg width="104" height="27" viewBox="0 0 104 27" fill="none" xmlns="http://www.w3.org/2000/svg">
<g clip-path="url(#clip0_1233_3687)">
<path fill-rule="evenodd" clip-rule="evenodd" d="M1.59711 25.9267C2.181 25.9267 3.31075 25.9267 3.93715 25.9267C4.56354 25.9267 4.68435 25.9267 4.83647 25.8797C4.98636 25.8327 5.16533 25.7388 5.3801 25.4569C5.59486 25.175 5.84766 24.7052 6.27942 23.9267C6.71119 23.1482 7.32416 22.0632 7.65302 21.4949C7.98188 20.9267 8.02885 20.8753 8.08478 20.8372C8.14071 20.797 8.20559 20.7679 8.2906 20.7455C8.37561 20.7231 8.48299 20.7075 9.75368 20.6985C11.0266 20.6896 13.4651 20.6896 14.7156 20.694C15.9662 20.6963 16.0243 20.7008 16.0803 20.7231C16.134 20.7455 16.1832 20.7835 16.2235 20.8529C16.2637 20.9222 16.2995 21.0251 16.3689 21.7768C16.4405 22.5285 16.5456 23.9289 16.6239 24.6761C16.7022 25.4233 16.7514 25.5151 16.8006 25.5978C16.8498 25.6806 16.9035 25.7522 16.9774 25.8059C17.0534 25.8596 17.1519 25.8954 17.3353 25.9133C17.5188 25.9312 17.785 25.9312 18.3398 25.9312C18.8946 25.9312 19.738 25.9312 20.1854 25.9312C20.6328 25.9312 20.6843 25.9312 20.738 25.911C20.7917 25.8909 20.8454 25.8529 20.8834 25.8036C20.9214 25.7544 20.9438 25.694 20.9483 25.5755C20.9527 25.4569 20.9371 25.2824 20.5881 21.8484C20.2391 18.4144 19.559 11.7232 19.219 8.36076C18.8767 4.99612 18.8745 4.96256 18.8566 4.91782C18.8387 4.87308 18.8073 4.82162 18.7559 4.76122C18.7044 4.70306 18.6328 4.63594 18.559 4.59567C18.4852 4.55317 18.4091 4.53303 18.2704 4.52409C18.1317 4.51514 17.9281 4.51514 17.1026 4.51514C16.2771 4.51514 14.832 4.51514 14.0669 4.51514C13.304 4.51514 13.2235 4.51514 13.1429 4.52185C13.0624 4.52856 12.9841 4.54422 12.9237 4.57106C12.8633 4.59791 12.8185 4.64042 12.7492 4.74109C12.6798 4.84399 12.5814 5.0073 10.615 8.34062C8.6463 11.6739 4.80963 18.1795 2.84319 21.5106C0.876759 24.8394 0.782799 24.996 0.717922 25.1079C0.653046 25.222 0.619489 25.2936 0.599355 25.3741C0.581458 25.4547 0.576983 25.5397 0.606066 25.618C0.632912 25.6963 0.693314 25.7656 0.753717 25.8171C0.814119 25.8685 0.876759 25.8998 0.925975 25.9177C0.975192 25.9334 1.01322 25.9334 1.59711 25.9334V25.9267ZM11.0512 15.2712C11.8521 13.8238 13.4338 10.9603 14.2346 9.50393C15.0355 8.04756 15.0579 7.99834 15.0937 7.96255C15.1295 7.92676 15.1787 7.90215 15.2257 7.88872C15.2727 7.87754 15.3174 7.87754 15.3644 7.88425C15.4114 7.8932 15.4584 7.90886 15.4897 7.9357C15.521 7.96479 15.5367 8.00729 15.615 9.49722C15.6933 10.9871 15.8364 13.9267 15.908 15.4301C15.9796 16.9357 15.9841 17.005 15.9818 17.0654C15.9818 17.1258 15.9751 17.175 15.9617 17.2108C15.9483 17.2466 15.9282 17.2735 15.8678 17.2891C15.8073 17.307 15.7089 17.316 14.7962 17.3205C13.8834 17.3249 12.1586 17.3249 11.2816 17.3249C10.4047 17.3249 10.3756 17.3249 10.3398 17.3205C10.304 17.316 10.2593 17.307 10.2235 17.2779C10.1877 17.2489 10.1608 17.1996 10.1474 17.1437C10.134 17.0878 10.134 17.0252 10.1452 16.9625C10.1564 16.8999 10.1787 16.8372 10.2011 16.7903C10.2235 16.7433 10.2458 16.7142 11.0467 15.2668L11.0512 15.2712Z" fill="black"/>
<path fill-rule="evenodd" clip-rule="evenodd" d="M33.1227 20.1369C33.6641 20.1391 34.6529 20.1391 35.1742 20.1391C35.6954 20.1391 35.7514 20.1391 35.8118 20.148C35.8699 20.157 35.9303 20.1749 35.9907 20.2286C36.0489 20.2823 36.1048 20.3695 36.125 20.4724C36.1451 20.5753 36.1294 20.6961 36.0735 20.8684C36.0176 21.0407 35.9214 21.2666 35.7447 21.6067C35.5679 21.9467 35.3106 22.4008 35.0534 22.7811C34.7961 23.1592 34.5366 23.4635 34.2726 23.7319C34.0086 24.0026 33.738 24.2375 33.4113 24.4791C33.0847 24.7207 32.7066 24.9646 32.3621 25.1749C32.0198 25.3852 31.7133 25.5641 31.2995 25.7185C30.8856 25.8729 30.3621 26.0026 29.9035 26.0899C29.4449 26.1771 29.0512 26.2196 28.5948 26.2218C28.1384 26.2263 27.6172 26.1905 27.1205 26.1078C26.6239 26.025 26.1541 25.8952 25.7492 25.7453C25.3442 25.5954 25.0042 25.4254 24.6664 25.2107C24.3286 24.9959 23.993 24.7386 23.7044 24.4433C23.4158 24.1458 23.1742 23.8125 22.955 23.4277C22.7358 23.0429 22.5389 22.6111 22.3912 22.1816C22.2414 21.7543 22.1407 21.3315 22.0825 20.8595C22.0221 20.3874 22.0042 19.8662 22.0221 19.374C22.04 18.8818 22.0959 18.4187 22.1877 17.931C22.2794 17.4434 22.4069 16.9311 22.6082 16.3516C22.8096 15.7745 23.087 15.1302 23.474 14.4926C23.861 13.855 24.3577 13.2264 24.8655 12.7029C25.3733 12.1794 25.8923 11.7611 26.4203 11.4277C26.9483 11.0922 27.4852 10.8394 28.087 10.6403C28.6888 10.4411 29.3554 10.2957 30.087 10.2353C30.8185 10.1749 31.6127 10.2018 32.3465 10.3315C33.0802 10.4613 33.7536 10.6917 34.3218 10.9915C34.8901 11.2913 35.3554 11.6581 35.7178 12.0362C36.0802 12.4165 36.3375 12.8103 36.5523 13.2868C36.767 13.7633 36.9415 14.3248 37.0265 14.7722C37.1138 15.2197 37.1138 15.5552 37.1138 15.7588C37.1138 15.9624 37.1138 16.0384 37.1026 16.1145C37.0914 16.1906 37.0713 16.2711 37.0265 16.336C36.9818 16.3986 36.9169 16.4478 36.8162 16.4769C36.7156 16.506 36.5791 16.5172 36.0489 16.5217C35.5187 16.5261 34.5925 16.5261 34.0467 16.5261C33.4986 16.5261 33.3286 16.5261 33.201 16.506C33.0713 16.4859 32.984 16.4456 32.9214 16.383C32.8588 16.3203 32.8207 16.2308 32.7961 16.0541C32.7715 15.8751 32.7581 15.6067 32.7156 15.3293C32.6731 15.0496 32.6015 14.761 32.4874 14.5306C32.3733 14.3002 32.2167 14.1302 32.0221 13.9669C31.8274 13.8036 31.597 13.647 31.3174 13.5485C31.0377 13.4501 30.7111 13.4098 30.3934 13.4165C30.0735 13.4232 29.7626 13.4769 29.465 13.5865C29.1653 13.6962 28.8789 13.864 28.5858 14.1123C28.2928 14.3584 27.9952 14.6872 27.7469 15.0138C27.4986 15.3427 27.2995 15.6716 27.1205 16.0205C26.9416 16.3695 26.7827 16.7387 26.6395 17.2196C26.4964 17.6984 26.3711 18.289 26.3107 18.8281C26.2503 19.365 26.257 19.8527 26.295 20.2957C26.3331 20.7386 26.4024 21.1391 26.5523 21.5037C26.6999 21.8684 26.9259 22.195 27.1697 22.4411C27.4136 22.6894 27.6731 22.8572 27.9885 22.9489C28.304 23.0406 28.6731 23.0563 29.0333 23.0205C29.3934 22.9847 29.7447 22.8997 30.0914 22.7096C30.4359 22.5194 30.776 22.2263 31.0512 21.9288C31.3263 21.6313 31.5366 21.327 31.6865 21.0653C31.8364 20.8013 31.9259 20.5798 32.0042 20.4389C32.0825 20.3002 32.1518 20.242 32.2145 20.204C32.2793 20.1659 32.3397 20.1458 32.4158 20.1369C32.4941 20.1279 32.5881 20.1301 33.1294 20.1324L33.1227 20.1369Z" fill="black"/>
<path fill-rule="evenodd" clip-rule="evenodd" d="M42.1473 6.43895C42.626 6.43895 43.5164 6.43895 44.0198 6.44343C44.5253 6.4479 44.6439 6.45685 44.7468 6.50159C44.8497 6.54633 44.9392 6.62463 45.0063 6.72083C45.0712 6.81479 45.1137 6.92665 45.1115 7.09891C45.1092 7.27116 45.06 7.5083 44.9437 8.01837C44.8274 8.53067 44.6439 9.32037 44.5455 9.74543C44.447 10.1727 44.4314 10.2354 44.4292 10.3002C44.4269 10.3651 44.4403 10.4278 44.4761 10.4859C44.5119 10.5441 44.5746 10.5955 44.6551 10.6246C44.7356 10.6515 44.8363 10.6559 45.107 10.6559C45.3755 10.6582 45.8139 10.6582 46.0757 10.6582C46.3374 10.6582 46.4224 10.6582 46.503 10.6649C46.5835 10.6716 46.6551 10.6873 46.7312 10.732C46.805 10.7767 46.8833 10.8506 46.937 10.9311C46.9907 11.0139 47.022 11.1056 47.0287 11.2286C47.0354 11.3517 47.0197 11.5083 46.9459 11.8483C46.8699 12.1884 46.7356 12.7163 46.6573 13.0139C46.5768 13.3114 46.5522 13.383 46.5007 13.4591C46.447 13.5351 46.3643 13.6179 46.2368 13.6649C46.1092 13.7096 45.9392 13.7208 45.5522 13.7253C45.1652 13.7298 44.5634 13.7298 44.2166 13.7342C43.8721 13.7387 43.7826 13.7476 43.6998 13.7946C43.6171 13.8394 43.541 13.9221 43.4761 14.043C43.4113 14.1638 43.3598 14.3226 43.0958 15.3875C42.8318 16.4523 42.3531 18.4232 42.0913 19.553C41.8274 20.6827 41.7804 20.9691 41.7692 21.2174C41.758 21.4657 41.7826 21.6738 41.8587 21.8528C41.9348 22.0317 42.0578 22.1816 42.2099 22.2912C42.3598 22.4009 42.5365 22.4702 42.7446 22.506C42.9526 22.5418 43.1965 22.544 43.4314 22.5463C43.6663 22.5485 43.8922 22.5485 44.0377 22.5418C44.1831 22.5373 44.2457 22.5284 44.2949 22.5396C44.3464 22.553 44.3844 22.5865 44.3978 22.6559C44.4113 22.7252 44.4001 22.8282 44.3195 23.1928C44.239 23.5575 44.0891 24.1816 43.9728 24.6022C43.8587 25.0228 43.7804 25.2398 43.6797 25.3941C43.579 25.5485 43.456 25.638 43.2793 25.723C43.1003 25.808 42.8676 25.8863 42.4828 25.931C42.0981 25.9758 41.5612 25.9847 40.9817 25.8908C40.4023 25.7991 39.7759 25.6044 39.3307 25.3852C38.8855 25.166 38.6171 24.9199 38.3822 24.6313C38.1495 24.3427 37.9504 24.0094 37.8229 23.5955C37.6954 23.1816 37.6395 22.6872 37.6305 22.1906C37.6216 21.6939 37.6574 21.1928 37.7782 20.5485C37.8967 19.9042 38.0981 19.1123 38.4739 17.5888C38.8497 16.0653 39.4001 13.8103 39.8699 11.902C40.3397 9.99151 40.7267 8.42552 40.9325 7.61792C41.1361 6.80808 41.1585 6.75439 41.192 6.69622C41.2256 6.63806 41.2748 6.57318 41.3352 6.52844C41.3956 6.4837 41.4672 6.45685 41.5365 6.44566C41.6059 6.43448 41.673 6.43448 42.1518 6.43672L42.1473 6.43895Z" fill="black"/>
<path fill-rule="evenodd" clip-rule="evenodd" d="M46.7334 21.2306C47.3128 18.8056 48.1764 15.2575 48.6573 13.3179C49.2166 11.0651 49.2591 10.9846 49.3061 10.9175C49.3531 10.8503 49.4068 10.7944 49.4717 10.7541C49.5365 10.7139 49.6148 10.6893 50.1227 10.6781C50.6327 10.6669 51.5746 10.6669 52.0824 10.6691C52.5902 10.6714 52.664 10.6781 52.7423 10.7116C52.8184 10.7452 52.8989 10.8101 52.9638 10.8861C53.0287 10.9622 53.0757 11.0494 53.1003 11.168C53.1249 11.2866 53.1271 11.4365 53.0913 11.6758C53.0555 11.9175 52.9817 12.2486 52.4537 14.4879C52.1025 15.9846 51.5477 18.3335 51.0667 20.3671L51.0623 20.3827L50.8609 21.2329H50.8542C50.72 21.7765 50.6081 22.2351 50.3508 23.2731C49.975 24.7854 49.7491 25.6064 49.7021 25.6736C49.6551 25.7407 49.6014 25.7966 49.5365 25.8369C49.4717 25.8771 49.3934 25.9017 48.8855 25.9129C48.3755 25.9241 47.4336 25.9241 46.9258 25.9219C46.418 25.9196 46.3441 25.9129 46.2658 25.8794C46.1898 25.8458 46.1093 25.7809 46.0444 25.7049C45.9795 25.6288 45.9325 25.5416 45.9079 25.423C45.8833 25.3044 45.8676 25.1523 45.9169 24.9152C46.3419 22.8525 46.2345 23.3447 46.7334 21.2329V21.2306Z" fill="black"/>
<path fill-rule="evenodd" clip-rule="evenodd" d="M52.1942 8.48126C51.9481 8.47008 51.6774 8.43205 51.4403 8.34704C51.2009 8.26203 50.9973 8.13003 50.8139 7.97791C50.6304 7.82579 50.4716 7.65353 50.353 7.42758C50.2367 7.20163 50.1629 6.91975 50.145 6.6155C50.1293 6.31349 50.1718 5.9891 50.2815 5.71617C50.3933 5.44324 50.5723 5.22177 50.8005 5.03832C51.0287 4.85488 51.3083 4.7117 51.6058 4.62893C51.9034 4.54839 52.221 4.5305 52.5477 4.57524C52.8743 4.61998 53.2121 4.72513 53.5029 4.92647C53.7937 5.12781 54.0354 5.42311 54.1763 5.73183C54.3172 6.04056 54.3553 6.36047 54.3463 6.67366C54.3351 6.98686 54.277 7.29335 54.136 7.55733C53.9973 7.82131 53.7781 8.04279 53.5544 8.1882C53.3307 8.33361 53.1025 8.39849 52.8788 8.43876C52.655 8.47903 52.4358 8.49245 52.192 8.48126H52.1942Z" fill="black"/>
<path fill-rule="evenodd" clip-rule="evenodd" d="M54.0823 25.9263C54.4515 25.9263 55.0868 25.9263 55.494 25.9263C55.9033 25.9263 56.0868 25.9263 56.2367 25.8905C56.3866 25.8547 56.5051 25.7831 56.5924 25.6646C56.6796 25.546 56.74 25.3827 56.8139 25.121C56.8899 24.8592 56.9816 24.499 57.3306 23.0225C57.6819 21.546 58.2904 18.9532 58.5946 17.6579C58.8989 16.3626 58.8989 16.3626 58.9906 16.1545C59.0823 15.9487 59.2658 15.5349 59.5208 15.159C59.7758 14.7832 60.1024 14.4431 60.4581 14.1769C60.8116 13.9107 61.1919 13.7228 61.5655 13.6109C61.9391 13.4991 62.306 13.4678 62.6326 13.4857C62.9592 13.5058 63.2478 13.5774 63.4827 13.7317C63.7176 13.8861 63.9011 14.121 64.0286 14.4454C64.1561 14.7698 64.2277 15.1814 64.1695 15.8212C64.1114 16.4588 63.9212 17.3246 63.5655 18.8458C63.2098 20.3671 62.6908 22.546 62.4089 23.7295C62.127 24.9129 62.0868 25.1008 62.1002 25.2462C62.1136 25.3916 62.1807 25.4923 62.2702 25.5863C62.3597 25.6825 62.4716 25.772 62.6192 25.8279C62.7669 25.8838 62.9503 25.9039 63.3709 25.9151C63.7915 25.9263 64.4514 25.9263 64.8586 25.9263C65.2657 25.9263 65.4246 25.9263 65.5789 25.8883C65.7333 25.8503 65.8877 25.772 65.995 25.6422C66.1024 25.5125 66.1606 25.329 66.5006 23.8995C66.8384 22.47 67.4559 19.7921 67.9055 18.1613C68.3552 16.5281 68.6348 15.942 68.9682 15.4297C69.3015 14.9197 69.6863 14.4834 70.0577 14.1814C70.429 13.8772 70.7847 13.7049 71.1628 13.6132C71.5431 13.5214 71.948 13.5103 72.306 13.5953C72.6662 13.6803 72.9793 13.8593 73.1986 14.1143C73.4178 14.3693 73.5409 14.6982 73.5901 15.0852C73.6393 15.4722 73.6125 15.9174 73.3776 16.989C73.1427 18.0606 72.6952 19.7541 72.3395 21.1814C71.9816 22.6087 71.7131 23.7653 71.5677 24.4006C71.4245 25.0359 71.4044 25.1523 71.4268 25.2664C71.4492 25.3805 71.514 25.4923 71.6259 25.6019C71.7377 25.7116 71.8988 25.8189 72.2366 25.8726C72.5744 25.9263 73.0867 25.9263 73.5476 25.9263C74.0084 25.9263 74.4156 25.9263 74.6818 25.9084C74.948 25.8905 75.0711 25.8547 75.1807 25.7742C75.2903 25.6937 75.3887 25.5706 75.476 25.3805C75.5632 25.1903 75.6415 24.9308 76.0129 23.3559C76.3843 21.7809 77.0464 18.8861 77.4066 17.244C77.7668 15.602 77.8272 15.2127 77.8362 14.7787C77.8451 14.3447 77.8048 13.866 77.7198 13.423C77.6348 12.9823 77.5073 12.5774 77.3171 12.215C77.127 11.8548 76.872 11.5349 76.5297 11.2552C76.1874 10.9734 75.7579 10.7317 75.2567 10.5729C74.7579 10.4163 74.1874 10.3447 73.5565 10.3447C72.9234 10.3447 72.2277 10.4163 71.6617 10.5573C71.0934 10.6982 70.6572 10.9062 70.2478 11.1613C69.8407 11.4163 69.4626 11.7161 69.1762 11.9689C68.8899 12.2217 68.6952 12.4275 68.5498 12.5393C68.4044 12.6512 68.306 12.6713 68.2187 12.6669C68.1315 12.6624 68.0532 12.6378 67.9346 12.4767C67.8161 12.3156 67.6595 12.0203 67.4626 11.7608C67.2657 11.5013 67.0308 11.2754 66.7288 11.0673C66.4268 10.8593 66.0599 10.6691 65.5677 10.5438C65.0756 10.4186 64.4581 10.3581 63.9212 10.3693C63.3843 10.3805 62.9279 10.4633 62.4604 10.6132C61.9928 10.7631 61.5141 10.9801 61.1516 11.1836C60.7915 11.3872 60.5476 11.5774 60.3508 11.7496C60.1539 11.9197 60.004 12.0696 59.8989 12.1501C59.7937 12.2306 59.7333 12.2418 59.7042 12.2284C59.6751 12.215 59.6751 12.1769 59.6998 12.0315C59.7266 11.8861 59.7781 11.6311 59.8004 11.4521C59.8228 11.2731 59.8161 11.168 59.7713 11.0673C59.7266 10.9689 59.6438 10.8749 59.5409 10.8145C59.438 10.7541 59.315 10.7295 58.8228 10.7161C58.3306 10.7027 57.4693 10.7027 56.9928 10.7161C56.5141 10.7295 56.4201 10.7541 56.3351 10.7989C56.2501 10.8436 56.1718 10.9085 56.098 11.0584C56.0242 11.2083 55.9526 11.4454 55.3799 13.7496C54.8072 16.0561 53.7356 20.4319 53.1808 22.678C52.626 24.9263 52.5857 25.0449 52.5924 25.1657C52.5991 25.2865 52.655 25.4118 52.7222 25.5147C52.7915 25.6154 52.8743 25.6937 53.0085 25.7585C53.1427 25.8234 53.3239 25.8749 53.4671 25.8995C53.6103 25.9241 53.711 25.9241 54.0801 25.9241L54.0823 25.9263Z" fill="black"/>
<path fill-rule="evenodd" clip-rule="evenodd" d="M94.5766 21.2309C95.156 18.8058 95.9793 15.4144 96.5006 13.3182C97.0196 11.222 98.4983 4.91328 98.5453 4.84617C98.5923 4.77906 98.646 4.72313 98.7108 4.68286C98.7757 4.64259 98.854 4.61798 99.3618 4.6068C99.8719 4.59561 100.814 4.59561 101.322 4.59785C101.829 4.60009 101.903 4.6068 101.982 4.64035C102.058 4.67391 102.138 4.73879 102.203 4.81485C102.268 4.89091 102.315 4.97816 102.339 5.09673C102.364 5.2153 102.366 5.36518 102.331 5.60456C102.295 5.84617 100.738 12.6202 100.299 14.4882C99.8607 16.3562 99.3932 18.3338 98.9122 20.3674L98.9077 20.383L98.7064 21.2331H98.6997C98.5654 21.7768 98.4536 22.2354 98.1963 23.2734C97.8205 24.7857 97.5945 25.6067 97.5475 25.6738C97.5006 25.7409 97.4469 25.7969 97.382 25.8371C97.3171 25.8774 97.2388 25.902 96.731 25.9132C96.2209 25.9244 95.2791 25.9244 94.7713 25.9221C94.2634 25.9199 94.1896 25.9132 94.1113 25.8796C94.0352 25.8461 93.9547 25.7812 93.8898 25.7051C93.825 25.6291 93.778 25.5418 93.7534 25.4233C93.7288 25.3047 93.7131 25.1526 93.7623 24.9154C94.1874 22.8528 94.08 23.345 94.5789 21.2331L94.5766 21.2309Z" fill="black"/>
<path fill-rule="evenodd" clip-rule="evenodd" d="M100.252 24.2017V23.8504C100.252 23.2554 100.901 22.6469 101.505 22.6469C103.608 22.6469 103.402 25.4522 101.606 25.4522C101.228 25.4522 100.899 25.2621 100.684 25.0719L100.402 24.7028C100.33 24.5619 100.254 24.4142 100.254 24.1994L100.252 24.2017ZM99.8517 24.0518C99.8517 25.6871 101.89 26.3672 102.899 25.2934C104.301 23.8012 102.568 21.6335 100.919 22.4142C100.726 22.5059 100.509 22.6245 100.369 22.7654C100.049 23.0854 99.8495 23.5686 99.8495 24.0518H99.8517Z" fill="black"/>
<path fill-rule="evenodd" clip-rule="evenodd" d="M101.606 23.902H101.205V23.4501C101.686 23.4501 101.908 23.3762 101.908 23.7006C101.908 23.855 101.76 23.902 101.608 23.902H101.606ZM100.803 25.0049H101.203V24.2532C101.458 24.2532 101.539 24.2174 101.733 24.5239C101.816 24.6536 101.919 24.855 101.955 25.0049H102.456C102.395 24.7767 102.08 24.3046 101.903 24.1525C102.501 24.1033 102.565 23.1011 101.753 23.1011H100.8V25.0049H100.803Z" fill="black"/>
<path fill-rule="evenodd" clip-rule="evenodd" d="M88.1739 21.7206C88.0375 21.9219 87.8294 22.1904 87.5878 22.4119C87.3462 22.6333 87.071 22.8101 86.7869 22.9488C86.5028 23.0875 86.2097 23.1859 85.8563 23.2396C85.5028 23.2933 85.0889 23.3022 84.6885 23.2329C84.288 23.1635 83.8988 23.0181 83.5632 22.7899C83.2276 22.5617 82.9435 22.2508 82.7601 21.8973C82.5766 21.5439 82.4961 21.1479 82.4737 20.7072C82.4514 20.2687 82.4916 19.7855 82.5252 19.5103C82.5587 19.2351 82.5901 19.1658 82.6281 19.121C82.6661 19.0763 82.7131 19.0539 84.4379 19.0427C86.1605 19.0316 89.5609 19.0316 91.3104 19.0293C93.0598 19.0271 93.1583 19.0226 93.2388 19.0002C93.3193 18.9779 93.3797 18.9398 93.4334 18.8034C93.4871 18.6669 93.5341 18.4342 93.59 17.9622C93.6459 17.4902 93.7108 16.7788 93.7108 16.1322C93.7108 15.4857 93.6459 14.9041 93.5005 14.3493C93.3529 13.7944 93.1247 13.2642 92.8272 12.7788C92.5296 12.2933 92.1627 11.8549 91.7623 11.5103C91.3618 11.1658 90.9256 10.9153 90.5073 10.7251C90.0889 10.5349 89.6885 10.4052 89.1762 10.3202C88.6639 10.2329 88.0375 10.1904 87.4446 10.1904C86.8495 10.1904 86.2858 10.2329 85.731 10.3314C85.1762 10.4276 84.6348 10.5797 84.1292 10.7855C83.6259 10.9913 83.1605 11.2553 82.6952 11.5953C82.2299 11.9354 81.7646 12.3537 81.3194 12.8727C80.8742 13.3918 80.4469 14.0114 80.0957 14.6043C79.7444 15.1949 79.4693 15.7564 79.2478 16.3313C79.0286 16.9063 78.863 17.4947 78.7601 18.1792C78.6572 18.8638 78.6169 19.6423 78.6393 20.3313C78.6617 21.0204 78.7489 21.6199 78.9122 22.1881C79.0778 22.7564 79.3216 23.291 79.6326 23.7586C79.9435 24.2262 80.3216 24.6221 80.7735 24.9599C81.2254 25.2978 81.7489 25.5752 82.2903 25.772C82.8294 25.9689 83.3842 26.0852 84.0062 26.1434C84.6281 26.2016 85.3171 26.2016 85.9838 26.1277C86.6504 26.0539 87.2947 25.9085 87.91 25.6691C88.5252 25.4297 89.109 25.0964 89.6392 24.7295C90.1694 24.3626 90.646 23.9622 91.0464 23.5304C91.4468 23.0987 91.7735 22.6378 91.9882 22.3201C92.203 22.0025 92.3081 21.8257 92.3596 21.687C92.411 21.5483 92.4066 21.4477 92.3753 21.3671C92.3439 21.2866 92.2835 21.2262 92.1829 21.1949C92.0822 21.1635 91.939 21.1591 91.3797 21.1568C90.8205 21.1546 89.8406 21.1546 89.3193 21.1546C88.7959 21.1546 88.7287 21.1546 88.6594 21.1703C88.59 21.1859 88.5185 21.215 88.4491 21.3C88.3797 21.3828 88.3126 21.5215 88.1739 21.7228V21.7206ZM84.5118 16.4365C85.5431 16.4387 87.5744 16.4387 88.6124 16.432C89.6504 16.4253 89.6952 16.4141 89.7489 16.394C89.8026 16.3739 89.863 16.347 89.892 16.2732C89.9211 16.1994 89.9211 16.0786 89.9211 15.8884C89.9211 15.6982 89.9211 15.4365 89.8786 15.1591C89.8361 14.8839 89.7489 14.5931 89.6079 14.3291C89.467 14.0674 89.2724 13.8325 89.0375 13.6423C88.8026 13.4522 88.5296 13.3045 88.2164 13.2061C87.9032 13.1076 87.552 13.0584 87.1762 13.0584C86.8003 13.0607 86.4021 13.1121 86.0442 13.2329C85.6862 13.3537 85.3708 13.5439 85.0733 13.7721C84.7757 14.0003 84.4983 14.271 84.2388 14.5886C83.9793 14.9085 83.7399 15.2777 83.5856 15.5551C83.4312 15.8325 83.3596 16.0159 83.3261 16.1367C83.2925 16.2575 83.297 16.3112 83.3171 16.3492C83.3373 16.3873 83.3708 16.4052 83.4044 16.4186C83.4379 16.4298 83.4737 16.4343 84.5073 16.4365H84.5118Z" fill="black"/>
<path fill-rule="evenodd" clip-rule="evenodd" d="M79.4089 4.6649C79.9704 4.19287 80.8228 4.25998 81.2881 4.82597L83.1292 7.06981C83.5946 7.63581 83.5364 8.42551 82.9749 8.89978C82.4134 9.37182 81.6236 9.14587 81.1292 8.60448L79.2478 6.54632C78.7534 6.00494 78.8474 5.13917 79.4089 4.66714V4.6649ZM93.9524 4.03179C93.3395 3.63135 92.5006 3.79913 92.1068 4.41882L90.5498 6.86847C90.156 7.48815 90.3104 8.26444 90.9234 8.66488C91.5364 9.06533 92.2947 8.74542 92.7198 8.14811L94.3395 5.87742C94.7645 5.28011 94.5677 4.43224 93.9524 4.03179ZM86.9793 0.219727C88.0174 0.219727 88.9413 1.07207 88.8652 2.10563L88.5677 6.16601C88.4916 7.2018 88.0151 8.05191 86.9771 8.05191C85.9391 8.05191 85.4626 7.19956 85.3865 6.16601L85.089 2.10563C85.0129 1.06984 85.9368 0.219727 86.9749 0.219727H86.9793Z" fill="black"/>
</g>
<defs>
<clipPath id="clip0_1233_3687">
<rect width="102.835" height="26.0044" fill="white" transform="translate(0.581177 0.219727)"/>
</clipPath>
</defs>
</svg>
