<svg width="110" height="20" viewBox="0 0 110 20" fill="none" xmlns="http://www.w3.org/2000/svg">
<g clip-path="url(#clip0_1233_3703)">
<path fill-rule="evenodd" clip-rule="evenodd" d="M21.8608 19.4394H18.0751L11.0441 5.38024L4.01597 19.4394H0.230286L9.10973 1.68047C9.48387 0.92943 10.2044 0.486011 11.0441 0.486011C11.8839 0.486011 12.6044 0.92943 12.9786 1.68047L21.858 19.4394H21.8608ZM109.591 19.4394V19.4338L105.658 11.5659C107.892 10.8481 109.522 9.07447 109.591 6.34745V6.00657C109.502 3.22689 106.994 0.48324 103.915 0.48324H93.9107C92.719 0.48324 91.749 1.45599 91.749 2.6449V19.4366H95.5347V11.8375H102.009L105.808 19.4366H109.591V19.4394ZM52.1712 0.48324H48.3855V17.2749C48.3855 18.4666 49.3582 19.4366 50.5499 19.4366H65.2243V15.6509H52.1712V0.480469V0.48324ZM72.7929 0.48324H71.1716C69.9799 0.48324 69.01 1.45599 69.01 2.6449V17.2749C69.01 18.4666 69.9827 19.4366 71.1716 19.4366H87.9661V15.6509H72.7956V11.8514H87.9661V8.06569H72.7956V4.26615H87.9661V0.480469H72.7956L72.7929 0.48324ZM95.5347 8.0546H103.901L103.915 8.08509V8.0546C104.96 8.0546 105.808 7.20657 105.808 6.16176C105.808 5.11696 104.96 4.26892 103.915 4.26892H95.5347V8.0546ZM43.8986 9.50957C43.7102 8.00195 42.0917 7.7553 40.6312 6.98209C40.4622 6.8934 40.8585 6.25322 39.9051 5.56038C36.4271 3.03012 31.5301 4.91465 29.4294 2.7225V17.2056H29.4682C32.7328 17.0892 32.5638 10.5211 38.8104 10.3631C41.0137 10.3077 42.4409 10.5544 42.7319 10.6209C43.2224 10.729 43.1864 11.2029 43.0063 11.6047C43.8321 11.2001 43.907 10.219 43.9125 10.0084V9.97239V9.96962C43.9125 9.81719 43.907 9.66477 43.8986 9.51511V9.50957ZM39.919 6.74929C39.3758 6.87955 39.1374 7.38393 38.4862 6.99317C37.9153 6.64952 38.2201 5.49386 36.6017 5.11696C39.3176 5.30818 39.2677 6.88786 39.919 6.74929ZM29.4321 0.486011H27.8109C26.6192 0.486011 25.6492 1.45876 25.6492 2.64767V17.2777C25.6492 18.4694 26.622 19.4394 27.8109 19.4394H35.1245C40.3596 19.4394 44.6026 15.1964 44.6026 9.9613C44.6026 4.7262 40.3596 0.48324 35.1245 0.48324H29.4321V0.486011Z" fill="black"/>
</g>
<defs>
<clipPath id="clip0_1233_3703">
<rect width="109.364" height="18.9561" fill="white" transform="translate(0.228149 0.484375)"/>
</clipPath>
</defs>
</svg>
