<svg width="98" height="40" viewBox="0 0 98 40" fill="none" xmlns="http://www.w3.org/2000/svg">
<g clip-path="url(#clip0_1233_3707)">
<path d="M0.461853 36.0256C0.646092 35.9795 0.923695 35.9795 1.20005 35.9795C1.61583 35.9795 1.93825 36.0716 2.12249 36.2559C2.30673 36.394 2.39885 36.6243 2.39885 36.948C2.39885 37.2243 2.30673 37.4559 2.16855 37.6401C1.93825 37.9165 1.56853 38.0086 1.15399 38.0086C1.01581 38.0086 0.877635 38.0086 0.738211 37.9625V39.4389H0.507913V36.0256H0.461853ZM0.692151 37.7322C0.83033 37.7783 0.968509 37.7783 1.10793 37.7783C1.70795 37.7783 2.07643 37.5019 2.07643 36.948C2.07643 36.394 1.66065 36.1637 1.15399 36.1637C0.923695 36.1637 0.738211 36.1637 0.692151 36.2098V37.7322Z" fill="black"/>
<path d="M3.73702 36.0257C3.96731 35.9797 4.24492 35.9336 4.47522 35.9336C4.93706 35.9336 5.21342 36.0257 5.39765 36.21C5.53583 36.3481 5.62795 36.5797 5.62795 36.81C5.62795 37.2718 5.35159 37.5482 4.93581 37.6864C5.21217 37.7785 5.39765 38.0088 5.44371 38.4246C5.58189 38.9785 5.62795 39.2088 5.72007 39.347H5.44371C5.39765 39.2549 5.30553 38.9312 5.21342 38.5167C5.1213 38.0088 4.891 37.7785 4.42916 37.7785H3.8752V39.347H3.6449V36.0257H3.73702ZM3.96732 37.6403H4.52128C5.02918 37.6403 5.39765 37.3639 5.39765 36.9021C5.39765 36.3942 5.02793 36.1639 4.47522 36.1639C4.24492 36.1639 4.05943 36.21 3.96732 36.21V37.6403Z" fill="black"/>
<path d="M9.87166 37.6405C9.87166 38.8392 9.13346 39.4393 8.3492 39.4393C7.51888 39.4393 6.8728 38.7932 6.8728 37.6865C6.8728 36.5798 7.56494 35.8877 8.39526 35.8877C9.27164 35.9338 9.87166 36.5798 9.87166 37.6405ZM7.10435 37.7326C7.10435 38.5168 7.56619 39.255 8.35045 39.255C9.18077 39.255 9.59655 38.5168 9.59655 37.6865C9.59655 36.9483 9.18077 36.118 8.35045 36.118C7.52013 36.118 7.10435 36.9023 7.10435 37.7326Z" fill="black"/>
<path d="M11.2099 35.98H12.9166V36.1642H11.4402V37.5485H12.7784V37.7327H11.4402V39.3934H11.2099V35.98Z" fill="black"/>
<path d="M15.9155 37.6867H14.5312V39.2091H16.0537V39.3934H14.2549V35.98H15.9616V36.1642H14.4852V37.5024H15.8695V37.6867H15.9155Z" fill="black"/>
<path d="M17.2998 39.0246C17.484 39.1627 17.7616 39.2549 18.038 39.2549C18.5459 39.2549 18.8683 38.9785 18.8683 38.5627C18.8683 38.1943 18.684 37.9627 18.1761 37.7785C17.6222 37.5942 17.2998 37.3166 17.2998 36.81C17.2998 36.3021 17.7155 35.9336 18.3143 35.9336C18.6367 35.9336 18.8683 36.0257 19.0065 36.0718L18.9143 36.256C18.8222 36.21 18.5919 36.0718 18.3143 36.0718C17.7604 36.0718 17.5761 36.4403 17.5761 36.7179C17.5761 37.0863 17.8064 37.2718 18.2683 37.5021C18.8222 37.7324 19.1446 37.9627 19.1446 38.5167C19.1446 39.0246 18.7762 39.4852 18.038 39.4852C17.7616 39.4852 17.3919 39.393 17.2076 39.2549L17.2998 39.0246Z" fill="black"/>
<path d="M20.3907 39.0246C20.5749 39.1627 20.8525 39.2549 21.1289 39.2549C21.6368 39.2549 21.9592 38.9785 21.9592 38.5627C21.9592 38.1943 21.775 37.9627 21.2671 37.7785C20.7131 37.5942 20.3907 37.3166 20.3907 36.81C20.3907 36.3021 20.8065 35.9336 21.4053 35.9336C21.7277 35.9336 21.9592 36.0257 22.0974 36.0718L22.0053 36.256C21.9132 36.21 21.6829 36.0718 21.4053 36.0718C20.8513 36.0718 20.6671 36.4403 20.6671 36.7179C20.6671 37.0863 20.8974 37.2718 21.3592 37.5021C21.9132 37.7324 22.2356 37.9627 22.2356 38.5167C22.2356 39.0246 21.8671 39.4852 21.1289 39.4852C20.8525 39.4852 20.4828 39.393 20.2986 39.2549L20.3907 39.0246Z" fill="black"/>
<path d="M23.8041 35.98H23.5739V39.3934H23.8041V35.98Z" fill="black"/>
<path d="M28.186 37.6405C28.186 38.8392 27.4478 39.4393 26.6636 39.4393C25.8333 39.4393 25.1872 38.7932 25.1872 37.6865C25.1872 36.5798 25.8793 35.8877 26.7097 35.8877C27.54 35.9338 28.186 36.5798 28.186 37.6405ZM25.4187 37.7326C25.4187 38.5168 25.8806 39.255 26.6648 39.255C27.4952 39.255 27.9109 38.5168 27.9109 37.6865C27.9109 36.9483 27.4952 36.118 26.6648 36.118C25.7885 36.118 25.4187 36.9023 25.4187 37.7326Z" fill="black"/>
<path d="M29.5242 39.3934V35.98H29.7545L31.0928 38.0103C31.3691 38.4261 31.5533 38.7485 31.7388 39.071C31.6928 38.6091 31.6928 38.1946 31.6928 37.6867V35.98H31.9231V39.3934H31.6928L30.4006 37.4091C30.1243 36.9933 29.8927 36.6709 29.7545 36.3024C29.8006 36.7182 29.8006 37.0867 29.8006 37.6867V39.4394H29.5242V39.3934Z" fill="black"/>
<path d="M33.9062 38.1943L33.4904 39.3944H33.2601L34.5062 35.981H34.7365L35.9826 39.3944H35.7523L35.3365 38.1943H33.9062ZM35.1983 38.0101L34.7825 36.8573C34.6904 36.627 34.6444 36.4416 34.5983 36.2573C34.5522 36.4416 34.5062 36.6258 34.4141 36.8573L33.9983 38.0101H35.1983Z" fill="black"/>
<path d="M37.1826 35.98H37.4129V39.2091H38.9353V39.3934H37.1826V35.98Z" fill="black"/>
<path d="M42.4409 38.1943L42.0251 39.3944H41.7948L43.0409 35.981H43.2712L44.5173 39.3944H44.287L43.8712 38.1943H42.4409ZM43.733 38.0101L43.3173 36.8573C43.2251 36.627 43.1791 36.4416 43.133 36.2573C43.087 36.4416 43.0409 36.6258 42.9488 36.8573L42.533 38.0101H43.7318H43.733Z" fill="black"/>
<path d="M47.3768 37.6867H45.9938V39.2091H47.515V39.3934H45.7622V35.98H47.4689V36.1642H45.9938V37.5024H47.3768V37.6867Z" fill="black"/>
<path d="M48.8531 36.0257C49.0834 35.9797 49.361 35.9336 49.5913 35.9336C50.0532 35.9336 50.3295 36.0257 50.5138 36.21C50.6519 36.3481 50.7441 36.5797 50.7441 36.81C50.7441 37.2718 50.4677 37.5482 50.0519 37.6864C50.3283 37.7785 50.5138 38.0088 50.5598 38.4246C50.698 38.9785 50.7441 39.2088 50.8362 39.347H50.6059C50.5598 39.2549 50.4677 38.9312 50.3756 38.5167C50.2835 38.0088 50.0532 37.7785 49.5913 37.7785H49.0374V39.347H48.8071V36.0257H48.8531ZM49.0834 37.6403H49.6374C50.1453 37.6403 50.5138 37.3639 50.5138 36.9021C50.5138 36.3942 50.144 36.1639 49.5913 36.1639C49.361 36.1639 49.1755 36.21 49.0834 36.21V37.6403Z" fill="black"/>
<path d="M54.989 37.6405C54.989 38.8392 54.2508 39.4393 53.4665 39.4393C52.6362 39.4393 51.9901 38.7932 51.9901 37.6865C51.9901 36.5798 52.6822 35.8877 53.5126 35.8877C54.3889 35.9338 54.989 36.5798 54.989 37.6405ZM52.2204 37.7326C52.2204 38.5168 52.6822 39.255 53.4665 39.255C54.2968 39.255 54.7126 38.5168 54.7126 37.6865C54.7126 36.9483 54.2968 36.118 53.4665 36.118C52.6362 36.118 52.2204 36.9023 52.2204 37.7326Z" fill="black"/>
<path d="M56.2338 39.0246C56.4181 39.1627 56.6957 39.2549 56.972 39.2549C57.4799 39.2549 57.8024 38.9785 57.8024 38.5627C57.8024 38.1943 57.6181 37.9627 57.1102 37.7785C56.5563 37.5942 56.2338 37.3166 56.2338 36.81C56.2338 36.3021 56.6496 35.9336 57.2484 35.9336C57.5708 35.9336 57.8024 36.0257 57.9405 36.0718L57.8484 36.256C57.7563 36.21 57.526 36.0718 57.2484 36.0718C56.6944 36.0718 56.5102 36.4403 56.5102 36.7179C56.5102 37.0863 56.7405 37.2718 57.2023 37.5021C57.7563 37.7324 58.0787 37.9627 58.0787 38.5167C58.0787 39.0246 57.709 39.4852 56.972 39.4852C56.6957 39.4852 56.326 39.393 56.1417 39.2549L56.2338 39.0246Z" fill="black"/>
<path d="M62.2316 37.6405C62.2316 38.8392 61.4934 39.4393 60.7092 39.4393C59.8789 39.4393 59.2328 38.7932 59.2328 37.6865C59.2328 36.5798 59.9249 35.8877 60.7552 35.8877C61.6316 35.9338 62.2316 36.5798 62.2316 37.6405ZM59.4643 37.7326C59.4643 38.5168 59.9262 39.255 60.7104 39.255C61.5407 39.255 61.9565 38.5168 61.9565 37.6865C61.9565 36.9483 61.5407 36.118 60.7104 36.118C59.8801 36.118 59.4643 36.9023 59.4643 37.7326Z" fill="black"/>
<path d="M63.5698 35.98H63.8001V39.2091H65.3225V39.3934H63.5698V35.98Z" fill="black"/>
<path d="M68.3214 39.0246C68.5057 39.1627 68.7833 39.2549 69.0596 39.2549C69.5675 39.2549 69.8899 38.9785 69.8899 38.5627C69.8899 38.1943 69.7057 37.9627 69.1978 37.7785C68.6438 37.5942 68.3214 37.3166 68.3214 36.81C68.3214 36.3021 68.7372 35.9336 69.336 35.9336C69.6584 35.9336 69.8899 36.0257 70.0281 36.0718L69.936 36.256C69.8439 36.21 69.6136 36.0718 69.336 36.0718C68.782 36.0718 68.5978 36.4403 68.5978 36.7179C68.5978 37.0863 68.8281 37.2718 69.2899 37.5021C69.8439 37.7324 70.1663 37.9627 70.1663 38.5167C70.1663 39.0246 69.7966 39.4852 69.0596 39.4852C68.7833 39.4852 68.4135 39.393 68.2293 39.2549L68.3214 39.0246Z" fill="black"/>
<path d="M74.3179 37.6405C74.3179 38.8392 73.5797 39.4393 72.7954 39.4393C71.9651 39.4393 71.319 38.7932 71.319 37.6865C71.319 36.5798 72.0112 35.8877 72.8415 35.8877C73.7179 35.9338 74.3179 36.5798 74.3179 37.6405ZM71.5493 37.7326C71.5493 38.5168 72.0112 39.255 72.7954 39.255C73.6258 39.255 74.0415 38.5168 74.0415 37.6865C74.0415 36.9483 73.6258 36.118 72.7954 36.118C71.9651 36.118 71.5493 36.9023 71.5493 37.7326Z" fill="black"/>
<path d="M75.6561 35.98H75.8864V39.2091H77.4089V39.3934H75.6561V35.98Z" fill="black"/>
<path d="M78.701 35.98V38.0564C78.701 38.9328 79.1168 39.2564 79.6235 39.2564C80.1774 39.2564 80.592 38.8867 80.592 38.0564V35.98H80.8223V38.0103C80.8223 39.071 80.2683 39.4407 79.6222 39.4407C79.0222 39.4407 78.4695 39.0722 78.4695 38.0564V35.98H78.6998H78.701Z" fill="black"/>
<path d="M83.0369 36.1642H81.9302V35.98H84.4212V36.1642H83.3133V39.3934H83.083V36.1642H83.0369Z" fill="black"/>
<path d="M85.7121 35.98H85.4818V39.3934H85.7121V35.98Z" fill="black"/>
<path d="M90.0952 37.6405C90.0952 38.8392 89.357 39.4393 88.5728 39.4393C87.7425 39.4393 87.0964 38.7932 87.0964 37.6865C87.0964 36.5798 87.7885 35.8877 88.6188 35.8877C89.4492 35.9338 90.0952 36.5798 90.0952 37.6405ZM87.3279 37.7326C87.3279 38.5168 87.7898 39.255 88.574 39.255C89.4043 39.255 89.8662 38.5168 89.8662 37.6865C89.8662 36.9483 89.4504 36.118 88.6201 36.118C87.6976 36.118 87.3279 36.9023 87.3279 37.7326Z" fill="black"/>
<path d="M91.4322 39.3934V35.98H91.6625L93.0007 38.0103C93.277 38.4261 93.4625 38.7485 93.6468 39.071C93.6007 38.6091 93.6007 38.1946 93.6007 37.6867V35.98H93.831V39.3934H93.6007L92.3085 37.4091C92.0322 36.9933 91.8006 36.6709 91.6625 36.3024C91.7085 36.7182 91.7085 37.0867 91.7085 37.6867V39.4394H91.4322V39.3934Z" fill="black"/>
<path d="M95.3074 39.0246C95.4916 39.1627 95.7692 39.2549 96.0456 39.2549C96.5535 39.2549 96.8759 38.9785 96.8759 38.5627C96.8759 38.1943 96.6917 37.9627 96.1838 37.7785C95.6298 37.5942 95.3074 37.3166 95.3074 36.81C95.3074 36.3021 95.7232 35.9336 96.322 35.9336C96.6444 35.9336 96.8759 36.0257 97.0141 36.0718L96.922 36.256C96.8299 36.21 96.5996 36.0718 96.322 36.0718C95.768 36.0718 95.5838 36.4403 95.5838 36.7179C95.5838 37.0863 95.8141 37.2718 96.2759 37.5021C96.8299 37.7324 97.1523 37.9627 97.1523 38.5167C97.1523 39.0246 96.7825 39.4852 96.0456 39.4852C95.7692 39.4852 95.3995 39.393 95.2153 39.2549L95.3074 39.0246Z" fill="black"/>
<path d="M97.9378 31.5044H0V32.1044H97.9378V31.5044Z" fill="black"/>
<path d="M11.4403 5.39484H13.747V18.5891H11.4403V16.7442C10.656 17.7127 9.22568 18.9588 6.91897 18.9588C3.59769 18.9588 0.506714 16.606 0.506714 11.9465C0.506714 7.37914 3.55163 5.02637 6.91897 5.02637C9.45598 5.02637 10.8403 6.41065 11.4403 7.24097V5.39609V5.39484ZM2.81343 11.9913C2.81343 14.806 4.38195 16.9732 7.14926 16.9732C9.96388 16.9732 11.5312 14.6665 11.5312 12.0374C11.5312 8.624 9.17838 7.1476 7.14926 7.1476C4.88861 7.1476 2.81343 8.76218 2.81343 11.9913Z" fill="black"/>
<path d="M29.1085 15.2208C28.7387 15.959 28.14 16.7432 27.4939 17.3432C26.2939 18.4039 24.7726 18.9578 23.1108 18.9578C19.9277 18.9578 16.6064 16.9748 16.6064 12.0377C16.6064 8.11637 19.0052 5.02539 23.0186 5.02539C25.6017 5.02539 27.2163 6.31755 28.0005 7.42423C28.8309 8.62427 29.2927 10.6534 29.2467 12.3601H18.9592C19.0052 15.0813 20.8501 16.8353 23.1568 16.8353C24.2174 16.8353 25.0938 16.5129 25.8781 15.8668C26.4781 15.3589 26.9387 14.6668 27.2624 14.068L29.1072 15.2208H29.1085ZM26.8478 10.5613C26.4793 8.48484 24.9108 7.14787 22.9726 7.14787C21.0356 7.14787 19.421 8.62427 19.0973 10.5613H26.8478Z" fill="black"/>
<path d="M32.0613 5.39517H34.368V6.82551C34.5983 6.45579 35.5668 5.07275 37.3669 5.07275C38.059 5.07275 38.8433 5.34911 39.3972 5.62671L38.3366 7.70313C37.8287 7.33466 37.3681 7.24129 36.9984 7.24129C36.0759 7.24129 35.522 7.61102 35.1535 8.07161C34.785 8.57951 34.3692 9.45589 34.3692 11.6232V18.5894H32.0625V5.39517H32.0613Z" fill="black"/>
<path d="M61.217 8.48577C60.8946 7.70151 60.2485 7.14755 59.3722 7.14755C58.5418 7.14755 57.8036 7.60939 57.8036 8.62395C57.8036 9.59244 58.4497 9.87005 59.9261 10.5149C61.8171 11.2991 62.7407 11.8992 63.2474 12.5452C63.8014 13.2374 63.9395 13.9295 63.9395 14.6677C63.9395 17.435 61.9552 19.0036 59.3722 19.0036C58.8182 19.0036 55.8666 18.9575 54.7587 15.6362L56.743 14.8059C56.9733 15.498 57.7576 16.9744 59.4182 16.9744C60.8946 16.9744 61.5868 15.8678 61.5868 14.898C61.5868 13.6519 60.7104 13.2374 59.4643 12.6834C57.8958 11.9913 56.8351 11.4834 56.2351 10.7452C55.7272 10.0991 55.6351 9.45302 55.6351 8.80818C55.6351 6.50147 57.2497 5.11719 59.4643 5.11719C60.1564 5.11719 62.0474 5.25537 63.1092 7.51602L61.2183 8.48452L61.217 8.48577Z" fill="black"/>
<path d="M69.7044 7.51624V18.588H67.3977V7.51624H65.5068V5.44107H67.3977V0.689453H69.7044V5.44107H72.0111V7.51624H69.7044Z" fill="black"/>
<path d="M84.0975 5.39484H86.4042V18.5891H84.0975V16.7442C83.3133 17.7127 81.8829 18.9588 79.5762 18.9588C76.2549 18.9588 73.1639 16.606 73.1639 11.9465C73.1639 7.37914 76.2089 5.02637 79.5762 5.02637C82.1132 5.02637 83.4975 6.41065 84.0975 7.24097V5.39609V5.39484ZM75.5167 11.9913C75.5167 14.806 77.0852 16.9732 79.8526 16.9732C82.6672 16.9732 84.2357 14.6665 84.2357 12.0374C84.2357 8.624 81.8829 7.1476 79.8526 7.1476C77.5919 7.1476 75.5167 8.76218 75.5167 11.9913Z" fill="black"/>
<path d="M89.8176 5.39517H92.1243V6.82551C92.3546 6.45579 93.3244 5.07275 95.1232 5.07275C95.8153 5.07275 96.5996 5.34911 97.1535 5.62671L96.0929 7.70313C95.585 7.33466 95.1244 7.24129 94.7547 7.24129C93.8323 7.24129 93.2783 7.61102 92.9098 8.07161C92.5401 8.57951 92.1256 9.45589 92.1256 11.6232V18.5894H89.8188V5.39517H89.8176Z" fill="black"/>
<path d="M46.178 5.11719C42.9949 5.16325 40.4579 7.00812 39.5815 9.82274L44.5635 9.73062L46.178 5.11719Z" fill="black"/>
<path d="M52.9127 9.82274C52.0363 7.05418 49.5453 5.16325 46.3162 5.11719L47.8847 9.73062L52.9127 9.82274Z" fill="black"/>
<path d="M39.5815 9.86914C39.3512 10.5613 39.2591 11.2995 39.2591 12.0837C39.2591 14.4826 40.3658 16.5129 42.0737 17.7578L43.5501 12.9141L39.5828 9.86914H39.5815Z" fill="black"/>
<path d="M52.9126 9.86914L48.8992 12.868L50.3756 17.7117C52.1284 16.4656 53.1902 14.4826 53.1902 12.0377C53.2363 11.2995 53.1442 10.5613 52.9139 9.86914H52.9126Z" fill="black"/>
<path d="M42.0724 17.7114C43.2252 18.4957 44.6555 18.9575 46.224 18.9575C47.7926 18.9575 49.2229 18.4957 50.3756 17.7114L46.224 14.8047L42.0724 17.7114Z" fill="black"/>
<path d="M55.6351 26.2463C55.6811 26.3845 55.7272 26.5226 55.7272 26.616C55.7272 27.0318 55.4048 27.4463 54.7587 27.8621C54.1126 28.2779 53.4205 28.4621 52.7283 28.4621C51.9901 28.4621 51.3901 28.2318 50.9295 27.7239C50.5137 27.216 50.2834 26.5712 50.2834 25.7409C50.2834 24.4026 50.6992 23.2499 51.4835 22.2814C52.2677 21.3129 53.2362 20.8511 54.2981 20.8511C54.7599 20.8511 55.1284 20.9432 55.4521 21.1274C55.7745 21.3117 55.9139 21.5432 55.9139 21.7735C55.9139 22.0038 55.7758 22.2354 55.4982 22.5117C55.1297 21.7275 54.6218 21.3117 53.9757 21.3117C53.2375 21.3117 52.6375 21.7275 52.0848 22.5578C51.5308 23.3881 51.3005 24.3566 51.3005 25.4645C51.3005 26.1567 51.4387 26.7106 51.7623 27.1251C52.0848 27.5409 52.5005 27.7252 53.0545 27.7252C53.9769 27.7252 54.8533 27.2633 55.6376 26.2488L55.6351 26.2463Z" fill="black"/>
<path d="M61.5854 24.6782C61.5854 24.7703 61.5854 24.8164 61.5854 24.9085C61.5854 25.877 61.3091 26.6612 60.7091 27.3994C60.109 28.0916 59.463 28.4601 58.6787 28.4601C58.0787 28.4601 57.6181 28.2298 57.2484 27.814C56.8799 27.3982 56.6944 26.8455 56.6944 26.1533C56.6944 25.3691 56.9247 24.723 57.4326 24.169C57.8944 23.6151 58.4932 23.3387 59.1393 23.3387C59.2314 23.3387 59.3235 23.3387 59.4617 23.3848C59.3696 23.2466 59.3696 23.1084 59.3696 23.0151C59.3696 22.8769 59.4157 22.6926 59.5078 22.5532C60.246 22.5993 60.846 23.0151 61.3066 23.7993C61.8145 24.1678 62.3211 24.3533 62.829 24.3533C63.1515 24.3533 63.5672 24.2151 63.9357 23.9836L64.166 24.3993C63.7042 24.7678 63.1975 24.9533 62.7357 24.9533C62.366 24.9072 61.9975 24.8151 61.5817 24.6769L61.5854 24.6782ZM60.5709 24.2624C60.3406 24.1703 60.109 24.0321 59.8787 23.8466C59.7406 23.8006 59.6024 23.8006 59.509 23.8006C59.0011 23.8006 58.5866 24.0309 58.1708 24.5388C57.8023 25.0467 57.5708 25.5994 57.5708 26.2455C57.5708 26.7073 57.709 27.0758 57.9405 27.3982C58.1708 27.6746 58.4945 27.86 58.8629 27.86C59.3708 27.86 59.7854 27.5837 60.1551 27.0297C60.5236 26.4758 60.7091 25.7836 60.7091 25.0454C60.663 24.7691 60.6169 24.4915 60.5709 24.2612V24.2624Z" fill="black"/>
<path d="M64.354 26.523C65.4146 24.0781 66.3371 22.832 67.1686 22.832C67.8147 22.832 68.1371 23.5702 68.1371 25.0006V25.6006C68.1371 26.2927 68.1832 26.7546 68.2293 27.0309C68.2753 27.3073 68.4135 27.4467 68.5977 27.4467C68.828 27.4467 69.1517 27.2164 69.4741 26.7546C69.7965 26.2927 70.3044 25.4164 71.0426 24.0333L71.4111 24.2636C70.765 25.6479 70.165 26.6164 69.6584 27.3085C69.1505 27.9546 68.6899 28.277 68.2741 28.277C67.9056 28.277 67.628 28.0928 67.4898 27.677C67.3516 27.2612 67.2595 26.5703 67.2595 25.6006V25.1848C67.2595 24.6308 67.2135 24.2624 67.1674 24.0321C67.1213 23.8018 66.9832 23.7097 66.845 23.7097C66.4753 23.7097 65.8304 24.586 64.954 26.2927C64.7237 26.7085 64.5843 26.9849 64.5383 27.123C64.308 27.5849 64.2158 27.8612 64.2158 28.0915C64.2158 28.1837 64.2158 28.2297 64.2619 28.3218C64.0777 28.414 63.9395 28.46 63.8461 28.46C63.5698 28.46 63.3843 28.2758 63.3843 27.9061C63.3843 27.8139 63.4303 27.306 63.4764 26.4757L63.5685 25.4151C63.6146 24.9533 63.6146 24.6308 63.6146 24.3545C63.6146 23.9848 63.5225 23.7545 63.3843 23.5242C63.4303 23.5242 63.5685 23.4781 63.7067 23.386C63.8909 23.2939 64.0291 23.2939 64.1685 23.2939C64.3988 23.2939 64.491 23.4781 64.491 23.8478C64.491 24.0321 64.491 24.4018 64.4449 24.8624C64.4449 24.9545 64.4449 25.0466 64.3988 25.1848L64.3528 26.523H64.354Z" fill="black"/>
<path d="M73.5337 26.3388C73.6258 26.477 73.6719 26.6612 73.6719 26.7546C73.6719 27.077 73.4416 27.4468 72.9337 27.8152C72.4258 28.1837 72.0112 28.4153 71.5954 28.4153C71.2257 28.4153 70.9494 28.231 70.7191 27.9073C70.4888 27.5376 70.3966 27.1231 70.3966 26.5691C70.3966 25.9691 70.5348 25.0927 70.8124 23.94L70.9967 23.1097H70.2585C69.936 23.1097 69.7045 23.1557 69.5203 23.2479C69.7045 22.9254 69.8427 22.6939 69.936 22.6018C70.0282 22.5097 70.2585 22.4636 70.49 22.4636H71.1361L71.2282 22.1412C71.3664 21.6333 71.5046 21.3109 71.7361 21.0806C71.9203 20.8963 72.1979 20.8042 72.5664 20.8042C72.6125 20.8042 72.6585 20.8042 72.7967 20.8042C72.5664 21.1266 72.3349 21.6806 72.0585 22.4648H74.4113C74.8271 22.4648 75.1495 22.4188 75.3337 22.2806C75.2416 22.603 75.1495 22.8346 75.0574 22.9267C74.9192 23.0188 74.6877 23.0649 74.3652 23.0649H71.8743C71.8282 23.157 71.8282 23.2491 71.8282 23.2952C71.4597 24.6334 71.2743 25.6479 71.2743 26.3401C71.2743 27.0783 71.5046 27.4928 72.0125 27.4928C72.2428 27.4928 72.5204 27.3546 72.8428 27.1231C73.2125 26.9389 73.4428 26.6625 73.5349 26.3388H73.5337Z" fill="black"/>
<path d="M75.2403 28.2759C75.0561 28.368 74.8718 28.4141 74.7324 28.4141C74.41 28.4141 74.2706 28.2759 74.2706 27.9535C74.2706 27.8153 74.3166 27.4456 74.4087 26.8468L74.639 25.6007C74.7772 24.8625 74.8233 24.3546 74.8233 23.9861C74.8233 23.8019 74.7772 23.6176 74.6851 23.5255C75.0075 23.3873 75.2391 23.3413 75.4233 23.3413C75.6075 23.3413 75.7457 23.4795 75.7457 23.7571C75.7457 23.9413 75.6536 24.4032 75.5154 25.1874L75.2851 26.6178C75.8391 25.4177 76.3918 24.4953 76.9458 23.8031C77.4997 23.1571 78.0064 22.7886 78.4682 22.7886C78.6525 22.7886 78.7906 22.8346 78.884 22.9268C79.0222 23.0189 79.0682 23.1571 79.0682 23.2952C79.0682 23.5255 78.8379 23.8492 78.3761 24.2177C78.284 23.9413 78.0997 23.8479 77.9143 23.8479C77.5458 23.8479 77.0839 24.3098 76.4839 25.1862C76.1142 25.7401 75.7918 26.2928 75.5615 26.8929C75.2851 27.4929 75.1457 27.9074 75.1457 28.139L75.2378 28.2771L75.2403 28.2759Z" fill="black"/>
<path d="M82.8526 25.2781C82.4841 26.1545 82.0223 26.8927 81.4683 27.4927C80.9144 28.0927 80.4538 28.4152 80.038 28.4152C79.7156 28.4152 79.484 28.277 79.2998 27.9546C79.1156 27.6321 79.0234 27.2164 79.0234 26.7085C79.0234 25.6939 79.2998 24.7715 79.8538 23.9872C80.4077 23.2029 81.0538 22.8345 81.7908 22.8345C82.2526 22.8345 82.7132 22.9727 83.2211 23.2963C83.3132 22.9739 83.5896 22.8345 84.1435 22.8345C84.1896 22.8345 84.2356 22.8345 84.3278 22.8345C84.1435 23.1108 84.0514 23.5266 83.958 23.9872L83.8659 24.403C83.7738 24.8636 83.7278 25.4175 83.7278 26.0176C83.7278 26.7558 83.8659 27.0782 84.1896 27.0782C84.512 27.0782 84.9278 26.8018 85.4818 26.2018C86.0357 25.6018 86.5884 24.8636 87.0963 23.9411L87.4187 24.2175C86.8648 25.2781 86.266 26.2018 85.5278 26.9388C84.8357 27.677 84.2356 27.9994 83.729 27.9994C83.0829 27.9994 82.7605 27.3994 82.7605 26.2466C82.8526 26.0624 82.8526 25.6927 82.8526 25.2781ZM83.0829 24.1241C82.4829 23.6635 81.9289 23.432 81.5605 23.432C81.0986 23.432 80.7301 23.7544 80.4065 24.3544C80.0841 24.9545 79.8986 25.6466 79.8986 26.4769C79.8986 27.123 80.0828 27.4915 80.4986 27.4915C80.9144 27.4915 81.7447 26.4769 82.8974 24.4005C82.8974 24.3544 82.9896 24.2623 83.0817 24.1241H83.0829Z" fill="black"/>
<path d="M92.6322 24.2623C91.9401 25.6005 91.1559 26.6611 90.3716 27.3993C89.5873 28.1836 88.8491 28.5533 88.157 28.5533C87.603 28.5533 87.1424 28.323 86.7727 27.9072C86.403 27.4914 86.2188 26.8926 86.2188 26.2005C86.2188 25.2781 86.5412 24.4938 87.1412 23.8017C87.7412 23.1095 88.4794 22.7871 89.3097 22.7871C89.6321 22.7871 89.9097 22.8792 90.14 23.0174C90.3703 23.1556 90.4625 23.3398 90.4625 23.5714C90.4625 23.9411 90.1861 24.2174 89.6321 24.4017C89.6782 24.3096 89.6782 24.2635 89.6782 24.1714C89.6782 23.6635 89.4019 23.3871 88.94 23.3871C88.4782 23.3871 88.1097 23.6635 87.74 24.2174C87.3715 24.7714 87.186 25.3702 87.186 26.0163C87.186 26.5242 87.3242 26.9848 87.5545 27.3084C87.7848 27.6308 88.1084 27.8163 88.523 27.8163C89.6297 27.8163 90.8758 26.5702 92.3522 24.0793L92.6285 24.2635L92.6322 24.2623Z" fill="black"/>
<path d="M94.7547 26.3388C94.8468 26.477 94.8929 26.6612 94.8929 26.7546C94.8929 27.077 94.6626 27.4468 94.1547 27.8152C93.6468 28.1837 93.2323 28.4153 92.8165 28.4153C92.448 28.4153 92.1704 28.231 91.9401 27.9073C91.7098 27.5376 91.6177 27.1231 91.6177 26.5691C91.6177 25.9691 91.7559 25.0927 92.0335 23.94L92.2177 23.1097H91.4795C91.1571 23.1097 90.9255 23.1557 90.7413 23.2479C90.9255 22.9254 91.0637 22.6939 91.1571 22.6018C91.2492 22.5097 91.4795 22.4636 91.711 22.4636H92.3571L92.4493 22.1412C92.5874 21.6333 92.7256 21.3109 92.9571 21.0806C93.1414 20.8963 93.419 20.8042 93.7875 20.8042C93.8335 20.8042 93.8796 20.8042 94.0178 20.8042C93.7875 21.1266 93.5559 21.6806 93.2796 22.4648H95.6323C96.0481 22.4648 96.3705 22.4188 96.5548 22.2806C96.4627 22.603 96.3705 22.8346 96.2784 22.9267C96.1402 23.0188 95.9087 23.0649 95.5863 23.0649H93.0953C93.0493 23.157 93.0493 23.2491 93.0493 23.2952C92.6795 24.6334 92.4953 25.6479 92.4953 26.3401C92.4953 27.0783 92.7256 27.4928 93.2335 27.4928C93.4638 27.4928 93.7414 27.3546 94.0638 27.1231C94.4323 26.9389 94.6638 26.6625 94.756 26.3388H94.7547Z" fill="black"/>
</g>
<defs>
<clipPath id="clip0_1233_3707">
<rect width="97.9378" height="38.7954" fill="white" transform="translate(0 0.69043)"/>
</clipPath>
</defs>
</svg>
