<svg width="60" height="60" viewBox="0 0 60 60" fill="none" xmlns="http://www.w3.org/2000/svg">
<g clip-path="url(#clip0_1233_3765)">
<path fill-rule="evenodd" clip-rule="evenodd" d="M29.9167 0.896484C46.1433 0.896484 59.2981 13.9835 59.2981 30.1287C59.2981 46.274 46.1433 59.361 29.9167 59.361C13.6901 59.361 0.5354 46.274 0.5354 30.1287C0.5354 13.9835 13.6901 0.896484 29.9167 0.896484ZM17.1189 27.6351H20.6199L20.8548 33.6885L23.2942 27.6351H26.7816L24.9747 37.5825H22.8018L24.1796 30.0023L21.1258 37.5825H19.1562L18.8626 30.0023L17.4848 37.5825H15.3119L17.1189 27.6351ZM28.5796 27.6351H31.2449L29.4379 37.5825H26.7726L28.5796 27.6351ZM32.5549 27.6351H35.4822L36.4489 30.6934L38.4818 27.6351H41.3729L37.8267 32.4507C41.8247 47.697 59.0993 19.2463 37.5467 11.3724C26.4519 7.96625 19.2195 11.5169 14.3271 19.2869C2.24299 42.8814 34.9717 62.0127 51.9753 36.6835C56.3663 30.4314 56.3301 21.5547 53.2583 15.8446C48.4337 8.05209 39.7828 2.85705 29.9077 2.85705C14.7698 2.85705 2.50048 15.0631 2.50048 30.1242C2.50048 45.1853 14.7698 57.3914 29.9077 57.3914C38.0978 57.3914 45.4476 53.8136 50.471 48.1488C49.8928 48.6592 49.292 49.1426 48.6595 49.5988C31.8366 57.7392 18.8129 55.2682 9.43924 42.6149C3.42203 32.3784 6.65199 20.4705 13.9476 12.7638C25.8465 0.498951 53.439 7.78556 50.0825 28.3895C48.5376 38.1923 40.3791 42.2716 37.2666 37.054L35.7171 34.3842L33.4358 37.578H30.4724L34.3799 32.3965L32.5459 27.6351H32.5549Z" fill="black"/>
<path d="M18.0766 21.9073C17.7965 22.4042 17.6384 22.9011 17.6068 23.4116C17.5752 23.9447 17.6745 24.3377 17.9049 24.5997C18.1353 24.8617 18.4244 25.0063 18.7632 25.0288C19.0252 25.0469 19.3821 25.0243 19.8429 24.9566C19.861 24.9159 20.0688 24.6313 20.4618 24.1073C20.8187 23.633 21.3653 22.8695 22.1016 21.8124C20.5115 21.7808 19.1698 21.8124 18.0766 21.9028V21.9073ZM23.6827 20.6469C23.9267 20.7057 24.27 20.8096 24.7127 20.9587C25.1554 21.1077 25.6342 21.2794 26.1537 21.4736C26.1221 19.9874 26.0227 18.3973 25.8511 16.7123C25.44 17.6158 24.7172 18.9258 23.6827 20.6469ZM22.5082 16.0527C22.5443 15.9488 22.594 15.8404 22.6527 15.7275C22.7657 15.4835 22.856 15.2757 22.9328 15.1041C24.0531 14.6839 25.0876 14.5033 26.0363 14.571C26.339 14.5936 26.6236 14.6614 26.8901 14.7698C27.1431 14.8737 27.3463 15.0453 27.4954 15.2802C27.6445 15.5061 27.7484 15.8359 27.8116 16.2696C27.8794 16.7032 27.9201 17.2273 27.9291 17.8416L27.9607 19.102L28.0782 22.3681C28.1233 23.6917 28.1956 24.7217 28.2905 25.458C27.2424 25.8194 26.4925 26.1311 26.0498 26.3931C26.0815 25.8691 26.1176 24.4461 26.1628 22.1196C25.5665 22.0248 25.1599 21.966 24.9431 21.9525C24.7082 21.9525 24.4055 21.9525 24.026 21.957C23.6466 21.9615 23.2942 21.9615 22.9644 21.9706C21.6182 23.8272 20.5567 25.0424 19.7661 25.6206C18.971 26.2034 18.2437 26.4699 17.5797 26.4247C16.9382 26.3796 16.4232 26.113 16.0437 25.6161C15.6552 25.1282 15.4791 24.6358 15.5107 24.1344C15.5468 23.5697 15.8043 22.9554 16.2786 22.2913C16.7485 21.6363 17.3538 21.0716 18.0947 20.5973C18.831 20.132 19.6848 19.9287 20.656 19.9964C20.8864 20.0145 21.1078 20.0371 21.3156 20.0687C21.5234 20.1003 21.7583 20.1455 22.0203 20.2088C22.2823 20.272 22.5488 20.3352 22.8199 20.412L23.9176 18.447C24.1299 18.063 24.5681 17.1776 25.2277 15.7862C24.8482 15.7726 24.4236 15.7907 23.9583 15.8404C23.493 15.8856 23.0051 15.9579 22.4991 16.0527H22.5082ZM29.5102 15.6958L31.1907 15.0724L30.9738 17.7151L30.8654 19.4318L31.7237 18.316L31.7825 18.3205C32.4194 18.6593 32.8305 18.9981 33.0202 19.3369C33.21 19.6802 33.2777 20.2539 33.228 21.058C33.21 21.3426 33.1512 21.8305 33.0428 22.5262C32.9841 22.8966 32.9208 23.4206 32.8576 24.1028C32.3517 24.6313 31.796 25.1282 31.1862 25.5935C31.4346 23.9537 31.5837 22.9011 31.6334 22.4313L31.5566 20.7689C31.5475 20.665 31.4798 20.2539 31.3488 19.5311C31.1003 19.9377 30.9196 20.2133 30.8112 20.3533L30.7028 22.1151C30.7028 22.1377 30.6892 22.3003 30.6621 22.6075C30.635 22.8876 30.617 23.118 30.6034 23.2942C30.5944 23.4387 30.5853 23.7098 30.5763 24.1163C30.233 24.1118 29.6457 24.166 28.8281 24.2835C28.9094 23.7233 28.9907 22.9779 29.0675 22.0564C29.1443 21.1303 29.2888 19.0116 29.5102 15.7004V15.6958ZM35.3467 20.2404L35.2789 22.9825C35.4732 22.7114 35.6674 22.4042 35.8662 22.0609C36.0605 21.7176 36.2321 21.3923 36.3722 21.0897C36.2186 20.7102 35.8752 20.4256 35.3467 20.2359V20.2404ZM35.4732 18.5599C35.5184 18.5825 35.8075 18.6819 36.3315 18.8671C36.8058 19.0252 37.1175 19.1472 37.2666 19.224C37.4112 19.3143 37.5467 19.4498 37.6687 19.6305C37.7906 19.8112 37.881 20.0642 37.9262 20.3804C37.9758 20.6921 37.9804 21.1077 37.9487 21.6363L37.7951 23.6827C37.7816 23.9221 37.7771 24.2067 37.7906 24.5365C37.488 24.5861 36.9278 24.7443 36.1101 25.0198C36.2095 24.3919 36.2908 23.5155 36.3631 22.4042C36.2999 22.5307 36.1237 22.7927 35.8346 23.1903C35.5455 23.5878 35.1344 24.1299 34.5968 24.8165C34.2309 24.6449 33.9508 24.4868 33.7566 24.3377C33.7566 24.1615 33.7475 23.8859 33.7295 23.511C33.7114 22.9282 33.7159 22.3997 33.7475 21.9344C33.7882 21.2568 33.9237 20.6921 34.1496 20.2404C34.3664 19.7932 34.8091 19.2375 35.4732 18.5644V18.5599ZM40.1939 20.263L40.0584 23.1857C40.0764 23.1632 40.0945 23.1406 40.1081 23.1225C40.1261 23.0999 40.1352 23.0864 40.1487 23.0728C40.1758 23.0186 40.212 22.9463 40.2571 22.8605C40.3023 22.7747 40.3475 22.6888 40.3836 22.612L41.2465 20.778C40.9528 20.5566 40.605 20.3804 40.1984 20.2584L40.1939 20.263ZM42.6604 24.9521L40.9438 25.2818C40.9573 25.1328 40.9709 24.9611 40.9799 24.7578C41.0251 24.0124 41.0296 23.2761 40.9935 22.5352C40.8625 22.8243 40.6185 23.2264 40.2481 23.7414C39.8551 24.2925 39.566 24.7217 39.3762 25.0288C39.06 24.8617 38.7935 24.7036 38.5902 24.5455C38.5496 23.8272 38.5586 23.0367 38.6128 22.1738C38.6444 21.6453 38.7257 21.2026 38.8567 20.8412C38.9923 20.4798 39.2001 20.1049 39.4847 19.7164C39.7693 19.3324 40.0719 19.0071 40.3927 18.7406C40.6005 18.7677 40.9077 18.8806 41.3142 19.0749C41.4046 18.0811 41.4768 17.1505 41.5311 16.2741C42.4752 16.0889 43.0489 15.9669 43.2477 15.9172C43.0173 17.7784 42.8321 19.8022 42.692 21.9841C42.6559 22.5217 42.6378 23.0502 42.6333 23.5607C42.6288 24.0712 42.6378 24.5365 42.6604 24.9475V24.9521Z" fill="black"/>
<path fill-rule="evenodd" clip-rule="evenodd" d="M43.5277 25.6611C44.3544 25.6611 45.0275 26.3252 45.0275 27.1428C45.0275 27.9605 44.3544 28.6246 43.5277 28.6246C42.7011 28.6246 42.028 27.9605 42.028 27.1428C42.028 26.3252 42.7011 25.6611 43.5277 25.6611ZM43.5277 25.8102C44.2731 25.8102 44.8739 26.4065 44.8739 27.1383C44.8739 27.8747 44.2731 28.4665 43.5277 28.4665C42.7824 28.4665 42.1815 27.8702 42.1815 27.1383C42.1815 26.402 42.7824 25.8102 43.5277 25.8102Z" fill="black"/>
<path d="M42.9857 27.8026V26.2983H43.6497C43.7852 26.2983 43.8846 26.3119 43.9569 26.339C44.0247 26.3661 44.0834 26.4113 44.124 26.4836C44.1647 26.5513 44.1873 26.6281 44.1873 26.7094C44.1873 26.8178 44.1512 26.9082 44.0834 26.9805C44.0156 27.0527 43.9072 27.0979 43.7627 27.1205C43.8169 27.1476 43.8575 27.1702 43.8846 27.1973C43.9434 27.2515 43.9976 27.3193 44.0473 27.3961L44.3093 27.8072H44.0608L43.862 27.4955C43.8033 27.4051 43.7581 27.3373 43.7175 27.2877C43.6813 27.238 43.6452 27.2063 43.6181 27.1883C43.5865 27.1702 43.5594 27.1566 43.5277 27.1476C43.5052 27.1431 43.469 27.1386 43.4193 27.1386H43.1889V27.8072H42.9902L42.9857 27.8026ZM43.1844 26.9624H43.6091C43.6994 26.9624 43.7717 26.9534 43.8214 26.9353C43.8711 26.9172 43.9117 26.8856 43.9388 26.8449C43.9659 26.8043 43.9795 26.7591 43.9795 26.7094C43.9795 26.6371 43.9524 26.5784 43.9027 26.5332C43.853 26.4881 43.7717 26.4655 43.6588 26.4655H43.1844V26.9624Z" fill="black"/>
<path d="M26.0046 42.7866V42.4749H26.7681V43.4642C26.6506 43.5997 26.5286 43.7081 26.4022 43.7759C26.2757 43.8436 26.1492 43.8798 26.0182 43.8798C25.842 43.8798 25.6794 43.8256 25.5348 43.7126C25.3903 43.5997 25.2818 43.4371 25.205 43.2248C25.1328 43.0124 25.0921 42.7775 25.0921 42.5155C25.0921 42.258 25.1282 42.0141 25.2005 41.7882C25.2728 41.5623 25.3812 41.3952 25.5167 41.2868C25.6568 41.1784 25.8149 41.1241 25.9956 41.1241C26.1266 41.1241 26.244 41.1558 26.3525 41.219C26.4564 41.2823 26.5422 41.3681 26.6009 41.481C26.6596 41.594 26.7048 41.7385 26.7364 41.9192L26.5196 42.005C26.4925 41.8695 26.4564 41.7611 26.4202 41.6843C26.3796 41.6075 26.3208 41.5443 26.2486 41.4991C26.1763 41.4539 26.0905 41.4268 26.0001 41.4268C25.8917 41.4268 25.7968 41.4494 25.7155 41.4991C25.6342 41.5488 25.5709 41.612 25.5213 41.6933C25.4716 41.7747 25.4354 41.8605 25.4083 41.9554C25.3631 42.1225 25.3406 42.2987 25.3406 42.4929C25.3406 42.7324 25.3677 42.9311 25.4219 43.0892C25.4761 43.2473 25.5574 43.3693 25.6658 43.4461C25.7697 43.5229 25.8827 43.5636 26.0046 43.5636C26.1085 43.5636 26.2079 43.5319 26.3073 43.4732C26.4067 43.4145 26.479 43.3512 26.5332 43.2835V42.782H26.0046V42.7866ZM27.8794 43.8346V41.1693H28.6789C28.8416 41.1693 28.9635 41.1919 29.0448 41.2416C29.1307 41.2913 29.1939 41.3726 29.2436 41.4946C29.2933 41.6165 29.3204 41.7476 29.3204 41.8966C29.3204 42.0864 29.2798 42.2445 29.1939 42.3755C29.1126 42.5065 28.9816 42.5878 28.8099 42.6239C28.8732 42.6691 28.9229 42.7143 28.9545 42.7549C29.0223 42.8498 29.09 42.9673 29.1533 43.1118L29.465 43.8391H29.1668L28.9274 43.2835C28.8596 43.1209 28.8009 42.9989 28.7557 42.9176C28.7106 42.8317 28.6699 42.773 28.6338 42.7414C28.5976 42.7098 28.5615 42.6827 28.5253 42.6691C28.4982 42.6601 28.4531 42.6556 28.3943 42.6556H28.1188V43.8391H27.8794V43.8346ZM28.1188 42.3439H28.6338C28.7422 42.3439 28.828 42.3258 28.8913 42.2942C28.9545 42.2625 28.9997 42.2083 29.0313 42.1361C29.0629 42.0638 29.081 41.9825 29.081 41.8966C29.081 41.7701 29.0494 41.6662 28.9861 41.5849C28.9229 41.5036 28.828 41.463 28.6925 41.463H28.1188V42.3439ZM30.373 42.5336C30.373 42.0909 30.4543 41.7476 30.6169 41.4946C30.7795 41.2461 30.9873 41.1196 31.2403 41.1196C31.4075 41.1196 31.5565 41.1784 31.6921 41.2958C31.8276 41.4133 31.927 41.5759 31.9992 41.7882C32.0715 41.996 32.1031 42.2354 32.1031 42.502C32.1031 42.773 32.067 43.0124 31.9902 43.2248C31.9179 43.4371 31.8095 43.5997 31.674 43.7081C31.5385 43.8165 31.3894 43.8707 31.2358 43.8707C31.0641 43.8707 30.9151 43.812 30.7795 43.69C30.644 43.5681 30.5446 43.4054 30.4769 43.1931C30.4091 42.9853 30.373 42.764 30.373 42.5291V42.5336ZM30.6214 42.5381C30.6214 42.8588 30.6802 43.1118 30.7976 43.297C30.9151 43.4822 31.0596 43.5726 31.2403 43.5726C31.421 43.5726 31.5701 43.4777 31.683 43.2925C31.8005 43.1073 31.8592 42.8408 31.8592 42.4974C31.8592 42.2806 31.8321 42.0909 31.7869 41.9282C31.7372 41.7656 31.665 41.6437 31.5701 41.5533C31.4752 41.463 31.3668 41.4178 31.2494 41.4178C31.0822 41.4178 30.9331 41.5036 30.8112 41.6753C30.6892 41.8469 30.6259 42.1315 30.6259 42.5336L30.6214 42.5381ZM34.3483 41.1648H34.5877V42.7052C34.5877 42.9718 34.5651 43.1841 34.5245 43.3422C34.4838 43.5003 34.407 43.6268 34.3031 43.7262C34.1947 43.8256 34.0547 43.8753 33.883 43.8753C33.7159 43.8753 33.5758 43.8346 33.4674 43.7443C33.359 43.6584 33.2822 43.5319 33.237 43.3693C33.1918 43.2067 33.1693 42.9853 33.1693 42.7007V41.1603H33.4087V42.7007C33.4087 42.9311 33.4222 43.1028 33.4539 43.2112C33.481 43.3196 33.5306 43.4055 33.6029 43.4642C33.6752 43.5229 33.761 43.5545 33.8649 43.5545C34.0411 43.5545 34.1631 43.4958 34.2399 43.3783C34.3122 43.2609 34.3528 43.035 34.3528 42.7007V41.1603L34.3483 41.1648ZM35.7352 43.8301V41.1648H36.4173C36.5393 41.1648 36.6296 41.1738 36.6928 41.1919C36.7832 41.2145 36.8555 41.2552 36.9142 41.3139C36.9729 41.3771 37.0226 41.463 37.0588 41.5714C37.0949 41.6798 37.113 41.8018 37.113 41.9328C37.113 42.1586 37.0633 42.3484 36.9639 42.5065C36.8645 42.6646 36.6883 42.7414 36.4308 42.7414H35.9655V43.8301H35.7261H35.7352ZM35.9746 42.4297H36.4399C36.5935 42.4297 36.7064 42.389 36.7696 42.3032C36.8329 42.2174 36.869 42.0999 36.869 41.9463C36.869 41.8334 36.851 41.7385 36.8103 41.6617C36.7742 41.5804 36.72 41.5307 36.6612 41.5036C36.6206 41.4901 36.5483 41.481 36.4399 41.481H35.9791V42.4342L35.9746 42.4297Z" fill="black"/>
</g>
<defs>
<clipPath id="clip0_1233_3765">
<rect width="58.7627" height="58.4648" fill="white" transform="translate(0.5354 0.896484)"/>
</clipPath>
</defs>
</svg>
