<svg width="75" height="15" viewBox="0 0 75 15" fill="none" xmlns="http://www.w3.org/2000/svg">
<g clip-path="url(#clip0_1233_3863)">
<path fill-rule="evenodd" clip-rule="evenodd" d="M62.8605 11.897V2.05246H60.4683C60.2676 2.05246 59.9731 2.44515 59.859 2.60973C59.7955 2.70068 59.7536 2.75554 59.6944 2.84361C59.5861 3.0053 59.4938 3.14101 59.3927 3.30992C58.8715 4.17759 58.294 5.16075 57.8393 6.0544C57.4899 6.7416 57.0958 7.4057 56.7493 8.09434C56.6959 8.19973 56.6598 8.2416 56.6064 8.34988C56.514 8.53611 56.4187 8.68193 56.3219 8.86239C56.2122 9.06739 56.0549 9.44131 55.8614 9.57124C55.7401 9.65065 55.6954 9.60012 55.6015 9.5366V2.42349C55.6015 2.29356 55.6535 2.02503 55.5164 2.02503H53.296V13.4057C53.296 13.9962 54.9273 14.0799 55.5337 13.6223L55.7791 13.4129C56.3176 12.9394 57.012 12.04 57.3758 11.4235C57.4942 11.2243 57.6068 11.0684 57.7281 10.8648C58.0645 10.3003 58.4139 9.73871 58.7243 9.1569L59.1992 8.29357C59.2584 8.17519 59.3075 8.103 59.3609 7.99906C59.4143 7.89655 59.4548 7.82581 59.5125 7.72331C59.7854 7.23101 60.0351 6.73871 60.3239 6.25796C60.4105 6.11503 60.5462 5.78587 60.6704 5.69491C60.6704 7.4158 60.6141 9.07173 60.6141 10.7883C60.6141 11.2301 60.5866 11.5866 60.5852 12.04C60.5837 12.769 60.8508 13.1357 61.3186 13.5559C61.3951 13.6237 61.424 13.6439 61.5135 13.7031C61.9119 13.9644 62.2729 14.0323 62.7782 14.0323C63.4278 14.0323 63.9735 13.4562 64.271 12.9639L64.7026 12.1136C64.7719 11.9461 64.8311 11.8263 64.9018 11.6588C64.9495 11.5448 65.0765 11.2921 65.0852 11.1867H69.1001C69.0597 10.6988 68.7955 10.3176 68.4808 10.013C67.9394 9.48607 66.9447 9.57558 66.2228 9.56691C66.0756 9.56547 66.0626 9.53948 65.9399 9.5366C65.9659 9.42543 66.0741 9.23342 66.1304 9.10204C66.1665 9.01831 66.194 8.975 66.2344 8.89271C66.2762 8.80464 66.2993 8.7339 66.3383 8.6545L67.5626 6.0082C67.9148 6.26662 69.0828 9.04863 69.5361 9.95383C69.9418 10.7623 70.7835 12.7344 71.231 13.2974C71.5169 13.6569 71.9182 13.8922 72.386 13.9644C72.9288 14.0482 73.5149 13.9182 74.1112 13.9182C74.0823 13.5688 73.2479 11.9678 73.0818 11.5607C73.0284 11.4293 72.9635 11.3138 72.8956 11.1781C72.4495 10.2873 72.051 9.3749 71.6049 8.48414L70.4846 6.18866C70.3518 5.92446 70.2378 5.69347 70.1049 5.42927L68.9846 3.13379C68.7392 2.64871 68.6006 1.96729 67.8744 1.96729C67.7618 1.96729 67.5149 2.38163 67.463 2.4668C67.2926 2.74833 66.7079 3.98558 66.526 4.34794C66.3152 4.7695 66.129 5.16941 65.9182 5.59097L65.0072 7.46922C64.3229 8.82774 63.7079 10.218 63.0236 11.5751C62.9673 11.6877 62.9427 11.8061 62.8619 11.897H62.8605Z" fill="black"/>
<path fill-rule="evenodd" clip-rule="evenodd" d="M34.3041 9.67795V2.76408C34.3041 1.77514 34.46 2.08121 33.3079 2.08265L31.9408 2.08121V13.69C32.0866 13.7246 32.1256 13.7622 32.4547 13.83C32.9903 13.9412 33.6588 13.9109 34.1424 13.6712C34.2954 13.5947 34.2969 13.599 34.4109 13.4835C34.5697 13.3233 34.9696 12.6909 35.1357 12.4426C35.8806 11.3252 36.4509 10.3262 37.128 9.19864L38.0823 7.53406C38.192 7.33916 38.3017 7.16302 38.4042 6.9739C38.5067 6.78478 38.6179 6.61442 38.7276 6.41519C38.781 6.31557 38.8373 6.23617 38.8878 6.14811L39.0596 5.86514C39.0596 7.5918 39.0596 9.31702 39.0596 11.0437C39.0596 12.0831 38.8907 12.5928 39.4942 13.1991C39.718 13.4243 39.9807 13.5745 40.3084 13.6943C40.5827 13.7939 41.0433 13.8892 41.423 13.8892V2.0249H38.9745C38.9441 2.13895 36.8984 5.43925 36.6516 5.84926C36.4538 6.17842 36.2603 6.48016 36.0683 6.8021L34.3041 9.67795Z" fill="black"/>
<path fill-rule="evenodd" clip-rule="evenodd" d="M46.1193 8.45365V8.53883H48.3397C48.7584 8.53883 49.1829 8.83334 49.4052 9.1524C50.2151 10.3175 49.7329 12.3228 48.1694 12.3228H45.7209V3.53064C46.1684 3.53064 47.8777 3.49599 48.2416 3.59994C49.2031 3.87713 49.8672 5.51428 48.9735 6.52487C48.666 6.87136 48.269 6.92044 47.8243 6.96953C46.9552 7.0677 46.1179 7.52246 46.1179 8.45076L46.1193 8.45365ZM43.3287 2.05229V12.2102C43.3287 12.7458 43.5178 13.2164 43.8051 13.4691C43.9668 13.6105 44.1241 13.6972 44.345 13.7838C44.5183 13.8516 44.8417 13.9455 45.0654 13.9455H49.1655C49.9957 13.9455 50.9427 13.3131 51.4596 12.6534C51.6314 12.4354 51.7873 12.1481 51.8984 11.8969C52.3965 10.778 52.2291 9.54509 51.5043 8.64855C51.3224 8.42333 51.0611 8.22121 50.8113 8.06096C50.5486 7.89205 50.4345 7.84874 50.1617 7.74191C50.0664 7.70437 49.9884 7.70148 49.9336 7.62785C50.1747 7.57155 50.8619 7.12833 51.0366 6.93632C51.0828 6.88435 51.0986 6.85403 51.1506 6.79484C51.6155 6.27944 51.6415 5.50129 51.6415 4.78232C51.6415 3.37039 50.0101 2.02197 48.8508 2.02197L43.3272 2.05085L43.3287 2.05229Z" fill="black"/>
<path fill-rule="evenodd" clip-rule="evenodd" d="M15.1433 6.7183C15.0682 6.7183 15.0293 6.72119 15.0293 6.63312V2.08114H12.6096V12.3242C12.6096 12.6057 12.7237 12.8959 12.8363 13.0648C13.2997 13.7592 14.075 14.0595 14.9152 14.0595V7.7722C14.9152 7.58308 15.0119 7.60185 15.1144 7.60185C15.2343 7.60185 15.3974 7.96421 15.4855 8.11291C15.5952 8.29482 15.702 8.47673 15.8204 8.66008C15.8796 8.75247 15.9215 8.82755 15.9807 8.92716L17.2049 10.8054C17.5745 11.3396 18.2848 12.3112 18.7237 12.815C19.0384 13.176 19.2117 13.469 19.6318 13.6726C20.2396 13.9671 21.178 13.9252 21.8666 13.6943C22.0427 13.6351 22.3705 13.5282 22.46 13.4055C22.3705 13.2712 22.2579 13.137 22.1554 12.9998L17.5355 6.77749L18.5952 5.50271C19.1063 4.91657 19.6621 4.18894 20.1905 3.59703L20.7203 2.96036C20.9571 2.66728 21.2357 2.4926 21.0856 2.29192C20.8329 1.95554 19.3733 1.918 18.8493 2.25727C18.6457 2.38865 17.127 4.37085 16.7675 4.84294C16.6852 4.95122 16.5986 5.0465 16.5148 5.15911L15.4782 6.45699C15.3859 6.56094 15.3137 6.71975 15.1433 6.71975V6.7183Z" fill="black"/>
<path fill-rule="evenodd" clip-rule="evenodd" d="M0.508554 13.8891C0.712116 13.9368 0.92434 14.0306 1.2203 14.0306C2.47198 14.0306 3.14619 12.3372 3.52155 11.38C3.55331 11.3006 3.57497 11.1851 3.66881 11.1851H7.59856C7.5899 10.8025 7.27373 10.2221 6.98499 10.0056C6.86949 9.92042 6.75833 9.83091 6.61973 9.77316C5.93975 9.49019 5.42868 9.57248 4.72271 9.56382C4.57401 9.56238 4.56246 9.53639 4.43975 9.5335C4.51049 9.40068 4.57112 9.24476 4.63898 9.10761L5.95852 6.24331C6.00327 6.15381 6.02348 6.08595 6.06246 6.00655C6.28624 6.15669 7.25063 8.24717 7.46718 8.69905C7.83821 9.47143 8.254 10.4503 8.63369 11.2039C8.9181 11.7669 9.39308 12.8728 9.754 13.2987C9.8926 13.4633 10.0514 13.6047 10.2405 13.7231C10.408 13.8285 10.6866 13.9382 10.909 13.9657C11.472 14.0364 12.0235 13.9166 12.6385 13.9166L12.3065 13.111C12.2429 12.9782 12.1809 12.8453 12.126 12.7212L11.4041 11.1663C11.3377 11.0335 11.2699 10.9137 11.215 10.7866L7.8642 3.89153C7.72272 3.61001 7.21165 2.50269 7.11492 2.3641C6.95034 2.13166 6.77276 1.96564 6.3743 1.96564C6.26314 1.96564 6.35986 1.95553 6.30212 2.0075C6.19817 2.10134 5.95852 2.48392 5.89932 2.60086C5.77084 2.85929 5.65823 3.08306 5.52974 3.34004L3.34687 7.81695C3.22271 8.06526 3.08556 8.30636 2.98161 8.56189L2.08363 10.4243C2.01433 10.5629 1.95803 10.6654 1.89884 10.8097C1.84831 10.9339 1.78767 11.0436 1.7227 11.1735C1.65341 11.3107 1.61154 11.4262 1.54224 11.5633C1.41231 11.8189 1.31125 12.0556 1.18132 12.3126C1.07593 12.5205 0.512885 13.6856 0.507111 13.8877L0.508554 13.8891Z" fill="black"/>
<path fill-rule="evenodd" clip-rule="evenodd" d="M24.2256 2.0236C23.3565 2.0236 22.3604 1.93264 21.8118 2.48558C21.318 2.98366 21.3209 3.38212 21.3209 4.07221C21.4942 3.98991 22.756 3.85132 23.0331 3.81956L24.9648 3.75892C24.9648 3.9596 25.011 4.24545 25.0226 4.44179C25.0529 5.0135 24.9937 6.0544 24.9937 6.66076L24.9648 10.8157C24.9648 10.9803 24.9908 11.0092 24.9951 11.155C25.0024 11.412 24.998 11.6415 25.0298 11.8884C25.1583 12.8845 25.2449 13.3393 26.1602 13.8027C26.5038 13.976 26.9239 14.0583 27.4422 14.0583L27.4711 3.78635C27.7237 3.78635 28.0255 3.73005 28.3257 3.73005C29.4619 3.73005 30.7078 4.04333 31.1438 4.04333C31.1438 1.86623 29.6756 1.99617 28.0688 1.99472C27.8479 1.99472 27.7107 2.02215 27.5288 2.0236C27.3484 2.02648 27.165 2.01927 26.986 2.02071C26.8055 2.0236 26.6669 2.05103 26.4461 2.04958C25.6852 2.04814 25.0009 2.02071 24.2256 2.02071V2.0236Z" fill="black"/>
<path fill-rule="evenodd" clip-rule="evenodd" d="M70.4341 1.56884V1.36961C70.4341 1.03179 70.8022 0.686743 71.1458 0.686743C72.3398 0.686743 72.2228 2.28059 71.2021 2.28059C70.987 2.28059 70.8008 2.17231 70.6781 2.06403L70.5178 1.85469C70.4774 1.77529 70.4341 1.69156 70.4341 1.56884ZM70.206 1.48366C70.206 2.41196 71.3638 2.79887 71.937 2.18963C72.7339 1.34218 71.7493 0.112151 70.8138 0.553922C70.7041 0.605895 70.5814 0.673749 70.5005 0.753153C70.3186 0.935059 70.206 1.20936 70.206 1.48366Z" fill="black"/>
<path fill-rule="evenodd" clip-rule="evenodd" d="M71.2036 1.39861H70.9755V1.14308C71.2484 1.14308 71.374 1.10121 71.374 1.286C71.374 1.37407 71.2902 1.40006 71.2036 1.40006V1.39861ZM70.7488 2.02518H70.9769V1.59784C71.1213 1.59784 71.1675 1.57763 71.2787 1.75232C71.3263 1.82595 71.3841 1.94144 71.4043 2.02518H71.6887C71.654 1.89669 71.475 1.62816 71.3754 1.54154C71.7147 1.51266 71.7508 0.943848 71.2902 0.943848H70.7488V2.02518Z" fill="black"/>
</g>
<defs>
<clipPath id="clip0_1233_3863">
<rect width="73.6" height="13.5996" fill="white" transform="translate(0.507721 0.459961)"/>
</clipPath>
</defs>
</svg>
