<svg width="80" height="60" viewBox="0 0 80 60" fill="none" xmlns="http://www.w3.org/2000/svg">
<g clip-path="url(#clip0_1233_3876)">
<path d="M0.00694916 15.8258C0.00694916 18.147 0.235805 20.0138 0.993208 22.1062C1.1752 22.6086 1.37136 23.1361 1.60022 23.6101L2.28461 24.9756C2.41865 25.247 2.51782 25.405 2.66603 25.6502C3.82884 27.577 5.20742 29.3173 6.79198 30.9019C7.82836 31.9383 8.90181 32.9409 10.0864 33.8182C11.2874 34.7085 12.5014 35.6185 13.7917 36.3857C14.8466 37.0123 15.9582 37.6847 17.0872 38.246C17.3248 38.3648 17.5362 38.4705 17.7912 38.598L19.2254 39.2758C19.731 39.4851 20.1506 39.6791 20.6486 39.9025C21.1554 40.1291 21.6295 40.2991 22.1536 40.5095C22.6571 40.7111 23.1225 40.8942 23.6477 41.0653C24.1981 41.2451 24.6623 41.4391 25.2159 41.6091C27.3301 42.2564 29.477 42.8765 31.8015 43.3462C34.1359 43.817 36.5203 44.1832 39.1326 44.4011C40.291 44.4981 41.456 44.1123 42.5294 43.7516C46.299 42.4842 50.4239 40.4877 53.4753 38.0531C54.431 37.2902 55.3312 36.4838 56.2008 35.624L57.4421 34.2574C57.5674 34.1222 57.574 34.0797 57.6917 33.9479C59.0354 32.4396 60.1361 30.7166 61.0395 28.9109C61.9168 27.1574 62.4835 25.3342 62.7559 23.3606C62.878 22.4767 62.8475 21.3586 62.7483 20.4737C61.9647 13.5067 55.1677 10.1501 48.6769 12.3254C46.9583 12.9008 45.328 13.6189 43.8067 14.5976L42.403 15.5544C42.1633 15.72 41.9497 15.8813 41.7306 16.0622L40.1232 17.4365C39.3799 18.0086 39.0007 17.152 38.4068 16.5581C38.1953 16.3467 38.0286 16.1799 37.8172 15.9685C37.2439 15.3931 36.5683 14.8678 35.8959 14.4123C35.2082 13.9459 34.465 13.4893 33.7141 13.1165C29.3441 10.9479 23.3197 10.6983 19.464 13.8565C18.5562 14.5997 17.7858 15.4291 17.194 16.4927C15.895 18.827 15.8492 21.8338 16.9859 24.2553C17.2507 24.8198 17.4795 25.2895 17.8087 25.7919C21.1674 30.9204 28.8177 34.1102 34.3397 35.2839C35.6638 35.5651 37.063 35.952 38.4547 35.952C39.1816 35.952 39.6404 35.1728 38.2139 34.702C36.978 34.2944 35.6736 33.7571 34.5217 33.1774C34.125 32.9779 33.8013 32.8167 33.4035 32.6183C32.2767 32.0549 31.14 31.401 30.1418 30.6632C28.1595 29.1975 26.1935 27.5661 25.2334 25.199C22.4719 18.3889 29.3179 14.4592 34.841 18.0141C36.4092 19.0232 37.6668 20.3931 38.653 21.9656C39.3974 23.1524 39.5848 23.5186 40.6147 22.3362C41.1498 21.7215 41.6238 21.0164 42.1959 20.4388L43.034 19.5387C43.6159 18.9818 44.2894 18.4205 44.9793 18.0053C46.5911 17.0354 48.6584 16.4905 50.5546 16.958C51.3709 17.1586 52.3462 17.6555 52.8813 18.1721C53.5548 18.8227 53.9243 19.3 54.3558 20.1751C55.3878 22.2697 55.1448 25.49 54.4866 27.6369C54.1858 28.6177 53.7957 29.4884 53.3194 30.3821C52.5762 31.7759 51.6248 32.8537 50.595 33.9925L48.8001 35.6141C46.9028 37.1039 44.8605 38.2983 42.633 39.2606C40.0458 40.3787 39.1184 40.3144 36.431 39.9003C34.5838 39.6159 32.7791 39.2017 30.9886 38.7582C29.2732 38.3343 27.595 37.7763 25.9472 37.2161L22.4119 35.8441C20.5266 35.0355 18.6402 34.1353 16.9139 33.0204L14.9392 31.7029C14.0794 31.11 12.1341 29.5527 11.392 28.6667C11.2307 28.4749 11.1969 28.4161 11.016 28.2352C10.5997 27.82 10.2673 27.3317 9.90986 26.8566C9.4151 26.1995 9.04566 25.5794 8.66205 24.8132C8.29043 24.0689 7.95042 23.3017 7.72157 22.4615C6.65139 18.523 7.44367 14.6292 9.93602 11.5331L10.8296 10.6264C11.5173 10.0248 11.9565 9.57037 12.7891 9.04618L14.4576 8.10678C15.2793 7.69266 16.1206 7.37227 17.0022 7.11181C22.0457 5.62206 27.9121 6.0874 32.5698 7.9237C34.0487 8.50674 35.4196 9.17478 36.7775 9.98885C37.4924 10.4171 38.1441 10.9326 38.798 11.447C39.9074 12.3199 39.8769 12.0431 41.3339 11.0732C41.8712 10.7146 42.3376 10.428 42.8967 10.0891L44.539 9.18458C45.1264 8.89252 45.6887 8.63315 46.323 8.35961C46.9453 8.09044 47.5076 7.89427 48.18 7.67087C48.8142 7.45945 49.4986 7.22296 50.1438 7.08892C52.9358 6.50697 53.6932 6.45248 56.5256 6.45248C58.6714 6.45248 60.9131 6.97013 62.5423 7.51503C63.3477 7.7853 64.2816 8.1907 65.014 8.58411C67.3112 9.82102 69.2216 11.4895 70.5893 13.753C71.3849 15.0694 72.2393 17.1749 72.2393 19.2455C72.2393 22.3776 71.714 23.936 70.5806 26.5918C70.2482 27.371 69.772 28.1033 69.3404 28.8302C68.6419 30.0061 67.7809 31.1209 66.884 32.1497C65.8215 33.3692 64.7448 34.6203 63.5002 35.6599C63.2594 35.8615 63.158 36.0174 62.8867 36.2266L61.0166 37.8351C60.7812 38.0248 60.5927 38.1708 60.3616 38.3604L58.1123 40.0866C57.9499 40.2076 57.9151 40.2588 57.7745 40.37C57.2361 40.8026 56.7446 41.6047 57.829 41.6047C58.6354 41.6047 60.1589 40.8746 60.9436 40.5585C64.4876 39.132 67.612 37.1715 70.5697 34.7815L74.7022 30.5292C77.2523 27.3764 79.5038 22.808 79.5038 18.5622C79.5038 16.6006 79.3883 15.0956 78.8968 13.3312C78.2364 10.9642 77.0921 9.15625 75.5729 7.33848C74.287 5.80079 71.9374 4.23694 70.2188 3.3771C66.9669 1.75113 62.6251 0.674423 58.885 0.674423C55.8837 0.674423 54.5868 0.746349 51.6749 1.35227C48.2792 2.05845 45.061 3.57435 42.112 5.32891C41.8025 5.51309 41.5007 5.69944 41.1966 5.90432C40.6027 6.30318 39.9346 7.00174 39.1968 6.57454C38.5691 6.21164 38.0526 5.75502 37.4216 5.36814C37.0881 5.16435 36.8353 5.00524 36.4855 4.81453L33.4842 3.34332C29.7593 1.70972 25.1974 0.613394 21.1271 0.612305H21.102C17.5438 0.613394 15.2171 0.796479 11.8192 1.74351C9.33445 2.43661 7.12654 3.69968 5.16928 5.27987C4.29636 5.98387 3.4485 6.89385 2.80117 7.81799C1.197 10.1055 0.00585938 12.8855 0.00585938 15.829L0.00694916 15.8258Z" fill="black"/>
<path d="M48.2651 59.5487C50.9068 59.5487 53.1757 59.8964 54.9259 58.1364C55.959 57.0978 56.3263 56.1987 56.4331 54.6196C56.5181 53.3707 56.0059 51.8494 55.145 50.9296C55.0305 50.8075 54.9401 50.7563 54.8049 50.6473C54.6589 50.5286 54.6175 50.4915 54.4508 50.3803C53.6116 49.8213 52.609 49.5488 51.4931 49.5488H48.2629V59.5476L48.2651 59.5487Z" fill="black"/>
<path d="M31.1228 54.5805C31.1228 56.4418 31.7124 57.5186 32.8774 58.6029C33.1934 58.8971 33.6533 59.1369 34.0859 59.32C35.5582 59.9422 37.6179 59.6142 39.0815 58.9375C39.3387 58.8187 39.8466 58.4917 40.0667 58.4329L40.07 54.0814C40.0743 53.8176 40.131 53.5877 39.8803 53.5877H36.4639V55.5755H37.9547C37.9547 57.1469 38.1519 57.0074 37.2954 57.2755C35.8351 57.7332 34.1491 57.4118 33.613 55.6932C32.5984 52.4401 35.8089 50.582 37.6299 52.2974C37.7814 52.4401 37.8479 52.5426 38.0168 52.6548L38.2043 52.4696C38.2729 52.3911 38.2936 52.3562 38.3754 52.2679C38.7012 51.9116 39.3605 51.3525 39.5698 51.0408C38.9758 50.6431 38.0985 49.4258 36.1544 49.4258C34.596 49.4258 33.4593 49.8998 32.4425 50.9929C31.7571 51.7296 31.1239 53.1703 31.1239 54.5805H31.1228Z" fill="black"/>
<path d="M57.2701 58.9276C57.5621 59.0823 59.029 59.8397 59.2579 59.8594C59.3156 59.6109 59.5336 59.1935 59.6513 58.9494L60.0654 57.9969H64.4747C64.4954 58.2519 64.9422 59.0965 65.0751 59.3831C65.1612 59.5695 65.195 59.6959 65.2822 59.8594L67.2079 58.9276C67.1218 58.5592 66.7807 58.0765 66.6063 57.7277L62.3005 49.1772C62.1284 49.3037 59.9303 53.7391 59.7755 54.0432C59.6589 54.2731 59.5804 54.3668 59.4638 54.6L57.2701 58.9276Z" fill="black"/>
<path d="M12.3043 58.9277C12.6181 59.0934 12.9211 59.2361 13.2567 59.4039C13.5226 59.5369 14.0054 59.8355 14.292 59.8595C14.3138 59.5968 14.7803 58.7403 14.9034 58.422C14.971 58.2488 15.02 57.997 15.2238 57.997H19.3225C19.5459 57.997 19.6483 58.4635 19.8619 58.8863C20.0341 59.2274 20.1464 59.538 20.3164 59.8595C20.9397 59.5293 21.6176 59.2579 22.242 58.9277L19.1776 52.8619C18.8942 52.2963 17.4067 49.4836 17.3347 49.1763C17.168 49.2983 17.107 49.5054 17.0034 49.7146L12.9254 57.6853C12.8186 57.8989 12.7304 58.0842 12.6029 58.2945C12.4819 58.4929 12.3598 58.6879 12.3043 58.9277Z" fill="black"/>
<path d="M24.2288 59.5487H29.6941V57.4367H26.5892C26.4465 57.4367 26.4029 57.3931 26.4029 57.2504V49.5488H24.2288V59.5476V59.5487Z" fill="black"/>
<path d="M43.0483 59.5487H45.2214V49.5488H43.0483V59.5487Z" fill="black"/>
<path d="M67.6427 50.9156C67.6427 52.244 69.0943 53.0407 70.2081 52.4871C70.329 52.4271 70.6145 52.2059 70.7028 52.1122C71.6128 51.1324 71.2096 49.1763 69.2578 49.1763C68.4023 49.1763 67.6427 50.0459 67.6427 50.9156ZM69.4169 49.5108C70.1993 49.5108 70.8336 50.1516 70.8336 50.9417C70.8336 51.7318 70.1993 52.3726 69.4169 52.3726C68.6344 52.3726 68.0001 51.7318 68.0001 50.9417C68.0001 50.1516 68.6344 49.5108 69.4169 49.5108Z" fill="black"/>
<path d="M68.7521 51.6631V50.0601H69.4615C69.6043 50.0601 69.7144 50.0731 69.7885 50.1026C69.8626 50.132 69.9225 50.1832 69.965 50.2551C70.0097 50.3292 70.0326 50.4099 70.0326 50.4971C70.0326 50.6115 69.9966 50.7074 69.9225 50.7859C69.8484 50.8621 69.734 50.9112 69.5825 50.9341C69.6381 50.9613 69.6806 50.9875 69.71 51.0147C69.7699 51.0703 69.831 51.1422 69.8844 51.2272L70.1623 51.6642H69.8985L69.686 51.3308C69.6239 51.2349 69.5738 51.1607 69.5335 51.1095C69.4931 51.0583 69.4572 51.0223 69.4256 51.0016C69.394 50.9809 69.3602 50.9679 69.3275 50.9591C69.3046 50.9548 69.2654 50.9526 69.2109 50.9526H68.9646V51.6642H68.7521V51.6631ZM68.9646 50.7673H69.419C69.5171 50.7673 69.5912 50.7564 69.6479 50.7357C69.7013 50.7183 69.7438 50.6845 69.771 50.6398C69.8005 50.5973 69.8135 50.5483 69.8135 50.496C69.8135 50.4197 69.7863 50.3576 69.7307 50.3096C69.6773 50.2606 69.5901 50.2355 69.4713 50.2355H68.9657V50.7662L68.9646 50.7673Z" fill="black"/>
<path d="M60.9666 56.0419H63.5167L62.2482 53.228L60.9666 56.0419Z" fill="white"/>
<path d="M50.4839 51.665V57.4398C51.043 57.4398 51.6032 57.4398 52.1622 57.4398C54.9227 56.7249 54.8104 52.187 52.1622 51.665H50.4839Z" fill="white"/>
<path d="M15.9976 56.0419H18.5488L17.2803 53.228L15.9976 56.0419Z" fill="white"/>
</g>
<defs>
<clipPath id="clip0_1233_3876">
<rect width="79.498" height="59.2507" fill="white" transform="translate(0.00708008 0.608398)"/>
</clipPath>
</defs>
</svg>
