<svg width="98" height="62" viewBox="0 0 98 62" fill="none" xmlns="http://www.w3.org/2000/svg">
<g clip-path="url(#clip0_1233_4080)">
<path d="M97.2707 24.7103C96.6477 23.7541 95.6112 23.0675 94.4305 22.8281C91.7629 22.2604 89.0299 21.7312 86.307 21.2539C83.8219 15.4129 78.9806 10.1663 72.6656 6.47545C65.9219 2.53341 57.8922 0.450195 49.4437 0.450195C41.4006 0.450195 33.6772 2.35758 27.1077 5.96637C20.5684 9.55842 15.6718 14.5622 12.9405 20.4417C10.0937 20.8738 7.23175 21.3644 4.43179 21.9003C3.2043 22.1465 2.08063 22.8917 1.42754 23.8914C0.901707 24.6952 0.707452 25.6163 0.876588 26.4737C1.55146 32.1506 2.27991 37.9063 3.03851 43.5866L3.05861 43.6954C3.51745 45.7284 5.62914 47.0162 7.76427 46.5674C10.1623 46.065 12.6391 45.5928 15.1292 45.1657C18.311 49.853 23.025 53.8235 28.7706 56.6553C34.9516 59.7014 42.0989 61.3107 49.4421 61.3107C56.7852 61.3107 63.9342 59.7014 70.1135 56.6553C75.8591 53.8235 80.5748 49.853 83.7549 45.1657C86.2434 45.5928 88.7201 46.0633 91.1198 46.5674C93.255 47.0145 95.3667 45.7267 95.8255 43.687L95.8456 43.5732C96.5372 38.1993 97.1987 32.7451 97.8116 27.3763C97.9908 26.4703 97.7982 25.5242 97.2673 24.7103H97.2707Z" fill="black"/>
<path d="M11.9071 30.8813C11.9071 46.9643 28.7135 60.0028 49.4436 60.0028C70.1753 60.0028 86.98 46.9643 86.98 30.8813C86.98 14.7983 70.1736 1.75977 49.4436 1.75977C28.7118 1.75977 11.9071 14.7983 11.9071 30.8813Z" fill="#FEFEFE"/>
<path d="M15.7788 30.8815C15.7788 45.5008 30.8503 57.3521 49.4436 57.3521C68.0368 57.3521 83.1083 45.5008 83.1083 30.8815C83.1083 16.2621 68.0351 4.40918 49.4436 4.40918C30.8503 4.40918 15.7788 16.2604 15.7788 30.8815Z" fill="black"/>
<path d="M21.4574 30.8613C21.4574 43.2199 33.9869 52.6212 49.4435 52.6212C64.9002 52.6212 77.4297 43.2216 77.4297 30.8613C77.4297 18.5026 64.9002 8.4834 49.4435 8.4834C33.9869 8.4834 21.4574 18.5026 21.4574 30.8613Z" fill="#FEFEFE"/>
<path d="M91.3908 45.2879C63.7279 39.4837 35.159 39.4837 7.49607 45.2879C6.06093 45.5894 4.63918 44.7521 4.33607 43.4073C3.57413 37.7019 2.85237 31.9898 2.1708 26.271C1.87607 24.9246 3.08849 23.5062 4.68942 23.1847C34.3384 17.5195 64.7595 17.8527 94.1623 24.1108C95.7566 24.4323 96.8166 25.8189 96.5235 27.1669C95.9056 32.5877 95.2475 38.0017 94.5525 43.4107C94.2477 44.7554 92.8277 45.5927 91.3925 45.2913L91.3908 45.2879Z" fill="#FEFEFE"/>
<path d="M21.1225 32.3564C21.5897 31.6698 22.0101 31.5291 22.1641 31.5291C22.3986 31.5291 22.5191 31.653 22.5627 31.9009C22.7452 32.9157 21.2849 33.8401 20.1697 34.2989C20.3857 33.676 20.7407 32.9174 21.1225 32.3564ZM34.6433 31.0703C35.0637 30.444 35.4505 30.3184 35.5945 30.3184C35.8122 30.32 35.9261 30.4339 35.973 30.66C36.1622 31.5877 34.8242 32.4267 33.796 32.8403C33.9835 32.271 34.3 31.581 34.6433 31.0703ZM37.6091 30.3301C37.4868 29.7255 36.9459 29.1193 35.911 29.1143C33.6419 29.1009 31.5872 31.6514 31.3711 33.7044C31.3711 33.7044 31.3058 34.175 31.3092 34.4547L31.0396 34.6422C30.7247 34.8817 29.869 35.4728 29.5257 35.2719C29.2846 35.1312 29.4554 34.448 29.5676 34.0159C29.6731 33.609 30.42 31.1875 30.641 30.4724C30.6762 30.3585 30.6209 30.2397 30.5121 30.1961L29.0434 29.6016C28.9245 29.5531 28.7872 29.6117 28.737 29.7322C27.6468 32.276 25.4581 36.002 24.5739 36.0288C24.2641 36.0388 23.976 35.6001 23.9844 35.0374C23.9258 35.0726 23.8605 35.1144 23.7918 35.158L23.0969 35.853L23.05 36.0991C22.4588 36.4508 21.8426 36.7053 21.1342 36.7656C20.0809 36.856 19.8984 36.2398 19.9419 35.5532C24.1753 34.2688 24.5036 32.4803 24.3327 31.5308C24.2138 30.871 23.6461 30.2095 22.5325 30.2078C20.7725 30.2045 19.0544 31.6329 18.2003 33.3126C17.3814 34.9235 17.5271 36.1812 17.7465 36.6836C17.9273 37.0989 18.5319 38.1639 19.9972 38.1656C21.0338 38.1673 22.3014 37.7587 23.2292 37.1993C23.5457 37.4673 23.966 37.5627 24.3227 37.5527C25.7411 37.5108 26.8916 35.4142 27.8494 33.6475L28.0688 33.7513C27.7356 34.6305 27.4442 35.4326 27.5681 36.1142C27.7021 36.8493 28.3317 37.0905 28.732 37.0788C28.9312 37.0737 29.4755 36.9465 30.8654 35.8513L31.5336 35.3422C31.7563 35.8027 32.4044 36.6367 33.6503 36.645C34.7941 36.6517 36.2292 36.1326 37.0749 35.4778L37.2239 34.2537C36.4335 34.8231 35.6548 35.292 34.6785 35.3707C33.7022 35.4477 33.58 34.6171 33.6084 33.9891C37.5153 32.8336 37.7866 31.2009 37.6091 30.3318V30.3301Z" fill="black"/>
<path d="M47.8058 30.6135C48.2328 30.0006 48.6213 29.8784 48.7654 29.8817C48.9831 29.8851 49.0969 29.9973 49.1422 30.22C49.3247 31.1343 47.9766 31.9482 46.9434 32.3501C47.136 31.7924 47.4575 31.1142 47.8075 30.6152L47.8058 30.6135ZM54.0789 30.6939C54.5059 30.081 54.8961 29.9604 55.0401 29.9621C55.2595 29.9654 55.3717 30.0776 55.4169 30.3004C55.5995 31.2147 54.2497 32.0286 53.2131 32.4288C53.4074 31.8712 53.7289 31.1929 54.0772 30.6922L54.0789 30.6939ZM61.4606 28.0781C61.9228 27.4301 62.4386 26.8942 62.8991 26.7987C63.2809 26.8038 63.3194 27.2107 63.3429 27.3413C63.5321 28.3813 61.4874 30.3171 59.8831 31.4692C60.1243 30.3623 60.8946 28.8736 61.4606 28.0781ZM59.5515 32.8475C61.9345 31.3805 65.128 28.882 64.7445 26.7669C64.6005 25.9698 64.1735 25.521 63.4634 25.511C60.8711 25.4775 57.6241 29.1834 57.5018 33.2209C56.8286 33.7266 55.9863 34.1453 55.6463 34.3211C55.1641 34.569 54.6583 34.7431 54.0839 34.7833C53.1043 34.852 52.9854 34.1737 53.0189 33.5558C56.9442 32.4455 57.2305 30.8429 57.0597 29.9855C56.9408 29.391 56.4049 28.7899 55.3667 28.7765C53.0926 28.7463 50.9172 31.4726 50.6845 33.4905C50.6845 33.4905 50.589 33.606 50.3311 33.7718C49.6429 34.2123 48.752 34.7381 47.7723 34.8067C46.7927 34.8754 46.7156 34.0917 46.7491 33.4738C50.6744 32.3635 50.9608 30.7609 50.79 29.9035C50.6711 29.309 50.1352 28.7078 49.0969 28.6944C46.8228 28.6643 44.7312 31.1293 44.5738 33.0903C44.5252 33.6982 44.4331 34.234 44.6023 34.6527C44.7714 35.0697 45.3676 36.0342 46.7324 36.0527C47.8761 36.0677 49.1338 35.5603 50.167 34.9357C50.4668 34.7532 50.8184 34.512 50.8184 34.512C50.8335 34.5857 50.8837 34.5539 50.9156 34.6292C51.0696 35.0395 51.6809 36.0108 53.0457 36.0292C53.8294 36.0393 54.7521 35.8082 55.5308 35.4582C55.8908 35.2957 56.7868 34.9173 57.6576 34.2642C57.6726 34.3345 57.7162 34.4685 57.7262 34.4919C57.9908 35.15 58.6556 36.2101 60.0606 36.2285C60.2465 36.2302 60.5865 36.2117 60.7606 36.1799C62.3833 35.8902 63.4266 34.2056 62.9694 32.1943C62.9426 32.0771 62.8254 32.0001 62.7065 32.0185L61.2596 32.2312C61.5242 33.7869 60.9833 35.1819 60.0941 35.0077C59.4695 34.8855 59.4109 34.2374 59.4444 33.735C59.4527 33.6044 59.5063 33.1288 59.5566 32.8458L59.5515 32.8475Z" fill="black"/>
<path d="M69.0131 32.4137C69.1186 32.4723 69.2493 32.4422 69.3179 32.3434C69.5791 31.97 69.7918 31.4391 69.7047 30.9602C69.5976 30.3673 69.199 29.5702 68.2009 29.5635C65.7141 29.5485 63.3915 32.546 63.8017 34.8051C64.0027 35.9153 64.6826 36.5668 65.9 36.5751C66.9349 36.5818 67.938 36.2184 69.5373 35.433L69.7081 34.1771C69.2442 34.4032 68.8473 34.584 68.5074 34.7264C68.0837 34.9039 66.8043 35.3577 66.2584 34.7883C65.9486 34.4668 65.9017 33.8489 66.039 33.2745C66.1948 32.6331 66.4577 32.0688 66.9182 31.4977C67.1711 31.1846 67.4072 31.0003 67.6266 30.9334C67.8476 30.8664 68.0167 31.0372 68.0368 31.1544C68.0603 31.2834 67.9648 31.6535 67.9012 31.8008L69.0148 32.4137H69.0131Z" fill="black"/>
<path d="M41.8525 25.9077C41.5845 25.5745 41.2915 25.2613 40.9901 24.9683C44.7579 24.7908 48.2344 24.836 52.1246 25.1307L52.0659 24.2231C52.0609 24.1159 51.9856 24.0271 51.8817 24.0054C48.1892 23.2618 38.4212 23.6135 38.0595 23.7893C37.8502 23.8513 37.8786 24.4944 37.8786 24.4944C37.9138 24.7405 38.0494 24.913 38.165 24.9967L38.2772 25.0771C39.2183 25.7419 40.3018 26.0769 41.109 26.9795C41.7269 27.6728 42.9142 29.2268 42.9343 31.1459C42.951 32.7335 42.1907 33.9241 41.4154 34.5052C41.0771 34.7581 39.8982 35.1901 40.0673 33.3815C40.1126 32.8942 40.2683 32.3215 40.6334 31.7371C41.1592 30.8964 41.9546 30.4644 42.3766 30.2718L41.7771 29.3625C38.87 30.029 37.6258 32.3701 37.9389 34.0916C38.1934 35.4982 39.3355 36.1899 40.424 36.1966C42.4939 36.2083 44.7077 33.6143 44.0445 29.9687C43.7532 28.3661 42.8991 27.1989 41.8542 25.9027L41.8525 25.9077Z" fill="black"/>
<path d="M14.6802 31.3486C13.2468 31.3403 11.9791 32.139 11.2406 32.9412L11.053 32.8441C11.4733 31.6618 12.808 28.5654 13.4896 27.2508C16.0953 26.5425 19.2419 25.8676 22.7921 25.4573C25.1566 25.2346 27.0925 25.0337 29.879 25.1375C29.9175 24.8344 29.9778 24.3755 30.0297 24.0054C30.0532 23.8346 29.9276 23.6772 29.7551 23.6655C27.2047 23.5014 22.5576 23.8999 20.4794 24.1344C13.9869 24.7758 9.09707 25.8107 6.54664 27.1537L7.21983 29.0695C7.26337 29.1934 7.40069 29.257 7.52294 29.2085C8.47244 28.8367 9.73175 28.3779 11.2573 27.9006C10.1102 30.1831 7.40069 36.2552 6.39592 38.8727C6.34903 38.9949 6.40932 39.1306 6.52989 39.1808L8.19613 39.8707C8.31838 39.921 8.45904 39.8624 8.51096 39.7401C8.69349 39.3148 9.34659 37.6937 9.53247 37.3119C10.7499 34.8385 12.0645 33.2979 13.2015 32.824C13.7508 32.5945 14.1929 32.8759 14.3101 33.0433C14.4257 33.2108 14.5027 33.4151 14.5245 33.6311C14.5747 34.1084 14.4056 36.3373 12.9051 37.6268C12.6037 37.8846 12.0092 38.2665 10.9978 38.4389C10.7482 38.4825 10.5004 38.4423 10.2442 38.3937C10.127 38.372 10.0114 38.4389 9.97289 38.5511L9.73845 39.2176C9.68821 39.36 9.77696 39.5124 9.92601 39.5358C10.3932 39.6112 10.9944 39.6664 11.5989 39.6698C14.5781 39.6882 17.3177 36.3356 16.8505 33.7601C16.6094 32.4338 15.9429 31.3537 14.6802 31.347V31.3486Z" fill="black"/>
<path d="M90.9555 38.0971C90.8618 38.0301 90.8484 37.8559 90.9271 37.5964C91.0091 37.3234 91.9335 34.4146 92.1696 33.6778C92.2048 33.5672 92.1546 33.45 92.0507 33.3981L91.0192 32.894C90.9019 32.8371 90.7613 32.8873 90.706 33.0062C90.1584 34.1852 88.5558 36.389 87.5611 36.9047C87.1575 37.0354 87.1609 36.6301 87.2479 36.3756C87.34 36.1043 88.1422 33.6727 88.4001 32.9007C88.4369 32.7902 88.3867 32.6713 88.2828 32.6194L87.2078 32.0869C87.0822 32.0249 86.9298 32.0902 86.8829 32.2225C86.3487 33.7833 85.9786 34.8785 85.7274 35.6705C84.8516 36.3437 84.1616 36.6284 83.7999 36.7507C83.7296 36.7741 83.475 36.811 83.3813 36.7456C83.2875 36.6787 83.2741 36.5045 83.3528 36.2449C83.4348 35.972 84.3324 32.9995 84.5686 32.2627C84.6037 32.1522 84.5535 32.0333 84.4497 31.983L83.4181 31.479C83.3009 31.422 83.1602 31.4723 83.1049 31.5895C82.5557 32.7684 80.8543 35.1883 79.8579 35.704C79.4543 35.8347 79.4576 35.4294 79.5447 35.1749C79.6368 34.9036 80.5193 32.405 80.7772 31.6347C80.8141 31.5242 80.7638 31.4053 80.66 31.3534L79.5849 30.8209C79.4593 30.7589 79.3069 30.8225 79.2617 30.9565C78.7493 32.4503 78.3809 33.5237 78.1196 34.3175C77.6625 34.8098 76.5756 35.5399 76.1821 35.6823C75.4687 35.9402 75.2326 35.6689 75.1974 35.488C75.1572 35.2787 75.2008 34.9856 75.328 34.6289C75.4553 34.2739 75.3666 33.9222 75.0819 33.6845C74.9261 33.5538 74.4874 33.5103 73.9013 33.6878C74.4355 32.8572 76.3177 31.901 77.212 31.4338L76.4902 30.4123C76.4165 30.3084 76.2742 30.2833 76.1687 30.3536C73.8745 31.906 73.6534 32.5005 72.2049 34.1483L72.1078 34.1115L73.3838 30.7991C73.424 30.6902 73.3788 30.568 73.275 30.5127L72.0491 29.8563C71.9202 29.786 71.7578 29.8529 71.7159 29.9953L69.7834 36.399C69.7482 36.5162 69.8102 36.6401 69.9241 36.6837L71.1013 37.1241C71.2085 37.1643 71.3274 37.1208 71.3843 37.022C71.8214 36.26 72.8747 34.6959 73.2582 34.6557C73.5329 34.6273 73.4324 35.0576 73.352 35.3524C73.29 35.5818 73.2599 35.9686 73.3001 36.1897C73.3704 36.5782 73.6501 37.32 74.5577 37.3251C74.9479 37.3267 76.0297 37.2447 77.6507 35.8631C77.5268 36.3655 77.5251 36.6117 77.572 36.8729C77.706 37.6131 78.2151 37.8191 78.5416 37.8224C79.739 37.8291 80.9799 36.0373 82.122 34.9354L82.2107 35.0292C81.7736 35.9134 81.4739 36.8311 81.5107 37.3301C81.5124 37.4406 81.5325 37.5528 81.571 37.6633C81.7318 38.1456 82.1186 38.3884 82.5004 38.3901C82.9944 38.3935 84.4396 37.7052 85.354 36.9583C85.2133 37.5394 85.2217 37.7889 85.2736 38.0736C85.4075 38.8138 85.9166 39.0198 86.2432 39.0231C87.4405 39.0298 88.5809 37.454 89.7213 36.3521L89.8101 36.4459C89.373 37.3301 89.0465 38.1841 89.0833 38.6832C89.085 38.7937 89.1051 38.9059 89.1436 39.0164C89.3044 39.4987 89.6929 39.7415 90.073 39.7432C90.6357 39.7466 92.0424 38.9042 92.4761 38.5927L92.6469 37.3368C91.9553 37.7538 91.6003 37.9581 91.2988 38.087C91.2302 38.1172 91.0476 38.1674 90.9555 38.1004V38.0971Z" fill="black"/>
<path d="M86.8327 27.8418L86.2834 29.1631C87.0923 29.7023 87.8107 30.0992 89.0951 30.4291C90.2221 30.7171 91.6004 30.8494 93.3436 30.6903L93.4943 29.776C90.2054 30.0741 88.144 28.7159 86.8344 27.8418H86.8327Z" fill="black"/>
<path d="M51.1549 15.9589C51.2738 15.84 51.2738 15.6457 51.1549 15.5268L50.1066 14.4802C50.0145 14.3881 49.8655 14.3881 49.7733 14.4802L48.725 15.5268C48.6061 15.6457 48.6061 15.84 48.725 15.9589L49.7298 16.962C49.8454 17.0775 50.0346 17.0775 50.1501 16.962L51.1549 15.9589Z" fill="black"/>
<path d="M50.0799 18.8158C50.0029 18.8929 49.8756 18.8929 49.7986 18.8158L46.8663 15.8836C46.8278 15.8451 46.8094 15.7965 46.8077 15.7463C46.8094 15.696 46.8278 15.6475 46.8663 15.609L49.7986 12.6767C49.8773 12.5997 50.0029 12.5997 50.0799 12.6767L53.0121 15.609C53.0507 15.6475 53.0691 15.696 53.0708 15.7463C53.0691 15.7965 53.0507 15.8451 53.0121 15.8836L50.0799 18.8158ZM44.6106 15.9439L43.5087 17.0475C43.4317 17.1245 43.3044 17.1245 43.2274 17.0475L42.0635 15.8836C42.025 15.8451 42.0066 15.7965 42.0049 15.7463C42.0066 15.696 42.025 15.6475 42.0635 15.609L43.2274 14.4451C43.3044 14.3681 43.4317 14.3681 43.5087 14.4451L44.6106 15.5487C44.6642 15.6039 44.6927 15.6743 44.6927 15.7463C44.691 15.8183 44.6642 15.8886 44.6106 15.9439ZM57.8149 15.8836L56.6511 17.0475C56.5741 17.1245 56.4468 17.1245 56.3697 17.0475L55.2662 15.9422C55.2126 15.8869 55.1841 15.8166 55.1841 15.7463C55.1858 15.6759 55.2126 15.6039 55.2662 15.5503L56.3697 14.4451C56.4468 14.3681 56.5741 14.3681 56.6511 14.4451L57.8149 15.609C57.8535 15.6475 57.8719 15.696 57.8735 15.7463C57.8719 15.7965 57.8535 15.8451 57.8149 15.8836ZM59.7273 15.6023L56.6511 12.526C56.5741 12.449 56.4468 12.449 56.3697 12.526L54.2514 14.6461C54.1743 14.7231 54.0471 14.7231 53.97 14.6461C53.9566 14.6327 53.9315 14.6109 53.9014 14.5858L50.1519 10.8397C50.033 10.7208 49.8421 10.7208 49.7232 10.8397L45.9888 14.5757C45.9603 14.5992 45.9336 14.6226 45.9101 14.6477C45.8331 14.7248 45.7058 14.7248 45.6288 14.6477L43.5087 12.5277C43.4317 12.4506 43.3044 12.4506 43.2274 12.5277L40.1511 15.6039C40.1109 15.6441 40.0925 15.696 40.0925 15.748C40.0908 15.7999 40.1109 15.8535 40.1511 15.892L43.2274 18.9682C43.3044 19.0453 43.4317 19.0453 43.5087 18.9682L45.6288 16.8482C45.7058 16.7711 45.8331 16.7711 45.9101 16.8482C45.9336 16.8716 45.9603 16.8967 45.9888 16.9202L49.7232 20.6562C49.8421 20.7751 50.033 20.7751 50.1519 20.6562L53.9014 16.9101C53.9315 16.885 53.955 16.8632 53.97 16.8498C54.0471 16.7728 54.1743 16.7728 54.2514 16.8498L56.3697 18.9699C56.4468 19.0469 56.5741 19.0469 56.6511 18.9699L59.7273 15.8936C59.7675 15.8535 59.786 15.8015 59.786 15.7496C59.7876 15.6977 59.7675 15.6441 59.7273 15.6056V15.6023Z" fill="black"/>
<path d="M33.9752 42.8227C33.6938 42.8428 33.5515 42.8545 33.2702 42.8763C33.3171 43.4808 33.3388 43.7822 33.3857 44.3868C33.2032 44.4002 33.1111 44.4085 32.9285 44.4219C32.8683 43.6533 32.8381 43.2698 32.7778 42.5012C33.4293 42.4492 33.7541 42.4258 34.4056 42.3789C34.4608 43.1476 34.4876 43.5327 34.5429 44.3014C34.3603 44.3148 34.2682 44.3215 34.0857 44.3349C34.0422 43.7303 34.0187 43.4289 33.9752 42.8244V42.8227Z" fill="black"/>
<path d="M35.5459 42.7139C35.5576 42.8898 35.5626 42.9768 35.5743 43.1527C35.6413 43.156 35.7184 43.1577 35.7853 43.1527C35.9059 43.1443 36.0516 43.0857 36.0399 42.8998C36.0298 42.729 35.9109 42.6838 35.7468 42.6955C35.6865 42.6989 35.6397 42.7056 35.5459 42.7139ZM35.1875 44.2562C35.1356 43.4876 35.1088 43.1024 35.0569 42.3338C35.1691 42.3271 35.5174 42.297 35.6731 42.2869C36.2877 42.2467 36.5088 42.5398 36.5289 42.873C36.5506 43.2163 36.2911 43.5362 35.8255 43.5663C35.782 43.5697 35.6731 43.5764 35.6011 43.573C35.6179 43.8342 35.6263 43.9649 35.6447 44.2261C35.4621 44.2378 35.37 44.2445 35.1875 44.2562Z" fill="black"/>
<path d="M37.115 44.1324C37.0698 43.3621 37.0463 42.9786 37.0011 42.2082C37.1853 42.1982 37.2774 42.1915 37.4633 42.1815C37.4901 42.6604 37.5035 42.8982 37.532 43.3771C37.8602 42.8781 38.026 42.6302 38.3592 42.1329C38.5216 42.1245 38.602 42.1195 38.7628 42.1128C38.8013 42.8831 38.8214 43.2683 38.8599 44.0386C38.6774 44.047 38.5853 44.052 38.4027 44.062C38.3776 43.5831 38.3642 43.3453 38.3391 42.8664C38.0075 43.3637 37.8434 43.6116 37.5152 44.1106C37.3544 44.119 37.2757 44.124 37.115 44.134V44.1324Z" fill="black"/>
<path d="M39.8949 42.471C39.9033 42.6468 39.9066 42.7356 39.915 42.9114C39.982 42.9164 40.059 42.9181 40.126 42.9164C40.2466 42.9114 40.394 42.8545 40.3856 42.6686C40.3789 42.4978 40.26 42.4509 40.0959 42.4576C40.0356 42.4609 39.9887 42.466 39.8949 42.4727V42.471ZM39.5064 44.0049C39.4696 43.2346 39.4511 42.8494 39.4143 42.0791C39.5265 42.0741 39.8765 42.0523 40.0322 42.0456C40.6468 42.0188 40.8612 42.3152 40.8746 42.6485C40.888 42.9918 40.6234 43.3066 40.1578 43.3267C40.1143 43.3284 40.0054 43.3334 39.9334 43.3284C39.9452 43.5896 39.9519 43.7219 39.9636 43.9832C39.781 43.9915 39.6889 43.9966 39.5064 44.0049Z" fill="black"/>
<path d="M42.4035 43.5077C42.7853 43.4943 42.9746 43.2297 42.9645 42.9048C42.9528 42.5531 42.6899 42.3287 42.3633 42.3405C42.0284 42.3522 41.7889 42.5917 41.8023 42.945C41.8141 43.2749 42.082 43.5194 42.4035 43.5077ZM42.3499 41.9285C42.9645 41.9084 43.4351 42.2768 43.4535 42.8914C43.4703 43.4742 43.0282 43.9012 42.4186 43.9213C41.809 43.9414 41.3385 43.578 41.315 42.9634C41.2933 42.4041 41.7069 41.9503 42.3499 41.9285Z" fill="black"/>
<path d="M44.5201 43.4126C44.7814 43.4059 44.912 43.4025 45.1749 43.3975C45.1649 42.9571 45.1615 42.7377 45.1515 42.2973C44.9873 42.3006 44.9053 42.3023 44.7429 42.3057C44.7328 42.4363 44.7278 42.5016 44.7177 42.6305C44.6943 42.9638 44.5871 43.3255 44.5201 43.4126ZM43.8 43.431C43.8855 43.4293 43.929 43.4276 44.0144 43.426C44.0914 43.3255 44.2622 42.9219 44.2756 42.2906C44.279 42.1365 44.2807 42.0595 44.284 41.9054C44.8115 41.892 45.0761 41.887 45.6036 41.877C45.6153 42.4832 45.6203 42.7846 45.6321 43.3908C45.7409 43.3891 45.7962 43.3875 45.905 43.3858C45.9101 43.6839 45.9134 43.8312 45.9184 44.1293C45.7476 44.1327 45.6605 44.1343 45.4897 44.1377C45.4864 44.0054 45.4864 43.9401 45.483 43.8078C44.9857 43.8178 44.7378 43.8229 44.2405 43.8362C44.2438 43.9685 44.2455 44.0339 44.2488 44.1661C44.078 44.1712 43.991 44.1728 43.8201 44.1779C43.8118 43.8815 43.8084 43.7324 43.8 43.4343V43.431Z" fill="black"/>
<path d="M47.0539 42.962C47.2348 42.9603 47.3252 42.9586 47.5044 42.9569C47.4123 42.7392 47.3671 42.6321 47.275 42.4144C47.1862 42.6337 47.1427 42.7426 47.0539 42.962ZM47.0757 41.8517C47.2415 41.85 47.3235 41.8484 47.4893 41.8467C47.8326 42.6137 48.0034 42.9988 48.3417 43.7675C48.1458 43.7691 48.0486 43.7691 47.8527 43.7708C47.784 43.61 47.7506 43.528 47.6836 43.3672C47.3654 43.3706 47.2063 43.3723 46.8881 43.3756C46.8245 43.538 46.791 43.6201 46.7274 43.7825C46.5432 43.7859 46.4511 43.7859 46.2668 43.7892C46.5884 43.0122 46.7491 42.6254 47.0774 41.85L47.0757 41.8517Z" fill="black"/>
<path d="M50.0615 42.9871C50.0615 43.1311 50.0615 43.2032 50.0615 43.3472C50.0933 43.3555 50.1301 43.3639 50.2172 43.3639C50.3947 43.3639 50.4835 43.2902 50.4851 43.1613C50.4851 43.0407 50.3914 42.9871 50.2407 42.9871C50.1686 42.9871 50.1335 42.9871 50.0631 42.9871H50.0615ZM50.0631 42.252C50.0631 42.3926 50.0631 42.4613 50.0631 42.602C50.1234 42.602 50.1553 42.602 50.2155 42.602C50.3328 42.602 50.4282 42.5551 50.4299 42.4144C50.4299 42.2989 50.321 42.2402 50.2088 42.2402C50.1519 42.2402 50.1167 42.2453 50.0648 42.2503L50.0631 42.252ZM49.601 41.8434C49.7132 41.8383 49.9945 41.8266 50.2139 41.8283C50.6962 41.83 50.8921 42.0426 50.8904 42.3106C50.8887 42.5115 50.8084 42.6455 50.6576 42.7393C50.6576 42.741 50.6576 42.7426 50.6576 42.7443C50.805 42.7979 50.944 42.9386 50.9423 43.1864C50.939 43.5917 50.6124 43.7792 50.177 43.7775C49.9861 43.7775 49.7182 43.7708 49.601 43.7608C49.601 42.9938 49.601 42.6103 49.601 41.845V41.8434Z" fill="black"/>
<path d="M51.5166 41.8467C51.7008 41.8484 51.7946 41.8484 51.9788 41.8517C51.9755 42.1883 51.9738 42.3558 51.9688 42.6907C52.2367 42.3574 52.3707 42.1917 52.6403 41.8601C52.8613 41.8634 52.9735 41.8651 53.1946 41.8685C52.8848 42.2184 52.7307 42.3943 52.4226 42.7459C52.7441 43.1646 52.9032 43.3756 53.2214 43.7959C52.9886 43.7926 52.8731 43.7892 52.6403 43.7876C52.3724 43.4175 52.2367 43.2316 51.9671 42.8615C51.9637 43.2282 51.9604 43.4108 51.957 43.7792C51.7745 43.7775 51.6824 43.7758 51.4999 43.7742C51.5066 43.0038 51.5099 42.617 51.5166 41.8467Z" fill="black"/>
<path d="M54.819 43.3706C54.675 43.662 54.4991 43.8194 54.2211 43.8144C54.1039 43.8111 53.9733 43.7658 53.9197 43.7223C53.9867 43.5733 54.0202 43.4996 54.0872 43.3505C54.1408 43.3874 54.1692 43.3991 54.2262 43.4008C54.3015 43.4025 54.3501 43.3807 54.3769 43.3271C54.3869 43.3037 54.3936 43.2919 54.4037 43.2702C54.0704 42.7108 53.903 42.4312 53.5647 41.8735C53.774 41.8769 53.8778 41.8802 54.0872 41.8836C54.3066 42.2654 54.4154 42.4563 54.6348 42.8381C54.8073 42.4647 54.8927 42.2788 55.0668 41.907C55.2527 41.9121 55.3465 41.9137 55.5324 41.9188C55.2443 42.4998 55.102 42.7895 54.8173 43.3706H54.819Z" fill="black"/>
<path d="M57.4314 43.7187C57.3058 43.8443 57.0429 43.9281 56.7716 43.918C56.1504 43.8979 55.7334 43.4893 55.7501 42.8881C55.7669 42.3355 56.1403 41.9018 56.8353 41.9252C57.1032 41.9336 57.3293 42.0307 57.4465 42.1479C57.3594 42.2769 57.3159 42.3422 57.2305 42.4711C57.1233 42.4042 57.0128 42.3456 56.8219 42.3389C56.5104 42.3288 56.2508 42.5247 56.2391 42.9032C56.2291 43.2448 56.4669 43.4943 56.8286 43.5061C56.9726 43.5111 57.1317 43.4726 57.269 43.3805C57.3343 43.5161 57.3661 43.5831 57.4314 43.7171V43.7187Z" fill="black"/>
<path d="M59.1245 43.1997C58.8314 43.1863 58.6857 43.1813 58.3927 43.1679C58.3793 43.4777 58.3743 43.6334 58.3609 43.9432C58.1783 43.9349 58.0862 43.9315 57.9037 43.9248C57.9338 43.1545 57.9489 42.7693 57.979 41.999C58.1632 42.0057 58.2554 42.0091 58.4412 42.0174C58.4295 42.3122 58.4228 42.4595 58.4111 42.7543C58.7042 42.766 58.8515 42.7727 59.1446 42.7861C59.158 42.4914 59.1647 42.344 59.1781 42.0493C59.3623 42.0576 59.4561 42.061 59.6403 42.071C59.6051 42.8414 59.5867 43.2265 59.5498 43.9968C59.3673 43.9885 59.2752 43.9834 59.0927 43.9767C59.1061 43.6669 59.1128 43.5112 59.1278 43.2014L59.1245 43.1997Z" fill="black"/>
<path d="M61.1507 43.6972C61.5325 43.7173 61.7435 43.4712 61.762 43.1463C61.7821 42.7946 61.5392 42.5484 61.2127 42.5317C60.8794 42.5133 60.6199 42.7327 60.6015 43.0843C60.5847 43.4142 60.8292 43.6805 61.1507 43.6972ZM61.2361 42.1197C61.8507 42.1532 62.2878 42.5618 62.251 43.1748C62.2158 43.7575 61.7385 44.1427 61.129 44.1092C60.5194 44.0757 60.084 43.6721 60.1141 43.0592C60.1409 42.5016 60.5931 42.0846 61.2361 42.1197Z" fill="black"/>
<path d="M62.8321 42.2437C63.2943 42.2721 63.5237 42.2872 63.9859 42.3173C63.9742 42.4831 63.9692 42.5652 63.9575 42.7293C63.6812 42.7109 63.5438 42.7025 63.2658 42.6841C63.2273 43.2886 63.2089 43.5917 63.1687 44.1963C62.9862 44.1845 62.8941 44.1795 62.7115 44.1678C62.7584 43.3975 62.7819 43.014 62.8304 42.2437H62.8321Z" fill="black"/>
<path d="M65.2854 43.9616C65.6655 43.99 65.8832 43.7472 65.9083 43.4223C65.9351 43.0707 65.6973 42.8212 65.3724 42.796C65.0392 42.7709 64.7746 42.9853 64.7495 43.3369C64.726 43.6668 64.9655 43.9381 65.287 43.9616H65.2854ZM65.4009 42.3858C66.0155 42.431 66.4425 42.8496 66.3956 43.4609C66.3504 44.0436 65.8631 44.4187 65.2552 44.3735C64.6473 44.3283 64.2186 43.9163 64.2605 43.3034C64.299 42.7458 64.7579 42.3372 65.4009 42.3858Z" fill="black"/>
<path d="M47.0655 47.5388C46.9399 47.6795 46.6686 47.7799 46.3856 47.7799C45.7392 47.7799 45.2921 47.3512 45.2921 46.7015C45.2921 46.102 45.6639 45.623 46.3823 45.623C46.6586 45.623 46.8947 45.7185 47.0203 45.8407L46.8093 46.1974C46.6954 46.1288 46.5799 46.0702 46.3823 46.0702C46.0608 46.0702 45.7979 46.2912 45.7979 46.7015C45.7979 47.0716 46.0541 47.3328 46.4292 47.3328C46.5782 47.3328 46.7423 47.2859 46.8813 47.1804L47.0639 47.5388H47.0655Z" fill="black"/>
<path d="M49.1874 45.6582H49.6646V47.7448H49.1874V45.6582ZM48.0402 46.7618V47.2926C48.0938 47.2993 48.1357 47.3044 48.1809 47.3044C48.3752 47.3044 48.479 47.2122 48.479 47.0146C48.479 46.8304 48.3601 46.7467 48.1843 46.7467C48.1458 46.7467 48.1005 46.7534 48.0419 46.7618H48.0402ZM48.0402 46.3113C48.1139 46.3029 48.1809 46.2996 48.2245 46.2996C48.7369 46.2996 48.9847 46.5776 48.9847 47.0029C48.9847 47.45 48.6749 47.7515 48.124 47.7515C47.9096 47.7515 47.6852 47.7448 47.563 47.7448V45.6582H48.0402V46.3113Z" fill="black"/>
<path d="M50.8167 46.1052V46.5824C50.8854 46.5908 50.9658 46.5975 51.0344 46.5975C51.16 46.5975 51.3141 46.5439 51.3141 46.3413C51.3141 46.1571 51.1952 46.1002 51.0244 46.1002C50.9624 46.1002 50.9139 46.1035 50.8151 46.1069L50.8167 46.1052ZM50.3395 47.7446V45.6581C50.455 45.6581 50.8167 45.6514 50.9775 45.6514C51.6122 45.6514 51.8215 45.9829 51.8215 46.343C51.8215 46.7147 51.5318 47.043 51.0495 47.043C51.0043 47.043 50.8921 47.043 50.8167 47.0346V47.7446H50.3395Z" fill="black"/>
<path d="M52.7945 46.8589H53.2617L53.029 46.2694L52.7928 46.8589H52.7945ZM52.8297 45.6582H53.2567L54.1242 47.7448H53.6151L53.4426 47.306H52.617L52.4445 47.7448H51.9656L52.833 45.6582H52.8297Z" fill="black"/>
</g>
<defs>
<clipPath id="clip0_1233_4080">
<rect width="97.0623" height="60.8607" fill="white" transform="translate(0.817871 0.450195)"/>
</clipPath>
</defs>
</svg>
