<svg width="108" height="48" viewBox="0 0 108 48" fill="none" xmlns="http://www.w3.org/2000/svg">
<g clip-path="url(#clip0_1233_3614)">
<path fill-rule="evenodd" clip-rule="evenodd" d="M3.63492 38.1383V32.1148H10.141C13.0071 32.1148 15.9232 34.8694 15.9232 38.0176C15.9232 39.5063 15.6021 40.7277 14.7631 41.8563C14.1895 42.6285 14.26 42.4819 13.679 43.0016C13.5398 43.126 13.3988 43.2336 13.2373 43.3432C11.4404 44.5627 9.2946 44.7094 7.26573 43.8425C6.28564 43.4248 5.31296 42.5951 4.73011 41.7394C4.03216 40.7166 3.63492 39.5416 3.63492 38.1364V38.1383ZM0.622243 27.1159V46.1498C0.622243 47.4844 2.56573 48.2195 3.40661 46.8867C3.72031 46.3911 3.63307 45.8305 3.63307 45.0658C4.25862 45.3962 4.73196 46.1906 6.92233 46.9573C9.85519 47.9838 13.1315 47.2728 15.552 45.359C16.4356 44.6611 16.1441 44.8133 16.6899 44.2676C17.9113 43.048 18.9322 40.4047 18.9322 38.6803C18.9322 36.8779 18.8338 35.9553 18.0691 34.3033C16.7437 31.4428 13.4767 29.1039 10.258 29.1039H3.63121C3.63121 27.567 3.37505 26.1154 4.79322 25.4471C5.49302 25.1167 6.75155 25.2485 7.72608 25.2485C8.74887 25.2485 9.77537 25.243 10.7982 25.2485C13.3134 25.2634 12.8456 22.2358 11.0989 22.2358H5.61739C4.06 22.2358 2.37639 23.1083 1.56893 24.3315C1.37588 24.623 1.25522 24.8086 1.0993 25.126C0.857985 25.6161 0.61853 26.3845 0.61853 27.114L0.622243 27.1159Z" fill="black"/>
<path fill-rule="evenodd" clip-rule="evenodd" d="M23.5116 38.7418C23.5116 37.099 23.7306 36.0261 24.707 34.697C27.4969 30.8955 33.2717 31.5674 35.2783 35.5899C36.3289 37.6949 36.1062 40.2435 34.7251 42.1257C32.583 45.0456 28.0612 45.5672 25.4235 42.9146C24.8833 42.3726 24.4954 41.9197 24.1316 41.1939C23.8253 40.5813 23.5097 39.6346 23.5097 38.7436L23.5116 38.7418ZM35.9205 31.5136C35.2987 31.185 34.8105 30.3813 32.6313 29.6221C29.8451 28.6513 26.7748 29.2286 24.3654 30.862C22.125 32.3804 20.6288 35.098 20.4989 37.8378C20.4673 38.4912 20.3875 37.9139 20.4896 38.8717C20.5082 39.0481 20.4896 39.2188 20.5063 39.397C20.7792 42.0867 22.1844 44.3049 24.3005 45.9032C26.8806 47.8522 30.3778 48.1585 33.3626 46.9111C33.9102 46.6828 34.8254 46.1556 35.2969 45.7732C35.5493 45.569 35.7368 45.3574 35.9168 45.3092C35.9168 45.9477 35.9187 46.5083 36.1897 46.9018C37.0826 48.1993 38.9871 47.5701 38.9871 45.9718V30.8528C38.9871 30.2476 38.8126 29.843 38.4933 29.5404C37.7972 28.8833 36.6222 29.0281 36.1359 29.9284C35.9076 30.3516 35.9168 30.8862 35.9168 31.5154L35.9205 31.5136Z" fill="black"/>
<path fill-rule="evenodd" clip-rule="evenodd" d="M58.6909 38.4394C58.6909 37.0769 59.2181 35.4471 60.0924 34.4781C60.4896 34.0382 60.7458 33.7115 61.2693 33.3662C62.4814 32.5643 63.3947 32.1745 65.0764 32.1745C70.2442 32.1745 73.3701 38.766 69.3086 42.8516C65.5015 46.6811 58.6909 43.9802 58.6909 38.4394ZM65.2342 47.6556H64.6216C63.0921 47.6055 61.5774 47.1767 60.2595 46.3878C56.1312 43.9134 54.5775 39.0371 56.5043 34.5672C56.6324 34.2721 56.753 34.0883 56.9015 33.821C57.2598 33.1788 57.8389 32.427 58.342 31.8887L58.949 31.3504C59.1569 31.174 59.3833 30.9995 59.5931 30.851C61.312 29.6371 62.9956 29.1637 65.2546 29.1637C67.0904 29.1637 69.2455 30.0102 70.5969 31.1109C70.7732 31.2538 70.9997 31.4673 71.1575 31.575C71.1575 30.9383 71.0943 30.4445 71.3152 29.986C71.9983 28.5641 74.1701 29.0393 74.1701 30.6116V46.2133C74.1701 46.5845 73.9084 47.0059 73.7042 47.1934C73.0285 47.8171 71.9445 47.7391 71.3969 46.8778C71.0813 46.3841 71.1575 46.0202 71.1575 45.2499C70.9199 45.4095 70.4261 45.8755 69.9657 46.1669C69.498 46.462 69.1249 46.6588 68.5884 46.8982C67.5266 47.3716 66.3813 47.624 65.2323 47.6612L65.2342 47.6556Z" fill="black"/>
<path fill-rule="evenodd" clip-rule="evenodd" d="M36.0411 7.839H33.7524V5.4296C33.7524 3.29864 36.9396 2.47818 37.9716 4.58501C38.7457 6.16468 37.5651 7.839 36.043 7.839H36.0411ZM31.885 21.6327L31.9444 21.694C33.4777 22.1005 34.8346 22.3103 36.5219 22.3288C36.2435 21.8054 34.3464 21.2206 33.7932 17.9778C33.6856 17.3504 33.7524 12.0712 33.7524 10.9723C35.7608 10.9723 37.7674 10.9742 39.7759 10.9723C41.337 10.9705 42.5788 11.3937 43.7 12.2884C43.8485 12.4072 43.9914 12.5093 44.1288 12.6411C45.3873 13.8458 45.8013 15.121 46.024 16.7694C46.1224 17.497 45.8551 18.6887 45.6101 19.3347C45.2648 20.2461 44.8898 20.5765 44.474 21.2114C44.9975 21.1223 48.335 20.1923 48.5522 20.0048C48.6636 19.8359 48.7898 19.2716 48.8473 19.0154C49.6938 15.2213 47.8654 11.1988 44.6151 9.26274C43.4624 8.57593 42.0999 8.07475 40.6799 7.95781C41.996 5.47044 40.9156 2.31669 38.471 0.950494C36.1377 -0.354444 32.9765 0.380628 31.4377 2.9311C30.6673 4.2082 30.6803 5.32009 30.6803 7.29513V16.3313C30.6803 17.5527 30.7973 18.6776 31.1147 19.8136C31.3059 20.4967 31.872 21.5826 31.885 21.6327Z" fill="black"/>
<path fill-rule="evenodd" clip-rule="evenodd" d="M58.9917 17.083C58.8877 17.2724 58.9991 17.8998 59.0418 18.1448C59.0864 18.4028 59.1699 18.9318 59.3537 19.1045L61.4438 18.8446C62.4536 18.7147 64.2746 18.7221 65.3122 18.8056C67.3559 18.9671 68.297 19.2214 70.1199 19.6001C70.3463 19.6465 70.5542 19.7356 70.7974 19.7801C71.2503 19.8525 71.848 20.0604 72.2879 20.2034C72.5274 20.2813 72.7706 20.3574 73.0137 20.441C73.2105 20.5096 73.5688 20.6062 73.7154 20.7268C73.9233 20.7472 74.2871 20.9087 74.508 20.9941C74.7939 21.1036 75.0073 21.1816 75.2913 21.2948C75.8519 21.5194 76.3308 21.7162 76.8747 21.9389C77.8808 22.351 78.9816 22.8411 80.0229 23.1882C81.1274 23.5576 82.2021 23.9307 83.3771 24.2314C84.5317 24.5284 85.7179 24.7827 87.0302 24.9758C91.0824 25.5716 96.4247 25.4491 99.9441 23.1826C100.169 23.0378 100.369 22.9079 100.592 22.7464C100.807 22.5905 101.054 22.4216 101.236 22.2452C101.477 22.0132 102.482 21.0814 101.464 21.1389C100.922 21.1686 98.8972 21.9297 95.6172 21.9278C91.5168 21.926 86.6998 20.6841 82.9316 19.2511C82.6476 19.1434 82.4416 19.0488 82.1576 18.9411C79.5347 17.9425 78.1258 17.4487 75.4027 16.8417C75.1354 16.7823 74.6844 16.7266 74.4727 16.6542L71.4192 16.205C70.3705 16.205 69.3013 16.0212 68.2079 16.025C65.5164 16.0305 64.5604 16.0509 61.8744 16.4983C61.3565 16.5837 59.3388 16.9197 58.9917 17.0774V17.083Z" fill="black"/>
<path fill-rule="evenodd" clip-rule="evenodd" d="M56.0107 17.7793C56.0626 18.08 56.0849 18.4253 56.1462 18.7631C56.2 19.0619 56.3058 19.3738 56.3337 19.6467C56.4376 20.3409 57.156 21.6755 57.4864 22.1767C57.8205 22.6835 58.0006 22.8338 58.305 23.2255C58.9807 24.0961 60.4601 25.1151 61.5051 25.5662C66.2905 27.6341 71.707 25.3936 73.7155 20.7289C73.5707 20.6063 73.2106 20.5098 73.0138 20.443C72.7725 20.3595 72.5275 20.2815 72.288 20.2054C71.8481 20.0625 71.2504 19.8546 70.7975 19.7822C70.5636 20.6695 69.3849 21.8036 68.5941 22.3215C65.7726 24.1685 61.9061 23.3202 60.1464 20.7196C59.9162 20.3799 59.3909 19.5668 59.3519 19.1046C59.17 18.9339 59.0865 18.403 59.0401 18.145C58.9974 17.8999 58.886 17.2725 58.9899 17.0832C58.9899 11.5015 65.5406 9.03267 69.2457 12.3424L69.9974 13.096C70.5692 13.7067 71.0499 14.7536 71.2541 15.5741C71.3061 15.782 71.3117 16.0548 71.4156 16.2145L74.4691 16.6637C74.2649 13.7215 72.8876 11.2305 70.5784 9.5617C69.9622 9.11621 69.4016 8.8025 68.6777 8.51107C65.0951 7.07434 60.8592 8.0136 58.3718 10.8369C57.633 11.6741 57.0149 12.6486 56.5954 13.6993C56.2557 14.5531 55.7508 16.4539 56.007 17.7793H56.0107Z" fill="black"/>
<path fill-rule="evenodd" clip-rule="evenodd" d="M35.772 25.3081C35.7887 25.2988 38.6177 24.8404 38.9852 24.7605C40.9955 24.3169 42.9111 23.7118 44.8268 23.012C45.6695 22.7038 46.7573 22.2379 47.6074 22.0207C48.1996 21.8722 48.8047 21.6253 49.3913 21.4304C49.7068 21.3246 50.0168 21.2355 50.3176 21.152C50.5737 21.0815 51.0062 20.9181 51.2828 20.9107L51.3051 19.164L48.5523 20.0067C48.3351 20.1942 44.9976 21.1242 44.4741 21.2133C43.2323 21.4861 42.0666 21.7609 40.7134 21.9687L37.6673 22.2954C37.2886 22.3159 36.8858 22.2509 36.522 22.3289C34.8346 22.3103 33.4759 22.1005 31.9445 21.694L31.8851 21.6328C30.8363 21.5455 25.3177 18.9319 23.9348 18.3788C23.5023 18.2061 22.9844 18.0539 22.5408 17.9054C21.6034 17.5899 20.5063 17.356 19.5021 17.2093L17.8148 17.0293C15.927 16.749 12.8864 17.1629 11.0803 17.6957C10.5866 17.8405 9.53407 18.2767 9.15911 18.6052C9.10157 18.6554 8.95678 18.7964 8.91966 18.854C8.89367 18.8948 8.87139 18.8763 8.85097 19.0136C8.84912 19.0248 8.84912 19.0433 8.84912 19.0526C8.84355 19.2549 8.9345 19.3403 9.13312 19.383C9.29462 19.4201 9.48952 19.4071 9.65844 19.4053C10.7963 19.383 11.2232 19.2642 12.6581 19.4127C14.932 19.6466 17.115 20.3204 19.0547 21.3302C19.9643 21.8035 20.5843 22.2472 21.7648 22.8375C24.5529 24.2315 28.3582 25.2506 31.6438 25.4288C32.3064 25.4641 33.0768 25.4269 33.7543 25.4306C34.4077 25.4325 35.1001 25.3081 35.7739 25.3081H35.772Z" fill="black"/>
<path fill-rule="evenodd" clip-rule="evenodd" d="M77.1235 31.0308V45.6078C77.1235 48.4553 80.1956 47.9578 80.1956 45.9698V39.9463H87.8452V46.0904C87.8452 46.5397 88.0252 46.8868 88.2498 47.1318C89.1093 48.0655 90.856 47.5272 90.856 46.0904V30.55C90.856 29.7852 90.0949 29.1188 89.3506 29.1188C88.6081 29.1188 87.8452 29.7927 87.8452 30.55V36.8742H80.1956V30.8507C80.1956 28.5972 77.1235 28.4227 77.1235 31.0308Z" fill="black"/>
<path fill-rule="evenodd" clip-rule="evenodd" d="M92.5452 38.3799C92.5452 39.0018 92.6584 39.8835 92.7735 40.381C92.9294 41.0603 93.1002 41.5244 93.3359 42.1073C93.7183 43.0502 94.4719 44.1324 95.181 44.8415C96.8906 46.5492 99.0903 47.533 101.362 47.6574H102.346C103.428 47.598 104.512 47.3419 105.557 46.8741C106.137 46.6142 107.161 46.1186 107.501 45.5636C107.609 45.3854 107.737 44.9789 107.714 44.7208C107.657 44.0637 107.33 43.6851 106.827 43.4382C106.22 43.1393 105.698 43.3138 105.208 43.6331C101.206 46.2485 95.7119 43.5514 95.5838 38.4338C95.5523 37.1362 96.0052 35.9 96.666 34.9106C97.0948 34.2665 97.6146 33.7857 98.2178 33.3291C98.5612 33.0692 98.8063 32.9634 99.2128 32.7574C100.663 32.0242 102.73 31.9852 104.232 32.6571C105.132 33.0599 105.468 33.4999 106.22 33.4999C107.416 33.4999 108.431 31.6826 106.883 30.6672C104.479 29.0931 101.474 28.7182 98.7265 29.6816C98.4053 29.7948 98.2123 29.8988 97.9227 30.0231C96.8851 30.4668 95.9829 31.1777 95.2404 31.9183C93.5828 33.576 92.5452 35.9724 92.5452 38.3781V38.3799Z" fill="black"/>
<path fill-rule="evenodd" clip-rule="evenodd" d="M40.86 46.15C40.86 47.0837 41.5858 47.6276 42.3338 47.6554H42.4601C43.0132 47.6332 43.5571 47.3269 43.8058 46.6846C44.0323 46.1018 44.2235 45.5727 44.4574 44.988C44.9103 43.8576 45.3038 42.7791 45.7567 41.6486C46.2078 40.5238 46.6162 39.4063 47.0561 38.3093C47.1601 38.0494 48.3128 35.1537 48.3295 34.9439L52.9237 46.6141C53.0406 46.9129 53.1502 47.1227 53.3785 47.3046C53.6402 47.5125 53.9521 47.6295 54.2639 47.6554H54.5164C55.2199 47.5979 55.8584 47.0633 55.8584 46.0294C55.8584 45.6971 55.2329 44.1973 55.0751 43.8019C54.7818 43.0631 54.5256 42.3262 54.2231 41.5818L53.3822 39.4119C52.4225 36.7482 51.0545 33.3401 49.9983 30.6281C49.7068 29.8819 49.4711 29.1636 48.3295 29.1636C47.9341 29.1636 47.4886 29.4197 47.2956 29.6351C46.9615 30.0082 46.1596 32.2876 45.9387 32.8556L42.5139 41.6579C42.3171 42.148 40.8618 45.7027 40.8618 46.15H40.86Z" fill="black"/>
<path fill-rule="evenodd" clip-rule="evenodd" d="M51.3051 19.1641L51.2828 20.9108C51.2735 22.1155 51.2884 23.322 51.2809 24.5267C51.2772 25.0595 51.3812 25.5217 51.7543 25.8614C52.4671 26.5111 53.6421 26.4183 54.1544 25.4122C54.3642 25.0001 54.2936 24.3411 54.2936 23.7434C54.2936 22.5684 54.353 21.2226 54.2843 20.0699V18.2619C54.314 17.7403 54.3512 9.45963 54.2713 9.00671C54.134 8.23823 53.3154 7.64052 52.4392 7.85213C51.448 8.09344 51.2791 8.86935 51.2809 9.76777C51.2847 11.0449 51.216 18.5961 51.3051 19.1641Z" fill="black"/>
<path fill-rule="evenodd" clip-rule="evenodd" d="M35.772 25.3079C36.431 25.514 36.7948 25.8499 38.1331 26.1079C40.4219 26.5479 42.3784 26.1247 44.294 25.1297C45.7586 24.3687 46.696 23.3347 47.6055 22.0205C46.7554 22.2377 45.6676 22.7055 44.8249 23.0117C42.9111 23.7115 40.9936 24.3167 38.9833 24.7603C38.6158 24.842 35.7887 25.2986 35.7701 25.3079H35.772Z" fill="black"/>
<path fill-rule="evenodd" clip-rule="evenodd" d="M51.2809 3.62349V4.16552C51.2809 6.23894 54.2936 6.14984 54.2936 4.22492V3.56224C54.2936 2.4058 52.7306 1.67444 51.7468 2.58214C51.5315 2.78076 51.2809 3.23368 51.2809 3.62349Z" fill="black"/>
<path fill-rule="evenodd" clip-rule="evenodd" d="M54.2843 18.2601V20.068C54.572 20.0625 54.9785 19.9307 55.2922 19.862C55.6134 19.7915 56.0236 19.6745 56.3317 19.6467C56.3039 19.3757 56.1981 19.062 56.1443 18.7631C56.083 18.4253 56.0626 18.08 56.0088 17.7793C55.76 17.8721 55.3851 17.9371 55.1289 18.0132C54.8857 18.0856 54.4866 18.1728 54.2843 18.2619V18.2601Z" fill="black"/>
<path fill-rule="evenodd" clip-rule="evenodd" d="M35.722 21.6122C35.9243 21.7774 36.1266 21.9426 36.2881 22.0577C36.4496 22.1727 36.5721 22.2377 36.7652 22.2711C36.9582 22.3027 37.2237 22.3027 37.4817 22.2915C37.7416 22.2804 37.994 22.2581 38.2483 22.2359C38.1982 22.5366 38.1462 22.8373 37.6432 23.0062C37.1401 23.1751 36.1842 23.2141 35.6756 23.1009C35.1669 22.9876 35.1057 22.724 34.7233 22.7834C34.3409 22.841 33.6355 23.2215 33.0787 23.2791C32.5218 23.3366 32.1134 23.073 31.9074 22.8206C31.7013 22.5681 31.6976 22.3268 31.6976 22.1263C31.6976 21.9259 31.6995 21.7662 31.7032 21.6066C31.7645 21.6159 31.8239 21.627 31.8684 21.6122C31.913 21.5973 31.9408 21.5602 31.9668 21.5212C31.9686 21.5156 31.9705 21.5119 31.9724 21.5063C33.2216 21.5416 34.4709 21.5769 35.7201 21.6122H35.722Z" fill="black"/>
<path fill-rule="evenodd" clip-rule="evenodd" d="M36.2751 25.5029C36.0282 25.4045 35.7795 25.308 35.5326 25.2096C35.5604 25.024 35.5883 24.8365 35.8983 24.6045C36.2083 24.3706 36.8023 24.0922 38.4766 23.6207C40.1509 23.1511 42.9074 22.4902 44.6634 22.1116C46.4194 21.7348 47.1768 21.6419 47.5091 21.6716C47.8413 21.7013 47.7504 21.8536 47.6613 22.0058C47.5332 22.1654 47.4051 22.3232 47.2696 22.494C47.136 22.6629 46.9949 22.8429 46.8538 23.023C46.1002 23.2439 45.3484 23.4648 43.9618 23.8954C42.5752 24.3261 40.5574 24.9665 39.169 25.269C37.7824 25.5716 37.0269 25.5382 36.2732 25.5048L36.2751 25.5029Z" fill="black"/>
<path fill-rule="evenodd" clip-rule="evenodd" d="M44.6802 20.9182C44.5874 21.0222 44.4927 21.1261 44.4148 21.1855C44.335 21.2449 44.27 21.2598 44.1939 21.2765C44.1178 21.2932 44.0343 21.3118 43.9489 21.3303C43.9006 21.4955 43.8542 21.6607 43.9767 21.761C44.0992 21.8594 44.3925 21.8928 45.2315 21.6199C46.0706 21.3452 47.4534 20.766 48.1124 20.4412C48.7714 20.1163 48.7064 20.0495 48.6414 19.9808C48.6117 19.9901 48.582 19.9994 48.5783 19.9827C48.5746 19.966 48.595 19.9233 48.6099 19.888C48.6247 19.8528 48.6359 19.8212 48.647 19.7915C47.3662 20.1665 46.0854 20.5433 45.4246 20.7308C44.7638 20.9182 44.7211 20.9182 44.6802 20.9182Z" fill="black"/>
<path fill-rule="evenodd" clip-rule="evenodd" d="M51.2828 18.7929C51.2828 18.9544 51.2809 19.1177 51.2772 19.4704C51.2716 19.8231 51.2623 20.367 51.2531 20.9108C51.2623 20.9108 51.2735 20.9108 51.2828 20.909C51.3886 20.8941 51.4925 20.8793 51.5371 20.5359C51.5816 20.1925 51.5649 19.5205 51.5111 19.1753C51.4591 18.83 51.37 18.8096 51.2828 18.791V18.7929Z" fill="black"/>
<path fill-rule="evenodd" clip-rule="evenodd" d="M55.0139 19.9288C55.5504 19.823 56.0887 19.7172 56.6251 19.6132C57.7482 19.4183 58.873 19.2216 59.5023 19.1158C60.1316 19.01 60.2652 18.9932 60.4007 18.9765C60.2188 18.5348 60.0369 18.0948 59.9051 17.7514C59.7733 17.408 59.6935 17.163 59.6155 16.918C59.2907 16.9829 58.964 17.0479 58.6392 17.111C57.7946 17.3078 56.95 17.5064 56.1054 17.7032C56.0757 17.7236 56.0441 17.744 56.0107 17.7626L56.0163 17.7923C55.9328 17.8127 55.8511 17.8331 55.7675 17.8535L55.5708 17.9055C55.3258 17.9705 54.8747 18.0893 54.4236 18.2081C54.3605 18.2303 54.2955 18.2526 54.2324 18.2767C54.1823 18.3213 54.1322 18.3658 54.0895 18.6777C54.0468 18.9895 54.0097 19.5705 54.0115 19.8527C54.0134 20.1348 54.0561 20.1181 54.0988 20.1014C54.1935 20.0884 54.2881 20.0754 54.3717 20.0624C54.4552 20.0494 54.5276 20.0383 54.6334 20.0179C54.7392 19.9956 54.8766 19.9622 55.0158 19.9306L55.0139 19.9288Z" fill="black"/>
</g>
<defs>
<clipPath id="clip0_1233_3614">
<rect width="107.09" height="47.3366" fill="white" transform="translate(0.622314 0.319336)"/>
</clipPath>
</defs>
</svg>
