<svg width="71" height="33" viewBox="0 0 71 33" fill="none" xmlns="http://www.w3.org/2000/svg">
<g clip-path="url(#clip0_1233_3774)">
<path d="M19.2302 24.3503L23.9085 19.6719V14.9935L21.5685 12.6534L23.9085 10.3133V5.63493L19.2302 0.956543H0.513062V5.63493H16.8901L19.2302 7.97501L16.8901 10.3151H0.513062V24.352H19.2302V24.3503ZM5.19322 19.6719V14.9935H16.8918L19.2319 17.3336L16.8918 19.6736H5.19322V19.6719Z" fill="black"/>
<path d="M42.6258 5.63347L47.3041 0.955078H28.5888L23.9087 5.63347H42.6258Z" fill="black"/>
<path d="M42.6258 24.3504L47.3041 19.672V14.9919L42.6258 10.3135H23.9087L28.5888 14.9919H40.2857L42.6258 17.3319L40.2857 19.672H28.5888L23.9087 24.3504H42.6258Z" fill="black"/>
<path d="M66.0212 24.3506L70.6996 19.6722V5.63347L66.0212 0.955078H47.3041V5.63347H63.6811L66.0212 7.97355V17.3321L63.6811 19.6722H51.9842V10.3136H47.3041V24.3506H66.0212Z" fill="black"/>
<path d="M3.12874 28.9654H0.513153V32.2168H3.29476C4.10539 32.2168 4.50806 31.9042 4.50806 31.2896C4.50806 30.8817 4.31556 30.6097 3.94468 30.4878C4.22725 30.3395 4.37384 30.094 4.37384 29.7761C4.37384 29.1527 3.9747 28.9654 3.12874 28.9654ZM1.77238 29.7266H2.61834C2.91328 29.7266 3.0581 29.7355 3.0581 29.9545C3.0581 30.1646 2.91858 30.1876 2.61834 30.1876H1.77238V29.7266ZM1.77238 31.4062V30.8693H2.66426C3.00512 30.8693 3.157 30.9011 3.157 31.143C3.157 31.385 2.99628 31.408 2.66426 31.408H1.77238V31.4062ZM5.07851 32.2168H8.63013V31.3797H6.33774V30.9505H8.10737V30.154H6.33774V29.7637H8.52417V28.9672H5.08028V32.2186L5.07851 32.2168ZM9.89819 32.2168H11.1609V29.7884H12.3389V28.9637H8.72374V29.7884H9.89643V32.2168H9.89819ZM12.5544 30.5903C12.5544 31.7153 13.2891 32.3016 14.7408 32.3016C16.1926 32.3016 16.9255 31.7153 16.9255 30.5903C16.9255 29.4653 16.1908 28.8789 14.7408 28.8789C13.2891 28.8789 12.5544 29.4653 12.5544 30.5903ZM13.9072 30.5903C13.9072 30.0216 14.1986 29.7125 14.7408 29.7125C15.283 29.7125 15.5744 30.0216 15.5744 30.5903C15.5744 31.1589 15.283 31.4645 14.7408 31.4645C14.1986 31.4645 13.9072 31.1589 13.9072 30.5903ZM17.4871 32.2168H18.6739V30.313L20.0409 32.2168H21.452V28.9654H20.2334V30.8375L18.9742 28.9654H17.4871V32.2168ZM24.1524 31.226C24.1612 31.9113 24.8058 32.314 26.0421 32.314C27.5344 32.314 28.2497 31.9731 28.2497 31.1589C28.2497 30.622 27.8965 30.313 27.1794 30.2105L26.0332 30.0445C25.7065 30.0004 25.5493 29.9598 25.5493 29.8167C25.5493 29.6913 25.7065 29.6012 26.0068 29.6012C26.3971 29.6012 26.6072 29.709 26.639 29.9103H28.1031C28.0501 29.1844 27.3825 28.8807 26.0615 28.8807C24.7899 28.8807 24.1894 29.1809 24.1894 29.9244C24.1894 30.4702 24.5833 30.7987 25.3621 30.8923L26.3035 31.0088C26.6037 31.0441 26.7556 31.1307 26.7556 31.2684C26.7556 31.4256 26.5807 31.5016 26.2452 31.5016C25.9008 31.5016 25.6995 31.3991 25.6765 31.2278H24.1541L24.1524 31.226ZM29.622 32.2168H30.8847V29.7884H32.0627V28.9637H28.4493V29.7884H29.622V32.2168ZM33.7423 30.3713V29.7884H34.4452C34.8125 29.7884 34.9997 29.8238 34.9997 30.071C34.9997 30.3077 34.8213 30.3713 34.4752 30.3713H33.7405H33.7423ZM34.9432 28.9654H32.4671V32.2168H33.744V31.226H34.4964C34.8055 31.226 34.9255 31.3073 34.9538 31.5492C34.9856 31.823 34.9397 32.0596 35.0386 32.2168H36.4356V32.1674C36.2837 32.0914 36.2837 31.823 36.2607 31.3567C36.2431 30.9859 36.2024 30.8057 35.858 30.6627C36.1936 30.5337 36.3914 30.2229 36.3914 29.8379C36.3914 29.5253 36.2625 29.278 36.0205 29.1297C35.8139 29.0043 35.4554 28.9637 34.945 28.9637L34.9432 28.9654ZM36.7747 30.592C36.7747 31.717 37.5093 32.3034 38.9611 32.3034C40.4128 32.3034 41.1475 31.717 41.1475 30.592C41.1475 29.467 40.4128 28.8807 38.9611 28.8807C37.5093 28.8807 36.7747 29.467 36.7747 30.592ZM38.1275 30.592C38.1275 30.0233 38.4189 29.7143 38.9611 29.7143C39.5033 29.7143 39.7947 30.0233 39.7947 30.592C39.7947 31.1607 39.5033 31.4662 38.9611 31.4662C38.4189 31.4662 38.1275 31.1607 38.1275 30.592ZM42.4986 32.2186H43.7613V31.3002L45.2078 28.9672H43.7613L43.1397 30.3059L42.5533 28.9672H41.0751L42.4986 31.3002V32.2186Z" fill="black"/>
<path d="M47.5637 28.96V32.2166H49.6459C51.0129 32.2166 51.7158 31.6427 51.7158 30.5901C51.7158 29.5375 51.0076 28.96 49.6459 28.96H47.5637ZM48.8229 29.7671H49.4499C50.0769 29.7671 50.363 29.9825 50.363 30.56C50.363 31.1464 50.0716 31.353 49.4499 31.353H48.8229V29.7671ZM52.2863 32.2166H55.8379V31.3795H53.5455V30.9503H55.3151V30.1538H53.5455V29.7635H55.7319V28.967H52.288V32.2184L52.2863 32.2166ZM57.1059 32.2166H58.3687V29.7883H59.5467V28.9635H55.9315V29.7883H57.1042V32.2166H57.1059ZM59.1935 32.2166H60.541L60.6576 31.8934H62.0422L62.1499 32.2166H63.5116L62.1994 28.9653H60.601L59.1952 32.2166H59.1935ZM60.9578 31.0969L61.3693 29.9507L61.7596 31.0969H60.9578ZM63.7747 32.2166H67.0226V31.3248H65.0392V28.9653H63.7765V32.2166H63.7747ZM67.4517 32.2166H70.6996V31.3248H68.7163V28.9653H67.4535V32.2166H67.4517Z" fill="black"/>
</g>
<defs>
<clipPath id="clip0_1233_3774">
<rect width="70.1887" height="31.3606" fill="white" transform="translate(0.511963 0.955078)"/>
</clipPath>
</defs>
</svg>
