<svg width="91" height="28" viewBox="0 0 91 28" fill="none" xmlns="http://www.w3.org/2000/svg">
<g clip-path="url(#clip0_1233_3892)">
<path d="M90.852 21.0237C90.852 21.0167 90.8506 21.004 90.8506 20.997C90.8464 20.9225 90.8408 20.8423 90.8295 20.741C90.634 19.1797 89.6002 18.2444 89.1628 17.911C89.1726 17.8857 89.1824 17.8604 89.1923 17.8365C89.4708 17.1163 89.6114 16.3273 89.6086 15.5044C89.6114 14.5142 89.4005 13.5732 88.9855 12.7124C88.5931 11.8938 88.0474 11.1708 87.3722 10.5716C86.6957 9.96683 85.8953 9.49845 84.9937 9.17916C84.1357 8.87394 83.2144 8.71922 82.2552 8.71922C80.9176 8.71922 79.6573 9.00053 78.5124 9.55471C78.1874 9.71084 77.8766 9.88666 77.577 10.0779C77.5798 10.0287 77.584 9.9823 77.5868 9.93307C77.622 9.41687 77.6628 8.83174 77.6628 8.23396C77.6628 8.18895 77.6642 8.14254 77.6656 8.09753C77.6656 8.08346 77.667 8.06236 77.667 8.0483C77.6853 7.18889 77.7261 5.17612 75.8455 3.94398C75.7625 3.89053 75.6782 3.83849 75.591 3.79067C74.9636 3.43903 74.2407 3.25337 73.4853 3.25337C73.3461 3.25337 73.2026 3.25899 73.0578 3.27165C72.3446 3.33495 71.7454 3.47701 71.2264 3.70768C70.4852 4.03682 69.8804 4.55583 69.4809 5.20425C69.1771 5.69514 68.9703 6.25635 68.869 6.8682C68.8114 7.2114 68.7706 7.60523 68.7481 8.03986C68.7256 8.25647 68.7143 8.48995 68.7143 8.73329C68.7143 8.77267 68.7129 8.86128 68.6989 9.00897C68.696 9.0371 68.6932 9.08211 68.6918 9.11024C68.6904 9.13415 68.689 9.15806 68.689 9.18198C68.682 9.46469 68.6735 9.75585 68.6665 10.054C68.163 9.72772 67.6242 9.45625 67.049 9.24386C67.0377 9.23964 67.0279 9.23542 67.0166 9.23261C66.1403 8.91333 65.2205 8.75157 64.2781 8.75157C64.1388 8.75157 63.9982 8.75579 63.8547 8.76282C63.88 8.45057 63.9095 8.13972 63.9475 7.83169C63.9517 7.79934 63.9616 7.72479 63.9911 7.57851L64.0038 7.51662C64.0755 7.15514 64.0671 6.78381 63.9771 6.42654L63.9644 6.3745C63.8659 5.97504 63.6929 5.59949 63.4538 5.25629C63.2682 4.99046 63.0403 4.74431 62.7759 4.52489C62.7674 4.51786 62.759 4.50942 62.7491 4.50238C62.3595 4.18732 61.9643 3.96227 61.5451 3.81739C61.5409 3.81599 61.4776 3.79348 61.4509 3.78504C60.9783 3.6261 60.4719 3.55015 59.9051 3.54874C59.2933 3.54874 58.6856 3.66127 58.1047 3.87928C57.4014 4.14231 56.7826 4.5699 56.2692 5.1494C55.9372 5.52213 55.6756 5.95254 55.4927 6.43217C55.3493 6.80631 55.255 7.21281 55.21 7.6404C55.165 7.9639 55.1327 8.38306 55.1017 9.05257C55.0947 9.2087 55.0877 9.37045 55.0806 9.53783C54.345 9.12431 53.5306 8.85566 52.6501 8.74313C52.6135 8.73891 52.5531 8.73329 52.5179 8.72907C52.4813 8.72625 52.4462 8.72344 52.4096 8.72203C52.2999 8.71781 52.1902 8.715 52.0805 8.715C50.8568 8.715 49.6682 8.98928 48.5528 9.52939C48.3475 9.62926 48.1449 9.73475 47.948 9.84587C47.8636 9.7882 47.7778 9.73194 47.6892 9.67849C46.6807 9.05539 45.585 8.72485 44.4302 8.6939C44.3669 8.6925 44.3036 8.69109 44.2403 8.69109C43.3148 8.69109 42.4343 8.86269 41.6157 9.20307C40.9293 8.7361 40.1107 8.48433 39.2429 8.48433C38.2316 8.48433 37.2976 8.78955 36.5268 9.34936C36.5184 9.34373 36.5085 9.33951 36.5001 9.33388C36.4326 9.2945 36.3651 9.25652 36.2962 9.22136C36.2933 9.21995 36.2919 9.21855 36.2891 9.21714C36.2849 9.21433 36.2807 9.21433 36.2765 9.21151C35.6984 8.92317 35.057 8.76986 34.3706 8.76986C33.7756 8.76986 33.1638 8.91332 32.559 9.19604C32.099 9.40984 31.6658 9.68412 31.2734 10.0104C30.9541 10.2763 30.67 10.5745 30.4224 10.9008C30.1327 10.4282 29.7698 10.0189 29.3365 9.68974C29.3253 9.6813 29.314 9.67286 29.3028 9.66442C29.2043 9.59269 29.1073 9.52939 29.0088 9.46891C28.968 9.44359 28.9258 9.41968 28.885 9.39437C28.8696 9.38452 28.8527 9.37467 28.8372 9.36483C28.8274 9.3592 28.8161 9.35639 28.8063 9.35076C28.494 9.17776 28.1607 9.0357 27.8006 8.93302C27.4236 8.82893 27.0382 8.77689 26.6571 8.77689C26.4362 8.77689 26.214 8.79517 25.9974 8.83034C25.1085 8.96959 24.3559 9.26215 23.7596 9.7024C23.1407 10.1609 22.6737 10.7348 22.3699 11.4142C22.3685 11.417 22.3685 11.4184 22.3671 11.4212C22.0197 11.213 21.6526 11.0246 21.2672 10.86C21.6948 9.9598 21.9114 9.0357 21.9114 8.10597C21.9114 7.2536 21.7454 6.42795 21.4205 5.65997C20.9704 4.58537 20.2123 3.62892 19.2263 2.8947C19.1981 2.8736 19.1658 2.85109 19.1376 2.8314C18.0757 2.09859 16.904 1.59364 15.5552 1.28701C14.4834 1.04368 13.33 0.931152 11.9235 0.931152C9.47887 0.932559 6.85002 1.71601 4.10866 3.2604C2.2281 4.32235 0.21814 6.38575 0.21814 8.99209C0.21814 10.0667 0.566964 11.1146 1.20413 11.943C1.5614 12.4072 1.99602 12.7884 2.49394 13.0739C2.42642 15.8139 2.32375 19.9955 2.27311 22.0252C2.2717 22.0814 2.2717 22.1363 2.2717 22.1926C2.2717 23.6005 2.66132 24.8509 3.40116 25.8074C3.71482 26.2139 4.08193 26.5557 4.49546 26.8271C4.63471 26.9186 4.77677 27.003 4.92446 27.0775C5.52505 27.3855 6.2002 27.5473 6.88378 27.5473C7.86977 27.5473 8.7995 27.2716 9.56888 26.7512C9.63218 26.709 9.69407 26.664 9.75596 26.6176C11.3383 27.3138 13.1823 27.6697 15.2471 27.6767H15.2612H15.2654C16.5876 27.6739 18.0476 27.4052 19.3782 26.92C20.9324 26.3503 22.2574 25.5205 23.3264 24.4599C23.4403 24.6301 23.5584 24.7961 23.685 24.9536C23.6878 24.9578 23.6921 24.9621 23.6949 24.9663C23.7314 25.0127 23.7736 25.0549 23.8102 25.1013C23.8904 25.1984 23.972 25.2926 24.0549 25.3854C24.114 25.4501 24.1731 25.5134 24.2336 25.5753C24.3489 25.6935 24.4657 25.8074 24.5866 25.9157C24.6077 25.934 24.626 25.9551 24.6471 25.9748C24.7892 26.1 24.9383 26.2181 25.0902 26.3306C26.131 27.0972 27.3913 27.5332 28.8428 27.6303C28.8949 27.6331 28.9483 27.6359 29.0018 27.6359C29.0018 27.6359 29.7543 27.6373 29.7571 27.6373C30.2269 27.6373 30.722 27.5923 31.2284 27.5051C31.5941 27.4418 31.964 27.356 32.3409 27.2449C32.4577 27.2941 32.5758 27.3377 32.6968 27.3757C33.0667 27.4939 33.4409 27.567 33.8066 27.5909C34.033 27.6064 34.1891 27.6106 34.2749 27.6106C35.2637 27.6106 36.012 27.3715 36.5732 27.0508C36.6309 27.0874 36.6886 27.1253 36.7477 27.1591C37.3426 27.4882 38.0276 27.6626 38.7576 27.6626C39.4482 27.6626 40.1178 27.4967 40.7437 27.1703C41.2669 26.8989 41.7367 26.5388 42.1333 26.1042C42.3626 25.8538 42.5623 25.5809 42.7382 25.2912C42.8535 25.5781 42.9899 25.8398 43.1545 26.0859C43.4977 26.588 43.9267 26.9917 44.4246 27.2871C45.0646 27.6697 45.8185 27.8708 46.6441 27.8708C47.3643 27.8708 48.0493 27.6992 48.6879 27.356C49.2083 27.0747 49.6654 26.7076 50.0522 26.2603C50.2899 25.9846 50.4939 25.6836 50.6669 25.3629C50.9454 25.9241 51.3181 26.4066 51.7809 26.8004C51.8821 26.8862 51.989 26.9664 52.0973 27.0409C52.7795 27.515 53.6052 27.7639 54.5068 27.7639C54.8936 27.7639 55.2916 27.7076 55.7051 27.5979C56.0526 27.5079 56.3958 27.3771 56.7333 27.2111C56.9049 27.3082 57.0807 27.3968 57.2664 27.4657C57.829 27.6739 58.4634 27.7906 59.0513 27.7934H59.0626C59.2328 27.7934 59.403 27.7836 59.576 27.7625C60.012 27.7091 60.434 27.5811 60.8278 27.3827C60.9234 27.4095 61.0191 27.432 61.1161 27.4545C61.8321 27.6106 62.6197 27.688 63.5213 27.688C64.8013 27.688 66.0194 27.4292 67.1432 26.9186C67.9112 26.5697 68.6159 26.1225 69.2502 25.588C69.419 25.8749 69.6159 26.1379 69.8424 26.37C69.8466 26.3742 69.8494 26.3771 69.8536 26.3813C69.9605 26.4896 70.0702 26.5937 70.187 26.6893C70.2798 26.7653 70.3769 26.8356 70.4767 26.9017C71.1448 27.3504 71.9508 27.5951 72.7793 27.5951C72.9312 27.5951 73.0873 27.5867 73.2448 27.5684C74.4249 27.4334 75.591 26.7554 76.3786 25.7976C76.6909 26.0535 77.0214 26.287 77.3688 26.4938C77.75 26.7217 78.1509 26.92 78.5616 27.0831C79.1144 27.3068 79.7023 27.4742 80.3085 27.5839C80.8908 27.688 81.5055 27.7414 82.137 27.7414C83.1793 27.7414 84.2314 27.5656 85.2624 27.2182C86.2371 26.8904 87.1303 26.453 87.9236 25.9157C88.3399 25.6316 88.7211 25.3221 89.053 24.9986C89.4187 24.6456 89.7408 24.263 90.0039 23.872C90.3766 23.3262 90.6312 22.7467 90.7592 22.1504C90.7648 22.1279 90.7929 21.9816 90.7958 21.9647C90.838 21.7242 90.8591 21.4766 90.8591 21.2249C90.8591 21.1588 90.8576 21.0926 90.8548 21.0237H90.852Z" fill="black"/>
<path d="M34.3637 11.2498C34.1288 11.2498 33.877 11.3145 33.5943 11.4453C33.3313 11.5677 33.0809 11.7252 32.8545 11.9151C32.6238 12.1078 32.4283 12.3272 32.275 12.5664C32.1104 12.8252 32.0246 13.0882 32.0232 13.3484C32.0063 13.6691 31.9937 14.0179 31.9824 14.4469C31.974 14.8253 31.9697 15.2135 31.9697 15.5933C31.9543 16.229 31.9318 16.8732 31.9036 17.561C31.8797 18.1926 31.8319 18.8044 31.7616 19.3797L31.7602 19.4134C31.7602 19.7749 31.6969 20.0872 31.5647 20.3657C31.4367 20.6385 31.2608 20.8636 31.0428 21.0366C30.8178 21.2152 30.573 21.3404 30.2931 21.4178C30.0217 21.4937 29.7361 21.5092 29.445 21.4642L29.4197 21.4614C28.9921 21.4333 28.7164 21.2138 28.5532 20.7708C28.3648 20.2532 28.2705 19.4275 28.2705 18.3191C28.2705 18.0435 28.2832 17.734 28.3085 17.4007C28.3352 17.0533 28.3648 16.6805 28.4013 16.2754C28.4365 15.7634 28.4674 15.2388 28.4928 14.7142C28.5195 14.174 28.5321 13.6114 28.5321 13.0432C28.5321 12.752 28.4632 12.482 28.3268 12.2386C28.1932 12.0065 28.0244 11.811 27.8204 11.6577C27.6193 11.5072 27.39 11.3961 27.1397 11.3258C26.8808 11.254 26.6249 11.24 26.3829 11.2808C25.8878 11.3567 25.4996 11.4974 25.2296 11.6971C24.9581 11.8982 24.757 12.1416 24.6318 12.4215C24.5122 12.6901 24.4475 12.9855 24.4377 13.2978C24.4292 13.5805 24.425 13.8632 24.425 14.1417V14.8309C24.3898 15.1699 24.3716 15.5004 24.3716 15.8113C24.3716 16.1193 24.3631 16.4217 24.3476 16.7101V16.7255C24.3476 16.8127 24.3434 16.9028 24.335 17.0012C24.3265 17.1067 24.3209 17.2122 24.3209 17.3247V18.2643C24.3209 18.8382 24.3434 19.4331 24.387 20.0337C24.432 20.6639 24.546 21.2504 24.7288 21.7793C24.9539 22.3981 25.2549 22.9481 25.6248 23.4151L25.629 23.4207C25.8245 23.6725 26.0439 23.9046 26.2831 24.1141C26.9807 24.7274 27.8922 25.0762 28.9935 25.1494L29.7446 25.1508C30.0709 25.1508 30.4239 25.1184 30.7953 25.0551C31.168 24.9904 31.5422 24.8962 31.9107 24.771C32.1751 24.6796 32.4227 24.5614 32.6491 24.4165C32.711 24.5206 32.7869 24.6121 32.877 24.6894C33.0458 24.8371 33.2328 24.944 33.4326 25.0059C33.6126 25.0636 33.7884 25.0987 33.9586 25.11C34.1063 25.1184 34.2062 25.1226 34.2624 25.1226C34.8996 25.1226 35.3666 24.9581 35.6493 24.6346C35.9222 24.3195 36.0417 23.9116 36.0051 23.4235V22.7554C36.0051 22.5979 35.9953 22.4305 35.977 22.2533C35.9587 22.0957 35.932 21.9579 35.8968 21.8397C35.8814 21.6513 35.8687 21.4558 35.8617 21.2406C35.8518 21.0352 35.8476 20.7792 35.8476 20.4571V19.7524C35.8476 18.7045 35.8603 17.6257 35.887 16.5469C35.9137 15.4934 35.9714 14.4272 36.0572 13.3681C36.0966 12.6297 35.9461 12.0839 35.6099 11.7463C35.278 11.4144 34.8602 11.2456 34.3679 11.2456L34.3637 11.2498Z" fill="#FEFEFE"/>
<path d="M56.5774 23.3827C56.5675 23.2238 56.5563 23.0663 56.545 22.9087C56.5155 22.5135 56.4873 22.1422 56.493 21.7596C56.5014 21.1744 56.4761 20.5851 56.4536 20.014C56.4339 19.526 56.4128 19.021 56.4128 18.5189C56.3959 17.9056 56.3593 17.2811 56.3073 16.6622C56.2539 16.0377 56.1737 15.4428 56.0682 14.8956C55.9585 14.3316 55.8009 13.8491 55.5914 13.4511C55.2425 12.8463 54.791 12.3385 54.2481 11.9418C53.6982 11.541 53.054 11.292 52.331 11.1992L52.3057 11.1978C51.3745 11.1598 50.4743 11.3511 49.6276 11.7604C48.9131 12.1064 48.2661 12.541 47.6992 13.053C47.3616 12.5439 46.92 12.1191 46.3827 11.7871C45.7511 11.3975 45.0718 11.1893 44.3629 11.1711C43.5879 11.1514 42.8691 11.3131 42.2291 11.6465C41.7861 11.8786 41.3683 12.1528 40.9829 12.4679C40.9182 12.0867 40.7452 11.7506 40.4696 11.465C40.146 11.1317 39.7311 10.9629 39.2374 10.9629C38.5623 10.9629 38.0109 11.2119 37.6002 11.7027C37.2021 12.1782 36.9996 12.7351 36.9996 13.3568V16.8563C36.9996 17.4541 36.9743 18.0702 36.9222 18.6849C36.8871 19.0646 36.8575 19.4767 36.8294 19.9479C36.8027 20.4093 36.7985 20.8495 36.8153 21.2434V21.557C36.8153 21.8594 36.8238 22.2054 36.8421 22.588C36.8603 22.9917 36.925 23.3799 37.0362 23.7414C37.1529 24.1212 37.34 24.4517 37.5946 24.7246C37.8745 25.027 38.2599 25.1789 38.7395 25.1789C39.0264 25.1789 39.312 25.1072 39.5862 24.9651C39.8493 24.8287 40.0856 24.6472 40.2909 24.4222C40.4935 24.1999 40.6566 23.9496 40.772 23.6781C40.8915 23.3982 40.9436 23.1127 40.9253 22.8271C40.9253 22.6879 40.9211 22.5416 40.9112 22.3883C40.9014 22.2336 40.8873 22.0901 40.8718 21.9748C40.8535 21.7821 40.8367 21.6063 40.8198 21.4473C40.8043 21.3024 40.7959 21.1379 40.7959 20.9564C40.7959 20.5626 40.8128 20.1533 40.8479 19.7384C40.8803 19.3375 40.9225 18.9197 40.9717 18.4992H40.9745C41.0111 18.2966 41.035 18.0828 41.0448 17.8606C41.0533 17.6567 41.0659 17.4583 41.0828 17.2769C41.1138 16.9646 41.2094 16.6524 41.3669 16.3444C41.5259 16.0335 41.7312 15.755 41.9788 15.5173C42.2249 15.2782 42.5091 15.0799 42.8199 14.928C43.1195 14.7817 43.4261 14.7085 43.7299 14.7085C43.9156 14.7085 44.0605 14.7634 44.1716 14.8745C44.3052 15.0081 44.4093 15.191 44.4824 15.416C44.5626 15.665 44.6161 15.9435 44.64 16.2417C44.6653 16.5553 44.678 16.8676 44.678 17.1728C44.678 17.3388 44.6737 17.4907 44.6653 17.6243C44.6569 17.765 44.6512 17.9112 44.6512 18.0603V19.1828C44.6512 19.367 44.647 19.5738 44.6386 19.7988C44.6301 20.0225 44.6259 20.263 44.6259 20.5148C44.6259 20.9086 44.6301 21.3109 44.6386 21.7089C44.647 22.1253 44.6737 22.5247 44.7187 22.8975C44.7623 23.2702 44.8214 23.6148 44.8932 23.92C44.9705 24.2506 45.069 24.5023 45.1956 24.6922C45.5106 25.1536 45.9931 25.3885 46.6274 25.3885C46.9326 25.3885 47.2238 25.3153 47.4911 25.1719C47.747 25.034 47.9707 24.8554 48.1578 24.6388C48.342 24.425 48.4897 24.1845 48.5966 23.9214C48.7049 23.6528 48.7612 23.3771 48.7612 23.0986L48.7598 23.0705C48.7429 22.9073 48.7344 22.7413 48.7344 22.5768C48.7344 22.3981 48.726 22.204 48.7077 22.0043C48.6726 21.5922 48.6472 21.1576 48.6304 20.7117C48.6135 20.2672 48.605 19.8143 48.605 19.3642C48.605 18.8508 48.6261 18.3417 48.6697 17.8465C48.7119 17.3655 48.7907 16.9379 48.9046 16.5792C48.9834 16.3444 49.103 16.1095 49.2619 15.8788C49.4237 15.6453 49.6065 15.4329 49.809 15.2472C50.0074 15.0658 50.2268 14.9125 50.4631 14.7957C50.6839 14.686 50.9062 14.6298 51.1214 14.6298C51.4111 14.6298 51.6263 14.7085 51.7824 14.8703C51.9611 15.0574 52.1073 15.3162 52.2157 15.6397C52.3296 15.9815 52.4041 16.3894 52.4365 16.8507C52.4702 17.3318 52.4885 17.8437 52.4885 18.3712V19.1279C52.4885 19.36 52.4801 19.5991 52.4632 19.8396V19.8593C52.4632 20.0773 52.459 20.3024 52.4505 20.5274C52.4421 20.7497 52.4365 20.9733 52.4365 21.1913C52.4365 21.7216 52.459 22.2308 52.5026 22.7048C52.5476 23.1957 52.6362 23.6275 52.7656 23.9875C52.9035 24.3715 53.1116 24.6838 53.3831 24.9159C53.6686 25.1592 54.0414 25.283 54.4914 25.283C54.656 25.283 54.8459 25.2548 55.0709 25.1958C55.2918 25.1381 55.5112 25.0509 55.7222 24.9356C55.9388 24.8174 56.1287 24.6725 56.2876 24.5037C56.5141 24.2632 56.6111 23.9257 56.5858 23.4685L56.5816 23.3827H56.5774Z" fill="#FEFEFE"/>
<path d="M59.8412 25.083C59.8412 25.083 59.8412 25.083 59.8395 25.083C59.8395 25.083 59.8395 25.083 59.8378 25.0847L59.8395 25.083H59.8412Z" fill="#FEFEFE"/>
<path d="M66.125 19.7298C65.9858 20.1195 65.7875 20.4598 65.5272 20.7608C65.267 21.0604 64.9787 21.277 64.6538 21.4233C64.3289 21.5682 63.9674 21.6427 63.5567 21.6442C63.2922 21.6442 63.0306 21.5724 62.7704 21.4543C62.5102 21.3361 62.2556 21.1716 62.0151 20.9985C61.7971 20.8424 61.617 20.6582 61.5242 20.4528C61.4637 20.3206 61.4314 20.1687 61.4117 19.9957C61.3906 19.8241 61.3807 19.6328 61.3512 19.4331C61.2978 19.0688 61.2767 18.6974 61.2767 18.3205V18.1643C61.2767 17.7761 61.302 17.4161 61.3512 17.0827C61.3779 16.9013 61.4131 16.717 61.4511 16.5328C61.4848 16.3696 61.5341 16.236 61.603 16.1108C61.6719 15.9856 61.7605 15.8689 61.8787 15.7465C62.1543 15.4596 62.4708 15.205 62.8126 15.0235C63.1544 14.8421 63.5173 14.7352 63.8971 14.7352C64.4006 14.7366 64.8591 14.873 65.298 15.16C65.5118 15.3006 65.6876 15.4975 65.8142 15.731C65.9548 15.987 66.0519 16.3274 66.1518 16.6551C66.3276 17.2276 66.3599 17.7916 66.3599 18.4203C66.343 18.9084 66.2629 19.3459 66.125 19.7341V19.7298ZM69.5725 14.8941C69.2377 14.098 68.782 13.4116 68.2053 12.8448C67.63 12.2779 66.9535 11.8503 66.1869 11.5676C65.5751 11.3426 64.9379 11.2287 64.281 11.2287C64.1123 11.2287 63.9407 11.2357 63.7691 11.2512H63.7677C63.1811 11.306 62.6354 11.4481 62.1346 11.6802C61.8393 11.8166 61.5805 11.9516 61.3484 12.0881C61.3188 11.5901 61.3034 11.088 61.3034 10.583C61.3034 9.56189 61.3653 8.53792 61.4848 7.53927C61.5003 7.40987 61.5256 7.26077 61.5594 7.09058L61.572 7.02869L61.5566 6.96821C61.5298 6.86272 61.4834 6.76426 61.4201 6.67424C61.3568 6.58422 61.2795 6.50405 61.1909 6.4295L61.188 6.42809C61.0277 6.29729 60.8716 6.20164 60.7014 6.14819V6.14678C60.6972 6.14538 60.6929 6.14397 60.6887 6.14256C60.6859 6.14116 60.6845 6.14116 60.6817 6.13975C60.4538 6.05958 60.1936 6.02441 59.901 6.02441C59.5874 6.02441 59.2737 6.08208 58.9671 6.19883C58.6436 6.31979 58.3553 6.52374 58.1119 6.79802C57.9797 6.94711 57.8756 7.12152 57.8011 7.31422C57.7279 7.50411 57.6843 7.71087 57.6646 7.93592C57.6267 8.18628 57.5985 8.58715 57.5718 9.16383C57.5451 9.73911 57.5226 10.4086 57.5057 11.1682C57.4888 11.9263 57.4747 12.7421 57.4663 13.6142C57.4579 14.4848 57.4536 15.34 57.4536 16.1755C57.4536 16.5187 57.4438 16.9378 57.4269 17.4329V17.4315C57.4086 17.9252 57.3833 18.44 57.3496 18.9773V18.9816V18.9787C57.3144 19.5892 57.2835 20.1954 57.2567 20.7974C57.2342 21.3024 57.2145 21.8101 57.2145 22.3207C57.2145 22.5162 57.2173 22.7131 57.2244 22.91C57.23 23.069 57.2286 23.2589 57.2342 23.46C57.2441 23.7624 57.2694 24.0901 57.3861 24.3982C57.4452 24.5515 57.5282 24.702 57.6492 24.83C57.7687 24.9594 57.9234 25.0663 58.1091 25.1338C58.3834 25.2351 58.7224 25.3054 59.0431 25.3054C59.1148 25.3054 59.1865 25.3012 59.2554 25.2927C59.472 25.266 59.6676 25.1844 59.8378 25.0775C60.0051 24.9735 60.1542 24.8384 60.285 24.6795L60.2864 24.6781C60.3329 24.6204 60.3737 24.5585 60.4102 24.4966C60.783 24.7498 61.1894 24.927 61.6269 25.0241C62.167 25.1422 62.7901 25.1985 63.5032 25.1999C64.4259 25.1999 65.2952 25.0185 66.0997 24.6528C66.8972 24.2899 67.5935 23.7934 68.1842 23.1674C68.7764 22.5401 69.2391 21.7975 69.5725 20.9493C69.9129 20.0843 70.0549 19.1644 70.0817 18.2558C70.0859 18.1151 70.0873 17.9745 70.0873 17.8324C70.0873 17.0743 70.0226 16.3035 69.8046 15.5552C69.7385 15.3302 69.6611 15.1065 69.5697 14.8899L69.5725 14.8941Z" fill="#FEFEFE"/>
<path d="M74.47 6.00733C74.1395 5.79072 73.7386 5.7007 73.2745 5.74149C72.8384 5.77947 72.4981 5.85542 72.2322 5.97357C71.9453 6.10016 71.7287 6.2816 71.5866 6.51228C71.4544 6.72607 71.3616 6.98347 71.3137 7.27885C71.2687 7.5475 71.2364 7.87101 71.2195 8.24093C71.2012 8.38721 71.1928 8.55318 71.1928 8.73463C71.1928 8.8795 71.1843 9.04688 71.1675 9.23255L71.1661 9.24943C71.1492 9.89363 71.1309 10.5772 71.114 11.3002C71.0957 12.0231 71.0789 12.7053 71.062 13.3467C71.0268 14.3904 71.0001 15.434 70.9832 16.4453C70.9663 17.4524 70.9565 18.4862 70.9565 19.5186V20.3288C70.9565 21.0982 70.9649 21.7733 70.9832 22.3346C71.0015 22.9183 71.0606 23.4092 71.1618 23.7932C71.273 24.2165 71.4671 24.5414 71.7399 24.7623C72.0142 24.9845 72.394 25.1111 72.7667 25.1111C72.8286 25.1111 72.8891 25.1083 72.9496 25.1012C73.6177 25.0239 74.3927 24.4627 74.7148 23.8255L74.7176 23.8185C75.0524 23.1447 75.0073 22.4091 74.9637 21.6988C74.9497 21.4667 74.9356 21.2473 74.9356 21.0349V18.61C74.9356 16.804 74.9497 14.8897 74.9764 12.9219C74.9876 12.13 75.013 11.3297 75.0538 10.5406C75.0664 10.2832 75.0847 10.0244 75.103 9.76704C75.1382 9.26349 75.1733 8.74307 75.1733 8.22827C75.1733 8.15232 75.1761 8.07496 75.1775 7.9976C75.193 7.32808 75.2113 6.49399 74.47 6.00873V6.00733Z" fill="#FEFEFE"/>
<path d="M17.9493 18.5582C17.8762 19.0265 17.6174 19.5568 17.1546 19.9633C16.6904 20.3698 16.0223 20.6638 15.0884 20.6652C13.3006 20.6638 11.9996 20.194 10.8462 19.637C10.7013 19.5667 10.5593 19.4963 10.4243 19.4246L10.4214 19.4232C10.0881 19.253 9.88554 18.9182 9.88554 18.5469V17.7663C9.88554 17.461 9.98681 17.1854 10.1598 16.9856C10.2906 16.8351 10.458 16.7198 10.669 16.641C10.7942 16.5946 11.2963 16.4174 11.9968 16.2528C12.6972 16.0883 13.596 15.9363 14.5103 15.9363C15.274 15.9363 16.0476 16.0418 16.727 16.3231C17.1405 16.4947 17.4486 16.7451 17.6581 17.0546C17.8663 17.364 17.9802 17.7339 17.9802 18.1601C17.9802 18.2881 17.9704 18.4203 17.9479 18.5582H17.9493ZM9.81522 12.766C9.74629 12.7547 9.683 12.7294 9.62393 12.6872C9.51562 12.6084 9.45092 12.4903 9.44248 12.3567V12.3553L9.31448 10.2131C9.31448 10.0513 9.35387 9.86005 9.42279 9.70814C9.45655 9.63078 9.49733 9.56467 9.53953 9.51544C9.58032 9.46621 9.62111 9.43527 9.65628 9.41839H9.65768C10.0628 9.21866 10.5621 8.98518 11.0839 8.80373C11.6058 8.62088 12.1515 8.49288 12.6353 8.49429C13.0109 8.49429 13.3457 8.56884 13.6242 8.74044C13.8126 8.85718 13.9322 8.99643 14.0081 9.13568C14.0841 9.27492 14.1122 9.41699 14.1122 9.52388V9.5267V9.52951C14.1066 9.94726 14.0208 10.2975 13.8801 10.5999C13.7282 10.9262 13.5102 11.1977 13.2472 11.4312C12.852 11.78 12.3498 12.0374 11.8435 12.2287C11.3357 12.4214 10.8251 12.548 10.4116 12.6506H10.413C10.2639 12.6872 10.1261 12.721 10.0009 12.7561C9.95868 12.7674 9.91649 12.773 9.88132 12.773C9.86304 12.773 9.84053 12.7716 9.81662 12.7674L9.81522 12.766ZM22.8905 15.271C22.477 14.6226 21.9495 14.1191 21.3771 13.7309C20.5177 13.1486 19.5528 12.8237 18.6751 12.6408C17.9549 12.4917 17.2952 12.4397 16.7875 12.4242C17.1054 12.1724 17.4823 11.8461 17.8537 11.4523C18.2517 11.0303 18.6413 10.5324 18.9367 9.97117C19.2307 9.40995 19.429 8.78123 19.429 8.10749C19.429 7.58847 19.3277 7.08493 19.1294 6.61654C18.8509 5.94984 18.3769 5.35346 17.7327 4.87664L17.7285 4.87242L17.7242 4.86961C16.8845 4.29011 15.9717 3.923 15.0026 3.70358C14.0321 3.48416 13.0039 3.4082 11.9208 3.4082C9.49593 3.40961 7.13714 4.3956 5.32269 5.41816C4.41547 5.93015 2.69244 7.26215 2.69244 8.99221C2.69244 9.51122 2.85138 10.0246 3.16364 10.4311C3.31977 10.6337 3.51528 10.8095 3.74736 10.9389C3.97944 11.0683 4.59551 11.2216 5.01747 11.0486C4.97106 12.9376 4.81071 19.3979 4.74601 22.0675C4.7446 22.1097 4.7446 22.1505 4.7446 22.1927C4.7446 23.0844 4.97246 23.7947 5.35645 24.2927C5.54915 24.5416 5.77982 24.7343 6.03581 24.8665C6.29181 24.9973 6.57312 25.0649 6.85724 25.0649C7.39314 25.0663 7.83057 24.9186 8.16393 24.6921C8.41429 24.5219 8.60839 24.3124 8.75468 24.0957C8.93331 23.8327 9.04443 23.5627 9.11616 23.332C9.30182 23.5078 9.81522 23.9396 10.7309 24.3447C11.7267 24.785 13.198 25.1886 15.2276 25.1943H15.229H15.2417C16.1827 25.1943 17.3417 25.0142 18.5063 24.5894C19.6695 24.1633 20.8369 23.4895 21.7709 22.4895C22.0846 22.1533 22.3884 21.7285 22.6556 21.239C23.1901 20.2643 23.5868 19.0434 23.5882 17.8057C23.5882 16.9364 23.3884 16.0559 22.8877 15.2739L22.8905 15.271Z" fill="#FEFEFE"/>
<path d="M79.4929 16.9913C79.5688 16.6636 79.6729 16.3415 79.8121 16.0433C80.0048 15.6382 80.2594 15.2782 80.5956 14.9912C80.9669 14.6747 81.4353 14.5017 81.9037 14.5017C82.1653 14.5017 82.4283 14.5566 82.6731 14.6691C82.8601 14.7521 83.0317 14.8787 83.1471 15.0165C83.2638 15.1558 83.3243 15.3007 83.3243 15.4455C83.3243 15.5327 83.3032 15.6256 83.2497 15.7325C83.1738 15.8773 83.0683 16.0236 82.9501 16.1573C82.7926 16.3345 82.6098 16.4442 82.3875 16.5272C82.1667 16.6102 81.9121 16.658 81.6378 16.7114C81.1877 16.7972 80.732 16.8662 80.2749 16.9238C80.2721 16.9238 80.2439 16.9266 80.206 16.9294C80.0766 16.9421 79.8037 16.9646 79.566 16.9843C79.5407 16.9871 79.5154 16.9885 79.4914 16.9913H79.4929ZM88.3654 21.1167C88.364 21.0928 88.3626 21.0675 88.3597 21.0436C88.2725 20.353 87.738 19.9395 87.6283 19.8621C87.6171 19.8537 87.6101 19.8494 87.6101 19.8494C87.4033 19.7243 87.1782 19.6328 86.9349 19.6131C86.7042 19.5935 86.4665 19.675 86.2612 19.7749C86.0544 19.8762 85.8659 20.014 85.7 20.173C85.6873 20.1856 85.6732 20.1983 85.6606 20.2109L85.6521 20.2194C85.2485 20.6554 84.797 21.0422 84.2906 21.377C83.8278 21.6864 83.209 21.8538 82.4086 21.8538C81.8235 21.8524 81.32 21.7244 80.8755 21.4712C80.4324 21.218 80.1117 20.8804 79.8895 20.4388C79.8515 20.3628 79.8206 20.2953 79.7924 20.232C79.9458 20.225 80.1159 20.2109 80.2777 20.1969C80.4001 20.187 80.5154 20.1758 80.6054 20.1673C80.6954 20.1589 80.7658 20.1519 80.7841 20.1504C81.7039 20.0801 82.6238 19.8551 83.4832 19.5724C84.4242 19.2615 85.3708 18.8438 86.1191 18.0983C86.4539 17.7678 86.7084 17.3795 86.8786 16.9435C87.0474 16.5075 87.129 16.0236 87.1276 15.499C87.129 14.8871 87.0024 14.3104 86.7478 13.7844C86.4975 13.264 86.1529 12.8054 85.7154 12.4172C85.278 12.0248 84.7562 11.7238 84.1598 11.5142C83.5634 11.3018 82.9234 11.1978 82.2511 11.1978C81.2918 11.1978 80.3973 11.3947 79.5843 11.7871C78.7769 12.1767 78.0835 12.7042 77.511 13.3695C76.94 14.0334 76.4913 14.8112 76.1678 15.7015C75.8414 16.5961 75.6797 17.5483 75.6797 18.554C75.6797 19.5555 75.8274 20.4669 76.1284 21.2869C76.4266 22.1027 76.8598 22.813 77.428 23.4066C77.9963 24.0016 78.6785 24.4615 79.4718 24.778C79.8698 24.9383 80.289 25.0579 80.7306 25.1381C81.1723 25.2168 81.6378 25.2562 82.1217 25.2562C82.9009 25.2562 83.6802 25.124 84.4566 24.8624C85.2274 24.6036 85.9109 24.2674 86.5101 23.8623C86.8097 23.657 87.0798 23.4404 87.3175 23.2083C87.558 22.9762 87.7662 22.7301 87.942 22.4698C88.1305 22.1942 88.2599 21.91 88.3232 21.6203C88.3232 21.6147 88.3246 21.6076 88.326 21.602C88.3316 21.5795 88.3358 21.5556 88.3401 21.5331C88.3583 21.4304 88.3668 21.3263 88.3668 21.2222V21.2166C88.3668 21.1829 88.3654 21.1491 88.364 21.1153L88.3654 21.1167Z" fill="#FEFEFE"/>
<path d="M27.8317 20.0097C27.6446 19.4921 27.549 18.6679 27.549 17.5595C27.549 17.2838 27.563 16.9744 27.5884 16.641C27.6151 16.2936 27.6446 15.9223 27.6798 15.5158C27.715 15.0038 27.7459 14.4792 27.7698 13.9545C27.7965 13.4144 27.8092 12.8532 27.8092 12.2836C27.8092 12.0163 27.7501 11.7659 27.6334 11.5381C27.7023 11.5761 27.767 11.6183 27.8303 11.6647C28.0342 11.8194 28.203 12.0149 28.3366 12.2456C28.4731 12.4903 28.542 12.759 28.542 13.0501C28.542 13.6198 28.5293 14.181 28.5026 14.7211C28.4773 15.2458 28.4464 15.769 28.4126 16.281C28.376 16.6875 28.3465 17.0588 28.3212 17.4062C28.2959 17.7396 28.2818 18.049 28.2818 18.3247C28.2818 19.3669 28.3676 20.156 28.5336 20.6778C28.1988 20.6075 27.9738 20.3937 27.8331 20.0083L27.8317 20.0097Z" fill="#E9E1ED"/>
<path d="M35.8532 19.7622V20.4669C35.8532 20.789 35.8589 21.045 35.8673 21.2503C35.8757 21.4655 35.8884 21.6611 35.9039 21.8481C35.939 21.9649 35.9658 22.1041 35.9826 22.2616C36.0023 22.4375 36.0122 22.6063 36.0122 22.7638V23.4319C36.0487 23.9214 35.9292 24.3293 35.6563 24.6443C35.3736 24.9678 34.9066 25.1324 34.2681 25.1324C34.2118 25.1324 34.1119 25.1282 33.9656 25.1184C33.7955 25.1071 33.6196 25.0719 33.4396 25.0143C33.2399 24.9524 33.0514 24.8455 32.8826 24.6978C32.7926 24.619 32.718 24.529 32.6561 24.4249C32.4283 24.5684 32.1821 24.6865 31.9163 24.7794C31.5478 24.9031 31.175 25.0002 30.8009 25.0635C30.4296 25.1282 30.0751 25.1591 29.7488 25.1591L28.9977 25.1577C27.8964 25.0846 26.9835 24.7358 26.2873 24.1225C26.0482 23.9129 25.8302 23.6809 25.6346 23.4291L25.6304 23.4235C25.6262 23.4178 25.622 23.4136 25.6192 23.408C26.3084 23.9889 27.1987 24.3194 28.2663 24.3898L29.0174 24.3912C29.3437 24.3912 29.6982 24.3588 30.0695 24.2955C30.4436 24.2308 30.8164 24.1352 31.1849 24.0114C31.4493 23.92 31.6969 23.8004 31.9233 23.6569C31.9852 23.761 32.0598 23.8525 32.1498 23.9298C32.3186 24.0775 32.5071 24.1844 32.7068 24.2463C32.8868 24.3054 33.0626 24.3391 33.2328 24.3504C33.3791 24.3602 33.4804 24.3644 33.5352 24.3644C34.1738 24.3644 34.6394 24.1999 34.9235 23.8764C35.195 23.5613 35.3159 23.1534 35.2794 22.6639V21.9958C35.2794 21.8383 35.2695 21.6695 35.2498 21.4937C35.2315 21.3361 35.2048 21.1969 35.1696 21.0801C35.1542 20.8917 35.1415 20.6962 35.1331 20.4824C35.1246 20.277 35.119 20.021 35.119 19.6989V18.9942C35.119 17.9449 35.1331 16.8675 35.1584 15.7887C35.1865 14.7352 35.2428 13.669 35.3286 12.6085C35.3539 12.1359 35.3005 11.7421 35.1725 11.4326C35.3342 11.5128 35.4805 11.6197 35.6141 11.7533C35.9489 12.0909 36.0994 12.6366 36.06 13.3751C35.9728 14.4356 35.9179 15.5018 35.8898 16.5553C35.8645 17.6327 35.8504 18.7115 35.8504 19.7608L35.8532 19.7622Z" fill="#E9E1ED"/>
<path d="M43.7777 14.7152C43.7651 14.7138 43.7524 14.7138 43.7397 14.7138C43.4359 14.7138 43.1307 14.7883 42.8311 14.9332C42.5188 15.0865 42.2361 15.2848 41.9886 15.5225C41.7424 15.7616 41.5357 16.0401 41.3781 16.3496C41.2206 16.6562 41.125 16.9699 41.094 17.2821C41.0771 17.465 41.0645 17.6619 41.056 17.8658C41.0462 18.0881 41.0223 18.3019 40.9857 18.5044H40.9829C40.9323 18.925 40.8915 19.3427 40.8591 19.7436C40.824 20.1571 40.8071 20.5664 40.8071 20.9617C40.8071 21.1431 40.8155 21.3077 40.831 21.4525C40.8493 21.6115 40.8662 21.7873 40.8844 21.98C40.9013 22.0953 40.9154 22.2388 40.9252 22.3935C40.9337 22.5454 40.9379 22.6931 40.9379 22.831C40.9576 23.1151 40.9055 23.4006 40.786 23.6819C40.6692 23.9534 40.5075 24.2052 40.3035 24.426C40.0996 24.6496 39.8633 24.8325 39.5988 24.9689C39.326 25.111 39.039 25.1827 38.7535 25.1827C38.2739 25.1827 37.8885 25.0294 37.6086 24.7284C37.4764 24.5849 37.3596 24.4274 37.2654 24.253C37.4834 24.3613 37.7352 24.4161 38.0207 24.4161C38.3062 24.4161 38.5918 24.3444 38.866 24.2023C39.1291 24.0659 39.3668 23.8831 39.5707 23.6594C39.7747 23.4372 39.9364 23.1868 40.0532 22.9154C40.1727 22.6355 40.2248 22.3485 40.2051 22.0644C40.2051 21.9266 40.2009 21.7789 40.1924 21.627C40.1826 21.4722 40.1685 21.3288 40.1516 21.2134C40.1333 21.0207 40.1165 20.8449 40.0982 20.686C40.0827 20.5411 40.0743 20.3765 40.0743 20.1951C40.0743 19.7998 40.0911 19.3919 40.1263 18.977C40.1587 18.5747 40.2009 18.1584 40.2501 17.7378H40.2529C40.2895 17.5353 40.3134 17.3215 40.3232 17.0993C40.3317 16.8939 40.3443 16.697 40.3612 16.5156C40.3921 16.2033 40.4962 15.8939 40.6453 15.583C41.6032 13.597 43.7735 14.6941 43.7777 14.7152Z" fill="#E9E1ED"/>
<path d="M51.4097 14.6647C51.3254 14.6436 51.2311 14.6337 51.1298 14.6337C50.9132 14.6337 50.6924 14.69 50.4716 14.8011C50.2353 14.9179 50.0159 15.0698 49.8175 15.2526C49.615 15.4383 49.4307 15.6507 49.2704 15.8842C49.1114 16.1148 48.9919 16.3483 48.9131 16.5846C48.7992 16.9433 48.719 17.3709 48.6782 17.8519C48.6346 18.3456 48.6135 18.8562 48.6135 19.3696C48.6135 19.8183 48.622 20.2726 48.6388 20.7157C48.6557 21.1615 48.6824 21.5976 48.7162 22.0097C48.7345 22.2094 48.7429 22.4021 48.7429 22.5821C48.7429 22.7467 48.7514 22.9141 48.7682 23.0758L48.7697 23.104C48.7697 23.3825 48.7134 23.6596 48.6051 23.9268C48.4982 24.1898 48.3505 24.4318 48.1662 24.6456C47.9806 24.8608 47.7555 25.0408 47.5009 25.1786C47.2337 25.3221 46.9425 25.3952 46.6359 25.3952C46.0016 25.3952 45.5205 25.1604 45.2055 24.699C45.1576 24.6259 45.114 24.5471 45.0732 24.4543C45.3109 24.5682 45.5894 24.6273 45.9045 24.6273C46.2111 24.6273 46.5009 24.5541 46.7695 24.4107C47.0241 24.2728 47.2492 24.0928 47.4348 23.8776C47.6191 23.6638 47.7668 23.4233 47.8737 23.1588C47.982 22.8916 48.0382 22.6145 48.0382 22.336L48.0368 22.3079C48.02 22.1461 48.0115 21.9787 48.0115 21.8142C48.0115 21.6341 48.0031 21.4414 47.9848 21.2431C47.9496 20.831 47.9229 20.395 47.906 19.9491C47.8892 19.506 47.8807 19.0517 47.8807 18.603C47.8807 18.0896 47.9018 17.579 47.9454 17.0853C47.9862 16.6043 48.065 16.1767 48.1803 15.818C48.2577 15.5817 48.38 15.3497 48.5376 15.1176C49.2324 14.095 50.9371 14.1625 51.4097 14.6647Z" fill="#E9E1ED"/>
<path d="M56.2947 24.5093C56.1357 24.6781 55.9458 24.823 55.7292 24.9411C55.5182 25.0551 55.2988 25.1437 55.078 25.2C54.8529 25.2604 54.6645 25.2872 54.4985 25.2872C54.0498 25.2872 53.6757 25.1648 53.3901 24.9201C53.2031 24.7611 53.0469 24.5642 52.9246 24.3321C53.1623 24.4573 53.4464 24.5206 53.7671 24.5206C53.9316 24.5206 54.1215 24.4925 54.3452 24.432C54.5674 24.3743 54.7854 24.2871 54.9964 24.1732C55.213 24.055 55.4029 23.9101 55.5618 23.7414C55.7897 23.5008 55.8868 23.1633 55.8614 22.7061L55.8558 22.6189C55.846 22.4614 55.8347 22.3039 55.8221 22.1463C55.7925 21.7511 55.7644 21.3798 55.77 20.9972C55.7784 20.4135 55.7531 19.8227 55.7292 19.2531C55.7095 18.765 55.6884 18.26 55.6884 17.7579C55.6716 17.1446 55.635 16.5187 55.5843 15.8998C55.5309 15.2753 55.4507 14.6804 55.3438 14.1346C55.2355 13.5706 55.0766 13.0882 54.8684 12.6915C54.7573 12.4974 54.6349 12.3131 54.5013 12.1401C54.9359 12.503 55.3058 12.9447 55.5998 13.4581C55.808 13.8561 55.9669 14.3386 56.0752 14.9012C56.1807 15.4483 56.2623 16.0419 56.3143 16.6664C56.3664 17.2853 56.403 17.9098 56.4184 18.5245C56.4184 19.0266 56.4395 19.5316 56.4592 20.0196C56.4831 20.5907 56.5084 21.18 56.5 21.7638C56.4944 22.1463 56.5225 22.5177 56.5521 22.9129C56.5647 23.0704 56.576 23.228 56.5858 23.3855L56.5914 23.4727C56.6168 23.9284 56.5183 24.2674 56.2918 24.5079L56.2947 24.5093Z" fill="#E9E1ED"/>
<path d="M59.8524 25.0889C59.8524 25.0889 59.8524 25.0889 59.8507 25.0889C59.8507 25.0889 59.8507 25.0889 59.849 25.0906L59.8507 25.0889H59.8524Z" fill="#E9E1ED"/>
<path d="M65.0926 14.9674C64.966 14.7353 64.7902 14.537 64.5764 14.3977C64.1375 14.1122 63.679 13.9743 63.1755 13.9743C62.7957 13.9743 62.4342 14.0798 62.0924 14.2613C61.752 14.4427 61.4341 14.6973 61.1599 14.9842C61.0417 15.108 60.9517 15.2234 60.8842 15.3499C60.8139 15.4737 60.766 15.6073 60.7323 15.7705C60.6943 15.9562 60.6591 16.139 60.6324 16.3219C60.5832 16.6552 60.5565 17.0167 60.5565 17.4035V17.5596C60.5565 17.9352 60.5776 18.3065 60.6324 18.6708C60.662 18.8719 60.6718 19.0618 60.6929 19.2348C60.714 19.4078 60.7463 19.5597 60.8054 19.692C60.8968 19.8973 61.0783 20.0816 61.2963 20.2377C61.3666 20.2883 61.437 20.3362 61.5087 20.384C61.4665 20.2701 61.4412 20.1421 61.4257 20.0014C61.4046 19.8284 61.3948 19.6385 61.3652 19.4374C61.3104 19.0731 61.2907 18.7003 61.2907 18.3262V18.1701C61.2907 17.7819 61.3174 17.4218 61.3652 17.0884C61.3934 16.9056 61.4285 16.7227 61.4651 16.5371C61.4989 16.3739 61.5481 16.2403 61.617 16.1165C61.6859 15.9913 61.7745 15.8746 61.8927 15.7508C62.167 15.4653 62.4848 15.2093 62.8252 15.0278C63.167 14.8464 63.5299 14.7409 63.9083 14.7409C64.3485 14.7409 64.7536 14.845 65.1404 15.063C65.1249 15.0292 65.1095 14.9983 65.0926 14.9688V14.9674ZM65.0926 14.9674C64.966 14.7353 64.7902 14.537 64.5764 14.3977C64.1375 14.1122 63.679 13.9743 63.1755 13.9743C62.7957 13.9743 62.4342 14.0798 62.0924 14.2613C61.752 14.4427 61.4341 14.6973 61.1599 14.9842C61.0417 15.108 60.9517 15.2234 60.8842 15.3499C60.8139 15.4737 60.766 15.6073 60.7323 15.7705C60.6943 15.9562 60.6591 16.139 60.6324 16.3219C60.5832 16.6552 60.5565 17.0167 60.5565 17.4035V17.5596C60.5565 17.9352 60.5776 18.3065 60.6324 18.6708C60.662 18.8719 60.6718 19.0618 60.6929 19.2348C60.714 19.4078 60.7463 19.5597 60.8054 19.692C60.8968 19.8973 61.0783 20.0816 61.2963 20.2377C61.3666 20.2883 61.437 20.3362 61.5087 20.384C61.4665 20.2701 61.4412 20.1421 61.4257 20.0014C61.4046 19.8284 61.3948 19.6385 61.3652 19.4374C61.3104 19.0731 61.2907 18.7003 61.2907 18.3262V18.1701C61.2907 17.7819 61.3174 17.4218 61.3652 17.0884C61.3934 16.9056 61.4285 16.7227 61.4651 16.5371C61.4989 16.3739 61.5481 16.2403 61.617 16.1165C61.6859 15.9913 61.7745 15.8746 61.8927 15.7508C62.167 15.4653 62.4848 15.2093 62.8252 15.0278C63.167 14.8464 63.5299 14.7409 63.9083 14.7409C64.3485 14.7409 64.7536 14.845 65.1404 15.063C65.1249 15.0292 65.1095 14.9983 65.0926 14.9688V14.9674ZM69.8172 15.5651C69.7511 15.3387 69.6737 15.1179 69.5823 14.8998C69.2475 14.1037 68.7918 13.4187 68.2151 12.8519C68.1321 12.7689 68.0449 12.6887 67.9577 12.6128C68.3164 13.0615 68.6132 13.5692 68.8509 14.1333C68.9409 14.3513 69.0197 14.5721 69.0858 14.7986C69.3038 15.5483 69.3685 16.3191 69.3685 17.0758C69.3685 17.2178 69.3657 17.3585 69.3615 17.4991C69.3361 18.4078 69.1941 19.3263 68.8523 20.1927C68.6863 20.6161 68.4866 21.0141 68.2559 21.3854C68.0238 21.7554 67.7608 22.0986 67.4654 22.4122C66.8747 23.0381 66.1784 23.5347 65.3809 23.8975C64.5764 24.2632 63.7071 24.4447 62.7844 24.4447C62.0727 24.4447 61.4496 24.387 60.9081 24.2689C60.4721 24.1732 60.0642 23.9946 59.6914 23.7414C59.6535 23.8047 59.6141 23.8652 59.5677 23.9243H59.5663C59.4354 24.0846 59.2878 24.2182 59.119 24.3237C58.9502 24.4292 58.7547 24.5122 58.5381 24.5389C58.4677 24.5474 58.3974 24.5516 58.3243 24.5516C58.0036 24.5502 57.6646 24.4813 57.3903 24.3786C57.3931 24.3884 57.3959 24.3997 57.4002 24.4095C57.4592 24.5628 57.5422 24.7119 57.6618 24.8413C57.7813 24.9707 57.9375 25.0776 58.1217 25.1452C58.396 25.2478 58.735 25.3168 59.0557 25.3182C59.1288 25.3182 59.1991 25.3139 59.2695 25.3055C59.4875 25.2788 59.6816 25.1972 59.8504 25.0903C60.0192 24.9862 60.1668 24.8526 60.2977 24.6908H60.2991C60.3455 24.6318 60.3863 24.5713 60.4228 24.508C60.7956 24.7598 61.2021 24.9384 61.6395 25.0354C62.181 25.1536 62.8041 25.2113 63.5158 25.2113C64.4385 25.2113 65.3078 25.0298 66.1123 24.6641C66.9098 24.3012 67.6061 23.8047 68.1968 23.1788C68.4922 22.8651 68.7566 22.5219 68.9873 22.152C69.2194 21.7807 69.4163 21.384 69.5837 20.9593C69.9255 20.0928 70.0676 19.1758 70.0929 18.2657C70.0971 18.1251 70.0999 17.9844 70.0999 17.8423C70.0999 17.0856 70.0338 16.3148 69.8172 15.5651ZM65.0926 14.9674C64.966 14.7353 64.7902 14.537 64.5764 14.3977C64.1375 14.1122 63.679 13.9743 63.1755 13.9743C62.7957 13.9743 62.4342 14.0798 62.0924 14.2613C61.752 14.4427 61.4341 14.6973 61.1599 14.9842C61.0417 15.108 60.9517 15.2234 60.8842 15.3499C60.8139 15.4737 60.766 15.6073 60.7323 15.7705C60.6943 15.9562 60.6591 16.139 60.6324 16.3219C60.5832 16.6552 60.5565 17.0167 60.5565 17.4035V17.5596C60.5565 17.9352 60.5776 18.3065 60.6324 18.6708C60.662 18.8719 60.6718 19.0618 60.6929 19.2348C60.714 19.4078 60.7463 19.5597 60.8054 19.692C60.8968 19.8973 61.0783 20.0816 61.2963 20.2377C61.3666 20.2883 61.437 20.3362 61.5087 20.384C61.4665 20.2701 61.4412 20.1421 61.4257 20.0014C61.4046 19.8284 61.3948 19.6385 61.3652 19.4374C61.3104 19.0731 61.2907 18.7003 61.2907 18.3262V18.1701C61.2907 17.7819 61.3174 17.4218 61.3652 17.0884C61.3934 16.9056 61.4285 16.7227 61.4651 16.5371C61.4989 16.3739 61.5481 16.2403 61.617 16.1165C61.6859 15.9913 61.7745 15.8746 61.8927 15.7508C62.167 15.4653 62.4848 15.2093 62.8252 15.0278C63.167 14.8464 63.5299 14.7409 63.9083 14.7409C64.3485 14.7409 64.7536 14.845 65.1404 15.063C65.1249 15.0292 65.1095 14.9983 65.0926 14.9688V14.9674Z" fill="#E9E1ED"/>
<path d="M75.1888 8.00463C75.186 8.08058 75.1846 8.15935 75.1846 8.2353C75.1846 8.75151 75.1481 9.27193 75.1129 9.77547C75.0946 10.0329 75.0763 10.2917 75.0637 10.5491C75.0229 11.3367 74.9961 12.1371 74.9863 12.9304C74.9582 14.8981 74.9441 16.8124 74.9441 18.6185V21.0419C74.9441 21.2557 74.9582 21.4738 74.9722 21.7058C75.0158 22.4175 75.0609 23.1518 74.7261 23.8255L74.7233 23.8325C74.4012 24.4697 73.6262 25.0323 72.9581 25.1083C72.8976 25.1153 72.8371 25.1195 72.7752 25.1195C72.4039 25.1195 72.0241 24.9929 71.7498 24.7707C71.5656 24.6216 71.4165 24.4247 71.3082 24.1828C71.5332 24.2925 71.7906 24.3516 72.0438 24.3516C72.1057 24.3516 72.1662 24.3473 72.2266 24.3403C72.8948 24.2629 73.6698 23.7017 73.9919 23.0646L73.9947 23.0575C74.3294 22.3838 74.2844 21.6496 74.2408 20.9379C74.2268 20.7072 74.2127 20.4878 74.2127 20.274V17.8505C74.2127 16.0445 74.2268 14.1302 74.2549 12.1624C74.2647 11.3705 74.2915 10.5702 74.3323 9.7811C74.3449 9.5237 74.3632 9.2649 74.3815 9.0075C74.4166 8.50395 74.4532 7.98353 74.4532 7.46732C74.4532 7.39278 74.4546 7.31401 74.4574 7.23665C74.4659 6.8175 74.4771 6.33364 74.3027 5.91309C74.366 5.94262 74.4251 5.97638 74.4828 6.01295C75.224 6.49821 75.2043 7.3323 75.1903 8.00322L75.1888 8.00463Z" fill="#E9E1ED"/>
<path d="M22.9017 15.2779C22.6077 14.8194 22.2589 14.4326 21.8749 14.1091C21.9593 14.2202 22.0409 14.3369 22.1197 14.4593C22.619 15.2428 22.8201 16.1233 22.8201 16.9911C22.8187 18.2289 22.4207 19.4498 21.8862 20.4245C21.6175 20.914 21.3151 21.3402 21.0015 21.6749C20.0689 22.6764 18.9015 23.3487 17.7383 23.7749C16.5736 24.2011 15.4132 24.3797 14.4737 24.3811H14.4596C12.4299 24.3755 10.9601 23.9704 9.96286 23.5302C9.0472 23.1265 8.5324 22.6947 8.34673 22.5174C8.275 22.7481 8.16388 23.0196 7.98525 23.2812C7.83897 23.4978 7.64768 23.7088 7.39591 23.879C7.06115 24.1054 6.62512 24.2531 6.08781 24.2517C5.80369 24.2517 5.52238 24.1842 5.26639 24.0534C5.23544 24.0365 5.20309 24.021 5.17215 24.0028C5.23263 24.1083 5.29874 24.2081 5.36907 24.2995C5.56176 24.5485 5.79244 24.744 6.04843 24.8734C6.30442 25.0042 6.58573 25.0717 6.86986 25.0717C7.40575 25.0731 7.84178 24.9255 8.17795 24.699C8.42972 24.5288 8.62242 24.3178 8.76729 24.1012C8.94592 23.8396 9.05704 23.5681 9.12878 23.3375C9.31444 23.5147 9.82924 23.9465 10.7449 24.3502C11.7407 24.789 13.212 25.1941 15.2416 25.2011H15.2557C16.1953 25.1997 17.3557 25.0211 18.5203 24.5949C19.6835 24.1687 20.851 23.495 21.7835 22.4949C22.0972 22.1602 22.3996 21.734 22.6682 21.2445C23.2027 20.2698 23.6008 19.0489 23.6022 17.8111C23.6022 16.9433 23.401 16.0628 22.9017 15.2793V15.2779ZM16.8873 16.2442C16.6791 15.9348 16.3683 15.6844 15.9562 15.5128C15.2754 15.2315 14.5032 15.1246 13.738 15.126C12.8238 15.1246 11.925 15.2765 11.2245 15.4411C10.8743 15.5241 10.5733 15.6099 10.3454 15.6788C10.1162 15.7505 9.96005 15.8068 9.89675 15.8293C9.68577 15.9067 9.51839 16.0234 9.38758 16.1739C9.21458 16.3736 9.1133 16.6493 9.1133 16.9545V17.7352C9.1133 18.1079 9.31725 18.4413 9.6492 18.6129H9.65201C9.73641 18.6579 9.82361 18.7029 9.91222 18.7451C9.90097 18.6832 9.89394 18.6199 9.89394 18.5552V17.7746C9.89394 17.4693 9.99521 17.1937 10.1682 16.9939C10.299 16.8434 10.4664 16.7267 10.6774 16.6493C10.7393 16.6268 10.8968 16.5705 11.1261 16.4988C11.3539 16.4285 11.6549 16.3441 12.0052 16.2611C12.707 16.0965 13.6044 15.9432 14.5187 15.946C15.2824 15.9446 16.056 16.0515 16.7368 16.3328C16.8353 16.375 16.9295 16.4186 17.0153 16.4679C16.9759 16.3905 16.9337 16.316 16.8859 16.2442H16.8873ZM13.2359 8.32254C13.1599 8.18329 13.0404 8.04404 12.8519 7.9273C12.5734 7.7557 12.2401 7.68115 11.8631 7.68115C11.3793 7.68115 10.8335 7.80915 10.3117 7.99059C9.78986 8.17204 9.29053 8.40693 8.88685 8.60526H8.88544C8.85169 8.62213 8.8109 8.65308 8.7687 8.70231C8.7265 8.75154 8.68712 8.81905 8.65196 8.895C8.58303 9.04691 8.54365 9.23961 8.54365 9.40136L8.67165 11.5435C8.68009 11.6772 8.74479 11.7967 8.85309 11.8741V11.8755C8.91217 11.9177 8.97546 11.943 9.04579 11.9528C9.0697 11.9557 9.09221 11.9585 9.11049 11.9585C9.14565 11.9585 9.18785 11.9528 9.23145 11.9402C9.29194 11.9233 9.35804 11.9064 9.42696 11.8881L9.3271 10.22C9.3271 10.0582 9.36789 9.86552 9.4354 9.71362C9.46916 9.63766 9.50995 9.57015 9.55215 9.52092C9.59434 9.47169 9.63373 9.44075 9.66889 9.42387H9.6703C10.074 9.22414 10.5747 8.99065 11.0951 8.80921C11.6184 8.62776 12.1627 8.49976 12.6466 8.49976C12.8955 8.49976 13.1262 8.53211 13.333 8.60385C13.3203 8.51664 13.2908 8.41959 13.2373 8.32113L13.2359 8.32254Z" fill="#E9E1ED"/>
<path d="M80.1005 14.6705C79.2988 15.5158 79.4338 16.8267 79.4929 16.9913C79.5168 16.9885 79.7081 16.1446 79.7855 16.1333C79.7981 16.1052 79.8108 16.077 79.8234 16.0503C80.0161 15.6452 80.2707 15.2852 80.6069 14.9982C80.9782 14.6818 81.4466 14.5087 81.915 14.5087C82.1485 14.5087 82.3805 14.5523 82.6014 14.641C82.5915 14.5116 80.9782 13.7464 80.1019 14.6705H80.1005ZM88.3753 21.1223C88.3739 21.0984 88.3725 21.0731 88.3696 21.0478C88.2824 20.3572 87.7479 19.9437 87.6382 19.8663C87.627 19.8579 87.6199 19.8536 87.6199 19.8536C87.5735 19.8255 87.5285 19.7988 87.4821 19.7763C87.5552 19.9211 87.6129 20.0899 87.6368 20.2798C87.6396 20.3051 87.641 20.3305 87.6425 20.3544C87.6439 20.3895 87.6453 20.4233 87.6453 20.4556V20.4613C87.6453 20.5654 87.6368 20.6694 87.6185 20.7721C87.6143 20.7946 87.6101 20.8185 87.6045 20.841C87.6031 20.8467 87.6017 20.8537 87.6017 20.8593C87.5384 21.1491 87.409 21.4332 87.2205 21.7089C87.0447 21.9691 86.8351 22.2166 86.596 22.4473C86.3569 22.6794 86.0882 22.896 85.7886 23.1014C85.1908 23.5079 84.5073 23.8412 83.7365 24.1014C82.9615 24.3616 82.1808 24.4953 81.4016 24.4953C80.9177 24.4953 80.4536 24.4559 80.0105 24.3771C79.5689 24.2983 79.1483 24.1774 78.7516 24.017C78.355 23.8595 77.9879 23.664 77.6461 23.4361C77.4534 23.3067 77.2677 23.1661 77.0933 23.0142C77.2016 23.152 77.3184 23.2856 77.4407 23.415C77.7249 23.7132 78.0371 23.9762 78.3775 24.2041C78.7179 24.4334 79.0878 24.6275 79.4831 24.785C79.8811 24.9453 80.3003 25.0649 80.7419 25.1451C81.1836 25.2238 81.6477 25.2632 82.133 25.2632C82.9122 25.2632 83.6915 25.131 84.4679 24.8694C85.2387 24.6106 85.9222 24.2758 86.52 23.8693C86.8196 23.664 87.0897 23.4474 87.3274 23.2153C87.5679 22.9832 87.7761 22.7371 87.9519 22.4769C88.1404 22.2012 88.2698 21.917 88.3331 21.6273C88.3331 21.6217 88.3345 21.6146 88.3359 21.609C88.3415 21.5865 88.3457 21.5626 88.3499 21.5401C88.3682 21.4374 88.3767 21.3333 88.3767 21.2292V21.2236C88.3767 21.1899 88.3753 21.1561 88.3739 21.1223H88.3753Z" fill="#E9E1ED"/>
<path d="M59.121 24.3225C59.121 24.3225 59.121 24.3225 59.1193 24.3225C59.1193 24.3225 59.1193 24.3225 59.1176 24.3225L59.1193 24.3208L59.121 24.3225Z" fill="#E9E1ED"/>
</g>
<defs>
<clipPath id="clip0_1233_3892">
<rect width="90.6459" height="26.9411" fill="white" transform="translate(0.21228 0.931152)"/>
</clipPath>
</defs>
</svg>
