<svg width="95" height="44" viewBox="0 0 95 44" fill="none" xmlns="http://www.w3.org/2000/svg">
<g clip-path="url(#clip0_1233_3920)">
<path d="M21.4916 34.1434L21.7313 33.943C21.8003 33.8834 21.8761 33.9064 21.9845 33.9525L22.4218 34.1407C22.5422 34.1948 22.6343 34.2205 22.7155 34.2043L22.4746 34.4074C22.4028 34.4642 22.3297 34.4399 22.2187 34.3938L21.7854 34.2084C21.6582 34.1542 21.5648 34.1298 21.4903 34.1434H21.4916Z" fill="black"/>
<path d="M26.107 35.3619C26.5484 35.5013 26.7975 35.4675 26.8909 35.175C26.987 34.8772 26.7948 34.7269 26.3589 34.5888L25.8633 34.4304L25.6169 35.2048L26.107 35.3632V35.3619ZM25.4504 36.3204L24.6868 36.0781C24.8398 36.0442 24.9156 35.94 24.9766 35.745L25.4152 34.3654C25.4748 34.1745 25.4626 34.0419 25.3651 33.939L26.4861 34.295C26.8219 34.3993 27.0696 34.4846 27.2267 34.6782C27.377 34.8596 27.4216 35.0735 27.3512 35.2982C27.1955 35.7856 26.765 35.9061 26.0515 35.68L25.5195 35.5122L25.403 35.8831C25.3407 36.0808 25.3462 36.2094 25.4504 36.3218V36.3204Z" fill="black"/>
<path d="M29.3996 36.1745C29.7976 36.2747 30.0007 36.2341 30.0657 35.9741C30.1347 35.6898 29.9668 35.5856 29.5851 35.4895L28.8743 35.3148L28.7037 36.0026L29.4009 36.1745H29.3996ZM28.5832 37.2265L27.8074 37.0342C27.9591 36.9895 28.0281 36.8839 28.0769 36.6849L28.4248 35.281C28.4735 35.0847 28.4532 34.9506 28.3463 34.8545L29.6487 35.1781C29.975 35.2566 30.2119 35.327 30.3459 35.4448C30.5314 35.5964 30.5964 35.8171 30.5355 36.0608C30.4597 36.3735 30.1889 36.5414 29.7692 36.5143C29.9479 36.6497 30.0318 36.823 30.109 37.0532C30.1929 37.2955 30.2403 37.5081 30.3757 37.6719L29.6 37.4769C29.6473 37.4553 29.6622 37.4255 29.6758 37.374C29.7028 37.2657 29.6798 37.0924 29.5796 36.8853C29.4551 36.6199 29.3129 36.4832 29.0273 36.4087L28.6306 36.3113L28.5114 36.7932C28.4614 36.9936 28.479 37.1222 28.5873 37.2278L28.5832 37.2265Z" fill="black"/>
<path d="M31.3911 37.477L31.6606 36.0473C31.6998 35.8469 31.67 35.7142 31.5631 35.6235L33.8322 36.0554C33.8064 36.1055 33.7875 36.1461 33.7834 36.1746C33.7712 36.2301 33.8078 36.3519 33.8213 36.5482C33.6358 36.3831 33.3786 36.2978 33.0361 36.2301L32.1141 36.0554L32.0017 36.6498L33.0388 36.8474C33.1471 36.8677 33.2459 36.8677 33.3461 36.8474L33.1471 37.0735C33.0875 37.1385 33.0049 37.1629 32.9021 37.1426L31.9408 36.9571L31.8149 37.6313L32.7667 37.81C33.1566 37.8872 33.4815 37.8615 33.6805 37.7626C33.5695 37.9495 33.4693 38.0591 33.4544 38.135C33.4504 38.1661 33.4463 38.2054 33.449 38.269L31.142 37.829C31.2801 37.7816 31.3519 37.6746 31.3911 37.4756V37.477Z" fill="black"/>
<path d="M35.0235 38.1131C34.9978 38.3148 35.0262 38.4462 35.1454 38.5382L34.4008 38.4353C34.5402 38.3798 34.6038 38.2607 34.6309 38.0603L34.8272 36.6333C34.8529 36.4289 34.8272 36.2989 34.7054 36.2109L35.6233 36.3355C35.6043 36.3612 35.5922 36.3829 35.5895 36.4045C35.5881 36.4235 35.5908 36.4506 35.6016 36.4898L36.0511 38.2512L36.9717 36.6713C36.988 36.6428 37.0002 36.6185 37.0002 36.6049C37.0042 36.5819 36.9961 36.5548 36.9853 36.5223L37.9208 36.6482C37.78 36.701 37.7204 36.8202 37.6906 37.026L37.4943 38.4529C37.4713 38.6357 37.4835 38.7508 37.6026 38.8726L36.854 38.7697C37.0083 38.6817 37.0449 38.5721 37.0692 38.3907L37.2737 36.8946L36.2691 38.545C36.2542 38.5734 36.238 38.5951 36.2352 38.6168C36.2339 38.6316 36.238 38.656 36.2474 38.6885L35.7275 38.614C35.7438 38.587 35.756 38.5653 35.756 38.5572C35.7573 38.5342 35.7519 38.5057 35.7424 38.4692L35.2361 36.5792L35.0262 38.1118L35.0235 38.1131Z" fill="black"/>
<path d="M39.318 37.1819L39.1812 38.6143C39.1609 38.8201 39.1893 38.946 39.3166 39.034L38.5165 38.9541C38.6532 38.8932 38.7114 38.774 38.7317 38.5696L38.8712 37.1399C38.8915 36.9328 38.859 36.8028 38.7345 36.7202L39.5346 36.7987C39.3965 36.8583 39.3396 36.9761 39.318 37.1805V37.1819Z" fill="black"/>
<path d="M41.1593 36.9341C41.0185 36.9991 40.9684 37.121 40.9549 37.3268L40.8912 38.2691C40.8655 38.6847 41.0632 38.8918 41.5113 38.9203C41.9621 38.9514 42.1788 38.7754 42.2085 38.3598L42.2708 37.4121C42.2816 37.2157 42.2654 37.0939 42.1246 37.0005L42.9207 37.0519C42.7934 37.1074 42.7257 37.2361 42.7122 37.4432L42.6472 38.4031C42.6052 39.0435 42.2437 39.3102 41.4734 39.2587C40.7328 39.2113 40.4052 38.8851 40.4485 38.2582L40.5121 37.2943C40.5257 37.0844 40.4864 36.9585 40.3632 36.8813L41.1606 36.9341H41.1593Z" fill="black"/>
<path d="M44.242 38.9456C44.2393 39.1501 44.2799 39.276 44.4099 39.3518L43.6599 39.3369C43.7939 39.2638 43.8426 39.1406 43.848 38.9375L43.8805 37.4997C43.8846 37.2898 43.8426 37.1666 43.7113 37.0908L44.6373 37.1125C44.6224 37.1382 44.6143 37.1612 44.6143 37.1829C44.6143 37.2018 44.6197 37.2289 44.636 37.2668L45.2804 38.9673L46.0196 37.2953C46.0318 37.2641 46.0386 37.2384 46.0386 37.2221C46.0399 37.1991 46.0305 37.1734 46.0142 37.1423L46.9579 37.1653C46.8252 37.2343 46.7764 37.3575 46.7697 37.5647L46.7345 39.0038C46.7318 39.1866 46.7548 39.303 46.8888 39.4086L46.132 39.3924C46.2769 39.2854 46.3012 39.1731 46.3067 38.9916L46.3419 37.4821L45.5255 39.2367C45.5146 39.2651 45.5011 39.2868 45.5011 39.3098C45.5011 39.3233 45.5065 39.3464 45.5214 39.3802L44.9975 39.3667C45.0083 39.3369 45.0164 39.3139 45.0164 39.3085C45.0191 39.2854 45.0069 39.257 44.9921 39.2205L44.2786 37.3981L44.242 38.9456Z" fill="black"/>
<path d="M51.7858 38.1414C51.7641 37.6337 51.4432 37.3399 50.9437 37.3615C50.417 37.3818 50.1097 37.7257 50.1327 38.2673C50.153 38.7641 50.4806 39.0579 50.9789 39.0363C51.5082 39.0146 51.8101 38.6802 51.7871 38.1414H51.7858ZM49.6602 38.2727C49.6318 37.5578 50.111 37.0556 50.9464 37.019C51.7289 36.9892 52.2339 37.4292 52.261 38.1116C52.2867 38.6707 51.9875 39.1419 51.515 39.2691C51.668 39.3856 51.7993 39.4411 51.9306 39.4357C52.0213 39.4329 52.0985 39.3977 52.1838 39.3341C52.1906 39.4357 52.2637 39.5548 52.326 39.5913C52.1973 39.7064 52.062 39.7633 51.913 39.7714C51.7275 39.7782 51.5786 39.6983 51.4094 39.6008C51.228 39.4952 51.0723 39.3991 50.8773 39.4086C50.6783 39.4153 50.4766 39.5372 50.2572 39.766C50.2572 39.7633 50.2573 39.7606 50.2545 39.7538C50.2545 39.6861 50.1489 39.5724 50.0271 39.5291C50.1232 39.4248 50.2207 39.3422 50.3263 39.2773C49.908 39.0809 49.6805 38.7384 49.6602 38.2713V38.2727Z" fill="black"/>
<path d="M53.8409 36.9043C53.7123 36.9896 53.6798 37.1169 53.696 37.3199L53.7759 38.2649C53.8111 38.6806 54.0413 38.8539 54.4853 38.816C54.9362 38.778 55.1244 38.5682 55.0905 38.1539L55.0106 37.2116C54.9944 37.0099 54.9565 36.8921 54.8022 36.8231L55.5969 36.7554C55.4831 36.8312 55.4317 36.9666 55.4507 37.1737L55.5346 38.1336C55.586 38.7753 55.2679 39.0935 54.5016 39.1598C53.7597 39.2221 53.3874 38.9486 53.3346 38.3218L53.2533 37.3619C53.2344 37.1534 53.1748 37.0289 53.0408 36.972L53.8409 36.9057V36.9043Z" fill="black"/>
<path d="M58.3059 37.8547L57.5925 36.7892L57.1944 37.9982L58.3059 37.8547ZM59.3335 38.556L58.593 38.6507C58.6363 38.5912 58.6593 38.5343 58.6525 38.472C58.6458 38.4152 58.6255 38.3597 58.6052 38.3299L58.4968 38.1661L57.0848 38.3502L57.0333 38.5018C57.0198 38.5478 57.0117 38.6033 57.0198 38.6656C57.0306 38.7387 57.0672 38.801 57.124 38.8376L56.3794 38.9323C56.4877 38.7942 56.5473 38.6561 56.5933 38.5194L57.2283 36.7255C57.2418 36.6822 57.2499 36.6511 57.2459 36.6294C57.2459 36.6186 57.2364 36.5942 57.212 36.5617L57.9688 36.4629C57.958 36.4954 57.9499 36.5225 57.9526 36.5428C57.9553 36.5617 57.9648 36.5874 57.9891 36.6226L59.0249 38.2107C59.1156 38.3461 59.2157 38.4625 59.3349 38.5533L59.3335 38.556Z" fill="black"/>
<path d="M59.6639 36.2272L60.4586 36.0918C60.3422 36.1798 60.3137 36.3165 60.3476 36.5129L60.6062 38.0238L61.2899 37.906C61.6717 37.841 61.9451 37.7205 62.1252 37.5364C62.09 37.7503 62.0318 37.8857 62.0467 37.9628C62.0521 37.9886 62.0643 38.0346 62.09 38.0887L60.047 38.4421C60.1607 38.35 60.1892 38.2214 60.1553 38.0197L59.9103 36.5887C59.8751 36.3883 59.802 36.2746 59.6652 36.2272H59.6639Z" fill="black"/>
<path d="M63.2151 35.9823L63.5075 37.3917C63.5495 37.5907 63.6145 37.7044 63.7621 37.7518L62.9768 37.9129C63.0905 37.8114 63.1095 37.6814 63.0675 37.4824L62.7764 36.0743C62.7331 35.8713 62.6641 35.7603 62.5206 35.7142L63.3058 35.5518C63.1921 35.6492 63.1758 35.7792 63.2151 35.9836V35.9823Z" fill="black"/>
<path d="M65.3785 36.9679L65.013 35.4895L64.8587 35.5301C64.5242 35.6113 64.267 35.7128 64.0897 35.8875C64.0964 35.6912 64.1235 35.5653 64.1073 35.5071C64.1018 35.4881 64.0829 35.4475 64.0531 35.396L66.2572 34.8545C66.2545 34.9073 66.2545 34.9479 66.2599 34.9818C66.2748 35.0386 66.352 35.1347 66.4481 35.3026C66.2125 35.2349 65.9472 35.262 65.6073 35.3459L65.4462 35.3852L65.8104 36.8636C65.8578 37.0572 65.958 37.1777 66.0825 37.2129L65.3081 37.4038C65.4408 37.2766 65.4219 37.1534 65.3758 36.9706L65.3785 36.9679Z" fill="black"/>
<path d="M67.6503 34.4521C67.607 34.4846 67.6016 34.532 67.6233 34.6038C67.6436 34.6647 67.6923 34.708 67.7641 34.7595L68.6021 35.3836L68.9555 34.3763C68.9839 34.2978 68.9893 34.2314 68.9758 34.1773C68.9555 34.1245 68.9243 34.0879 68.8729 34.0744L69.6189 33.8442C69.5227 33.9959 69.4537 34.1665 69.3847 34.3546L68.8959 35.6679L68.9866 35.9671C69.0489 36.1661 69.1369 36.269 69.2818 36.3001L68.5168 36.5371C68.6251 36.4193 68.6211 36.2893 68.5615 36.0998L68.4721 35.8087L67.2983 34.9463C67.1129 34.8123 66.9707 34.7242 66.8367 34.708L67.6476 34.4521H67.6503Z" fill="black"/>
<path d="M72.2454 34.5674L72.2671 34.256C72.2725 34.164 72.3375 34.1274 72.4485 34.0827L72.8858 33.8946C73.0076 33.8431 73.0902 33.7944 73.1349 33.728L73.1173 34.0394C73.1119 34.1301 73.0401 34.1707 72.9305 34.2168L72.4959 34.4009C72.3713 34.4551 72.2874 34.5038 72.2454 34.5674Z" fill="black"/>
<path d="M77.8585 15.9759H78.71C78.8346 15.9786 78.9294 15.9881 78.9916 16.0193C79.0593 16.0518 79.1162 16.0883 79.1622 16.1438C79.2001 16.1871 79.2299 16.2359 79.2489 16.2914C79.2759 16.3401 79.2841 16.4051 79.2814 16.4715C79.2841 16.5567 79.2611 16.6339 79.2218 16.7179C79.1785 16.795 79.1108 16.8532 79.0119 16.8884C79.0959 16.9196 79.15 16.9656 79.1825 17.0238C79.2177 17.0807 79.238 17.1728 79.2326 17.2973V17.4124C79.238 17.4896 79.238 17.5451 79.2434 17.5735C79.257 17.6195 79.2773 17.652 79.3098 17.6764V17.717L78.9063 17.7157C78.8982 17.6818 78.8942 17.648 78.8847 17.6236C78.8766 17.5735 78.8725 17.5261 78.8698 17.4733L78.8671 17.3136C78.8671 17.2025 78.8441 17.124 78.8034 17.0942C78.7655 17.0523 78.6951 17.036 78.5868 17.036L78.205 17.0347L78.2077 17.7184H77.8544V15.9773L77.8585 15.9759ZM78.8116 16.309C78.775 16.286 78.7154 16.2792 78.6356 16.2792L78.2118 16.2819V16.749H78.622C78.7046 16.749 78.7682 16.7368 78.8102 16.7192C78.8833 16.684 78.9185 16.6231 78.9185 16.5215C78.9212 16.42 78.886 16.3483 78.8129 16.3103L78.8116 16.309ZM77.2749 16.8438C77.2804 17.1782 77.4117 17.495 77.6445 17.736C77.8896 17.9702 78.2023 18.1015 78.5421 18.1029C79.238 18.1015 79.8012 17.5383 79.8012 16.8424C79.8012 16.5053 79.6753 16.1871 79.4343 15.9502C79.1934 15.7119 78.8793 15.5806 78.5408 15.5806C78.2023 15.5806 77.8896 15.7133 77.6445 15.9502C77.4117 16.1912 77.2804 16.5053 77.2749 16.8438ZM78.5435 18.3181C78.1495 18.3181 77.7759 18.1638 77.4943 17.8835C77.2154 17.6033 77.0624 17.2364 77.0624 16.8424C77.0624 16.026 77.7285 15.3667 78.5435 15.3667C78.9375 15.3667 79.3057 15.517 79.586 15.7972C79.8649 16.0761 80.0192 16.4484 80.0192 16.8424C80.0192 17.2364 79.8649 17.6033 79.59 17.8835C79.3071 18.1624 78.9388 18.3181 78.5449 18.3181H78.5435Z" fill="black"/>
<path d="M70.1902 15.1639C70.1902 15.1639 73.0414 11.9444 75.519 11.6695C76.5005 11.5572 77.6581 11.6384 77.8476 12.6687C78.0317 13.6665 77.4469 14.1349 76.5181 14.1647C75.018 14.2175 73.3298 14.2811 71.919 15.0705C71.391 15.3602 69.7014 16.3512 70.1902 15.1639ZM52.5046 26.9208C53.2736 26.8897 53.3034 27.7372 52.6021 27.7453H45.9059C45.3941 27.7453 45.3873 26.956 45.9262 26.9452C46.3472 26.9371 47.3572 26.7042 47.3572 25.9149L47.3559 16.7465C47.3559 16.7465 47.3884 15.9342 46.2619 16.4148C45.6161 16.687 45.2845 15.9356 45.9384 15.631L50.5063 13.6516C50.5063 13.6516 51.1846 13.3294 51.1887 14.1701L51.1819 25.8851C51.2049 26.4578 52.0646 26.9371 52.5046 26.9208ZM30.6045 16.7046C32.0017 20.1109 28.418 19.9566 27.7167 17.8933C27.5177 17.3111 27.5299 16.5177 27.0709 15.9545C26.398 15.1273 25.5911 15.1612 25.1091 15.1436C21.4591 15.0231 19.6734 25.1784 25.0672 26.2425C27.0614 26.6406 28.7199 25.2312 29.3427 24.6017C29.9898 23.9423 30.5354 24.6842 30.1063 25.3639C28.4153 28.008 25.2053 28.2327 23.9976 28.2246C15.5211 28.1393 13.5742 15.1747 23.8595 13.6638C26.7013 13.2427 29.8125 14.778 30.6045 16.7032V16.7046ZM70.1116 21.1398C70.1577 21.3822 70.2565 21.6042 70.5719 21.6408C70.7385 21.6638 73.0292 21.6408 73.0292 21.6408C73.0292 21.6408 73.3839 21.5582 73.4259 21.2454C73.4665 20.9354 73.3839 19.0589 71.6957 19.0589C70.882 19.0589 69.9627 20.291 70.1103 21.1398H70.1116ZM72.2995 26.4971C74.0351 26.6961 75.8683 25.7985 76.3435 25.1622C76.8363 24.5096 77.3602 25.2745 76.9297 25.7673C75.6923 27.1808 74.4413 28.1001 71.5278 28.1637C62.8563 28.3465 63.1094 17.8296 71.8608 17.873C76.4721 17.8933 77.2113 21.1249 77.3034 21.8073C77.3616 22.2107 77.0421 22.9134 76.3245 22.9134C75.634 22.9134 69.696 22.9256 69.696 22.9256C69.5376 25.3747 71.2177 26.3712 72.2981 26.4971H72.2995ZM58.6525 28.0391C58.6525 28.0391 53.9397 19.7196 53.7962 19.4949C53.65 19.2634 53.474 19.0156 52.6711 18.9736C51.871 18.9303 51.9739 18.1207 52.7578 18.1207C53.1152 18.118 59.0059 18.1207 59.4039 18.118C60.204 18.1207 60.0903 18.9533 59.32 18.9533C58.7148 18.9533 58.5821 19.2417 58.5821 19.5978C58.5821 20.4115 60.4491 23.7623 60.4491 23.7623C60.4491 23.7623 62.4366 19.8496 62.4474 19.8063C62.6261 19.22 62.4149 19.0752 61.6757 19.0102C60.9324 18.952 61.0191 18.16 61.6554 18.1166C62.0507 18.0896 64.8058 18.1302 65.5098 18.1166C66.2964 18.1004 66.2491 18.9723 65.4909 18.952C64.8681 18.9317 64.2616 19.3866 64.0937 19.7007C63.9258 20.0148 59.6733 27.5761 59.4432 28.0121C59.2157 28.4534 58.8001 28.3275 58.6525 28.0364V28.0391ZM39.077 22.6602C37.6162 22.8024 35.7749 23.6404 35.8792 24.6842C36.0511 26.4091 39.081 26.1004 39.0919 24.0398C39.1 22.5614 39.077 22.6616 39.077 22.6616V22.6602ZM39.2178 26.4538C39.2232 26.5242 36.7768 28.0784 34.8407 27.8902C34.329 27.8415 31.5319 27.7589 31.5671 25.1391C31.6077 22.0144 38.1794 22.1972 38.8008 21.1642C39.1122 20.6389 39.1745 18.6839 37.5904 18.7462C35.4798 18.8261 35.4608 20.5617 34.4427 21.3957C33.2445 22.3678 31.3803 21.5974 32.6515 19.9322C34.5591 17.4316 38.1225 17.6238 38.1943 17.6184C41.0279 17.4478 43.1277 19.0346 43.1169 20.8068C43.1115 22.1011 43.1088 25.2867 43.1074 25.4546C43.1101 25.8689 43.3728 26.8247 44.1486 26.8775C44.7226 26.9208 44.8485 27.702 44.1499 27.7426C44.1499 27.7426 40.9981 27.7426 40.99 27.7467C40.2887 27.7237 39.3166 27.2661 39.2205 26.4538H39.2178Z" fill="black"/>
<path d="M47.4385 42.6118C66.6282 42.6077 87.3288 36.2933 87.3261 22.6504C87.3261 11.4214 70.0264 4.91068 63.7295 3.32394C60.0673 2.3979 53.0029 1.71691 49.9553 2.61181C45.7881 3.83029 40.6042 11.2576 37.2249 12.2825C31.5942 13.9883 27.1237 4.53972 20.7105 7.35711C17.0293 8.97498 7.52518 15.3381 7.52924 22.6653C7.53059 35.4133 25.9797 42.6131 47.4385 42.6104V42.6118ZM94.094 22.6504C94.0967 37.4427 68.3665 43.6285 47.4385 43.6339C25.4585 43.638 0.761264 36.9878 0.757202 22.6707C0.757202 15.177 8.30094 9.63296 15.5022 6.427C23.1461 3.02203 30.3662 10.0635 35.1589 9.08464C39.0635 8.28045 40.7964 1.67223 44.0335 1.18484C46.3161 0.840955 50.8259 0.786801 52.9568 0.771908C70.3459 0.648706 94.09 8.66088 94.0927 22.6504H94.094Z" fill="black"/>
</g>
<defs>
<clipPath id="clip0_1233_3920">
<rect width="93.3368" height="42.8636" fill="white" transform="translate(0.757202 0.769531)"/>
</clipPath>
</defs>
</svg>
