<svg width="102" height="46" viewBox="0 0 102 46" fill="none" xmlns="http://www.w3.org/2000/svg">
<g clip-path="url(#clip0_1233_4117)">
<path d="M33.9837 30.2848C34.0781 26.0735 35.3254 21.4217 35.6249 20.4853C35.7357 20.1455 35.7634 19.6219 35.3128 19.6534C34.8559 19.6861 34.5513 19.9328 34.1385 20.1467C33.9396 19.7629 33.4677 19.2091 32.5854 19.272C32.3991 19.2871 32.204 19.3236 32.0077 19.3878C31.3834 19.593 30.6899 20.0687 29.9537 20.8037C26.7014 24.0522 24.5039 29.5095 24.4573 32.6359C24.4359 33.8529 24.6688 35.0536 25.2125 35.5873C25.4869 35.8491 25.833 36.0227 26.2081 36.0794C26.3717 36.1083 26.5428 36.1184 26.7128 36.1033C26.8474 36.0932 26.9846 36.0731 27.1105 36.0404C27.6617 35.9032 28.1941 35.5747 28.6774 35.0738C29.4452 34.2834 30.5892 32.4458 31.3885 30.8965C31.4262 31.8807 31.5684 33.0109 32.0077 33.6729C32.1436 33.8781 32.4369 34.2343 32.8963 34.3098C32.973 34.3211 33.0498 34.3249 33.1329 34.3173C33.1719 34.3148 33.2097 34.3098 33.2474 34.3022L33.3066 34.2959L33.3796 34.272C33.6388 34.1864 33.9547 33.9737 33.9459 33.4514C33.9359 32.7265 33.9522 31.8656 33.9837 30.2848ZM31.8604 25.1447C31.6427 26.0936 31.3406 28.1615 31.3343 28.2093C30.0921 30.7253 28.3477 33.5106 27.926 33.5433C27.113 33.6012 27.41 32.2193 27.5522 31.1935C27.9965 27.9891 30.8523 21.4393 32.4419 21.3235C32.5917 21.3122 32.7805 21.4293 32.9378 21.5476C32.6106 22.27 32.2393 23.5185 31.8604 25.1447Z" fill="black"/>
<path d="M43.8109 30.8715C43.8071 30.7847 43.8021 30.6827 43.8008 30.5694C43.7479 29.3159 43.7114 25.6483 44.3206 21.6925C44.4062 21.5264 45.7126 19.1552 45.7554 17.5152C45.7806 16.5159 45.1324 16.2151 44.6113 16.1358C44.4754 16.1169 44.3307 16.1144 44.1859 16.1245C44.0487 16.1333 43.9116 16.1597 43.7907 16.1924L43.7077 16.2151L43.69 16.2189C43.3238 16.3384 43.0784 16.5272 42.9739 16.6669C42.6467 17.0999 42.2099 17.7896 41.7543 19.9519C41.4988 21.1413 41.4397 21.6246 41.4195 21.9795L41.3226 22.9864C40.8683 23.4785 39.8563 24.4828 39.1175 24.8705L39.3617 23.3375C39.6348 21.539 39.8891 19.8424 39.9193 19.5793C39.957 19.2836 39.9709 18.8695 39.8324 18.5926C39.7317 18.3874 39.5492 18.2616 39.2988 18.2251L39.2812 18.2226L39.2686 18.2175C39.2283 18.2163 39.1591 18.2087 39.0773 18.2125L38.9325 18.2238L38.852 18.2465C37.7985 18.5599 37.3429 19.1627 37.2775 19.5856L37.2636 19.6611C37.0987 20.5673 36.949 21.4836 36.7929 22.4515L36.7186 22.8995C36.5512 23.9303 36.3423 25.1537 36.1397 26.2537C36.1321 26.2537 35.5205 26.3254 35.5205 26.3254C35.5205 26.3254 35.0623 26.5885 35.0271 27.073C34.9843 27.5954 35.0573 28.0724 36.0113 27.9994C35.6753 30.7708 35.5481 32.1591 35.5406 32.4636C35.5305 32.5983 35.5192 32.733 35.5116 32.8614C35.4575 33.4705 35.4273 33.8393 35.9345 33.9211C35.9987 33.9299 36.0679 33.9312 36.1384 33.9249C36.2706 33.9161 36.4052 33.8808 36.5387 33.8292C37.3945 33.5045 38.0553 32.5215 38.1925 31.3875C38.4014 29.6167 38.6644 27.6961 38.7274 27.2656C39.2874 26.9547 40.5977 26.0246 41.2496 25.2997C41.2408 26.3582 41.1514 30.134 41.923 31.3674C42.0387 31.5499 42.3622 31.8369 42.7813 31.8922C42.8606 31.9036 42.9399 31.9099 43.0217 31.901C43.286 31.8796 43.5277 31.7588 43.6611 31.5801C43.7706 31.4417 43.8134 31.2617 43.8096 31.01L43.8071 30.8715H43.8109Z" fill="black"/>
<path d="M54.7066 12.7641C54.6449 12.7565 54.548 12.7439 54.431 12.7427C54.3857 12.7414 54.3391 12.7427 54.2963 12.7464C54.1918 12.754 54.0886 12.7716 53.9867 12.8018L53.9666 12.8068C53.2227 13.0447 52.7407 13.7722 52.2007 15.4952L52.1982 15.5065C51.8546 16.7349 51.7854 17.4851 51.4796 19.5064L51.2543 21.2961C50.6451 22.5295 49.0731 27.4821 47.856 27.5703C47.5716 27.5929 48.0285 24.5672 49.0014 20.7927C49.7477 17.8929 50.7508 15.6941 50.7609 15.6752L50.771 15.6525C50.9698 15.1743 51.1297 14.7539 51.0164 14.4455C50.9195 14.1926 50.659 14.1171 50.5155 14.0969L50.489 14.0919C50.4513 14.0881 50.4097 14.0843 50.3644 14.0818H50.3493H50.3342C50.2851 14.0818 50.2348 14.0831 50.1819 14.0868C49.9957 14.1007 49.8006 14.1384 49.6181 14.1989C48.5583 14.5324 47.7365 15.5393 47.1789 17.1918C46.2161 20.03 45.5654 23.3514 45.4295 26.0801C45.2835 28.927 46.0638 29.9566 47.3979 29.8596C47.5301 29.8483 47.6572 29.8231 47.7893 29.7816C48.3393 29.613 48.8642 29.1863 49.4431 28.4425C50.1404 27.5489 51.0642 25.559 51.2845 24.6138C51.3185 25.6484 51.6835 27.4243 52.2398 28.119L52.2523 28.1328L52.2649 28.1429C52.7168 28.5935 52.9521 28.7206 53.1736 28.7559C53.2403 28.7684 53.3083 28.7722 53.3826 28.7672C53.4228 28.7647 53.4681 28.7596 53.5097 28.7483L53.5625 28.7357L53.6091 28.7168C53.7249 28.669 53.8847 28.5759 53.9766 28.3871C54.0471 28.2348 54.1037 27.9642 53.9691 27.1499C53.6506 24.4766 53.988 20.5749 54.3441 18.4592C54.6475 17.6877 55.5222 16.0163 55.6694 14.7401C55.7475 14.0655 55.7437 13.63 55.5713 13.3078C55.4077 13.0095 55.1182 12.827 54.7054 12.7628L54.7066 12.7641Z" fill="black"/>
<path d="M79.4873 5.63907C79.4218 5.63152 79.3236 5.61893 79.2066 5.61768C79.1588 5.61893 79.1147 5.61768 79.0681 5.62019C78.9624 5.629 78.8567 5.64914 78.7497 5.67935L78.7245 5.68438C77.943 5.92477 77.3892 6.66232 76.6743 8.41177L76.6718 8.42058C76.2124 9.66534 76.0714 10.4281 75.5705 12.4745L75.2105 13.9307C74.4793 15.1818 72.3787 20.5636 71.1276 20.6529C70.8394 20.6743 71.5795 17.6071 72.9262 13.781C73.9607 10.8396 75.1828 8.61063 75.1954 8.59049L75.2055 8.56784C75.4547 8.08202 75.6561 7.65661 75.5705 7.34448C75.4912 7.08898 75.2357 7.01095 75.0872 6.98829L75.0645 6.98578C75.0255 6.982 74.9827 6.97822 74.9399 6.97571H74.9236L74.9085 6.97445C74.8556 6.97571 74.804 6.97822 74.7537 6.982C74.5598 6.99459 74.3597 7.03109 74.1646 7.09276C73.0533 7.43132 72.1244 8.45331 71.4045 10.126C70.1623 13.0057 69.1881 16.3762 68.7929 19.1401C68.3826 22.0273 69.0761 23.0707 70.4467 22.9738C70.5839 22.9625 70.7186 22.936 70.8532 22.8958C71.4297 22.7259 72.0049 22.2916 72.6619 21.534C73.4586 20.6303 74.5825 18.6115 74.8946 17.6537C74.8367 18.7034 74.843 19.49 74.8934 20.22C74.9387 20.8228 75.3892 21.096 75.607 21.1325C75.6724 21.1463 75.7404 21.1526 75.8172 21.1463C75.86 21.1438 75.904 21.1362 75.9493 21.1274L75.9997 21.1161L76.0513 21.0947C76.1746 21.0481 76.3458 20.9512 76.4591 20.7612C76.5472 20.6051 76.6252 20.011 76.8417 19.0457C77.3791 16.2705 77.9505 13.4739 78.6415 10.9982C79.0253 10.2166 79.9278 8.7667 80.2777 7.64402C80.4878 6.98578 80.4614 6.51632 80.3142 6.1916C80.1732 5.88953 79.8976 5.70452 79.4835 5.63907H79.4873Z" fill="black"/>
<path d="M100.933 3.07513C100.677 2.01917 100.122 1.39364 99.3241 1.26526C99.1806 1.24261 99.0333 1.23757 98.8848 1.25016C98.3675 1.28666 97.6036 1.57614 96.9151 2.18278C96.564 2.52638 96.7238 2.66735 96.9441 2.60442C97.484 2.45464 98.0617 2.77936 98.2756 3.07261C98.7992 3.77366 98.5765 5.85916 98.2329 7.48527C97.5192 10.8206 95.6477 14.3975 94.4571 14.4831C93.4502 14.5561 93.2211 10.4417 93.7371 8.01137C93.9851 6.8308 94.3173 5.64394 94.846 4.48225C95.0574 4.01782 95.2701 3.54963 95.5848 3.1066C96.6848 1.55222 97.7659 1.02865 97.8628 0.934251C97.9207 0.880131 97.9522 0.831045 97.956 0.792029C97.9648 0.669944 97.7722 0.613307 97.5885 0.61079C97.5066 0.609532 97.4236 0.61079 97.3392 0.617083C96.1662 0.701409 93.6251 2.32249 92.1953 5.15308C91.6818 6.15745 91.2476 7.19454 91.0236 8.22785C91.0047 8.31343 90.9883 8.39902 90.9695 8.4846C90.5894 10.6846 90.4837 15.6989 94.223 15.6297C95.1543 15.6121 96.5337 14.7449 97.5306 13.7443C99.8451 11.3882 101.826 6.84464 100.933 3.07261V3.07513Z" fill="black"/>
<path d="M67.0132 6.29872C67.8464 5.87079 68.6129 5.70214 69.1755 5.71347C69.3844 5.71724 69.7117 5.67445 69.6726 5.37365C69.5518 4.83245 69.0962 4.47878 67.8653 4.57066C66.4179 4.67764 64.4721 5.69585 62.6005 7.36475C59.7901 9.86434 57.6744 13.3859 56.5706 18.3209C55.7739 21.889 56.0936 23.7366 56.5089 25.1777C57.113 27.2721 58.5252 28.0083 59.9323 27.885C60.9895 27.7893 61.5886 27.481 61.9574 27.1336C62.1789 26.9247 62.082 26.6264 61.9347 26.6642C61.4842 26.7799 61.1632 26.7611 60.9115 26.7422C59.6378 26.6465 58.3175 24.5849 58.8549 19.4738C59.2048 16.1498 60.734 12.8636 62.9454 10.0317C63.5093 9.31055 64.1197 8.61077 64.7792 7.95756C65.4475 7.29427 66.1964 6.79083 67.0119 6.29872H67.0132Z" fill="black"/>
<path d="M89.7385 12.478C89.6668 11.8298 89.6467 11.1879 89.6655 10.5624C89.692 9.19052 89.8719 7.91304 90.0192 6.89357V6.87847C90.2822 5.0623 90.2684 4.99434 89.7473 4.82191L89.7272 4.81436C89.6064 4.77282 89.4705 4.73003 89.3056 4.70486C89.2024 4.69102 89.1055 4.6885 89.0048 4.69857C88.3541 4.75772 87.9324 5.26871 87.643 5.70545L87.6329 5.72055C86.8953 6.92755 85.8885 8.10057 84.6928 14.746C84.8375 10.6492 85.375 8.13959 85.4165 7.39953C85.4417 6.88098 85.4782 6.39768 85.5071 5.97227L85.4492 6.85833C85.5927 4.80932 85.6267 4.08815 85.2831 3.8251L85.268 3.81629C85.1899 3.76091 85.093 3.72567 84.9861 3.7156C84.9193 3.70553 84.8451 3.70679 84.7721 3.71182C83.8571 3.79615 82.5444 5.13404 82.2234 6.72366C81.6948 9.00424 78.8655 17.3689 78.8655 17.3689C78.5496 18.3091 76.8354 23.4845 75.0444 24.996C74.5774 25.502 74.0173 25.9601 73.4333 26.3969C73.6435 26.4623 73.8814 26.49 74.147 26.4648C76.0663 26.2886 77.4596 24.7984 78.9863 22.0345C80.5281 19.2379 81.282 16.8743 83.1397 9.9847C83.0428 11.5668 82.7873 13.174 82.7319 15.0644C82.6904 16.4539 83.2064 17.5124 83.4657 17.8937C83.55 18.0108 83.6758 18.1895 83.959 18.2273C84.0157 18.2386 84.0773 18.2399 84.1378 18.2336C84.2548 18.2222 84.3719 18.1883 84.4851 18.1329C85.4958 17.6508 85.4115 16.8592 86.0785 14.1532C86.0785 14.1532 86.3428 11.6121 87.1571 9.86513C87.1508 10.1043 86.9482 12.0224 86.9356 13.3691C86.9105 17.2242 89.2804 18.1732 91.3785 18.0901C92.768 17.8988 93.3281 17.5804 93.3809 17.345C93.3784 17.0895 92.7629 17.1247 92.2419 17.0102C91.4049 16.8579 90.1199 16.0826 89.7385 12.478Z" fill="black"/>
<path d="M68.5097 9.36827C68.3863 9.34561 68.2466 9.34058 68.1044 9.35065C67.606 9.38966 67.1315 9.61118 66.8118 9.77606C66.4091 9.9875 65.9988 10.2795 65.596 10.6407C63.688 12.3486 61.5144 15.7922 61.1368 20.3345C60.909 23.077 61.863 25.2543 63.4111 25.5149C63.4539 25.5199 63.5004 25.5275 63.5369 25.5287C63.7207 25.5463 63.9032 25.5501 64.0819 25.5375C65.2373 25.4519 66.3046 24.7396 67.1088 23.5301C67.5066 22.9209 67.5217 22.5672 67.4965 22.4112C67.4499 22.133 67.2322 22.055 67.1051 22.0336L66.7942 21.9883C66.7942 21.9883 65.8314 23.4835 65.0284 23.5426C63.8541 23.6307 63.9107 19.3377 64.4381 17.2887C64.8987 15.5543 65.5746 13.7306 66.9062 12.1158C67.2762 11.664 67.5632 11.3694 67.9836 11.3342C68.1359 11.3216 68.2869 11.4953 68.2063 11.9195C68.156 12.2127 68.1459 12.7715 68.7035 12.6406C69.1855 12.5236 69.3139 11.9597 69.3919 11.6677C69.582 10.9755 69.6474 10.0743 69.0597 9.60363C68.9023 9.48154 68.7148 9.39973 68.5084 9.36827H68.5097Z" fill="black"/>
<path d="M25.5272 17.9378C25.2062 16.3243 24.6311 14.9486 23.8167 13.8499C22.7935 12.4704 21.3914 11.529 19.6483 11.052C19.6407 11.0507 19.6344 11.0482 19.6281 11.0469C19.5413 11.0318 17.4595 10.6807 14.5018 11.5894C12.556 12.1872 10.6933 13.1903 8.96398 14.5723C6.77527 16.3205 4.80934 18.6741 3.11652 21.5676C3.114 21.5726 3.11148 21.5777 3.10897 21.5814C3.08757 21.623 0.978154 25.76 0.0354612 29.5736C0.0342026 29.5786 0.032944 29.5824 0.0316854 29.5874C0.0203579 29.6441 -0.0690028 30.1576 0.16258 30.437C0.258234 30.5528 0.395421 30.6132 0.55904 30.6132C0.611901 30.6195 0.712589 30.6207 0.844742 30.5805C1.07129 30.5112 1.40734 30.3099 1.72702 29.741C1.73206 29.7334 1.73583 29.7259 1.73835 29.7183C1.74968 29.6919 2.94283 27.0589 4.97547 24.2019C6.16485 22.5292 7.40332 21.1082 8.65814 19.978C10.215 18.5746 11.7984 17.6206 13.3653 17.1386C14.089 16.9158 14.8215 16.7925 15.5414 16.7686C15.5729 16.7686 16.1003 16.7698 16.795 16.9825C17.4482 17.1826 18.3884 17.6156 19.1587 18.5444C19.7829 19.2971 20.2121 20.2687 20.4324 21.4304C20.7004 22.8375 20.6665 24.5442 20.3317 26.5001C20.3317 26.5026 20.3304 26.5051 20.3304 26.5076C20.3279 26.524 20.0888 28.1866 19.2342 30.5377C18.732 31.9171 18.1203 33.2588 17.4155 34.5262C16.5345 36.1095 15.5049 37.5821 14.3533 38.9036C14.3458 38.9137 13.505 39.8916 12.3156 40.9664C10.7587 42.3736 9.31387 43.3099 8.13708 43.6712C8.13582 43.6712 8.13582 43.6712 8.13582 43.6712C7.50275 43.865 6.93763 43.8977 6.45307 43.7706C5.91565 43.6284 5.45878 43.281 5.09504 42.7373C5.06609 42.6706 4.93016 42.3421 4.82318 41.7933C4.71117 41.2257 4.60922 40.3006 4.75018 39.1125C4.90877 37.7759 5.33669 36.3839 6.02263 34.9767C6.88351 33.2122 8.15344 31.4162 9.80095 29.6415C9.80221 29.6403 9.80347 29.639 9.80347 29.6378C9.86766 29.5673 11.3478 27.8996 11.3125 26.6725C11.3276 26.5768 11.3729 26.2471 11.3654 25.8695C11.3528 25.2452 11.2056 24.806 10.9274 24.5656C10.7525 24.4146 10.434 24.2698 9.90919 24.4309C9.18927 24.6524 8.24029 25.3849 7.00937 26.67C6.84953 26.8109 5.24104 28.2546 3.7647 30.7214C2.86983 32.2166 2.21284 33.776 1.81009 35.3556C1.30791 37.3316 1.20596 39.3466 1.50803 41.3415C1.51935 41.4258 1.69304 42.6542 2.47589 43.8335C2.94535 44.5396 3.53689 45.0795 4.23542 45.4382C5.10385 45.8838 6.1359 46.0462 7.30137 45.919C7.4159 45.9165 8.16603 45.8888 9.34912 45.5263C10.8544 45.0644 12.3748 44.2778 13.8725 43.1916C15.9253 41.7002 17.8661 39.6789 19.6432 37.1831C19.7527 37.0509 20.8527 35.6941 22.1302 33.3544C22.903 31.9397 23.5789 30.4584 24.1389 28.9506C24.8387 27.0677 25.3585 25.1395 25.6833 23.2189C25.6833 23.2176 25.6833 23.2164 25.6833 23.2164C25.6996 23.1132 26.0722 20.6715 25.5284 17.9353L25.5272 17.9378Z" fill="black"/>
</g>
<defs>
<clipPath id="clip0_1233_4117">
<rect width="101.146" height="45.3512" fill="white" transform="translate(0.00524902 0.611816)"/>
</clipPath>
</defs>
</svg>
