<svg width="58" height="79" viewBox="0 0 58 79" fill="none" xmlns="http://www.w3.org/2000/svg">
<g clip-path="url(#clip0_1233_3944)">
<path fill-rule="evenodd" clip-rule="evenodd" d="M28.8981 0.289802C14.2207 0.289802 2.16648 11.5094 0.843521 25.8405C1.24665 25.284 1.55326 24.9604 1.82012 24.7049C2.17216 24.3642 2.45605 24.1314 2.65478 23.9611C2.85351 23.7907 2.96139 23.6828 3.01249 23.5295C3.06359 23.3762 3.05223 23.1832 3.0352 22.9447C3.01817 22.7062 2.9841 22.4167 2.97842 22.1044C2.97274 21.7864 2.9841 21.4401 3.28503 20.7587C3.58596 20.0774 4.17078 19.0667 5.07925 18.0447C5.98772 17.0226 7.21415 15.9836 8.73016 15.0297C10.2462 14.0701 12.0461 13.19 13.687 12.6166C15.3279 12.0431 16.8098 11.7819 17.6104 11.6684C18.4053 11.5548 18.5132 11.5832 18.5132 11.6684C18.5075 11.7535 18.394 11.8898 18.0987 12.2248C17.8035 12.5541 17.3209 13.0822 17.071 13.3774C16.8212 13.6727 16.7985 13.7465 17.3947 13.6216C17.9909 13.4967 19.2116 13.1787 20.1939 13.0311C21.1705 12.8778 21.9029 12.8948 22.3288 12.9743C22.749 13.0538 22.8568 13.2014 22.8228 13.3206C22.7887 13.4399 22.6127 13.5307 22.3912 13.684C22.1755 13.8373 21.92 14.0417 21.7951 14.161C21.6701 14.2802 21.6815 14.3143 22.1868 14.3427C22.6979 14.3711 23.7085 14.4051 24.6851 14.5527C25.6561 14.7004 26.5929 14.9616 27.3935 15.2511C28.1941 15.5407 28.8584 15.8587 29.3694 16.2334C29.8804 16.6082 30.2325 17.0397 30.3574 17.3293C30.4823 17.6131 30.3744 17.7551 30.1814 17.8289C29.994 17.9084 29.7214 17.9198 29.5681 17.9481C29.4148 17.9765 29.3751 18.0163 29.3921 18.1014C29.4092 18.1866 29.4773 18.3172 29.835 18.8453C30.1927 19.3733 30.84 20.2988 31.2488 21.213C31.6576 22.1271 31.8336 23.0356 32.0324 23.7396C32.2311 24.4437 32.4525 24.949 32.9068 25.4203C33.361 25.8916 34.0537 26.3288 34.8713 26.6581C35.6889 26.9931 36.6258 27.2202 37.1766 27.436C37.7273 27.6517 37.8863 27.8618 37.9317 28.1287C37.9715 28.3955 37.892 28.7248 37.6989 29.0542C37.5059 29.3778 37.205 29.7015 37.0687 29.9399C36.9324 30.1784 36.9665 30.3317 37.2106 30.5815C37.4548 30.8314 37.9147 31.172 38.1872 31.4332C38.4598 31.6944 38.5449 31.8761 38.5279 32.0691C38.5052 32.2622 38.3803 32.4723 38.0283 32.7846C37.6762 33.0968 37.0971 33.5113 36.7905 33.7555C36.4839 33.9996 36.4498 34.0621 36.5066 34.1075C36.5633 34.1529 36.711 34.17 36.9778 34.17C37.2447 34.17 37.6251 34.1473 37.8806 34.1643C38.1305 34.1757 38.2554 34.2268 38.3633 34.3573C38.4711 34.4879 38.562 34.7037 38.5733 34.8911C38.579 35.0784 38.4995 35.2431 38.4314 35.51C38.3633 35.7825 38.3121 36.1629 38.3235 36.4979C38.3349 36.8329 38.42 37.1111 38.6017 37.4632C38.7834 37.8152 39.0673 38.2411 39.2149 38.6442C39.3626 39.053 39.3739 39.4391 39.1298 39.8933C38.8799 40.3419 38.3689 40.8529 37.6365 41.2787C36.904 41.7046 35.9501 42.0453 35.0928 42.3462C34.2354 42.6471 33.4746 42.9026 32.8727 43.2603C32.2708 43.618 31.8166 44.0836 31.4305 44.7934C31.0387 45.5031 30.7094 46.457 30.3801 47.4109C30.0451 48.3648 29.7101 49.3187 29.5284 49.9489C29.3467 50.5792 29.3183 50.8801 29.3864 51.1526C29.4546 51.4252 29.6136 51.6693 30.1416 51.9248C30.6697 52.186 31.5611 52.4586 32.5831 52.7822C33.6051 53.1059 34.7521 53.4863 35.5016 53.7418C36.2511 54.003 36.5974 54.1392 36.8756 54.2812C37.1539 54.4231 37.3526 54.5651 37.54 54.7411C37.6705 54.866 37.7955 55.008 37.909 55.1556C49.0605 51.4025 57.089 40.8586 57.089 28.4466C57.089 12.8834 44.4727 0.26709 28.9095 0.26709L28.8981 0.289802ZM1.52487 35.1806C2.9841 41.1481 6.33975 46.3662 10.9162 50.1647L10.9502 50.1931C11.0524 50.2782 11.2001 50.3975 11.3704 50.4486C11.5407 50.4997 11.7395 50.4827 11.8757 50.4088C12.012 50.335 12.0801 50.2044 12.3243 49.5685C12.5741 48.9326 12.9943 47.7856 13.1987 47.1781C13.4031 46.5706 13.3861 46.5024 13.3122 46.3378C13.2328 46.1731 13.0965 45.9176 12.8694 45.6564C12.6479 45.3952 12.3356 45.1227 12.1483 44.9864C11.9609 44.8502 11.8871 44.8388 11.8417 44.8899C11.7906 44.941 11.7622 45.0489 11.7622 45.2476C11.7678 45.4463 11.8019 45.7302 11.8189 45.8949C11.8303 46.0595 11.8133 46.105 11.7508 46.1163C11.6827 46.1277 11.5691 46.105 10.9048 45.611C10.2405 45.117 9.02541 44.1518 7.87847 43.0957C6.73153 42.0396 5.64705 40.8983 4.61934 39.6492C3.59164 38.4 2.62071 37.043 1.99046 36.0096C1.80877 35.7087 1.65546 35.4362 1.51919 35.1806H1.52487ZM26.8654 26.6581C27.0869 26.3231 27.5071 25.5963 27.9159 25.0172C28.3247 24.438 28.7278 24.0008 29.0798 23.6942C29.4375 23.3933 29.7442 23.2229 29.9713 23.1434C30.1927 23.064 30.3347 23.0696 30.4369 23.1037C30.5447 23.1378 30.6186 23.2059 30.6697 23.2456C30.7151 23.2854 30.7378 23.2911 30.7605 23.257C30.7832 23.2229 30.8116 23.1378 30.8173 22.9845C30.823 22.8312 30.8173 22.5984 30.7662 22.4337C30.7151 22.2634 30.6242 22.1612 30.4993 22.1101C30.3744 22.059 30.2097 22.0646 29.9713 22.1271C29.7328 22.1896 29.4262 22.3145 29.0742 22.5586C28.7278 22.8028 28.3417 23.1662 27.9897 23.5863C27.6376 24.0065 27.3254 24.4778 27.0926 24.9433C26.8654 25.4089 26.7235 25.8632 26.6497 26.1868C26.5816 26.5048 26.5816 26.6921 26.5986 26.8114C26.6156 26.9306 26.644 26.9931 26.8654 26.6638V26.6581ZM28.6654 27.2372C28.7335 26.9533 28.8754 26.4139 29.0231 25.9994C29.1707 25.585 29.324 25.2954 29.5227 25.108C29.7158 24.9206 29.9542 24.8355 30.1303 24.7276C30.3063 24.6197 30.4198 24.4891 30.5107 24.4153C30.6015 24.3358 30.6697 24.3074 30.7151 24.3245C30.7605 24.3415 30.7889 24.3983 30.7548 24.5118C30.7151 24.6254 30.6129 24.8014 30.5561 24.9093C30.4993 25.0228 30.488 25.0739 30.488 25.125C30.4936 25.1761 30.5107 25.2329 30.5561 25.284C30.6015 25.3408 30.6753 25.3919 30.7378 25.4941C30.8003 25.5963 30.8514 25.7383 30.8741 25.8461C30.8911 25.954 30.8797 26.0222 30.8968 26.096C30.9195 26.1641 30.9706 26.2379 31.0387 26.2833C31.1069 26.3288 31.1864 26.3572 31.2204 26.3912C31.2602 26.4253 31.2602 26.4707 31.2147 26.5161C31.1693 26.5616 31.0841 26.607 30.9649 26.6751C30.8514 26.7433 30.7094 26.8341 30.5618 26.9306C30.4142 27.0215 30.2665 27.118 30.0735 27.2088C29.8804 27.294 29.642 27.3735 29.4092 27.4303C29.1707 27.4871 28.9379 27.5211 28.8016 27.5438C28.6654 27.5665 28.6256 27.5779 28.6029 27.5665C28.5802 27.5552 28.5802 27.5211 28.654 27.2372H28.6654ZM44.3818 20.4351C44.3251 20.0092 44.2626 19.1973 44.1604 18.4819C44.0582 17.7721 43.9219 17.1589 43.8254 16.8182C43.7289 16.4832 43.6721 16.4265 43.5756 16.3754C43.4791 16.3243 43.3428 16.2788 42.7523 16.2448C42.1618 16.2107 41.117 16.1766 40.5776 16.1482C40.0439 16.1199 40.0155 16.0915 40.0212 16.0517C40.0269 16.012 40.0666 15.9609 40.5549 15.6088C41.0489 15.2568 41.9971 14.5982 42.4968 14.2291C43.0021 13.86 43.0589 13.7806 43.0419 13.5761C43.0248 13.3717 42.934 13.0538 42.7125 12.5257C42.4911 12.0034 42.1334 11.2766 41.912 10.811C41.6905 10.3454 41.6053 10.1296 41.577 9.99905C41.5486 9.86846 41.5826 9.82304 41.6564 9.83439C41.7359 9.84575 41.8552 9.91388 42.1845 10.0956C42.5138 10.2829 43.0419 10.5839 43.5074 10.8905C43.973 11.1971 44.3705 11.498 44.5976 11.6684C44.8247 11.8387 44.8758 11.8728 44.9383 11.8898C45.0007 11.9068 45.0746 11.9012 45.1484 11.8784C45.2222 11.8557 45.296 11.8046 45.5118 11.5662C45.7332 11.3277 46.0966 10.8962 46.3123 10.6293C46.5281 10.3624 46.5906 10.2546 46.653 10.1978C46.7098 10.141 46.7666 10.1296 46.812 10.158C46.8574 10.1807 46.8858 10.2432 46.9369 10.6804C46.9823 11.1233 47.0505 11.9409 47.0732 12.5144C47.0959 13.0822 47.0845 13.4001 47.0902 13.5989C47.1016 13.7976 47.13 13.8771 47.5274 14.3711C47.9249 14.8594 48.6857 15.7565 49.1229 16.3243C49.5601 16.8921 49.6737 17.1248 49.7305 17.2782C49.7872 17.4315 49.7872 17.4939 49.6453 17.5053C49.5033 17.5166 49.2194 17.4712 48.7198 17.3463C48.2201 17.2271 47.5047 17.0283 47.1073 16.9318C46.7098 16.8353 46.6246 16.8296 46.5395 16.8693C46.4543 16.9091 46.3748 16.9943 46.1988 17.3804C46.0228 17.7665 45.7502 18.4535 45.5004 19.0213C45.2562 19.5834 45.0348 20.0263 44.8758 20.3215C44.7168 20.6168 44.6203 20.7701 44.5465 20.8269C44.4727 20.8836 44.4273 20.8382 44.3762 20.4124L44.3818 20.4351Z" fill="black"/>
<path fill-rule="evenodd" clip-rule="evenodd" d="M0.810163 70.6106C0.827197 70.1507 0.878298 69.2479 0.895332 67.8852C0.918043 66.5225 0.912365 64.6886 0.895332 63.5473C0.878298 62.4061 0.84423 61.9518 0.810163 61.6509C0.776095 61.35 0.747706 61.2023 0.73635 61.1115C0.724994 61.0206 0.73635 60.9809 0.815841 60.9525C0.895332 60.9241 1.04864 60.9014 1.63914 60.8617C2.22964 60.8276 3.26303 60.7765 4.12039 60.8162C4.97776 60.856 5.65911 60.9922 6.28936 61.2194C6.92529 61.4465 7.51011 61.7758 7.98138 62.1789C8.45265 62.5821 8.799 63.059 9.0318 63.5871C9.26459 64.1151 9.37815 64.6999 9.41222 65.228C9.44629 65.756 9.40086 66.2216 9.29866 66.7497C9.19646 67.2777 9.04315 67.8569 8.75926 68.3906C8.48104 68.9243 8.07223 69.4069 7.56689 69.793C7.06156 70.1791 6.45402 70.4687 5.78402 70.6958C5.11403 70.9229 4.38726 71.0933 3.66616 71.1671C2.95074 71.2409 2.24668 71.2182 1.78677 71.1898C1.32685 71.1614 1.10541 71.1273 0.980501 71.1103C0.855586 71.0933 0.827197 71.0933 0.804485 71.0876C0.787451 71.0819 0.781773 71.0649 0.798807 70.605L0.810163 70.6106ZM2.93371 68.243C2.94506 67.1301 2.97345 64.9157 2.98481 63.7971C2.99616 62.6786 2.99616 62.6616 3.09269 62.6502C3.18921 62.6388 3.38226 62.6332 3.73429 62.6502C4.092 62.6672 4.60869 62.7127 5.06861 62.8376C5.52852 62.9625 5.93165 63.1612 6.24961 63.3883C6.56758 63.6154 6.80037 63.871 6.98774 64.2003C7.17512 64.5296 7.32274 64.9327 7.3852 65.3699C7.45333 65.8071 7.44198 66.2784 7.40223 66.6361C7.36817 66.9938 7.30571 67.238 7.16944 67.5105C7.03317 67.783 6.82876 68.084 6.56758 68.3452C6.30072 68.612 5.98275 68.8391 5.53987 69.0152C5.10267 69.1855 4.55192 69.299 4.1431 69.3558C3.73429 69.4069 3.46743 69.4069 3.28574 69.4012C3.10404 69.4012 3.0132 69.4012 2.9621 69.3899C2.91667 69.3785 2.91667 69.3615 2.92803 68.2486L2.93371 68.243Z" fill="black"/>
<path fill-rule="evenodd" clip-rule="evenodd" d="M9.73588 70.9285C9.99706 70.9285 10.4399 70.9285 10.7011 70.9285C10.9623 70.9285 11.0361 70.9285 11.1156 70.9058C11.1894 70.8831 11.2689 70.832 11.3087 70.7468C11.3484 70.656 11.3541 70.5311 11.3825 70.2301C11.4109 69.9292 11.4676 69.4523 11.496 69.1797C11.5244 68.9072 11.5358 68.8334 11.5415 68.7936C11.5528 68.7539 11.5642 68.7368 11.5982 68.7255C11.6323 68.7141 11.6891 68.7028 12.4386 68.7028C13.1881 68.6971 14.6303 68.6971 15.3627 68.7085C16.0952 68.7198 16.1235 68.7482 16.1463 68.7879C16.1633 68.8277 16.1746 68.8845 16.2144 69.2081C16.2541 69.5318 16.3166 70.1336 16.3507 70.4459C16.3847 70.7582 16.3904 70.7866 16.4131 70.8206C16.4358 70.8547 16.4699 70.8945 16.5437 70.9172C16.6175 70.9399 16.7254 70.9399 17.0547 70.9399C17.384 70.9399 17.9348 70.9399 18.2301 70.9342C18.5253 70.9285 18.5594 70.9172 18.5821 70.8888C18.6048 70.8604 18.6105 70.815 18.5594 70.4232C18.5083 70.0314 18.4004 69.2876 18.2471 68.5154C18.0938 67.7432 17.9007 66.9313 17.6509 66.1591C17.4011 65.3869 17.1058 64.6431 16.8219 64.0242C16.5324 63.4053 16.2598 62.9113 15.9646 62.4571C15.675 62.0085 15.3684 61.5997 15.1924 61.3839C15.0164 61.1625 14.9652 61.1284 14.9255 61.1114C14.8858 61.0944 14.8517 61.0887 14.5167 61.083C14.1817 61.083 13.5514 61.083 13.2164 61.083C12.8871 61.0887 12.8531 61.0944 12.8303 61.1114C12.802 61.1284 12.7792 61.1568 12.5919 61.4123C12.4045 61.6735 12.0582 62.1618 11.7175 62.7239C11.3768 63.286 11.0418 63.922 10.7352 64.626C10.4286 65.3358 10.156 66.1136 9.93461 66.8745C9.71885 67.6353 9.55419 68.3791 9.44063 69.0094C9.32707 69.6396 9.25893 70.162 9.22487 70.4459C9.1908 70.7298 9.17944 70.7695 9.17944 70.8036C9.17944 70.8377 9.18512 70.8661 9.21351 70.8888C9.23622 70.9115 9.28165 70.9228 9.33843 70.9285C9.3952 70.9342 9.46902 70.9342 9.7302 70.9342L9.73588 70.9285ZM12.6941 66.9994C13.2675 67.0051 14.3634 67.0051 14.9312 67.0051C15.499 67.0051 15.533 67.0051 15.5614 66.9994C15.5898 66.9937 15.6182 66.9767 15.6352 66.954C15.6523 66.9313 15.6636 66.8915 15.6693 66.8404C15.675 66.7893 15.6693 66.7212 15.5671 66.4032C15.4649 66.0853 15.2662 65.5231 15.0504 65.0178C14.8347 64.5125 14.6132 64.0696 14.4429 63.7516C14.2782 63.4337 14.1703 63.2463 14.0908 63.1271C14.0114 63.0135 13.9603 62.9738 13.9262 62.951C13.8921 62.9283 13.8751 62.9227 13.8524 62.9283C13.8297 62.934 13.8013 62.951 13.7104 63.0703C13.6196 63.1895 13.472 63.411 13.2846 63.7516C13.0915 64.0923 12.8587 64.5579 12.6543 65.0576C12.4499 65.5572 12.2796 66.1023 12.1774 66.4146C12.0752 66.7325 12.0411 66.8177 12.0298 66.8745C12.0184 66.9313 12.0241 66.954 12.0525 66.971C12.0809 66.988 12.1263 66.9937 12.6941 66.9937V66.9994Z" fill="black"/>
<path fill-rule="evenodd" clip-rule="evenodd" d="M20.4955 70.9288C20.2173 70.9288 19.7688 70.9288 19.5132 70.9117C19.2577 70.8947 19.1953 70.8663 19.1555 70.8266C19.1158 70.7868 19.0988 70.7414 19.0874 70.6676C19.0704 70.5938 19.059 70.4859 19.0533 68.9188C19.0477 67.3574 19.0477 64.3424 19.0477 62.815C19.0477 61.2877 19.0477 61.2536 19.059 61.2195C19.0704 61.1911 19.0874 61.1627 19.1215 61.14C19.1555 61.1173 19.2066 61.0889 19.2861 61.0776C19.3713 61.0662 19.4905 61.0662 19.746 61.0662C20.0015 61.0662 20.3876 61.0662 20.592 61.0662C20.7965 61.0662 20.8192 61.0662 20.8703 61.0833C20.9214 61.1003 21.0065 61.1287 21.3813 61.4466C21.756 61.7646 22.4203 62.3665 22.9484 62.8888C23.4764 63.4112 23.8796 63.8541 24.1975 64.2231C24.5155 64.5922 24.7596 64.8931 24.9357 65.1146C25.1117 65.336 25.2139 65.4836 25.2763 65.5575C25.3388 65.6313 25.3615 65.6313 25.3956 65.6256C25.4296 65.6199 25.4751 65.6086 25.5035 65.5972C25.5262 65.5858 25.5262 65.5688 25.5262 64.842C25.5262 64.1153 25.5262 62.6674 25.5262 61.9406C25.5262 61.2139 25.5262 61.1968 25.5318 61.1798C25.5375 61.1627 25.5489 61.1457 25.5773 61.123C25.6057 61.106 25.6454 61.0833 25.7703 61.0719C25.8952 61.0605 26.0996 61.0605 26.3779 61.0605C26.6561 61.0605 27.0024 61.0605 27.1898 61.0605C27.3772 61.0605 27.4112 61.0605 27.4453 61.0719C27.485 61.0833 27.5248 61.1116 27.5475 61.1457C27.5702 61.1798 27.5816 61.2195 27.5816 62.8037C27.5873 64.3878 27.5873 67.5163 27.5873 69.0948C27.5873 70.6676 27.5873 70.6903 27.5816 70.7187C27.5759 70.7471 27.5702 70.7755 27.5589 70.8039C27.5475 70.8266 27.5248 70.8436 27.4964 70.8663C27.468 70.8834 27.4283 70.9061 27.2125 70.9174C26.9967 70.9288 26.605 70.9288 26.3495 70.9288C26.094 70.9288 25.9861 70.9288 25.9123 70.9231C25.8385 70.9174 25.8101 70.9061 25.7703 70.889C25.7306 70.872 25.6908 70.8436 25.6454 70.7641C25.6 70.6846 25.5546 70.554 25.4353 70.2474C25.3161 69.9465 25.1344 69.4695 24.8618 68.9018C24.5893 68.334 24.2316 67.6753 23.8285 67.0678C23.4253 66.4603 22.9825 65.9095 22.6134 65.4836C22.2386 65.0521 21.9377 64.7455 21.7447 64.5695C21.5516 64.3935 21.4664 64.3481 21.404 64.3254C21.3472 64.3026 21.3131 64.297 21.2848 64.3026C21.2564 64.3083 21.2337 64.3254 21.2223 64.3651C21.2053 64.4048 21.1939 64.4616 21.1939 65.5234C21.1882 66.5852 21.1882 68.6519 21.1882 69.6967C21.1882 70.7414 21.1882 70.7755 21.1882 70.8039C21.1882 70.8323 21.1826 70.8493 21.1712 70.872C21.1598 70.8947 21.1485 70.9117 21.1144 70.9174C21.0804 70.9288 21.0349 70.9288 20.9554 70.9288C20.8759 70.9288 20.7737 70.9288 20.4955 70.9288Z" fill="black"/>
<path fill-rule="evenodd" clip-rule="evenodd" d="M40.0503 70.9288C39.7721 70.9288 39.3235 70.9288 39.068 70.9117C38.8125 70.8947 38.7501 70.8663 38.7103 70.8266C38.6706 70.7868 38.6535 70.7414 38.6422 70.6676C38.6252 70.5938 38.6138 70.4859 38.6081 68.9188C38.6024 67.3574 38.6024 64.3424 38.6024 62.815C38.6024 61.2877 38.6024 61.2536 38.6138 61.2195C38.6252 61.1911 38.6422 61.1627 38.6763 61.14C38.7103 61.1173 38.7614 61.0889 38.8409 61.0776C38.9261 61.0662 39.0453 61.0662 39.3008 61.0662C39.5563 61.0662 39.9424 61.0662 40.1468 61.0662C40.3512 61.0662 40.374 61.0662 40.4251 61.0833C40.4762 61.1003 40.5613 61.1287 40.9361 61.4466C41.3108 61.7646 41.9751 62.3665 42.5032 62.8888C43.0312 63.4112 43.4344 63.8541 43.7523 64.2231C44.0703 64.5922 44.3144 64.8931 44.4905 65.1146C44.6665 65.336 44.7687 65.4836 44.8311 65.5575C44.8936 65.6313 44.9163 65.6313 44.9504 65.6256C44.9844 65.6199 45.0299 65.6086 45.0583 65.5972C45.081 65.5858 45.081 65.5688 45.081 64.842C45.081 64.1153 45.081 62.6674 45.081 61.9406C45.081 61.2139 45.081 61.1968 45.0866 61.1798C45.0923 61.1627 45.1037 61.1457 45.1321 61.123C45.1605 61.106 45.2002 61.0833 45.3251 61.0719C45.45 61.0605 45.6544 61.0605 45.9327 61.0605C46.2109 61.0605 46.5572 61.0605 46.7446 61.0605C46.932 61.0605 46.966 61.0605 47.0001 61.0719C47.0398 61.0833 47.0796 61.1116 47.1023 61.1457C47.125 61.1798 47.1364 61.2195 47.1364 62.8037C47.1421 64.3878 47.142 67.5163 47.142 69.0948C47.142 70.6676 47.1421 70.6903 47.1364 70.7187C47.1307 70.7471 47.125 70.7755 47.1137 70.8039C47.1023 70.8266 47.0796 70.8436 47.0512 70.8663C47.0228 70.8834 46.9831 70.9061 46.7673 70.9174C46.5515 70.9288 46.1598 70.9288 45.9043 70.9288C45.6488 70.9288 45.5409 70.9288 45.4671 70.9231C45.3932 70.9174 45.3649 70.9061 45.3251 70.889C45.2854 70.872 45.2456 70.8436 45.2002 70.7641C45.1548 70.6846 45.1093 70.554 44.9901 70.2474C44.8709 69.9465 44.6892 69.4695 44.4166 68.9018C44.1441 68.334 43.7864 67.6753 43.3833 67.0678C42.9801 66.4603 42.5373 65.9095 42.1682 65.4836C41.7934 65.0521 41.4925 64.7455 41.2995 64.5695C41.1064 64.3935 41.0212 64.3481 40.9588 64.3254C40.902 64.3026 40.8679 64.297 40.8396 64.3026C40.8112 64.3083 40.7884 64.3254 40.7771 64.3651C40.7601 64.4048 40.7487 64.4616 40.7487 65.5234C40.743 66.5852 40.743 68.6519 40.743 69.6967C40.743 70.7414 40.743 70.7755 40.743 70.8039C40.743 70.8323 40.7374 70.8493 40.726 70.872C40.7146 70.8947 40.7033 70.9117 40.6692 70.9174C40.6351 70.9288 40.5897 70.9288 40.5102 70.9288C40.4307 70.9288 40.3285 70.9288 40.0503 70.9288Z" fill="black"/>
<path fill-rule="evenodd" clip-rule="evenodd" d="M33.1289 60.7539C30.3978 60.7539 28.1777 63.1046 28.1777 66.0003C28.1777 68.8961 30.3921 71.2467 33.1289 71.2467C35.86 71.2467 38.08 68.8961 38.08 66.0003C38.08 63.1046 35.8656 60.7539 33.1289 60.7539ZM33.1289 62.5992C31.4255 62.5992 30.0458 64.1209 30.0458 66.0003C30.0458 67.8797 31.4255 69.4014 33.1289 69.4014C34.8323 69.4014 36.212 67.8797 36.212 66.0003C36.212 64.1209 34.8323 62.5992 33.1289 62.5992Z" fill="black"/>
<path fill-rule="evenodd" clip-rule="evenodd" d="M56.4311 69.2935C56.2891 69.4524 56.0279 69.7534 55.7157 70.0202C55.4034 70.2871 55.04 70.5312 54.6312 70.73C54.2167 70.9287 53.7568 71.082 53.2685 71.1728C52.7802 71.2637 52.2635 71.2978 51.8206 71.2694C51.3721 71.241 50.9973 71.1615 50.5999 71.0139C50.2024 70.8662 49.7822 70.6562 49.4075 70.3212C49.0327 69.9862 48.6977 69.5263 48.4593 69.055C48.2208 68.5894 48.0732 68.1181 47.971 67.6128C47.8631 67.1018 47.795 66.5567 47.8006 65.9832C47.8063 65.4098 47.8801 64.8136 47.9994 64.3082C48.1186 63.8029 48.2833 63.3884 48.5331 62.9853C48.7829 62.5822 49.1179 62.1904 49.4416 61.8894C49.7709 61.5942 50.0888 61.3898 50.509 61.2251C50.9235 61.0548 51.4345 60.9185 51.9228 60.8617C52.4111 60.7993 52.8767 60.8163 53.3536 60.9015C53.8306 60.9867 54.3075 61.14 54.7334 61.3728C55.1535 61.6056 55.5169 61.9178 55.8349 62.3266C56.1529 62.7298 56.4254 63.2294 56.5901 63.7688C56.7547 64.3082 56.8172 64.8874 56.8285 65.3757C56.8399 65.8697 56.8115 66.2728 56.7831 66.4886C56.7547 66.7043 56.7263 66.7214 56.6525 66.727C56.5787 66.7327 56.4595 66.7327 55.3409 66.727C54.2224 66.727 52.1045 66.727 51.0371 66.727C49.9696 66.727 49.9526 66.727 49.9242 66.7327C49.8958 66.7384 49.8617 66.7554 49.8333 66.7781C49.8049 66.8008 49.7766 66.8406 49.8163 67.028C49.856 67.221 49.9582 67.5617 50.1002 67.8797C50.2478 68.1976 50.4352 68.4872 50.6793 68.7257C50.9235 68.9641 51.2301 69.1515 51.5821 69.2707C51.9342 69.39 52.3373 69.4411 52.695 69.4184C53.0527 69.4013 53.3707 69.3105 53.6489 69.1856C53.9271 69.0607 54.1599 68.896 54.3019 68.7881C54.4438 68.6859 54.4892 68.6405 54.529 68.6121C54.5687 68.5837 54.5914 68.578 54.6369 68.578C54.6823 68.578 54.7447 68.5894 55.0627 68.6575C55.3807 68.7257 55.9485 68.8563 56.2437 68.9244C56.539 68.9982 56.5674 69.0096 56.5844 69.0266C56.6014 69.0436 56.6014 69.055 56.5957 69.0777C56.5901 69.1004 56.5673 69.1231 56.4254 69.2878L56.4311 69.2935ZM50.7304 65.1088C51.5197 65.1088 53.0584 65.1088 53.8419 65.1088C54.6255 65.1088 54.6596 65.1088 54.6936 65.1088C54.7277 65.1088 54.7618 65.1088 54.7845 65.0918C54.8072 65.0748 54.8186 65.035 54.7958 64.876C54.7788 64.7171 54.7334 64.4332 54.6539 64.1833C54.5744 63.9335 54.4552 63.7121 54.3132 63.502C54.1713 63.2976 53.9952 63.1102 53.7284 62.9455C53.4615 62.7809 53.0925 62.6446 52.7404 62.5992C52.3884 62.5538 52.042 62.5992 51.7525 62.7014C51.4629 62.7979 51.2244 62.9455 51.02 63.0875C50.8156 63.2294 50.651 63.3657 50.5033 63.5417C50.3557 63.7177 50.2365 63.9392 50.1286 64.1493C50.0264 64.3537 49.9412 64.5467 49.8901 64.6887C49.839 64.8306 49.822 64.9158 49.822 64.9782C49.822 65.035 49.8447 65.0691 49.8731 65.0861C49.9015 65.1032 49.9412 65.1088 50.7304 65.1088Z" fill="black"/>
<path fill-rule="evenodd" clip-rule="evenodd" d="M2.17848 78.1148C1.99679 78.0921 1.75832 78.041 1.57662 77.9444C1.38925 77.8479 1.2473 77.7003 1.15646 77.5129C1.06561 77.3255 1.02019 77.0984 0.991798 76.7918C0.969087 76.4909 0.963409 76.1105 1.01451 75.713C1.06561 75.3156 1.16781 74.8954 1.33247 74.5888C1.49713 74.2822 1.72425 74.0891 1.95137 73.9812C2.17848 73.8734 2.4056 73.8507 2.62704 73.862C2.84848 73.8734 3.05856 73.9188 3.25729 74.021C3.45034 74.1232 3.62636 74.2765 3.74559 74.4695C3.86483 74.6626 3.92729 74.9011 3.95 75.1963C3.97839 75.4972 3.97271 75.8606 3.92729 76.207C3.88186 76.5533 3.79669 76.8713 3.69449 77.1155C3.59229 77.3596 3.47873 77.5243 3.34246 77.6662C3.20619 77.8082 3.05288 77.9331 2.92797 78.0069C2.80306 78.0807 2.71221 78.1034 2.60433 78.1148C2.49077 78.1261 2.36018 78.1318 2.17848 78.1091V78.1148ZM2.16713 77.6208C2.05357 77.5186 1.95705 77.3539 1.90594 77.07C1.85484 76.7861 1.84349 76.3887 1.87188 75.9912C1.89459 75.5938 1.95137 75.1906 2.0195 74.9295C2.08764 74.6683 2.16145 74.549 2.26365 74.4582C2.36586 74.3674 2.49077 74.3106 2.59865 74.3049C2.71221 74.2992 2.80873 74.339 2.89958 74.4241C2.98475 74.5093 3.06424 74.6456 3.10399 74.9011C3.14373 75.1566 3.15509 75.537 3.14941 75.8834C3.14373 76.2297 3.12102 76.5363 3.06992 76.8145C3.01882 77.0927 2.93365 77.3426 2.8428 77.5016C2.74628 77.6605 2.64407 77.723 2.52484 77.7344C2.41128 77.7514 2.28637 77.7173 2.17281 77.6151L2.16713 77.6208Z" fill="black"/>
<path fill-rule="evenodd" clip-rule="evenodd" d="M4.34743 77.7753C4.34743 77.4006 4.35878 76.6738 4.38149 76.0947C4.40421 75.5155 4.4326 75.084 4.47234 74.766C4.51209 74.4481 4.55751 74.238 4.59726 74.1074C4.637 73.9768 4.67107 73.92 4.71081 73.8803C4.75056 73.8405 4.80166 73.8235 4.85844 73.8349C4.91522 73.8519 4.98335 73.8973 5.07988 74.0449C5.17073 74.1926 5.28996 74.4367 5.44327 74.8228C5.59657 75.2089 5.78962 75.737 5.89182 76.0322C5.9997 76.3331 6.01674 76.407 6.04513 76.4524C6.06784 76.4978 6.09623 76.5205 6.11894 76.4978C6.14165 76.4808 6.16436 76.424 6.20411 76.0606C6.24953 75.6972 6.31199 75.0159 6.35173 74.6014C6.39148 74.1812 6.40284 74.0279 6.41419 73.9314C6.42555 73.8405 6.43123 73.8065 6.45394 73.7781C6.47665 73.7497 6.51639 73.7156 6.57317 73.6986C6.62995 73.6815 6.70377 73.6759 6.76622 73.6929C6.82868 73.7043 6.87978 73.7383 6.90249 73.7951C6.93088 73.8519 6.93088 73.9371 6.91385 74.4878C6.89682 75.0386 6.85707 76.0549 6.823 76.6625C6.78894 77.27 6.76622 77.4687 6.74351 77.6277C6.7208 77.781 6.69241 77.8946 6.65267 77.9854C6.6186 78.0763 6.5675 78.1501 6.47665 78.1785C6.3858 78.2069 6.24953 78.2012 6.13597 78.1217C6.02242 78.0422 5.93157 77.8889 5.80665 77.6277C5.68174 77.3665 5.52276 76.9918 5.39217 76.7079C5.26157 76.424 5.16505 76.2366 5.10827 76.1231C5.05149 76.0095 5.03446 75.9811 5.00607 75.9754C4.97768 75.9698 4.93793 75.9925 4.9209 76.1855C4.90386 76.3786 4.91522 76.7419 4.9209 77.0372C4.92658 77.3325 4.92658 77.5652 4.91522 77.7469C4.90386 77.923 4.8698 78.0422 4.80166 78.1217C4.72785 78.1955 4.61429 78.2296 4.5348 78.2352C4.45531 78.2409 4.41556 78.2239 4.38717 78.2012C4.36446 78.1785 4.35311 78.1558 4.35878 77.781L4.34743 77.7753Z" fill="black"/>
<path fill-rule="evenodd" clip-rule="evenodd" d="M9.40076 77.9628C9.29288 77.9856 9.09983 78.0253 8.88407 78.0253C8.6683 78.0253 8.41848 77.9969 8.20839 77.9288C7.99831 77.8606 7.82229 77.7584 7.67467 77.5995C7.52704 77.4405 7.40781 77.219 7.33967 77.0033C7.27154 76.7875 7.2545 76.5717 7.2545 76.3162C7.2545 76.0607 7.27154 75.7598 7.31696 75.4305C7.36238 75.1012 7.43052 74.7491 7.50433 74.4993C7.58382 74.2495 7.66331 74.1132 7.75416 74.0337C7.84501 73.9542 7.94153 73.9429 8.20839 73.9429C8.48093 73.9485 8.92381 73.9713 9.17364 74.0053C9.42347 74.0394 9.48025 74.0848 9.52567 74.1416C9.57109 74.1984 9.61084 74.2608 9.61084 74.3233C9.61084 74.3857 9.57109 74.4482 9.50296 74.4993C9.43482 74.5504 9.3383 74.5902 9.15093 74.6072C8.96356 74.6242 8.68534 74.6129 8.52068 74.6242C8.35602 74.6356 8.3106 74.664 8.27085 74.7321C8.2311 74.8002 8.19704 74.8968 8.18568 75.0444C8.17433 75.1863 8.18568 75.3737 8.19704 75.4816C8.20839 75.5895 8.2311 75.6235 8.35034 75.6406C8.46958 75.6576 8.69669 75.6576 8.82729 75.6576C8.95788 75.6576 8.99195 75.6576 9.03169 75.6803C9.07144 75.703 9.12254 75.7541 9.14525 75.7996C9.16796 75.8507 9.16228 75.8961 9.14525 75.9472C9.12822 75.9983 9.09983 76.0494 9.0544 76.0778C9.00898 76.1062 8.94652 76.1118 8.82161 76.1175C8.70237 76.1232 8.52068 76.1345 8.4128 76.1402C8.30492 76.1516 8.26517 76.1573 8.23678 76.1856C8.20839 76.2084 8.19704 76.2538 8.20271 76.3957C8.20839 76.5434 8.22543 76.7932 8.25382 76.9692C8.28221 77.1452 8.32195 77.2531 8.36737 77.3496C8.4128 77.4461 8.46958 77.5256 8.5661 77.5711C8.6683 77.6165 8.81593 77.6278 8.91813 77.6165C9.02034 77.6051 9.08279 77.5597 9.16228 77.537C9.24177 77.5143 9.34398 77.5029 9.41211 77.5029C9.48025 77.5029 9.51432 77.5143 9.5427 77.5483C9.56542 77.5824 9.57677 77.6392 9.57677 77.7073C9.57677 77.7755 9.57109 77.855 9.54838 77.8947C9.52567 77.9401 9.49728 77.9458 9.38372 77.9685L9.40076 77.9628Z" fill="black"/>
<path fill-rule="evenodd" clip-rule="evenodd" d="M11.6152 77.3836C11.6038 76.8158 11.5868 75.72 11.5868 75.084C11.5811 74.4481 11.5981 74.2664 11.6209 74.1415C11.6436 74.0166 11.6776 73.9484 11.7231 73.8917C11.7628 73.8349 11.8139 73.7895 11.9161 73.7611C12.0183 73.7327 12.1773 73.7213 12.4555 73.727C12.7337 73.7327 13.1255 73.7497 13.3753 73.8008C13.6195 73.8519 13.716 73.9371 13.7955 74.0734C13.875 74.204 13.9488 74.3856 13.9772 74.6128C14.0056 74.8399 13.9942 75.1067 13.9545 75.3168C13.9204 75.5212 13.858 75.6689 13.7785 75.8108C13.699 75.9584 13.6025 76.1061 13.4548 76.2083C13.3072 76.3161 13.1142 76.3729 12.9381 76.4013C12.7621 76.4297 12.6088 76.4183 12.518 76.424C12.4271 76.424 12.3987 76.4354 12.3931 76.6511C12.3874 76.8669 12.4101 77.2927 12.4271 77.5596C12.4442 77.8265 12.4555 77.9287 12.4328 78.0195C12.4101 78.1104 12.3476 78.1842 12.2511 78.2239C12.1603 78.2637 12.0353 78.2694 11.9275 78.2296C11.8196 78.1899 11.7287 78.1047 11.6833 78.0422C11.6379 77.9798 11.6379 77.9457 11.6265 77.3836H11.6152ZM12.4044 75.72C12.3931 75.4985 12.3874 75.0727 12.3987 74.7945C12.4101 74.5219 12.4385 74.4027 12.4953 74.3232C12.552 74.2437 12.6429 74.204 12.7451 74.1983C12.8473 74.1926 12.9609 74.221 13.046 74.2664C13.1312 74.3118 13.1936 74.38 13.222 74.5333C13.2561 74.6866 13.2561 74.9194 13.2504 75.1124C13.2447 75.3055 13.2277 75.4474 13.1993 75.5667C13.1709 75.6859 13.1369 75.7711 13.0631 75.8278C12.9892 75.8846 12.8757 75.913 12.7621 75.93C12.6542 75.9528 12.5464 75.9641 12.4839 75.9641C12.4214 75.9641 12.4044 75.9414 12.3931 75.72H12.4044Z" fill="black"/>
<path fill-rule="evenodd" clip-rule="evenodd" d="M14.3349 74.3514C14.3122 74.7545 14.2725 75.504 14.2498 76.1002C14.227 76.6964 14.227 77.1279 14.2611 77.4118C14.2952 77.6957 14.3576 77.832 14.4769 77.9228C14.5904 78.0137 14.7608 78.0648 15.039 78.0875C15.3172 78.1045 15.7033 78.0931 15.9191 78.0761C16.1348 78.0591 16.1803 78.0307 16.203 77.9682C16.22 77.9001 16.2143 77.7979 16.1803 77.7241C16.1462 77.6503 16.0781 77.6162 15.9361 77.5992C15.7885 77.5878 15.5614 77.5935 15.3967 77.5878C15.232 77.5821 15.1355 77.5651 15.0844 77.5424C15.0333 77.5253 15.022 77.5026 15.0276 76.9178C15.0333 76.333 15.0617 75.1917 15.0617 74.5899C15.0617 73.988 15.0447 73.9312 15.0106 73.8801C14.9765 73.829 14.9254 73.7779 14.8516 73.7609C14.7778 73.7438 14.6813 73.7495 14.5961 73.7722C14.5109 73.7893 14.4371 73.8233 14.4031 73.8631C14.3633 73.9028 14.3576 73.9539 14.3349 74.3571V74.3514Z" fill="black"/>
<path fill-rule="evenodd" clip-rule="evenodd" d="M19.2066 77.7753C19.2066 77.4006 19.2179 76.6738 19.2406 76.0947C19.2634 75.5155 19.2917 75.084 19.3315 74.766C19.3712 74.4481 19.4167 74.238 19.4564 74.1074C19.4961 73.9768 19.5302 73.92 19.57 73.8803C19.6097 73.8405 19.6608 73.8235 19.7176 73.8349C19.7744 73.8519 19.8425 73.8973 19.939 74.0449C20.0299 74.1926 20.1491 74.4367 20.3024 74.8228C20.4557 75.2089 20.6488 75.737 20.751 76.0322C20.8588 76.3331 20.8759 76.407 20.9043 76.4524C20.927 76.4978 20.9554 76.5205 20.9781 76.4978C21.0008 76.4808 21.0235 76.424 21.0633 76.0606C21.1087 75.6972 21.1711 75.0159 21.2109 74.6014C21.2506 74.1812 21.262 74.0279 21.2733 73.9314C21.2847 73.8405 21.2904 73.8065 21.3131 73.7781C21.3358 73.7497 21.3755 73.7156 21.4323 73.6986C21.4891 73.6815 21.5629 73.6759 21.6254 73.6929C21.6878 73.7043 21.7389 73.7383 21.7616 73.7951C21.79 73.8519 21.79 73.9371 21.773 74.4878C21.756 75.0386 21.7162 76.0549 21.6821 76.6625C21.6481 77.27 21.6254 77.4687 21.6027 77.6277C21.5799 77.781 21.5516 77.8946 21.5118 77.9854C21.4777 78.0763 21.4266 78.1501 21.3358 78.1785C21.2449 78.2069 21.1087 78.2012 20.9951 78.1217C20.8816 78.0422 20.7907 77.8889 20.6658 77.6277C20.5409 77.3665 20.3819 76.9918 20.2513 76.7079C20.1207 76.424 20.0242 76.2366 19.9674 76.1231C19.9106 76.0095 19.8936 75.9811 19.8652 75.9754C19.8368 75.9698 19.7971 75.9925 19.78 76.1855C19.763 76.3786 19.7744 76.7419 19.78 77.0372C19.7857 77.3325 19.7857 77.5652 19.7744 77.7469C19.763 77.923 19.7289 78.0422 19.6608 78.1217C19.587 78.1955 19.4734 78.2296 19.3939 78.2352C19.3145 78.2409 19.2747 78.2239 19.2463 78.2012C19.2236 78.1785 19.2123 78.1558 19.2179 77.781L19.2066 77.7753Z" fill="black"/>
<path fill-rule="evenodd" clip-rule="evenodd" d="M34.0544 77.7753C34.0544 77.4006 34.0657 76.6738 34.0884 76.0947C34.1111 75.5155 34.1395 75.084 34.1793 74.766C34.219 74.4481 34.2644 74.238 34.3042 74.1074C34.3439 73.9768 34.378 73.92 34.4177 73.8803C34.4575 73.8405 34.5086 73.8235 34.5654 73.8349C34.6221 73.8519 34.6903 73.8973 34.7868 74.0449C34.8777 74.1926 34.9969 74.4367 35.1502 74.8228C35.3035 75.2089 35.4965 75.737 35.5987 76.0322C35.7066 76.3331 35.7237 76.407 35.7521 76.4524C35.7748 76.4978 35.8032 76.5205 35.8259 76.4978C35.8486 76.4808 35.8713 76.424 35.911 76.0606C35.9565 75.6972 36.0189 75.0159 36.0587 74.6014C36.0984 74.1812 36.1098 74.0279 36.1211 73.9314C36.1325 73.8405 36.1382 73.8065 36.1609 73.7781C36.1836 73.7497 36.2233 73.7156 36.2801 73.6986C36.3369 73.6815 36.4107 73.6759 36.4732 73.6929C36.5356 73.7043 36.5867 73.7383 36.6094 73.7951C36.6378 73.8519 36.6378 73.9371 36.6208 74.4878C36.6037 75.0386 36.564 76.0549 36.5299 76.6625C36.4959 77.27 36.4732 77.4687 36.4504 77.6277C36.4277 77.781 36.3993 77.8946 36.3596 77.9854C36.3255 78.0763 36.2744 78.1501 36.1836 78.1785C36.0927 78.2069 35.9565 78.2012 35.8429 78.1217C35.7293 78.0422 35.6385 77.8889 35.5136 77.6277C35.3887 77.3665 35.2297 76.9918 35.0991 76.7079C34.9685 76.424 34.872 76.2366 34.8152 76.1231C34.7584 76.0095 34.7414 75.9811 34.713 75.9754C34.6846 75.9698 34.6449 75.9925 34.6278 76.1855C34.6108 76.3786 34.6221 76.7419 34.6278 77.0372C34.6335 77.3325 34.6335 77.5652 34.6221 77.7469C34.6108 77.923 34.5767 78.0422 34.5086 78.1217C34.4348 78.1955 34.3212 78.2296 34.2417 78.2352C34.1622 78.2409 34.1225 78.2239 34.0941 78.2012C34.0714 78.1785 34.06 78.1558 34.0657 77.781L34.0544 77.7753Z" fill="black"/>
<path fill-rule="evenodd" clip-rule="evenodd" d="M31.9194 78.1162C31.7377 78.0935 31.4993 78.0424 31.3176 77.9459C31.1302 77.8494 30.9883 77.7018 30.8974 77.5144C30.8066 77.327 30.7611 77.0999 30.7327 76.7933C30.71 76.4924 30.7044 76.1119 30.7555 75.7145C30.8066 75.317 30.9088 74.8969 31.0734 74.5903C31.2381 74.2836 31.4652 74.0906 31.6923 73.9827C31.9194 73.8748 32.1466 73.8521 32.368 73.8635C32.5894 73.8748 32.7995 73.9203 32.9982 74.0225C33.1913 74.1247 33.3673 74.278 33.4865 74.471C33.6058 74.6641 33.6682 74.9025 33.6909 75.1978C33.7193 75.4987 33.7137 75.8621 33.6682 76.2085C33.6228 76.5548 33.5376 76.8728 33.4354 77.1169C33.3332 77.3611 33.2197 77.5257 33.0834 77.6677C32.9471 77.8096 32.7938 77.9346 32.6689 78.0084C32.544 78.0822 32.4532 78.1049 32.3453 78.1162C32.2317 78.1276 32.1011 78.1333 31.9194 78.1106V78.1162ZM31.9081 77.6223C31.7945 77.5201 31.698 77.3554 31.6469 77.0715C31.5958 76.7876 31.5844 76.3902 31.6128 75.9927C31.6355 75.5952 31.6923 75.1921 31.7605 74.9309C31.8286 74.6697 31.9024 74.5505 32.0046 74.4597C32.1068 74.3688 32.2317 74.312 32.3396 74.3064C32.4532 74.3007 32.5497 74.3404 32.6405 74.4256C32.7257 74.5108 32.8052 74.647 32.8449 74.9025C32.8847 75.158 32.896 75.5385 32.8904 75.8848C32.8847 76.2312 32.862 76.5378 32.8109 76.816C32.7598 77.0942 32.6746 77.344 32.5838 77.503C32.4872 77.662 32.385 77.7245 32.2658 77.7358C32.1522 77.7529 32.0273 77.7188 31.9138 77.6166L31.9081 77.6223Z" fill="black"/>
<path fill-rule="evenodd" clip-rule="evenodd" d="M39.0736 77.9628C38.9657 77.9856 38.7727 78.0253 38.5569 78.0253C38.3412 78.0253 38.0913 77.9969 37.8813 77.9288C37.6712 77.8606 37.4952 77.7584 37.3475 77.5995C37.1999 77.4405 37.0807 77.219 37.0125 77.0033C36.9444 76.7875 36.9274 76.5717 36.9274 76.3162C36.9274 76.0607 36.9444 75.7598 36.9898 75.4305C37.0352 75.1012 37.1034 74.7491 37.1772 74.4993C37.2567 74.2495 37.3362 74.1132 37.427 74.0337C37.5179 73.9542 37.6144 73.9429 37.8813 73.9429C38.1538 73.9485 38.5967 73.9713 38.8465 74.0053C39.0963 74.0394 39.1531 74.0848 39.1985 74.1416C39.244 74.1984 39.2837 74.2608 39.2837 74.3233C39.2837 74.3857 39.244 74.4482 39.1758 74.4993C39.1077 74.5504 39.0112 74.5902 38.8238 74.6072C38.6364 74.6242 38.3582 74.6129 38.1935 74.6242C38.0289 74.6356 37.9835 74.664 37.9437 74.7321C37.904 74.8002 37.8699 74.8968 37.8585 75.0444C37.8472 75.1863 37.8585 75.3737 37.8699 75.4816C37.8813 75.5895 37.904 75.6235 38.0232 75.6406C38.1424 75.6576 38.3696 75.6576 38.5002 75.6576C38.6307 75.6576 38.6648 75.6576 38.7046 75.6803C38.7443 75.703 38.7954 75.7541 38.8181 75.7996C38.8408 75.8507 38.8352 75.8961 38.8181 75.9472C38.8011 75.9983 38.7727 76.0494 38.7273 76.0778C38.6818 76.1062 38.6194 76.1118 38.4945 76.1175C38.3752 76.1232 38.1935 76.1345 38.0857 76.1402C37.9778 76.1516 37.938 76.1573 37.9097 76.1856C37.8813 76.2084 37.8699 76.2538 37.8756 76.3957C37.8813 76.5434 37.8983 76.7932 37.9267 76.9692C37.9551 77.1452 37.9948 77.2531 38.0402 77.3496C38.0857 77.4461 38.1424 77.5256 38.239 77.5711C38.3412 77.6165 38.4888 77.6278 38.591 77.6165C38.6932 77.6051 38.7557 77.5597 38.8352 77.537C38.9146 77.5143 39.0168 77.5029 39.085 77.5029C39.1531 77.5029 39.1872 77.5143 39.2156 77.5483C39.2383 77.5824 39.2496 77.6392 39.2496 77.7073C39.2496 77.7755 39.244 77.855 39.2212 77.8947C39.1985 77.9401 39.1701 77.9458 39.0566 77.9685L39.0736 77.9628Z" fill="black"/>
<path fill-rule="evenodd" clip-rule="evenodd" d="M46.3073 77.9628C46.1994 77.9856 46.0064 78.0253 45.7906 78.0253C45.5749 78.0253 45.325 77.9969 45.115 77.9288C44.9049 77.8606 44.7289 77.7584 44.5812 77.5995C44.4336 77.4405 44.3144 77.219 44.2462 77.0033C44.1781 76.7875 44.1611 76.5717 44.1611 76.3162C44.1611 76.0607 44.1781 75.7598 44.2235 75.4305C44.269 75.1012 44.3371 74.7491 44.4109 74.4993C44.4904 74.2495 44.5699 74.1132 44.6607 74.0337C44.7516 73.9542 44.8481 73.9429 45.115 73.9429C45.3875 73.9485 45.8304 73.9713 46.0802 74.0053C46.33 74.0394 46.3868 74.0848 46.4322 74.1416C46.4777 74.1984 46.5174 74.2608 46.5174 74.3233C46.5174 74.3857 46.4777 74.4482 46.4095 74.4993C46.3414 74.5504 46.2449 74.5902 46.0575 74.6072C45.8701 74.6242 45.5919 74.6129 45.4273 74.6242C45.2626 74.6356 45.2172 74.664 45.1774 74.7321C45.1377 74.8002 45.1036 74.8968 45.0923 75.0444C45.0809 75.1863 45.0923 75.3737 45.1036 75.4816C45.115 75.5895 45.1377 75.6235 45.2569 75.6406C45.3761 75.6576 45.6033 75.6576 45.7339 75.6576C45.8645 75.6576 45.8985 75.6576 45.9383 75.6803C45.978 75.703 46.0291 75.7541 46.0518 75.7996C46.0745 75.8507 46.0689 75.8961 46.0518 75.9472C46.0348 75.9983 46.0064 76.0494 45.961 76.0778C45.9156 76.1062 45.8531 76.1118 45.7282 76.1175C45.6089 76.1232 45.4272 76.1345 45.3194 76.1402C45.2115 76.1516 45.1717 76.1573 45.1434 76.1856C45.115 76.2084 45.1036 76.2538 45.1093 76.3957C45.115 76.5434 45.132 76.7932 45.1604 76.9692C45.1888 77.1452 45.2285 77.2531 45.2739 77.3496C45.3194 77.4461 45.3762 77.5256 45.4727 77.5711C45.5749 77.6165 45.7225 77.6278 45.8247 77.6165C45.9269 77.6051 45.9894 77.5597 46.0689 77.537C46.1483 77.5143 46.2505 77.5029 46.3187 77.5029C46.3868 77.5029 46.4209 77.5143 46.4493 77.5483C46.472 77.5824 46.4833 77.6392 46.4833 77.7073C46.4833 77.7755 46.4777 77.855 46.455 77.8947C46.4322 77.9401 46.4039 77.9458 46.2903 77.9685L46.3073 77.9628Z" fill="black"/>
<path fill-rule="evenodd" clip-rule="evenodd" d="M16.5323 77.5369C16.572 77.1678 16.6685 76.4751 16.7878 75.8562C16.907 75.243 17.0376 74.7036 17.1512 74.3686C17.2647 74.0279 17.3499 73.8917 17.4351 73.8122C17.5202 73.7327 17.6054 73.7156 17.7133 73.71C17.8212 73.71 17.9518 73.7213 18.054 73.8008C18.1505 73.8803 18.2186 74.0336 18.3095 74.5673C18.4003 75.101 18.5082 76.0266 18.599 76.5887C18.6842 77.1508 18.7523 77.3552 18.7978 77.5085C18.8432 77.6618 18.8716 77.7583 18.8602 77.8492C18.8489 77.94 18.8034 78.0252 18.7126 78.0763C18.6217 78.1274 18.4912 78.1501 18.3719 78.0706C18.2527 77.9911 18.1505 77.8094 18.071 77.5653C17.9972 77.3211 17.9461 77.0145 17.9177 76.8555C17.8893 76.6965 17.8836 76.6795 17.7814 76.6738C17.6792 76.6682 17.4862 76.6682 17.3783 76.6738C17.2704 76.6795 17.2534 76.6966 17.2307 76.7988C17.2079 76.8953 17.1682 77.0826 17.1285 77.2757C17.083 77.4744 17.0376 77.6788 16.9808 77.8094C16.924 77.94 16.8673 77.9854 16.7935 77.9968C16.714 78.0082 16.6174 77.9911 16.5607 77.9627C16.5039 77.9343 16.4868 77.8946 16.5266 77.5312L16.5323 77.5369ZM17.401 75.9584C17.4351 75.7427 17.5089 75.3225 17.56 75.0954C17.6054 74.8683 17.6281 74.8285 17.6508 74.8115C17.6735 74.7944 17.6906 74.8001 17.719 75.0216C17.7473 75.2373 17.7928 75.6688 17.8098 75.896C17.8325 76.1231 17.8268 76.1401 17.8098 76.1571C17.7871 76.1742 17.753 76.1855 17.6792 76.1969C17.6054 76.2083 17.4918 76.2082 17.4351 76.2026C17.3783 76.1969 17.3726 76.1742 17.4067 75.9584H17.401Z" fill="black"/>
<path fill-rule="evenodd" clip-rule="evenodd" d="M46.8637 77.5369C46.9035 77.1678 47 76.4751 47.1193 75.8562C47.2385 75.243 47.3691 74.7036 47.4826 74.3686C47.5962 74.0279 47.6814 73.8917 47.7665 73.8122C47.8517 73.7327 47.9369 73.7156 48.0448 73.71C48.1526 73.71 48.2832 73.7213 48.3854 73.8008C48.482 73.8803 48.5501 74.0336 48.6409 74.5673C48.7318 75.101 48.8397 76.0266 48.9305 76.5887C49.0157 77.1508 49.0838 77.3552 49.1292 77.5085C49.1747 77.6618 49.2031 77.7583 49.1917 77.8492C49.1803 77.94 49.1349 78.0252 49.0441 78.0763C48.9532 78.1274 48.8226 78.1501 48.7034 78.0706C48.5842 77.9911 48.482 77.8094 48.4025 77.5653C48.3287 77.3211 48.2776 77.0145 48.2492 76.8555C48.2208 76.6965 48.2151 76.6795 48.1129 76.6738C48.0107 76.6682 47.8176 76.6682 47.7098 76.6738C47.6019 76.6795 47.5848 76.6966 47.5621 76.7988C47.5394 76.8953 47.4997 77.0826 47.4599 77.2757C47.4145 77.4744 47.3691 77.6788 47.3123 77.8094C47.2555 77.94 47.1987 77.9854 47.1249 77.9968C47.0454 78.0082 46.9489 77.9911 46.8921 77.9627C46.8354 77.9343 46.8183 77.8946 46.8581 77.5312L46.8637 77.5369ZM47.7325 75.9584C47.7665 75.7427 47.8404 75.3225 47.8915 75.0954C47.9369 74.8683 47.9596 74.8285 47.9823 74.8115C48.005 74.7944 48.022 74.8001 48.0504 75.0216C48.0788 75.2373 48.1242 75.6688 48.1413 75.896C48.164 76.1231 48.1583 76.1401 48.1413 76.1571C48.1186 76.1742 48.0845 76.1855 48.0107 76.1969C47.9369 76.2083 47.8233 76.2082 47.7665 76.2026C47.7098 76.1969 47.7041 76.1742 47.7382 75.9584H47.7325Z" fill="black"/>
<path fill-rule="evenodd" clip-rule="evenodd" d="M24.436 77.9628C24.3281 77.9856 24.135 78.0253 23.9193 78.0253C23.7035 78.0253 23.4537 77.9969 23.2436 77.9288C23.0335 77.8606 22.8575 77.7584 22.7099 77.5995C22.5622 77.4405 22.443 77.219 22.3749 77.0033C22.3067 76.7875 22.2897 76.5717 22.2897 76.3162C22.2897 76.0607 22.3067 75.7598 22.3522 75.4305C22.3976 75.1012 22.4657 74.7491 22.5395 74.4993C22.619 74.2495 22.6985 74.1132 22.7894 74.0337C22.8802 73.9542 22.9767 73.9429 23.2436 73.9429C23.5161 73.9485 23.959 73.9713 24.2088 74.0053C24.4587 74.0394 24.5154 74.0848 24.5609 74.1416C24.6063 74.1984 24.646 74.2608 24.646 74.3233C24.646 74.3857 24.6063 74.4482 24.5382 74.4993C24.47 74.5504 24.3735 74.5902 24.1861 74.6072C23.9988 74.6242 23.7205 74.6129 23.5559 74.6242C23.3912 74.6356 23.3458 74.664 23.306 74.7321C23.2663 74.8002 23.2322 74.8968 23.2209 75.0444C23.2095 75.1863 23.2209 75.3737 23.2322 75.4816C23.2436 75.5895 23.2663 75.6235 23.3855 75.6406C23.5048 75.6576 23.7319 75.6576 23.8625 75.6576C23.9931 75.6576 24.0271 75.6576 24.0669 75.6803C24.1066 75.703 24.1577 75.7541 24.1804 75.7996C24.2032 75.8507 24.1975 75.8961 24.1804 75.9472C24.1634 75.9983 24.135 76.0494 24.0896 76.0778C24.0442 76.1062 23.9817 76.1118 23.8568 76.1175C23.7376 76.1232 23.5559 76.1345 23.448 76.1402C23.3401 76.1516 23.3004 76.1573 23.272 76.1856C23.2436 76.2084 23.2322 76.2538 23.2379 76.3957C23.2436 76.5434 23.2606 76.7932 23.289 76.9692C23.3174 77.1452 23.3572 77.2531 23.4026 77.3496C23.448 77.4461 23.5048 77.5256 23.6013 77.5711C23.7035 77.6165 23.8511 77.6278 23.9533 77.6165C24.0555 77.6051 24.118 77.5597 24.1975 77.537C24.277 77.5143 24.3792 77.5029 24.4473 77.5029C24.5154 77.5029 24.5495 77.5143 24.5779 77.5483C24.6006 77.5824 24.612 77.6392 24.612 77.7073C24.612 77.7755 24.6063 77.855 24.5836 77.8947C24.5609 77.9401 24.5325 77.9458 24.4189 77.9685L24.436 77.9628Z" fill="black"/>
<path fill-rule="evenodd" clip-rule="evenodd" d="M25.8895 77.3664C25.9065 76.8042 25.9462 75.7368 25.9633 75.186C25.9803 74.6353 25.9803 74.6069 25.8157 74.6126C25.6567 74.6182 25.3387 74.6523 25.157 74.6637C24.9753 74.675 24.9356 74.6637 24.9015 74.6126C24.8674 74.5615 24.8447 74.4763 24.8504 74.4081C24.8561 74.34 24.8958 74.2832 25.1513 74.1924C25.4068 74.1015 25.8838 73.9653 26.2869 73.8858C26.69 73.8006 27.025 73.7722 27.2408 73.7552C27.4566 73.7438 27.5531 73.7495 27.6326 73.7722C27.7121 73.8006 27.7689 73.846 27.7916 73.9142C27.8143 73.9766 27.7972 74.0561 27.6553 74.1413C27.5133 74.2265 27.2465 74.3116 27.0648 74.3627C26.8831 74.4081 26.7923 74.4138 26.7355 74.4365C26.6787 74.4536 26.6503 74.4876 26.6333 74.5104C26.6162 74.5387 26.6162 74.5558 26.6106 75.1009C26.6049 75.6459 26.5992 76.7077 26.5935 77.2812C26.5822 77.849 26.5708 77.9228 26.5481 77.9852C26.5254 78.042 26.497 78.0931 26.4232 78.1158C26.3494 78.1442 26.2358 78.1499 26.1393 78.1329C26.0428 78.1158 25.969 78.0704 25.9235 78.0193C25.8838 77.9739 25.8781 77.9228 25.8951 77.3607L25.8895 77.3664Z" fill="black"/>
<path fill-rule="evenodd" clip-rule="evenodd" d="M29.2167 77.957C29.1599 78.0308 29.0805 78.1159 28.9839 78.1443C28.8874 78.1727 28.7795 78.1443 28.7057 78.0989C28.6319 78.0535 28.5978 77.9854 28.5921 77.9002C28.5921 77.815 28.6262 77.7071 28.683 77.6333C28.7455 77.5595 28.8306 77.5141 28.9271 77.4971C29.0237 77.4857 29.1316 77.5027 29.194 77.5482C29.2621 77.5936 29.2905 77.6731 29.2905 77.7412C29.2905 77.815 29.2621 77.8775 29.2054 77.9513L29.2167 77.957Z" fill="black"/>
<path fill-rule="evenodd" clip-rule="evenodd" d="M52.1556 77.3664C52.1726 76.8042 52.2123 75.7368 52.2294 75.186C52.2464 74.6353 52.2464 74.6069 52.0818 74.6126C51.9228 74.6182 51.6048 74.6523 51.4231 74.6637C51.2414 74.675 51.2017 74.6637 51.1676 74.6126C51.1335 74.5615 51.1108 74.4763 51.1165 74.4081C51.1222 74.34 51.1619 74.2832 51.4174 74.1924C51.6729 74.1015 52.1499 73.9653 52.553 73.8858C52.9562 73.8006 53.2911 73.7722 53.5069 73.7552C53.7227 73.7438 53.8192 73.7495 53.8987 73.7722C53.9782 73.8006 54.035 73.846 54.0577 73.9142C54.0804 73.9766 54.0633 74.0561 53.9214 74.1413C53.7795 74.2265 53.5126 74.3116 53.3309 74.3627C53.1492 74.4081 53.0584 74.4138 53.0016 74.4365C52.9448 74.4536 52.9164 74.4876 52.8994 74.5104C52.8823 74.5387 52.8823 74.5558 52.8767 75.1009C52.871 75.6459 52.8653 76.7077 52.8596 77.2812C52.8483 77.849 52.8369 77.9228 52.8142 77.9852C52.7915 78.042 52.7631 78.0931 52.6893 78.1158C52.6155 78.1442 52.5019 78.1499 52.4054 78.1329C52.3089 78.1158 52.2351 78.0704 52.1896 78.0193C52.1499 77.9739 52.1442 77.9228 52.1612 77.3607L52.1556 77.3664Z" fill="black"/>
<path fill-rule="evenodd" clip-rule="evenodd" d="M41.3618 77.7979C41.3391 77.3663 41.305 76.5601 41.3107 75.8617C41.3164 75.1633 41.3505 74.5728 41.3845 74.2435C41.4186 73.9142 41.4527 73.8517 41.4981 73.812C41.5435 73.7722 41.606 73.7552 41.6911 73.7552C41.782 73.7552 41.8955 73.7722 41.9807 73.8233C42.0659 73.8744 42.1227 73.9539 42.1454 74.2264C42.1681 74.499 42.1624 74.9532 42.1567 75.2541C42.151 75.5494 42.151 75.6857 42.151 75.7595C42.151 75.8333 42.1511 75.839 42.2873 75.839C42.4179 75.839 42.6791 75.8333 42.8154 75.8276C42.9516 75.8219 42.963 75.8219 42.9857 75.5664C43.0084 75.3109 43.0425 74.7999 43.0595 74.4876C43.0822 74.181 43.0879 74.0731 43.1163 73.988C43.1447 73.9028 43.1844 73.8403 43.2412 73.7892C43.298 73.7381 43.3661 73.6984 43.4399 73.6927C43.5194 73.687 43.6046 73.7097 43.6557 73.7949C43.7068 73.8801 43.7238 74.022 43.7352 74.6636C43.7465 75.3109 43.7579 76.4579 43.7636 77.0768C43.7693 77.6957 43.7636 77.7751 43.7465 77.8433C43.7295 77.9114 43.6898 77.9625 43.6387 78.0023C43.5876 78.0363 43.5251 78.059 43.4513 78.0477C43.3775 78.042 43.298 78.0023 43.2242 77.9114C43.1504 77.8206 43.0765 77.6673 43.0425 77.4685C43.0027 77.2698 43.0027 77.0257 42.9971 76.861C42.9971 76.702 42.9971 76.6225 42.9857 76.5771C42.9743 76.5317 42.9573 76.5203 42.8154 76.526C42.6734 76.5317 42.4122 76.5544 42.276 76.5714C42.1397 76.5885 42.134 76.6055 42.134 76.6396C42.134 76.668 42.1397 76.7191 42.1454 76.9064C42.1511 77.0995 42.151 77.4345 42.1397 77.6559C42.1283 77.8773 42.1056 77.9796 42.0545 78.0761C42.0091 78.1726 41.9353 78.2691 41.8558 78.3316C41.7763 78.394 41.6911 78.4167 41.623 78.4167C41.5492 78.4167 41.4924 78.3884 41.4527 78.3429C41.4129 78.2975 41.3902 78.2351 41.3675 77.8035L41.3618 77.7979Z" fill="black"/>
<path fill-rule="evenodd" clip-rule="evenodd" d="M54.4381 77.7979C54.4154 77.3663 54.3813 76.5601 54.387 75.8617C54.3927 75.1633 54.4267 74.5728 54.4608 74.2435C54.4949 73.9142 54.5289 73.8517 54.5744 73.812C54.6198 73.7722 54.6822 73.7552 54.7674 73.7552C54.8582 73.7552 54.9718 73.7722 55.057 73.8233C55.1421 73.8744 55.1989 73.9539 55.2216 74.2264C55.2443 74.499 55.2387 74.9532 55.233 75.2541C55.2273 75.5494 55.2273 75.6857 55.2273 75.7595C55.2273 75.8333 55.2273 75.839 55.3636 75.839C55.4942 75.839 55.7554 75.8333 55.8916 75.8276C56.0279 75.8219 56.0393 75.8219 56.062 75.5664C56.0847 75.3109 56.1188 74.7999 56.1358 74.4876C56.1585 74.181 56.1642 74.0731 56.1926 73.988C56.221 73.9028 56.2607 73.8403 56.3175 73.7892C56.3743 73.7381 56.4424 73.6984 56.5162 73.6927C56.5957 73.687 56.6809 73.7097 56.732 73.7949C56.7831 73.8801 56.8001 74.022 56.8115 74.6636C56.8228 75.3109 56.8342 76.4579 56.8398 77.0768C56.8455 77.6957 56.8398 77.7751 56.8228 77.8433C56.8058 77.9114 56.766 77.9625 56.7149 78.0023C56.6638 78.0363 56.6014 78.059 56.5276 78.0477C56.4537 78.042 56.3743 78.0023 56.3004 77.9114C56.2266 77.8206 56.1528 77.6673 56.1188 77.4685C56.079 77.2698 56.079 77.0257 56.0733 76.861C56.0733 76.702 56.0733 76.6225 56.062 76.5771C56.0506 76.5317 56.0336 76.5203 55.8916 76.526C55.7497 76.5317 55.4885 76.5544 55.3522 76.5714C55.216 76.5885 55.2103 76.6055 55.2103 76.6396C55.2103 76.668 55.216 76.7191 55.2216 76.9064C55.2273 77.0995 55.2273 77.4345 55.216 77.6559C55.2046 77.8773 55.1819 77.9796 55.1308 78.0761C55.0854 78.1726 55.0116 78.2691 54.9321 78.3316C54.8526 78.394 54.7674 78.4167 54.6993 78.4167C54.6255 78.4167 54.5687 78.3884 54.5289 78.3429C54.4892 78.2975 54.4665 78.2351 54.4438 77.8035L54.4381 77.7979Z" fill="black"/>
<path fill-rule="evenodd" clip-rule="evenodd" d="M51.338 78.0762C51.196 78.0875 50.9405 78.1046 50.6907 78.1103C50.4408 78.1159 50.208 78.1103 50.0604 78.0875C49.9128 78.0648 49.8617 78.0194 49.7992 77.9569C49.7368 77.8888 49.663 77.798 49.6119 77.6958C49.5608 77.5936 49.5267 77.4686 49.538 76.8838C49.5494 76.2933 49.6062 75.2372 49.6459 74.6581C49.6857 74.0789 49.7084 73.9767 49.7425 73.9086C49.7708 73.8461 49.8106 73.8177 49.8787 73.8007C49.9469 73.7837 50.0434 73.7837 50.1172 73.795C50.191 73.8064 50.2421 73.8348 50.2819 73.8916C50.3216 73.9483 50.3386 74.0392 50.35 74.465C50.3613 74.8852 50.3557 75.6404 50.3557 76.1514C50.3557 76.6567 50.35 76.9179 50.3443 77.0712C50.3386 77.2245 50.3273 77.2756 50.333 77.321C50.3386 77.3721 50.3557 77.4232 50.3841 77.4573C50.4124 77.497 50.4522 77.5198 50.5941 77.5368C50.7361 77.5481 50.9746 77.5481 51.1449 77.5595C51.3152 77.5652 51.4118 77.5822 51.4742 77.6106C51.5367 77.639 51.5651 77.6787 51.5764 77.7355C51.5878 77.7923 51.5878 77.8604 51.5764 77.9172C51.5651 77.974 51.5424 78.0194 51.5196 78.0421C51.4969 78.0648 51.4742 78.0705 51.3323 78.0819L51.338 78.0762Z" fill="black"/>
</g>
<defs>
<clipPath id="clip0_1233_3944">
<rect width="56.3477" height="77.8847" fill="white" transform="translate(0.730774 0.289062)"/>
</clipPath>
</defs>
</svg>
