<svg width="83" height="47" viewBox="0 0 83 47" fill="none" xmlns="http://www.w3.org/2000/svg">
<g clip-path="url(#clip0_1233_3227)">
<path d="M4.92074 27.978C4.92074 26.7858 4.96185 25.8688 5.0409 25.23C5.12312 24.5913 5.3255 24.2719 5.64488 24.2719C5.76505 24.2719 5.87888 24.3035 5.98956 24.3636C5.73975 23.981 5.46148 23.7881 5.16107 23.7881C4.83852 23.7881 4.63614 24.1075 4.55709 24.7462C4.47487 25.3882 4.43693 26.302 4.43693 27.4942L4.44641 43.5644H4.93023L4.92074 27.978Z" fill="black"/>
<path d="M10.8436 44.0162C10.8372 41.2809 10.8278 35.5163 10.8278 34.1565C10.8278 31.9651 10.8499 30.754 10.5685 28.7587C10.2491 26.4882 9.73679 23.579 7.70034 21.7607C9.33836 23.5822 9.79371 26.1973 10.0846 28.278C10.3661 30.2702 10.3439 31.4845 10.3439 33.6759C10.3439 35.0325 10.3534 40.8003 10.3597 43.5356C10.3597 43.5356 10.619 43.9815 10.7139 44.1996C10.8783 44.5665 11.0807 45.4993 11.0807 46.2519H1.37912C1.3475 46.5112 1.37912 46.7357 1.37912 46.7357H11.5645C11.5645 45.9831 11.3622 45.0503 11.1977 44.6835C11.0997 44.4653 10.8436 44.0194 10.8436 44.0194V44.0162Z" fill="black"/>
<path d="M20.0234 27.9177C19.7672 27.3011 19.4668 26.7856 19.1222 26.3777C18.9514 26.1753 18.7806 26.0014 18.6036 25.856C18.6162 25.8686 18.6289 25.8813 18.6383 25.8939C18.983 26.3018 19.2834 26.8173 19.5396 27.4339C19.9601 28.4331 20.2764 29.6664 20.4882 31.1273C20.7001 32.5883 20.8044 34.1156 20.8044 35.7093C20.8044 36.677 20.7602 37.6351 20.6716 38.5838C20.5799 39.5324 20.4503 40.4242 20.27 41.259C20.093 42.097 19.8716 42.8274 19.6123 43.4567C19.2202 44.4022 18.7364 45.1232 18.1609 45.6228C17.5853 46.1224 17.0098 46.3754 16.4343 46.3754C15.8398 46.3754 15.258 46.1477 14.6856 45.6924C14.673 45.6829 14.6603 45.6702 14.6477 45.6576C14.8121 45.8537 14.986 46.0276 15.1694 46.1762C15.7386 46.6316 16.3205 46.8592 16.9181 46.8592C17.4936 46.8592 18.0692 46.6063 18.6447 46.1066C19.2202 45.607 19.704 44.886 20.0961 43.9405C20.3554 43.3113 20.5768 42.5808 20.7539 41.7428C20.9309 40.9048 21.0669 40.0131 21.1554 39.0676C21.244 38.1221 21.2883 37.164 21.2883 36.1932C21.2883 34.5994 21.1839 33.0721 20.972 31.6111C20.7602 30.1471 20.444 28.917 20.0234 27.9177Z" fill="black"/>
<path d="M16.156 43.3239C15.8967 42.6504 15.6943 41.8187 15.5426 40.8258C15.3054 39.2131 15.1852 37.1134 15.1852 34.8177C15.1852 33.0753 15.2738 31.6555 15.454 30.5519C15.5837 29.7708 15.7513 29.1289 15.9631 28.6293C16.175 28.1265 16.4185 27.8798 16.6936 27.8798C16.7537 27.8798 16.8106 27.8893 16.8675 27.9114V27.9083C16.6651 27.5636 16.4469 27.396 16.2129 27.396C15.9347 27.396 15.6912 27.6458 15.4825 28.1486C15.2706 28.6482 15.103 29.2901 14.9734 30.0712C14.7963 31.1748 14.7077 32.5978 14.7077 34.337C14.7077 36.6359 14.8279 38.7324 15.0651 40.3452C15.2137 41.3349 15.4192 42.1697 15.6785 42.8433C15.8904 43.3935 16.1276 43.7161 16.3932 43.8172C16.3141 43.6813 16.2351 43.52 16.1624 43.3271L16.156 43.3239Z" fill="black"/>
<path d="M25.1683 42.056C25.1683 42.6442 25.1841 43.0679 25.2126 43.3272C25.241 43.5865 25.3137 43.7731 25.4276 43.8901C25.5003 43.9628 25.6078 44.0103 25.7406 44.0387C25.7217 43.9692 25.7059 43.8964 25.6964 43.811C25.6679 43.5517 25.6521 43.128 25.6521 42.5399V36.8353C25.6521 36.8353 26.6229 36.7404 27.3945 37.2843C26.6324 36.2092 25.1683 36.3514 25.1683 36.3514V42.056Z" fill="black"/>
<path d="M30.0096 36.2689C29.823 36.057 29.6491 35.8736 29.4498 35.6997C29.4751 35.7282 29.5004 35.7566 29.5257 35.7851C29.9969 36.3132 30.2214 36.816 30.5092 37.7077C30.7969 38.5963 30.9392 39.3362 30.9392 40.5537C30.9392 41.5751 30.8222 42.4953 30.5851 43.3048C30.3479 44.1143 30.0127 44.7878 29.5795 45.3223C29.2443 45.7523 28.8554 46.0369 28.4126 46.176C27.9699 46.3152 27.4703 46.3847 26.9106 46.3847H25.0228C25.0038 46.3879 24.9817 46.3911 24.9627 46.3911H23.8306H23.3278H22.6669C22.6353 46.5871 22.61 46.7231 22.6164 46.7705C22.629 46.8622 22.6986 46.8749 22.7681 46.8749H23.8117H24.3144H25.4465C25.4655 46.8749 25.4876 46.8717 25.5066 46.8686H27.3944C27.9541 46.8686 28.4569 46.799 28.8965 46.6599C29.3392 46.5207 29.7281 46.2361 30.0633 45.8061C30.4965 45.2717 30.8317 44.6013 31.0689 43.7886C31.3061 42.9759 31.4231 42.0589 31.4231 41.0375C31.4231 39.82 31.2808 39.0801 30.993 38.1915C30.7052 37.2998 30.4807 36.797 30.0096 36.2689Z" fill="black"/>
<path d="M26.3731 29.3409C25.6995 29.2524 25.1809 29.1733 25.1809 29.1733L25.1746 31.2825V33.0818C25.1746 33.0818 25.1714 33.0818 25.1683 33.0818V34.1633C25.2663 34.1411 25.4402 34.1285 25.6521 34.1317V33.5656C25.6553 33.5656 25.6584 33.5656 25.6584 33.5656V31.7663L25.6647 29.6572C25.6647 29.6572 26.1833 29.7362 26.8569 29.8248C27.3217 29.9165 27.6791 30.0271 27.9984 30.2548C27.9162 30.1473 27.8403 30.0524 27.7708 29.986C27.385 29.6034 26.9644 29.4611 26.3731 29.3441V29.3409Z" fill="black"/>
<path d="M29.4024 32.3194C29.7724 33.11 29.921 32.7527 29.921 32.7527C29.921 32.7527 29.9495 28.4869 29.9495 28.06C29.9495 27.8734 29.744 27.7437 29.5447 27.7153C29.5447 27.7153 29.5163 27.7121 29.4657 27.7026C29.4625 28.528 29.4372 32.2657 29.4372 32.2657C29.4372 32.2657 29.4246 32.2941 29.3993 32.3163L29.4024 32.3194Z" fill="black"/>
<path d="M50.1748 36.8414C50.0673 36.7307 49.963 36.6327 49.8586 36.541C50.2476 36.9932 50.5638 37.5719 50.8136 38.2771C51.0982 39.0803 51.2405 40.0289 51.2405 41.1262C51.2405 42.0496 51.1235 42.878 50.8895 43.6085C50.6555 44.339 50.3235 44.9461 49.8934 45.4268C49.5582 45.8157 49.1756 46.0719 48.736 46.1952C48.2997 46.3217 47.8032 46.3818 47.2498 46.3818H45.7667C45.7446 46.3849 45.7225 46.3881 45.7003 46.3881H44.4418H43.8821H43.0947C43.0599 46.5841 43.0314 46.7201 43.0378 46.7675C43.0504 46.8592 43.1295 46.8719 43.2085 46.8719H44.3691H44.9288H46.1873C46.2094 46.8719 46.2347 46.8687 46.2537 46.8656H47.7368C48.2902 46.8656 48.7866 46.8023 49.223 46.679C49.6626 46.5557 50.0452 46.2964 50.3804 45.9106C50.8104 45.4299 51.1425 44.8228 51.3765 44.0923C51.6105 43.3619 51.7275 42.5334 51.7275 41.61C51.7275 40.5127 51.5852 39.5609 51.3006 38.7609C51.016 37.9577 50.6428 37.3189 50.178 36.8414H50.1748Z" fill="black"/>
<path d="M46.0513 44.2855C46.0229 44.0515 46.0102 43.6689 46.0102 43.1376V37.822C46.0102 37.822 47.0664 37.5627 47.8475 38.056C47.136 36.9397 45.5296 37.3382 45.5296 37.3382V42.6538C45.5296 43.1851 45.5454 43.5677 45.5707 43.8017C45.5991 44.0357 45.6719 44.2033 45.7825 44.3108C45.8521 44.3772 45.9533 44.4183 46.083 44.4436C46.0703 44.3962 46.0608 44.3424 46.0545 44.2855H46.0513Z" fill="black"/>
<path d="M49.6278 32.111C49.6278 32.949 49.514 33.8565 49.28 34.47C49.1155 34.9127 48.9068 35.2827 48.6665 35.5957C48.8847 35.6969 49.0681 35.8139 49.242 35.9499C49.4444 35.6653 49.6183 35.3364 49.7638 34.9538C49.9946 34.3403 50.1116 33.4359 50.1116 32.598C50.1116 31.8928 50.0167 30.9252 49.827 30.3655C49.6373 29.8058 49.3653 29.3441 49.0175 28.9773C48.9226 28.8697 48.8183 28.7844 48.7108 28.7021C48.9732 29.031 49.1883 29.4231 49.3464 29.8816C49.5361 30.4414 49.631 31.409 49.631 32.1142L49.6278 32.111Z" fill="black"/>
<path d="M46.0735 30.2705C45.9122 30.2705 45.7984 30.3085 45.7288 30.3907C45.6593 30.4697 45.615 30.5994 45.5992 30.7796C45.5802 30.9599 45.5739 31.2508 45.5739 31.6555V35.3395C45.5739 35.3395 45.7857 35.3711 46.0577 35.3174V32.1362C46.0577 31.7314 46.0672 31.4374 46.083 31.2603C46.102 31.0832 46.1431 30.9535 46.2126 30.8713C46.2822 30.7923 46.3992 30.7512 46.5573 30.7512C46.668 30.7512 46.7755 30.7765 46.8735 30.8239C46.8229 30.7385 46.7723 30.6595 46.7123 30.5931C46.5225 30.3749 46.3107 30.2705 46.0703 30.2705H46.0735Z" fill="black"/>
<path d="M65.8467 26.5613C65.8625 29.5053 65.8878 35.2194 65.8878 36.0005C65.8878 36.8195 65.9131 38.116 66.0238 39.0235C66.1629 40.1682 66.2831 40.8829 66.457 41.4805C66.7321 42.426 67.178 43.7067 67.7693 44.004C67.4151 43.4664 67.1337 42.6316 66.9376 41.9644C66.7606 41.3667 66.6436 40.6521 66.5044 39.5073C66.3937 38.5998 66.3716 37.3033 66.3716 36.4843C66.3716 35.7032 66.3432 29.9923 66.3305 27.0451C66.3337 27.0451 66.3368 27.0451 66.34 27.0483C66.34 26.3178 66.4349 25.5146 66.419 25.3723C66.4064 25.2648 66.3242 25.2522 66.2483 25.249C66.1692 25.2743 66.0617 25.3059 65.9131 25.3502C65.891 25.6822 65.8562 26.1344 65.8562 26.5613C65.853 26.5613 65.8498 26.5613 65.8467 26.5582V26.5613Z" fill="black"/>
<path d="M72.0572 24.5625C72.1173 24.0502 72.1711 23.6771 72.1553 23.4779C72.1426 23.3261 72.0604 23.3071 71.9845 23.3071C71.9086 23.3419 71.7979 23.383 71.6493 23.4368C71.6303 23.617 71.6019 23.8321 71.5734 24.0787C71.4975 24.7364 71.4627 25.9918 71.4374 26.3871V43.4155C71.4374 44.0321 71.4659 44.2377 71.4659 44.6298C71.4659 45.4614 71.6082 46.1698 71.5924 46.2868C71.5797 46.3785 71.4975 46.3911 71.4216 46.3911H71.1781C71.1781 46.3911 70.8556 46.3911 70.8556 46.3943H68.1266C67.7408 46.3848 67.3993 46.3532 67.0989 46.3026C66.8017 46.2488 66.5013 46.1508 66.2072 46.0053C65.9921 45.901 65.7803 45.7587 65.5747 45.5848C65.657 45.6828 65.7423 45.7745 65.8246 45.8567C66.106 46.1318 66.3937 46.3405 66.691 46.4891C66.9882 46.6346 67.2855 46.7326 67.5859 46.7864C67.8831 46.8402 68.2278 46.8718 68.6104 46.8781H71.3394C71.3394 46.8781 71.662 46.8781 71.662 46.8749H71.9054C71.9813 46.8749 72.0636 46.8623 72.0762 46.7706C72.092 46.6504 71.9497 45.9453 71.9497 45.1136C71.9497 44.7215 71.9213 44.5159 71.9213 43.8993V26.8741C71.9466 26.4788 71.9813 25.2266 72.0572 24.5657V24.5625Z" fill="black"/>
<path d="M41.4851 28.332C41.3144 28.3384 41.1784 28.3415 41.0424 28.3447C40.9855 28.6261 40.9539 28.9265 40.9254 29.2364L40.8938 29.5684C40.8495 30.2325 40.8148 30.9946 40.8148 31.4563V43.7604C40.8148 44.0608 40.8211 44.3295 40.8306 44.5762C40.8337 44.5762 40.8337 44.5762 40.8369 44.573C40.8432 44.6742 40.8495 44.7723 40.8559 44.864C40.859 44.864 40.859 44.864 40.8622 44.864C40.8622 45.3193 41.0835 46.1699 41.0677 46.2869C41.0582 46.3786 40.9855 46.3913 40.9159 46.3913H40.8274H39.9799L38.655 46.4071C38.6234 46.5968 38.6012 46.7233 38.6044 46.7708C38.6139 46.8625 38.6834 46.872 38.753 46.8751V46.8941L40.4638 46.8751H41.3112H41.3998C41.4693 46.8751 41.5389 46.8625 41.5515 46.7708C41.5642 46.6506 41.346 45.8031 41.346 45.3478C41.346 45.3478 41.3428 45.3478 41.3397 45.3478C41.3334 45.2561 41.327 45.158 41.3207 45.0569C41.3175 45.0569 41.3175 45.0569 41.3144 45.06C41.3049 44.8134 41.2986 44.5446 41.2986 44.2442V31.9401C41.2986 31.4784 41.3334 30.7163 41.3745 30.0523L41.4061 29.7202C41.444 29.2933 41.4883 28.8823 41.6021 28.5154C41.6464 28.37 41.5452 28.3384 41.4851 28.332Z" fill="black"/>
<path d="M35.1418 39.8296V44.8638H35.145C35.145 45.3191 35.3695 46.1698 35.3537 46.2868C35.3442 46.3785 35.2714 46.3911 35.2019 46.3911H34.0698H33.567H32.9061C32.8745 46.5872 32.8492 46.7232 32.8555 46.7706C32.865 46.8623 32.9378 46.8749 33.0073 46.8749H34.0508H34.5536H35.6857C35.7553 46.8749 35.828 46.8623 35.8375 46.7706C35.8501 46.6536 35.6288 45.803 35.6288 45.3476H35.6256V40.3134C35.8786 40.3703 36.1252 40.5095 36.3561 40.7024C35.9829 40.2691 35.5782 39.9276 35.1418 39.8296Z" fill="black"/>
<path d="M35.7995 36.029C35.9324 34.8621 36.0209 34.3119 36.217 33.5245C36.413 32.7371 36.6691 32.0952 36.979 31.5956C37.2921 31.0959 37.6526 30.8461 38.0605 30.8461C38.0826 30.8461 38.1048 30.8493 38.1269 30.8524C38.0321 30.5267 37.8486 30.3623 37.5767 30.3623C37.1688 30.3623 36.8114 30.6121 36.4984 31.1117C36.1853 31.6082 35.9324 32.2533 35.7331 33.0407C35.5371 33.8281 35.4517 34.3783 35.3157 35.5451C35.2651 35.9942 35.2209 36.3388 35.1892 36.9934C35.3505 37.0156 35.5181 37.0661 35.692 37.1389C35.7205 36.6898 35.7553 36.3926 35.7995 36.029Z" fill="black"/>
<path d="M37.3015 38.3877C37.6336 38.7513 37.9624 39.1751 38.2818 39.6462V39.4628C37.9593 39.0486 37.6304 38.6849 37.3015 38.3877Z" fill="black"/>
<path d="M82.483 45.3476C82.4798 45.3476 82.4798 45.3476 82.4766 45.3476C82.4229 44.6487 82.3818 43.719 82.3818 42.7862V25.2455C82.3818 23.7656 82.5241 21.1157 82.5525 20.4643C82.5683 20.1101 82.6822 19.0856 82.6664 18.8895C82.6537 18.7377 82.5715 18.7188 82.4956 18.7188C82.4387 18.744 82.3217 18.7978 82.1604 18.8705C82.1288 19.2532 82.0782 19.7591 82.0687 19.9868C82.0403 20.635 81.898 23.2881 81.898 24.768V42.3087C81.898 43.2415 81.9391 44.1712 81.9928 44.8701C81.996 44.8701 81.996 44.8701 81.9991 44.8701C81.9991 45.3254 82.249 46.1761 82.2331 46.2931C82.2205 46.3848 82.1383 46.3974 82.0624 46.3974H80.788H80.222H79.4188C79.384 46.5935 79.3524 46.7294 79.3587 46.7769C79.3714 46.8686 79.4536 46.8812 79.5295 46.8812H80.7058H81.2718H82.5462C82.6253 46.8812 82.7043 46.8686 82.717 46.7769C82.7328 46.6567 82.483 45.8092 82.483 45.3539V45.3476Z" fill="black"/>
<path d="M78.3152 32.4365C77.9263 32.4365 77.4804 32.4271 77.0314 32.8223C76.848 32.9836 76.5887 33.3188 76.4875 33.8532C76.3989 34.3086 76.3895 34.5647 76.38 35.3426V42.1002C76.38 42.5587 76.3863 43.0109 76.3989 43.4315C76.4116 43.8141 76.4306 44.1746 76.4495 44.5035C76.4527 44.5351 76.4527 44.5667 76.4559 44.5983C76.4622 44.69 76.4685 44.7786 76.4748 44.864C76.478 44.864 76.478 44.864 76.4812 44.864C76.4812 45.3193 76.731 46.1699 76.7152 46.2869C76.7025 46.3786 76.6203 46.3913 76.5444 46.3913H75.27H74.704H73.9008C73.866 46.5873 73.8344 46.7233 73.8407 46.7708C73.8534 46.8625 73.9356 46.8751 74.0115 46.8751H75.1878H75.7539H77.0282C77.1041 46.8751 77.1863 46.8625 77.199 46.7708C77.2148 46.6506 76.965 45.8031 76.965 45.3478C76.9618 45.3478 76.9618 45.3478 76.9586 45.3478C76.9523 45.2624 76.946 45.1738 76.9397 45.0821C76.9365 45.0505 76.9365 45.0189 76.9334 44.9873C76.9112 44.6584 76.8954 44.2979 76.8828 43.9153C76.8701 43.4947 76.8638 43.0425 76.8638 42.584V35.8264C76.8701 35.0485 76.8828 34.7924 76.9713 34.337C77.0757 33.8026 77.3318 33.4674 77.5152 33.3061C77.9611 32.9109 78.4101 32.9204 78.799 32.9204C78.8117 32.9204 78.8275 32.9235 78.8402 32.9267C78.7168 32.6199 78.5366 32.4397 78.3184 32.4365H78.3152Z" fill="black"/>
<path d="M76.38 27.067V29.2299C76.4084 29.6157 76.4432 29.9382 76.4875 30.1659C76.5792 30.6371 76.7974 30.8078 77.0124 30.8173C76.9966 30.7667 76.9808 30.713 76.9713 30.6497C76.927 30.4221 76.8922 30.0995 76.8638 29.7169V27.5539C76.8638 26.1942 76.9365 24.1008 76.9998 23.4336C77.0345 23.2091 77.142 21.9474 77.1262 21.7513C77.1136 21.5995 77.0314 21.5806 76.9555 21.5806C76.9397 21.5901 76.8069 21.6501 76.6266 21.7387C76.5982 22.1877 76.5412 22.8043 76.5159 22.953C76.4495 23.6233 76.38 25.7167 76.38 27.0733V27.067Z" fill="black"/>
<path d="M62.0299 45.348C62.0078 45.076 61.9888 44.7661 61.973 44.4373C61.9762 44.4373 61.9793 44.4373 61.9825 44.4373C61.9793 42.5874 61.973 40.3264 61.9635 40.181C61.9129 39.3778 61.9034 38.2425 61.6853 37.6133C61.4007 36.7879 60.9042 36.1176 60.4394 35.6306C60.3192 35.5041 60.2053 35.3903 60.0852 35.2891C60.5121 35.7602 60.9453 36.38 61.2014 37.1295C61.4196 37.7587 61.4291 38.894 61.4797 39.6972C61.4892 39.8458 61.4955 42.1036 61.4987 43.9535C61.4955 43.9535 61.4924 43.9535 61.4892 43.9535C61.505 44.2823 61.524 44.5922 61.5461 44.8642C61.5493 44.8642 61.5493 44.8642 61.5524 44.8642C61.5524 45.3195 61.8023 46.1702 61.7864 46.2872C61.7738 46.3789 61.6916 46.3915 61.6157 46.3915H60.3413H59.7753H58.9721C58.9342 46.5876 58.9057 46.7235 58.912 46.771C58.9247 46.8627 59.0069 46.8753 59.0828 46.8753H60.2559H60.822H62.0963C62.1754 46.8753 62.2576 46.8627 62.2671 46.771C62.2829 46.6508 62.0331 45.8033 62.0331 45.348C62.0299 45.348 62.0299 45.348 62.0268 45.348H62.0299Z" fill="black"/>
<path d="M60.2433 30.7319C60.2433 31.592 60.0883 32.5818 59.8575 33.211C59.6899 33.6632 59.1713 34.0459 58.931 34.3652C59.1523 34.4696 59.3357 34.5898 59.5128 34.7321C59.7753 34.438 60.1958 34.0933 60.3445 33.6949C60.5753 33.0656 60.7302 32.0758 60.7302 31.2157C60.7302 31.1335 60.7271 29.2899 60.7239 27.9713C60.7334 27.8954 60.8378 26.8266 60.8219 26.6748C60.8093 26.5546 60.7271 26.542 60.6512 26.542C60.5911 26.561 60.4741 26.5863 60.3192 26.6147C60.2907 26.9784 60.2464 27.4401 60.2401 27.4906C60.2433 28.8093 60.2464 30.6528 60.2464 30.7351L60.2433 30.7319Z" fill="black"/>
<path d="M55.7877 36.1553V42.4196C55.7909 42.4164 55.7941 42.4164 55.7972 42.4164C55.8004 43.3113 55.8383 44.1967 55.8921 44.8671C55.8952 44.8671 55.8952 44.8671 55.8984 44.8671C55.8984 45.3225 56.1451 46.1731 56.1292 46.2901C56.1166 46.3818 56.0375 46.3944 55.9617 46.3944H54.7031H54.1434H53.356C53.3181 46.5905 53.2896 46.7265 53.2959 46.7739C53.3086 46.8656 53.3876 46.8783 53.4667 46.8783H54.6272H55.1869H56.4455C56.5214 46.8783 56.6036 46.8656 56.6162 46.7739C56.632 46.6537 56.3822 45.8063 56.3822 45.3509C56.3822 45.3509 56.3791 45.3509 56.3759 45.3509C56.3221 44.6805 56.2842 43.7951 56.281 42.9002C56.2779 42.9002 56.2747 42.9034 56.2715 42.9034V36.6391C56.2715 36.6391 57.3151 36.3735 58.093 36.8699C57.3752 35.7505 55.7877 36.1553 55.7877 36.1553Z" fill="black"/>
<path d="M55.832 33.4992C55.832 33.4992 56.0439 33.651 56.3158 33.7332V28.7749C56.3158 28.3449 56.3253 27.9306 56.4044 27.5575C56.436 27.4089 56.3317 27.3867 56.2684 27.3867C56.1135 27.4057 55.987 27.4183 55.8668 27.4342C55.8383 27.7093 55.832 27.997 55.832 28.2943V33.5024V33.4992Z" fill="black"/>
<path d="M4.92074 27.978C4.92074 26.7858 4.96185 25.8688 5.0409 25.23C5.12312 24.5913 5.3255 24.2719 5.64488 24.2719C5.76505 24.2719 5.87888 24.3035 5.98956 24.3636C5.73975 23.981 5.46148 23.7881 5.16107 23.7881C4.83852 23.7881 4.63614 24.1075 4.55709 24.7462C4.47487 25.3882 4.43693 26.302 4.43693 27.4942L4.44641 43.5644H4.93023L4.92074 27.978Z" fill="black"/>
<path d="M10.8436 44.0162C10.8372 41.2809 10.8278 35.5163 10.8278 34.1565C10.8278 31.9651 10.8499 30.754 10.5685 28.7587C10.2491 26.4882 9.73679 23.579 7.70034 21.7607C9.33836 23.5822 9.79371 26.1973 10.0846 28.278C10.3661 30.2702 10.3439 31.4845 10.3439 33.6759C10.3439 35.0325 10.3534 40.8003 10.3597 43.5356C10.3597 43.5356 10.619 43.9815 10.7139 44.1996C10.8783 44.5665 11.0807 45.4993 11.0807 46.2519H1.37912C1.3475 46.5112 1.37912 46.7357 1.37912 46.7357H11.5645C11.5645 45.9831 11.3622 45.0503 11.1977 44.6835C11.0997 44.4653 10.8436 44.0194 10.8436 44.0194V44.0162Z" fill="black"/>
<path d="M20.0234 27.9177C19.7672 27.3011 19.4668 26.7856 19.1222 26.3777C18.9514 26.1753 18.7806 26.0014 18.6036 25.856C18.6162 25.8686 18.6289 25.8813 18.6383 25.8939C18.983 26.3018 19.2834 26.8173 19.5396 27.4339C19.9601 28.4331 20.2764 29.6664 20.4882 31.1273C20.7001 32.5883 20.8044 34.1156 20.8044 35.7093C20.8044 36.677 20.7602 37.6351 20.6716 38.5838C20.5799 39.5324 20.4503 40.4242 20.27 41.259C20.093 42.097 19.8716 42.8274 19.6123 43.4567C19.2202 44.4022 18.7364 45.1232 18.1609 45.6228C17.5853 46.1224 17.0098 46.3754 16.4343 46.3754C15.8398 46.3754 15.258 46.1477 14.6856 45.6924C14.673 45.6829 14.6603 45.6702 14.6477 45.6576C14.8121 45.8537 14.986 46.0276 15.1694 46.1762C15.7386 46.6316 16.3205 46.8592 16.9181 46.8592C17.4936 46.8592 18.0692 46.6063 18.6447 46.1066C19.2202 45.607 19.704 44.886 20.0961 43.9405C20.3554 43.3113 20.5768 42.5808 20.7539 41.7428C20.9309 40.9048 21.0669 40.0131 21.1554 39.0676C21.244 38.1221 21.2883 37.164 21.2883 36.1932C21.2883 34.5994 21.1839 33.0721 20.972 31.6111C20.7602 30.1471 20.444 28.917 20.0234 27.9177Z" fill="black"/>
<path d="M16.156 43.3239C15.8967 42.6504 15.6943 41.8187 15.5426 40.8258C15.3054 39.2131 15.1852 37.1134 15.1852 34.8177C15.1852 33.0753 15.2738 31.6555 15.454 30.5519C15.5837 29.7708 15.7513 29.1289 15.9631 28.6293C16.175 28.1265 16.4185 27.8798 16.6936 27.8798C16.7537 27.8798 16.8106 27.8893 16.8675 27.9114V27.9083C16.6651 27.5636 16.4469 27.396 16.2129 27.396C15.9347 27.396 15.6912 27.6458 15.4825 28.1486C15.2706 28.6482 15.103 29.2901 14.9734 30.0712C14.7963 31.1748 14.7077 32.5978 14.7077 34.337C14.7077 36.6359 14.8279 38.7324 15.0651 40.3452C15.2137 41.3349 15.4192 42.1697 15.6785 42.8433C15.8904 43.3935 16.1276 43.7161 16.3932 43.8172C16.3141 43.6813 16.2351 43.52 16.1624 43.3271L16.156 43.3239Z" fill="black"/>
<path d="M25.1683 42.056C25.1683 42.6442 25.1841 43.0679 25.2126 43.3272C25.241 43.5865 25.3137 43.7731 25.4276 43.8901C25.5003 43.9628 25.6078 44.0103 25.7406 44.0387C25.7217 43.9692 25.7059 43.8964 25.6964 43.811C25.6679 43.5517 25.6521 43.128 25.6521 42.5399V36.8353C25.6521 36.8353 26.6229 36.7404 27.3945 37.2843C26.6324 36.2092 25.1683 36.3514 25.1683 36.3514V42.056Z" fill="black"/>
<path d="M30.0096 36.2689C29.823 36.057 29.6491 35.8736 29.4498 35.6997C29.4751 35.7282 29.5004 35.7566 29.5257 35.7851C29.9969 36.3132 30.2214 36.816 30.5092 37.7077C30.7969 38.5963 30.9392 39.3362 30.9392 40.5537C30.9392 41.5751 30.8222 42.4953 30.5851 43.3048C30.3479 44.1143 30.0127 44.7878 29.5795 45.3223C29.2443 45.7523 28.8554 46.0369 28.4126 46.176C27.9699 46.3152 27.4703 46.3847 26.9106 46.3847H25.0228C25.0038 46.3879 24.9817 46.3911 24.9627 46.3911H23.8306H23.3278H22.6669C22.6353 46.5871 22.61 46.7231 22.6164 46.7705C22.629 46.8622 22.6986 46.8749 22.7681 46.8749H23.8117H24.3144H25.4465C25.4655 46.8749 25.4876 46.8717 25.5066 46.8686H27.3944C27.9541 46.8686 28.4569 46.799 28.8965 46.6599C29.3392 46.5207 29.7281 46.2361 30.0633 45.8061C30.4965 45.2717 30.8317 44.6013 31.0689 43.7886C31.3061 42.9759 31.4231 42.0589 31.4231 41.0375C31.4231 39.82 31.2808 39.0801 30.993 38.1915C30.7052 37.2998 30.4807 36.797 30.0096 36.2689Z" fill="black"/>
<path d="M26.3731 29.3409C25.6995 29.2524 25.1809 29.1733 25.1809 29.1733L25.1746 31.2825V33.0818C25.1746 33.0818 25.1714 33.0818 25.1683 33.0818V34.1633C25.2663 34.1411 25.4402 34.1285 25.6521 34.1317V33.5656C25.6553 33.5656 25.6584 33.5656 25.6584 33.5656V31.7663L25.6647 29.6572C25.6647 29.6572 26.1833 29.7362 26.8569 29.8248C27.3217 29.9165 27.6791 30.0271 27.9984 30.2548C27.9162 30.1473 27.8403 30.0524 27.7708 29.986C27.385 29.6034 26.9644 29.4611 26.3731 29.3441V29.3409Z" fill="black"/>
<path d="M29.4024 32.3194C29.7724 33.11 29.921 32.7527 29.921 32.7527C29.921 32.7527 29.9495 28.4869 29.9495 28.06C29.9495 27.8734 29.744 27.7437 29.5447 27.7153C29.5447 27.7153 29.5163 27.7121 29.4657 27.7026C29.4625 28.528 29.4372 32.2657 29.4372 32.2657C29.4372 32.2657 29.4246 32.2941 29.3993 32.3163L29.4024 32.3194Z" fill="black"/>
<path d="M50.1748 36.8414C50.0673 36.7307 49.963 36.6327 49.8586 36.541C50.2476 36.9932 50.5638 37.5719 50.8136 38.2771C51.0982 39.0803 51.2405 40.0289 51.2405 41.1262C51.2405 42.0496 51.1235 42.878 50.8895 43.6085C50.6555 44.339 50.3235 44.9461 49.8934 45.4268C49.5582 45.8157 49.1756 46.0719 48.736 46.1952C48.2997 46.3217 47.8032 46.3818 47.2498 46.3818H45.7667C45.7446 46.3849 45.7225 46.3881 45.7003 46.3881H44.4418H43.8821H43.0947C43.0599 46.5841 43.0314 46.7201 43.0378 46.7675C43.0504 46.8592 43.1295 46.8719 43.2085 46.8719H44.3691H44.9288H46.1873C46.2094 46.8719 46.2347 46.8687 46.2537 46.8656H47.7368C48.2902 46.8656 48.7866 46.8023 49.223 46.679C49.6626 46.5557 50.0452 46.2964 50.3804 45.9106C50.8104 45.4299 51.1425 44.8228 51.3765 44.0923C51.6105 43.3619 51.7275 42.5334 51.7275 41.61C51.7275 40.5127 51.5852 39.5609 51.3006 38.7609C51.016 37.9577 50.6428 37.3189 50.178 36.8414H50.1748Z" fill="black"/>
<path d="M46.0513 44.2855C46.0229 44.0515 46.0102 43.6689 46.0102 43.1376V37.822C46.0102 37.822 47.0664 37.5627 47.8475 38.056C47.136 36.9397 45.5296 37.3382 45.5296 37.3382V42.6538C45.5296 43.1851 45.5454 43.5677 45.5707 43.8017C45.5991 44.0357 45.6719 44.2033 45.7825 44.3108C45.8521 44.3772 45.9533 44.4183 46.083 44.4436C46.0703 44.3962 46.0608 44.3424 46.0545 44.2855H46.0513Z" fill="black"/>
<path d="M49.6278 32.111C49.6278 32.949 49.514 33.8565 49.28 34.47C49.1155 34.9127 48.9068 35.2827 48.6665 35.5957C48.8847 35.6969 49.0681 35.8139 49.242 35.9499C49.4444 35.6653 49.6183 35.3364 49.7638 34.9538C49.9946 34.3403 50.1116 33.4359 50.1116 32.598C50.1116 31.8928 50.0167 30.9252 49.827 30.3655C49.6373 29.8058 49.3653 29.3441 49.0175 28.9773C48.9226 28.8697 48.8183 28.7844 48.7108 28.7021C48.9732 29.031 49.1883 29.4231 49.3464 29.8816C49.5361 30.4414 49.631 31.409 49.631 32.1142L49.6278 32.111Z" fill="black"/>
<path d="M46.0735 30.2705C45.9122 30.2705 45.7984 30.3085 45.7288 30.3907C45.6593 30.4697 45.615 30.5994 45.5992 30.7796C45.5802 30.9599 45.5739 31.2508 45.5739 31.6555V35.3395C45.5739 35.3395 45.7857 35.3711 46.0577 35.3174V32.1362C46.0577 31.7314 46.0672 31.4374 46.083 31.2603C46.102 31.0832 46.1431 30.9535 46.2126 30.8713C46.2822 30.7923 46.3992 30.7512 46.5573 30.7512C46.668 30.7512 46.7755 30.7765 46.8735 30.8239C46.8229 30.7385 46.7723 30.6595 46.7123 30.5931C46.5225 30.3749 46.3107 30.2705 46.0703 30.2705H46.0735Z" fill="black"/>
<path d="M65.8467 26.5613C65.8625 29.5053 65.8878 35.2194 65.8878 36.0005C65.8878 36.8195 65.9131 38.116 66.0238 39.0235C66.1629 40.1682 66.2831 40.8829 66.457 41.4805C66.7321 42.426 67.178 43.7067 67.7693 44.004C67.4151 43.4664 67.1337 42.6316 66.9376 41.9644C66.7606 41.3667 66.6436 40.6521 66.5044 39.5073C66.3937 38.5998 66.3716 37.3033 66.3716 36.4843C66.3716 35.7032 66.3432 29.9923 66.3305 27.0451C66.3337 27.0451 66.3368 27.0451 66.34 27.0483C66.34 26.3178 66.4349 25.5146 66.419 25.3723C66.4064 25.2648 66.3242 25.2522 66.2483 25.249C66.1692 25.2743 66.0617 25.3059 65.9131 25.3502C65.891 25.6822 65.8562 26.1344 65.8562 26.5613C65.853 26.5613 65.8498 26.5613 65.8467 26.5582V26.5613Z" fill="black"/>
<path d="M72.0572 24.5625C72.1173 24.0502 72.1711 23.6771 72.1553 23.4779C72.1426 23.3261 72.0604 23.3071 71.9845 23.3071C71.9086 23.3419 71.7979 23.383 71.6493 23.4368C71.6303 23.617 71.6019 23.8321 71.5734 24.0787C71.4975 24.7364 71.4627 25.9918 71.4374 26.3871V43.4155C71.4374 44.0321 71.4659 44.2377 71.4659 44.6298C71.4659 45.4614 71.6082 46.1698 71.5924 46.2868C71.5797 46.3785 71.4975 46.3911 71.4216 46.3911H71.1781C71.1781 46.3911 70.8556 46.3911 70.8556 46.3943H68.1266C67.7408 46.3848 67.3993 46.3532 67.0989 46.3026C66.8017 46.2488 66.5013 46.1508 66.2072 46.0053C65.9921 45.901 65.7803 45.7587 65.5747 45.5848C65.657 45.6828 65.7423 45.7745 65.8246 45.8567C66.106 46.1318 66.3937 46.3405 66.691 46.4891C66.9882 46.6346 67.2855 46.7326 67.5859 46.7864C67.8831 46.8402 68.2278 46.8718 68.6104 46.8781H71.3394C71.3394 46.8781 71.662 46.8781 71.662 46.8749H71.9054C71.9813 46.8749 72.0636 46.8623 72.0762 46.7706C72.092 46.6504 71.9497 45.9453 71.9497 45.1136C71.9497 44.7215 71.9213 44.5159 71.9213 43.8993V26.8741C71.9466 26.4788 71.9813 25.2266 72.0572 24.5657V24.5625Z" fill="black"/>
<path d="M41.4851 28.332C41.3144 28.3384 41.1784 28.3415 41.0424 28.3447C40.9855 28.6261 40.9539 28.9265 40.9254 29.2364L40.8938 29.5684C40.8495 30.2325 40.8148 30.9946 40.8148 31.4563V43.7604C40.8148 44.0608 40.8211 44.3295 40.8306 44.5762C40.8337 44.5762 40.8337 44.5762 40.8369 44.573C40.8432 44.6742 40.8495 44.7723 40.8559 44.864C40.859 44.864 40.859 44.864 40.8622 44.864C40.8622 45.3193 41.0835 46.1699 41.0677 46.2869C41.0582 46.3786 40.9855 46.3913 40.9159 46.3913H40.8274H39.9799L38.655 46.4071C38.6234 46.5968 38.6012 46.7233 38.6044 46.7708C38.6139 46.8625 38.6834 46.872 38.753 46.8751V46.8941L40.4638 46.8751H41.3112H41.3998C41.4693 46.8751 41.5389 46.8625 41.5515 46.7708C41.5642 46.6506 41.346 45.8031 41.346 45.3478C41.346 45.3478 41.3428 45.3478 41.3397 45.3478C41.3334 45.2561 41.327 45.158 41.3207 45.0569C41.3175 45.0569 41.3175 45.0569 41.3144 45.06C41.3049 44.8134 41.2986 44.5446 41.2986 44.2442V31.9401C41.2986 31.4784 41.3334 30.7163 41.3745 30.0523L41.4061 29.7202C41.444 29.2933 41.4883 28.8823 41.6021 28.5154C41.6464 28.37 41.5452 28.3384 41.4851 28.332Z" fill="black"/>
<path d="M35.1418 39.8296V44.8638H35.145C35.145 45.3191 35.3695 46.1698 35.3537 46.2868C35.3442 46.3785 35.2714 46.3911 35.2019 46.3911H34.0698H33.567H32.9061C32.8745 46.5872 32.8492 46.7232 32.8555 46.7706C32.865 46.8623 32.9378 46.8749 33.0073 46.8749H34.0508H34.5536H35.6857C35.7553 46.8749 35.828 46.8623 35.8375 46.7706C35.8501 46.6536 35.6288 45.803 35.6288 45.3476H35.6256V40.3134C35.8786 40.3703 36.1252 40.5095 36.3561 40.7024C35.9829 40.2691 35.5782 39.9276 35.1418 39.8296Z" fill="black"/>
<path d="M35.7995 36.029C35.9324 34.8621 36.0209 34.3119 36.217 33.5245C36.413 32.7371 36.6691 32.0952 36.979 31.5956C37.2921 31.0959 37.6526 30.8461 38.0605 30.8461C38.0826 30.8461 38.1048 30.8493 38.1269 30.8524C38.0321 30.5267 37.8486 30.3623 37.5767 30.3623C37.1688 30.3623 36.8114 30.6121 36.4984 31.1117C36.1853 31.6082 35.9324 32.2533 35.7331 33.0407C35.5371 33.8281 35.4517 34.3783 35.3157 35.5451C35.2651 35.9942 35.2209 36.3388 35.1892 36.9934C35.3505 37.0156 35.5181 37.0661 35.692 37.1389C35.7205 36.6898 35.7553 36.3926 35.7995 36.029Z" fill="black"/>
<path d="M37.3015 38.3877C37.6336 38.7513 37.9624 39.1751 38.2818 39.6462V39.4628C37.9593 39.0486 37.6304 38.6849 37.3015 38.3877Z" fill="black"/>
<path d="M82.483 45.3476C82.4798 45.3476 82.4798 45.3476 82.4766 45.3476C82.4229 44.6487 82.3818 43.719 82.3818 42.7862V25.2455C82.3818 23.7656 82.5241 21.1157 82.5525 20.4643C82.5683 20.1101 82.6822 19.0856 82.6664 18.8895C82.6537 18.7377 82.5715 18.7188 82.4956 18.7188C82.4387 18.744 82.3217 18.7978 82.1604 18.8705C82.1288 19.2532 82.0782 19.7591 82.0687 19.9868C82.0403 20.635 81.898 23.2881 81.898 24.768V42.3087C81.898 43.2415 81.9391 44.1712 81.9928 44.8701C81.996 44.8701 81.996 44.8701 81.9991 44.8701C81.9991 45.3254 82.249 46.1761 82.2331 46.2931C82.2205 46.3848 82.1383 46.3974 82.0624 46.3974H80.788H80.222H79.4188C79.384 46.5935 79.3524 46.7294 79.3587 46.7769C79.3714 46.8686 79.4536 46.8812 79.5295 46.8812H80.7058H81.2718H82.5462C82.6253 46.8812 82.7043 46.8686 82.717 46.7769C82.7328 46.6567 82.483 45.8092 82.483 45.3539V45.3476Z" fill="black"/>
<path d="M78.3152 32.4365C77.9263 32.4365 77.4804 32.4271 77.0314 32.8223C76.848 32.9836 76.5887 33.3188 76.4875 33.8532C76.3989 34.3086 76.3895 34.5647 76.38 35.3426V42.1002C76.38 42.5587 76.3863 43.0109 76.3989 43.4315C76.4116 43.8141 76.4306 44.1746 76.4495 44.5035C76.4527 44.5351 76.4527 44.5667 76.4559 44.5983C76.4622 44.69 76.4685 44.7786 76.4748 44.864C76.478 44.864 76.478 44.864 76.4812 44.864C76.4812 45.3193 76.731 46.1699 76.7152 46.2869C76.7025 46.3786 76.6203 46.3913 76.5444 46.3913H75.27H74.704H73.9008C73.866 46.5873 73.8344 46.7233 73.8407 46.7708C73.8534 46.8625 73.9356 46.8751 74.0115 46.8751H75.1878H75.7539H77.0282C77.1041 46.8751 77.1863 46.8625 77.199 46.7708C77.2148 46.6506 76.965 45.8031 76.965 45.3478C76.9618 45.3478 76.9618 45.3478 76.9586 45.3478C76.9523 45.2624 76.946 45.1738 76.9397 45.0821C76.9365 45.0505 76.9365 45.0189 76.9334 44.9873C76.9112 44.6584 76.8954 44.2979 76.8828 43.9153C76.8701 43.4947 76.8638 43.0425 76.8638 42.584V35.8264C76.8701 35.0485 76.8828 34.7924 76.9713 34.337C77.0757 33.8026 77.3318 33.4674 77.5152 33.3061C77.9611 32.9109 78.4101 32.9204 78.799 32.9204C78.8117 32.9204 78.8275 32.9235 78.8402 32.9267C78.7168 32.6199 78.5366 32.4397 78.3184 32.4365H78.3152Z" fill="black"/>
<path d="M76.38 27.067V29.2299C76.4084 29.6157 76.4432 29.9382 76.4875 30.1659C76.5792 30.6371 76.7974 30.8078 77.0124 30.8173C76.9966 30.7667 76.9808 30.713 76.9713 30.6497C76.927 30.4221 76.8922 30.0995 76.8638 29.7169V27.5539C76.8638 26.1942 76.9365 24.1008 76.9998 23.4336C77.0345 23.2091 77.142 21.9474 77.1262 21.7513C77.1136 21.5995 77.0314 21.5806 76.9555 21.5806C76.9397 21.5901 76.8069 21.6501 76.6266 21.7387C76.5982 22.1877 76.5412 22.8043 76.5159 22.953C76.4495 23.6233 76.38 25.7167 76.38 27.0733V27.067Z" fill="black"/>
<path d="M62.0299 45.348C62.0078 45.076 61.9888 44.7661 61.973 44.4373C61.9762 44.4373 61.9793 44.4373 61.9825 44.4373C61.9793 42.5874 61.973 40.3264 61.9635 40.181C61.9129 39.3778 61.9034 38.2425 61.6853 37.6133C61.4007 36.7879 60.9042 36.1176 60.4394 35.6306C60.3192 35.5041 60.2053 35.3903 60.0852 35.2891C60.5121 35.7602 60.9453 36.38 61.2014 37.1295C61.4196 37.7587 61.4291 38.894 61.4797 39.6972C61.4892 39.8458 61.4955 42.1036 61.4987 43.9535C61.4955 43.9535 61.4924 43.9535 61.4892 43.9535C61.505 44.2823 61.524 44.5922 61.5461 44.8642C61.5493 44.8642 61.5493 44.8642 61.5524 44.8642C61.5524 45.3195 61.8023 46.1702 61.7864 46.2872C61.7738 46.3789 61.6916 46.3915 61.6157 46.3915H60.3413H59.7753H58.9721C58.9342 46.5876 58.9057 46.7235 58.912 46.771C58.9247 46.8627 59.0069 46.8753 59.0828 46.8753H60.2559H60.822H62.0963C62.1754 46.8753 62.2576 46.8627 62.2671 46.771C62.2829 46.6508 62.0331 45.8033 62.0331 45.348C62.0299 45.348 62.0299 45.348 62.0268 45.348H62.0299Z" fill="black"/>
<path d="M60.2433 30.7319C60.2433 31.592 60.0883 32.5818 59.8575 33.211C59.6899 33.6632 59.1713 34.0459 58.931 34.3652C59.1523 34.4696 59.3357 34.5898 59.5128 34.7321C59.7753 34.438 60.1958 34.0933 60.3445 33.6949C60.5753 33.0656 60.7302 32.0758 60.7302 31.2157C60.7302 31.1335 60.7271 29.2899 60.7239 27.9713C60.7334 27.8954 60.8378 26.8266 60.8219 26.6748C60.8093 26.5546 60.7271 26.542 60.6512 26.542C60.5911 26.561 60.4741 26.5863 60.3192 26.6147C60.2907 26.9784 60.2464 27.4401 60.2401 27.4906C60.2433 28.8093 60.2464 30.6528 60.2464 30.7351L60.2433 30.7319Z" fill="black"/>
<path d="M55.7877 36.1553V42.4196C55.7909 42.4164 55.7941 42.4164 55.7972 42.4164C55.8004 43.3113 55.8383 44.1967 55.8921 44.8671C55.8952 44.8671 55.8952 44.8671 55.8984 44.8671C55.8984 45.3225 56.1451 46.1731 56.1292 46.2901C56.1166 46.3818 56.0375 46.3944 55.9617 46.3944H54.7031H54.1434H53.356C53.3181 46.5905 53.2896 46.7265 53.2959 46.7739C53.3086 46.8656 53.3876 46.8783 53.4667 46.8783H54.6272H55.1869H56.4455C56.5214 46.8783 56.6036 46.8656 56.6162 46.7739C56.632 46.6537 56.3822 45.8063 56.3822 45.3509C56.3822 45.3509 56.3791 45.3509 56.3759 45.3509C56.3221 44.6805 56.2842 43.7951 56.281 42.9002C56.2779 42.9002 56.2747 42.9034 56.2715 42.9034V36.6391C56.2715 36.6391 57.3151 36.3735 58.093 36.8699C57.3752 35.7505 55.7877 36.1553 55.7877 36.1553Z" fill="black"/>
<path d="M55.832 33.4992C55.832 33.4992 56.0439 33.651 56.3158 33.7332V28.7749C56.3158 28.3449 56.3253 27.9306 56.4044 27.5575C56.436 27.4089 56.3317 27.3867 56.2684 27.3867C56.1135 27.4057 55.987 27.4183 55.8668 27.4342C55.8383 27.7093 55.832 27.997 55.832 28.2943V33.5024V33.4992Z" fill="black"/>
<path d="M7.20069 43.343H4.03218L4.02269 27.2728C4.02269 26.0806 4.0638 25.1667 4.14286 24.5248C4.22507 23.8861 4.42745 23.5667 4.74683 23.5667C5.16741 23.5667 5.54054 23.9398 5.86309 24.6829C6.18563 25.426 6.45126 26.3874 6.65364 27.5574C6.85602 28.7337 6.94456 29.5527 7.08369 31.2919C7.19437 32.6706 7.21651 35.1245 7.21651 36.3672C7.21651 37.4993 7.20702 40.7057 7.20069 43.343ZM9.94231 43.3082C9.93599 40.5729 9.9265 34.8083 9.9265 33.4485C9.9265 31.2571 9.94548 30.046 9.6672 28.0507C9.27193 25.2521 8.5889 21.4891 5.12313 19.9871C4.05431 19.5254 2.69457 19.2629 1.69216 18.9088C0.29447 18.4155 0.607527 19.1175 0.841529 19.6456C0.980665 19.9618 1.13877 20.9389 1.13877 21.4923C1.13877 22.1374 1.18305 21.9318 1.18305 23.4022V40.8797C1.18305 42.3533 1.13245 43.0932 1.02494 43.7288C0.920584 44.3644 0.677095 44.8988 0.547445 45.253C0.417795 45.604 0.481039 46.0246 0.481039 46.0246H10.6665C10.6665 45.272 10.4641 44.3391 10.2996 43.9723C10.2016 43.7541 9.94548 43.3082 9.94548 43.3082H9.94231Z" fill="black"/>
<path d="M17.4304 40.9018C17.3197 41.705 17.1521 42.3596 16.9307 42.8655C16.7062 43.3746 16.4469 43.6276 16.1528 43.6276C15.8145 43.6276 15.5172 43.2924 15.2579 42.6157C14.9986 41.9422 14.7963 41.1105 14.6445 40.1176C14.4073 38.5049 14.2871 36.4052 14.2871 34.1094C14.2871 32.3702 14.3757 30.9472 14.5528 29.8436C14.6824 29.0626 14.85 28.4207 15.0619 27.921C15.2738 27.4182 15.5172 27.1684 15.7924 27.1684C16.0264 27.1684 16.2445 27.3392 16.4469 27.6807C16.6493 28.0222 16.8264 28.4649 16.975 29.0057C17.1236 29.5464 17.2438 30.1251 17.3323 30.7449C17.5474 32.2975 17.6549 34.2517 17.6549 36.6139C17.6549 38.3183 17.579 39.8425 17.424 40.8987L17.4304 40.9018ZM19.1253 27.2095C18.8692 26.5929 18.5688 26.0775 18.2241 25.6695C17.8794 25.2616 17.5221 24.9644 17.1521 24.781C16.7821 24.5976 16.4027 24.5059 16.0169 24.5059C15.3939 24.5059 14.8121 24.7525 14.2713 25.2395C13.7306 25.7296 13.2563 26.4411 12.8484 27.374C12.4436 28.31 12.1274 29.4452 11.9029 30.786C11.6752 32.1267 11.5613 33.6161 11.5613 35.2605C11.5613 36.285 11.6088 37.2938 11.7005 38.2772C11.7922 39.2638 11.9313 40.1935 12.121 41.0694C12.3108 41.9453 12.5448 42.7169 12.8262 43.3841C13.2215 44.317 13.7021 45.0127 14.2713 45.468C14.8405 45.9234 15.4224 46.1511 16.0169 46.1511C16.5924 46.1511 17.1679 45.9012 17.7434 45.3984C18.3158 44.8988 18.8028 44.1778 19.1949 43.2323C19.4573 42.6031 19.6755 41.8726 19.8526 41.0346C20.0297 40.1966 20.1625 39.3049 20.2542 38.3594C20.3427 37.4139 20.387 36.4526 20.387 35.485C20.387 33.8912 20.2827 32.3639 20.0708 30.903C19.8589 29.442 19.5427 28.2088 19.1221 27.2095H19.1253Z" fill="black"/>
<path d="M27.3533 41.9738C27.1794 42.5904 26.9391 43.0584 26.6292 43.3715C26.3193 43.6845 25.9683 43.8426 25.5793 43.8426C25.3169 43.8426 25.1271 43.7857 25.0133 43.6687C24.8995 43.5517 24.8267 43.3651 24.7983 43.1058C24.7698 42.8465 24.754 42.4228 24.754 41.8346V36.13C24.754 36.13 26.5754 35.9466 27.211 37.4771C27.5399 38.2677 27.6126 38.9507 27.6126 40.029C27.6126 40.9176 27.5272 41.3571 27.3533 41.9738ZM29.1115 35.564C28.6435 35.0359 28.2704 34.6691 27.3185 34.2675C26.5248 33.9355 25.1303 33.8533 24.754 33.9418V32.8603C24.7572 32.8603 24.7603 32.8603 24.7603 32.8603V31.0611L24.7667 28.9519C24.7667 28.9519 25.2853 29.0309 25.9588 29.1195C26.5501 29.2365 26.9739 29.3819 27.3565 29.7614C27.6601 30.0618 28.1312 30.8207 28.5012 31.6081C28.8743 32.4081 29.023 32.0477 29.023 32.0477C29.023 32.0477 29.0514 27.7819 29.0514 27.3581C29.0514 27.1716 28.8459 27.0419 28.6467 27.0134C28.6467 27.0134 25.8576 26.6024 24.4599 26.3462C23.4955 26.1691 22.3033 25.8972 21.6551 25.7454C21.3641 25.679 21.7151 27.1052 21.7721 27.3486C21.8859 27.8198 21.9428 28.5977 21.9428 29.6855V31.3962C21.9428 31.3962 21.9397 31.3962 21.9365 31.3962V40.9208C21.9333 40.9208 21.9302 40.9208 21.9238 40.9208L21.8732 44.5288H21.8701C21.8701 45.3352 21.6993 45.9518 21.712 46.0688C21.7215 46.1605 21.7942 46.1732 21.8638 46.1732H22.9073H23.4101H24.5421C24.5611 46.1732 24.5832 46.17 24.6022 46.1668H26.49C27.0498 46.1668 27.5494 46.0973 27.9921 45.9581C28.4348 45.819 28.8206 45.5376 29.1589 45.1043C29.5922 44.5699 29.9274 43.8995 30.1645 43.0869C30.4017 42.2742 30.5187 41.3571 30.5187 40.3358C30.5187 39.1183 30.3764 38.3784 30.0886 37.4898C29.8009 36.598 29.5763 36.0953 29.1052 35.5672L29.1115 35.564Z" fill="black"/>
<path d="M47.6862 42.5585C47.5154 43.1151 47.2751 43.5356 46.9684 43.8202C46.6616 44.1048 46.3138 44.244 45.928 44.244C45.6655 44.244 45.479 44.1934 45.3651 44.0858C45.2513 43.9815 45.1817 43.8107 45.1533 43.5767C45.1248 43.3427 45.109 42.9601 45.109 42.4289V37.1132C45.109 37.1132 46.9114 36.6642 47.547 38.0429C47.8727 38.7576 47.9455 39.6525 47.9455 40.6264C47.9455 41.4296 47.8601 41.9988 47.6893 42.5553L47.6862 42.5585ZM45.1564 31.4339C45.1564 31.0292 45.1659 30.7351 45.1817 30.558C45.2007 30.3809 45.2418 30.2513 45.3145 30.1691C45.3841 30.09 45.4979 30.0489 45.6592 30.0489C45.8995 30.0489 46.1114 30.1564 46.3011 30.3714C46.4909 30.5865 46.6363 30.909 46.7438 31.3359C46.8482 31.7628 46.864 32.1075 46.864 32.5027C46.864 32.996 46.8608 33.6854 46.6585 34.2293C46.2695 35.2823 45.1596 35.121 45.1596 35.121V31.4371L45.1564 31.4339ZM49.2768 36.1361C48.9511 35.8009 48.6633 35.5637 48.2522 35.374C48.4925 35.061 48.6981 34.691 48.8657 34.2483C49.0965 33.6348 49.2104 32.7304 49.2104 31.8924C49.2104 31.1873 49.1155 30.2196 48.9258 29.6631C48.736 29.1034 48.4641 28.6417 48.1162 28.2749C47.8443 27.9777 47.5344 27.7816 47.1771 27.6867C46.8229 27.5919 46.4181 27.5444 45.9691 27.5444L42.6583 27.6488C42.5033 27.6425 42.3484 27.6393 42.1523 27.633C42.0923 27.6393 41.9911 27.6709 42.0353 27.8164C42.146 28.1832 42.1935 28.5943 42.2314 29.0212L42.2883 29.641C42.2915 29.7548 42.2915 29.8813 42.301 30.0331C42.301 30.0995 42.3041 30.169 42.3041 30.2386V36.1171C42.3105 36.1171 42.3199 36.1203 42.3263 36.1203V42.8779H42.3231V43.7254C42.3199 43.8265 42.3199 43.9277 42.3168 44.0226C42.3199 44.0226 42.3199 44.0226 42.3231 44.0226V44.5286H42.3199C42.3199 45.3349 42.1302 45.9515 42.146 46.0685C42.1587 46.1602 42.2377 46.1729 42.3168 46.1729H43.4773H44.037H45.2956C45.3177 46.1729 45.343 46.1697 45.362 46.1666H46.845C47.3984 46.1666 47.8949 46.1033 48.3313 45.98C48.7708 45.8567 49.1534 45.5974 49.4886 45.2116C49.9187 44.7309 50.2507 44.1238 50.4847 43.3933C50.7187 42.6629 50.8357 41.8344 50.8357 40.911C50.8357 39.8137 50.6966 38.8619 50.4088 38.0619C50.1242 37.2587 49.7511 36.6199 49.2862 36.1424L49.2768 36.1361Z" fill="black"/>
<path d="M71.156 23.8574C71.2161 23.3452 71.2699 22.972 71.254 22.7728C71.2414 22.621 71.1592 22.6021 71.0833 22.6021C70.9062 22.6811 70.5805 22.7855 69.9259 23.0479C69.4611 23.2155 68.4682 23.5665 68.4176 23.5823C68.3417 23.5823 68.2215 23.6329 68.2089 23.7847C68.193 23.9808 68.329 24.8693 68.3796 25.7105C68.3828 28.2149 68.3796 32.5914 68.3796 33.129V41.4455C68.3796 42.2298 68.3385 42.8306 68.2563 43.2543C68.1741 43.6749 67.8326 43.8962 67.5132 43.8362C66.8428 43.7128 66.3432 42.2835 66.0428 41.259C65.8688 40.6582 65.7487 39.9467 65.6095 38.802C65.4989 37.8944 65.4736 36.5979 65.4736 35.7789C65.4736 35.001 65.4451 29.2869 65.4325 26.3398C65.4356 26.3398 65.4388 26.3398 65.4419 26.3429C65.4419 25.6125 65.5368 24.8061 65.521 24.667C65.5083 24.5594 65.4261 24.5468 65.3502 24.5468C65.1732 24.6037 64.8538 24.6954 64.2118 24.8852C63.4814 25.0464 62.8047 25.1666 62.4695 25.2014C62.3936 25.2014 62.3114 25.2172 62.2987 25.3437C62.2829 25.5081 62.3714 25.8306 62.4473 26.5611C62.4537 26.6212 62.479 26.9943 62.4916 27.4845C62.4979 30.517 62.5074 35.7852 62.5074 36.639C62.5074 38.081 62.6023 39.5229 62.8932 40.8321C63.1841 42.1444 63.5921 43.229 64.117 44.0923C64.3763 44.5224 64.6451 44.8765 64.9265 45.1516C65.2079 45.4267 65.4957 45.6354 65.7929 45.7841C66.0902 45.9295 66.3874 46.0276 66.6847 46.0813C66.9819 46.1351 67.3266 46.1667 67.7124 46.173H70.4414C70.4414 46.173 70.7639 46.173 70.7639 46.1699H71.0074C71.0865 46.1699 71.1655 46.1572 71.1782 46.0655C71.194 45.9485 71.0517 45.2402 71.0517 44.4085C71.0517 44.0164 71.0232 43.8109 71.0232 43.1942V26.169C71.0485 25.7737 71.0833 24.5215 71.1592 23.8606L71.156 23.8574Z" fill="black"/>
<path d="M34.775 36.7686C34.8066 36.114 34.8477 35.7693 34.9015 35.3203C35.0375 34.1535 35.1228 33.6032 35.3189 32.8159C35.515 32.0285 35.7711 31.3865 36.081 30.8869C36.394 30.3873 36.7545 30.1375 37.1625 30.1375C37.4755 30.1375 37.6684 30.3525 37.7475 30.7794C37.8265 31.2095 37.8645 31.8229 37.8645 32.6198V39.4185C36.8462 37.9038 35.6984 36.8888 34.775 36.7654V36.7686ZM40.584 27.6235C40.3278 27.633 40.1476 27.633 39.9357 27.6457C39.5215 27.652 38.9554 27.6583 38.3325 27.6678H37.1498C36.7798 27.6773 36.451 27.7089 36.1632 27.7627C35.8754 27.8164 35.5909 27.9176 35.3063 28.0662C35.0217 28.2149 34.7434 28.4299 34.4746 28.7082C34.2027 28.9896 33.9465 29.3501 33.6967 29.7896C33.1907 30.6687 32.7986 31.7787 32.5204 33.1131C32.2389 34.4475 32.1504 36.25 32.1504 37.7204C32.1504 38.3592 32.1441 40.6075 32.1409 42.6218L32.1156 44.5286H32.1124C32.1124 45.335 31.9417 45.9516 31.9543 46.0686C31.967 46.1603 32.0365 46.1729 32.1061 46.1729H33.1496H33.6524H34.7845C34.8541 46.1729 34.9268 46.1603 34.9363 46.0686C34.9521 45.9516 34.7276 45.101 34.7276 44.6456H34.7244V39.6082C35.4169 39.7632 36.0272 40.5316 36.5585 41.3C36.9032 41.7807 37.2099 42.3973 37.4755 43.1499C37.6874 43.7539 37.8075 44.3578 37.8487 44.9587C37.8075 45.5468 37.6969 45.9737 37.7095 46.0686C37.719 46.1603 37.7886 46.1698 37.8581 46.1729V46.1919L39.5689 46.1729H40.4164H40.5017C40.5713 46.1729 40.6409 46.1603 40.6504 46.0686C40.6662 45.9516 40.4448 45.101 40.4448 44.6456H40.4417C40.4353 44.5539 40.429 44.4527 40.4227 44.3547H40.4195C40.41 44.108 40.4037 43.8392 40.4037 43.5388V31.2316C40.4037 30.7699 40.4385 30.0078 40.4828 29.3438L40.5112 29.0117C40.5492 28.5848 40.5966 28.1738 40.7073 27.8069C40.7515 27.6615 40.6504 27.6299 40.5903 27.6235H40.584Z" fill="black"/>
<path d="M81.5817 44.6425C81.5785 44.6425 81.5785 44.6425 81.5754 44.6425C81.5216 43.9436 81.4805 43.014 81.4805 42.0811V24.5404C81.4805 23.0605 81.6228 20.4106 81.6513 19.7592C81.6671 19.405 81.7809 18.3805 81.7651 18.1844C81.7525 18.0326 81.6702 18.0137 81.5943 18.0137C81.2623 18.1591 78.6725 19.3291 78.6725 19.3291C78.6725 19.3386 78.448 19.4082 78.4701 19.6833C78.4828 19.8825 78.4954 20.0564 78.5903 21.0683C78.6029 21.1917 78.6282 22.4281 78.6282 23.4432C78.6219 23.4653 78.6219 23.4874 78.6187 23.5096C78.6219 23.6234 78.6251 23.7404 78.6282 23.8637C78.6282 24.5341 78.6251 26.3713 78.6251 26.5358C78.6251 26.5358 78.6282 26.5358 78.6282 26.5326C78.6156 27.4655 78.6124 28.5185 78.5302 28.9643C78.4227 29.5557 78.2551 29.777 77.9199 30.0648C77.5436 30.3873 77.3096 30.4948 76.6803 30.5929C76.44 30.6277 76.1712 30.4822 76.07 29.9478C76.0257 29.7201 75.9909 29.3976 75.9625 29.0118V26.8488C75.9625 25.4891 76.0352 23.3957 76.1016 22.7285C76.1364 22.504 76.2439 21.2423 76.2281 21.0462C76.2155 20.8944 76.1332 20.8755 76.0574 20.8723C75.9973 20.9008 74.5427 21.5964 74.3055 21.7039C73.7521 21.9443 73.3252 22.1024 73.2145 22.1467C73.1039 22.1909 72.9711 22.232 72.9584 22.3838C72.9426 22.5799 73.0564 23.0732 73.1102 23.9902C73.1134 24.0408 73.1292 24.2906 73.1355 24.6479L73.126 42.8748V44.5286H73.1228C73.1228 45.335 72.9299 45.9516 72.9458 46.0686C72.9584 46.1603 73.0406 46.173 73.1165 46.173H74.2897H74.8557H76.1301C76.2091 46.173 76.2914 46.1603 76.3008 46.0686C76.3167 45.9516 76.0668 45.101 76.0668 44.6456C76.0637 44.6456 76.0637 44.6456 76.0605 44.6456C76.0542 44.5603 76.0479 44.4717 76.0415 44.38C76.0384 44.3484 76.0384 44.3168 76.0352 44.2852C76.0131 43.9563 75.9973 43.5958 75.9846 43.2132C75.972 42.7926 75.9656 42.3404 75.9656 41.8787V35.1211C75.9751 34.3432 75.9846 34.0871 76.0732 33.6317C76.1775 33.0973 76.4337 32.7621 76.6171 32.6009C77.0661 32.2056 77.512 32.2151 77.9009 32.2151C78.214 32.2151 78.448 32.5787 78.5555 33.1701C78.644 33.6665 78.6187 33.7582 78.6377 34.7575C78.6409 34.7575 78.6409 34.7575 78.644 34.7575V44.5255H78.6409C78.6409 45.3318 78.448 45.9485 78.4638 46.0655C78.4764 46.1572 78.5586 46.1698 78.6345 46.1698H79.8109H80.3769H81.6513C81.7303 46.1698 81.8125 46.1572 81.822 46.0655C81.8378 45.9485 81.5849 45.0978 81.5849 44.6425H81.5817Z" fill="black"/>
<path d="M61.1287 44.6427C61.1066 44.3707 61.0876 44.0609 61.0718 43.732C61.0749 43.732 61.0781 43.732 61.0844 43.732C61.0813 41.8821 61.0749 39.6211 61.0655 39.4757C61.0149 38.6725 61.0054 37.5341 60.7872 36.908C60.5026 36.0826 60.0061 35.4123 59.5413 34.9253C59.2156 34.5838 58.9278 34.3371 58.5167 34.1411C58.7571 33.8217 59.2788 33.4391 59.4464 32.9869C59.6773 32.3576 59.8322 31.3678 59.8322 30.5077C59.8322 30.4255 59.8322 28.5819 59.8259 27.2633C59.8322 27.1874 59.9366 26.1186 59.9239 25.9668C59.9113 25.8466 59.829 25.834 59.7532 25.834C59.5697 25.8972 58.8488 25.9953 58.1815 26.1186C57.6724 26.185 57.3151 26.2799 57.1855 26.283C57.1159 26.283 57.04 26.2988 57.0273 26.4127C57.0147 26.5645 57.1633 27.2633 57.1633 27.6586V30.9694C57.1633 31.7346 57.119 32.4366 56.9198 32.9963C56.5309 34.0778 55.4209 33.2778 55.4209 33.2778V28.0697C55.4209 27.6396 55.4304 27.2253 55.5095 26.8522C55.5411 26.7036 55.4368 26.6815 55.3735 26.6815C54.9719 26.7289 54.7569 26.7447 54.3237 26.8301C54.1656 26.849 53.9948 26.8712 53.8209 26.8902L52.5465 27.0483C52.4706 27.0546 52.5054 27.0578 52.4675 27.0609C52.3916 27.0609 52.3094 27.0799 52.2967 27.2317C52.2809 27.4277 52.4169 27.5605 52.4643 28.4776C52.4738 28.6547 52.5497 31.4058 52.5655 32.7623L52.5813 42.875V44.5289C52.5781 44.5289 52.5781 44.5289 52.5781 44.5289C52.5781 45.3352 52.3884 45.9518 52.4042 46.0688C52.4169 46.1605 52.4959 46.1732 52.575 46.1732H53.7355H54.2952H55.5538C55.6297 46.1732 55.7119 46.1605 55.7214 46.0688C55.7372 45.9518 55.4905 45.1012 55.4905 44.6459C55.4905 44.6459 55.4874 44.6459 55.4842 44.6459C55.4304 43.9755 55.3925 43.0901 55.3893 42.1952C55.3862 42.1952 55.383 42.1983 55.3798 42.1983V35.934C55.3798 35.934 57.1823 35.4723 57.8147 36.889C58.0772 37.4772 58.1752 38.1887 58.2037 38.9666C58.2068 39.0646 58.21 41.0252 58.21 42.875C58.2068 42.875 58.2037 42.875 58.2037 42.875V44.5289H58.2005C58.2005 45.3352 58.0076 45.9518 58.0234 46.0688C58.0361 46.1605 58.1183 46.1732 58.1942 46.1732H59.3705H59.9366H61.2109C61.2868 46.1732 61.369 46.1605 61.3817 46.0688C61.3975 45.9518 61.1477 45.1012 61.1477 44.6459C61.1445 44.6459 61.1445 44.6459 61.1414 44.6459L61.1287 44.6427Z" fill="black"/>
<path fill-rule="evenodd" clip-rule="evenodd" d="M78.6725 19.3263C78.6757 19.3357 78.448 19.4053 78.4701 19.6804C78.4828 19.8765 78.4954 20.0536 78.5903 21.0655C78.5998 21.1888 78.6283 22.4252 78.6283 23.4403C78.6219 23.4624 78.6219 23.4845 78.6188 23.5067C78.6219 23.6205 78.6251 23.7375 78.6283 23.8608C78.6283 24.5312 78.6251 26.3685 78.6251 26.5329C78.6251 26.5329 78.6283 26.5329 78.6314 26.5297C78.6188 27.4626 78.6156 28.5156 78.5334 28.9615C78.4259 29.5528 78.2583 29.7741 77.9231 30.0619C77.5436 30.3844 77.3128 30.492 76.6804 30.5868C76.44 30.6248 76.1712 30.4761 76.07 29.9417C76.0258 29.7172 75.991 29.3915 75.9625 29.0057V26.8428C75.9625 25.483 76.0353 23.3928 76.1017 22.7225C76.1365 22.4979 76.244 21.2362 76.2282 21.0402C76.2155 20.8884 76.1333 20.8694 76.0574 20.8694C75.9973 20.8979 74.5427 21.5935 74.3055 21.7011C73.7522 21.9414 73.3253 22.0995 73.2146 22.1438C73.1039 22.188 72.9711 22.2291 72.9585 22.3809C72.9426 22.577 73.0565 23.0703 73.1102 23.9873C73.1134 24.0411 73.1292 24.2877 73.1355 24.6451L73.126 42.8719V44.5258H73.1229C73.1229 45.3321 72.93 45.9487 72.9458 46.0657C72.9585 46.1574 73.0407 46.1701 73.1166 46.1701H74.2929H74.8589H76.1333C76.2123 46.1701 76.2914 46.1574 76.304 46.0657C76.3199 45.9487 76.07 45.0981 76.07 44.6428C76.0669 44.6428 76.0669 44.6428 76.0637 44.6459C76.0574 44.5605 76.0511 44.472 76.0447 44.3803C76.0416 44.3487 76.0416 44.317 76.0384 44.2854C76.0163 43.9566 75.9973 43.5961 75.9878 43.2134C75.9752 42.7929 75.9689 42.3407 75.9689 41.8822V35.1246C75.9783 34.3467 75.9878 34.0905 76.0764 33.6352C76.1807 33.1008 76.4369 32.7656 76.6203 32.6043C77.0693 32.209 77.512 32.2185 77.9041 32.2185C78.2172 32.2185 78.4512 32.5822 78.5587 33.1735C78.6472 33.67 78.6219 33.7617 78.6409 34.7609C78.6441 34.7609 78.6441 34.7609 78.6472 34.7609V44.5321C78.6441 44.5321 78.6441 44.5321 78.6441 44.5321C78.6441 45.3384 78.4512 45.9551 78.467 46.0721C78.4796 46.1638 78.5619 46.1764 78.6377 46.1764H79.8141H80.3801H81.6545C81.7335 46.1764 81.8158 46.1638 81.8252 46.0721C81.841 45.9551 81.5912 45.1044 81.5912 44.6491C81.5881 44.6491 81.5881 44.6491 81.5849 44.6522C81.528 43.9534 81.49 43.0237 81.49 42.0909V24.5502C81.49 23.0703 81.6292 20.4172 81.6608 19.769C81.6766 19.4148 81.7905 18.3903 81.7746 18.1942C81.762 18.0424 81.6798 18.0234 81.6039 18.0234C81.2718 18.1721 78.682 19.3389 78.682 19.3389L78.6725 19.3263ZM0.841529 19.6488C0.980665 19.965 1.13877 20.9421 1.13877 21.4955C1.13877 22.1406 1.18305 21.9351 1.18305 23.4055V40.8829C1.18305 42.3565 1.13245 43.0964 1.02494 43.732C0.920584 44.3676 0.677095 44.9021 0.547445 45.2562C0.417795 45.6072 0.481039 46.0278 0.481039 46.0278H10.6665C10.6665 45.2752 10.4641 44.3423 10.2996 43.9755C10.2016 43.7573 9.94548 43.3115 9.94548 43.3115C9.93915 40.5762 9.92966 34.8115 9.92966 33.4518C9.92966 31.2604 9.94864 30.0492 9.67037 28.0571C9.27825 25.2585 8.59522 21.4955 5.1263 19.9903C4.05748 19.5286 2.69773 19.2662 1.69532 18.912C1.36013 18.795 1.12296 18.7444 0.961692 18.7444C0.443093 18.7444 0.667608 19.244 0.847853 19.6456L0.841529 19.6488ZM4.02269 27.2728C4.02269 26.0807 4.0638 25.1668 4.14286 24.5249C4.22507 23.8861 4.42745 23.5668 4.74683 23.5668C5.17057 23.5668 5.54054 23.9399 5.86309 24.683C6.18563 25.4261 6.45126 26.3874 6.65364 27.5574C6.85602 28.7338 6.94456 29.5559 7.08369 31.292C7.19437 32.6739 7.21651 35.1246 7.21651 36.3673C7.21651 37.4994 7.20386 40.7058 7.20069 43.3431H4.02902L4.01953 27.2728H4.02269ZM69.9291 23.0482C69.4642 23.2158 68.4713 23.5668 68.4207 23.5826C68.3448 23.5826 68.2246 23.6332 68.212 23.7849C68.1962 23.981 68.3322 24.8696 68.3828 25.7107C68.3859 28.2152 68.3828 32.5916 68.3828 33.1292V41.4458C68.3828 42.23 68.3417 42.8308 68.2594 43.2546C68.1772 43.6751 67.8357 43.8965 67.5163 43.8364C66.8459 43.7131 66.3463 42.2838 66.0459 41.2592C65.8688 40.6616 65.7518 39.9469 65.6127 38.8022C65.502 37.8946 65.4799 36.5981 65.4799 35.7791C65.4799 35.0012 65.4514 29.2872 65.4388 26.34C65.4419 26.34 65.4451 26.34 65.4482 26.3432C65.4482 25.6159 65.5431 24.8095 65.5273 24.6672C65.5147 24.5597 65.4324 24.547 65.3565 24.547C65.1795 24.6008 64.8601 24.6957 64.215 24.8854C63.4845 25.0467 62.8078 25.1668 62.4726 25.2016C62.3936 25.2016 62.3145 25.2174 62.3019 25.3439C62.2861 25.5083 62.3746 25.8309 62.4505 26.5614C62.4568 26.6214 62.4821 26.9946 62.4948 27.4847C62.5011 30.5173 62.5106 35.7855 62.5106 36.6393C62.5106 38.0812 62.6054 39.5232 62.8964 40.8323C63.1873 42.1446 63.5952 43.2293 64.1233 44.0925C64.3826 44.5226 64.6514 44.8768 64.9328 45.1519C65.2142 45.427 65.502 45.6357 65.7992 45.7843C66.0965 45.9298 66.3937 46.0278 66.6942 46.0816C66.9914 46.1353 67.3361 46.1669 67.7187 46.1733H70.4477C70.4477 46.1733 70.7702 46.1733 70.7702 46.1701H71.0137C71.0928 46.1701 71.1718 46.1574 71.1845 46.0657C71.2003 45.9487 71.058 45.2404 71.058 44.4087C71.058 44.0166 71.0295 43.8079 71.0295 43.1945V26.1661C71.0548 25.7708 71.0896 24.5186 71.1655 23.8577C71.2256 23.3454 71.2793 22.9723 71.2635 22.773C71.2509 22.6213 71.1686 22.6023 71.0928 22.6023C70.9157 22.6813 70.59 22.7857 69.9354 23.0482H69.9291ZM14.2714 25.2427C13.7306 25.7329 13.2563 26.4444 12.8484 27.3772C12.4436 28.31 12.1274 29.4484 11.9029 30.7892C11.6752 32.13 11.5614 33.6194 11.5614 35.2637C11.5614 36.2882 11.6088 37.297 11.7005 38.2804C11.7922 39.267 11.9313 40.1967 12.1211 41.0726C12.3108 41.9486 12.5448 42.7201 12.8262 43.3874C13.2215 44.3234 13.7022 45.0159 14.2714 45.4681C14.8405 45.9234 15.4224 46.1511 16.02 46.1511C16.5956 46.1511 17.1711 45.8981 17.7466 45.3985C18.3221 44.8989 18.8059 44.1779 19.198 43.2324C19.4605 42.6031 19.6787 41.8727 19.8558 41.0347C20.0329 40.1967 20.1657 39.305 20.2574 38.3595C20.3459 37.414 20.3902 36.4527 20.3902 35.4851C20.3902 33.8913 20.2858 32.364 20.074 30.903C19.8621 29.4421 19.5459 28.2089 19.1253 27.2096C18.8692 26.593 18.5688 26.0775 18.2241 25.6696C17.8794 25.2585 17.5221 24.9644 17.1521 24.781C16.7821 24.5976 16.4027 24.5059 16.0169 24.5059C15.3939 24.5059 14.8121 24.7526 14.2682 25.2396L14.2714 25.2427ZM15.258 42.619C14.9987 41.9454 14.7963 41.1106 14.6477 40.1208C14.4105 38.5049 14.2903 36.4084 14.2903 34.1127C14.2903 32.3703 14.3789 30.9505 14.5559 29.8469C14.6856 29.0658 14.8532 28.4239 15.0651 27.9243C15.2769 27.4215 15.5204 27.1748 15.7955 27.1748C16.0295 27.1748 16.2477 27.3456 16.4501 27.6871C16.6525 28.0286 16.8296 28.4713 16.9782 29.012C17.1268 29.5528 17.247 30.1315 17.3355 30.7513C17.5505 32.3039 17.6581 34.2581 17.6581 36.6203C17.6581 38.3247 17.5822 39.8489 17.4272 40.905C17.3165 41.7082 17.1489 42.3628 16.9276 42.8688C16.7031 43.3779 16.4438 43.6309 16.1497 43.6309C15.8113 43.6309 15.5109 43.2957 15.2548 42.619H15.258ZM21.7752 27.3456C21.8891 27.8167 21.946 28.5946 21.946 29.6824V31.3932C21.946 31.3932 21.9428 31.3932 21.9397 31.3932V40.9177C21.9365 40.9177 21.9333 40.9177 21.9302 40.9177L21.8796 44.5258H21.8764C21.8764 45.3321 21.7057 45.9487 21.7183 46.0657C21.7278 46.1574 21.8005 46.1701 21.8701 46.1701H22.9136H23.4164H24.5485C24.5674 46.1701 24.5896 46.1669 24.6086 46.1638H26.4964C27.0561 46.1638 27.5557 46.0942 27.9984 45.9551C28.4411 45.8191 28.8269 45.5345 29.1653 45.1013C29.5985 44.5669 29.9337 43.8965 30.1708 43.0838C30.408 42.2711 30.525 41.3541 30.525 40.3295C30.525 39.1121 30.3827 38.3721 30.095 37.4836C29.8104 36.5918 29.5827 36.089 29.1147 35.5609C28.6467 35.0329 28.2735 34.666 27.3217 34.2644C26.528 33.9324 25.1335 33.8502 24.7572 33.9387V32.8573C24.7603 32.8573 24.7635 32.8573 24.7635 32.8573V31.058L24.7698 28.9488C24.7698 28.9488 25.2884 29.0279 25.962 29.1164C26.5533 29.2334 26.977 29.3789 27.3597 29.7583C27.6632 30.0587 28.1344 30.8177 28.5044 31.605C28.8775 32.4019 29.0261 32.0446 29.0261 32.0446C29.0261 32.0446 29.0546 27.7788 29.0546 27.3551C29.0546 27.1685 28.8491 27.0388 28.6498 27.0104C28.6498 27.0104 25.8608 26.5993 24.4631 26.3432C23.4986 26.1661 22.3065 25.8941 21.6582 25.7423C21.6519 25.7423 21.6456 25.7392 21.6393 25.7392C21.3831 25.7392 21.7183 27.1084 21.7752 27.3456ZM25.0133 43.6688C24.8995 43.5518 24.8267 43.3652 24.7983 43.1059C24.7698 42.8466 24.754 42.4229 24.754 41.8316V36.1301C24.754 36.1301 26.5754 35.9467 27.211 37.4772C27.5431 38.2678 27.6126 38.9508 27.6126 40.0291C27.6126 40.9177 27.5273 41.3572 27.3533 41.9739C27.1794 42.5905 26.9391 43.0585 26.6292 43.3716C26.3193 43.6846 25.9683 43.8427 25.5793 43.8427C25.3137 43.8427 25.1272 43.7858 25.0133 43.6688ZM58.1752 26.1186C57.6661 26.185 57.3088 26.2799 57.1791 26.2831C57.1064 26.2831 57.0337 26.2989 57.021 26.4127C57.0084 26.5645 57.157 27.2634 57.157 27.6586V30.9694C57.157 31.7347 57.1127 32.4367 56.9135 32.9964C56.5245 34.0779 55.4146 33.2778 55.4146 33.2778V28.0697C55.4146 27.6397 55.4241 27.2254 55.5032 26.8523C55.5348 26.7036 55.4304 26.6815 55.3672 26.6815C54.9656 26.7289 54.7506 26.7448 54.3173 26.8301C54.1561 26.8491 53.9885 26.8712 53.8146 26.8902L52.5402 27.0483C52.4643 27.0547 52.4991 27.0578 52.4611 27.061C52.3821 27.061 52.303 27.08 52.2904 27.2317C52.2746 27.4278 52.4074 27.5638 52.458 28.4776C52.4675 28.6547 52.5433 31.4058 52.5592 32.7624L52.575 42.8751H52.5718V44.5289C52.5686 44.5289 52.5686 44.5289 52.5686 44.5289C52.5686 45.3353 52.3789 45.9519 52.3947 46.0689C52.4074 46.1606 52.4864 46.1733 52.5655 46.1733H53.726H54.2857H55.5443C55.6202 46.1733 55.7024 46.1606 55.7119 46.0689C55.7277 45.9519 55.4779 45.1013 55.4779 44.6459C55.4747 44.6459 55.4747 44.6459 55.4715 44.6491C55.4178 43.9787 55.3798 43.0933 55.3767 42.1984C55.3735 42.1984 55.3703 42.2015 55.3672 42.2015V35.9372C55.3672 35.9372 57.1696 35.4756 57.8021 36.8922C58.0645 37.4804 58.1626 38.1919 58.191 38.9698C58.1942 39.0678 58.1973 41.0284 58.1973 42.8783C58.1942 42.8783 58.191 42.8783 58.1879 42.8783V44.5321H58.1847C58.1847 45.3384 57.9918 45.9551 58.0076 46.0721C58.0203 46.1638 58.1025 46.1764 58.1784 46.1764H59.3515H59.9176H61.1919C61.2678 46.1764 61.35 46.1638 61.3627 46.0721C61.3785 45.9551 61.1287 45.1044 61.1287 44.6491C61.1255 44.6491 61.1255 44.6491 61.1224 44.6522C61.1002 44.3803 61.0813 44.0704 61.0655 43.7415C61.0686 43.7415 61.0718 43.7415 61.0781 43.7415C61.0749 41.8916 61.0686 39.6307 61.0591 39.4852C61.0085 38.682 60.999 37.5468 60.7809 36.9175C60.4963 36.0922 59.9998 35.425 59.535 34.9348C59.2092 34.5933 58.9215 34.3467 58.5104 34.1506C58.7507 33.8312 59.2725 33.4486 59.4369 32.9964C59.6678 32.3671 59.8227 31.3774 59.8227 30.5173C59.8227 30.435 59.8227 28.5915 59.8164 27.2728C59.8259 27.197 59.9302 26.1281 59.9144 25.9763C59.9018 25.8562 59.8196 25.8435 59.7437 25.8435C59.5603 25.9068 58.8393 26.0048 58.172 26.1281L58.1752 26.1186ZM42.6552 27.6428C42.5002 27.6365 42.3453 27.6333 42.1492 27.627C42.0891 27.6333 41.988 27.665 42.0291 27.8104C42.1397 28.1772 42.1872 28.5883 42.2251 29.0152L42.282 29.635C42.2852 29.7488 42.2852 29.8753 42.2947 30.0271C42.2947 30.0935 42.2978 30.1631 42.2978 30.2327V36.1112C42.3042 36.1112 42.3137 36.1143 42.32 36.1143V42.8719C42.32 42.8719 42.32 42.8719 42.3168 42.8719V43.7194C42.3137 43.8206 42.3137 43.9218 42.3105 44.0166C42.3137 44.0166 42.3137 44.0166 42.3168 44.0166V44.5226H42.3137C42.3137 45.3289 42.1239 45.9456 42.1397 46.0626C42.1524 46.1543 42.2314 46.1669 42.3073 46.1669H43.4679H44.0276H45.2861C45.3083 46.1669 45.3336 46.1638 45.3525 46.1606H46.8356C47.389 46.1606 47.8854 46.0974 48.3218 45.9709C48.7582 45.8475 49.144 45.5882 49.476 45.2025C49.9061 44.7218 50.2381 44.1147 50.4721 43.3842C50.7061 42.6537 50.8231 41.8252 50.8231 40.9019C50.8231 39.8046 50.6808 38.8528 50.3962 38.0527C50.1116 37.2496 49.7385 36.6108 49.2736 36.1365C48.9479 35.8013 48.6602 35.5641 48.2491 35.3712C48.4894 35.0582 48.695 34.6882 48.8626 34.2455C49.0934 33.632 49.2072 32.7276 49.2072 31.8896C49.2072 31.1845 49.1124 30.2168 48.9226 29.6603C48.7329 29.1006 48.461 28.6389 48.1131 28.2721C47.8412 27.9749 47.5313 27.7788 47.1739 27.6839C46.8198 27.5891 46.415 27.5416 45.966 27.5416L42.6552 27.646V27.6428ZM45.1565 35.1214V31.4374C45.1565 31.0327 45.166 30.7386 45.1818 30.5615C45.2007 30.3813 45.2418 30.2548 45.3114 30.1726C45.381 30.0904 45.498 30.0524 45.6561 30.0524C45.8933 30.0524 46.1083 30.1599 46.298 30.3781C46.4878 30.5931 46.6332 30.9157 46.7407 31.3426C46.8451 31.7695 46.8577 32.1142 46.8577 32.5063C46.8577 32.9996 46.8546 33.6889 46.6522 34.2328C46.3549 35.036 45.6371 35.1309 45.3146 35.1309C45.2134 35.1309 45.1533 35.1214 45.1533 35.1214H45.1565ZM45.3652 44.0894C45.2513 43.985 45.1818 43.8143 45.1533 43.5803C45.1248 43.3463 45.109 42.9636 45.109 42.4324V37.1167C45.109 37.1167 46.9115 36.6677 47.5439 38.0464C47.8728 38.7611 47.9424 39.656 47.9424 40.6299C47.9424 41.4331 47.857 42.0023 47.6862 42.5589C47.5155 43.1154 47.2751 43.536 46.9684 43.8206C46.6617 44.1052 46.3138 44.2443 45.928 44.2443C45.6656 44.2443 45.479 44.1937 45.3652 44.0862V44.0894ZM39.9389 27.6491C39.5246 27.6555 38.9586 27.6618 38.3356 27.6713H37.153C36.783 27.6808 36.4541 27.7124 36.1695 27.7661C35.8818 27.8199 35.5972 27.9211 35.3126 28.0697C35.028 28.2183 34.7497 28.4334 34.4809 28.7116C34.209 28.9931 33.9528 29.3536 33.703 29.7931C33.1971 30.6722 32.805 31.7821 32.5267 33.1166C32.2484 34.451 32.1567 36.2535 32.1567 37.7239C32.1567 38.3626 32.1504 40.611 32.1472 42.6253L32.1219 44.5321H32.1188C32.1188 45.3384 31.948 45.9551 31.9606 46.0721C31.9733 46.1638 32.0429 46.1764 32.1124 46.1764H33.156H33.6587H34.7908C34.8604 46.1764 34.9331 46.1638 34.9426 46.0721C34.9584 45.9551 34.7339 45.1044 34.7339 44.6491H34.7307V39.6117C35.4201 39.7667 36.0335 40.5351 36.5648 41.3035C36.9095 41.7841 37.2162 42.3976 37.4818 43.1534C37.6937 43.7573 37.8139 44.3613 37.855 44.9621C37.8139 45.5503 37.7032 45.974 37.7158 46.0721C37.7253 46.1638 37.7949 46.1733 37.8645 46.1764V46.1985L39.5752 46.1764H40.4227H40.508C40.5776 46.1764 40.6503 46.1638 40.6567 46.0721C40.6725 45.9551 40.4511 45.1044 40.4511 44.6491C40.4511 44.6491 40.448 44.6491 40.4448 44.6522C40.4385 44.5605 40.4322 44.4593 40.4258 44.3613H40.4227C40.4132 44.1147 40.4069 43.8459 40.4069 43.5455V31.2382C40.4069 30.7766 40.4416 30.0145 40.4828 29.3504L40.5144 29.0184C40.5523 28.5915 40.5966 28.1804 40.7104 27.8136C40.7547 27.6681 40.6535 27.6365 40.5903 27.6302C40.3341 27.6397 40.1539 27.6397 39.942 27.6491H39.9389ZM34.7782 36.7721C34.8098 36.1175 34.8509 35.7728 34.9046 35.3238C35.0406 34.1569 35.126 33.6067 35.3221 32.8193C35.5181 32.0319 35.7742 31.39 36.0841 30.8904C36.3972 30.3908 36.7577 30.1409 37.1625 30.1409C37.4755 30.1409 37.6716 30.356 37.7475 30.7829C37.8265 31.2129 37.8645 31.8264 37.8645 32.6233V39.422C36.8462 37.9073 35.6952 36.8922 34.775 36.7689L34.7782 36.7721Z" fill="black"/>
<path d="M37.8265 21.0811C33.8832 19.4494 31.3345 15.6516 31.3345 11.4016C31.3345 5.62431 36.0588 0.925293 41.8678 0.925293C47.6767 0.925293 52.401 5.62431 52.401 11.4016C52.401 15.2057 50.3235 18.7158 46.9779 20.5657C46.9779 20.5657 47.2119 20.3633 48.404 18.8929C49.514 17.7829 50.1021 16.9955 50.6713 15.8888C51.3765 14.5227 51.7623 12.9891 51.7623 11.4016C51.7623 5.97531 47.3225 1.56406 41.8678 1.56406C36.413 1.56406 31.9733 5.97847 31.9733 11.4016C31.9733 15.3892 34.3671 18.9593 38.07 20.4898L37.8265 21.0811Z" fill="black"/>
<path d="M48.6855 11.4114C48.6855 13.2802 47.9234 14.9752 46.6901 16.1989C45.4569 17.4258 43.7556 18.1816 41.8773 18.1816C39.9989 18.1816 38.2977 17.4227 37.0644 16.1989C35.8312 14.972 35.0691 13.2802 35.0691 11.4114C35.0691 9.54251 35.8312 7.84757 37.0644 6.62381C38.2977 5.39688 39.9989 4.64111 41.8773 4.64111C43.7556 4.64111 45.4569 5.40004 46.6901 6.62381C47.9234 7.85074 48.6855 9.54251 48.6855 11.4114ZM46.3961 15.9017C47.5503 14.7538 48.2649 13.1664 48.2649 11.4114C48.2649 9.65635 47.5503 8.06893 46.3961 6.92105C45.2419 5.77318 43.6418 5.06168 41.8773 5.06168C40.1128 5.06168 38.5159 5.77318 37.3585 6.92105C36.2043 8.06893 35.4897 9.65951 35.4897 11.4114C35.4897 13.1664 36.2043 14.7538 37.3585 15.9017C38.5127 17.0495 40.1128 17.761 41.8773 17.761C43.6418 17.761 45.2387 17.0495 46.3961 15.9017Z" fill="black"/>
<path d="M36.685 12.0848H47.0633V11.3701H36.685V12.0848Z" fill="black"/>
<path d="M41.8741 5.67194C41.9721 5.67194 42.0512 5.751 42.0512 5.84903C42.0512 5.94705 41.9721 6.02611 41.8741 6.02611C41.7761 6.02611 41.697 5.94705 41.697 5.84903C41.697 5.751 41.7761 5.67194 41.8741 5.67194ZM46.4055 10.4469C46.2569 8.22067 44.4924 6.43087 42.2725 6.23798C42.3706 6.13678 42.4338 6.00081 42.4338 5.84903C42.4338 5.54229 42.184 5.29248 41.8773 5.29248C41.5705 5.29248 41.3207 5.54229 41.3207 5.84903C41.3207 6.00081 41.384 6.13995 41.482 6.23798C39.2621 6.43087 37.4976 8.22067 37.349 10.4469H36.6913V11.1615H47.0696V10.4469H46.4118H46.4055Z" fill="black"/>
<path d="M43.9011 13.7765C43.6639 13.9852 43.2813 14.2919 42.9398 14.6302C42.5982 14.9686 42.4812 15.0919 42.0544 15.1394C41.8615 15.1615 41.5769 15.0065 41.4061 14.9275C41.2353 14.8484 40.7262 14.4943 40.4922 14.2318C40.3183 14.0358 39.6606 13.28 39.591 13.1598C39.629 13.0017 40.2456 13.4381 40.5681 13.7164C40.8907 13.9946 41.1626 14.0895 41.3745 14.0674C41.5832 14.0484 41.8488 13.8397 42.0385 13.6215C42.2283 13.4033 42.8607 12.7993 43.3066 12.5811C43.6702 12.4041 44.2363 12.4515 44.1446 12.5653C43.9422 12.8151 43.0251 13.7701 43.1516 13.8018C43.12 13.9567 44.9952 12.7646 45.264 12.5242C45.5296 12.2871 45.245 12.0752 45.1565 12.0752H43.5279C43.0125 12.1954 42.8038 12.461 42.3073 12.8847C41.8583 13.2673 41.5421 13.729 41.3144 13.6816C41.033 13.6247 40.4859 12.9701 40.1792 12.7361C39.9357 12.5495 39.4108 12.5084 39.1072 12.6096C38.8858 12.6823 38.8099 12.7962 38.7625 12.9069C39.1768 13.1092 39.7491 13.8935 40.4827 14.9338C40.6598 15.1836 40.8337 15.3417 41.1247 15.4746C41.1247 15.4746 39.5056 15.6137 39.5594 16.3125C39.942 16.3758 40.6156 15.7971 41.9468 15.873C42.8291 15.9267 43.1295 16.1481 43.4014 16.186C43.3066 15.9584 42.6647 15.6833 42.6267 15.6232C42.7911 15.5441 43.0251 15.367 43.1105 15.2943C43.3793 15.0698 43.7619 14.5322 44.0402 14.2539C44.5114 13.7859 45.362 12.8531 45.2924 12.831C45.2229 12.8088 44.4545 13.2958 43.9011 13.7765Z" fill="black"/>
<path d="M38.7056 10.314L38.089 10.3203C38.1902 8.72344 39.5341 7.34789 40.7737 6.94629L40.9539 7.55343C40.059 7.84435 38.81 9.08709 38.7024 10.3172L38.7056 10.314Z" fill="black"/>
<path d="M35.8565 17.9537L35.3726 18.4091L35.3347 18.3679C35.3821 18.3079 35.3916 18.2604 35.36 18.2256C35.3442 18.2098 35.3126 18.1909 35.262 18.1687C35.1292 18.1086 35.0185 18.0296 34.9331 17.9411C34.7876 17.7861 34.7117 17.628 34.7117 17.4667C34.7117 17.3086 34.7623 17.179 34.8667 17.0809C34.9141 17.0335 34.9742 16.9987 35.0438 16.9734C35.1133 16.9481 35.1924 16.9418 35.2809 16.9544C35.3695 16.9671 35.4802 17.0145 35.6161 17.0967C35.4896 16.9102 35.4359 16.7426 35.4549 16.6034C35.4738 16.4611 35.5276 16.3473 35.6193 16.2619C35.6983 16.186 35.7964 16.1386 35.9071 16.1196C36.0177 16.0975 36.1347 16.1133 36.2517 16.1639C36.3687 16.2145 36.4889 16.3062 36.6122 16.4358C36.7324 16.5623 36.8083 16.6793 36.8431 16.7869C36.8778 16.8944 36.881 17.0145 36.8557 17.1505H36.764C36.783 16.9386 36.7355 16.7742 36.628 16.6604C36.5395 16.5655 36.4383 16.5212 36.3245 16.5276C36.2106 16.5339 36.1031 16.5813 36.0019 16.6793C35.926 16.7521 35.8754 16.8311 35.8501 16.9197C35.8248 17.0082 35.828 17.0841 35.8565 17.1505C35.8849 17.2169 35.9418 17.2991 36.0304 17.394L35.9292 17.4889C35.9071 17.4604 35.8849 17.4414 35.8691 17.4225C35.7711 17.3181 35.6699 17.2707 35.5687 17.2833C35.4675 17.296 35.36 17.356 35.2462 17.4636C35.1386 17.5679 35.0786 17.6628 35.0754 17.7545C35.0691 17.843 35.0975 17.9189 35.1544 17.9822C35.2335 18.0644 35.3284 18.1023 35.4454 18.0897C35.5624 18.077 35.6857 18.0169 35.8122 17.9063L35.8596 17.9569L35.8565 17.9537Z" fill="black"/>
<path d="M34.8034 15.2943L34.3133 15.9331L35.1165 15.8414L34.8034 15.2943ZM34.8793 15.19L35.2462 15.8319L35.4707 15.8034C35.5466 15.794 35.6035 15.7781 35.6414 15.7529C35.692 15.7244 35.7205 15.6801 35.7205 15.6264C35.7205 15.5947 35.6983 15.5283 35.6509 15.4303L35.7015 15.4018L36.0462 16.0058L35.9956 16.0343C35.9482 15.9742 35.8881 15.9363 35.8185 15.9204C35.7489 15.9046 35.6256 15.9078 35.4485 15.9268L33.586 16.1323L33.5702 16.107L34.7276 14.5734C34.8382 14.4279 34.8983 14.3235 34.9141 14.2603C34.9268 14.2129 34.9173 14.1623 34.8888 14.1022L34.9394 14.0737L35.4422 14.9497L35.3916 14.9781L35.3695 14.9433C35.3284 14.8738 35.2904 14.8295 35.2556 14.8105C35.2303 14.7979 35.2019 14.801 35.1766 14.8168C35.1608 14.8263 35.145 14.839 35.1292 14.8548C35.1228 14.8611 35.0944 14.8959 35.0501 14.956L34.873 15.1868L34.8793 15.19Z" fill="black"/>
<path d="M32.5109 13.2579L32.416 12.1733L32.4761 12.167L32.4793 12.2017C32.4887 12.3029 32.514 12.3725 32.5552 12.401C32.5963 12.4326 32.6722 12.4421 32.7797 12.4326L33.4216 12.3757C33.4089 12.2334 33.3963 12.1385 33.3805 12.0974C33.3678 12.0563 33.3331 12.0183 33.2825 11.9867C33.2319 11.9551 33.137 11.9266 32.9947 11.9045C32.8303 11.8792 32.7069 11.8507 32.6216 11.8191C32.5393 11.7907 32.4698 11.7432 32.416 11.68C32.3623 11.6167 32.3338 11.5377 32.3243 11.4397C32.3148 11.3416 32.337 11.2594 32.3907 11.1962C32.4413 11.1329 32.5109 11.095 32.5963 11.0887C32.6627 11.0823 32.7164 11.0981 32.7575 11.1361C32.7986 11.174 32.8208 11.2215 32.8271 11.2816C32.8366 11.3986 32.7733 11.4681 32.6342 11.4871C32.5646 11.4966 32.533 11.525 32.5362 11.5661C32.5393 11.6136 32.571 11.6484 32.6279 11.6768C32.6848 11.7053 32.786 11.7306 32.9283 11.7559C33.0674 11.7812 33.1718 11.8033 33.2445 11.8254C33.3141 11.8476 33.3742 11.8792 33.4248 11.9235C33.4374 11.8571 33.4532 11.8033 33.4785 11.7654C33.5038 11.7274 33.5354 11.6926 33.5765 11.661C33.6177 11.6294 33.7252 11.5567 33.8928 11.4491L34.2627 11.2025C34.3165 11.1645 34.3576 11.1203 34.3797 11.0728C34.405 11.0254 34.4145 10.9685 34.4082 10.9052L34.4651 10.8989L34.5252 11.5946L33.741 12.0942C33.6524 12.1512 33.5987 12.1923 33.5829 12.2176C33.5639 12.2429 33.5576 12.2903 33.5607 12.3599L34.288 12.2966C34.3924 12.2871 34.4556 12.2618 34.4809 12.2176C34.5062 12.1733 34.5126 12.0942 34.5031 11.9836L34.5631 11.9772L34.658 13.0619L34.5979 13.065C34.5853 12.9449 34.56 12.869 34.522 12.8342C34.4841 12.7994 34.4082 12.7868 34.2975 12.7962L32.8619 12.9227C32.7354 12.9322 32.6532 12.9544 32.6121 12.9891C32.571 13.0239 32.5552 13.0935 32.5646 13.1978L32.5678 13.2421L32.5077 13.2484L32.5109 13.2579Z" fill="black"/>
<path d="M33.9908 9.72863L33.2002 9.88674L33.8643 10.3484L33.9908 9.72863ZM34.1173 9.70017L33.9718 10.4243L34.1615 10.5508C34.2248 10.5919 34.2785 10.6172 34.3228 10.6267C34.3829 10.6393 34.4303 10.6235 34.4683 10.5824C34.4904 10.5603 34.5157 10.4939 34.5473 10.3895L34.6042 10.4022L34.4651 11.0852L34.4082 11.0726C34.4113 10.9967 34.3924 10.9303 34.3513 10.8733C34.3102 10.8164 34.2153 10.7374 34.0667 10.633L32.5298 9.55787L32.5362 9.52941L34.4177 9.14046C34.5948 9.10252 34.7118 9.06773 34.7623 9.02978C34.8003 9.00132 34.8319 8.95705 34.8477 8.89697L34.9046 8.90962L34.7054 9.90255L34.6485 9.8899L34.658 9.84879C34.6738 9.76974 34.6738 9.70966 34.658 9.67487C34.6453 9.64957 34.6232 9.63376 34.5916 9.62744C34.5726 9.62428 34.5536 9.62428 34.5315 9.62428C34.522 9.62428 34.4809 9.6306 34.405 9.64641L34.1204 9.70017H34.1173Z" fill="black"/>
<path d="M33.2224 7.55008L33.6303 6.62988L33.684 6.65202C33.6303 6.77534 33.6082 6.85756 33.624 6.89551C33.6366 6.93345 33.6935 6.97456 33.7916 7.01883L35.1829 7.63546C35.2557 7.66708 35.3094 7.68605 35.341 7.68922C35.3727 7.69238 35.4043 7.68289 35.4359 7.66076C35.4675 7.63862 35.4928 7.60067 35.5213 7.54059C35.5244 7.53111 35.5339 7.50897 35.5497 7.47735L35.6035 7.49949L35.164 8.49241L35.1102 8.47028C35.145 8.38174 35.1639 8.32165 35.1671 8.28371C35.1703 8.24576 35.1576 8.21414 35.1355 8.18568C35.1134 8.15722 35.0722 8.12876 35.009 8.10346L34.3734 7.82203C34.3924 8.09714 34.3639 8.32798 34.2817 8.50822C34.2374 8.60941 34.1837 8.68531 34.1204 8.73906C34.0572 8.79598 33.9845 8.82444 33.9086 8.82444C33.8327 8.8276 33.7346 8.80231 33.6145 8.74855L33.1528 8.54301C33.0421 8.49557 32.9631 8.48293 32.9156 8.50506C32.8682 8.53036 32.8208 8.59044 32.7765 8.69163L32.7227 8.66633L33.1307 7.7493L33.1844 7.77143C33.156 7.83468 33.1496 7.88843 33.1591 7.9327C33.1686 7.98014 33.2192 8.02125 33.3014 8.05919L33.8295 8.29319C33.8896 8.31849 33.937 8.3343 33.9718 8.33747C34.0066 8.34063 34.0414 8.33114 34.0825 8.30268C34.1236 8.27738 34.1552 8.23311 34.1805 8.17619C34.2343 8.05919 34.2532 7.92006 34.2438 7.76195L33.6366 7.49316C33.5481 7.45521 33.488 7.43308 33.4532 7.42675C33.4184 7.42043 33.3868 7.42675 33.3552 7.44889C33.3236 7.46786 33.2951 7.50897 33.2698 7.56589L33.216 7.54376L33.2224 7.55008Z" fill="black"/>
<path d="M34.4651 5.72893L35.1481 6.28231L35.1734 6.25069C35.2557 6.1495 35.2841 6.04515 35.2556 5.94712C35.2272 5.84593 35.1513 5.73842 35.0343 5.61825L35.0722 5.57398L35.9482 6.28548L35.9102 6.32975C35.8059 6.26334 35.711 6.21907 35.6256 6.2001C35.5402 6.18112 35.4707 6.18429 35.4169 6.20958C35.3632 6.23488 35.3031 6.28231 35.243 6.36137L35.7142 6.74399C35.8059 6.81989 35.866 6.861 35.8944 6.87048C35.9197 6.87997 35.9482 6.87997 35.9798 6.86732C36.0114 6.85783 36.043 6.82937 36.081 6.78194L36.16 6.68391C36.2834 6.53213 36.3466 6.38034 36.3466 6.23172C36.3466 6.07993 36.2929 5.92815 36.1758 5.76688L36.2106 5.72261L36.6818 6.22856L35.5434 7.63257L35.4991 7.59462L35.5434 7.54087C35.5814 7.49343 35.6035 7.44916 35.6098 7.40489C35.6161 7.37327 35.6098 7.34165 35.5908 7.31003C35.5782 7.28473 35.5308 7.24046 35.4454 7.17089L34.3449 6.27915C34.269 6.21907 34.2216 6.18112 34.1995 6.17164C34.1647 6.15583 34.1299 6.15266 34.0983 6.16215C34.0509 6.1748 34.0066 6.20642 33.9623 6.25702L33.918 6.31077L33.8738 6.27283L34.9742 4.91309L35.4707 5.31468L35.4327 5.35896C35.2936 5.28306 35.1798 5.24512 35.0944 5.24512C35.009 5.24512 34.9205 5.27358 34.8351 5.32733C34.7845 5.35895 34.7086 5.43801 34.6074 5.56134L34.4714 5.72893H34.4651Z" fill="black"/>
<path d="M37.0423 3.18627L37.4818 3.79025L37.4344 3.82503C37.2826 3.69222 37.1276 3.62265 36.9664 3.61C36.8051 3.59735 36.6628 3.63846 36.5363 3.73016C36.432 3.80606 36.3561 3.91041 36.315 4.03373C36.2707 4.16022 36.2675 4.28987 36.2991 4.41952C36.3403 4.58712 36.4193 4.75155 36.5331 4.90966C36.647 5.06461 36.7703 5.19426 36.9 5.29545C37.0328 5.39664 37.1624 5.44723 37.2921 5.45672C37.4217 5.46305 37.5514 5.41877 37.681 5.32391C37.7885 5.24802 37.8676 5.15315 37.9214 5.03931C37.9751 4.92547 38.0099 4.77685 38.0225 4.58712L38.1332 4.73574C38.1142 4.9065 38.0668 5.05196 37.9972 5.17212C37.9277 5.29229 37.8233 5.40296 37.6873 5.50099C37.5071 5.63064 37.3205 5.71286 37.1245 5.73816C36.9316 5.76662 36.745 5.73499 36.5679 5.65278C36.3909 5.5674 36.2454 5.44723 36.1284 5.28912C36.0082 5.12153 35.9355 4.93496 35.9102 4.72309C35.8881 4.51123 35.9165 4.31517 35.9987 4.1286C36.081 3.94203 36.2043 3.79025 36.3656 3.67324C36.4857 3.58787 36.628 3.52146 36.7988 3.48035C36.8968 3.45505 36.9569 3.43608 36.979 3.42027C37.0043 3.4013 37.0201 3.37284 37.0265 3.34122C37.0328 3.30643 37.0201 3.26532 36.9948 3.21789L37.0454 3.18311L37.0423 3.18627Z" fill="black"/>
<path d="M39.338 2.28174L39.5467 2.82564L39.4961 2.84461C39.4171 2.73077 39.3475 2.65488 39.2906 2.61377C39.2305 2.57266 39.1641 2.55052 39.0851 2.54104C39.0408 2.53788 38.9744 2.55369 38.8827 2.58847L38.7372 2.64539L39.3317 4.19803C39.3728 4.29922 39.4013 4.36246 39.4234 4.3846C39.4455 4.40673 39.474 4.41938 39.5151 4.42887C39.5562 4.43519 39.6005 4.42887 39.6574 4.40673L39.7238 4.38143L39.746 4.43519L38.7246 4.8273L38.7024 4.77354L38.7657 4.74825C38.8226 4.72611 38.8637 4.69765 38.889 4.66603C38.908 4.64073 38.9206 4.60911 38.9206 4.57116C38.9238 4.5427 38.9048 4.47946 38.8637 4.37827L38.2692 2.82564L38.1269 2.87939C37.9941 2.92999 37.9119 2.99639 37.8739 3.07545C37.8202 3.18612 37.8139 3.3221 37.8455 3.48021L37.7917 3.49918L37.583 2.95528L39.3349 2.28174H39.338Z" fill="black"/>
<path d="M40.6788 3.16092L40.7578 3.84712L40.7673 3.92617C40.7736 3.98309 40.7926 4.0242 40.8242 4.0495C40.8559 4.07479 40.9001 4.08428 40.9539 4.07796C41.0361 4.06847 41.1088 4.04001 41.1721 3.99574C41.2353 3.95147 41.2828 3.89139 41.3112 3.81549C41.3397 3.7396 41.3492 3.65738 41.3397 3.572C41.327 3.47081 41.2954 3.38544 41.2416 3.30954C41.1879 3.23681 41.1183 3.18622 41.0361 3.16408C40.9539 3.14195 40.8337 3.14195 40.6788 3.16092ZM40.663 3.03759C40.8084 3.02178 40.9128 2.99016 40.9792 2.94905C41.0424 2.90794 41.0899 2.85419 41.1215 2.78778C41.1499 2.72138 41.1594 2.64232 41.1499 2.54746C41.1405 2.45259 41.112 2.3767 41.0677 2.31978C41.0235 2.26286 40.9665 2.22491 40.897 2.19961C40.8274 2.17748 40.7167 2.17432 40.5649 2.19329L40.663 3.03443V3.03759ZM41.2258 3.01546C41.4282 3.04076 41.5737 3.08187 41.6622 3.13878C41.7887 3.221 41.8583 3.338 41.8772 3.48979C41.8962 3.65106 41.8488 3.7902 41.7349 3.91036C41.5958 4.05582 41.3776 4.14436 41.0867 4.18231L40.0305 4.30563L40.0242 4.24555C40.1191 4.2329 40.1855 4.21709 40.2171 4.19496C40.2487 4.17282 40.2709 4.14752 40.2803 4.1159C40.2898 4.08428 40.2898 4.01155 40.274 3.89455L40.1127 2.50635C40.1001 2.38935 40.0843 2.31978 40.0653 2.29132C40.0463 2.26286 40.021 2.24072 39.9831 2.22807C39.9452 2.21543 39.8819 2.21226 39.787 2.22491L39.7807 2.16483L40.7768 2.04783C41.014 2.01937 41.1847 2.02253 41.2891 2.05415C41.3934 2.08578 41.4788 2.14269 41.5452 2.22175C41.6116 2.3008 41.6527 2.39251 41.6622 2.49054C41.6749 2.59173 41.6496 2.68975 41.5863 2.77829C41.5231 2.86684 41.4029 2.94589 41.2258 3.01546Z" fill="black"/>
<path d="M43.3382 2.17133C43.1485 2.14287 42.9904 2.21876 42.8607 2.40217C42.7564 2.55396 42.6805 2.78163 42.6299 3.08837C42.573 3.45202 42.5951 3.73029 42.69 3.92318C42.7564 4.05916 42.8702 4.13821 43.0252 4.16351C43.1295 4.17932 43.2212 4.16667 43.3003 4.12556C43.4015 4.07181 43.4868 3.97694 43.5596 3.83781C43.6323 3.69867 43.6861 3.5121 43.724 3.27494C43.7683 2.9935 43.7746 2.77847 43.7461 2.62985C43.7177 2.48123 43.6671 2.37371 43.5975 2.30414C43.5279 2.23458 43.4426 2.1903 43.3382 2.17449V2.17133ZM43.3351 2.06698C43.6671 2.10493 43.9169 2.24406 44.0908 2.48755C44.2647 2.73104 44.3248 3.00931 44.2774 3.32553C44.2363 3.59432 44.1224 3.82199 43.9359 4.00224C43.6892 4.24257 43.3825 4.33427 43.0125 4.27735C42.6394 4.22043 42.3737 4.04651 42.2093 3.75559C42.0797 3.52475 42.0386 3.26861 42.0828 2.98718C42.1334 2.67096 42.2757 2.42431 42.5192 2.24406C42.7595 2.06382 43.0346 2.0069 43.3351 2.06698Z" fill="black"/>
<path d="M47.3289 3.79673C47.1739 3.68606 46.9969 3.6829 46.7976 3.79041C46.6364 3.87895 46.4656 4.04971 46.2885 4.30268C46.0767 4.60309 45.9691 4.85923 45.9691 5.07742C45.9691 5.22921 46.0324 5.34937 46.162 5.44107C46.2474 5.50116 46.336 5.53278 46.4245 5.52961C46.5383 5.52645 46.6585 5.47902 46.785 5.38732C46.9115 5.29561 47.0443 5.15015 47.1834 4.95726C47.3479 4.72326 47.4491 4.53669 47.4902 4.39123C47.5281 4.24577 47.5344 4.1256 47.5028 4.0339C47.4712 3.93903 47.4143 3.86314 47.3289 3.80306V3.79673ZM47.3732 3.70187C47.6514 3.88528 47.8159 4.12244 47.8601 4.41652C47.9076 4.71061 47.838 4.98888 47.6514 5.24818C47.4933 5.4727 47.2909 5.62132 47.0443 5.70354C46.7186 5.80789 46.3992 5.75413 46.0956 5.53594C45.7889 5.31775 45.6276 5.04264 45.6118 4.71061C45.5992 4.44815 45.6751 4.19833 45.8395 3.96749C46.0261 3.70503 46.2664 3.55008 46.5605 3.49633C46.8577 3.44573 47.1265 3.51214 47.37 3.70187H47.3732Z" fill="black"/>
<path d="M49.8333 6.21581L49.3811 6.58263L49.3463 6.53836C49.4286 6.42768 49.4823 6.33914 49.5013 6.26957C49.5203 6.20317 49.5234 6.13044 49.5076 6.05454C49.4981 6.01343 49.4633 5.95335 49.4001 5.87746L49.3021 5.7573L48.0119 6.80714C47.9265 6.87671 47.8759 6.92415 47.8633 6.95261C47.8506 6.9779 47.8443 7.01269 47.8506 7.05063C47.8569 7.09174 47.8791 7.13285 47.917 7.18028L47.9613 7.23404L47.917 7.27199L47.2277 6.42136L47.2719 6.38341L47.3162 6.43717C47.3542 6.4846 47.3921 6.51622 47.4332 6.52887C47.4617 6.53836 47.4933 6.53836 47.5312 6.52887C47.5597 6.52255 47.6135 6.4846 47.6988 6.41503L48.989 5.36519L48.8941 5.24818C48.8056 5.13751 48.7171 5.07743 48.6285 5.06794C48.5052 5.05213 48.3755 5.08691 48.2364 5.16913L48.1985 5.12486L48.6507 4.75488L49.8365 6.21265L49.8333 6.21581Z" fill="black"/>
<path d="M49.5266 7.721C49.5867 7.85381 49.6468 7.94552 49.7069 7.99295C49.7669 8.04354 49.8333 8.072 49.9029 8.07833C49.9756 8.08782 50.0547 8.072 50.1401 8.0309C50.2255 7.99295 50.2887 7.94235 50.3298 7.88227C50.3709 7.82535 50.3899 7.75579 50.3931 7.68306C50.3931 7.60716 50.3614 7.50281 50.2982 7.36684L49.5266 7.721ZM49.4128 7.7716L48.7835 8.05936L48.7108 8.09098C48.6602 8.11311 48.6254 8.14473 48.6096 8.18268C48.5938 8.22063 48.6001 8.2649 48.6222 8.31549C48.657 8.38822 48.7044 8.45147 48.7677 8.4989C48.8309 8.54633 48.9037 8.57163 48.9827 8.57795C49.0618 8.58112 49.144 8.56531 49.223 8.52736C49.3147 8.48625 49.3875 8.42617 49.4412 8.35344C49.495 8.28071 49.5203 8.19849 49.5171 8.11311C49.514 8.02773 49.4792 7.91389 49.4128 7.7716ZM49.7195 8.24909C49.7575 8.4483 49.7638 8.60009 49.7353 8.70128C49.6942 8.84674 49.6057 8.95109 49.4665 9.01434C49.3179 9.08074 49.1693 9.08074 49.0207 9.00801C48.8404 8.91947 48.6886 8.74239 48.5653 8.4736L48.1226 7.50913L48.1764 7.48384C48.2175 7.57238 48.2523 7.62614 48.2839 7.65143C48.3155 7.67357 48.3471 7.68622 48.3787 7.68622C48.4104 7.68622 48.4799 7.66092 48.5874 7.61349L49.8586 7.03164C49.963 6.98421 50.0294 6.94626 50.0484 6.92097C50.0705 6.89567 50.0832 6.86405 50.0832 6.82294C50.0863 6.78499 50.0673 6.72175 50.0262 6.63321L50.08 6.60791L50.4974 7.51862C50.5986 7.73681 50.6492 7.89808 50.6492 8.00876C50.6492 8.11627 50.6239 8.21746 50.567 8.30601C50.5132 8.39455 50.4373 8.45779 50.3488 8.50206C50.2539 8.54317 50.1559 8.54949 50.0515 8.51787C49.9472 8.48625 49.8365 8.39455 49.7163 8.24909H49.7195Z" fill="black"/>
<path d="M51.0476 9.61495L50.1844 9.76674L50.1907 9.80785C50.2128 9.9375 50.2729 10.026 50.3678 10.0703C50.4626 10.1146 50.5954 10.1304 50.7599 10.1177L50.7694 10.1747L49.6594 10.3707L49.6499 10.3138C49.7701 10.279 49.8618 10.2379 49.9345 10.1841C50.0041 10.1304 50.0484 10.0766 50.0674 10.0197C50.0863 9.96279 50.0863 9.8869 50.0674 9.78887L49.4697 9.89323C49.3527 9.9122 49.2831 9.93117 49.2578 9.94698C49.2325 9.95963 49.2167 9.98177 49.2041 10.0134C49.1914 10.0418 49.1914 10.0861 49.2009 10.143L49.223 10.2664C49.2578 10.4593 49.3306 10.6047 49.4412 10.7059C49.5551 10.8039 49.7069 10.864 49.9061 10.8798L49.9156 10.9367L49.223 10.962L48.91 9.18173L48.9669 9.17225L48.9796 9.24181C48.989 9.3019 49.0112 9.34617 49.0365 9.38095C49.0555 9.40625 49.0839 9.42206 49.1219 9.42838C49.1503 9.43471 49.2167 9.42838 49.3211 9.40941L50.7188 9.16276C50.8136 9.14695 50.8737 9.13114 50.8927 9.12481C50.9275 9.109 50.9528 9.0837 50.9686 9.05208C50.9907 9.00781 50.997 8.95405 50.9844 8.88765L50.9717 8.81808L51.0287 8.80859L51.3322 10.532L50.7061 10.6427L50.6966 10.5857C50.8453 10.5288 50.9464 10.4687 51.0065 10.4055C51.0634 10.3391 51.0982 10.2569 51.114 10.1557C51.1235 10.0956 51.114 9.98809 51.0856 9.83314L51.0476 9.62128V9.61495Z" fill="black"/>
<path d="M51.3006 12.3536L51.2089 13.356L51.152 13.3497C51.1646 13.2169 51.1583 13.1315 51.133 13.0999C51.1077 13.0683 51.0413 13.0461 50.9338 13.0367L49.4191 12.9007C49.3401 12.8944 49.2831 12.8944 49.2515 12.9007C49.2199 12.907 49.1914 12.926 49.1725 12.9576C49.1503 12.9892 49.1377 13.0335 49.1314 13.0967C49.1314 13.1094 49.1282 13.1315 49.1219 13.1663L49.0649 13.16L49.163 12.0785L49.2199 12.0848C49.2136 12.1797 49.2136 12.243 49.2231 12.2777C49.2325 12.3125 49.2547 12.341 49.2831 12.36C49.3148 12.3789 49.3622 12.3916 49.4286 12.3979L50.1211 12.4611C50.0136 12.205 49.9693 11.9805 49.9851 11.7844C49.9946 11.6769 50.0199 11.5852 50.0642 11.5125C50.1085 11.4398 50.1654 11.3892 50.235 11.3639C50.3045 11.3386 50.4057 11.3322 50.5385 11.3417L51.0413 11.386C51.1615 11.3955 51.2405 11.3828 51.2785 11.3449C51.3164 11.3069 51.3386 11.2342 51.3481 11.1235L51.4081 11.1299L51.3196 12.1323L51.2627 12.1259C51.269 12.0595 51.2595 12.0058 51.2342 11.9647C51.2089 11.9236 51.1488 11.8983 51.0571 11.8919L50.4816 11.8414C50.4152 11.835 50.3678 11.835 50.333 11.8445C50.2982 11.8508 50.2697 11.873 50.2381 11.9109C50.2097 11.9489 50.1907 11.9995 50.1844 12.0627C50.1717 12.1924 50.197 12.3283 50.2603 12.4738L50.9212 12.5339C51.016 12.5434 51.0824 12.5434 51.114 12.5402C51.1488 12.5339 51.1773 12.5181 51.1994 12.4896C51.2216 12.4611 51.2374 12.4137 51.2437 12.3505L51.3006 12.3568V12.3536Z" fill="black"/>
<path d="M49.3432 14.4152L50.1464 14.3931L49.5709 13.827L49.3432 14.4152ZM49.2135 14.4215L49.4792 13.7322L49.3147 13.5741C49.261 13.5235 49.2104 13.4887 49.1693 13.4729C49.1123 13.4507 49.0617 13.4571 49.0175 13.4918C48.9922 13.5108 48.9542 13.5709 48.9068 13.6689L48.853 13.6468L49.1029 12.9985L49.1566 13.0175C49.1408 13.0934 49.1471 13.1598 49.1788 13.2262C49.2104 13.2895 49.2894 13.3843 49.4159 13.5108L50.7504 14.8294L50.7409 14.8579L48.8214 14.9211C48.638 14.9275 48.521 14.9464 48.4609 14.9717C48.4167 14.9939 48.3819 15.0318 48.3534 15.0887L48.2997 15.0666L48.6633 14.1243L48.7171 14.1464L48.7013 14.1844C48.6728 14.2603 48.6633 14.3172 48.6728 14.3551C48.6791 14.3836 48.6981 14.4025 48.7297 14.412C48.7487 14.4184 48.7677 14.4215 48.7866 14.4247C48.7961 14.4278 48.8404 14.4278 48.9131 14.4247L49.204 14.4184L49.2135 14.4215Z" fill="black"/>
<path d="M48.5527 18.036C48.6697 17.9064 48.6982 17.7482 48.6381 17.5617C48.578 17.3783 48.4199 17.1696 48.1637 16.9451C47.9234 16.7332 47.7084 16.6067 47.5187 16.5624C47.3258 16.5182 47.1677 16.5624 47.0475 16.6984C46.9273 16.8344 46.8989 16.9956 46.9653 17.1791C47.0317 17.3625 47.1835 17.5585 47.4206 17.7672C47.9329 18.2194 48.3124 18.3111 48.5559 18.036H48.5527ZM48.5053 16.5087L48.7456 16.2367L48.246 15.794C48.1701 15.7276 48.1195 15.6865 48.091 15.6738C48.0626 15.6612 48.0278 15.6612 47.9867 15.6707C47.9456 15.6802 47.9044 15.7086 47.8633 15.7561L47.8159 15.8067L47.7716 15.7687L48.4958 14.9497L48.54 14.9877L48.4958 15.0382C48.4515 15.0888 48.4262 15.1331 48.423 15.1711C48.4167 15.2122 48.423 15.2438 48.442 15.2723C48.461 15.3007 48.5053 15.3481 48.5812 15.4145L49.6437 16.3537C49.7195 16.4201 49.7701 16.4612 49.7986 16.4739C49.8271 16.4865 49.8587 16.4865 49.903 16.477C49.9441 16.4644 49.9852 16.4391 50.0263 16.3917L50.0705 16.3411L50.1148 16.379L49.3907 17.198L49.3464 17.1601L49.3938 17.1095C49.4381 17.0589 49.4634 17.0146 49.4666 16.9767C49.4729 16.9356 49.4666 16.9039 49.4476 16.8755C49.4318 16.847 49.3844 16.7996 49.3116 16.7332L48.8531 16.3284L48.6128 16.5972C48.831 16.8217 48.9385 17.0779 48.9353 17.3593C48.9353 17.6439 48.8373 17.8937 48.6444 18.1119C48.4958 18.2795 48.3282 18.3902 48.1384 18.4471C47.9487 18.504 47.7621 18.5072 47.5787 18.4629C47.3922 18.4186 47.2246 18.3269 47.0759 18.1941C46.8419 17.9854 46.706 17.7324 46.6744 17.4384C46.6427 17.1411 46.7344 16.8692 46.9589 16.6162C47.174 16.3727 47.4238 16.243 47.7084 16.2241C47.993 16.2083 48.2618 16.3 48.5084 16.4992L48.5053 16.5087Z" fill="black"/>
<path d="M41.7698 16.3978C42.301 16.4769 43.1232 16.6888 43.4963 17.0493C43.5912 17.141 43.7367 16.8437 43.6228 16.7172C43.5627 16.6477 42.6236 16.0468 41.7698 16.3978Z" fill="black"/>
<path d="M33.0105 21.9287C33.2603 21.3405 34.5916 20.6923 34.6296 20.2685C34.6391 20.1737 34.5695 20.0345 34.4809 20.0092C34.0351 19.8827 32.9062 21.0938 32.6342 21.448C32.0492 22.2133 31.2429 22.3239 30.8887 22.6686C31.0278 22.8394 32.7607 22.5073 33.0074 21.9255L33.0105 21.9287Z" fill="black"/>
<path d="M25.7944 23.3988C27.5589 20.7173 29.0514 19.6421 31.4705 18.5164C33.2097 17.7069 37.5198 16.3661 39.6543 17.593C41.9374 18.9053 35.3442 22.4565 33.7315 23.2628C32.0808 24.0882 28.5455 25.704 26.5027 25.8906C24.09 26.112 27.5368 23.4715 30.7274 22.7189C32.552 22.2889 33.273 22.1339 36.998 21.5489C37.0929 21.5331 37.7253 21.1284 37.6273 21.141C34.6137 21.5236 25.9936 22.9782 25.1778 25.4922C24.6497 27.1239 29.861 25.9317 33.6588 23.7182C34.7718 23.0699 39.3886 20.7647 40.4796 18.8042C41.5294 16.9226 37.9815 16.7234 36.6407 16.7898C32.4887 16.9985 27.7518 19.2943 25.6552 22.8201C25.4181 23.2186 25.7153 23.5095 25.7912 23.3925L25.7944 23.3988Z" fill="black"/>
<path d="M37.8328 21.1917C38.0953 21.1759 39.1546 21.0273 38.8827 21.6534C38.8163 21.8052 38.5159 22.1214 38.2945 22.3175C38.1174 22.4756 37.757 22.7697 37.583 22.6463C37.3648 22.4914 38.0827 21.8305 38.342 21.6597C38.7246 21.4068 39.7428 21.2487 40.1381 21.5459C40.2171 21.606 40.3468 21.4289 40.2835 21.3562C40.0654 21.0969 39.4677 21.0874 39.1736 21.0747C38.7372 21.0558 38.421 21.255 38.0068 21.5522C37.7 21.7704 36.4668 22.4946 37.1625 23.0163C37.4755 23.2503 38.4431 22.9246 39.0566 22.1309C39.3222 21.7862 39.6985 21.2265 39.4709 21.0115C39.0946 20.6605 38.2218 20.8692 37.8993 21.0115C37.8328 21.04 37.836 21.1917 37.836 21.1917H37.8328Z" fill="black"/>
<path d="M36.5743 20.7555C37.0423 18.5736 38.0163 17.7673 39.5278 17.1253C40.3563 16.7743 41.6243 16.7111 41.9058 16.7332C42.8291 16.8123 43.4932 17.4384 43.5027 17.9855C43.5153 18.9246 41.4219 20.5437 41.1943 20.7334C40.897 20.8441 40.1697 20.9674 39.9737 21.4069C40.0843 21.8307 39.1958 22.226 39.6764 22.7698C40.0274 23.1683 40.9603 22.5801 41.1563 22.4188C41.5737 22.0742 41.7129 21.3152 41.4314 20.8061C41.3808 20.7144 40.6061 21.3026 40.8686 21.2678C41.5263 21.1824 41.1437 21.9477 40.7832 22.2133C40.6567 22.305 39.9768 22.7445 40.0084 22.2671C40.0306 21.9635 40.9792 21.2583 41.2069 21.1255C41.7698 20.7966 42.905 19.712 43.3351 19.2314C44.1731 18.2922 44.1636 17.1317 42.4655 16.5467C41.5105 16.2178 39.5784 16.5561 38.6329 17.119C37.466 17.8115 36.4415 18.4503 36.4605 20.7397C36.4605 20.8061 36.5648 20.8219 36.5775 20.7555H36.5743Z" fill="black"/>
<path d="M42.9018 21.9826C42.7152 22.166 42.3168 22.3178 42.3073 22.0774C42.2915 21.7328 42.8228 21.3501 43.0125 21.5209C43.1453 21.6411 43.022 21.8656 42.9018 21.9826ZM43.4425 20.7936C42.9113 20.9896 42.5445 21.3153 42.2694 21.5367C42.0701 21.6948 41.444 22.3304 41.4883 22.6245C41.561 23.1431 42.3326 22.7731 42.671 22.5707C43.022 22.3557 43.5912 21.8498 43.7429 21.445C43.7967 21.3027 43.7335 20.6892 43.4457 20.7968L43.4425 20.7936Z" fill="black"/>
<path d="M42.048 22.7034C41.988 22.7699 42.8702 22.6845 43.1833 22.7351C43.7461 22.8236 44.3564 22.3999 44.5683 22.1311C44.6063 22.0837 44.581 21.8275 44.5209 21.8591C44.1414 22.0552 44.0687 22.4157 43.354 22.4631C43.1327 22.4789 43.2908 21.8212 43.2212 21.9161L42.048 22.7066V22.7034Z" fill="black"/>
<path d="M47.1645 20.67C48.6665 19.6518 49.71 18.9814 50.8895 17.8936C51.3607 17.4572 52.711 15.9362 51.9457 15.8508C49.9282 15.6326 47.9013 17.5869 46.8451 18.7284C46.0008 19.6423 43.8853 21.9507 44.4197 22.7096C45.0079 23.5476 47.3068 21.6155 46.298 20.6985C45.9945 20.4233 45.2925 21.4858 45.03 21.6851C44.9509 21.7451 44.9003 22.0392 44.9762 21.976C47.408 19.87 44.9446 23.5571 44.9383 22.1183C44.9351 21.7736 45.4695 20.9894 45.7035 20.6953C46.5984 19.5727 47.4333 18.3964 48.6349 17.5805C49.3148 17.1189 49.8492 16.6477 50.6334 16.4074C51.3386 16.1892 51.9172 16.1006 51.4303 16.7267C50.3203 18.1592 48.325 19.4494 46.883 20.6605C46.6427 20.8629 47.1044 20.7396 47.1645 20.67Z" fill="black"/>
<path d="M48.1574 20.6924C47.8981 20.958 47.4459 21.3754 47.1486 21.6221C46.8735 21.8497 46.6806 21.9509 46.3201 22.2956C46.2031 22.4063 46.2031 22.8332 46.4624 22.8205C46.6111 22.811 47.3194 21.9509 47.6672 21.7897C48.3155 21.4829 48.2301 20.7303 48.1605 20.6955L48.1574 20.6924Z" fill="black"/>
<path d="M50.1148 20.5812C50.2318 20.3852 49.6563 20.5275 49.5677 20.5654C48.9732 20.8247 48.7266 20.9955 48.2238 21.3465C47.5819 21.7955 47.0411 22.0928 46.4214 22.5671C46.3929 22.5892 46.2538 22.5133 46.4561 22.7631C46.6364 22.9845 47.9803 21.7386 50.1179 20.5812H50.1148Z" fill="black"/>
<path d="M53.122 22.3015C52.986 22.409 52.2714 22.662 52.205 22.4059C52.1639 22.2446 52.2303 22.194 52.3536 22.0391C52.6477 21.8683 53.0335 21.5236 53.2232 21.2264C53.2706 21.1536 53.2011 20.8532 53.1062 20.9291C52.2619 21.7355 52.0595 21.8904 51.5725 22.1561C51.1488 22.3901 50.4468 22.3521 50.8674 21.9695C51.2057 21.6628 51.2848 21.6438 51.484 21.5015C51.7812 21.3371 51.9488 21.1347 52.322 20.9924C52.6508 20.8659 52.401 20.6256 52.3157 20.6414C52.1449 20.673 51.0002 21.1347 49.3021 22.3964C49.223 22.4565 49.2926 22.5766 49.3811 22.5324C49.846 22.3078 50.295 22.058 50.7472 21.8019C50.3677 21.979 49.9282 22.6652 50.2444 22.7695C50.8168 22.9561 51.7306 22.4786 51.7306 22.4786C51.7306 22.4786 51.7465 22.5418 51.8635 22.76C52.1259 23.2502 53.0082 22.5988 53.239 22.4154C53.3212 22.3521 53.2042 22.2383 53.1252 22.3015H53.122Z" fill="black"/>
<path d="M47.3447 22.0771C47.4554 22.0454 47.8095 21.9411 47.8538 22.0992C47.8791 22.1909 47.9645 22.6621 48.0246 22.7633C48.2428 23.1396 49.7511 22.3459 49.982 22.2383C50.0737 22.1972 49.7669 22.0549 49.6752 22.0992C49.5424 22.1593 48.442 22.583 48.4483 22.3174C48.4641 21.2233 47.9582 21.666 47.759 21.7514C47.6957 21.7767 47.3447 22.0771 47.3447 22.0771Z" fill="black"/>
<path d="M52.9702 22.5545C53.3212 22.5767 53.9568 22.0454 54.2066 21.998C54.4059 21.96 55.1585 21.2043 55.1616 21.2011C55.1743 21.141 55.1648 20.926 55.1079 20.9671C54.8169 21.16 54.4059 21.4414 54.0833 21.6628C53.7608 21.881 53.4382 22.1245 53.1125 22.3205C53.0714 22.3458 52.9702 22.5545 52.9702 22.5545Z" fill="black"/>
<path d="M53.3086 22.3808C53.0429 23.5382 54.0517 22.5705 54.3869 22.3713C54.7885 22.1373 54.975 22.0994 55.4114 21.7926C56.3032 21.1729 56.2178 21.6282 56.0217 21.8717C55.8383 22.0994 55.3672 22.5674 55.6929 22.7793C56.0881 23.0386 56.7648 22.5294 57.0147 22.2575C57.0842 22.1816 57.0368 22.1025 56.9324 22.1184C56.7965 22.1373 56.2273 22.5231 56.085 22.3808C55.9996 22.2954 56.5245 21.6756 56.6004 21.4416C56.6415 21.3215 56.6637 21.04 56.5055 21.059C56.1545 21.097 55.9016 21.1665 55.7624 21.2551C54.4248 22.0994 54.3869 21.6851 54.0169 21.9191C53.9505 21.9602 53.3054 22.3808 53.3054 22.3808H53.3086Z" fill="black"/>
</g>
<defs>
<clipPath id="clip0_1233_3227">
<rect width="82.2517" height="45.9689" fill="white" transform="translate(0.46521 0.925293)"/>
</clipPath>
</defs>
</svg>
