<svg width="43" height="62" viewBox="0 0 43 62" fill="none" xmlns="http://www.w3.org/2000/svg">
<g clip-path="url(#clip0_1233_3327)">
<path d="M4.68755 10.0009H9.28833V13.0623H4.68755V19.3075H10.4779V22.3688H1.3288V1.00928H10.4779V4.05314H4.68755V10.0009Z" fill="black"/>
<path d="M14.9038 10.4907H19.2422V13.5521H14.9038V22.3688H11.545V1.00928H20.4317V4.05314H14.9038V10.4907Z" fill="black"/>
<path d="M25.4349 13.8495L24.4028 15.8088V22.3688H21.044V1.00928H24.4028V10.3158L28.7936 1.00928H32.1524L27.4816 10.5257L32.1524 22.3688H28.7061L25.4349 13.8495Z" fill="black"/>
<path d="M35.5287 17.4534C35.5287 18.9754 36.1934 19.5526 37.2605 19.5526C38.3276 19.5526 38.9924 18.9754 38.9924 17.4534V5.92523C38.9924 4.40329 38.3276 3.82601 37.2605 3.82601C36.1934 3.82601 35.5287 4.40329 35.5287 5.92523V17.4534ZM32.1699 6.13515C32.1699 2.72392 33.9718 0.764648 37.2605 0.764648C40.5493 0.764648 42.3511 2.72392 42.3511 6.13515V17.2435C42.3511 20.6547 40.5493 22.614 37.2605 22.614C33.9718 22.614 32.1699 20.6547 32.1699 17.2435V6.13515Z" fill="black"/>
<path d="M4.23277 34.9994H8.57116V38.0433H4.23277V46.86H0.874023V25.5005H9.76071V28.5618H4.23277V34.9994Z" fill="black"/>
<path d="M13.4518 41.9442C13.4518 43.4661 14.1166 44.0434 15.1837 44.0434C16.2508 44.0434 16.9155 43.4661 16.9155 41.9442V30.416C16.9155 28.894 16.2508 28.3167 15.1837 28.3167C14.1166 28.3167 13.4518 28.894 13.4518 30.416V41.9442ZM10.0931 30.6259C10.0931 27.2146 11.8949 25.2554 15.1837 25.2554C18.4725 25.2554 20.2743 27.2146 20.2743 30.6259V41.7342C20.2743 45.1455 18.4725 47.1047 15.1837 47.1047C11.8949 47.1047 10.0931 45.1455 10.0931 41.7342V30.6259Z" fill="black"/>
<path d="M24.5252 41.9442C24.5252 43.4661 25.1899 44.0434 26.257 44.0434C27.3241 44.0434 27.9889 43.4661 27.9889 41.9442V30.416C27.9889 28.894 27.3241 28.3167 26.257 28.3167C25.1899 28.3167 24.5252 28.894 24.5252 30.416V41.9442ZM21.1664 30.6259C21.1664 27.2146 22.9683 25.2554 26.257 25.2554C29.5458 25.2554 31.3477 27.2146 31.3477 30.6259V41.7342C31.3477 45.1455 29.5458 47.1047 26.257 47.1047C22.9683 47.1047 21.1664 45.1455 21.1664 41.7342V30.6259Z" fill="black"/>
<path d="M35.8785 28.5619V43.8162H37.7678C38.8349 43.8162 39.4821 43.2739 39.4821 41.7345V30.6262C39.4821 29.1042 38.8349 28.5444 37.7678 28.5444H35.8785V28.5619ZM32.5197 25.5181H37.8202C41.179 25.5181 42.8234 27.3724 42.8234 30.8011V41.5946C42.8234 45.0058 41.179 46.8776 37.8202 46.8776H32.5197V25.5181Z" fill="black"/>
<path d="M14.1516 50.3237C14.1866 50.2013 14.1691 50.0788 14.0466 49.9563C13.9067 49.8164 13.6968 49.7114 13.3994 49.659C13.102 49.6065 12.8396 49.5715 12.6297 49.5715C12.2098 49.5715 11.7375 49.6415 11.2302 49.7814C10.7229 49.9214 10.233 50.0963 9.76072 50.3412C9.2884 50.5686 8.88605 50.8485 8.53618 51.1459C8.18631 51.4433 7.9589 51.7582 7.83644 52.0906C7.74897 52.3355 7.78396 52.5454 7.9414 52.7203C8.09884 52.8953 8.32626 53.0177 8.60615 53.1227C8.90354 53.2276 9.23592 53.2976 9.60328 53.3326C9.97065 53.3676 10.3205 53.4026 10.6704 53.4026C10.9328 53.4026 11.1777 53.3851 11.4051 53.3676C11.6325 53.3501 11.8075 53.3151 11.9299 53.2801H11.9999C12.1049 53.2801 12.1748 53.3151 12.2273 53.3851C12.2798 53.455 12.3148 53.5425 12.3148 53.6475C12.3323 53.7524 12.3148 53.8399 12.2798 53.9099C12.2448 53.9973 12.2098 54.0498 12.1398 54.0673C11.9124 54.1198 11.65 54.2073 11.3351 54.3472C11.0203 54.4697 10.6879 54.6271 10.3205 54.802C9.97065 54.977 9.60328 55.1869 9.25341 55.3968C8.90354 55.6067 8.57117 55.8342 8.25628 56.0616C7.9589 56.289 7.679 56.5164 7.45158 56.7438C7.22417 56.9712 7.04923 57.1812 6.96177 57.3736C6.78683 57.7235 6.78683 57.9684 6.97926 58.1258C7.17169 58.2833 7.45158 58.3532 7.83644 58.3532C8.18631 58.3532 8.58866 58.3008 9.026 58.1958C9.48083 58.0908 9.91817 57.9509 10.3555 57.7759C10.7928 57.601 11.1952 57.3911 11.5626 57.1637C11.9299 56.9363 12.2098 56.7088 12.4022 56.4639C12.5072 56.6039 12.5247 56.7613 12.4372 56.9537C12.3498 57.1462 12.1748 57.3211 11.9474 57.531C11.7025 57.7235 11.4226 57.9159 11.0902 58.1083C10.7579 58.3007 10.3905 58.4582 10.0231 58.6156C9.63827 58.7556 9.25341 58.878 8.86856 58.9655C8.4837 59.053 8.11634 59.1054 7.78396 59.1054C7.25916 59.1054 6.8743 58.983 6.62939 58.7381C6.31451 58.4057 6.17456 58.0558 6.17456 57.706C6.19205 57.3561 6.29702 57.0237 6.52443 56.6913C6.75185 56.359 7.04923 56.0441 7.4166 55.7467C7.78396 55.4493 8.18631 55.1694 8.60615 54.907C9.026 54.6446 9.42835 54.4347 9.8307 54.2248C10.233 54.0323 10.5654 53.8749 10.8278 53.7699C10.7229 53.7874 10.6004 53.7874 10.4955 53.7874H10.1806C9.77822 53.7874 9.39336 53.7524 9.00851 53.7C8.62365 53.6475 8.29127 53.56 7.99388 53.4201C7.69649 53.2976 7.45159 53.1227 7.27665 52.9127C7.10172 52.7028 7.01425 52.4404 7.01425 52.1255C7.01425 51.7057 7.18918 51.3208 7.55655 50.9185C7.92391 50.5336 8.36125 50.1838 8.90354 49.8864C9.44584 49.589 10.0406 49.3441 10.6704 49.1691C11.3002 48.9942 11.8949 48.9067 12.4197 48.9067C12.8571 48.9067 13.2244 48.9592 13.5043 49.0817C13.8367 49.2216 14.0816 49.4315 14.2391 49.7114C14.3965 49.9913 14.379 50.2887 14.2216 50.6036C14.2041 50.6386 14.1516 50.7086 14.0816 50.796C14.0116 50.8835 13.9592 50.9185 13.9067 50.901C13.8717 50.8835 13.8542 50.8485 13.8717 50.796C13.8892 50.761 13.8892 50.7261 13.9067 50.6911C13.9941 50.5686 14.0641 50.4462 14.0991 50.3237H14.1516Z" fill="black"/>
<path d="M16.828 53.8572C16.9155 53.9272 16.9155 54.0147 16.8455 54.1021L14.4314 56.8136C14.5364 57.1285 14.6414 57.3909 14.7813 57.6183C14.9213 57.8457 15.0787 57.9682 15.2711 57.9682C15.4286 57.9682 15.6385 57.8632 15.9009 57.6533C16.1633 57.4434 16.4257 57.216 16.6881 56.9361C16.9505 56.6737 17.1954 56.3938 17.4228 56.1314C17.6502 55.869 17.8077 55.6766 17.9126 55.5541C17.9301 55.5541 17.9301 55.5541 17.9476 55.5366C18.0351 55.5366 18.1051 55.5891 18.1401 55.7115C18.0176 55.8865 17.8252 56.1314 17.5628 56.4463C17.3004 56.7611 17.0205 57.0935 16.7056 57.4084C16.4082 57.7233 16.0933 58.0032 15.7959 58.2306C15.4985 58.458 15.2186 58.5805 15.0087 58.5805C14.7463 58.563 14.5189 58.458 14.3265 58.2481C14.134 58.0382 13.9591 57.7758 13.8367 57.4609L12.4547 58.9828C12.4372 59.0178 12.4022 59.0353 12.3497 59.0353C12.2797 59.0353 12.2098 59.0003 12.1573 58.9478C12.1048 58.8953 12.1048 58.8254 12.1748 58.7554L13.6617 56.9711C13.5743 56.6912 13.5043 56.4113 13.4693 56.1314C13.4343 55.8515 13.3993 55.5716 13.3818 55.3267C13.3643 55.3617 13.3293 55.4316 13.2769 55.5016C13.2244 55.5716 13.1894 55.6416 13.1369 55.7115C13.0844 55.7815 13.032 55.834 12.962 55.869C12.892 55.904 12.8395 55.939 12.7696 55.939C12.6646 55.939 12.6121 55.9215 12.5771 55.869C12.7696 55.6241 12.9095 55.4141 13.032 55.2392C13.1544 55.0643 13.2594 54.8369 13.3643 54.557C13.3818 54.3121 13.4868 54.1371 13.6267 54.0497C13.7842 53.9622 13.9241 53.9097 14.0641 53.9097C14.1515 53.9097 14.2215 53.9272 14.274 53.9447C14.3265 53.9797 14.344 54.0147 14.3265 54.0497C14.309 54.1021 14.274 54.2071 14.2565 54.3645C14.239 54.522 14.2215 54.6969 14.204 54.9068C14.1865 55.1168 14.1865 55.3267 14.204 55.5541C14.2215 55.7815 14.239 56.0089 14.274 56.2188L16.3382 53.7873C16.3732 53.7523 16.4432 53.7173 16.5481 53.7173C16.6531 53.7173 16.7406 53.7523 16.828 53.8222V53.8572Z" fill="black"/>
<path d="M21.7787 54.4346C21.6737 54.4346 21.4988 54.5045 21.2889 54.662C21.0789 54.8194 20.8165 55.0118 20.5366 55.2742C20.2567 55.5366 19.9594 55.834 19.6445 56.1664C19.3296 56.5163 18.9972 56.8662 18.6823 57.251C18.5424 57.7408 18.4899 58.0907 18.5249 58.2831C18.5599 58.493 18.6473 58.598 18.7873 58.598C18.9272 58.598 19.1022 58.5105 19.3121 58.3531C19.522 58.1956 19.7669 57.9857 20.0118 57.7233C20.2567 57.4609 20.5017 57.181 20.7466 56.8661C20.9915 56.5513 21.2014 56.2539 21.3938 55.939C21.5863 55.6416 21.7262 55.3617 21.8312 55.1168C21.9361 54.8719 21.9711 54.6795 21.9361 54.5395C21.9186 54.4521 21.8661 54.4171 21.7787 54.4171V54.4346ZM22.5134 54.2421C22.7058 54.4171 22.8283 54.627 22.8808 54.8894C22.9158 55.0818 22.8808 55.3092 22.7933 55.5891C22.6883 55.869 22.5484 56.1839 22.356 56.4988C22.1635 56.8137 21.9361 57.146 21.6737 57.4609C21.4113 57.7933 21.1314 58.0732 20.834 58.3356C20.5366 58.598 20.2393 58.8079 19.9419 58.9654C19.6445 59.1228 19.3646 59.2103 19.1022 59.2103C18.9447 59.2103 18.8048 59.1753 18.7173 59.1228C18.5074 59.0353 18.35 58.8779 18.245 58.633C18.14 58.3881 18.1051 58.1257 18.1575 57.8283C17.5628 58.5455 17.0554 59.2103 16.6531 59.8225C16.4607 60.2424 16.2857 60.6272 16.1458 60.9771C16.0058 61.3445 15.9184 61.6594 15.8834 61.9393C15.6385 61.9393 15.4635 61.8518 15.3936 61.6594C15.3236 61.4669 15.2886 61.2745 15.3061 61.0296C15.3236 60.8022 15.3761 60.5573 15.446 60.3299C15.516 60.1024 15.586 59.9275 15.6385 59.8225C15.8134 59.3677 16.0408 58.8779 16.3032 58.3356C16.5656 57.8108 16.8455 57.286 17.1254 56.7962C17.4053 56.3064 17.6677 55.8515 17.9126 55.4492C18.1575 55.0468 18.3675 54.7319 18.5074 54.522C18.6124 54.3996 18.6998 54.2946 18.7698 54.2071C18.8573 54.1372 18.9797 54.1022 19.1722 54.1022C19.3121 54.1022 19.4346 54.1197 19.5395 54.1722C19.6445 54.2071 19.7319 54.2771 19.8019 54.3296C19.8719 54.3996 19.9244 54.4521 19.9419 54.522C19.9594 54.5745 19.9594 54.627 19.9244 54.662C19.7145 54.8369 19.4346 55.1693 19.0672 55.6591C18.7173 56.1489 18.3325 56.7262 17.9476 57.3735C18.0526 57.251 18.1925 57.0936 18.3675 56.8661C18.5424 56.6562 18.7523 56.4113 18.9797 56.1664C19.2071 55.904 19.452 55.6591 19.7145 55.3792C19.9769 55.1168 20.2393 54.8719 20.4842 54.662C20.7466 54.4521 20.9915 54.2771 21.2189 54.1372C21.4638 53.9972 21.6562 53.9272 21.8312 53.9272C22.0761 53.9272 22.3035 54.0147 22.4784 54.1897L22.5134 54.2421Z" fill="black"/>
<path d="M25.0675 55.0817C24.9451 55.1692 24.8051 55.2742 24.6652 55.4316C24.5252 55.5715 24.3853 55.729 24.2278 55.9039C24.0879 56.0789 23.9479 56.2713 23.843 56.4637C23.878 56.5337 23.9479 56.5687 24.0354 56.5687C24.1404 56.5687 24.2453 56.5337 24.3853 56.4637C24.5252 56.3937 24.6652 56.2888 24.8226 56.1663C24.98 56.0439 25.1025 55.9039 25.225 55.764C25.3474 55.6065 25.4524 55.4666 25.5223 55.3266C25.5573 55.1867 25.5573 55.0817 25.5398 55.0118C25.5048 54.9768 25.4524 54.9418 25.3649 54.9418C25.2774 54.9418 25.1725 54.9943 25.05 55.0642L25.0675 55.0817ZM22.5834 57.2684C22.5834 56.901 22.6884 56.5512 22.8633 56.1838C23.0383 55.8339 23.2832 55.4841 23.5806 55.1867C23.878 54.8718 24.1578 54.6444 24.4552 54.4869C24.6652 54.3645 24.8926 54.312 25.1025 54.312C25.3824 54.312 25.6273 54.417 25.8197 54.6094C26.0122 54.8018 26.0646 55.0292 26.0122 55.2916C25.9947 55.3441 25.9597 55.3966 25.9597 55.4491C25.9422 55.5016 25.9247 55.5366 25.9072 55.589V55.624C25.8372 55.7465 25.7498 55.9039 25.6448 56.0439C25.5223 56.2013 25.3999 56.3413 25.2424 56.4812C25.085 56.6212 24.9276 56.7261 24.7701 56.8311C24.5952 56.936 24.4377 56.971 24.2803 56.971C24.0354 56.971 23.843 56.901 23.738 56.7786C23.668 56.936 23.5981 57.0935 23.5456 57.2509C23.4931 57.4084 23.4756 57.5308 23.4756 57.6533C23.4756 57.7757 23.5106 57.8632 23.5631 57.9507C23.6156 58.0206 23.7205 58.0731 23.8605 58.0731C24.1928 58.0731 24.5427 57.9681 24.8926 57.7757C25.2424 57.5833 25.5923 57.3384 25.9247 57.0585C26.2571 56.7786 26.5545 56.4812 26.8344 56.1663C27.1142 55.8514 27.3417 55.589 27.5341 55.3616C27.5341 55.3441 27.5516 55.3441 27.5691 55.3441C27.6041 55.3441 27.6391 55.3616 27.6915 55.3791C27.744 55.4141 27.7615 55.4491 27.7615 55.5191C27.6915 55.589 27.6216 55.6765 27.5341 55.799C27.4466 55.9214 27.3417 56.0614 27.2192 56.2013C27.0443 56.4112 26.8344 56.6561 26.5894 56.9185C26.3445 57.1984 26.0821 57.4608 25.8022 57.7057C25.5223 57.9507 25.2075 58.1606 24.8926 58.3355C24.5777 58.5104 24.2453 58.5979 23.9129 58.5979C23.5281 58.5979 23.2482 58.4755 23.0558 58.248C22.7759 57.9507 22.6534 57.6358 22.6534 57.2684H22.5834Z" fill="black"/>
<path d="M29.3184 52.0206C29.2484 52.0906 29.1784 52.1605 29.126 52.2655C29.0735 52.3705 29.0385 52.4754 29.0385 52.5804C29.021 52.6853 29.056 52.8078 29.1435 52.8953C29.2134 52.8078 29.2659 52.7028 29.3359 52.5979C29.4059 52.4929 29.4408 52.3879 29.4933 52.2655C29.5983 52.0206 29.5983 51.9156 29.4933 51.9156C29.4583 51.9156 29.4059 51.9506 29.3184 52.0206ZM27.1842 55.8517C27.1667 55.7992 27.1667 55.7642 27.1667 55.7292C27.2716 55.6067 27.3766 55.4493 27.5166 55.2744C27.639 55.0819 27.779 54.872 27.9364 54.6621C28.0763 54.4347 28.2338 54.2073 28.3737 53.9799C28.5312 53.7524 28.6711 53.525 28.8286 53.3151C28.5837 53.1052 28.4612 52.8953 28.4437 52.6503C28.4262 52.4054 28.4612 52.1955 28.5487 51.9856C28.6536 51.7757 28.7936 51.6007 28.986 51.4608C29.1784 51.3208 29.3709 51.2509 29.5633 51.2334C29.6683 51.2159 29.7732 51.2509 29.8432 51.3383C29.9132 51.4083 29.9656 51.5133 30.0006 51.6182C30.0356 51.7232 30.0531 51.8456 30.0531 51.9506C30.0531 52.0556 30.0356 52.1605 30.0181 52.213C29.8782 52.5279 29.6857 52.8778 29.4233 53.2451C29.4583 53.2801 29.4933 53.3151 29.5458 53.3501C29.5983 53.3851 29.6158 53.4201 29.6508 53.4551C29.8432 53.56 29.9831 53.7 30.0706 53.8574C30.1581 54.0148 30.1931 54.1898 30.1931 54.3647C30.1931 54.5396 30.1756 54.7146 30.1231 54.907C30.0706 55.0819 30.0181 55.2569 29.9307 55.3968C29.8607 55.5543 29.7557 55.7817 29.5983 56.0441C29.4408 56.3065 29.2659 56.6039 29.091 56.9188C28.916 57.2336 28.7411 57.531 28.5837 57.8459C28.4262 58.1608 28.3038 58.4232 28.2338 58.6681C28.3213 58.6856 28.4437 58.6156 28.6186 58.4757C28.7936 58.3357 28.9685 58.1608 29.1959 57.9509C29.4059 57.741 29.6333 57.496 29.8432 57.2336C30.0706 56.9712 30.2805 56.7088 30.473 56.4639C30.6654 56.219 30.8578 55.9916 30.9978 55.7992C31.1552 55.6067 31.2777 55.4493 31.3476 55.3618C31.4176 55.3269 31.4526 55.3094 31.4526 55.3094C31.4701 55.3094 31.4876 55.3269 31.5401 55.3443C31.645 55.3793 31.6625 55.4493 31.61 55.5018C31.5576 55.5543 31.4701 55.6767 31.3301 55.8517C31.2077 56.0266 31.0327 56.254 30.8403 56.4989C30.6479 56.7613 30.438 57.0237 30.2106 57.3036C29.9831 57.5835 29.7382 57.8459 29.5108 58.1083C29.2659 58.3707 29.0385 58.5981 28.8286 58.7906C28.6186 58.983 28.4262 59.1229 28.2513 59.1929C28.1813 59.2104 28.1288 59.2279 28.0938 59.2279C27.9539 59.2279 27.8489 59.1929 27.744 59.1229C27.6565 59.053 27.569 58.983 27.5166 58.878C27.4466 58.7731 27.4116 58.6681 27.3941 58.5631C27.3766 58.4582 27.3591 58.3357 27.3591 58.2483C27.3416 58.0383 27.3941 57.8109 27.5166 57.5485C27.6215 57.2861 27.7615 57.0062 27.9364 56.7088C28.1113 56.4114 28.2863 56.1141 28.4612 55.8167C28.6536 55.5193 28.8111 55.2394 28.951 54.977C29.091 54.7146 29.1959 54.4872 29.2659 54.2772C29.3359 54.0673 29.3359 53.8924 29.2484 53.7874C29.2309 53.7524 29.1959 53.7 29.1085 53.6125C28.7061 54.1373 28.3912 54.5746 28.1638 54.942C27.9189 55.3094 27.709 55.6067 27.4991 55.8517C27.4116 55.9041 27.3416 55.9391 27.2891 55.9391C27.2192 55.9391 27.1842 55.9041 27.1667 55.8517H27.1842Z" fill="black"/>
<path d="M34.619 50.8834C34.7239 50.9184 34.7939 50.9884 34.8464 51.0409C34.8989 51.1109 34.9338 51.1633 34.9513 51.2333C34.9688 51.3033 34.9513 51.3558 34.8989 51.3908C34.6889 51.5482 34.4615 51.8106 34.1991 52.1605C34.5665 52.1255 34.9513 52.0905 35.3187 52.0555C35.6861 52.0205 36.0359 51.968 36.3858 51.9331C36.4908 51.9331 36.5432 51.968 36.5782 52.038C36.5957 52.108 36.5957 52.1955 36.5607 52.2829C36.5258 52.3879 36.4733 52.4754 36.3858 52.5453C36.2983 52.6328 36.1934 52.6678 36.0709 52.6853C35.6861 52.7028 35.3012 52.7203 34.8989 52.7553C34.514 52.7727 34.1117 52.7902 33.7093 52.8252C33.3769 53.315 33.0271 53.8573 32.6597 54.4696C32.2923 55.0819 31.96 55.6942 31.6451 56.3239C31.3302 56.9537 31.0503 57.566 30.8054 58.1433C30.5605 58.7205 30.4205 59.2278 30.3506 59.6477C30.1756 59.6477 30.0532 59.5952 29.9832 59.4728C29.9132 59.3503 29.8782 59.2279 29.8607 59.0704C29.8432 58.913 29.8432 58.773 29.8782 58.6156C29.8957 58.4581 29.9307 58.3357 29.9657 58.2482C30.0357 57.9683 30.1581 57.6184 30.3331 57.1986C30.508 56.7788 30.7004 56.3239 30.9278 55.8166C31.1553 55.3268 31.4002 54.8195 31.6451 54.3122C31.9075 53.8049 32.1524 53.3325 32.3973 52.8777C31.925 52.8952 31.4526 52.9302 30.9978 52.9652C30.543 53.0002 30.0882 53.0526 29.6158 53.0876H29.5808C29.4759 53.0876 29.4234 53.0351 29.4234 52.9127C29.4234 52.8077 29.4584 52.7378 29.5633 52.7028C30.0357 52.6503 30.543 52.5803 31.0678 52.5278C31.5926 52.4579 32.1349 52.4054 32.6947 52.3354C32.9396 51.9331 33.167 51.6007 33.3769 51.3383C33.5868 51.0759 33.7443 50.9184 33.8667 50.8834C34.0067 50.8485 34.1291 50.8135 34.2341 50.8135C34.3741 50.8135 34.4965 50.831 34.584 50.8834H34.619Z" fill="black"/>
</g>
<defs>
<clipPath id="clip0_1233_3327">
<rect width="41.9494" height="61.2111" fill="white" transform="translate(0.874023 0.763672)"/>
</clipPath>
</defs>
</svg>
