<svg width="108" height="15" viewBox="0 0 108 15" fill="none" xmlns="http://www.w3.org/2000/svg">
<g clip-path="url(#clip0_1233_3787)">
<path fill-rule="evenodd" clip-rule="evenodd" d="M37.7884 6.62179C35.6106 6.62179 35.702 6.88982 35.702 5.04408C35.702 4.05115 36.2899 4.27959 37.7884 4.27959C38.4645 4.27959 39.1133 4.65726 39.1133 5.19637C39.1133 5.68674 39.1834 6.0431 38.6778 6.39032C38.4463 6.5487 38.1569 6.62179 37.7914 6.62179H37.7884ZM31.5628 14.617H29.4886V11.7661C30.4846 11.7661 31.2704 11.9671 31.2704 10.6971C31.2704 10.0696 31.3526 8.93355 31.0024 8.51932C30.4968 7.9193 30.3323 8.19951 30.1496 7.94671C31.0115 7.87361 31.2704 7.06343 31.2704 6.26544C31.2704 4.20649 31.3191 4.17908 29.4886 4.17908V1.37695H31.8826C32.839 1.37695 33.2563 2.08967 33.4116 2.19018C33.6705 1.69981 34.2979 1.37695 34.837 1.37695H40.5418C41.8545 1.37695 42.8962 2.40338 43.2738 3.53337C43.7764 5.04408 43.5449 7.06039 42.0373 7.80965C41.8667 7.89493 41.7631 7.91321 41.6626 8.04722C42.2901 8.099 42.8048 8.95791 42.9784 9.58534C43.3348 10.8859 42.4119 11.4615 44.413 11.4615V14.3642C44.413 14.483 44.3764 14.5165 44.2607 14.5165H41.6139C40.9499 14.5165 40.3529 14.416 39.7956 14.0931C39.4971 13.9195 39.1255 13.554 38.9854 13.2251C38.7326 12.6311 38.763 12.4727 38.763 11.7692C38.763 11.3428 38.7387 11.0534 38.7113 10.7001C38.6656 10.1123 38.3458 9.47874 37.694 9.47874H35.8604C35.766 9.62189 35.7081 9.69499 35.7081 9.93561C35.7081 11.9702 35.5497 11.7174 37.9498 11.7174V14.4677C37.9498 14.5835 37.9163 14.62 37.8036 14.62H37.7975H35.2512C34.6025 14.62 33.5822 14.3642 33.4177 13.755C33.1649 13.9256 33.2806 14.0748 32.6715 14.3825C32.3943 14.5226 32.0044 14.5896 31.5719 14.62L31.5628 14.617Z" fill="black"/>
<path fill-rule="evenodd" clip-rule="evenodd" d="M53.6264 6.62179C51.47 6.62179 51.4365 6.87764 51.4365 5.19637C51.4365 4.03592 51.9238 4.27959 53.6264 4.27959C55.329 4.27959 55.329 6.62179 53.6264 6.62179ZM47.2303 14.617H45.2231V11.7661C46.015 11.7661 47.0049 11.9671 47.0049 10.8493C47.0049 9.46351 47.2455 8.31525 45.884 7.99849L46.3439 7.79747C46.5023 7.71828 46.5693 7.66954 46.6851 7.52944C46.8648 7.31623 47.0049 6.99947 47.0049 6.62484C47.0049 4.26436 47.212 4.17908 45.2231 4.17908V1.37695H47.5653C48.2049 1.37695 48.9816 1.75768 49.0943 2.24196C49.2405 2.07444 49.1308 2.12622 49.3623 1.89778C49.475 1.78509 49.5755 1.70894 49.7065 1.6328C49.9654 1.48356 50.2669 1.37695 50.672 1.37695H56.2732C57.9941 1.37695 59.2276 3.00949 59.2276 4.78823C59.2276 5.65324 59.185 6.30199 58.7494 6.95683C58.4844 7.35278 57.854 7.91016 57.4458 7.94367V8.04418C58.122 8.20256 58.5393 8.94877 58.7281 9.56402C59.1271 10.8524 58.1433 11.4555 60.1444 11.4555V14.5104H57.4458C56.66 14.5104 56.0631 14.3916 55.5635 14.1022C54.662 13.5845 54.4945 12.7591 54.4945 11.76C54.4945 11.0016 54.5615 9.4696 53.4254 9.4696H51.5918C51.5157 9.6158 51.4395 9.75286 51.4395 9.97825C51.4395 10.4717 51.3604 11.2301 51.6284 11.5225C51.9056 11.827 53.0538 11.7113 53.6812 11.7113V14.6139H50.9309C50.0689 14.6139 49.4476 14.3124 49.1491 13.7489C48.9968 13.8616 49.1034 13.7946 48.9816 13.9378L48.4181 14.3946C48.1562 14.5256 47.7176 14.5865 47.2303 14.6139V14.617Z" fill="black"/>
<path fill-rule="evenodd" clip-rule="evenodd" d="M84.3828 6.62142C82.205 6.62142 82.2964 6.88945 82.2964 5.04371C82.2964 4.05078 82.8842 4.27921 84.3828 4.27921C85.0285 4.27921 85.7077 4.58379 85.7077 5.24777C85.7077 5.71683 85.7534 6.04272 85.3117 6.37776C85.1137 6.527 84.7269 6.62142 84.3858 6.62142H84.3828ZM78.1176 14.6166H76.08V11.7658C76.8962 11.7658 77.8617 11.9698 77.8617 10.7972C77.8617 10.1119 77.9653 8.92404 77.5693 8.49154C77.015 7.88542 76.9358 8.21132 76.7409 7.94634C77.5267 7.88238 77.8617 7.14834 77.8617 6.36862C77.8617 4.20002 77.947 4.1787 76.08 4.1787V1.37658H78.4739C78.9004 1.37658 79.5156 1.64766 79.7349 1.89741C79.8689 2.0497 79.8049 2.05884 80.0029 2.18981C80.14 1.93091 80.3166 1.77253 80.5633 1.62938C80.7766 1.5045 81.0903 1.37354 81.4283 1.37354H87.1331C88.0286 1.37354 88.9027 1.9431 89.2926 2.47306C90.2733 3.80712 90.383 5.89653 89.4753 7.13007C89.4144 7.21231 89.4144 7.21535 89.3352 7.29454C88.8083 7.8306 88.4123 7.82451 88.2509 8.04381C88.8601 8.09558 89.454 9.00627 89.5728 9.57279C89.7159 10.2703 89.4936 11.117 89.9444 11.3393C90.249 11.4886 90.654 11.4551 91.0013 11.4551V14.3577C91.0013 14.4765 90.9647 14.51 90.849 14.51H88.2022C87.0021 14.51 85.7625 14.1201 85.4305 12.7983C85.2874 12.2196 85.3879 11.4368 85.2995 10.6875C85.2569 10.3129 85.1899 10.1149 85.0132 9.853C84.8762 9.64893 84.596 9.46619 84.2792 9.46619H82.4456C82.3512 9.60934 82.2934 9.68244 82.2934 9.92305C82.2934 10.3952 82.2111 11.2419 82.47 11.5282C82.738 11.8206 83.9228 11.7048 84.532 11.7048V14.4552C84.532 14.5709 84.4985 14.6075 84.3858 14.6075H84.3797H81.8334C81.1847 14.6075 80.1644 14.3516 79.9999 13.7425C79.8141 13.8795 79.7836 14.1201 79.2628 14.3821C78.9917 14.5191 78.5745 14.5801 78.1145 14.6105L78.1176 14.6166Z" fill="black"/>
<path fill-rule="evenodd" clip-rule="evenodd" d="M100.781 7.38608C100.952 7.61756 102.146 8.00742 101.5 9.83793C101.415 10.0786 101.326 10.2004 101.174 10.377C100.187 11.5253 98.5274 11.4796 97.6837 10.6329C97.0837 10.0298 96.9588 9.62473 96.9588 8.75973C96.9588 8.40641 97.0806 8.13838 97.2329 7.913C97.3151 7.79117 97.4096 7.71502 97.5192 7.63888C97.6593 7.54141 97.7811 7.514 97.8756 7.38608C97.6258 7.32821 97.4096 7.115 97.2512 6.94139C96.8948 6.55153 96.8948 5.6713 97.0532 5.18702C97.2847 4.47431 97.7933 3.97784 98.4939 3.72504C98.704 3.6489 99.17 3.57884 99.4137 3.60626C100.132 3.68545 100.553 3.76768 101.15 4.41948C101.771 5.10174 101.887 6.5363 101.247 7.09064C101.177 7.15155 101.226 7.10282 101.156 7.15155L100.778 7.38303L100.781 7.38608ZM98.838 0.459961H99.837C100.885 0.508693 101.899 0.703624 102.746 1.04171C103.806 1.46507 104.226 1.79706 105.021 2.58592C106.641 4.19714 106.27 6.18299 107.187 7.09368C107.43 7.3343 107.546 7.37389 107.659 7.53837C106.754 7.77898 106.541 9.37802 106.355 10.0024C106.197 10.5263 106.017 10.8735 105.795 11.3243C105.493 11.9304 105.277 12.0674 105.003 12.4177C104.738 12.7558 104.36 13.0482 103.995 13.2919C101.491 14.9518 96.84 14.9153 94.5952 13.2705C94.4856 13.1913 94.4125 13.1304 94.3059 13.0512C93.6511 12.5548 93.2338 11.9761 92.8135 11.2847C92.0947 10.106 92.3018 8.98816 91.5007 7.913C91.3515 7.71502 91.1383 7.6602 91.0104 7.48659C91.1352 7.31602 91.3758 7.23379 91.5281 7.03886C91.9972 6.43579 92.0886 5.71394 92.2926 4.94945C92.649 3.6093 93.5414 2.42449 94.6958 1.65086C95.7892 0.916829 97.3091 0.526968 98.8441 0.459961L98.838 0.459961Z" fill="black"/>
<path fill-rule="evenodd" clip-rule="evenodd" d="M61.0094 4.17559C63.0806 4.17559 62.7912 4.19082 62.7912 6.82238C62.7912 7.37671 62.2369 7.90059 61.7221 7.94323C61.8775 8.15643 62.0298 7.9676 62.4227 8.36355C62.6085 8.54934 62.7912 8.81432 62.7912 9.16763V11.1017C62.7912 11.4398 62.4623 11.7078 62.1729 11.7566C60.7536 11.9911 61.0094 10.7636 61.0094 14.4643C61.0094 14.58 61.0429 14.6165 61.1556 14.6165H61.1617H63.0653C63.5131 14.5922 63.9212 14.5282 64.2014 14.3972C64.8136 14.1079 64.7375 13.913 64.9811 13.7515C65.1425 14.3607 66.1629 14.6165 66.8147 14.6165H74.2494V9.01535H71.295C71.295 12.1281 71.4565 11.7139 67.9355 11.7139C67.7406 11.7139 67.5457 11.656 67.4452 11.5433C67.171 11.2327 67.2746 10.5108 67.2746 9.93213C67.2746 9.68846 67.3325 9.61537 67.4269 9.47526H67.7832C67.8716 9.60927 67.9112 9.62146 67.9355 9.83162C67.9569 10.0235 67.9873 10.0844 67.9873 10.2885H70.3813C70.5001 10.2885 70.5336 10.2519 70.5336 10.1362V5.70458H67.9873C67.9873 6.85588 67.2746 6.5909 67.2746 6.11271C67.2746 5.42741 67.1101 4.27915 67.7832 4.27915H70.5336C71.5356 4.27915 71.2981 6.17667 71.2981 6.97771H74.2525V1.37652H66.4096C66.0471 1.37652 65.7822 1.51053 65.5415 1.62932C65.3558 1.72373 65.3679 1.72678 65.2248 1.87298C65.0999 1.99786 65.0299 2.01918 64.9842 2.19279H64.8837C64.8471 2.05573 64.7679 1.93999 64.6613 1.8547C64.5456 1.76333 64.4542 1.69328 64.3354 1.62018C63.7263 1.23641 61.9201 1.37652 61.0125 1.37652V4.17864L61.0094 4.17559Z" fill="black"/>
<path fill-rule="evenodd" clip-rule="evenodd" d="M14.619 4.17566C16.5927 4.17566 16.4008 4.26399 16.4008 6.51787C16.4008 7.20012 16.1206 7.67222 15.5297 7.88542L15.3104 7.97375C15.3043 7.9768 15.2891 7.98898 15.28 7.99507C15.5358 8.05599 15.9348 8.23874 16.0749 8.42148C16.5318 9.01236 16.3978 9.9596 16.3978 10.8459C16.3978 11.9637 15.4079 11.7627 14.616 11.7627V14.6136H16.7024C17.5521 14.6136 18.1887 14.3059 18.4841 13.7486C18.5755 13.8156 18.6913 13.9831 18.8009 14.0927C18.9227 14.2146 19.0172 14.2907 19.1786 14.379C19.4375 14.5191 19.9309 14.6166 20.3177 14.6166H27.8042V9.01541H24.8498C24.8498 9.72203 24.9778 11.0256 24.6092 11.4246C24.4661 11.58 24.2133 11.714 23.933 11.714H21.5908C21.3198 11.714 21.1553 11.6774 21.0152 11.5251C20.7472 11.2327 20.8263 10.4774 20.8263 9.98092C20.8263 9.75554 20.9025 9.61848 20.9786 9.47228H21.335C21.536 9.77077 21.5391 9.87737 21.5391 10.2885H24.0853V5.70464H21.5391C21.5391 6.87422 20.8263 6.70061 20.8263 5.90871C20.8263 5.31478 20.6923 4.27921 21.335 4.27921H24.0336C24.5757 4.27921 24.8498 4.7574 24.8498 5.29651V6.97778H27.8042V1.37658H19.9613C19.3948 1.37658 18.7826 1.72685 18.5359 2.18981C18.3989 2.09843 18.3836 2.0162 18.2709 1.89436C18.0029 1.61111 17.4912 1.37354 17.0587 1.37354H14.6129V4.17566H14.619Z" fill="black"/>
<path fill-rule="evenodd" clip-rule="evenodd" d="M2.92021 14.617C3.59942 14.5378 4.18725 14.3154 4.48574 13.752C4.74463 13.9408 4.95479 14.5957 6.23707 14.617H6.44723C7.27873 14.6139 8.11022 14.617 8.93868 14.617H8.98132H9.02396H9.0666V11.7143C7.03506 11.7143 6.8249 11.9397 6.8249 10.493C6.8249 9.99652 6.79749 9.81378 6.97719 9.4757H7.33355C7.53457 9.77418 7.53762 9.69499 7.53762 10.292H10.0839V5.70806H7.53762C7.53762 5.91517 7.52848 6.07355 7.48888 6.21975C7.37314 6.65834 6.81881 6.74972 6.8249 5.75984C6.83404 4.02679 6.81272 4.28263 8.86253 4.28263C9.87983 4.28263 10.4189 4.10293 10.7296 4.75777C10.9733 5.27251 10.8484 6.28676 10.8484 6.9812H13.8028V1.38H6.21575C5.71015 1.38 5.50608 1.41959 5.1619 1.5993C4.90606 1.73331 4.60453 1.94956 4.53447 2.245L4.43092 2.09271C4.37305 2.00134 4.37609 2.01048 4.29386 1.92519C3.97405 1.5993 3.52632 1.37695 3.00853 1.37695C2.21054 1.37695 1.41254 1.37695 0.614548 1.37695V4.17908C1.17802 4.17908 1.77499 4.11816 2.10394 4.37096C2.45116 4.63899 2.39633 5.16286 2.39633 5.75679C2.39633 6.88982 2.49075 7.53248 1.44605 7.91321L1.27548 7.99544C2.49684 8.2787 2.39633 9.2168 2.39633 10.1854C2.39633 11.8027 2.2745 11.7631 0.614548 11.7631V14.6139H2.92021V14.617Z" fill="black"/>
</g>
<defs>
<clipPath id="clip0_1233_3787">
<rect width="107.042" height="14.1568" fill="white" transform="translate(0.613953 0.459961)"/>
</clipPath>
</defs>
</svg>
