<svg width="127" height="40" viewBox="0 0 127 40" fill="none" xmlns="http://www.w3.org/2000/svg">
<g clip-path="url(#clip0_1233_3345)">
<path d="M109.162 24.9361C109.162 25.027 109.161 25.0696 109.162 25.1129C109.164 25.198 109.216 25.2545 109.291 25.2472C109.746 25.198 110.197 25.1232 110.631 24.9698C110.902 24.8744 111.159 24.7497 111.392 24.5795C111.567 24.4518 111.721 24.3028 111.836 24.1179C112.035 23.7988 112.179 23.4554 112.223 23.0804C112.275 22.6461 112.126 22.2931 111.756 22.0451C111.582 21.9292 111.401 21.8624 111.191 21.9483C111.126 21.9747 111.051 21.9769 110.983 21.9974C110.216 22.2227 109.675 22.6872 109.435 23.4671C109.431 23.4811 109.426 23.4943 109.422 23.5082C109.269 23.9888 109.205 24.4848 109.162 24.9368V24.9361ZM101.329 22.8324C101.329 22.7327 101.33 22.561 101.329 22.3893C101.328 22.2887 101.285 22.2249 101.196 22.1934C100.855 22.0723 100.501 22.0305 100.142 22.0349C99.6852 22.0415 99.3176 22.2249 99.0197 22.5727C98.6815 22.9667 98.4012 23.393 98.1972 23.8721C97.8978 24.5743 97.8237 25.3088 97.8876 26.0587C97.9213 26.4578 98.1025 26.8063 98.4107 27.0617C99.0329 27.5782 99.7322 27.78 100.527 27.5188C101.137 27.3185 101.651 26.9626 102.125 26.5422C102.185 26.4886 102.184 26.4182 102.157 26.3456C101.932 25.7278 101.729 25.1026 101.548 24.4701C101.401 23.958 101.31 23.4392 101.33 22.8332L101.329 22.8324ZM103.05 18.8571C103.046 18.8571 103.044 18.8571 103.04 18.8571C103.054 19.3582 103.055 19.8601 103.085 20.3598C103.129 21.103 103.137 21.8478 103.205 22.5903C103.256 23.1465 103.283 23.7041 103.323 24.261C103.328 24.3322 103.339 24.4034 103.352 24.4738C103.357 24.5002 103.373 24.5259 103.388 24.5494C103.394 24.5604 103.408 24.5714 103.419 24.5721C103.432 24.5729 103.451 24.5655 103.457 24.5552C103.499 24.4819 103.543 24.4085 103.579 24.3307C104.358 22.6659 104.952 20.9372 105.35 19.1425C105.482 18.5423 105.581 17.9348 105.653 17.3221C105.701 16.9083 105.713 16.4937 105.75 16.0806C105.807 15.4357 105.773 14.7922 105.709 14.1509C105.681 13.8662 105.62 13.5852 105.532 13.3122C105.471 13.1215 105.397 12.9329 105.275 12.7715C105.206 12.6812 105.127 12.5976 105.039 12.5257C104.893 12.4061 104.724 12.3987 104.553 12.4706C104.407 12.5323 104.277 12.6211 104.162 12.7319C104.028 12.8625 103.915 13.0099 103.819 13.1706C103.672 13.4179 103.563 13.6813 103.473 13.9543C103.293 14.5016 103.2 15.0673 103.151 15.6374C103.099 16.2508 103.044 16.8642 103.048 17.4813C103.051 17.9392 103.049 18.3977 103.049 18.8563L103.05 18.8571ZM107.899 27.5482C107.822 27.6208 107.75 27.6898 107.678 27.758C107.221 28.1902 106.691 28.4925 106.08 28.6421C105.604 28.7588 105.124 28.8175 104.633 28.7126C104.405 28.6642 104.193 28.5849 103.991 28.4778C103.762 28.356 103.555 28.2019 103.364 28.0265C103.143 27.8218 102.937 27.6024 102.757 27.3596C102.68 27.2569 102.602 27.1556 102.516 27.0426C102.476 27.0705 102.439 27.0866 102.415 27.1145C102.36 27.1798 102.311 27.2503 102.259 27.32C101.611 28.2012 100.717 28.717 99.6867 29.0112C99.2406 29.1389 98.782 29.1514 98.3256 29.0332C97.812 28.9004 97.371 28.648 97.0247 28.2423C96.9227 28.1227 96.8346 27.9913 96.7363 27.8688C96.7121 27.8387 96.6703 27.8233 96.6285 27.7954C96.5323 27.8886 96.4414 27.9789 96.3475 28.0669C96.0862 28.3142 95.8038 28.5321 95.4941 28.7177C94.9761 29.0281 94.4097 29.1638 93.8146 29.1778C93.5879 29.1829 93.3575 29.1433 93.1337 29.0978C92.8916 29.0486 92.6839 28.918 92.4953 28.7573C92.0933 28.4132 91.8137 27.9847 91.6361 27.4902C91.529 27.1938 91.4659 26.8856 91.4234 26.5708C91.3478 26.011 91.3727 25.4541 91.4432 24.8979C91.4938 24.4988 91.6061 24.1128 91.7293 23.7305C91.7645 23.6212 91.8056 23.5148 91.8423 23.4055C91.8555 23.3666 91.8225 23.2741 91.7829 23.2529C91.6956 23.2052 91.6097 23.1472 91.5165 23.1215C91.3514 23.0753 91.1812 23.0504 91.0125 23.0151C90.8584 22.9836 90.7028 22.9572 90.5509 22.9154C90.4123 22.8779 90.2795 22.8236 90.1907 22.6974C90.1665 22.6622 90.1151 22.6417 90.0799 22.6718C90.052 22.6952 90.0307 22.7444 90.0322 22.7811C90.0439 23.0687 90.0241 23.3527 89.986 23.6381C89.9397 23.9829 89.8444 24.3116 89.6844 24.6191C89.5391 24.8986 89.3843 25.1738 89.22 25.4423C88.8303 26.0792 88.385 26.6772 87.9176 27.2583C87.8097 27.3926 87.7033 27.5283 87.5911 27.6582C87.4509 27.8211 87.31 27.9833 87.1611 28.1388C86.6621 28.6612 86.0502 28.9951 85.3554 29.1682C84.6312 29.348 83.9635 29.2233 83.3802 28.7317C83.2224 28.5989 83.1065 28.4411 83.0316 28.2503C82.871 27.8402 82.8717 27.8424 82.824 27.8563C82.6721 27.9018 82.6163 28.0442 82.5261 28.1505C82.4329 28.2613 82.3258 28.3545 82.2032 28.4316C81.7498 28.717 81.2567 28.9122 80.7336 29.0149C80.3352 29.0927 79.9338 29.0457 79.5457 28.921C79.2712 28.8322 79.0144 28.7082 78.7789 28.5402C78.368 28.2459 78.1486 27.8431 78.0987 27.3464C78.0474 26.8276 78.0907 26.3147 78.2235 25.8114C78.4319 25.0175 78.7334 24.261 79.1465 23.5508C79.3057 23.2778 79.4826 23.0173 79.6836 22.773C80.0629 22.3108 80.523 21.9571 81.066 21.704C81.5495 21.478 82.0587 21.3386 82.5782 21.2322C82.634 21.2204 82.6919 21.2204 82.7491 21.2168C82.8357 21.2109 82.9186 21.2212 82.9986 21.263C83.3413 21.4413 83.6861 21.6152 84.0295 21.7935C84.1271 21.8441 84.1381 21.9021 84.0721 22.0041C83.9943 22.1244 83.9128 22.2418 83.8307 22.3599C83.8021 22.401 83.7221 22.4179 83.6744 22.3966C83.6091 22.3673 83.546 22.3335 83.4792 22.3064C83.3339 22.2469 83.1879 22.1882 83.0412 22.1325C82.7154 22.0077 82.3771 21.9674 82.0294 21.9791C81.6229 21.993 81.2787 22.1442 80.9867 22.4208C80.8297 22.5698 80.7042 22.7451 80.5883 22.9264C80.4327 23.1685 80.3065 23.4253 80.1921 23.6887C79.969 24.2023 79.8039 24.7357 79.6601 25.2765C79.6124 25.4577 79.6044 25.6404 79.6234 25.8305C79.6543 26.132 79.7108 26.4263 79.8127 26.7102C79.8656 26.8584 79.9301 27.0037 80.0072 27.1395C80.1891 27.4601 80.4709 27.6296 80.8356 27.6861C81.3565 27.7668 81.8312 27.6633 82.2693 27.3772C82.5173 27.215 82.7022 27.0015 82.7895 26.7146C82.8651 26.4681 82.9363 26.2208 83.003 25.9714C83.0698 25.7219 83.1263 25.471 83.1894 25.2207C83.2716 24.8957 83.4212 24.6044 83.6296 24.3439C83.7463 24.1972 83.8776 24.0651 84.0523 23.9851C84.1058 23.9609 84.1616 23.9543 84.2173 23.9763C84.2291 23.9815 84.2394 23.9961 84.2452 24.0086C84.2496 24.0196 84.2504 24.0358 84.246 24.0468C83.9767 24.7534 84.0046 25.4798 84.097 26.2113C84.1388 26.5429 84.2548 26.8504 84.4045 27.1453C84.483 27.2994 84.5842 27.4388 84.7082 27.5599C84.8792 27.7264 85.0839 27.8292 85.3216 27.8343C86.2879 27.8563 87.0885 27.521 87.6534 26.7117C87.7752 26.5363 87.8787 26.3441 87.9638 26.1482C88.2632 25.4607 88.4503 24.7424 88.5214 23.9939C88.528 23.9228 88.5317 23.8509 88.5427 23.7797C88.6088 23.3336 88.5618 22.8933 88.4715 22.4553C88.4136 22.175 88.3512 21.8947 88.2969 21.6137C88.2778 21.5161 88.2676 21.4149 88.2676 21.3151C88.2676 21.0311 88.4451 20.8301 88.7313 20.7861C88.9309 20.7552 89.1304 20.7464 89.3388 20.8103C89.3828 20.8917 89.4305 20.979 89.4768 21.0671C89.7497 21.5866 90.187 21.8771 90.7542 21.9879C91.0785 22.051 91.4043 22.0921 91.7359 22.0855C91.9509 22.0811 92.1659 22.0811 92.3816 22.0804C92.6436 22.0796 92.8916 22.1471 93.1322 22.2433C93.5108 22.3937 93.6847 22.6402 93.6348 23.1318C93.6194 23.2874 93.5761 23.4414 93.5306 23.5919C93.3817 24.0871 93.2636 24.589 93.188 25.0989C93.1139 25.5972 93.0926 26.099 93.1586 26.5994C93.1806 26.7682 93.2283 26.9362 93.2841 27.0984C93.4059 27.452 93.6378 27.714 93.9716 27.8901C94.4852 28.1608 95.0091 28.1872 95.5455 27.9693C95.8001 27.8659 96.0217 27.7103 96.2352 27.5386C96.3746 27.4271 96.4377 27.3024 96.3665 27.1292C96.2425 26.1563 96.3614 25.2141 96.7283 24.3036C96.8728 23.944 97.0504 23.6007 97.2499 23.2683C97.5434 22.7789 97.9374 22.3907 98.4166 22.084C98.9287 21.7568 99.4864 21.5389 100.073 21.3907C100.392 21.3099 100.716 21.2512 101.043 21.208C101.1 21.2006 101.142 21.1529 101.147 21.0913C101.172 20.7919 101.196 20.4911 101.222 20.1917C101.26 19.764 101.296 19.3355 101.338 18.907C101.368 18.6076 101.398 18.3082 101.441 18.0103C101.539 17.3294 101.633 16.6485 101.763 15.9728C101.9 15.2691 102.056 14.5706 102.279 13.889C102.412 13.4788 102.581 13.084 102.81 12.7179C103.049 12.3378 103.336 12.0018 103.706 11.742C103.919 11.5931 104.143 11.472 104.395 11.3994C105.03 11.2145 105.583 11.3649 106.067 11.7978C106.295 12.0011 106.455 12.2557 106.587 12.5293C106.743 12.8544 106.848 13.197 106.912 13.55C107.038 14.2433 107.074 14.9433 107.046 15.6484C107.006 16.672 106.805 17.6662 106.53 18.6487C106.155 19.99 105.649 21.2835 105.079 22.5522C104.667 23.4671 104.221 24.3652 103.738 25.245C103.689 25.333 103.639 25.4196 103.594 25.5091C103.567 25.5612 103.559 25.6199 103.588 25.6749C103.904 26.2759 104.287 26.8262 104.808 27.2701C104.917 27.3625 105.039 27.4403 105.157 27.521C105.509 27.7617 105.904 27.8086 106.31 27.7389C106.736 27.6655 107.137 27.5115 107.513 27.2972C107.579 27.2598 107.612 27.1886 107.601 27.116C107.569 26.9186 107.539 26.7198 107.504 26.5224C107.411 25.9956 107.42 25.4658 107.45 24.9353C107.465 24.6477 107.53 24.3659 107.631 24.0974C108.033 23.0269 108.706 22.1787 109.714 21.6159C110.286 21.296 110.899 21.1162 111.559 21.1192C111.702 21.1199 111.846 21.1258 111.989 21.1287C112.524 21.139 112.954 21.3657 113.305 21.759C113.487 21.9637 113.62 22.2 113.746 22.4428C113.914 22.7679 113.94 23.0966 113.832 23.4414C113.797 23.5508 113.769 23.6623 113.729 23.7687C113.535 24.286 113.196 24.6778 112.712 24.9463C112.422 25.107 112.115 25.2251 111.798 25.3169C111.344 25.4482 110.883 25.5451 110.413 25.6089C110.115 25.65 109.817 25.683 109.516 25.7043C109.374 25.7146 109.233 25.7446 109.092 25.771C109.075 25.7747 109.053 25.8129 109.053 25.8356C109.054 25.8774 109.062 25.9222 109.08 25.9604C109.331 26.4989 109.663 26.9795 110.11 27.3757C110.414 27.6457 110.757 27.846 111.15 27.9612C111.415 28.039 111.685 28.0603 111.957 28.0552C113.14 28.0317 114.2 27.6421 115.153 26.9502C115.246 26.8827 115.331 26.8063 115.419 26.7322C115.477 26.6831 115.507 26.6178 115.5 26.5422C115.467 26.1276 115.425 25.7138 115.4 25.2993C115.336 24.2691 115.278 23.2375 115.349 22.2051C115.359 22.0613 115.381 21.9219 115.433 21.7861C115.537 21.5139 115.728 21.332 115.996 21.2314C116.299 21.117 116.612 21.1126 116.929 21.1676C116.999 21.1801 117.068 21.2006 117.137 21.219C117.214 21.2388 117.252 21.2916 117.248 21.376C117.244 21.4479 117.243 21.5198 117.232 21.5902C117.131 22.2278 117.089 22.8721 117.018 23.5126C117.002 23.655 116.996 23.798 116.988 23.9418C116.971 24.228 116.957 24.5142 116.94 24.8011C116.915 25.245 116.913 25.6896 116.949 26.1335C116.966 26.3338 116.968 26.5349 116.99 26.7344C117.016 26.9758 117.056 27.2165 117.091 27.4572C117.096 27.4917 117.12 27.5093 117.152 27.5027C117.178 27.4968 117.218 27.4887 117.225 27.4704C117.27 27.3654 117.31 27.2576 117.346 27.1497C117.576 26.4564 117.824 25.7696 118.103 25.0938C118.483 24.1766 118.965 23.3152 119.511 22.4891C119.753 22.1244 120.082 21.8485 120.459 21.6299C120.52 21.5946 120.59 21.5741 120.654 21.5411C120.826 21.4516 120.989 21.4897 121.146 21.577C121.327 21.6783 121.455 21.8309 121.539 22.0195C121.657 22.2865 121.699 22.5705 121.693 22.8589C121.681 23.3336 121.727 23.8024 121.779 24.2728C121.831 24.7431 121.896 25.2105 121.975 25.6771C122.047 26.1012 122.14 26.5209 122.259 26.934C122.321 27.1549 122.402 27.3699 122.513 27.5716C122.61 27.7492 122.728 27.9099 122.886 28.0398C123.069 28.1902 123.273 28.2753 123.513 28.2834C123.777 28.2922 124.023 28.2379 124.265 28.1344C124.516 28.0265 124.75 27.8879 124.971 27.7301C125.24 27.5386 125.49 27.3236 125.726 27.0925C125.798 27.0228 125.869 26.9516 125.945 26.8856C125.958 26.8738 125.991 26.8819 126.013 26.8871C126.019 26.8885 126.025 26.912 126.023 26.9252C126.02 26.9531 126.017 26.9832 126.006 27.0081C125.816 27.4286 125.582 27.8211 125.278 28.1696C124.913 28.5886 124.482 28.91 123.941 29.067C123.455 29.2079 122.982 29.1924 122.519 28.9709C122.192 28.8146 121.908 28.6003 121.638 28.3626C121.343 28.1029 121.115 27.7984 120.964 27.4315C120.765 26.9524 120.619 26.46 120.529 25.9501C120.412 25.286 120.342 24.6161 120.289 23.944C120.275 23.7584 120.278 23.572 120.274 23.3849C120.272 23.2991 120.273 23.2132 120.264 23.1274C120.26 23.0878 120.245 23.046 120.196 23.0283C120.138 23.0071 120.079 23.0041 120.032 23.0357C119.986 23.0665 119.947 23.1142 119.918 23.1619C119.74 23.4561 119.553 23.7459 119.392 24.049C119.183 24.4408 118.988 24.8399 118.803 25.2442C118.285 26.3778 117.807 27.5291 117.336 28.6825C117.32 28.7221 117.298 28.761 117.29 28.8028C117.202 29.2651 116.414 29.3502 116.122 28.9819C116.013 28.8439 115.932 28.6935 115.888 28.527C115.839 28.3472 115.79 28.1674 115.783 27.9789C115.778 27.8211 115.766 27.6641 115.753 27.5071C115.747 27.4506 115.734 27.3941 115.722 27.3383C115.7 27.2429 115.592 27.2011 115.524 27.2635C115.45 27.331 115.379 27.4021 115.307 27.4718C115.029 27.7419 114.734 27.9913 114.423 28.2232C113.79 28.6942 113.071 28.9599 112.306 29.1235C111.852 29.2203 111.396 29.2284 110.937 29.2079C110.521 29.1888 110.112 29.1169 109.712 29.0002C109.083 28.8168 108.595 28.4301 108.199 27.918C108.13 27.8277 108.07 27.7287 108.001 27.6369C107.978 27.6054 107.941 27.5826 107.901 27.5482H107.899Z" fill="black"/>
<path d="M109.162 24.9361C109.162 25.027 109.161 25.0696 109.162 25.1129C109.164 25.198 109.216 25.2545 109.291 25.2472C109.746 25.198 110.197 25.1232 110.631 24.9698C110.902 24.8744 111.159 24.7497 111.392 24.5795C111.567 24.4518 111.721 24.3028 111.836 24.1179C112.035 23.7988 112.179 23.4554 112.223 23.0804C112.275 22.6461 112.126 22.2931 111.756 22.0451C111.582 21.9292 111.401 21.8624 111.191 21.9483C111.126 21.9747 111.051 21.9769 110.983 21.9974C110.216 22.2227 109.675 22.6872 109.435 23.4671C109.431 23.4811 109.426 23.4943 109.422 23.5082C109.269 23.9888 109.205 24.4848 109.162 24.9368V24.9361ZM101.329 22.8324C101.329 22.7327 101.33 22.561 101.329 22.3893C101.328 22.2887 101.285 22.2249 101.196 22.1934C100.855 22.0723 100.501 22.0305 100.142 22.0349C99.6852 22.0415 99.3176 22.2249 99.0197 22.5727C98.6815 22.9667 98.4012 23.393 98.1972 23.8721C97.8978 24.5743 97.8237 25.3088 97.8876 26.0587C97.9213 26.4578 98.1025 26.8063 98.4107 27.0617C99.0329 27.5782 99.7322 27.78 100.527 27.5188C101.137 27.3185 101.651 26.9626 102.125 26.5422C102.185 26.4886 102.184 26.4182 102.157 26.3456C101.932 25.7278 101.729 25.1026 101.548 24.4701C101.401 23.958 101.31 23.4392 101.33 22.8332L101.329 22.8324ZM103.05 18.8571C103.046 18.8571 103.044 18.8571 103.04 18.8571C103.054 19.3582 103.055 19.8601 103.085 20.3598C103.129 21.103 103.137 21.8478 103.205 22.5903C103.256 23.1465 103.283 23.7041 103.323 24.261C103.328 24.3322 103.339 24.4034 103.352 24.4738C103.357 24.5002 103.373 24.5259 103.388 24.5494C103.394 24.5604 103.408 24.5714 103.419 24.5721C103.432 24.5729 103.451 24.5655 103.457 24.5552C103.499 24.4819 103.543 24.4085 103.579 24.3307C104.358 22.6659 104.952 20.9372 105.35 19.1425C105.482 18.5423 105.581 17.9348 105.653 17.3221C105.701 16.9083 105.713 16.4937 105.75 16.0806C105.807 15.4357 105.773 14.7922 105.709 14.1509C105.681 13.8662 105.62 13.5852 105.532 13.3122C105.471 13.1215 105.397 12.9329 105.275 12.7715C105.206 12.6812 105.127 12.5976 105.039 12.5257C104.893 12.4061 104.724 12.3987 104.553 12.4706C104.407 12.5323 104.277 12.6211 104.162 12.7319C104.028 12.8625 103.915 13.0099 103.819 13.1706C103.672 13.4179 103.563 13.6813 103.473 13.9543C103.293 14.5016 103.2 15.0673 103.151 15.6374C103.099 16.2508 103.044 16.8642 103.048 17.4813C103.051 17.9392 103.049 18.3977 103.049 18.8563L103.05 18.8571ZM107.899 27.5482C107.822 27.6208 107.75 27.6898 107.678 27.758C107.221 28.1902 106.691 28.4925 106.08 28.6421C105.604 28.7588 105.124 28.8175 104.633 28.7126C104.405 28.6642 104.193 28.5849 103.991 28.4778C103.762 28.356 103.555 28.2019 103.364 28.0265C103.143 27.8218 102.937 27.6024 102.757 27.3596C102.68 27.2569 102.602 27.1556 102.516 27.0426C102.476 27.0705 102.439 27.0866 102.415 27.1145C102.36 27.1798 102.311 27.2503 102.259 27.32C101.611 28.2012 100.717 28.717 99.6867 29.0112C99.2406 29.1389 98.782 29.1514 98.3256 29.0332C97.812 28.9004 97.371 28.648 97.0247 28.2423C96.9227 28.1227 96.8346 27.9913 96.7363 27.8688C96.7121 27.8387 96.6703 27.8233 96.6285 27.7954C96.5323 27.8886 96.4414 27.9789 96.3475 28.0669C96.0862 28.3142 95.8038 28.5321 95.4941 28.7177C94.9761 29.0281 94.4097 29.1638 93.8146 29.1778C93.5879 29.1829 93.3575 29.1433 93.1337 29.0978C92.8916 29.0486 92.6839 28.918 92.4953 28.7573C92.0933 28.4132 91.8137 27.9847 91.6361 27.4902C91.529 27.1938 91.4659 26.8856 91.4234 26.5708C91.3478 26.011 91.3727 25.4541 91.4432 24.8979C91.4938 24.4988 91.6061 24.1128 91.7293 23.7305C91.7645 23.6212 91.8056 23.5148 91.8423 23.4055C91.8555 23.3666 91.8225 23.2741 91.7829 23.2529C91.6956 23.2052 91.6097 23.1472 91.5165 23.1215C91.3514 23.0753 91.1812 23.0504 91.0125 23.0151C90.8584 22.9836 90.7028 22.9572 90.5509 22.9154C90.4123 22.8779 90.2795 22.8236 90.1907 22.6974C90.1665 22.6622 90.1151 22.6417 90.0799 22.6718C90.052 22.6952 90.0307 22.7444 90.0322 22.7811C90.0439 23.0687 90.0241 23.3527 89.986 23.6381C89.9397 23.9829 89.8444 24.3116 89.6844 24.6191C89.5391 24.8986 89.3843 25.1738 89.22 25.4423C88.8303 26.0792 88.385 26.6772 87.9176 27.2583C87.8097 27.3926 87.7033 27.5283 87.5911 27.6582C87.4509 27.8211 87.31 27.9833 87.1611 28.1388C86.6621 28.6612 86.0502 28.9951 85.3554 29.1682C84.6312 29.348 83.9635 29.2233 83.3802 28.7317C83.2224 28.5989 83.1065 28.4411 83.0316 28.2503C82.871 27.8402 82.8717 27.8424 82.824 27.8563C82.6721 27.9018 82.6163 28.0442 82.5261 28.1505C82.4329 28.2613 82.3258 28.3545 82.2032 28.4316C81.7498 28.717 81.2567 28.9122 80.7336 29.0149C80.3352 29.0927 79.9338 29.0457 79.5457 28.921C79.2712 28.8322 79.0144 28.7082 78.7789 28.5402C78.368 28.2459 78.1486 27.8431 78.0987 27.3464C78.0474 26.8276 78.0907 26.3147 78.2235 25.8114C78.4319 25.0175 78.7334 24.261 79.1465 23.5508C79.3057 23.2778 79.4826 23.0173 79.6836 22.773C80.0629 22.3108 80.523 21.9571 81.066 21.704C81.5495 21.478 82.0587 21.3386 82.5782 21.2322C82.634 21.2204 82.6919 21.2204 82.7491 21.2168C82.8357 21.2109 82.9186 21.2212 82.9986 21.263C83.3413 21.4413 83.6861 21.6152 84.0295 21.7935C84.1271 21.8441 84.1381 21.9021 84.0721 22.0041C83.9943 22.1244 83.9128 22.2418 83.8307 22.3599C83.8021 22.401 83.7221 22.4179 83.6744 22.3966C83.6091 22.3673 83.546 22.3335 83.4792 22.3064C83.3339 22.2469 83.1879 22.1882 83.0412 22.1325C82.7154 22.0077 82.3771 21.9674 82.0294 21.9791C81.6229 21.993 81.2787 22.1442 80.9867 22.4208C80.8297 22.5698 80.7042 22.7451 80.5883 22.9264C80.4327 23.1685 80.3065 23.4253 80.1921 23.6887C79.969 24.2023 79.8039 24.7357 79.6601 25.2765C79.6124 25.4577 79.6044 25.6404 79.6234 25.8305C79.6543 26.132 79.7108 26.4263 79.8127 26.7102C79.8656 26.8584 79.9301 27.0037 80.0072 27.1395C80.1891 27.4601 80.4709 27.6296 80.8356 27.6861C81.3565 27.7668 81.8312 27.6633 82.2693 27.3772C82.5173 27.215 82.7022 27.0015 82.7895 26.7146C82.8651 26.4681 82.9363 26.2208 83.003 25.9714C83.0698 25.7219 83.1263 25.471 83.1894 25.2207C83.2716 24.8957 83.4212 24.6044 83.6296 24.3439C83.7463 24.1972 83.8776 24.0651 84.0523 23.9851C84.1058 23.9609 84.1616 23.9543 84.2173 23.9763C84.2291 23.9815 84.2394 23.9961 84.2452 24.0086C84.2496 24.0196 84.2504 24.0358 84.246 24.0468C83.9767 24.7534 84.0046 25.4798 84.097 26.2113C84.1388 26.5429 84.2548 26.8504 84.4045 27.1453C84.483 27.2994 84.5842 27.4388 84.7082 27.5599C84.8792 27.7264 85.0839 27.8292 85.3216 27.8343C86.2879 27.8563 87.0885 27.521 87.6534 26.7117C87.7752 26.5363 87.8787 26.3441 87.9638 26.1482C88.2632 25.4607 88.4503 24.7424 88.5214 23.9939C88.528 23.9228 88.5317 23.8509 88.5427 23.7797C88.6088 23.3336 88.5618 22.8933 88.4715 22.4553C88.4136 22.175 88.3512 21.8947 88.2969 21.6137C88.2778 21.5161 88.2676 21.4149 88.2676 21.3151C88.2676 21.0311 88.4451 20.8301 88.7313 20.7861C88.9309 20.7552 89.1304 20.7464 89.3388 20.8103C89.3828 20.8917 89.4305 20.979 89.4768 21.0671C89.7497 21.5866 90.187 21.8771 90.7542 21.9879C91.0785 22.051 91.4043 22.0921 91.7359 22.0855C91.9509 22.0811 92.1659 22.0811 92.3816 22.0804C92.6436 22.0796 92.8916 22.1471 93.1322 22.2433C93.5108 22.3937 93.6847 22.6402 93.6348 23.1318C93.6194 23.2874 93.5761 23.4414 93.5306 23.5919C93.3817 24.0871 93.2636 24.589 93.188 25.0989C93.1139 25.5972 93.0926 26.099 93.1586 26.5994C93.1806 26.7682 93.2283 26.9362 93.2841 27.0984C93.4059 27.452 93.6378 27.714 93.9716 27.8901C94.4852 28.1608 95.0091 28.1872 95.5455 27.9693C95.8001 27.8659 96.0217 27.7103 96.2352 27.5386C96.3746 27.4271 96.4377 27.3024 96.3665 27.1292C96.2425 26.1563 96.3614 25.2141 96.7283 24.3036C96.8728 23.944 97.0504 23.6007 97.2499 23.2683C97.5434 22.7789 97.9374 22.3907 98.4166 22.084C98.9287 21.7568 99.4864 21.5389 100.073 21.3907C100.392 21.3099 100.716 21.2512 101.043 21.208C101.1 21.2006 101.142 21.1529 101.147 21.0913C101.172 20.7919 101.196 20.4911 101.222 20.1917C101.26 19.764 101.296 19.3355 101.338 18.907C101.368 18.6076 101.398 18.3082 101.441 18.0103C101.539 17.3294 101.633 16.6485 101.763 15.9728C101.9 15.2691 102.056 14.5706 102.279 13.889C102.412 13.4788 102.581 13.084 102.81 12.7179C103.049 12.3378 103.336 12.0018 103.706 11.742C103.919 11.5931 104.143 11.472 104.395 11.3994C105.03 11.2145 105.583 11.3649 106.067 11.7978C106.295 12.0011 106.455 12.2557 106.587 12.5293C106.743 12.8544 106.848 13.197 106.912 13.55C107.038 14.2433 107.074 14.9433 107.046 15.6484C107.006 16.672 106.805 17.6662 106.53 18.6487C106.155 19.99 105.649 21.2835 105.079 22.5522C104.667 23.4671 104.221 24.3652 103.738 25.245C103.689 25.333 103.639 25.4196 103.594 25.5091C103.567 25.5612 103.559 25.6199 103.588 25.6749C103.904 26.2759 104.287 26.8262 104.808 27.2701C104.917 27.3625 105.039 27.4403 105.157 27.521C105.509 27.7617 105.904 27.8086 106.31 27.7389C106.736 27.6655 107.137 27.5115 107.513 27.2972C107.579 27.2598 107.612 27.1886 107.601 27.116C107.569 26.9186 107.539 26.7198 107.504 26.5224C107.411 25.9956 107.42 25.4658 107.45 24.9353C107.465 24.6477 107.53 24.3659 107.631 24.0974C108.033 23.0269 108.706 22.1787 109.714 21.6159C110.286 21.296 110.899 21.1162 111.559 21.1192C111.702 21.1199 111.846 21.1258 111.989 21.1287C112.524 21.139 112.954 21.3657 113.305 21.759C113.487 21.9637 113.62 22.2 113.746 22.4428C113.914 22.7679 113.94 23.0966 113.832 23.4414C113.797 23.5508 113.769 23.6623 113.729 23.7687C113.535 24.286 113.196 24.6778 112.712 24.9463C112.422 25.107 112.115 25.2251 111.798 25.3169C111.344 25.4482 110.883 25.5451 110.413 25.6089C110.115 25.65 109.817 25.683 109.516 25.7043C109.374 25.7146 109.233 25.7446 109.092 25.771C109.075 25.7747 109.053 25.8129 109.053 25.8356C109.054 25.8774 109.062 25.9222 109.08 25.9604C109.331 26.4989 109.663 26.9795 110.11 27.3757C110.414 27.6457 110.757 27.846 111.15 27.9612C111.415 28.039 111.685 28.0603 111.957 28.0552C113.14 28.0317 114.2 27.6421 115.153 26.9502C115.246 26.8827 115.331 26.8063 115.419 26.7322C115.477 26.6831 115.507 26.6178 115.5 26.5422C115.467 26.1276 115.425 25.7138 115.4 25.2993C115.336 24.2691 115.278 23.2375 115.349 22.2051C115.359 22.0613 115.381 21.9219 115.433 21.7861C115.537 21.5139 115.728 21.332 115.996 21.2314C116.299 21.117 116.612 21.1126 116.929 21.1676C116.999 21.1801 117.068 21.2006 117.137 21.219C117.214 21.2388 117.252 21.2916 117.248 21.376C117.244 21.4479 117.243 21.5198 117.232 21.5902C117.131 22.2278 117.089 22.8721 117.018 23.5126C117.002 23.655 116.996 23.798 116.988 23.9418C116.971 24.228 116.957 24.5142 116.94 24.8011C116.915 25.245 116.913 25.6896 116.949 26.1335C116.966 26.3338 116.968 26.5349 116.99 26.7344C117.016 26.9758 117.056 27.2165 117.091 27.4572C117.096 27.4917 117.12 27.5093 117.152 27.5027C117.178 27.4968 117.218 27.4887 117.225 27.4704C117.27 27.3654 117.31 27.2576 117.346 27.1497C117.576 26.4564 117.824 25.7696 118.103 25.0938C118.483 24.1766 118.965 23.3152 119.511 22.4891C119.753 22.1244 120.082 21.8485 120.459 21.6299C120.52 21.5946 120.59 21.5741 120.654 21.5411C120.826 21.4516 120.989 21.4897 121.146 21.577C121.327 21.6783 121.455 21.8309 121.539 22.0195C121.657 22.2865 121.699 22.5705 121.693 22.8589C121.681 23.3336 121.727 23.8024 121.779 24.2728C121.831 24.7431 121.896 25.2105 121.975 25.6771C122.047 26.1012 122.14 26.5209 122.259 26.934C122.321 27.1549 122.402 27.3699 122.513 27.5716C122.61 27.7492 122.728 27.9099 122.886 28.0398C123.069 28.1902 123.273 28.2753 123.513 28.2834C123.777 28.2922 124.023 28.2379 124.265 28.1344C124.516 28.0265 124.75 27.8879 124.971 27.7301C125.24 27.5386 125.49 27.3236 125.726 27.0925C125.798 27.0228 125.869 26.9516 125.945 26.8856C125.958 26.8738 125.991 26.8819 126.013 26.8871C126.019 26.8885 126.025 26.912 126.023 26.9252C126.02 26.9531 126.017 26.9832 126.006 27.0081C125.816 27.4286 125.582 27.8211 125.278 28.1696C124.913 28.5886 124.482 28.91 123.941 29.067C123.455 29.2079 122.982 29.1924 122.519 28.9709C122.192 28.8146 121.908 28.6003 121.638 28.3626C121.343 28.1029 121.115 27.7984 120.964 27.4315C120.765 26.9524 120.619 26.46 120.529 25.9501C120.412 25.286 120.342 24.6161 120.289 23.944C120.275 23.7584 120.278 23.572 120.274 23.3849C120.272 23.2991 120.273 23.2132 120.264 23.1274C120.26 23.0878 120.245 23.046 120.196 23.0283C120.138 23.0071 120.079 23.0041 120.032 23.0357C119.986 23.0665 119.947 23.1142 119.918 23.1619C119.74 23.4561 119.553 23.7459 119.392 24.049C119.183 24.4408 118.988 24.8399 118.803 25.2442C118.285 26.3778 117.807 27.5291 117.336 28.6825C117.32 28.7221 117.298 28.761 117.29 28.8028C117.202 29.2651 116.414 29.3502 116.122 28.9819C116.013 28.8439 115.932 28.6935 115.888 28.527C115.839 28.3472 115.79 28.1674 115.783 27.9789C115.778 27.8211 115.766 27.6641 115.753 27.5071C115.747 27.4506 115.734 27.3941 115.722 27.3383C115.7 27.2429 115.592 27.2011 115.524 27.2635C115.45 27.331 115.379 27.4021 115.307 27.4718C115.029 27.7419 114.734 27.9913 114.423 28.2232C113.79 28.6942 113.071 28.9599 112.306 29.1235C111.852 29.2203 111.396 29.2284 110.937 29.2079C110.521 29.1888 110.112 29.1169 109.712 29.0002C109.083 28.8168 108.595 28.4301 108.199 27.918C108.13 27.8277 108.07 27.7287 108.001 27.6369C107.978 27.6054 107.941 27.5826 107.901 27.5482H107.899Z" fill="black"/>
<path d="M40.5653 24.9513C40.5675 24.999 40.5697 25.0988 40.5807 25.1971C40.5829 25.2184 40.6167 25.2507 40.6379 25.2522C40.7231 25.2573 40.8111 25.2661 40.894 25.2492C41.2726 25.1751 41.6483 25.0922 42.0078 24.9469C42.2206 24.8611 42.4246 24.7598 42.619 24.6388C43.3418 24.1897 43.5978 23.2872 43.5024 22.6269C43.4665 22.3803 43.3557 22.1653 43.173 21.9907C43.1084 21.9291 43.0343 21.8946 42.9433 21.8909C42.7122 21.8821 42.4877 21.9137 42.2676 21.9826C41.55 22.2042 41.0437 22.6393 40.828 23.3804C40.6834 23.8772 40.6005 24.3834 40.566 24.9513H40.5653ZM40.6416 25.7907C40.6299 25.8186 40.6196 25.8311 40.6211 25.8421C40.693 26.2713 40.8566 26.6653 41.0701 27.0417C41.3306 27.4996 41.7107 27.8041 42.2155 27.9567C42.4767 28.036 42.7386 28.1064 43.0145 28.1071C43.3726 28.1079 43.7321 28.124 44.0887 28.0983C44.7094 28.0528 45.2994 27.8826 45.8394 27.5634C46.2283 27.3323 46.5408 27.0234 46.7727 26.6316C46.9855 26.2713 47.1418 25.8868 47.2665 25.4906C47.4353 24.9565 47.5571 24.4106 47.6121 23.8529C47.6664 23.2953 47.6642 22.7355 47.5468 22.183C47.5138 22.0296 47.4565 21.8814 47.4169 21.7288C47.3523 21.4837 47.3582 21.243 47.5028 21.0259C47.6466 20.8094 47.8454 20.6854 48.1169 20.7001C48.2049 20.7052 48.2835 20.7302 48.3598 20.7757C48.5116 20.8674 48.6246 20.9936 48.7068 21.1484C48.7464 21.224 48.7824 21.3032 48.8103 21.3847C48.8991 21.6473 49.1104 21.7574 49.3554 21.8183C49.4941 21.8528 49.6379 21.8697 49.7795 21.8851C50.1354 21.9247 50.4913 21.9592 50.8479 21.9973C51.1325 22.0281 51.418 22.0538 51.7012 22.0949C51.8854 22.1213 52.0644 22.1734 52.2346 22.2534C52.52 22.3877 52.6756 22.6122 52.7035 22.9233C52.7225 23.1383 52.7233 23.354 52.6807 23.566C52.647 23.7341 52.6066 23.9014 52.5611 24.0672C52.4158 24.5925 52.297 25.1238 52.2339 25.6653C52.1899 26.038 52.1774 26.4085 52.2764 26.7754C52.407 27.2582 52.6961 27.6155 53.1327 27.854C53.1951 27.8877 53.264 27.9112 53.3315 27.931C53.7065 28.044 54.0873 28.08 54.4784 28.0257C54.7286 27.9912 54.9436 27.8892 55.1336 27.7285C55.2877 27.5979 55.4161 27.4431 55.5283 27.2758C55.6802 27.0491 55.8064 26.8077 55.9114 26.556C56.177 25.9206 56.3971 25.2705 56.5394 24.5955C56.6194 24.2161 56.6832 23.8353 56.6818 23.4457C56.6796 22.9152 56.6766 22.3847 56.6752 21.8542C56.6744 21.6679 56.6722 21.4815 56.6766 21.2951C56.6781 21.2247 56.6869 21.1499 56.7119 21.0846C56.7926 20.8696 56.9386 20.7243 57.1741 20.6825C57.4815 20.6282 57.7442 20.6957 57.9357 20.9562C58.0458 21.1066 58.1456 21.2643 58.2578 21.4133C58.4303 21.6422 58.6027 21.8711 58.7861 22.0912C59.0195 22.3715 59.3078 22.574 59.6571 22.6966C60.2404 22.9013 60.7826 23.1904 61.3028 23.525C61.7688 23.8243 62.1466 24.2095 62.4702 24.6542C62.5473 24.7606 62.5986 24.875 62.6089 25.0093C62.6206 25.1524 62.6441 25.294 62.6588 25.4363C62.7145 25.9852 62.6617 26.5252 62.5128 27.0542C62.3734 27.5495 62.1092 27.967 61.7005 28.2906C61.2581 28.642 60.7856 28.9311 60.2301 29.0639C59.7165 29.1872 59.2066 29.1769 58.7054 29.0074C58.2498 28.8533 57.8565 28.5958 57.5146 28.259C57.2732 28.022 57.1169 27.7359 57.0391 27.4071C57.0296 27.3653 57.0274 27.3213 57.0281 27.2787C57.0288 27.2523 57.0428 27.2266 57.053 27.1936C57.0919 27.2112 57.1352 27.2215 57.166 27.2472C57.2541 27.3206 57.3348 27.402 57.4214 27.4776C57.7303 27.7476 58.092 27.9134 58.4868 28.0103C58.5146 28.0169 58.544 28.0176 58.5711 28.0242C59.106 28.1614 59.1361 28.1211 59.6373 27.8848C59.7275 27.8423 59.8141 27.7902 59.8992 27.7373C60.3681 27.4468 60.6975 27.052 60.8465 26.5091C60.9264 26.2178 60.9991 25.9265 61.0218 25.6256C61.0695 24.9998 60.8743 24.4656 60.3783 24.0635C60.2118 23.9292 60.0298 23.8133 59.8478 23.6981C59.6784 23.591 59.5015 23.4963 59.3276 23.3966C59.0107 23.2161 58.7384 22.9908 58.5726 22.6548C58.5484 22.6063 58.5044 22.5652 58.4618 22.5293C58.4479 22.5168 58.4002 22.5197 58.3862 22.5337C58.3466 22.5726 58.3033 22.6166 58.285 22.6672C58.2285 22.8286 58.172 22.9923 58.1338 23.1588C58.0451 23.5499 57.9651 23.9425 57.8858 24.3365C57.8088 24.7195 57.662 25.0739 57.4632 25.4107C56.8777 26.4034 56.177 27.3074 55.3816 28.1409C55.1732 28.3595 54.9428 28.5525 54.6919 28.7213C54.3015 28.9839 53.876 29.1329 53.402 29.1314C53.3161 29.1307 53.2296 29.1292 53.1444 29.1336C52.8194 29.1505 52.5215 29.0573 52.2368 28.9135C51.3996 28.4916 50.8897 27.8261 50.7261 26.8972C50.6784 26.6279 50.6497 26.3586 50.6424 26.0857C50.6197 25.2808 50.6637 24.481 50.7972 23.6864C50.8207 23.5462 50.8501 23.4054 50.8266 23.2696C50.7906 23.1852 50.7136 23.172 50.6505 23.1464C50.3056 23.0062 49.9571 22.8756 49.6144 22.7311C49.4772 22.6731 49.3386 22.6606 49.1948 22.6621C49.1206 22.6628 49.0634 22.7134 49.0502 22.7927C49.0135 23.0187 48.9827 23.2461 48.9401 23.4714C48.8235 24.0921 48.6408 24.6953 48.4207 25.2867C48.1191 26.0974 47.6128 26.7659 46.9679 27.3345C46.9253 27.3727 46.8784 27.4057 46.8314 27.4387C46.0911 27.9604 45.3096 28.4087 44.4724 28.755C44.2479 28.8475 44.0146 28.9186 43.7827 28.9927C43.2405 29.1659 42.6843 29.1945 42.1252 29.1153C41.7987 29.0691 41.4854 28.9619 41.1838 28.8262C40.602 28.5642 40.092 28.1996 39.6393 27.7513C39.5161 27.6287 39.4141 27.4915 39.3297 27.3411C39.0377 26.8194 38.874 26.2633 38.8564 25.6623C38.8366 25.0181 38.9797 24.4106 39.2475 23.8295C39.5256 23.2249 39.9093 22.6907 40.3665 22.2086C40.6768 21.8814 41.0554 21.6495 41.4715 21.4822C42.0629 21.2438 42.6799 21.1271 43.3175 21.144C43.6477 21.1528 43.972 21.2086 44.2912 21.2973C44.5047 21.3568 44.6823 21.4698 44.8386 21.6224C45.2781 22.0524 45.5921 22.8712 45.2568 23.6915C45.0785 24.1274 44.8034 24.4847 44.4079 24.7466C44.0704 24.9697 43.702 25.126 43.3197 25.2485C42.8289 25.407 42.3292 25.5317 41.8178 25.6036C41.4773 25.6521 41.1376 25.7034 40.7979 25.7548C40.7429 25.7636 40.6886 25.7797 40.6438 25.79L40.6416 25.7907Z" fill="black"/>
<path d="M40.5653 24.9513C40.5675 24.999 40.5697 25.0988 40.5807 25.1971C40.5829 25.2184 40.6167 25.2507 40.6379 25.2522C40.7231 25.2573 40.8111 25.2661 40.894 25.2492C41.2726 25.1751 41.6483 25.0922 42.0078 24.9469C42.2206 24.8611 42.4246 24.7598 42.619 24.6388C43.3418 24.1897 43.5978 23.2872 43.5024 22.6269C43.4665 22.3803 43.3557 22.1653 43.173 21.9907C43.1084 21.9291 43.0343 21.8946 42.9433 21.8909C42.7122 21.8821 42.4877 21.9137 42.2676 21.9826C41.55 22.2042 41.0437 22.6393 40.828 23.3804C40.6834 23.8772 40.6005 24.3834 40.566 24.9513H40.5653ZM40.6416 25.7907C40.6299 25.8186 40.6196 25.8311 40.6211 25.8421C40.693 26.2713 40.8566 26.6653 41.0701 27.0417C41.3306 27.4996 41.7107 27.8041 42.2155 27.9567C42.4767 28.036 42.7386 28.1064 43.0145 28.1071C43.3726 28.1079 43.7321 28.124 44.0887 28.0983C44.7094 28.0528 45.2994 27.8826 45.8394 27.5634C46.2283 27.3323 46.5408 27.0234 46.7727 26.6316C46.9855 26.2713 47.1418 25.8868 47.2665 25.4906C47.4353 24.9565 47.5571 24.4106 47.6121 23.8529C47.6664 23.2953 47.6642 22.7355 47.5468 22.183C47.5138 22.0296 47.4565 21.8814 47.4169 21.7288C47.3523 21.4837 47.3582 21.243 47.5028 21.0259C47.6466 20.8094 47.8454 20.6854 48.1169 20.7001C48.2049 20.7052 48.2835 20.7302 48.3598 20.7757C48.5116 20.8674 48.6246 20.9936 48.7068 21.1484C48.7464 21.224 48.7824 21.3032 48.8103 21.3847C48.8991 21.6473 49.1104 21.7574 49.3554 21.8183C49.4941 21.8528 49.6379 21.8697 49.7795 21.8851C50.1354 21.9247 50.4913 21.9592 50.8479 21.9973C51.1325 22.0281 51.418 22.0538 51.7012 22.0949C51.8854 22.1213 52.0644 22.1734 52.2346 22.2534C52.52 22.3877 52.6756 22.6122 52.7035 22.9233C52.7225 23.1383 52.7233 23.354 52.6807 23.566C52.647 23.7341 52.6066 23.9014 52.5611 24.0672C52.4158 24.5925 52.297 25.1238 52.2339 25.6653C52.1899 26.038 52.1774 26.4085 52.2764 26.7754C52.407 27.2582 52.6961 27.6155 53.1327 27.854C53.1951 27.8877 53.264 27.9112 53.3315 27.931C53.7065 28.044 54.0873 28.08 54.4784 28.0257C54.7286 27.9912 54.9436 27.8892 55.1336 27.7285C55.2877 27.5979 55.4161 27.4431 55.5283 27.2758C55.6802 27.0491 55.8064 26.8077 55.9114 26.556C56.177 25.9206 56.3971 25.2705 56.5394 24.5955C56.6194 24.2161 56.6832 23.8353 56.6818 23.4457C56.6796 22.9152 56.6766 22.3847 56.6752 21.8542C56.6744 21.6679 56.6722 21.4815 56.6766 21.2951C56.6781 21.2247 56.6869 21.1499 56.7119 21.0846C56.7926 20.8696 56.9386 20.7243 57.1741 20.6825C57.4815 20.6282 57.7442 20.6957 57.9357 20.9562C58.0458 21.1066 58.1456 21.2643 58.2578 21.4133C58.4303 21.6422 58.6027 21.8711 58.7861 22.0912C59.0195 22.3715 59.3078 22.574 59.6571 22.6966C60.2404 22.9013 60.7826 23.1904 61.3028 23.525C61.7688 23.8243 62.1466 24.2095 62.4702 24.6542C62.5473 24.7606 62.5986 24.875 62.6089 25.0093C62.6206 25.1524 62.6441 25.294 62.6588 25.4363C62.7145 25.9852 62.6617 26.5252 62.5128 27.0542C62.3734 27.5495 62.1092 27.967 61.7005 28.2906C61.2581 28.642 60.7856 28.9311 60.2301 29.0639C59.7165 29.1872 59.2066 29.1769 58.7054 29.0074C58.2498 28.8533 57.8565 28.5958 57.5146 28.259C57.2732 28.022 57.1169 27.7359 57.0391 27.4071C57.0296 27.3653 57.0274 27.3213 57.0281 27.2787C57.0288 27.2523 57.0428 27.2266 57.053 27.1936C57.0919 27.2112 57.1352 27.2215 57.166 27.2472C57.2541 27.3206 57.3348 27.402 57.4214 27.4776C57.7303 27.7476 58.092 27.9134 58.4868 28.0103C58.5146 28.0169 58.544 28.0176 58.5711 28.0242C59.106 28.1614 59.1361 28.1211 59.6373 27.8848C59.7275 27.8423 59.8141 27.7902 59.8992 27.7373C60.3681 27.4468 60.6975 27.052 60.8465 26.5091C60.9264 26.2178 60.9991 25.9265 61.0218 25.6256C61.0695 24.9998 60.8743 24.4656 60.3783 24.0635C60.2118 23.9292 60.0298 23.8133 59.8478 23.6981C59.6784 23.591 59.5015 23.4963 59.3276 23.3966C59.0107 23.2161 58.7384 22.9908 58.5726 22.6548C58.5484 22.6063 58.5044 22.5652 58.4618 22.5293C58.4479 22.5168 58.4002 22.5197 58.3862 22.5337C58.3466 22.5726 58.3033 22.6166 58.285 22.6672C58.2285 22.8286 58.172 22.9923 58.1338 23.1588C58.0451 23.5499 57.9651 23.9425 57.8858 24.3365C57.8088 24.7195 57.662 25.0739 57.4632 25.4107C56.8777 26.4034 56.177 27.3074 55.3816 28.1409C55.1732 28.3595 54.9428 28.5525 54.6919 28.7213C54.3015 28.9839 53.876 29.1329 53.402 29.1314C53.3161 29.1307 53.2296 29.1292 53.1444 29.1336C52.8194 29.1505 52.5215 29.0573 52.2368 28.9135C51.3996 28.4916 50.8897 27.8261 50.7261 26.8972C50.6784 26.6279 50.6497 26.3586 50.6424 26.0857C50.6197 25.2808 50.6637 24.481 50.7972 23.6864C50.8207 23.5462 50.8501 23.4054 50.8266 23.2696C50.7906 23.1852 50.7136 23.172 50.6505 23.1464C50.3056 23.0062 49.9571 22.8756 49.6144 22.7311C49.4772 22.6731 49.3386 22.6606 49.1948 22.6621C49.1206 22.6628 49.0634 22.7134 49.0502 22.7927C49.0135 23.0187 48.9827 23.2461 48.9401 23.4714C48.8235 24.0921 48.6408 24.6953 48.4207 25.2867C48.1191 26.0974 47.6128 26.7659 46.9679 27.3345C46.9253 27.3727 46.8784 27.4057 46.8314 27.4387C46.0911 27.9604 45.3096 28.4087 44.4724 28.755C44.2479 28.8475 44.0146 28.9186 43.7827 28.9927C43.2405 29.1659 42.6843 29.1945 42.1252 29.1153C41.7987 29.0691 41.4854 28.9619 41.1838 28.8262C40.602 28.5642 40.092 28.1996 39.6393 27.7513C39.5161 27.6287 39.4141 27.4915 39.3297 27.3411C39.0377 26.8194 38.874 26.2633 38.8564 25.6623C38.8366 25.0181 38.9797 24.4106 39.2475 23.8295C39.5256 23.2249 39.9093 22.6907 40.3665 22.2086C40.6768 21.8814 41.0554 21.6495 41.4715 21.4822C42.0629 21.2438 42.6799 21.1271 43.3175 21.144C43.6477 21.1528 43.972 21.2086 44.2912 21.2973C44.5047 21.3568 44.6823 21.4698 44.8386 21.6224C45.2781 22.0524 45.5921 22.8712 45.2568 23.6915C45.0785 24.1274 44.8034 24.4847 44.4079 24.7466C44.0704 24.9697 43.702 25.126 43.3197 25.2485C42.8289 25.407 42.3292 25.5317 41.8178 25.6036C41.4773 25.6521 41.1376 25.7034 40.7979 25.7548C40.7429 25.7636 40.6886 25.7797 40.6438 25.79L40.6416 25.7907Z" fill="black"/>
<path d="M72.4307 5.96815C72.4256 6.02465 72.4182 6.08115 72.4153 6.13764C72.3925 6.52432 72.3691 6.91026 72.3493 7.29694C72.3089 8.08571 72.2054 8.8664 72.0668 9.64196C71.9406 10.3478 71.7689 11.0427 71.5282 11.7192C71.1745 12.7141 70.6499 13.6144 70.0042 14.4465C69.5104 15.0826 68.955 15.6608 68.3497 16.192C68.2638 16.2676 68.1699 16.3351 68.0841 16.4099C68.0041 16.4796 67.9102 16.5082 67.8074 16.5104C67.3489 16.5192 66.8903 16.5273 66.4317 16.5332C66.4089 16.5332 66.3833 16.5104 66.3642 16.4936C66.3392 16.4716 66.3546 16.4231 66.3957 16.3842C66.4273 16.3549 66.4581 16.3255 66.4911 16.2969C66.957 15.8926 67.423 15.4891 67.8881 15.0855C68.1369 14.8698 68.3841 14.6512 68.6358 14.4376C68.7099 14.3745 68.7305 14.299 68.7231 14.2087C68.7195 14.1662 68.7165 14.1229 68.7099 14.0803C68.6087 13.4434 68.5052 12.8073 68.4054 12.1711C68.3064 11.5343 68.2117 10.8959 68.1149 10.259C68.087 10.0749 68.0576 9.89143 68.0305 9.70653C68.0136 9.58986 68.0364 9.482 68.087 9.37341C68.2741 8.97132 68.4575 8.5663 68.6373 8.16055C68.6967 8.02627 68.7862 7.91768 68.8831 7.81129C69.2764 7.37472 69.6748 6.94255 70.06 6.49864C70.5861 5.89184 71.1078 5.28211 71.6199 4.66357C72.1225 4.05604 72.5811 3.41402 73.0236 2.761C73.0874 2.66635 73.1586 2.57683 73.2275 2.48658C73.2495 2.45723 73.3192 2.47117 73.3361 2.50713C73.3721 2.5849 73.411 2.66194 73.4418 2.74192C73.5181 2.94223 73.5929 3.14401 73.6641 3.34652C74.0031 4.30698 74.2709 5.28725 74.4573 6.28879C74.6598 7.37765 74.7442 8.47605 74.6546 9.58399C74.5255 11.1887 73.8739 12.5314 72.653 13.5887C72.1959 13.9842 71.6999 14.3217 71.1415 14.5609C71.11 14.5741 71.085 14.5646 71.0696 14.5323C71.0645 14.5206 71.0586 14.5044 71.063 14.4941C71.0931 14.4142 71.1246 14.3349 71.1584 14.2564C71.278 13.9805 71.4049 13.7076 71.5187 13.4288C71.8701 12.5652 72.1577 11.6817 72.3683 10.7719C72.6354 9.61774 72.7286 8.45331 72.6251 7.27126C72.5906 6.87138 72.5701 6.47076 72.5048 6.07381C72.4982 6.03345 72.4835 5.99456 72.4725 5.95494C72.4586 5.95935 72.4454 5.96301 72.4314 5.96742L72.4307 5.96815Z" fill="black"/>
<path d="M72.4307 5.96815C72.4256 6.02465 72.4182 6.08115 72.4153 6.13764C72.3925 6.52432 72.3691 6.91026 72.3493 7.29694C72.3089 8.08571 72.2054 8.8664 72.0668 9.64196C71.9406 10.3478 71.7689 11.0427 71.5282 11.7192C71.1745 12.7141 70.6499 13.6144 70.0042 14.4465C69.5104 15.0826 68.955 15.6608 68.3497 16.192C68.2638 16.2676 68.1699 16.3351 68.0841 16.4099C68.0041 16.4796 67.9102 16.5082 67.8074 16.5104C67.3489 16.5192 66.8903 16.5273 66.4317 16.5332C66.4089 16.5332 66.3833 16.5104 66.3642 16.4936C66.3392 16.4716 66.3546 16.4231 66.3957 16.3842C66.4273 16.3549 66.4581 16.3255 66.4911 16.2969C66.957 15.8926 67.423 15.4891 67.8881 15.0855C68.1369 14.8698 68.3841 14.6512 68.6358 14.4376C68.7099 14.3745 68.7305 14.299 68.7231 14.2087C68.7195 14.1662 68.7165 14.1229 68.7099 14.0803C68.6087 13.4434 68.5052 12.8073 68.4054 12.1711C68.3064 11.5343 68.2117 10.8959 68.1149 10.259C68.087 10.0749 68.0576 9.89143 68.0305 9.70653C68.0136 9.58986 68.0364 9.482 68.087 9.37341C68.2741 8.97132 68.4575 8.5663 68.6373 8.16055C68.6967 8.02627 68.7862 7.91768 68.8831 7.81129C69.2764 7.37472 69.6748 6.94255 70.06 6.49864C70.5861 5.89184 71.1078 5.28211 71.6199 4.66357C72.1225 4.05604 72.5811 3.41402 73.0236 2.761C73.0874 2.66635 73.1586 2.57683 73.2275 2.48658C73.2495 2.45723 73.3192 2.47117 73.3361 2.50713C73.3721 2.5849 73.411 2.66194 73.4418 2.74192C73.5181 2.94223 73.5929 3.14401 73.6641 3.34652C74.0031 4.30698 74.2709 5.28725 74.4573 6.28879C74.6598 7.37765 74.7442 8.47605 74.6546 9.58399C74.5255 11.1887 73.8739 12.5314 72.653 13.5887C72.1959 13.9842 71.6999 14.3217 71.1415 14.5609C71.11 14.5741 71.085 14.5646 71.0696 14.5323C71.0645 14.5206 71.0586 14.5044 71.063 14.4941C71.0931 14.4142 71.1246 14.3349 71.1584 14.2564C71.278 13.9805 71.4049 13.7076 71.5187 13.4288C71.8701 12.5652 72.1577 11.6817 72.3683 10.7719C72.6354 9.61774 72.7286 8.45331 72.6251 7.27126C72.5906 6.87138 72.5701 6.47076 72.5048 6.07381C72.4982 6.03345 72.4835 5.99456 72.4725 5.95494C72.4586 5.95935 72.4454 5.96301 72.4314 5.96742L72.4307 5.96815Z" fill="black"/>
<path d="M4.33793 18.1587C4.35041 18.4544 4.37535 19.0414 4.40177 19.6277C4.40323 19.6702 4.41424 19.7128 4.42158 19.7553C4.44212 19.8727 4.53604 19.9674 4.64977 19.9799C4.72094 19.9872 4.79285 19.9916 4.86475 19.9887C5.1942 19.9755 5.52291 19.9505 5.85236 19.9468C6.38725 19.941 6.90453 19.8522 7.41375 19.6886C7.61552 19.624 7.8239 19.5484 8.04476 19.588C8.09905 19.5983 8.15042 19.6262 8.20178 19.6497C8.237 19.6658 8.2392 19.7341 8.20912 19.7583C8.19811 19.7671 8.19004 19.7803 8.1783 19.7876C7.58911 20.1442 6.98011 20.4612 6.32929 20.6894C5.84209 20.8603 5.34388 20.9873 4.8288 21.0423C4.78624 21.0467 4.74295 21.0548 4.70333 21.0695C4.5874 21.1113 4.50669 21.1883 4.49569 21.3175C4.48835 21.4026 4.48541 21.4892 4.48835 21.5743C4.52283 22.6778 4.51696 23.7821 4.46634 24.8849C4.4568 25.0999 4.45166 25.3148 4.44653 25.5298C4.42818 26.29 4.36068 27.0457 4.29464 27.8029C4.24181 28.4031 4.16771 29.0004 4.08113 29.5955C3.97987 30.2896 3.86321 30.9822 3.73187 31.6712C3.58732 32.4306 3.42737 33.1878 3.23733 33.9377C3.21312 34.0345 3.18524 34.1314 3.15075 34.2253C3.13681 34.2627 3.10379 34.2994 3.07004 34.3229C3.03775 34.3456 2.99373 34.3581 2.95338 34.3625C2.90788 34.3677 2.85285 34.3031 2.85065 34.2451C2.84552 34.1021 2.84038 33.9582 2.84038 33.8152C2.83231 30.2881 2.82424 26.7618 2.81617 23.2347C2.81543 22.8047 2.81543 22.3748 2.81323 21.9441C2.81323 21.8582 2.8059 21.7724 2.80003 21.6873C2.79636 21.6344 2.74059 21.5853 2.68336 21.5845C2.61219 21.5838 2.54028 21.5816 2.46838 21.5853C2.3253 21.5919 2.18222 21.597 2.03914 21.6095C1.68842 21.641 1.35163 21.575 1.02806 21.4539C0.540123 21.272 0.386773 21.0695 0.391909 20.5118C0.395577 20.1332 0.66926 19.8918 0.940742 19.8331C1.09556 19.7994 1.24891 19.7715 1.40886 19.7796C1.68108 19.7928 1.9533 19.8001 2.22551 19.8096C2.29742 19.8118 2.36932 19.8148 2.4405 19.8096C2.69657 19.7906 2.8712 19.6313 2.90055 19.3804C2.91522 19.2535 2.91375 19.1229 2.91155 18.9945C2.90788 18.7362 2.89541 18.4786 2.89174 18.2211C2.88294 17.4896 2.89835 16.7588 2.99373 16.0316C3.1192 15.0778 3.3107 14.1393 3.67097 13.242C3.92411 12.6132 4.24842 12.0269 4.68792 11.5067C5.33141 10.7473 6.14365 10.2652 7.11218 10.0546C7.41815 9.9886 7.72999 9.9365 8.04916 9.94531C8.31037 9.95265 8.56204 9.99887 8.80858 10.0752C9.30385 10.2285 9.70153 10.525 10.0097 10.9388C10.2878 11.3123 10.4573 11.7334 10.5556 12.1883C10.6906 12.8105 10.6216 13.4129 10.414 14.0065C10.2518 14.4695 10.0214 14.8973 9.74555 15.3008C9.32292 15.9194 8.82325 16.4711 8.25974 16.9642C8.20618 17.0112 8.14968 17.0559 8.09318 17.1C7.98973 17.1799 7.89508 17.177 7.78208 17.0911C7.6977 17.0273 7.66615 16.9077 7.72118 16.8241C7.76741 16.7529 7.82097 16.6847 7.88187 16.6252C7.96478 16.5445 8.03449 16.4565 8.08952 16.3545C8.50041 15.5958 8.84233 14.81 9.04851 13.9698C9.14829 13.5641 9.20186 13.1539 9.17618 12.735C9.15417 12.3894 9.08446 12.0548 8.94065 11.7371C8.7286 11.2712 8.39035 10.9359 7.90241 10.77C7.57443 10.6585 7.23985 10.602 6.88913 10.6724C6.6492 10.7209 6.4144 10.7766 6.19501 10.8867C5.91986 11.0239 5.69167 11.2139 5.52145 11.4715C5.35415 11.7239 5.22795 11.9954 5.12009 12.2779C4.93593 12.7614 4.80972 13.2603 4.70333 13.7659C4.54705 14.5099 4.44432 15.2627 4.37682 16.0184C4.32179 16.6326 4.32252 17.2496 4.34013 18.158L4.33793 18.1587Z" fill="black"/>
<path d="M4.33793 18.1587C4.35041 18.4544 4.37535 19.0414 4.40177 19.6277C4.40323 19.6702 4.41424 19.7128 4.42158 19.7553C4.44212 19.8727 4.53604 19.9674 4.64977 19.9799C4.72094 19.9872 4.79285 19.9916 4.86475 19.9887C5.1942 19.9755 5.52291 19.9505 5.85236 19.9468C6.38725 19.941 6.90453 19.8522 7.41375 19.6886C7.61552 19.624 7.8239 19.5484 8.04476 19.588C8.09905 19.5983 8.15042 19.6262 8.20178 19.6497C8.237 19.6658 8.2392 19.7341 8.20912 19.7583C8.19811 19.7671 8.19004 19.7803 8.1783 19.7876C7.58911 20.1442 6.98011 20.4612 6.32929 20.6894C5.84209 20.8603 5.34388 20.9873 4.8288 21.0423C4.78624 21.0467 4.74295 21.0548 4.70333 21.0695C4.5874 21.1113 4.50669 21.1883 4.49569 21.3175C4.48835 21.4026 4.48541 21.4892 4.48835 21.5743C4.52283 22.6778 4.51696 23.7821 4.46634 24.8849C4.4568 25.0999 4.45166 25.3148 4.44653 25.5298C4.42818 26.29 4.36068 27.0457 4.29464 27.8029C4.24181 28.4031 4.16771 29.0004 4.08113 29.5955C3.97987 30.2896 3.86321 30.9822 3.73187 31.6712C3.58732 32.4306 3.42737 33.1878 3.23733 33.9377C3.21312 34.0345 3.18524 34.1314 3.15075 34.2253C3.13681 34.2627 3.10379 34.2994 3.07004 34.3229C3.03775 34.3456 2.99373 34.3581 2.95338 34.3625C2.90788 34.3677 2.85285 34.3031 2.85065 34.2451C2.84552 34.1021 2.84038 33.9582 2.84038 33.8152C2.83231 30.2881 2.82424 26.7618 2.81617 23.2347C2.81543 22.8047 2.81543 22.3748 2.81323 21.9441C2.81323 21.8582 2.8059 21.7724 2.80003 21.6873C2.79636 21.6344 2.74059 21.5853 2.68336 21.5845C2.61219 21.5838 2.54028 21.5816 2.46838 21.5853C2.3253 21.5919 2.18222 21.597 2.03914 21.6095C1.68842 21.641 1.35163 21.575 1.02806 21.4539C0.540123 21.272 0.386773 21.0695 0.391909 20.5118C0.395577 20.1332 0.66926 19.8918 0.940742 19.8331C1.09556 19.7994 1.24891 19.7715 1.40886 19.7796C1.68108 19.7928 1.9533 19.8001 2.22551 19.8096C2.29742 19.8118 2.36932 19.8148 2.4405 19.8096C2.69657 19.7906 2.8712 19.6313 2.90055 19.3804C2.91522 19.2535 2.91375 19.1229 2.91155 18.9945C2.90788 18.7362 2.89541 18.4786 2.89174 18.2211C2.88294 17.4896 2.89835 16.7588 2.99373 16.0316C3.1192 15.0778 3.3107 14.1393 3.67097 13.242C3.92411 12.6132 4.24842 12.0269 4.68792 11.5067C5.33141 10.7473 6.14365 10.2652 7.11218 10.0546C7.41815 9.9886 7.72999 9.9365 8.04916 9.94531C8.31037 9.95265 8.56204 9.99887 8.80858 10.0752C9.30385 10.2285 9.70153 10.525 10.0097 10.9388C10.2878 11.3123 10.4573 11.7334 10.5556 12.1883C10.6906 12.8105 10.6216 13.4129 10.414 14.0065C10.2518 14.4695 10.0214 14.8973 9.74555 15.3008C9.32292 15.9194 8.82325 16.4711 8.25974 16.9642C8.20618 17.0112 8.14968 17.0559 8.09318 17.1C7.98973 17.1799 7.89508 17.177 7.78208 17.0911C7.6977 17.0273 7.66615 16.9077 7.72118 16.8241C7.76741 16.7529 7.82097 16.6847 7.88187 16.6252C7.96478 16.5445 8.03449 16.4565 8.08952 16.3545C8.50041 15.5958 8.84233 14.81 9.04851 13.9698C9.14829 13.5641 9.20186 13.1539 9.17618 12.735C9.15417 12.3894 9.08446 12.0548 8.94065 11.7371C8.7286 11.2712 8.39035 10.9359 7.90241 10.77C7.57443 10.6585 7.23985 10.602 6.88913 10.6724C6.6492 10.7209 6.4144 10.7766 6.19501 10.8867C5.91986 11.0239 5.69167 11.2139 5.52145 11.4715C5.35415 11.7239 5.22795 11.9954 5.12009 12.2779C4.93593 12.7614 4.80972 13.2603 4.70333 13.7659C4.54705 14.5099 4.44432 15.2627 4.37682 16.0184C4.32179 16.6326 4.32252 17.2496 4.34013 18.158L4.33793 18.1587Z" fill="black"/>
<path d="M12.2843 19.4382L12.3085 19.4389C12.3085 19.582 12.3033 19.7258 12.3092 19.8682C12.3437 20.6987 12.3745 21.5286 12.4545 22.3563C12.4706 22.5272 12.497 22.6974 12.5205 22.8677C12.5293 22.9337 12.5939 22.9645 12.646 22.9308C12.6812 22.9073 12.7172 22.8838 12.7509 22.8581C13.2843 22.456 13.7033 21.9505 14.068 21.3973C14.641 20.5278 15.0299 19.5776 15.2816 18.5702C15.4312 17.9722 15.5083 17.3625 15.5699 16.7483C15.6389 16.0615 15.644 15.3755 15.6293 14.6887C15.6198 14.2433 15.5523 13.8046 15.4518 13.3709C15.3968 13.1339 15.3175 12.9036 15.2008 12.6878C15.1253 12.5484 15.0372 12.4186 14.9125 12.3173C14.7019 12.1441 14.4605 12.1324 14.2331 12.2593C14.0936 12.3371 13.9755 12.4391 13.8699 12.558C13.7172 12.7304 13.5918 12.9219 13.4817 13.1237C13.3027 13.4509 13.1611 13.795 13.0415 14.148C12.668 15.253 12.4618 16.3925 12.3686 17.5518C12.318 18.1791 12.3107 18.8108 12.2843 19.4404V19.4382ZM12.7208 23.8553C12.883 24.6528 13.0928 25.4262 13.3885 26.1731C13.4993 26.452 13.6285 26.7242 13.762 26.9927C13.8706 27.2106 14.0063 27.4153 14.1722 27.5951C14.6256 28.0875 15.1781 28.2819 15.8407 28.1373C16.3257 28.0317 16.7652 27.8409 17.113 27.4711C17.1394 27.4432 17.1871 27.4249 17.2267 27.4212C17.2656 27.4176 17.3111 27.4308 17.3448 27.4513C17.3837 27.4755 17.3866 27.5232 17.3756 27.5665C17.3294 27.7521 17.223 27.9048 17.0998 28.0456C16.9281 28.2415 16.727 28.4008 16.5025 28.5321C16.2295 28.692 15.9368 28.8036 15.6352 28.899C15.2918 29.0083 14.936 29.0472 14.583 29.1029C14.3651 29.1374 14.1575 29.067 13.9557 28.9921C13.7671 28.9224 13.5954 28.8183 13.4318 28.7001C13.1867 28.5226 12.9681 28.3164 12.7663 28.0926C12.6702 27.9862 12.5799 27.8747 12.4882 27.7646C12.0517 27.2422 11.7266 26.6589 11.5182 26.0088C11.3033 25.3396 11.1272 24.6616 10.9899 23.9734C10.8381 23.214 10.7324 22.4472 10.6664 21.6768C10.6047 20.9497 10.5468 20.2204 10.5556 19.4881C10.56 19.144 10.5534 18.8006 10.5585 18.4565C10.5732 17.4512 10.6774 16.4556 10.899 15.4738C11.0538 14.787 11.2695 14.1215 11.5769 13.4869C11.7846 13.0598 12.0289 12.657 12.329 12.2887C12.5836 11.9754 12.8734 11.7002 13.2088 11.4742C13.5962 11.2123 14.0203 11.034 14.4847 11.0083C15.2008 10.9687 15.8113 11.1925 16.2149 11.8301C16.369 12.0737 16.4827 12.3364 16.5663 12.6115C16.7131 13.0929 16.8004 13.5852 16.8319 14.0878C16.8708 14.7041 16.8708 15.3212 16.8173 15.9353C16.6309 18.0668 15.9456 20.0127 14.6417 21.7267C14.1369 22.39 13.5881 23.0115 12.9754 23.5772C12.9021 23.6454 12.8309 23.7159 12.7597 23.7863C12.7502 23.7958 12.7458 23.8105 12.7208 23.8545V23.8553Z" fill="black"/>
<path d="M12.2843 19.4382L12.3085 19.4389C12.3085 19.582 12.3033 19.7258 12.3092 19.8682C12.3437 20.6987 12.3745 21.5286 12.4545 22.3563C12.4706 22.5272 12.497 22.6974 12.5205 22.8677C12.5293 22.9337 12.5939 22.9645 12.646 22.9308C12.6812 22.9073 12.7172 22.8838 12.7509 22.8581C13.2843 22.456 13.7033 21.9505 14.068 21.3973C14.641 20.5278 15.0299 19.5776 15.2816 18.5702C15.4312 17.9722 15.5083 17.3625 15.5699 16.7483C15.6389 16.0615 15.644 15.3755 15.6293 14.6887C15.6198 14.2433 15.5523 13.8046 15.4518 13.3709C15.3968 13.1339 15.3175 12.9036 15.2008 12.6878C15.1253 12.5484 15.0372 12.4186 14.9125 12.3173C14.7019 12.1441 14.4605 12.1324 14.2331 12.2593C14.0936 12.3371 13.9755 12.4391 13.8699 12.558C13.7172 12.7304 13.5918 12.9219 13.4817 13.1237C13.3027 13.4509 13.1611 13.795 13.0415 14.148C12.668 15.253 12.4618 16.3925 12.3686 17.5518C12.318 18.1791 12.3107 18.8108 12.2843 19.4404V19.4382ZM12.7208 23.8553C12.883 24.6528 13.0928 25.4262 13.3885 26.1731C13.4993 26.452 13.6285 26.7242 13.762 26.9927C13.8706 27.2106 14.0063 27.4153 14.1722 27.5951C14.6256 28.0875 15.1781 28.2819 15.8407 28.1373C16.3257 28.0317 16.7652 27.8409 17.113 27.4711C17.1394 27.4432 17.1871 27.4249 17.2267 27.4212C17.2656 27.4176 17.3111 27.4308 17.3448 27.4513C17.3837 27.4755 17.3866 27.5232 17.3756 27.5665C17.3294 27.7521 17.223 27.9048 17.0998 28.0456C16.9281 28.2415 16.727 28.4008 16.5025 28.5321C16.2295 28.692 15.9368 28.8036 15.6352 28.899C15.2918 29.0083 14.936 29.0472 14.583 29.1029C14.3651 29.1374 14.1575 29.067 13.9557 28.9921C13.7671 28.9224 13.5954 28.8183 13.4318 28.7001C13.1867 28.5226 12.9681 28.3164 12.7663 28.0926C12.6702 27.9862 12.5799 27.8747 12.4882 27.7646C12.0517 27.2422 11.7266 26.6589 11.5182 26.0088C11.3033 25.3396 11.1272 24.6616 10.9899 23.9734C10.8381 23.214 10.7324 22.4472 10.6664 21.6768C10.6047 20.9497 10.5468 20.2204 10.5556 19.4881C10.56 19.144 10.5534 18.8006 10.5585 18.4565C10.5732 17.4512 10.6774 16.4556 10.899 15.4738C11.0538 14.787 11.2695 14.1215 11.5769 13.4869C11.7846 13.0598 12.0289 12.657 12.329 12.2887C12.5836 11.9754 12.8734 11.7002 13.2088 11.4742C13.5962 11.2123 14.0203 11.034 14.4847 11.0083C15.2008 10.9687 15.8113 11.1925 16.2149 11.8301C16.369 12.0737 16.4827 12.3364 16.5663 12.6115C16.7131 13.0929 16.8004 13.5852 16.8319 14.0878C16.8708 14.7041 16.8708 15.3212 16.8173 15.9353C16.6309 18.0668 15.9456 20.0127 14.6417 21.7267C14.1369 22.39 13.5881 23.0115 12.9754 23.5772C12.9021 23.6454 12.8309 23.7159 12.7597 23.7863C12.7502 23.7958 12.7458 23.8105 12.7208 23.8545V23.8553Z" fill="black"/>
<path d="M72.0865 31.2403C71.9889 31.3159 71.9229 31.3702 71.8532 31.4201C70.8018 32.1685 70.1773 33.2038 69.8303 34.4262C69.7481 34.7175 69.7034 35.0168 69.6916 35.3162C69.6601 36.1284 69.8662 36.8783 70.3314 37.5489C70.6976 38.0765 71.2207 38.3553 71.8481 38.4177C72.6045 38.4933 73.2928 38.2819 73.9165 37.8498C74.2782 37.5988 74.5519 37.2738 74.7412 36.8768C74.9525 36.4337 75.0787 35.9641 75.1697 35.4842C75.2342 35.1452 75.254 34.8033 75.2548 34.4577C75.2548 33.7974 75.2027 33.1392 75.1499 32.4825C75.1132 32.0261 75.0281 31.5741 74.9562 31.1214C74.8527 30.4684 74.7742 29.8161 74.8233 29.1521C74.8468 28.8366 74.9099 28.5284 74.9591 28.2173C74.9855 28.0478 75.0075 27.8769 75.0229 27.7059C75.0288 27.6509 75.0105 27.5929 75.0002 27.5371C74.9928 27.4968 74.9048 27.4462 74.8608 27.4608C74.8079 27.4784 74.7463 27.4938 74.7096 27.5313C74.6296 27.6127 74.5651 27.7088 74.4895 27.7954C74.3097 28.0001 74.1314 28.2056 73.9451 28.4044C73.7352 28.6282 73.4747 28.7742 73.1893 28.8828C72.766 29.0435 72.3287 29.0846 71.8796 29.0604C71.5898 29.045 71.3124 28.9863 71.049 28.8652C70.5985 28.659 70.2749 28.3296 70.093 27.8666C69.9924 27.6112 69.9359 27.3471 69.9235 27.072C69.9044 26.6677 69.9521 26.2692 70.0372 25.8767C70.1891 25.173 70.4342 24.5024 70.7717 23.8648C71.3616 22.7488 72.2817 22.0092 73.4241 21.5242C73.755 21.384 74.1028 21.2989 74.4682 21.3055C75.3069 21.3202 75.9049 21.7223 76.3121 22.4384C76.4361 22.6563 76.4229 22.8779 76.3238 23.0988C76.2174 23.3387 76.0524 23.5368 75.8564 23.7085C75.7493 23.8024 75.6349 23.8897 75.5131 23.9639C75.4441 24.0064 75.359 24.0409 75.2717 23.9815C75.188 23.9242 75.1755 23.8428 75.1821 23.7547C75.1865 23.6982 75.1968 23.641 75.2115 23.586C75.2643 23.3893 75.2599 23.189 75.2592 22.988C75.2585 22.8273 75.2196 22.6739 75.1579 22.5287C75.0244 22.2146 74.7837 22.0305 74.444 21.9798C73.9216 21.9028 73.4491 22.0202 73.0257 22.3379C72.8291 22.4854 72.6566 22.6556 72.504 22.8471C72.0931 23.36 71.6037 24.3894 71.446 25.0388C71.3565 25.4071 71.3462 25.7791 71.3924 26.1496C71.446 26.5848 71.6169 26.9788 71.898 27.3178C72.1885 27.667 72.5715 27.7954 73.0132 27.733C73.2972 27.6927 73.5687 27.598 73.8225 27.4579C74.1512 27.2774 74.4462 27.0514 74.717 26.7931C75.0603 26.4652 75.37 26.1071 75.6525 25.727C75.8741 25.4277 76.0824 25.118 76.296 24.8135C76.362 24.7189 76.4207 24.7064 76.5579 24.7556C76.6085 24.7739 76.6489 24.8517 76.6276 24.892C76.5865 24.9676 76.544 25.0424 76.5014 25.1166C76.1287 25.774 75.9959 26.4784 76.0685 27.229C76.1353 27.9157 76.2527 28.5908 76.4324 29.257C76.4882 29.4639 76.519 29.6774 76.5572 29.8895C76.6518 30.4266 76.7017 30.9681 76.745 31.511C76.7839 31.9982 76.8059 32.4847 76.7898 32.9719C76.7641 33.7761 76.687 34.5744 76.4618 35.3507C76.1243 36.5151 75.4727 37.4741 74.5365 38.2387C73.8915 38.7655 73.1416 39.0069 72.3118 39.0282C71.7153 39.0436 71.1429 38.9467 70.5956 38.7068C69.6094 38.2746 68.9894 37.5313 68.726 36.4924C68.5727 35.8885 68.5352 35.2751 68.6416 34.658C68.7179 34.2156 68.8808 33.804 69.1178 33.4224C69.3394 33.0673 69.6065 32.7503 69.9191 32.4722C70.5361 31.9234 71.2361 31.5118 72.008 31.2212C72.0183 31.2176 72.0337 31.2278 72.088 31.2418L72.0865 31.2403Z" fill="black"/>
<path d="M72.0865 31.2403C71.9889 31.3159 71.9229 31.3702 71.8532 31.4201C70.8018 32.1685 70.1773 33.2038 69.8303 34.4262C69.7481 34.7175 69.7034 35.0168 69.6916 35.3162C69.6601 36.1284 69.8662 36.8783 70.3314 37.5489C70.6976 38.0765 71.2207 38.3553 71.8481 38.4177C72.6045 38.4933 73.2928 38.2819 73.9165 37.8498C74.2782 37.5988 74.5519 37.2738 74.7412 36.8768C74.9525 36.4337 75.0787 35.9641 75.1697 35.4842C75.2342 35.1452 75.254 34.8033 75.2548 34.4577C75.2548 33.7974 75.2027 33.1392 75.1499 32.4825C75.1132 32.0261 75.0281 31.5741 74.9562 31.1214C74.8527 30.4684 74.7742 29.8161 74.8233 29.1521C74.8468 28.8366 74.9099 28.5284 74.9591 28.2173C74.9855 28.0478 75.0075 27.8769 75.0229 27.7059C75.0288 27.6509 75.0105 27.5929 75.0002 27.5371C74.9928 27.4968 74.9048 27.4462 74.8608 27.4608C74.8079 27.4784 74.7463 27.4938 74.7096 27.5313C74.6296 27.6127 74.5651 27.7088 74.4895 27.7954C74.3097 28.0001 74.1314 28.2056 73.9451 28.4044C73.7352 28.6282 73.4747 28.7742 73.1893 28.8828C72.766 29.0435 72.3287 29.0846 71.8796 29.0604C71.5898 29.045 71.3124 28.9863 71.049 28.8652C70.5985 28.659 70.2749 28.3296 70.093 27.8666C69.9924 27.6112 69.9359 27.3471 69.9235 27.072C69.9044 26.6677 69.9521 26.2692 70.0372 25.8767C70.1891 25.173 70.4342 24.5024 70.7717 23.8648C71.3616 22.7488 72.2817 22.0092 73.4241 21.5242C73.755 21.384 74.1028 21.2989 74.4682 21.3055C75.3069 21.3202 75.9049 21.7223 76.3121 22.4384C76.4361 22.6563 76.4229 22.8779 76.3238 23.0988C76.2174 23.3387 76.0524 23.5368 75.8564 23.7085C75.7493 23.8024 75.6349 23.8897 75.5131 23.9639C75.4441 24.0064 75.359 24.0409 75.2717 23.9815C75.188 23.9242 75.1755 23.8428 75.1821 23.7547C75.1865 23.6982 75.1968 23.641 75.2115 23.586C75.2643 23.3893 75.2599 23.189 75.2592 22.988C75.2585 22.8273 75.2196 22.6739 75.1579 22.5287C75.0244 22.2146 74.7837 22.0305 74.444 21.9798C73.9216 21.9028 73.4491 22.0202 73.0257 22.3379C72.8291 22.4854 72.6566 22.6556 72.504 22.8471C72.0931 23.36 71.6037 24.3894 71.446 25.0388C71.3565 25.4071 71.3462 25.7791 71.3924 26.1496C71.446 26.5848 71.6169 26.9788 71.898 27.3178C72.1885 27.667 72.5715 27.7954 73.0132 27.733C73.2972 27.6927 73.5687 27.598 73.8225 27.4579C74.1512 27.2774 74.4462 27.0514 74.717 26.7931C75.0603 26.4652 75.37 26.1071 75.6525 25.727C75.8741 25.4277 76.0824 25.118 76.296 24.8135C76.362 24.7189 76.4207 24.7064 76.5579 24.7556C76.6085 24.7739 76.6489 24.8517 76.6276 24.892C76.5865 24.9676 76.544 25.0424 76.5014 25.1166C76.1287 25.774 75.9959 26.4784 76.0685 27.229C76.1353 27.9157 76.2527 28.5908 76.4324 29.257C76.4882 29.4639 76.519 29.6774 76.5572 29.8895C76.6518 30.4266 76.7017 30.9681 76.745 31.511C76.7839 31.9982 76.8059 32.4847 76.7898 32.9719C76.7641 33.7761 76.687 34.5744 76.4618 35.3507C76.1243 36.5151 75.4727 37.4741 74.5365 38.2387C73.8915 38.7655 73.1416 39.0069 72.3118 39.0282C71.7153 39.0436 71.1429 38.9467 70.5956 38.7068C69.6094 38.2746 68.9894 37.5313 68.726 36.4924C68.5727 35.8885 68.5352 35.2751 68.6416 34.658C68.7179 34.2156 68.8808 33.804 69.1178 33.4224C69.3394 33.0673 69.6065 32.7503 69.9191 32.4722C70.5361 31.9234 71.2361 31.5118 72.008 31.2212C72.0183 31.2176 72.0337 31.2278 72.088 31.2418L72.0865 31.2403Z" fill="black"/>
<path d="M31.7606 25.1989C31.6777 25.3434 31.6476 25.4821 31.619 25.623C31.5133 26.1439 31.3533 26.648 31.12 27.1279C30.8617 27.6598 30.5404 28.1485 30.1463 28.5895C30.0605 28.6856 29.9681 28.7766 29.8763 28.8668C29.5454 29.1933 29.0428 29.2616 28.6011 29.0481C28.4573 28.9791 28.3326 28.8852 28.2181 28.7751C28.0413 28.6042 27.9019 28.4046 27.7771 28.1947C27.601 27.8983 27.4631 27.5835 27.3376 27.2629C27.0654 26.5673 26.8702 25.8505 26.7249 25.1182C26.5738 24.358 26.4762 23.5913 26.3962 22.8216C26.386 22.7218 26.3794 22.6228 26.3229 22.5332C26.273 22.4547 26.2069 22.4085 26.1137 22.4048C26.0125 22.4019 25.9149 22.4158 25.8203 22.4562C25.7285 22.4958 25.6353 22.5332 25.54 22.5641C25.4585 22.5897 25.3741 22.6118 25.2898 22.6213C25.2538 22.625 25.2076 22.6007 25.1775 22.5758C25.1357 22.542 25.1342 22.4672 25.1658 22.418C25.1958 22.3696 25.2223 22.3161 25.2633 22.2786C25.3683 22.1818 25.4732 22.082 25.5921 22.0035C26.0132 21.7232 26.4696 21.5214 26.9685 21.4246C27.0522 21.4084 27.1388 21.4018 27.2246 21.3989C27.4044 21.3923 27.5621 21.4561 27.7001 21.5677C27.8828 21.7159 28.0126 21.903 28.0868 22.1253C28.1271 22.2471 28.1587 22.3733 28.1785 22.5002C28.2122 22.7123 28.2416 22.9258 28.257 23.14C28.2951 23.6691 28.3641 24.1944 28.4463 24.7183C28.5791 25.568 28.7596 26.4081 28.9937 27.2357C29.0516 27.4419 29.1301 27.643 29.213 27.8403C29.2629 27.9577 29.3312 28.0693 29.406 28.1735C29.4456 28.2292 29.5117 28.2674 29.5718 28.3055C29.6217 28.3378 29.679 28.3341 29.7362 28.3114C29.8316 28.2725 29.9152 28.2168 29.9754 28.1346C30.0752 27.9952 30.1764 27.855 30.2623 27.7068C30.4699 27.3465 30.6328 26.9643 30.7781 26.5739C31.0378 25.8754 31.2418 25.1593 31.4326 24.4395C31.4898 24.2245 31.4766 24.0125 31.4407 23.8004C31.382 23.4614 31.3181 23.1239 31.2499 22.7871C31.2007 22.5472 31.1728 22.3065 31.1839 22.0615C31.1971 21.7665 31.3042 21.539 31.6982 21.3982C31.8589 21.3409 32.0298 21.3196 32.2023 21.3013C32.5347 21.2646 32.7489 21.4172 32.9111 21.6814C32.994 21.8164 33.0637 21.958 33.0967 22.1135C33.1495 22.366 33.2075 22.6176 33.2449 22.8722C33.2911 23.1841 33.3183 23.4981 33.3557 23.8114C33.4834 24.879 33.6595 25.9378 33.9552 26.9738C34.0373 27.2636 34.1349 27.5476 34.2633 27.8205C34.3308 27.9636 34.4057 28.1016 34.5121 28.2204C34.5818 28.2982 34.6786 28.318 34.785 28.2879C34.9127 28.2512 35.0183 28.1801 35.1174 28.0972C35.2722 27.9673 35.4028 27.8169 35.5202 27.6525C35.7213 27.3715 35.8797 27.0663 36.0155 26.75C36.3508 25.9693 36.5805 25.1571 36.6957 24.3155C36.8072 23.501 36.7984 22.6866 36.6304 21.8773C36.5665 21.5677 36.4807 21.2646 36.3574 20.9741C36.2796 20.7899 36.1879 20.6101 36.0815 20.4406C35.7998 19.9909 35.4197 19.6533 34.9134 19.4714C34.752 19.4134 34.592 19.3518 34.4328 19.2901C34.4262 19.2872 34.4196 19.2703 34.4211 19.2615C34.4226 19.2476 34.4292 19.2322 34.4394 19.2234C34.46 19.2043 34.4813 19.183 34.5069 19.1727C34.854 19.0304 35.2179 18.9379 35.5892 18.9189C36.2525 18.8844 36.8666 19.0553 37.3971 19.4706C37.7134 19.7179 37.91 20.0444 38.001 20.4348C38.0531 20.6586 38.0832 20.8845 38.0912 21.1157C38.1088 21.6337 38.0655 22.148 37.9753 22.6565C37.7596 23.873 37.4191 25.0551 36.9627 26.2026C36.7668 26.6957 36.5313 27.1704 36.2422 27.6173C36.0155 27.968 35.755 28.2909 35.4373 28.5645C35.1856 28.781 34.9061 28.9475 34.5876 29.0547C34.3345 29.1391 34.0806 29.1413 33.8231 29.1163C33.647 29.0994 33.4929 29.0114 33.3726 28.8844C33.2552 28.7604 33.1429 28.6269 33.0505 28.4838C32.7085 27.9519 32.4246 27.3913 32.2331 26.7852C32.0995 26.3619 31.9814 25.9341 31.8904 25.499C31.8699 25.4014 31.8552 25.3016 31.762 25.1996L31.7606 25.1989Z" fill="black"/>
<path d="M31.7606 25.1989C31.6777 25.3434 31.6476 25.4821 31.619 25.623C31.5133 26.1439 31.3533 26.648 31.12 27.1279C30.8617 27.6598 30.5404 28.1485 30.1463 28.5895C30.0605 28.6856 29.9681 28.7766 29.8763 28.8668C29.5454 29.1933 29.0428 29.2616 28.6011 29.0481C28.4573 28.9791 28.3326 28.8852 28.2181 28.7751C28.0413 28.6042 27.9019 28.4046 27.7771 28.1947C27.601 27.8983 27.4631 27.5835 27.3376 27.2629C27.0654 26.5673 26.8702 25.8505 26.7249 25.1182C26.5738 24.358 26.4762 23.5913 26.3962 22.8216C26.386 22.7218 26.3794 22.6228 26.3229 22.5332C26.273 22.4547 26.2069 22.4085 26.1137 22.4048C26.0125 22.4019 25.9149 22.4158 25.8203 22.4562C25.7285 22.4958 25.6353 22.5332 25.54 22.5641C25.4585 22.5897 25.3741 22.6118 25.2898 22.6213C25.2538 22.625 25.2076 22.6007 25.1775 22.5758C25.1357 22.542 25.1342 22.4672 25.1658 22.418C25.1958 22.3696 25.2223 22.3161 25.2633 22.2786C25.3683 22.1818 25.4732 22.082 25.5921 22.0035C26.0132 21.7232 26.4696 21.5214 26.9685 21.4246C27.0522 21.4084 27.1388 21.4018 27.2246 21.3989C27.4044 21.3923 27.5621 21.4561 27.7001 21.5677C27.8828 21.7159 28.0126 21.903 28.0868 22.1253C28.1271 22.2471 28.1587 22.3733 28.1785 22.5002C28.2122 22.7123 28.2416 22.9258 28.257 23.14C28.2951 23.6691 28.3641 24.1944 28.4463 24.7183C28.5791 25.568 28.7596 26.4081 28.9937 27.2357C29.0516 27.4419 29.1301 27.643 29.213 27.8403C29.2629 27.9577 29.3312 28.0693 29.406 28.1735C29.4456 28.2292 29.5117 28.2674 29.5718 28.3055C29.6217 28.3378 29.679 28.3341 29.7362 28.3114C29.8316 28.2725 29.9152 28.2168 29.9754 28.1346C30.0752 27.9952 30.1764 27.855 30.2623 27.7068C30.4699 27.3465 30.6328 26.9643 30.7781 26.5739C31.0378 25.8754 31.2418 25.1593 31.4326 24.4395C31.4898 24.2245 31.4766 24.0125 31.4407 23.8004C31.382 23.4614 31.3181 23.1239 31.2499 22.7871C31.2007 22.5472 31.1728 22.3065 31.1839 22.0615C31.1971 21.7665 31.3042 21.539 31.6982 21.3982C31.8589 21.3409 32.0298 21.3196 32.2023 21.3013C32.5347 21.2646 32.7489 21.4172 32.9111 21.6814C32.994 21.8164 33.0637 21.958 33.0967 22.1135C33.1495 22.366 33.2075 22.6176 33.2449 22.8722C33.2911 23.1841 33.3183 23.4981 33.3557 23.8114C33.4834 24.879 33.6595 25.9378 33.9552 26.9738C34.0373 27.2636 34.1349 27.5476 34.2633 27.8205C34.3308 27.9636 34.4057 28.1016 34.5121 28.2204C34.5818 28.2982 34.6786 28.318 34.785 28.2879C34.9127 28.2512 35.0183 28.1801 35.1174 28.0972C35.2722 27.9673 35.4028 27.8169 35.5202 27.6525C35.7213 27.3715 35.8797 27.0663 36.0155 26.75C36.3508 25.9693 36.5805 25.1571 36.6957 24.3155C36.8072 23.501 36.7984 22.6866 36.6304 21.8773C36.5665 21.5677 36.4807 21.2646 36.3574 20.9741C36.2796 20.7899 36.1879 20.6101 36.0815 20.4406C35.7998 19.9909 35.4197 19.6533 34.9134 19.4714C34.752 19.4134 34.592 19.3518 34.4328 19.2901C34.4262 19.2872 34.4196 19.2703 34.4211 19.2615C34.4226 19.2476 34.4292 19.2322 34.4394 19.2234C34.46 19.2043 34.4813 19.183 34.5069 19.1727C34.854 19.0304 35.2179 18.9379 35.5892 18.9189C36.2525 18.8844 36.8666 19.0553 37.3971 19.4706C37.7134 19.7179 37.91 20.0444 38.001 20.4348C38.0531 20.6586 38.0832 20.8845 38.0912 21.1157C38.1088 21.6337 38.0655 22.148 37.9753 22.6565C37.7596 23.873 37.4191 25.0551 36.9627 26.2026C36.7668 26.6957 36.5313 27.1704 36.2422 27.6173C36.0155 27.968 35.755 28.2909 35.4373 28.5645C35.1856 28.781 34.9061 28.9475 34.5876 29.0547C34.3345 29.1391 34.0806 29.1413 33.8231 29.1163C33.647 29.0994 33.4929 29.0114 33.3726 28.8844C33.2552 28.7604 33.1429 28.6269 33.0505 28.4838C32.7085 27.9519 32.4246 27.3913 32.2331 26.7852C32.0995 26.3619 31.9814 25.9341 31.8904 25.499C31.8699 25.4014 31.8552 25.3016 31.762 25.1996L31.7606 25.1989Z" fill="black"/>
<path d="M19.4492 21.3438C19.5681 21.4575 19.5893 21.6211 19.6612 21.7378C19.648 21.8354 19.593 21.8838 19.5453 21.9366C19.0346 22.4994 18.7778 23.1686 18.7111 23.9184C18.6289 24.8371 18.8042 25.7146 19.1403 26.565C19.3949 27.21 19.888 27.5996 20.5248 27.8226C20.8367 27.932 21.1661 27.9686 21.4948 27.9914C21.6834 28.0046 21.8654 27.9613 22.0481 27.9239C22.0892 27.9158 22.1288 27.896 22.1662 27.8762C22.4597 27.7214 22.7305 27.5372 22.9476 27.2811C23.2646 26.9084 23.4436 26.4806 23.4679 25.9912C23.4847 25.6603 23.4598 25.3338 23.3776 25.0102C23.313 24.7556 23.2059 24.526 23.0438 24.3205C22.8926 24.1275 22.7158 23.961 22.525 23.8084C22.0415 23.4202 21.5044 23.1209 20.9482 22.853C20.8448 22.8039 20.7391 22.7599 20.6364 22.7107C20.5087 22.6498 20.4852 22.5874 20.5469 22.4788C20.6826 22.2411 20.8359 22.0159 21.0385 21.831C21.3914 21.5096 21.7957 21.39 22.2682 21.5243C22.6138 21.6226 22.9491 21.7436 23.2661 21.9117C23.4436 22.0056 23.6117 22.1142 23.7665 22.2433C24.0717 22.4964 24.2882 22.8046 24.4188 23.1832C24.5978 23.7027 24.702 24.2369 24.7152 24.782C24.735 25.5957 24.5853 26.3794 24.2038 27.1072C23.8993 27.6876 23.4891 28.18 22.9484 28.5556C22.1471 29.1125 21.2608 29.3106 20.2967 29.1632C19.9995 29.1177 19.7038 29.0641 19.4213 28.9577C19.2746 28.902 19.1263 28.8469 18.9855 28.778C18.2994 28.4412 17.8152 27.9143 17.5341 27.2048C17.3801 26.8159 17.292 26.4109 17.2671 25.9927C17.2194 25.1995 17.3052 24.421 17.5107 23.6528C17.5972 23.3292 17.7286 23.0313 17.923 22.7621C18.0485 22.5882 18.1835 22.4201 18.3273 22.2609C18.6069 21.952 18.9209 21.6798 19.2555 21.4311C19.3135 21.3878 19.3722 21.3489 19.4485 21.3445L19.4492 21.3438Z" fill="black"/>
<path d="M19.4492 21.3438C19.5681 21.4575 19.5893 21.6211 19.6612 21.7378C19.648 21.8354 19.593 21.8838 19.5453 21.9366C19.0346 22.4994 18.7778 23.1686 18.7111 23.9184C18.6289 24.8371 18.8042 25.7146 19.1403 26.565C19.3949 27.21 19.888 27.5996 20.5248 27.8226C20.8367 27.932 21.1661 27.9686 21.4948 27.9914C21.6834 28.0046 21.8654 27.9613 22.0481 27.9239C22.0892 27.9158 22.1288 27.896 22.1662 27.8762C22.4597 27.7214 22.7305 27.5372 22.9476 27.2811C23.2646 26.9084 23.4436 26.4806 23.4679 25.9912C23.4847 25.6603 23.4598 25.3338 23.3776 25.0102C23.313 24.7556 23.2059 24.526 23.0438 24.3205C22.8926 24.1275 22.7158 23.961 22.525 23.8084C22.0415 23.4202 21.5044 23.1209 20.9482 22.853C20.8448 22.8039 20.7391 22.7599 20.6364 22.7107C20.5087 22.6498 20.4852 22.5874 20.5469 22.4788C20.6826 22.2411 20.8359 22.0159 21.0385 21.831C21.3914 21.5096 21.7957 21.39 22.2682 21.5243C22.6138 21.6226 22.9491 21.7436 23.2661 21.9117C23.4436 22.0056 23.6117 22.1142 23.7665 22.2433C24.0717 22.4964 24.2882 22.8046 24.4188 23.1832C24.5978 23.7027 24.702 24.2369 24.7152 24.782C24.735 25.5957 24.5853 26.3794 24.2038 27.1072C23.8993 27.6876 23.4891 28.18 22.9484 28.5556C22.1471 29.1125 21.2608 29.3106 20.2967 29.1632C19.9995 29.1177 19.7038 29.0641 19.4213 28.9577C19.2746 28.902 19.1263 28.8469 18.9855 28.778C18.2994 28.4412 17.8152 27.9143 17.5341 27.2048C17.3801 26.8159 17.292 26.4109 17.2671 25.9927C17.2194 25.1995 17.3052 24.421 17.5107 23.6528C17.5972 23.3292 17.7286 23.0313 17.923 22.7621C18.0485 22.5882 18.1835 22.4201 18.3273 22.2609C18.6069 21.952 18.9209 21.6798 19.2555 21.4311C19.3135 21.3878 19.3722 21.3489 19.4485 21.3445L19.4492 21.3438Z" fill="black"/>
<path d="M63.4519 18.5028C63.1915 18.3949 62.9457 18.3737 62.7278 18.2453C62.7622 18.2064 62.7842 18.1646 62.8187 18.1455C63.2612 17.9041 63.7278 17.7295 64.2238 17.6333C64.2657 17.6253 64.309 17.6157 64.3515 17.6157C64.8387 17.6179 65.3252 17.6216 65.8116 17.626C65.8212 17.626 65.8395 17.6407 65.8395 17.648C65.8381 17.6744 65.8329 17.7008 65.8234 17.725C65.819 17.7361 65.8014 17.7427 65.7889 17.7485C65.2107 18.0046 64.681 18.3451 64.1505 18.6862C63.9817 18.7948 63.8151 18.9064 63.6464 19.0142C63.5737 19.0612 63.5004 19.026 63.4923 18.943C63.4784 18.8014 63.4659 18.6606 63.4512 18.5035L63.4519 18.5028Z" fill="black"/>
<path d="M63.4519 18.5028C63.1915 18.3949 62.9457 18.3737 62.7278 18.2453C62.7622 18.2064 62.7842 18.1646 62.8187 18.1455C63.2612 17.9041 63.7278 17.7295 64.2238 17.6333C64.2657 17.6253 64.309 17.6157 64.3515 17.6157C64.8387 17.6179 65.3252 17.6216 65.8116 17.626C65.8212 17.626 65.8395 17.6407 65.8395 17.648C65.8381 17.6744 65.8329 17.7008 65.8234 17.725C65.819 17.7361 65.8014 17.7427 65.7889 17.7485C65.2107 18.0046 64.681 18.3451 64.1505 18.6862C63.9817 18.7948 63.8151 18.9064 63.6464 19.0142C63.5737 19.0612 63.5004 19.026 63.4923 18.943C63.4784 18.8014 63.4659 18.6606 63.4512 18.5035L63.4519 18.5028Z" fill="black"/>
<path d="M58.9248 4.56986C58.9109 4.69826 58.908 4.82373 58.9417 4.95287C59.2506 6.14886 59.6505 7.31109 60.192 8.42343C60.6851 9.43672 61.3168 10.3532 62.0799 11.1808C63.066 12.2506 64.1725 13.1802 65.3707 14.0028C65.7486 14.2625 66.1389 14.5024 66.5241 14.7519C66.5836 14.7908 66.6459 14.8267 66.701 14.8715C66.7164 14.884 66.7142 14.9207 66.7142 14.9471C66.7142 14.9595 66.7039 14.9801 66.6951 14.9823C66.4434 15.0373 66.1918 15.0967 65.932 15.0975C65.6598 15.0982 65.3868 15.11 65.1146 15.0945C64.5695 15.0637 64.036 14.9566 63.5136 14.7989C62.4857 14.4892 61.5619 13.9807 60.7137 13.3299C59.8435 12.6622 59.0936 11.8749 58.4208 11.0113C58.2711 10.8191 58.1295 10.6202 57.9842 10.4251C57.4933 9.76397 57.1279 9.03757 56.8432 8.26641C56.5248 7.40501 56.2856 6.52086 56.0816 5.62644C55.8747 4.71807 55.7111 3.80091 55.5753 2.88007C55.4748 2.1999 55.3963 1.51606 55.3163 0.832949C55.2929 0.634841 55.2958 0.433064 55.2877 0.233488C55.2877 0.221014 55.2965 0.199736 55.3039 0.198269C55.3295 0.193133 55.367 0.184328 55.3802 0.196801C55.4851 0.293654 55.5878 0.394909 55.6883 0.495431C56.2269 1.03619 56.819 1.50872 57.4691 1.91007C57.7017 2.05388 57.9468 2.16248 58.2124 2.23658C58.9564 2.44276 59.6953 2.66875 60.4268 2.91822C61.5127 3.28949 62.5576 3.75615 63.5701 4.29471C64.6084 4.84648 65.6114 5.45841 66.585 6.1173C67.2872 6.59203 67.9439 7.12399 68.536 7.73299C68.8471 8.05216 69.1318 8.39262 69.3769 8.76535C69.6799 9.22614 69.8876 9.72434 69.9661 10.2739C70.013 10.6034 70.0182 10.9328 69.9786 11.26C69.9243 11.7018 69.8252 12.1332 69.6755 12.5544C69.4833 13.0973 69.2346 13.6117 68.9323 14.1011C68.8948 14.162 68.8508 14.2185 68.8083 14.2764C68.7796 14.3161 68.7004 14.3344 68.6512 14.3139C68.6248 14.3028 68.5991 14.2918 68.5727 14.2794C66.8052 13.437 65.1462 12.4252 63.6574 11.1463C62.8701 10.4706 62.1834 9.70233 61.5531 8.88128C60.6425 7.69483 59.867 6.42474 59.178 5.09888C59.0855 4.92132 58.9953 4.74375 58.905 4.56546C58.927 4.59407 58.9241 4.60141 58.8962 4.586C58.905 4.58013 58.9138 4.575 58.9226 4.56913L58.9248 4.56986Z" fill="black"/>
<path d="M74.8623 13.4707C74.1895 14.1597 73.4565 14.7782 72.6633 15.3256C72.0726 15.7335 71.4519 16.0901 70.7791 16.3477C70.2302 16.5575 69.6616 16.6999 69.0878 16.8253C68.6395 16.9237 68.1875 17 67.7333 17.0513C67.2931 17.1012 66.8528 17.1695 66.4067 17.1695C66.1918 17.1695 65.9768 17.1819 65.7625 17.1929C65.3326 17.2142 64.9026 17.215 64.4726 17.1944C64.2151 17.1827 63.9568 17.1753 63.6993 17.1658C63.5987 17.1621 63.4989 17.1563 63.3984 17.1496C63.2869 17.1423 63.2135 17.0814 63.171 16.9802C63.0506 16.6889 62.9296 16.3983 62.8107 16.107C62.7902 16.0556 62.8489 15.9962 62.9076 16.0072C63.2737 16.0725 63.6391 16.1437 64.0067 16.2009C64.3178 16.2494 64.6326 16.2721 64.9437 16.322C65.3832 16.3932 65.8278 16.4086 66.2703 16.446C66.9424 16.5025 67.6137 16.501 68.2873 16.4313C68.8207 16.3763 69.3263 16.2406 69.8237 16.0527C71.424 15.4496 72.9429 14.6865 74.367 13.7378C74.4742 13.6666 74.5798 13.5918 74.6921 13.5279C74.7383 13.5015 74.7992 13.4993 74.8535 13.4861L74.8623 13.4707Z" fill="black"/>
<path d="M74.8532 13.486C74.8525 13.478 74.8518 13.4694 74.851 13.4614C74.8301 13.4766 74.833 13.4809 74.8611 13.4722C74.8619 13.4715 74.8532 13.486 74.8532 13.486Z" fill="black"/>
</g>
<defs>
<clipPath id="clip0_1233_3345">
<rect width="125.631" height="38.8375" fill="white" transform="translate(0.391174 0.189941)"/>
</clipPath>
</defs>
</svg>
