<svg width="91" height="49" viewBox="0 0 91 49" fill="none" xmlns="http://www.w3.org/2000/svg">
<g clip-path="url(#clip0_1233_3370)">
<path d="M33.1475 39.785C32.5139 40.0101 31.8611 40.2738 31.1922 40.5793C30.5233 40.8848 29.8447 41.2225 29.1629 41.5923C28.4811 41.9654 27.8283 42.3577 27.2076 42.7726C26.5741 43.1874 25.9823 43.6119 25.4356 44.0525C24.8889 44.4899 24.4097 44.9305 24.0013 45.3678C23.5929 45.8052 23.2745 46.2361 23.043 46.6574C22.8114 47.0787 22.6956 47.4711 22.6956 47.8377C22.6956 48.0339 22.7535 48.2011 22.8693 48.3394C22.9851 48.4777 23.1459 48.5484 23.3549 48.5484C23.8051 48.5484 24.3679 48.3715 25.0369 48.0178C25.7058 47.664 26.4261 47.2074 27.1948 46.6478C27.9634 46.0882 28.7448 45.4579 29.5424 44.7568C30.34 44.0557 31.0957 43.3611 31.8096 42.6729C32.5236 41.9847 33.1539 41.3383 33.7006 40.7369C34.2473 40.1323 34.6558 39.6434 34.9259 39.264C34.3792 39.3862 33.7874 39.5598 33.1539 39.785H33.1475ZM38.338 34.7681C38.2415 35.1572 38.1033 35.5688 37.9264 36.003C37.7495 36.4371 37.534 36.8874 37.2768 37.3569C37.0195 37.8264 36.7397 38.2927 36.4374 38.7558C36.5467 38.743 36.6593 38.7333 36.7751 38.7269C36.8908 38.7205 36.9777 38.7173 37.0388 38.7173C37.2092 38.7173 37.296 38.8009 37.296 38.9745C37.296 39.071 37.1996 39.1193 37.0034 39.1193C36.9294 39.1193 36.8555 39.116 36.7751 39.1096C36.6947 39.1032 36.6271 39.1 36.566 39.1C36.5049 39.1 36.4406 39.1032 36.3731 39.1096C36.3055 39.116 36.2348 39.1257 36.164 39.1385C35.6045 39.9297 34.9774 40.7111 34.2891 41.483C33.6009 42.2548 32.8741 43.0073 32.1055 43.7373C31.3272 44.4802 30.5265 45.1684 29.7096 45.8084C28.8928 46.4452 28.0984 46.9983 27.3234 47.4679C26.5483 47.9374 25.8151 48.304 25.1205 48.5709C24.4258 48.8378 23.8051 48.9729 23.2552 48.9729C22.9754 48.9729 22.7182 48.8829 22.4866 48.6996C22.2551 48.5163 22.1393 48.2558 22.1393 47.9149C22.1393 47.4871 22.2647 47.0401 22.5155 46.5738C22.7664 46.1043 23.1073 45.6315 23.5382 45.1588C23.9724 44.6828 24.4805 44.2101 25.0658 43.7341C25.6511 43.2582 26.2846 42.8015 26.9664 42.3641C27.6128 41.9493 28.285 41.5569 28.986 41.1871C29.6871 40.8173 30.3946 40.4764 31.1053 40.1644C31.8193 39.8525 32.5204 39.5856 33.2086 39.3604C33.8968 39.1353 34.5528 38.9552 35.1735 38.8234C35.2829 38.6658 35.4308 38.4246 35.6109 38.103C35.7942 37.7814 35.9807 37.4341 36.1672 37.061C36.357 36.6912 36.5339 36.3246 36.6979 35.9644C36.8619 35.6042 36.9873 35.3051 37.0741 35.0607C36.7558 35.4756 36.4084 35.8969 36.0322 36.331C35.6559 36.762 35.2829 37.1575 34.9162 37.5177C34.5496 37.8779 34.2087 38.1705 33.8936 38.3957C33.5752 38.6208 33.3276 38.7333 33.1443 38.7333C33.0092 38.7333 32.9031 38.6594 32.8259 38.5147C32.7455 38.3699 32.7069 38.2059 32.7069 38.0226C32.7069 37.7171 32.7809 37.3666 32.9256 36.9646C33.0703 36.5626 33.2665 36.1477 33.5109 35.7232C33.7553 35.2955 34.0383 34.8806 34.3599 34.4722C34.6815 34.0638 35.0224 33.7004 35.3826 33.3756C35.7427 33.054 36.1029 32.7903 36.4696 32.5909C36.8362 32.3915 37.1867 32.2886 37.5308 32.2886C37.7752 32.2886 37.9843 32.3432 38.1611 32.4526C38.338 32.5619 38.4248 32.7259 38.4248 32.9446C38.4248 32.9929 38.412 33.0668 38.3895 33.1633C38.2448 32.9318 38.0422 32.816 37.7849 32.816C37.6144 32.816 37.4118 32.8803 37.1803 33.0089C36.9487 33.1376 36.7075 33.308 36.4599 33.5203C36.2091 33.7325 35.9518 33.9802 35.6816 34.26C35.4147 34.5397 35.1574 34.8324 34.913 35.1379C34.6815 35.4177 34.466 35.6943 34.2634 35.9708C34.0608 36.2442 33.8871 36.5079 33.7424 36.7555C33.5977 37.0064 33.4819 37.2347 33.3951 37.4405C33.3083 37.6463 33.2665 37.8136 33.2665 37.9326C33.2665 38.0548 33.2858 38.1159 33.3211 38.1159C33.4659 38.1159 33.6588 38.0258 33.8968 37.8522C34.1348 37.6753 34.3985 37.447 34.6911 37.1672C34.9838 36.8874 35.2829 36.569 35.5884 36.2152C35.8939 35.8615 36.1833 35.5077 36.4567 35.154C36.73 34.8002 36.9745 34.469 37.1867 34.157C37.399 33.8451 37.5565 33.5878 37.653 33.3788C37.6787 33.3177 37.7141 33.2823 37.7624 33.2694C37.8106 33.2566 37.8653 33.2501 37.9264 33.2501C37.9875 33.2501 38.0518 33.2598 38.1193 33.2791C38.1869 33.2984 38.2255 33.308 38.2383 33.308C38.3959 33.308 38.4763 33.4527 38.4763 33.7454C38.4763 34.038 38.4281 34.3789 38.3316 34.7681H38.338Z" fill="black"/>
<path d="M44.0753 36.4953C43.8083 36.7944 43.4481 37.132 42.9979 37.5083C42.657 37.801 42.2968 38.055 41.9206 38.2673C41.5443 38.4795 41.1905 38.5889 40.8625 38.5889C40.6599 38.5889 40.4702 38.5181 40.2997 38.3798C40.1261 38.2415 40.0392 38.0293 40.0392 37.7495C40.0392 37.5179 40.1389 37.251 40.3351 36.9455C40.5313 36.64 40.75 36.3409 40.9847 36.0418C41.2195 35.7427 41.4382 35.4694 41.6408 35.2185C41.8434 34.9677 41.9431 34.7844 41.9431 34.6622C41.9431 34.5786 41.8466 34.5335 41.6504 34.5335C41.4928 34.5335 41.3128 34.5464 41.1134 34.5689C40.914 34.5946 40.6921 34.6043 40.4541 34.6043C40.1904 34.6043 39.9749 34.5464 39.8045 34.4339C39.634 34.3213 39.5504 34.1573 39.5504 33.945C39.5504 33.81 39.6276 33.6266 39.7787 33.3887C39.9299 33.1507 40.1132 32.9191 40.3287 32.694C40.5441 32.4689 40.7725 32.2695 41.0137 32.0991C41.2549 31.9286 41.4736 31.8418 41.6697 31.8418C42.046 31.8418 42.2357 31.9447 42.2357 32.1537C42.2357 32.2148 42.1714 32.3435 42.0428 32.5364C41.9141 32.7326 41.7533 32.932 41.5572 33.141C41.3867 33.3372 41.2356 33.5141 41.1005 33.6717C40.9654 33.8293 40.9011 33.9225 40.9011 33.945C40.9011 34.0061 40.9719 34.0415 41.1101 34.0544C41.2484 34.0672 41.4221 34.0737 41.6311 34.0737C41.972 34.0737 42.2582 34.1444 42.4898 34.2859C42.7213 34.4274 42.8371 34.6622 42.8371 34.9934C42.8371 35.1767 42.7374 35.4083 42.5348 35.6913C42.3322 35.9743 42.1135 36.2541 41.8755 36.5371C41.6376 36.8201 41.4189 37.0774 41.2163 37.3186C41.0137 37.5565 40.914 37.7302 40.914 37.8428C40.914 38.0132 40.9879 38.1 41.1327 38.1C41.2774 38.1 41.5025 38.0261 41.7984 37.8813C42.0974 37.7366 42.4223 37.5212 42.776 37.2414C42.9593 37.0967 43.1458 36.9326 43.3324 36.7558C43.5221 36.5789 43.699 36.4149 43.863 36.2637C44.027 36.1126 44.1685 35.9775 44.2843 35.8617C44.4001 35.746 44.4772 35.6688 44.5126 35.6334C44.5737 35.6334 44.5995 35.672 44.5962 35.7524C44.5898 35.8328 44.5673 35.9003 44.5319 35.9614C44.4965 36.0225 44.3422 36.2026 44.0753 36.5017V36.4953Z" fill="black"/>
<path d="M48.4071 33.5621C48.1499 33.5621 47.8701 33.6296 47.5678 33.7647C47.2623 33.8997 46.96 34.0734 46.6641 34.2857C46.365 34.4979 46.0756 34.7423 45.7958 35.0157C45.516 35.289 45.2652 35.5688 45.0465 35.8486C44.8278 36.1284 44.6541 36.4018 44.5255 36.6719C44.3969 36.9388 44.3325 37.1704 44.3325 37.3665C44.3325 37.7074 44.503 37.8779 44.8439 37.8779C45.0143 37.8779 45.2201 37.8136 45.4549 37.6849C45.6929 37.5563 45.9437 37.3955 46.2042 37.1993C46.4647 37.0031 46.7284 36.7845 46.9889 36.54C47.2494 36.2956 47.4874 36.0576 47.7029 35.8261C47.9151 35.5945 48.0856 35.3855 48.2142 35.1958C48.3428 35.006 48.4071 34.8645 48.4071 34.7648C48.3814 34.7391 48.3493 34.7037 48.3074 34.6555C48.2656 34.6073 48.2431 34.5043 48.2431 34.3435C48.2431 34.1377 48.301 33.9705 48.4168 33.8515C48.5326 33.7293 48.5905 33.6553 48.5905 33.6328C48.5905 33.5846 48.5293 33.5589 48.4071 33.5589V33.5621ZM49.3398 34.9321C49.3044 34.9321 49.2497 34.9417 49.1758 34.961C49.1018 34.9803 49.0246 34.9932 48.9378 35.006C48.7545 35.3244 48.5101 35.6717 48.2078 36.0576C47.9022 36.4403 47.5646 36.7973 47.1947 37.1253C46.8217 37.4534 46.4358 37.7332 46.0338 37.9583C45.6318 38.1834 45.2427 38.2959 44.8632 38.2959C44.474 38.2959 44.146 38.1963 43.8855 37.9937C43.625 37.791 43.4932 37.492 43.4932 37.09C43.4932 36.8584 43.5543 36.5915 43.6765 36.286C43.7987 35.9805 43.9627 35.6717 44.1685 35.3534C44.3744 35.0382 44.6027 34.7262 44.8535 34.4207C45.1044 34.1152 45.3552 33.8419 45.6125 33.5974C45.8698 33.353 46.111 33.1601 46.3425 33.0121C46.5741 32.8674 46.7734 32.7935 46.9471 32.7935C47.0082 32.7935 47.0564 32.816 47.0918 32.8578C47.1272 32.8996 47.1658 32.9478 47.2012 33.0025C47.2365 33.0572 47.2719 33.1054 47.3009 33.1472C47.3298 33.189 47.3652 33.2115 47.4006 33.2115C47.4842 33.2115 47.6257 33.1858 47.8218 33.1376C48.018 33.0893 48.1949 33.0636 48.3525 33.0636C48.584 33.0636 48.7898 33.1536 48.9732 33.3273C49.1565 33.5042 49.2465 33.7936 49.2465 34.1956V34.305C49.2819 34.4014 49.3173 34.4979 49.3462 34.588C49.3751 34.678 49.4041 34.7359 49.4298 34.7616C49.5134 34.871 49.4845 34.9256 49.3398 34.9256V34.9321Z" fill="black"/>
<path d="M55.299 37.6559C55.2732 37.6817 55.2314 37.7396 55.1703 37.8296C55.1092 37.9197 55.0352 38.0129 54.9516 38.103C54.8648 38.193 54.7812 38.2766 54.6944 38.3506C54.6075 38.4246 54.5303 38.4599 54.4564 38.4599C54.2506 38.4599 54.0672 38.3345 53.9097 38.0837C53.7521 37.8328 53.6717 37.5434 53.6717 37.2154C53.6717 36.8616 53.7103 36.5754 53.7907 36.3567C53.8711 36.138 53.9322 35.9837 53.9836 35.9L53.9483 35.8647C53.9225 35.8904 53.8357 35.9772 53.6845 36.1284C53.5334 36.2795 53.3437 36.4628 53.1185 36.6751C52.8934 36.8873 52.6426 37.1189 52.3692 37.3697C52.0959 37.6206 51.8257 37.8489 51.5652 38.0547C51.3015 38.2605 51.0571 38.431 50.8256 38.5661C50.594 38.7011 50.4107 38.7687 50.2789 38.7687C50.1824 38.7687 50.073 38.7429 49.9605 38.6947C49.8447 38.6465 49.7386 38.5854 49.6421 38.5114C49.5456 38.4374 49.4652 38.357 49.4041 38.267C49.343 38.1769 49.3141 38.0805 49.3141 37.984C49.3141 37.7042 49.3913 37.3311 49.5424 36.8648C49.6936 36.3985 49.8736 35.9322 50.0827 35.4723C50.2049 35.2183 50.3335 34.9738 50.4654 34.7423C50.6005 34.5108 50.7291 34.3114 50.8577 34.1409C50.9864 33.9705 51.1118 33.8354 51.2308 33.7325C51.353 33.6296 51.4623 33.5781 51.5588 33.5781C51.6424 33.5781 51.7421 33.6553 51.8515 33.8065C51.9608 33.9576 52.0155 34.083 52.0155 34.1795C52.0155 34.2277 52.009 34.2599 51.9962 34.2696C51.8997 34.4046 51.7678 34.6169 51.6038 34.9063C51.4398 35.199 51.2758 35.5077 51.1118 35.8357C50.9478 36.1637 50.8031 36.4821 50.6808 36.7909C50.5586 37.0996 50.4975 37.3408 50.4975 37.508C50.4975 37.5916 50.5136 37.6817 50.5426 37.7717C50.5715 37.8618 50.6358 37.9068 50.7355 37.9068C50.8095 37.9068 50.9156 37.8714 51.0539 37.7975C51.1954 37.7235 51.353 37.627 51.5299 37.5048C51.7067 37.3826 51.8965 37.2411 52.0959 37.0739C52.2985 36.9098 52.5011 36.7298 52.7069 36.5336C53.0221 36.2281 53.3115 35.9226 53.5752 35.6106C53.8357 35.2987 54.0544 35.0542 54.2248 34.8709C54.2988 34.8098 54.3599 34.7584 54.4081 34.7166C54.4564 34.6748 54.4982 34.6523 54.5368 34.6523C54.6944 34.6523 54.8294 34.7487 54.9388 34.9449C55.0481 35.1411 55.1028 35.334 55.1028 35.5302C55.1028 35.8229 55.0481 36.0898 54.9388 36.3342C54.8294 36.5786 54.7748 36.8455 54.7748 37.1382C54.7748 37.2829 54.8552 37.3729 55.0127 37.4019C55.1703 37.4308 55.2925 37.4469 55.3794 37.4469C55.4276 37.4469 55.4533 37.4598 55.4533 37.4823C55.4533 37.4951 55.4051 37.5498 55.3086 37.6463L55.299 37.6559Z" fill="black"/>
<path d="M61.2098 33.9545C61.0329 33.8034 60.811 33.7262 60.5441 33.7262C60.4476 33.7262 60.3737 33.7326 60.3254 33.7455C59.9363 34.3919 59.5022 35.0994 59.0262 35.8648C58.5502 36.6334 58.0678 37.3956 57.5822 38.1481C57.5469 38.2092 57.5115 38.2607 57.4825 38.3025C57.4536 38.3443 57.4182 38.3957 57.3828 38.4568C57.5276 38.4311 57.7012 38.4022 57.9038 38.3668C58.1064 38.3314 58.3026 38.2864 58.4988 38.2382C58.695 38.1899 58.875 38.1385 59.0455 38.0838C59.2159 38.0291 59.3446 37.9777 59.4282 37.9294C59.5504 37.8555 59.7241 37.7236 59.9492 37.5274C60.1743 37.3313 60.3994 37.0901 60.6245 36.7974C60.8496 36.5048 61.049 36.1767 61.2195 35.8101C61.3899 35.4435 61.4767 35.0608 61.4767 34.6588C61.4767 34.3436 61.3867 34.1089 61.213 33.9545H61.2098ZM57.4632 35.4982C56.8972 36.0577 56.3441 36.6816 55.8102 37.3634C55.2732 38.0452 54.7683 38.7624 54.2923 39.5117C53.8164 40.261 53.3983 40.9814 53.0317 41.6696C52.665 42.3578 52.3788 42.9817 52.173 43.5445C51.9672 44.104 51.8611 44.5446 51.8611 44.8598C51.8611 44.9691 51.8643 45.0656 51.8707 45.1524C51.8771 45.2361 51.9093 45.2811 51.9704 45.2811C51.9833 45.2811 52.0605 45.1782 52.1987 44.9691C52.3402 44.7633 52.5203 44.4835 52.7487 44.1362C52.9738 43.7889 53.2343 43.3869 53.5269 42.9302C53.8196 42.4736 54.1251 41.9879 54.4403 41.4766C54.7586 40.9653 55.0834 40.4443 55.4179 39.9137C55.7524 39.383 56.074 38.8749 56.3763 38.3861C56.8265 37.6657 57.2896 36.9453 57.7655 36.2185C58.2415 35.4949 58.6853 34.8196 59.1002 34.1989C58.576 34.5044 58.0325 34.9354 57.4632 35.4982ZM61.9688 35.6075C61.8337 35.913 61.6794 36.2057 61.5025 36.4855C61.3256 36.7652 61.1519 37.0064 60.9815 37.2058C60.811 37.4052 60.6953 37.5242 60.6342 37.5628L60.6695 37.6721C60.7178 37.6464 60.7982 37.611 60.9075 37.5628C61.0169 37.5146 61.1326 37.4663 61.2548 37.4181C61.3771 37.3698 61.4928 37.3248 61.6022 37.2798C61.7115 37.238 61.7983 37.1962 61.8594 37.1608C61.9077 37.1254 61.9495 37.1061 61.9881 37.1061C62.0492 37.1061 62.0781 37.1415 62.0781 37.2155C62.0781 37.2894 62.0299 37.3602 61.9302 37.4342C61.882 37.4824 61.7212 37.595 61.4446 37.7718C61.1712 37.9487 60.8432 38.132 60.4669 38.3186C60.0875 38.5083 59.6822 38.6787 59.2513 38.8299C58.8172 38.981 58.4184 39.0582 58.055 39.0582C57.907 39.0582 57.7366 39.0582 57.5436 39.0582C57.3475 39.0582 57.1706 39.0454 57.013 39.0228C56.5242 39.7657 56.0032 40.5536 55.4501 41.3898C54.8969 42.2259 54.3727 42.9945 53.8775 43.702C53.3854 44.4096 52.9577 44.9949 52.5975 45.458C52.2373 45.9211 52.009 46.1526 51.9125 46.1526C51.7903 46.1526 51.6745 46.0561 51.5652 45.8599C51.4559 45.6638 51.4012 45.4322 51.4012 45.1653C51.4012 44.7022 51.5202 44.1298 51.7581 43.448C51.9961 42.7662 52.3177 42.0362 52.7262 41.2644C53.1346 40.4893 53.6073 39.7014 54.1412 38.8974C54.6782 38.0934 55.2442 37.3409 55.8424 36.6398C56.4406 35.9387 57.0516 35.3213 57.6787 34.7842C58.3058 34.2472 58.9136 33.858 59.4957 33.6136C59.8238 33.128 60.1035 32.7228 60.3351 32.398C60.5666 32.0764 60.7114 31.8706 60.7725 31.787C60.8689 31.6648 60.9751 31.5522 61.0844 31.4493C61.1937 31.3464 61.3095 31.2949 61.4317 31.2949C61.5153 31.2949 61.5604 31.3303 61.5604 31.4043C61.5604 31.4782 61.4703 31.6873 61.287 32.0346C61.1037 32.3819 60.8561 32.8225 60.5377 33.3596C60.5634 33.3596 60.5795 33.3563 60.5924 33.3499C60.6052 33.3435 60.6213 33.3403 60.647 33.3403C61.6568 33.3403 62.165 33.8227 62.165 34.7842C62.165 35.0286 62.0974 35.302 61.9656 35.6075H61.9688Z" fill="black"/>
<path d="M29.0214 37.7488H1.0523V9.83109H29.0214V37.7488ZM0.3255 9.46126V38.1154C0.328716 38.3148 0.489514 38.4756 0.688903 38.4756H29.3848C29.5874 38.4756 29.7482 38.3115 29.7482 38.1122V9.46448C29.7482 9.26187 29.5842 9.10107 29.3848 9.10107H0.688903C0.489514 9.10107 0.3255 9.26187 0.3255 9.46126H0.3255Z" fill="black"/>
<path d="M37.4472 29.9181H8.7513C8.54869 29.9181 8.38789 29.7541 8.38789 29.5547V19.7139C8.38789 19.5113 8.55191 19.3505 8.7513 19.3505H16.0644C16.267 19.3505 16.4278 19.5145 16.4278 19.7139C16.4278 19.9165 16.2638 20.0773 16.0644 20.0773H9.11791V29.1913H37.087V1.27368H9.11791V9.47113C9.11791 9.67374 8.9539 9.83453 8.75451 9.83453C8.55191 9.83453 8.39111 9.67052 8.39111 9.47113V0.910277C8.39111 0.707672 8.55512 0.546875 8.75451 0.546875H37.4504C37.653 0.546875 37.8138 0.710888 37.8138 0.910277V29.5579C37.8138 29.7605 37.6498 29.9213 37.4504 29.9213L37.4472 29.9181Z" fill="black"/>
<path d="M19.5247 18.968C19.1131 18.968 18.7786 19.3025 18.7786 19.7141C18.7786 20.1258 19.1131 20.4602 19.5247 20.4602C19.9363 20.4602 20.2708 20.1258 20.2708 19.7141C20.2708 19.3025 19.9363 18.968 19.5247 18.968ZM19.5247 21.187C18.7111 21.187 18.0486 20.5245 18.0486 19.7141C18.0486 18.9005 18.7111 18.2412 19.5247 18.2412C20.3383 18.2412 21.0008 18.9037 21.0008 19.7141C21.0008 20.5277 20.3383 21.187 19.5247 21.187Z" fill="black"/>
<path d="M45.8279 30.1563C45.4066 30.1563 44.9886 30.0791 44.5673 29.9247C44.146 29.7704 43.7697 29.5388 43.432 29.2333C43.0976 28.9246 42.8242 28.5193 42.612 28.0144C42.4029 27.5095 42.2968 26.9082 42.2968 26.2071V4.28075C42.2968 3.57967 42.4029 2.97829 42.612 2.47338C42.821 1.96848 43.0944 1.55684 43.432 1.23524C43.7665 0.913647 44.146 0.675667 44.5673 0.521301C44.9564 0.379799 45.3455 0.302617 45.7347 0.292969H46.5933C46.9825 0.302617 47.3716 0.379799 47.7607 0.521301C48.182 0.675667 48.5583 0.913647 48.8959 1.23524C49.2336 1.55684 49.5038 1.97169 49.716 2.47338C49.925 2.97829 50.0312 3.57967 50.0312 4.28075V12.3882H47.6385V4.61842C47.6385 3.77906 47.5067 3.18411 47.2397 2.83357C46.9728 2.48303 46.6576 2.30937 46.2942 2.30937H46.0434C45.68 2.30937 45.3648 2.48625 45.0979 2.83357C44.831 3.18411 44.6991 3.77906 44.6991 4.61842V25.8308C44.6991 26.6702 44.831 27.2651 45.0979 27.6157C45.3648 27.9662 45.68 28.1399 46.0434 28.1399H46.2942C46.6576 28.1399 46.9728 27.9662 47.2397 27.6157C47.5067 27.2651 47.6385 26.6702 47.6385 25.8308V20.0357H46.2106V18.0193H50.0312V29.9054H48.8541L48.5615 28.8988C47.7221 29.7382 46.9085 30.1595 46.1238 30.1595H45.8311L45.8279 30.1563Z" fill="black"/>
<path d="M53.8903 19.9487H56.3698L55.1928 7.3068H55.1092L53.8903 19.9487ZM56.537 21.7561H53.7231L52.9673 29.9053H50.9091L53.6813 0.546875H56.7461L59.6018 29.9053H57.2928L56.537 21.7561Z" fill="black"/>
<path d="M66.0723 2.56035H63.342V29.9023H60.9461V2.56035H58.1739V0.543945H66.0723V2.56035Z" fill="black"/>
<path d="M74.2183 2.56035H71.488V29.9023H69.0953V2.56035H66.3231V0.543945H74.2183V2.56035Z" fill="black"/>
<path d="M77.579 2.56035V14.3211H80.5184V16.1252H77.579V27.8859H81.57V29.9023H75.1831V0.543945H81.3995V2.56035H77.579Z" fill="black"/>
<path d="M87.0274 14.3629C87.7832 14.3629 88.1626 13.6618 88.1626 12.2629V4.8694C88.1626 4.05898 88.0308 3.47046 87.7639 3.10384C87.4969 2.74044 87.1818 2.55713 86.8184 2.55713H85.2233V14.3597H87.0306L87.0274 14.3629ZM90.5553 12.4301C90.5553 13.3273 90.4138 13.9898 90.134 14.424C89.8542 14.8581 89.5037 15.1444 89.0824 15.2859C89.5037 15.3984 89.851 15.6718 90.134 16.1059C90.4138 16.5401 90.5553 17.2058 90.5553 18.0998V25.1556C90.5553 26.8086 90.61 27.9696 90.7225 28.6417C90.8351 29.3138 90.9187 29.7351 90.9734 29.9023H88.5807C88.4135 29.5647 88.3009 29.034 88.243 28.3072C88.1852 27.5804 88.1594 26.5288 88.1594 25.1556V18.3088C88.1594 16.881 87.7799 16.167 87.0242 16.167H85.2168V29.9023H82.8242V0.543945H87.0242C87.9761 0.543945 88.8026 0.871972 89.5037 1.53124C90.2048 2.19051 90.5553 3.17781 90.5553 4.49313V12.4301Z" fill="black"/>
</g>
<defs>
<clipPath id="clip0_1233_3370">
<rect width="90.6519" height="48.6766" fill="white" transform="translate(0.325104 0.292969)"/>
</clipPath>
</defs>
</svg>
