<svg width="57" height="68" viewBox="0 0 57 68" fill="none" xmlns="http://www.w3.org/2000/svg">
<g clip-path="url(#clip0_1233_3639)">
<path fill-rule="evenodd" clip-rule="evenodd" d="M53.9509 0C55.1009 0.0519349 56.0209 1.00902 56.0209 2.17385V65.5567C56.0209 66.7512 55.0415 67.7305 53.847 67.7305H3.11402C1.91951 67.7305 0.94017 66.7512 0.94017 65.5567V2.17385C0.94017 1.01644 1.86016 0.0593542 3.01015 0H53.9509V0ZM4.88722 2.12933H52.0664C53.1793 2.12933 54.0918 3.0419 54.0918 4.15479V63.5757C54.0918 64.6886 53.1793 65.6012 52.0664 65.6012H4.88722C3.77433 65.6012 2.86176 64.6886 2.86176 63.5757V4.15479C2.86176 3.0419 3.77433 2.12933 4.88722 2.12933Z" fill="black"/>
<path fill-rule="evenodd" clip-rule="evenodd" d="M6.2962 3.59082H50.6709C51.717 3.59082 52.5702 4.44404 52.5702 5.49015V62.2327C52.5702 63.2789 51.717 64.1321 50.6709 64.1321H6.2962C5.25008 64.1321 4.39687 63.2789 4.39687 62.2327V5.49015C4.39687 4.44404 5.25008 3.59082 6.2962 3.59082Z" fill="black"/>
<path fill-rule="evenodd" clip-rule="evenodd" d="M6.3259 47.9654H50.6412C50.9231 47.9654 51.1457 48.1954 51.1457 48.4699V60.3037C51.1457 60.5856 50.9157 60.8082 50.6412 60.8082H6.3259C6.04397 60.8082 5.82139 60.5782 5.82139 60.3037V48.4699C5.82139 48.188 6.05139 47.9654 6.3259 47.9654ZM5.98461 47.6538H50.9751C51.2644 47.6538 51.5093 47.8912 51.5093 48.188V60.593C51.5093 60.8824 51.2719 61.1272 50.9751 61.1272H5.98461C5.69526 61.1272 5.45042 60.8898 5.45042 60.593V48.188C5.45042 47.8986 5.68784 47.6538 5.98461 47.6538Z" fill="white"/>
<path d="M42.6061 56.0304L45.0322 55.8672C45.0841 56.2827 45.1954 56.6017 45.3512 56.8169C45.6183 57.173 45.9893 57.3436 46.479 57.3436C46.8425 57.3436 47.1244 57.2546 47.3173 57.0765C47.5177 56.891 47.6141 56.6833 47.6141 56.4459C47.6141 56.2159 47.5251 56.0156 47.3322 55.8375C47.1467 55.6595 46.709 55.4888 46.0264 55.333C44.9061 55.0659 44.1048 54.7172 43.63 54.272C43.1477 53.8343 42.9103 53.2704 42.9103 52.5879C42.9103 52.1427 43.0364 51.7124 43.2813 51.3192C43.5261 50.9185 43.8971 50.6069 44.3941 50.3769C44.8912 50.1469 45.5664 50.0356 46.427 50.0356C47.4806 50.0356 48.2893 50.2434 48.8457 50.6589C49.4022 51.0743 49.7286 51.7347 49.8325 52.6472L47.4286 52.7956C47.3619 52.395 47.2283 52.1056 47.028 51.9276C46.8202 51.7495 46.5383 51.653 46.1822 51.653C45.8854 51.653 45.6628 51.7198 45.507 51.8534C45.3587 51.9869 45.2845 52.1501 45.2845 52.343C45.2845 52.484 45.3438 52.6027 45.4699 52.7214C45.5886 52.8401 45.8706 52.944 46.3232 53.0404C47.4435 53.2927 48.2373 53.5524 48.7196 53.8121C49.2018 54.0717 49.558 54.3982 49.7731 54.784C49.9957 55.1698 50.0996 55.6001 50.0996 56.0823C50.0996 56.6462 49.9512 57.1581 49.6618 57.633C49.3651 58.1078 48.957 58.4639 48.4302 58.7088C47.9035 58.9536 47.2431 59.0723 46.4419 59.0723C45.0396 59.0723 44.0603 58.783 43.5187 58.2117C42.9771 57.6404 42.6729 56.9133 42.5987 56.0304H42.6061ZM38.6071 55.5853L37.702 52.4395L36.7968 55.5853H38.6071ZM39.1487 57.4772H36.2552L35.8397 58.9165H33.2281L36.3442 50.1618H39.1413L42.2426 58.9165H39.5642L39.1487 57.4772ZM24.926 50.1692H27.5969L29.4592 56.4682L31.2991 50.1692H33.8959L30.8243 58.9239H28.0569L24.9334 50.1692H24.926ZM21.936 55.5853L21.0309 52.4395L20.1257 55.5853H21.936ZM22.4776 57.4772H19.5841L19.1686 58.9165H16.557L19.6731 50.1618H22.4702L25.5715 58.9165H22.8931L22.4776 57.4772ZM7.78004 50.1692H10.3323V53.2259H13.1293V50.1692H15.6964V58.9239H13.1293V55.3775H10.3323V58.9239H7.78004V50.1692Z" fill="#FEFEFE"/>
<path d="M15.177 5.55713L25.6679 7.58259L23.3679 19.4534L34.8604 21.6792L37.1603 9.80837L47.7031 11.8487L41.1222 45.8512L30.5794 43.8109L33.243 30.0407L21.7505 27.815L19.087 41.5851L8.59613 39.5522L15.177 5.55713Z" fill="white"/>
</g>
<defs>
<clipPath id="clip0_1233_3639">
<rect width="55.0848" height="67.7305" fill="white" transform="translate(0.937439)"/>
</clipPath>
</defs>
</svg>
