<svg width="107" height="54" viewBox="0 0 107 54" fill="none" xmlns="http://www.w3.org/2000/svg">
<g clip-path="url(#clip0_1233_3479)">
<path fill-rule="evenodd" clip-rule="evenodd" d="M10.6793 49.9761L14.6235 53.9203L34.5946 33.952L30.7564 30.1138L10.6793 49.9761Z" fill="black"/>
<path fill-rule="evenodd" clip-rule="evenodd" d="M11.6743 35.8331L15.6185 39.7773L35.5896 19.8089L31.7514 15.9707L11.6743 35.8331Z" fill="black"/>
<path fill-rule="evenodd" clip-rule="evenodd" d="M1.22803 32.6363L5.17223 36.5805L25.1406 16.6121L21.3051 12.7739L1.22803 32.6363Z" fill="black"/>
<path fill-rule="evenodd" clip-rule="evenodd" d="M0.518188 20.733L4.46239 24.6772L24.4308 4.70879L20.5926 0.870605L0.518188 20.733Z" fill="black"/>
<path d="M54.949 25.2126H52.2471V20.4502H47.9413V25.2126H45.2394V13.3909H47.9413V17.9168H52.2471V13.3909H54.949V25.2126ZM59.8636 25.2126H57.1454L62.06 13.3909H64.4738L69.3884 25.2126H66.4989L65.5203 22.7308H60.8422L59.8636 25.2126ZM64.5091 20.1974L63.1908 16.8539L61.8561 20.1974H64.5064H64.5091ZM77.5813 13.3909H80.2995L75.6894 25.2126H73.6126L68.8828 13.3909H71.7724L74.7434 21.1923L77.5813 13.3909ZM82.5122 25.2126H79.7939L84.7086 13.3909H87.1251L92.0397 25.2126H89.1529L88.1744 22.7308H83.4962L82.5176 25.2126H82.5122ZM87.1577 20.1974L85.8394 16.8539L84.5047 20.1974H87.155H87.1577ZM98.5744 21.9697C98.5744 21.475 97.9954 20.9504 96.8347 20.3986C96.4977 20.2518 96.2014 20.1131 95.9486 19.9854C95.6958 19.8549 95.4131 19.6755 95.1032 19.4445C94.7933 19.2134 94.5405 18.9742 94.3421 18.7268C94.1437 18.4795 93.9751 18.1696 93.8365 17.7972C93.6951 17.4248 93.6299 17.0252 93.6435 16.5984C93.6435 15.6525 93.9914 14.8479 94.69 14.1819C95.3886 13.5186 96.3101 13.187 97.4599 13.187C98.9686 13.187 100.129 13.6192 100.939 14.4863L99.4878 16.5142C99.1616 16.2097 98.8762 16.0004 98.6342 15.889C98.3923 15.7775 98.0797 15.7204 97.6964 15.7204C97.324 15.7204 97.0359 15.7993 96.8266 15.9569C96.6173 16.1146 96.514 16.3293 96.514 16.5984C96.514 16.9029 96.6363 17.172 96.8782 17.4085C97.1202 17.645 97.4246 17.838 97.7888 17.9902C98.1558 18.1424 98.5527 18.33 98.9795 18.5556C99.4062 18.7812 99.8031 19.0204 100.17 19.2732C100.537 19.526 100.839 19.8821 101.083 20.336C101.325 20.7927 101.448 21.3255 101.448 21.9317C101.448 22.9456 101.059 23.7774 100.282 24.4325C99.5258 25.0848 98.5636 25.411 97.3947 25.411C96.5385 25.411 95.7284 25.2371 94.9619 24.8864C94.1844 24.5385 93.6625 24.0655 93.3907 23.4675L94.9265 21.6272C95.231 22.0214 95.6142 22.3285 96.0763 22.546C96.5385 22.7662 97.0006 22.8749 97.4627 22.8749C97.8106 22.8749 98.0851 22.7934 98.2809 22.6303C98.4793 22.4672 98.5771 22.2443 98.5771 21.9616L98.5744 21.9697Z" fill="black"/>
<path d="M45.0247 41.3673V29.6652C46.3349 29.5972 47.5228 29.5646 48.5883 29.5646C49.8877 29.5646 50.8717 29.8256 51.5377 30.3475C52.2036 30.8694 52.538 31.5843 52.538 32.4922C52.538 33.6475 52.0895 34.52 51.1924 35.1153V35.1479C51.698 35.3382 52.103 35.6644 52.4102 36.1238C52.7174 36.5832 52.8723 37.154 52.8723 37.839C52.8723 39.016 52.4564 39.9185 51.6274 40.5464C50.8092 41.1635 49.7327 41.4706 48.4008 41.4706C46.8432 41.4706 45.7178 41.4353 45.022 41.37L45.0247 41.3673ZM48.7569 36.643H47.7131V38.8448C47.9604 38.9127 48.2621 38.9454 48.621 38.9454C49.662 38.9454 50.184 38.5295 50.184 37.7004C50.184 36.9936 49.7083 36.6403 48.7541 36.6403L48.7569 36.643ZM48.5557 32.0872C48.3546 32.0872 48.0746 32.1089 47.7158 32.1551V34.2917H48.6074C49.4364 34.2917 49.8523 33.9111 49.8523 33.1473C49.8523 32.8238 49.73 32.5656 49.4826 32.3753C49.2353 32.185 48.9281 32.0899 48.5584 32.0899L48.5557 32.0872ZM63.2153 41.3999H56.069V29.6326H63.0468V32.1551H58.7601V34.2237H62.5439V36.7463H58.7601V38.8828H63.2153V41.4054V41.3999ZM68.5948 32.1524H65.0637V29.6299H74.8141V32.1524H71.2831V41.3999H68.592V32.1524H68.5948ZM75.8226 35.5149C75.8226 33.7779 76.3989 32.3318 77.5541 31.1766C78.7203 30.0104 80.2262 29.4287 82.0773 29.4287C83.9149 29.4287 85.4126 29.9832 86.5652 31.0923C87.7422 32.2013 88.3293 33.6746 88.3293 35.5149C88.3293 37.2845 87.734 38.7415 86.5462 39.8859C85.3692 41.0275 83.8795 41.6011 82.0746 41.6011C80.2479 41.6011 78.7448 41.0466 77.5677 39.9375C76.4016 38.8285 75.8199 37.3552 75.8199 35.5149H75.8226ZM78.6795 35.5149C78.6795 36.5125 79.0111 37.3579 79.6717 38.0538C80.3213 38.7388 81.1232 39.0785 82.0746 39.0785C83.1511 39.0785 83.9856 38.7469 84.5781 38.0864C85.1734 37.4014 85.4697 36.5451 85.4697 35.5149C85.4697 34.4493 85.1435 33.5931 84.4939 32.9434C83.8333 32.2829 83.026 31.9513 82.0719 31.9513C81.0852 31.9513 80.2724 32.2829 79.6336 32.9434C78.9948 33.604 78.6741 34.4629 78.6741 35.5149H78.6795ZM101.442 29.6299V41.3972H99.2894L93.7088 34.3379V41.3972H91.1862V29.6299H93.3391L98.9197 36.7245V29.6299H101.442Z" fill="black"/>
<path d="M104.726 40.0298V40.6142H104.343V38.9424C104.432 38.9424 104.533 38.9425 104.644 38.9397C104.753 38.937 104.843 38.937 104.911 38.937C105.324 38.937 105.528 39.1164 105.528 39.4725C105.528 39.7008 105.433 39.8639 105.245 39.9536L105.732 40.6142H105.269L104.864 40.0298H104.723H104.726ZM104.892 39.2958C104.889 39.2958 104.883 39.2958 104.87 39.2958C104.856 39.2958 104.837 39.2985 104.81 39.2985C104.783 39.2985 104.756 39.2985 104.723 39.2985V39.6682H104.862C105.036 39.6682 105.123 39.603 105.123 39.4752C105.123 39.3556 105.047 39.2931 104.892 39.2931V39.2958Z" fill="black"/>
<path d="M104.892 38.2388C105.316 38.2388 105.702 38.41 105.979 38.69C106.259 38.9673 106.43 39.3533 106.43 39.7773C106.43 40.2014 106.259 40.5874 105.979 40.8646C105.702 41.1419 105.316 41.3158 104.892 41.3158C104.468 41.3158 104.082 41.1446 103.804 40.8646C103.524 40.5874 103.353 40.2014 103.353 39.7773C103.353 39.3533 103.524 38.9673 103.804 38.69C104.082 38.41 104.468 38.2388 104.892 38.2388ZM105.77 38.8993C105.544 38.6737 105.234 38.5351 104.892 38.5351C104.549 38.5351 104.239 38.6737 104.014 38.8993C103.788 39.1249 103.649 39.4348 103.649 39.7773C103.649 40.1198 103.788 40.4297 104.014 40.6553C104.239 40.8809 104.549 41.0196 104.892 41.0196C105.234 41.0196 105.544 40.8809 105.77 40.6553C105.995 40.4324 106.134 40.1198 106.134 39.7773C106.134 39.4348 105.995 39.1249 105.77 38.8993Z" fill="black"/>
</g>
<defs>
<clipPath id="clip0_1233_3479">
<rect width="105.912" height="53.0496" fill="white" transform="translate(0.518188 0.870605)"/>
</clipPath>
</defs>
</svg>
