<svg width="82" height="48" viewBox="0 0 82 48" fill="none" xmlns="http://www.w3.org/2000/svg">
<g clip-path="url(#clip0_1233_3391)">
<path fill-rule="evenodd" clip-rule="evenodd" d="M68.1389 7.74822C61.0216 3.53839 51.1581 0.925293 40.247 0.925293C18.5552 0.925293 0.974182 11.2559 0.974182 23.9958C0.974182 34.5162 12.9327 43.3775 29.2907 46.1632C33.2542 46.9475 37.5037 47.375 41.9145 47.375C63.5469 47.375 81.1393 37.1802 81.1393 24.6441C81.1393 17.943 76.1113 11.9127 68.1361 7.74822H68.1389Z" fill="black"/>
<path fill-rule="evenodd" clip-rule="evenodd" d="M51.9117 46.1092C45.7343 46.7321 38.9793 46.4121 33.3341 45.56C26.6924 44.6399 20.4611 42.2703 15.5492 39.425C9.18491 35.7333 5.16476 30.7222 5.16476 25.3403C5.16476 19.9528 8.64983 15.1513 15.5492 11.25C22.6835 7.22139 32.1875 4.99898 42.3256 4.99898C52.4553 4.99898 61.9847 7.19591 69.0936 11.25C75.4805 14.8908 79.5403 19.9528 79.4865 25.3403C79.4497 28.4744 77.1537 33.9044 69.3569 38.0066C61.2911 42.2391 53.8368 42.8704 49.6468 43.1252C42.2011 43.5669 27.972 42.2816 20.6508 39.3429C25.2796 41.8116 39.8003 44.4615 48.4691 44.1671C56.8066 43.8811 63.9608 42.3778 70.4836 38.9182C76.2307 35.8748 81.1115 30.8043 81.1115 25.3403C81.1115 13.2261 63.7456 3.41357 42.3228 3.41357C20.8971 3.41357 3.53406 13.2233 3.53406 25.3403C3.53406 37.4489 20.9 47.2671 42.3228 47.2671C48.8683 47.2671 54.522 46.415 59.7085 44.8635C56.784 45.6109 54.8843 45.8148 51.9117 46.1092Z" fill="white"/>
<path fill-rule="evenodd" clip-rule="evenodd" d="M21.9871 17.5549C23.7594 17.7927 25.6251 17.1642 26.2054 15.6241C26.6443 14.4549 25.7921 13.2092 24.0198 12.9855C22.2532 12.7647 20.0053 13.4045 19.643 15.0607C19.391 16.2215 20.447 17.3482 21.9871 17.5521V17.5549ZM64.2949 24.2759H63.5616C62.0414 24.2759 61.3959 23.2595 61.6648 22.3876C61.8998 21.6373 62.534 21.2693 63.2502 21.1419C64.0146 21.0145 64.646 21.0485 65.2745 21.1334L64.2949 24.2759ZM63.1936 18.5713C61.6535 18.71 60.6909 18.9223 59.584 19.3328C58.109 19.8792 57.1832 20.604 56.6821 21.6798C55.7988 23.5936 56.8123 25.1451 57.506 25.7452L53.3216 33.6185C54.6664 33.157 55.5072 32.8315 57.186 31.9453C58.2477 31.3904 59.7623 30.3656 60.5041 29.6068C60.9514 29.1454 61.3619 28.3951 61.4129 27.8912C61.5006 27.0645 61.1949 26.5578 60.8183 26.1756C61.7045 26.3369 62.8709 26.8833 63.4569 27.3816C64.0146 27.8516 64.6091 28.4659 65.1131 29.4058C65.5604 30.2438 66.2144 30.4137 66.8882 30.4137H67.4572L70.9395 19.0242C68.8388 18.5967 65.215 18.4014 63.1908 18.5798L63.1936 18.5713ZM37.8667 18.7157C36.7597 18.7157 35.95 19.0582 35.3527 19.5112C34.6279 20.0576 34.1438 20.621 33.8126 21.7138L32.85 24.8563H31.0834C30.5738 24.8563 30.2058 24.6185 29.9849 24.2844C29.7613 23.9588 29.7103 23.5681 29.8066 23.1661L31.1627 18.727L29.0733 18.7185C28.0513 18.7185 27.1652 19.1205 26.514 19.6499C25.7072 20.2982 25.3278 21.1192 25.1862 21.6062L24.7503 23.0076C24.5747 23.52 24.3681 24.7402 25.1325 25.8245C25.945 26.9768 26.9812 27.257 27.9041 27.257H30.3615C31.1117 27.257 31.5024 27.0702 31.8846 26.7701C32.1167 26.5917 32.3121 26.3426 32.4791 26.0425L31.4996 29.253C31.4118 29.5361 31.4769 29.8248 31.6326 30.0315C31.8025 30.2552 32.0375 30.408 32.3659 30.408H36.27L39.8569 18.7185H37.8639L37.8667 18.7157ZM56.1527 18.7157L53.4263 27.6307C53.1149 28.5197 52.6308 29.185 51.7503 29.7569C50.7821 30.3797 50.0517 30.4052 49.2363 30.4052H47.4528L48.823 25.9208H44.9727L44.4518 27.6279C44.1404 28.5169 43.6478 29.1822 42.7673 29.7541C41.7962 30.3769 41.0715 30.4024 40.2561 30.4024H38.4725L41.1281 21.7194C41.448 20.6606 41.935 20.0463 42.6682 19.5084C43.2401 19.0724 43.9875 18.7128 45.1369 18.7128H47.1753L45.7909 23.2369H49.6355L50.1083 21.7166C50.4282 20.6578 50.9208 20.0434 51.6456 19.5055C52.2203 19.0695 52.9677 18.71 54.1143 18.71H56.1555L56.1527 18.7157ZM18.7965 19.5537C19.5694 18.9818 20.4102 18.7157 21.285 18.7157H24.5294L20.9991 30.2778C20.43 32.1407 19.0428 33.4628 17.1063 33.7459C15.1812 34.029 13.8534 33.0042 13.8534 33.0042L17.3073 21.7081C17.6187 20.7427 18.0576 20.0944 18.7965 19.5565V19.5537Z" fill="#FEFEFE"/>
</g>
<defs>
<clipPath id="clip0_1233_3391">
<rect width="80.1679" height="46.4498" fill="white" transform="translate(0.977661 0.925293)"/>
</clipPath>
</defs>
</svg>
