<svg width="84" height="30" viewBox="0 0 84 30" fill="none" xmlns="http://www.w3.org/2000/svg">
<g clip-path="url(#clip0_1233_3976)">
<path fill-rule="evenodd" clip-rule="evenodd" d="M64.6013 7.2998C68.1452 7.2998 70.4242 11.1817 70.4242 15.8674C70.4242 20.5546 66.7 24.6829 63.156 24.6829C59.6121 24.6829 57.3331 20.9257 57.3331 16.2385C57.3331 11.5513 61.0573 7.2998 64.6013 7.2998ZM64.3098 12.5594C65.3419 12.5594 66.0044 13.6891 66.0044 15.0532C66.0044 16.4173 64.9212 17.6191 63.8892 17.6191C62.8571 17.6191 62.1946 16.5254 62.1946 15.1613C62.1946 13.7972 63.2777 12.5594 64.3098 12.5594Z" fill="black"/>
<path fill-rule="evenodd" clip-rule="evenodd" d="M51.0881 6.23623C53.4392 1.59863 48.6093 -0.46102 46.5827 2.58114C44.6282 7.73402 43.7479 14.3426 45.3073 24.2578C46.9478 30.4488 56.5024 28.5934 56.8689 19.4129C56.5039 13.8334 53.8899 11.1082 48.8782 11.4222L51.0881 6.23623ZM52.1082 19.5917C52.2118 16.88 50.7275 15.6076 49.6534 16.1619C48.5823 16.7148 48.2698 20.5712 49.3635 21.4365C50.2964 22.1756 51.8858 21.5807 52.1097 19.5917H52.1082Z" fill="black"/>
<path fill-rule="evenodd" clip-rule="evenodd" d="M29.5406 23.4287C27.9196 24.8093 25.8629 25.5335 23.3346 25.5545C14.0759 24.2911 14.6708 9.32065 21.7617 6.64054C27.7979 5.70461 31.2817 11.7979 28.7323 15.0564L21.634 19.1787C22.3506 21.3721 23.922 21.6891 26.3948 20.029C31.3403 16.4115 32.9388 19.7646 29.5406 23.4287ZM25.1629 12.1435C24.0917 10.0072 21.6159 11.529 21.5919 15.2457L25.5024 12.9502L25.1629 12.142V12.1435Z" fill="black"/>
<path fill-rule="evenodd" clip-rule="evenodd" d="M37.0866 3.71998C34.9173 -1.4254 29.0298 0.37586 30.9843 7.51178C32.3559 11.7438 32.5001 17.4465 32.075 23.8358C31.9833 25.2059 31.5672 26.9741 32.9268 26.953C35.5468 26.9125 36.8433 23.8868 37.306 17.6268C37.5809 13.8951 38.3696 6.75763 37.0881 3.71998H37.0866Z" fill="black"/>
<path fill-rule="evenodd" clip-rule="evenodd" d="M41.6101 4.91895C43.1124 4.91895 44.3308 6.03215 44.3308 7.40525C44.3308 8.77835 43.1124 9.89156 41.6101 9.89156C40.1078 9.89156 38.8895 8.77835 38.8895 7.40525C38.8895 6.03215 40.1078 4.91895 41.6101 4.91895Z" fill="black"/>
<path fill-rule="evenodd" clip-rule="evenodd" d="M42.9276 13.279C42.5085 10.7777 39.2981 10.6725 38.933 12.612C38.2525 16.228 37.1829 24.6334 36.9891 26.9649C36.9124 27.8843 37.928 28.8218 39.0758 28.8083C41.2886 28.7812 41.9106 26.7862 42.2997 22.5782C42.5325 20.0694 43.3273 15.6571 42.9292 13.2775L42.9276 13.279Z" fill="black"/>
<path fill-rule="evenodd" clip-rule="evenodd" d="M75.9317 10.5297C75.6793 8.33484 72.2315 8.14856 71.6381 10.5297L69.1728 24.471C68.6185 27.1241 73.8495 28.335 74.189 24.0038L74.9116 19.201C75.9497 12.346 80.1351 12.3415 78.4826 18.1809L76.7399 24.2171C74.9957 27.9429 81.2288 31.4883 81.9258 25.8321L83.5829 15.8854C84.2949 10.725 81.2994 8.06893 75.9317 10.5297Z" fill="black"/>
<path fill-rule="evenodd" clip-rule="evenodd" d="M5.56841 1.87974C1.35596 2.75558 0.810625 6.08918 2.59235 7.83034C3.65748 9.05171 9.49091 11.7664 11.3478 20.8372C11.6061 23.6661 7.99162 24.3887 8.20194 21.6876C9.54499 13.1064 -1.44433 15.8752 0.636358 25.0873C3.76264 32.6814 14.1165 31.0123 15.9373 22.622C16.2377 14.5036 11.8691 1.54923 5.5654 1.87974H5.56841Z" fill="black"/>
</g>
<defs>
<clipPath id="clip0_1233_3976">
<rect width="83.3115" height="29.1739" fill="white" transform="translate(0.375 0.773438)"/>
</clipPath>
</defs>
</svg>
