<svg width="79" height="58" viewBox="0 0 79 58" fill="none" xmlns="http://www.w3.org/2000/svg">
<g clip-path="url(#clip0_1233_3988)">
<path fill-rule="evenodd" clip-rule="evenodd" d="M7.27456 54.7875C7.18467 55.8895 6.73523 57.0813 5.58002 57.5207C4.11187 58.1366 2.2875 57.9169 0.776073 57.6972C0.732794 57.1678 0.732794 56.552 0.779402 56.0226C2.06778 56.3755 3.7157 56.5087 4.87092 56.0226C5.62663 55.5832 5.58335 54.7442 5.62996 54.0385L5.63995 48.5254H7.28454L7.27456 54.7875Z" fill="black"/>
<path fill-rule="evenodd" clip-rule="evenodd" d="M28.318 50.4229L32.7125 55.3167L32.7224 50.4661L34.367 50.4229L34.3537 57.7436H32.7091L28.3147 52.8931L28.308 57.7436H26.5269L26.5402 50.4229H28.318Z" fill="black"/>
<path fill-rule="evenodd" clip-rule="evenodd" d="M9.76473 54.082C9.76806 52.8036 10.9699 51.7449 12.3914 51.7449C13.8596 51.7449 15.0581 52.8036 15.0547 54.082C15.0514 55.3604 13.8496 56.3758 12.3814 56.3758C10.9566 56.3758 9.75808 55.3604 9.76141 54.082H9.76473ZM7.98697 54.082C7.9903 51.9214 9.95117 50.2002 12.3981 50.2002C14.7984 50.2002 16.7992 51.9214 16.7959 54.082C16.7926 56.1993 14.7884 57.9205 12.3848 57.9205C9.93785 57.9205 7.98364 56.1993 7.98697 54.082Z" fill="black"/>
<path fill-rule="evenodd" clip-rule="evenodd" d="M17.5549 50.4229L17.5416 57.7436H19.2328L19.2395 54.8772H23.7305L23.7238 57.7436H25.415L25.4284 50.4229H23.7372L23.7338 53.3791H19.2395L19.2461 50.4229H17.5549Z" fill="black"/>
<path fill-rule="evenodd" clip-rule="evenodd" d="M47.9767 50.4229L47.9667 57.8335H54.7248L54.7282 56.3321H49.6579L49.6612 54.9638H53.5729L53.5763 53.4224H49.6645V51.9676H54.7348L54.7381 50.4229H47.9767Z" fill="black"/>
<path fill-rule="evenodd" clip-rule="evenodd" d="M55.7169 50.4229L55.7036 57.8335H62.5084L62.5117 56.3321H57.3981V54.9638H61.3132L61.3166 53.4224H57.4015L57.4048 51.9676H62.5184L62.5217 50.4229H55.7169Z" fill="black"/>
<path fill-rule="evenodd" clip-rule="evenodd" d="M71.9065 50.4229L71.8932 57.8335H78.698L78.7013 56.3321H73.5877V54.9638H77.5494V53.4224H73.5911L73.5944 51.9676H78.7113V50.4229H71.9065Z" fill="black"/>
<path fill-rule="evenodd" clip-rule="evenodd" d="M65.2316 51.921H68.1679C68.6572 51.921 69.1466 52.2739 69.1433 52.8032C69.1866 53.3325 68.6972 53.6854 68.1645 53.6854H65.2282L65.2316 51.921ZM63.4538 50.4229H68.4808C69.8158 50.4229 70.9244 51.4815 70.9244 52.7166C70.9211 53.8619 70.2985 54.834 69.14 55.1436L71.2273 57.8335H69.1366L67.0959 55.1436H65.2282L65.2249 57.8335H63.4471L63.4605 50.4229H63.4538Z" fill="black"/>
<path fill-rule="evenodd" clip-rule="evenodd" d="M39.6171 50.2032H42.2405C44.0182 50.2032 45.4398 51.4816 45.4365 53.2894C45.4331 55.0538 44.2313 56.3322 42.2272 56.3322H39.6038L39.6138 50.2032H39.6171ZM37.886 48.6152H42.1107C44.9571 48.6152 47.2675 50.5128 47.2608 53.2028C47.2575 55.8495 45.2966 57.8336 42.094 57.8336H37.8693L37.886 48.6152Z" fill="black"/>
<path fill-rule="evenodd" clip-rule="evenodd" d="M59.3989 4.56087C63.9032 14.0556 63.8799 27.5086 59.4288 37.0932C50.4668 41.6641 38.5818 42.7195 28.3879 40.0828C25.3751 39.3803 22.4488 38.325 19.7022 37.0067C15.6407 27.4221 15.664 14.0589 19.8487 4.47431C30.4087 -0.712488 44.6874 -1.41827 55.8533 2.97953L59.3989 4.56087Z" fill="black"/>
<path fill-rule="evenodd" clip-rule="evenodd" d="M58.0639 5.78941C62.0389 14.6716 61.8392 27.066 58.0107 35.7717C48.9587 40.3426 36.541 41.0483 26.8832 37.9689C24.9357 37.2664 22.9848 36.7371 21.1238 35.7717C17.4151 26.8029 17.4351 14.6682 21.3535 5.78941C30.1391 1.56806 42.2006 0.512727 51.8618 3.5023C53.8992 4.11819 55.9399 4.82063 58.0639 5.78941Z" fill="white"/>
<path fill-rule="evenodd" clip-rule="evenodd" d="M57.2649 6.40548C60.887 14.7583 61.0435 25.4848 57.7476 34.1006L55.1842 30.2321C54.1222 29.5297 52.7905 29.0902 51.9083 28.1215C51.1126 25.9242 50.9395 23.5506 49.2583 21.8793L50.59 21.2634C50.5034 19.3292 48.8222 17.7479 47.2275 16.7791C47.9333 18.0109 48.8189 19.5922 48.4626 21.2634C45.4498 20.561 42.1672 20.3845 38.7083 20.561C37.9991 20.3845 37.2002 20.2081 36.8473 19.5057C36.0516 17.395 36.9438 15.2843 37.3899 13.3501L38.898 13.4366C39.8735 13.0837 40.5859 12.3813 41.295 11.6788C40.2297 11.6788 38.9879 11.9418 37.9259 12.1183C38.5485 10.3605 38.908 7.81038 37.3167 6.40215L36.3412 5.78626C36.8706 6.48871 37.2268 7.3676 37.2235 8.33638C37.047 8.77583 37.2235 9.12872 36.9571 9.47828L35.2726 9.21528C35.0096 8.15994 33.9476 7.1046 32.8823 6.8416C33.5914 7.54405 34.0308 8.33638 34.2073 9.21528C33.5847 9.47828 32.8756 9.47828 32.2564 9.74128C31.6372 9.12539 31.0179 8.68594 30.1291 8.68594C30.5718 8.86239 31.2809 9.38839 31.3675 10.0043C30.7449 10.4437 30.0358 10.7966 29.3267 11.3226L29.4166 11.4092C31.5473 10.7067 33.9409 9.82784 36.0682 10.7933C36.4211 11.0563 36.4211 11.6722 36.3312 12.0251L36.0649 12.378C34.2006 12.8174 32.2497 13.6097 30.2988 14.1357C30.2955 15.7171 32.2464 15.2776 33.2218 15.7171L33.3084 15.9801C32.4195 18.0009 31.7037 20.2014 31.3475 22.4852C29.2202 22.6617 26.7367 22.8381 24.6959 23.6271C24.6926 24.9455 25.9343 25.5614 26.73 26.5301C28.6776 28.2014 30.715 29.7827 32.9289 30.838C32.576 30.2222 32.576 29.2567 31.6904 28.9038C29.7395 28.4644 28.0583 26.5301 27.2627 24.7724C30.6318 24.5093 33.2884 26.62 36.8373 26.62C39.4973 26.5335 41.8942 25.9176 44.6408 26.2671C47.1177 29.5197 50.843 29.8726 54.1188 31.1909C55.2707 32.5093 56.4193 33.8276 57.2149 35.3224C46.8314 40.4226 32.1998 40.2462 21.7463 35.146C18.304 26.5301 18.1475 15.0113 21.9727 6.39549C32.4461 1.29525 46.8114 1.29525 57.2649 6.39549V6.40548Z" fill="black"/>
</g>
<defs>
<clipPath id="clip0_1233_3988">
<rect width="77.9705" height="57.8438" fill="white" transform="translate(0.741699 0.0830078)"/>
</clipPath>
</defs>
</svg>
