<svg width="102" height="31" viewBox="0 0 102 31" fill="none" xmlns="http://www.w3.org/2000/svg">
<g clip-path="url(#clip0_1233_4006)">
<path fill-rule="evenodd" clip-rule="evenodd" d="M80.6285 24.1982C82.6 24.1982 84.5716 24.1982 86.5409 24.1982C86.2706 24.8637 86.0026 25.5315 85.6755 26.1107C85.3484 26.6922 84.9645 27.1873 84.5057 27.6416C84.0469 28.0959 83.5131 28.507 82.8976 28.8613C82.2843 29.2134 81.5916 29.5087 80.9647 29.7131C80.3378 29.9175 79.779 30.0311 79.2679 30.1038C78.7569 30.1764 78.2958 30.2082 77.6212 30.181C76.9466 30.1537 76.0585 30.0674 75.3067 29.9221C74.5548 29.7767 73.9348 29.57 73.3465 29.3065C72.7582 29.043 72.1994 28.7228 71.727 28.4002C71.2568 28.0777 70.873 27.7552 70.4687 27.3259C70.0644 26.8966 69.6419 26.3583 69.2989 25.8131C68.9582 25.268 68.6993 24.7138 68.5085 24.1596C68.3154 23.6076 68.1882 23.0557 68.111 22.5083C68.0337 21.9609 68.0088 21.4135 68.0542 20.7366C68.0973 20.0598 68.2109 19.2512 68.4062 18.5016C68.6016 17.7543 68.8764 17.0661 69.1672 16.5051C69.4556 15.9418 69.7577 15.5034 70.1075 15.0877C70.4573 14.6721 70.8548 14.2791 71.2341 13.9543C71.6134 13.6295 71.9768 13.3751 72.4243 13.1162C72.8695 12.8595 73.401 12.6006 73.9325 12.3939C74.464 12.1872 75 12.0305 75.5883 11.9237C76.1766 11.817 76.8194 11.7624 77.4645 11.7647C78.1118 11.767 78.7614 11.8306 79.3088 11.9078C79.854 11.985 80.2946 12.0804 80.767 12.2213C81.2395 12.3621 81.7437 12.5483 82.2434 12.7823C82.7431 13.0162 83.2406 13.2933 83.7062 13.6227C84.1718 13.952 84.6057 14.3291 84.9532 14.7357C85.3007 15.14 85.5642 15.5738 85.7731 15.9577C85.9821 16.3415 86.1366 16.68 86.2819 17.057C86.4273 17.4341 86.559 17.8474 86.6613 18.2835C86.7635 18.7197 86.8339 19.1762 86.8816 19.6441C86.927 20.112 86.9497 20.5913 86.9452 21.0092C86.9406 21.4294 86.9066 21.7883 86.8657 22.0699C86.8248 22.3493 86.7771 22.5492 86.7294 22.7491C84.8805 22.7491 83.0316 22.7491 80.9283 22.7491C78.825 22.7491 76.4673 22.7491 74.1097 22.7491C74.1233 22.8445 74.1346 22.9399 74.1664 23.0807C74.1982 23.2215 74.2459 23.4055 74.3164 23.5963C74.3868 23.7871 74.4753 23.9824 74.5889 24.1732C74.7002 24.364 74.832 24.548 74.9478 24.6888C75.0614 24.8296 75.159 24.9296 75.284 25.0363C75.4089 25.1431 75.5611 25.2612 75.7382 25.377C75.9154 25.4929 76.1153 25.6064 76.3311 25.695C76.5446 25.7836 76.774 25.8472 77.0306 25.8836C77.2873 25.9199 77.5758 25.929 77.8461 25.9085C78.1164 25.8881 78.3707 25.8359 78.6206 25.7609C78.8705 25.6859 79.1135 25.586 79.3474 25.4497C79.5814 25.3134 79.8017 25.1408 80.0129 24.925C80.2242 24.7115 80.4286 24.4549 80.633 24.1982H80.6285Z" fill="black"/>
<path d="M60.9017 6.37687C61.1084 6.24967 61.3582 6.30646 61.5899 6.2951C62.8369 6.30873 64.0839 6.30192 65.3286 6.34507C65.9373 6.36324 66.5551 6.2951 67.1593 6.40413L67.0662 6.41094C65.0106 6.46318 62.9573 6.36779 60.9017 6.37914V6.37687Z" fill="#C55E41"/>
<path d="M67.0662 6.41111L67.1593 6.4043C67.1275 8.78924 67.182 11.1764 67.1321 13.5637C67.0957 13.3115 67.0639 13.0571 67.0616 12.8027C67.073 10.6722 67.0639 8.54166 67.0662 6.41111Z" fill="#B6583D"/>
<path d="M21.8341 12.5234C21.8341 12.4144 21.8523 12.3099 21.8954 12.21C21.9477 13.3774 21.9091 14.5495 21.8864 15.717C21.8864 19.9417 21.8864 24.1687 21.8864 28.3935C21.8773 28.8727 21.8773 29.352 21.9136 29.829C23.4036 29.8472 24.8914 29.829 26.3814 29.8335C27.031 29.8426 27.6829 29.8063 28.3302 29.8653C28.169 29.8971 28.0054 29.9108 27.8442 29.9108C25.8408 29.9017 23.8375 29.9107 21.8341 29.9062C21.8023 24.1119 21.8205 18.3154 21.8318 12.5189L21.8341 12.5234Z" fill="#C36145"/>
<path d="M28.2099 12.2051C28.3507 12.33 28.2735 12.5435 28.2962 12.7093C28.3075 18.1311 28.3189 23.5551 28.2962 28.9769C28.1576 28.3977 28.2099 27.798 28.2099 27.2098C28.2121 23.228 28.2099 19.2441 28.2121 15.2623C28.2076 14.2425 28.1735 13.2249 28.2121 12.2051H28.2099Z" fill="#E6572C"/>
<path d="M29.2524 12.3258C29.4046 12.2235 29.5886 12.2553 29.7612 12.2508C31.4738 12.269 33.1865 12.2326 34.8968 12.269C34.5243 12.3326 34.1472 12.3485 33.7725 12.3439C32.2666 12.3235 30.7584 12.3598 29.2524 12.3258Z" fill="#C85635"/>
<path d="M94.82 12.4894C94.8291 12.4848 94.845 12.4757 94.8541 12.4712C94.845 12.4757 94.8291 12.4848 94.82 12.4894ZM84.1469 28.0846C84.1537 28.0778 84.1673 28.0664 84.1741 28.0596C84.1673 28.0664 84.1537 28.0778 84.1469 28.0846Z" fill="#71493F"/>
<path d="M83.5041 13.4751C83.5131 13.4796 83.5268 13.491 83.5336 13.4978C83.5268 13.4933 83.5109 13.4819 83.5041 13.4751ZM48.9497 15.0492C48.9542 15.0423 48.9679 15.0264 48.9724 15.0196C48.9679 15.0264 48.9542 15.0423 48.9497 15.0492ZM59.1572 29.6291C59.1709 29.6245 59.1959 29.6155 59.2095 29.6109C59.1959 29.6155 59.1686 29.6245 59.1572 29.6291Z" fill="#6A473D"/>
<path d="M45.5699 14.3789C45.5744 14.388 45.5858 14.4016 45.5903 14.4107C45.5858 14.4016 45.5767 14.388 45.5699 14.3789ZM69.8327 26.6965C69.8372 26.7034 69.8508 26.717 69.8554 26.7238C69.8508 26.717 69.8372 26.7034 69.8327 26.6965Z" fill="#704A3F"/>
<path d="M69.5556 26.3286C69.5601 26.3354 69.5715 26.3513 69.5761 26.3581C69.5715 26.3513 69.5601 26.3354 69.5556 26.3286Z" fill="#724A40"/>
<path d="M59.8591 29.3765C59.902 29.3562 59.99 29.3179 60.0351 29.2998L60.0216 29.3811L59.9313 29.4217L59.8613 29.3788L59.8591 29.3765Z" fill="#7D4D3F"/>
<path d="M59.4026 29.5469C59.416 29.5424 59.4406 29.5335 59.4517 29.5312C59.4383 29.5357 59.4138 29.5446 59.4026 29.5469Z" fill="#6E493E"/>
<path d="M58.3918 29.8281C58.4369 29.8123 58.5272 29.7808 58.5723 29.7627L58.552 29.8417L58.4595 29.8733L58.3918 29.8259V29.8281Z" fill="#8C503F"/>
<path d="M61.2128 29.7695C63.2003 29.765 65.19 29.7468 67.1774 29.7786C67.107 29.9263 66.9185 29.8649 66.789 29.8854C65.0242 29.8786 63.2593 29.8854 61.4968 29.8831C61.3809 29.8922 61.2878 29.8559 61.2128 29.7695Z" fill="#E7572D"/>
<path fill-rule="evenodd" clip-rule="evenodd" d="M0.310303 0.773438H7.32656V13.5022L13.5092 6.12479H21.593L13.9294 15.4283L21.593 29.8356H13.7296L9.15729 21.2249L7.32656 23.4463V29.9333H0.310303V21.879V0.773438Z" fill="black"/>
<path d="M28.303 12.2236H21.8887V29.8358H28.303V12.2236Z" fill="black"/>
<path d="M28.303 6.10889H21.8887V11.592H28.303V6.10889Z" fill="black"/>
<path d="M35.4533 12.2227H29.257V29.8349H35.4533V12.2227Z" fill="black"/>
<path fill-rule="evenodd" clip-rule="evenodd" d="M35.4533 18.0629C35.5873 17.7745 35.719 17.486 35.8553 17.2634C35.9916 17.0386 36.1301 16.8773 36.2869 16.741C36.4436 16.6047 36.6162 16.4934 36.8115 16.4003C37.0069 16.3094 37.2227 16.2368 37.4521 16.1936C37.6815 16.1505 37.9245 16.1346 38.1585 16.1527C38.3924 16.1686 38.615 16.2163 38.8353 16.2981C39.0534 16.3821 39.2692 16.5025 39.4531 16.6502C39.6371 16.7978 39.787 16.975 39.9188 17.2066C40.0482 17.4383 40.1595 17.7245 40.2118 18.1129C40.264 18.499 40.2618 18.9851 40.2618 20.9567C40.2595 22.9282 40.2618 26.383 40.2618 29.84C42.3491 29.84 44.4343 29.84 46.5216 29.84C46.5239 26.408 46.5262 22.9782 46.5262 21.2633C46.5262 19.5484 46.5262 19.5484 46.5239 19.2009C46.5194 18.8534 46.5103 18.1583 46.4626 17.5519C46.4126 16.9454 46.324 16.4253 46.1923 15.9506C46.0606 15.4759 45.8857 15.0443 45.7062 14.6968C45.5268 14.3493 45.3428 14.0858 45.1202 13.8314C44.8976 13.577 44.6364 13.334 44.3479 13.1227C44.0595 12.9092 43.746 12.7275 43.419 12.573C43.0941 12.4186 42.758 12.2891 42.281 12.1778C41.804 12.0665 41.1839 11.9734 40.5457 11.9439C39.9097 11.9143 39.2555 11.9484 38.6105 12.0461C37.9677 12.1415 37.334 12.2982 36.8093 12.4686C36.2846 12.6389 35.8712 12.8229 35.4578 13.0069C34.949 13.3748 34.4402 13.7428 33.9337 14.1108C34.2858 15.5304 34.6401 16.9522 34.9922 18.3719C35.1466 18.2719 35.3034 18.172 35.4578 18.072L35.4533 18.0629Z" fill="black"/>
<path d="M67.1752 6.11133H61.097V29.8358H67.1752V6.11133Z" fill="black"/>
<path fill-rule="evenodd" clip-rule="evenodd" d="M61.097 28.9182C60.4497 29.1544 59.8023 29.3929 59.1368 29.5859C58.4736 29.779 57.7922 29.9312 57.2107 30.0198C56.6292 30.1084 56.15 30.1356 55.5685 30.1084C54.987 30.0811 54.3056 29.9993 53.7991 29.9039C53.2926 29.8085 52.9655 29.7018 52.5498 29.5178C52.1342 29.3338 51.6345 29.0703 51.1484 28.741C50.6623 28.4116 50.1899 28.0119 49.7697 27.5758C49.3518 27.1397 48.9861 26.6627 48.6522 26.1153C48.3183 25.5679 48.0185 24.9478 47.7981 24.3732C47.5755 23.7985 47.4347 23.2693 47.328 22.6878C47.2212 22.1086 47.1531 21.4772 47.1463 20.8457C47.1394 20.2165 47.194 19.5874 47.3189 18.9355C47.4461 18.2836 47.6437 17.6113 47.8958 17.0026C48.1457 16.3938 48.45 15.8532 48.8248 15.3376C49.1996 14.8243 49.6493 14.3382 50.0968 13.9408C50.5442 13.5455 50.994 13.2389 51.4096 12.9981C51.8253 12.7574 52.2069 12.5847 52.6611 12.4257C53.1131 12.2668 53.6378 12.1214 54.1534 12.0146C54.669 11.9079 55.1801 11.8375 55.7048 11.8125C56.2272 11.7852 56.7655 11.7988 57.2788 11.867C57.7922 11.9351 58.2805 12.0532 58.7848 12.2122C59.2867 12.3712 59.8046 12.5666 60.2907 12.8051C60.779 13.0436 61.2378 13.3252 61.6967 13.6069C61.7693 18.647 61.8397 23.6872 61.9124 28.7251C61.6399 28.7887 61.3673 28.85 61.097 28.9136V28.9182ZM56.9268 15.8578C54.828 15.8578 53.1268 18.136 53.1268 20.9479C53.1268 23.7599 54.828 26.0381 56.9268 26.0381C59.0255 26.0381 60.7268 23.7599 60.7268 20.9479C60.7268 18.136 59.0255 15.8578 56.9268 15.8578Z" fill="black"/>
<path d="M78.1277 16.103H77.0738C75.4267 16.103 74.0915 18.3037 74.0915 21.0183V21.0205C74.0915 23.7352 75.4267 25.9358 77.0738 25.9358H78.1277C79.7748 25.9358 81.11 23.7352 81.11 21.0205V21.0183C81.11 18.3037 79.7748 16.103 78.1277 16.103Z" fill="white"/>
<path fill-rule="evenodd" clip-rule="evenodd" d="M69.4852 18.8149H86.0321C86.416 18.8149 86.7294 19.1284 86.7294 19.5123V22.7467H68.2609V20.0438C68.2609 19.3692 68.8129 18.8172 69.4875 18.8172L69.4852 18.8149Z" fill="black"/>
<path d="M93.4413 12.2222H87.3631V29.8344H93.4413V12.2222Z" fill="black"/>
<path fill-rule="evenodd" clip-rule="evenodd" d="M93.4413 20.2775C93.4708 19.9936 93.5004 19.7097 93.5458 19.4689C93.5912 19.2304 93.6503 19.0351 93.7389 18.8306C93.8274 18.6262 93.9455 18.4127 94.0955 18.2151C94.2454 18.0175 94.4271 17.8358 94.627 17.6791C94.8268 17.5223 95.0426 17.3929 95.2675 17.2975C95.4923 17.2021 95.7286 17.1385 96.0239 17.0885C96.3191 17.0385 96.6735 16.9999 97.0823 16.9795C97.4934 16.959 97.9591 16.959 98.4247 16.959C98.4247 15.2737 98.4247 13.586 98.4247 11.9007C98.0567 11.8643 97.6865 11.8303 97.3753 11.8235C97.0619 11.8166 96.8075 11.8394 96.5712 11.8802C96.335 11.9189 96.1215 11.9734 95.9239 12.0347C95.7263 12.096 95.5446 12.1619 95.3243 12.2596C95.1039 12.3572 94.845 12.4844 94.5997 12.623C94.3544 12.7615 94.1227 12.9092 93.9455 13.0318C93.7684 13.1545 93.648 13.2476 93.5662 13.3158C93.4822 13.3839 93.4368 13.4225 93.3913 13.4611C93.305 15.7507 93.2164 18.0402 93.1301 20.3297C93.2346 20.3116 93.3368 20.2934 93.4413 20.273V20.2775Z" fill="black"/>
<path d="M98.4269 24.6477C97.7955 24.6477 97.2254 24.9021 96.812 25.3155C96.3986 25.7289 96.1442 26.299 96.1442 26.9305C96.1442 27.5619 96.4009 28.132 96.812 28.5454C97.2254 28.9588 97.7955 29.2132 98.4269 29.2132C99.0584 29.2132 99.6285 28.9588 100.042 28.5454C100.455 28.132 100.71 27.5619 100.71 26.9305C100.71 26.299 100.453 25.7289 100.042 25.3155C99.6285 24.9021 99.0584 24.6477 98.4269 24.6477ZM96.3736 24.8772C96.9006 24.3502 97.6251 24.0254 98.4269 24.0254C99.2287 24.0254 99.9555 24.3502 100.48 24.8749C101.005 25.3996 101.332 26.1264 101.332 26.9282C101.332 27.7277 101.007 28.4546 100.48 28.9815C99.9533 29.5085 99.2264 29.8333 98.4269 29.8333C97.6251 29.8333 96.8983 29.5085 96.3736 28.9815C95.8489 28.4568 95.5241 27.73 95.5241 26.9282C95.5241 26.1264 95.8489 25.3996 96.3759 24.8749L96.3736 24.8772Z" fill="black"/>
<path d="M97.7773 25.4429H97.1186V28.4502H97.7773V25.4429Z" fill="black"/>
<path d="M98.6879 25.9967L98.6879 25.4434L97.1183 25.4434L97.1183 25.9967L98.6879 25.9967Z" fill="black"/>
<path d="M98.6879 27.2574L98.6879 26.7041L97.1183 26.7041L97.1183 27.2574L98.6879 27.2574Z" fill="black"/>
<path fill-rule="evenodd" clip-rule="evenodd" d="M98.4042 25.9968C98.4996 25.9968 98.5927 25.9968 98.6722 26.0081C98.7495 26.0195 98.8131 26.0399 98.8585 26.0967C98.9062 26.1512 98.938 26.2421 98.938 26.3261C98.9403 26.4102 98.9107 26.4874 98.863 26.551C98.8153 26.6123 98.7517 26.66 98.6904 26.6827C98.6291 26.7054 98.57 26.7054 98.511 26.7054C98.377 26.8894 98.2452 27.0757 98.1112 27.2596C98.2089 27.3119 98.3065 27.3641 98.4042 27.4641C98.5019 27.564 98.6018 27.7116 98.7018 27.882C98.8017 28.0501 98.9039 28.2409 99.0061 28.4294C99.2446 28.4294 99.4854 28.4294 99.7239 28.4294C99.5967 28.1932 99.4718 27.957 99.3559 27.7662C99.2401 27.5754 99.1356 27.43 99.0584 27.3414C98.9789 27.2528 98.9289 27.221 98.8767 27.1892C99.0243 27.1166 99.1697 27.0439 99.2855 26.9485C99.3991 26.8531 99.4808 26.7372 99.5331 26.6146C99.5876 26.4919 99.6126 26.3647 99.6012 26.2216C99.5899 26.0785 99.5399 25.9218 99.4672 25.8037C99.3945 25.6856 99.2991 25.6061 99.206 25.5538C99.1129 25.4993 99.0243 25.4721 98.938 25.4585C98.8517 25.4448 98.7722 25.4448 98.6995 25.4448C98.6268 25.4448 98.5632 25.4448 98.4973 25.4448C98.4769 25.6174 98.4565 25.7901 98.436 25.9627C98.4269 25.9741 98.4178 25.9877 98.4065 25.999L98.4042 25.9968Z" fill="black"/>
</g>
<defs>
<clipPath id="clip0_1233_4006">
<rect width="101.025" height="29.4165" fill="white" transform="translate(0.308838 0.773438)"/>
</clipPath>
</defs>
</svg>
