<svg width="79" height="76" viewBox="0 0 79 76" fill="none" xmlns="http://www.w3.org/2000/svg">
<g clip-path="url(#clip0_1233_3398)">
<path d="M39.3993 0.270823C39.3331 0.307634 32.8715 4.07954 32.2114 12.1559C27.6738 8.74964 20.6699 8.22937 15.32 10.9779C15.2316 11.0246 15.1727 11.1129 15.1654 11.2111C15.1654 11.2184 15.1654 11.2233 15.1654 11.2307C15.1654 11.324 15.212 11.4098 15.2881 11.4638C19.6171 14.4971 21.8773 17.7659 22.4098 21.7145H0.593113C0.436053 21.7145 0.308441 21.8421 0.308441 21.9992V34.7456C0.308441 37.7347 2.89994 40.1642 6.08532 40.1642H22.9472C22.962 40.6599 23.0896 44.9938 23.0896 44.9938C23.2761 51.259 23.4356 56.6703 23.4356 58.0544C23.4356 63.5368 26.8075 65.2693 31.0776 67.4608C32.2015 68.0375 33.3648 68.6363 34.555 69.3455C37.9073 71.3481 39.2104 74.5285 39.3282 75.0684C39.3576 75.1985 39.4779 75.2942 39.6104 75.2942C39.7429 75.2942 39.8632 75.201 39.8902 75.0684C40.0349 74.4132 41.3307 71.3407 44.6658 69.3455C45.8585 68.6314 47.0241 68.0326 48.153 67.4535C52.4157 65.262 55.7852 63.5294 55.7852 58.0519C55.7852 56.6605 55.9471 51.2026 56.1337 44.8834C56.1337 44.8834 56.2588 40.6575 56.2735 40.1642H73.0471C74.5834 40.1642 76.0313 39.6022 77.1209 38.5813C78.2154 37.5555 78.8215 36.1935 78.8215 34.7431V21.9967C78.8215 21.8396 78.6939 21.712 78.5369 21.712H56.811C57.3411 17.7634 59.6013 14.4946 63.9302 11.4614C64.0088 11.4074 64.0529 11.3215 64.0529 11.2282C64.0529 11.2209 64.0529 11.216 64.0529 11.2086C64.0456 11.1105 63.9891 11.0197 63.8983 10.9755C58.5485 8.22692 51.5421 8.74718 47.007 12.1534C46.3395 4.07463 39.7454 0.30518 39.6791 0.268369C39.5932 0.221742 39.4877 0.221742 39.3993 0.268369V0.270823Z" fill="black"/>
<path d="M77.373 23.0324V34.6721C77.373 36.9053 75.4048 38.7164 72.9728 38.7164H6.15093C3.71894 38.7164 1.75078 36.9053 1.75078 34.6721V23.0324H77.373ZM0.670987 21.9526V23.0324V34.6721C0.670987 37.4967 3.12997 39.7962 6.15093 39.7962H72.9728C75.9938 39.7962 78.4503 37.4967 78.4503 34.6721V23.0324V21.9526H77.3705H1.74832H0.668533H0.670987Z" fill="black"/>
<path fill-rule="evenodd" clip-rule="evenodd" d="M55.9465 38.7186C55.7011 47.1802 55.4188 56.1008 55.4188 57.934C55.4188 64.6434 50.1426 65.5588 44.4614 68.9577C40.8073 71.1442 39.6539 74.4499 39.5655 74.8523C39.5655 74.8523 39.5631 74.8769 39.5606 74.872C39.5582 74.8769 39.5557 74.8941 39.5557 74.8941V74.8548C39.4674 74.4523 38.2453 71.1025 34.6599 68.9601C28.9787 65.5661 23.7024 64.6434 23.7024 57.9364C23.7024 56.1057 23.4202 47.1827 23.1748 38.7211H55.944L55.9465 38.7186ZM32.4144 12.6564C32.8267 4.29537 39.4919 0.518555 39.4919 0.518555C39.4919 0.518555 46.2971 4.29291 46.7093 12.6564C50.8346 9.28449 57.895 8.24151 63.6694 11.2085C59.9122 13.8392 56.4692 17.4394 56.3072 23.0322H22.8141C22.6521 17.4418 19.209 13.8392 15.4518 11.2085C21.2287 8.24151 28.2866 9.28449 32.4144 12.6564Z" fill="black"/>
<path fill-rule="evenodd" clip-rule="evenodd" d="M17.8839 11.6531C21.3907 14.0311 24.3258 17.6533 24.3822 23.1431C24.9344 23.1431 25.462 23.1455 25.462 23.1455C25.462 23.1455 26.1884 16.3379 19.2532 11.15C18.7305 11.312 18.279 11.4838 17.8863 11.6556L17.8839 11.6531ZM53.6937 23.1455C53.6937 23.1455 54.2188 23.1431 54.771 23.1431C54.825 17.6705 57.7453 14.0532 61.2399 11.6752C60.7957 11.4666 60.3368 11.2997 59.8804 11.1672C52.9673 16.3527 53.6937 23.1455 53.6937 23.1455ZM46.6726 14.6618C44.8075 16.9318 45.8284 23.0376 52.7906 23.0376C52.7439 22.5958 52.7268 22.1222 52.7341 21.6314H52.7513C53.2446 16.7061 55.8312 13.1697 58.7957 10.7844C58.3687 10.6715 58.0398 10.6396 57.7478 10.6273H57.7429C57.3944 10.6151 57.0975 10.6396 56.7735 10.6273C56.7662 10.6347 56.7588 10.6396 56.7539 10.647C50.6285 10.858 47.9045 12.9906 46.6726 14.6594V14.6618ZM26.0829 19.6927C26.2498 20.8902 26.2841 22.0412 26.1762 23.0376C33.1384 23.0376 34.1568 16.9318 32.2966 14.6618C31.1088 13.0544 28.2376 10.5513 22.8067 10.5635C21.9183 10.566 21.2361 10.5807 20.4238 10.8408C23.0129 12.9023 25.2117 15.7563 26.0854 19.6951L26.0829 19.6927Z" fill="white"/>
<path fill-rule="evenodd" clip-rule="evenodd" d="M33.558 12.9881C33.558 6.27128 39.3079 2.0969 39.4012 1.95947C39.4159 1.97174 39.465 1.97174 39.4772 1.95947C39.5705 2.0969 45.3155 6.0725 45.3155 12.9881C45.4848 16.1587 44.3854 19.2901 40.8785 21.8252C40.8761 21.8276 40.8761 21.8276 40.8736 21.8276C40.4392 22.1442 39.9828 22.451 39.4772 22.743C39.465 22.7356 39.4502 22.7283 39.438 22.7185C39.4257 22.7283 39.4134 22.7356 39.4012 22.743C38.8907 22.451 38.4343 22.1442 38.0023 21.8276C38.0023 21.8276 37.9974 21.8276 37.9974 21.8252C34.4955 19.2901 33.3911 16.1587 33.5605 12.9881H33.558Z" fill="white"/>
<path fill-rule="evenodd" clip-rule="evenodd" d="M26.1982 37.6636C26.1982 37.6636 27.224 37.6734 27.3247 37.6734C27.3247 44.9816 28.4707 47.1265 30.0119 47.7253C32.6451 48.6578 35.0304 50.0959 36.4832 51.5021C38.9275 53.8629 39.0109 59.5956 39.0109 63.3062C36.9078 57.6913 32.9641 57.8581 29.8474 55.9685C28.1051 54.8887 26.7749 51.5193 26.6841 46.6627C26.7013 46.6651 26.1982 37.6611 26.1982 37.6611V37.6636Z" fill="white"/>
<path fill-rule="evenodd" clip-rule="evenodd" d="M24.284 37.5923C24.284 37.5923 25.2141 37.585 25.3172 37.585C25.6289 44.849 25.5602 52.4493 27.7811 55.5905C29.467 57.782 33.8672 58.4568 36.174 60.587C38.6698 62.8938 39.0355 68.1553 39.0355 71.8659C36.4538 66.808 31.2904 65.981 29.2609 64.6951C25.2828 62.3195 25.1552 58.9918 25.1552 58.9918L24.284 37.5948V37.5923Z" fill="white"/>
<path fill-rule="evenodd" clip-rule="evenodd" d="M29.4867 45.7104C28.3873 43.4846 28.2155 40.3507 28.2155 37.6758C35.7716 37.6758 37.9999 40.3998 38.6674 44.7312C39.0576 47.2589 38.9594 50.3363 38.9594 53.7426C36.8538 48.1277 30.3137 47.8037 29.4867 45.7129V45.7104Z" fill="white"/>
<path fill-rule="evenodd" clip-rule="evenodd" d="M49.3868 45.7104C50.4886 43.4846 50.6604 40.3507 50.6604 37.6758C43.0283 37.6758 40.8932 40.4538 40.2503 44.8638C39.8871 47.3669 39.9165 49.1167 39.9165 53.7426C42.0197 48.1277 48.5622 47.8037 49.3892 45.7129L49.3868 45.7104Z" fill="white"/>
<path fill-rule="evenodd" clip-rule="evenodd" d="M52.6752 37.6636C52.6752 37.6636 51.6519 37.6734 51.5488 37.6734C51.5488 44.9816 50.4027 47.1265 48.864 47.7253C46.2308 48.6578 43.8479 50.0959 42.3927 51.5021C39.9484 53.8629 39.9067 59.5956 39.9067 63.3062C42.0098 57.6913 45.9118 57.8581 49.0285 55.9685C50.7708 54.8887 52.0985 51.5193 52.1918 46.6627C52.177 46.6651 52.6752 37.6611 52.6752 37.6611V37.6636Z" fill="white"/>
<path fill-rule="evenodd" clip-rule="evenodd" d="M54.5918 37.5923C54.5918 37.5923 53.6593 37.585 53.5562 37.585C53.2446 44.849 53.3108 52.4493 51.0923 55.5905C49.4064 57.782 45.0062 58.4568 42.7019 60.587C40.2061 62.8938 39.8478 68.0915 39.8478 71.8045C42.0712 66.9455 47.5855 65.981 49.615 64.6975C53.836 62.457 53.7206 58.9943 53.7206 58.9943L54.5918 37.5972V37.5923Z" fill="white"/>
<path d="M49.0824 54.2776C49.8505 54.1058 50.5696 53.939 51.2371 53.7794C51.188 54.4298 51.1046 55.085 50.9696 55.6985C50.815 56.4028 50.4665 56.9869 50.1009 57.4777C49.6591 58.0863 49.1511 58.4569 48.6014 58.5845C48.2529 58.6655 47.9585 58.6287 47.7032 58.4765C47.4505 58.3244 47.2885 58.0888 47.2124 57.7526C46.8762 56.29 48.0124 54.9893 49.0824 54.2727V54.2776ZM22.9539 50.2799C19.9428 50.9057 19.8201 51.61 19.8201 52.7487V59.6569C20.2152 59.5809 20.6078 59.5048 20.998 59.4312C21.5183 59.2594 22.149 59.1686 22.765 59.0459L28.3946 58.1575L28.3774 58.2066L29.1308 58.0937L30.8634 59.4729C31.0548 58.852 31.2045 58.2532 31.3174 57.6839C33.7101 57.2863 36.6108 56.7783 40.0514 56.1304C42.9399 55.5856 45.4553 55.0703 47.6173 54.5991C46.6922 55.3672 46.1719 56.7636 46.4296 57.8851C46.5474 58.3955 46.8222 58.7686 47.2492 58.9943C47.6664 59.2152 48.1401 59.2667 48.6481 59.1489C49.9094 58.8594 51.1512 57.8557 51.6322 55.939C51.8334 55.1439 51.966 54.3439 52.0518 53.5831C54.609 52.9647 56.3097 52.4935 57.2201 52.2309C59.2128 51.6616 60.0693 50.9965 60.0693 50.0493V43.3447L53.2715 44.7215C50.8027 45.3571 46.8394 46.2553 40.0514 47.5117C28.2032 49.7057 25.2313 49.8038 22.9515 50.2799H22.9539Z" fill="black"/>
<path fill-rule="evenodd" clip-rule="evenodd" d="M31.283 57.8728C33.0181 58.6826 34.8316 59.3256 36.1715 60.5845C36.3409 60.7416 36.4611 60.879 36.547 60.9968C36.5127 60.96 36.4955 60.9428 36.4955 60.9428C36.5765 61.1121 36.655 61.2766 36.7286 61.4434C36.5151 61.198 35.558 60.2188 33.2659 59.4728C32.3677 59.1734 31.6634 58.9575 31.0744 58.7513C31.153 58.4519 31.2217 58.1623 31.283 57.8752V57.8728ZM49.8579 56.7022C49.1168 57.2003 48.2259 57.62 47.3032 58.0323C47.3228 58.0789 47.3474 58.1231 47.3719 58.1623C47.5854 58.2409 47.8235 58.2482 48.0959 58.1844C48.648 58.0568 49.1536 57.6862 49.5978 57.0776C49.6861 56.9574 49.7745 56.8322 49.8579 56.7022ZM53.7182 44.6061V44.5938L53.5758 44.6306L53.6323 42.9913C53.4801 42.7753 53.3844 42.9201 53.35 42.9937C53.3255 43.5753 53.301 44.1521 53.274 44.7214C53.4261 44.6821 53.5758 44.6429 53.7157 44.6061H53.7182ZM39.8477 71.7922V71.7971L39.8502 71.7849L39.8477 71.7898V71.7922ZM46.7682 58.6041L46.7486 58.5943C46.6455 58.5403 46.5498 58.4765 46.4639 58.4028C45.0774 59.0164 43.6957 59.6642 42.7018 60.5821C40.2085 62.8864 39.8502 68.0743 39.8477 71.7824C40.0809 70.5186 40.6183 69.0437 41.0772 67.8412L41.1091 67.8117C40.9913 63.7184 42.535 61.6299 44.4148 60.5551C45.3915 59.9685 46.5375 59.5832 47.6615 59.1513C47.5192 59.117 47.3817 59.063 47.2517 58.9943C47.0578 58.8912 46.8983 58.7611 46.7682 58.6016V58.6041ZM49.5266 58.1059C49.3057 58.2703 49.0726 58.4077 48.837 58.5157C49.0775 58.4274 49.3082 58.29 49.5266 58.1059ZM52.2163 55.4899C52.4273 54.9426 52.6138 54.2309 52.7782 53.4088C52.5451 53.4652 52.3071 53.5241 52.0567 53.5855C51.9709 54.3463 51.8383 55.1487 51.6371 55.9414C51.5316 56.361 51.3892 56.7365 51.2175 57.0727C51.6199 56.6384 51.9635 56.123 52.2163 55.4923V55.4899ZM39.9066 63.2987V63.3061L39.914 63.2815L39.9066 63.2987ZM40.368 56.0739C40.0784 57.6298 39.9704 59.3231 39.9287 60.8888C39.9508 60.5403 40.3189 59.9514 40.9324 59.3035C41.1386 58.0053 41.2858 56.869 41.492 55.8604C41.1239 55.9291 40.7484 56.0028 40.3656 56.0764L40.368 56.0739ZM51.4211 41.3986C51.2886 43.1238 51.053 44.3975 50.7414 45.3374C51.0187 45.2736 51.2813 45.2122 51.534 45.1509C51.5586 45.0061 51.5831 44.8564 51.6052 44.6993C51.5978 44.6993 51.696 43.4404 51.8113 41.9728L51.8187 41.6636C51.7451 41.4403 51.6052 41.1483 51.4187 41.4133V41.3986H51.4211ZM39.9999 47.5215C40.0539 46.4589 40.1398 45.4453 40.2649 44.6551C40.4048 43.7717 40.6404 43.0379 40.9374 42.4293C42.1668 40.2182 44.1497 39.4893 45.9756 39.4034C41.9362 40.7409 40.9104 43.5974 40.7926 47.3742L40.0539 47.5117L39.9999 47.5215ZM25.8375 58.5624C25.9454 60.717 26.6694 62.1846 27.1185 62.8226C28.4118 64.3221 31.5014 64.7123 33.8721 65.8117C35.6316 66.624 37.2243 67.5492 38.1569 68.6118C38.2796 68.9455 38.6649 70.0695 39.033 71.861C36.4513 66.8056 31.2904 65.9761 29.2584 64.6926C25.2804 62.3171 25.1528 58.9894 25.1528 58.9894L25.1405 58.6728L25.8375 58.5648V58.5624ZM25.1135 43.0894C25.2166 44.8907 25.3491 47.389 25.4742 49.8799C25.2313 49.9142 25.0031 49.9437 24.7871 49.9756L24.5491 44.13C24.5834 43.8698 24.6914 43.3717 25.0252 43.1459C25.0571 43.1238 25.0865 43.1042 25.1135 43.0894ZM33.8377 57.2568C34.7285 57.5734 35.6194 57.9047 36.466 58.2531C37.0746 58.5231 37.5605 58.8421 37.9336 59.1734C37.9925 59.355 38.4244 60.6802 38.979 63.0067V63.3036C37.5483 59.4802 35.2807 58.3366 32.9984 57.3991L33.8377 57.2543V57.2568ZM27.305 41.2096C27.2608 44.5766 27.2019 47.2049 27.4915 49.6001L26.9344 49.6786C26.7994 48.7534 26.716 47.7448 26.6964 46.6601C26.7037 46.6626 26.5761 44.2748 26.4485 41.9581C26.478 41.8526 26.527 41.6882 26.608 41.5606C26.7651 41.3127 27.0154 41.1262 27.305 41.2096ZM28.3112 40.6059C28.2964 40.3801 28.2842 40.1568 28.2743 39.9335L28.3112 40.6059ZM29.4572 45.8036C28.7774 44.4318 28.4682 42.6747 28.3332 40.9029C28.3774 40.8366 28.7283 40.309 29.3689 40.0464C29.2781 41.455 29.3173 43.0428 30.1787 45.1705C30.6229 45.919 31.7444 47.4233 33.4328 48.2086C33.6978 48.3313 33.9776 48.4393 34.2696 48.5399L34.0021 48.5841C31.8892 47.4773 29.8891 46.8932 29.4572 45.8036ZM39.9091 3.58381C40.3484 3.81694 41.5828 4.54089 42.508 5.79247C41.9362 4.87465 41.4772 4.2145 41.1263 3.74332C40.157 2.57764 39.3643 2.00829 39.4011 1.95185C39.4158 1.96412 39.4649 1.96412 39.4772 1.95185C39.4821 1.95921 39.5017 1.97639 39.5312 2.00093C39.4993 1.96903 39.4698 1.93958 39.4404 1.91504C36.3384 4.60715 33.4745 7.88089 33.4745 13.9154C33.4745 19.6334 39.4085 22.8041 39.4085 22.8041C39.4085 22.8041 39.1508 22.6495 38.7508 22.3403C38.4906 22.1709 38.2428 21.9967 37.9998 21.8225C37.9998 21.82 37.9949 21.82 37.9949 21.82L38.0808 21.7857C36.5617 20.4335 34.2819 17.7536 34.2819 13.8492C34.2819 8.95331 36.9765 5.67713 39.9091 3.58381ZM19.2875 11.1693L19.2556 11.1423H19.2532L19.2875 11.1693ZM24.3822 22.9243L24.3846 23.0274H24.392L24.3969 22.9243H24.3822ZM17.8887 11.6479C21.1477 13.8565 23.9135 17.1425 24.3331 22.0016C24.3846 20.1733 23.9478 15.8615 19.2556 11.1423L17.8887 11.6454V11.6479ZM54.7783 23.0274C54.8716 17.6162 57.7747 14.0308 61.2448 11.6675C60.8006 11.4589 60.3417 11.2945 59.8828 11.1595C53.4924 15.9548 53.6298 22.1243 53.6887 23.0274H53.7059C53.7672 22.1096 54.4421 15.3928 61.2399 11.6675C57.7698 14.0308 54.8642 17.6137 54.7734 23.0274H54.7759H54.7783ZM46.6799 14.6566C45.5363 16.0505 45.4774 18.8923 47.2173 20.8776C47.2492 20.8948 47.2787 20.912 47.3106 20.9267C42.9031 14.8529 50.9475 10.4675 58.025 11.3338C58.3171 11.1178 58.5797 10.9338 58.803 10.7791C58.5772 10.9607 58.3514 11.1522 58.1306 11.346C58.3539 11.1497 58.5797 10.9607 58.8054 10.7791C58.3784 10.6663 58.0496 10.6344 57.7575 10.6221H57.7526C57.4017 10.6098 57.1072 10.6344 56.7833 10.6221C56.7759 10.6294 56.7686 10.6344 56.7637 10.6417C50.6383 10.8528 47.9143 12.9854 46.6823 14.6541L46.6799 14.6566ZM26.0902 19.6874C25.5184 16.0407 23.6312 13.1081 21.7416 11.4221C27.4719 10.816 31.4352 13.5105 32.3015 14.6541C31.1113 13.0393 28.3038 10.5264 22.76 10.5558C21.8913 10.5607 21.2287 10.5779 20.4287 10.8331C23.0177 12.8946 25.2166 15.7486 26.0878 19.6874H26.0902ZM32.6819 48.805C31.2438 48.0786 30.0732 47.7841 29.4793 47.389C28.6719 46.8491 27.7884 45.4723 27.462 41.2734C27.678 45.438 28.0584 47.6933 30.1223 48.3829C30.6818 48.5694 31.207 48.7657 31.6978 48.9645C32.0119 48.9129 32.3407 48.859 32.6794 48.805H32.6819Z" fill="white"/>
<path d="M7.43686 36.9986V31.742H8.64917C8.94612 31.742 9.19643 31.7616 9.40012 31.8009C9.60381 31.8402 9.72897 31.9113 9.84922 32.0267C9.96946 32.142 10.075 32.3187 10.129 32.5371C10.1854 32.758 10.1977 33.0598 10.2222 33.4672C10.2222 33.4672 10.2566 34.4439 10.3498 35.3716C10.4382 36.2575 10.5953 36.9986 10.5953 36.9986H14.2641C14.2641 36.9986 14.1389 36.4146 14.0334 35.2562C13.9303 34.1053 13.9033 33.2022 13.9033 33.2022C13.9033 32.4218 13.7978 31.8083 13.6506 31.3518C13.3634 30.4733 12.7426 29.9334 11.9769 29.6659C12.2567 29.4794 12.4456 29.256 12.5781 29.0818C12.8604 28.7137 12.9806 28.2818 13.1279 27.7394L13.815 24.797H10.1682L9.55718 27.4965C9.40994 28.0437 9.24306 28.4634 9.00747 28.6891C8.65654 29.0278 8.14364 29.0842 7.43932 29.0842V24.797H3.6306V36.9986H7.43932H7.43686ZM21.2435 33.7077C21.587 33.7077 21.9134 33.6341 22.2226 33.4918C22.5319 33.3494 22.8067 33.1531 23.0472 32.9077C23.2877 32.6623 23.4767 32.3678 23.6166 32.0242C23.754 31.6807 23.8227 31.3027 23.8227 30.8904C23.8227 30.4782 23.7564 30.1002 23.6239 29.7567C23.4914 29.4131 23.3098 29.1137 23.0742 28.856C22.8386 28.5983 22.5687 28.3971 22.257 28.2548C21.9478 28.11 21.614 28.0388 21.2606 28.0388C20.8925 28.0388 20.5563 28.11 20.2471 28.2548C19.9379 28.3971 19.6704 28.5983 19.4397 28.856C19.209 29.1137 19.0299 29.4131 18.8974 29.7567C18.7673 30.1002 18.701 30.4782 18.701 30.8904C18.701 31.3027 18.7673 31.6807 18.8974 32.0242C19.0299 32.3678 19.2115 32.6623 19.4495 32.9077C19.6851 33.1531 19.9551 33.3494 20.2667 33.4918C20.576 33.6341 20.9023 33.7077 21.2459 33.7077H21.2435ZM21.2606 37.352C20.4017 37.352 19.5796 37.1876 18.7943 36.8538C18.0115 36.5225 17.3219 36.0636 16.7329 35.4796C16.1439 34.8955 15.6703 34.2108 15.3144 33.4255C14.9586 32.6402 14.7819 31.796 14.7819 30.8904C14.7819 29.9972 14.9586 29.1554 15.3144 28.3652C15.6703 27.575 16.1439 26.8879 16.7329 26.3038C17.3219 25.7197 18.0115 25.2559 18.7943 24.9123C19.5796 24.5688 20.4017 24.397 21.2606 24.397C22.1515 24.397 22.9957 24.5688 23.7859 24.9123C24.5761 25.2559 25.2632 25.7222 25.8473 26.3111C26.4314 26.9026 26.8903 27.5971 27.2314 28.3996C27.5676 29.202 27.7369 30.0536 27.7369 30.9592C27.7369 31.8402 27.5676 32.6696 27.2314 33.4427C26.8927 34.2157 26.4314 34.8906 25.8473 35.4697C25.2632 36.0489 24.5761 36.5054 23.7859 36.844C22.9932 37.1827 22.1515 37.3496 21.2606 37.3496V37.352ZM34.1396 30.2033H32.6132V27.548H34.1396C34.8709 27.5529 35.4599 28.1443 35.4599 28.8757C35.4599 29.607 34.8685 30.1984 34.1396 30.2009V30.2033ZM38.5226 27.1676C38.2919 26.6449 37.9778 26.1983 37.5851 25.8326C37.1925 25.4669 36.7286 25.1872 36.1986 24.9909C35.666 24.7945 35.0991 24.6964 34.4905 24.6964C34.4905 24.6964 33.8157 24.6915 33.4451 24.6915C32.0266 24.6915 29.094 24.7896 28.775 24.7994V36.9986H32.6058V33.0967L32.6034 33.077L34.439 33.0819C35.0722 33.0819 35.6587 32.9936 36.1986 32.8169C36.7385 32.6377 37.2072 32.3727 37.6048 32.0218C38.0023 31.6708 38.3115 31.2389 38.5348 30.7236C38.7582 30.2082 38.8711 29.6192 38.8711 28.9517C38.8711 28.2891 38.7557 27.6928 38.5226 27.1676ZM45.7498 33.7077C46.0934 33.7077 46.4198 33.6341 46.729 33.4918C47.0382 33.3494 47.3131 33.1531 47.5536 32.9077C47.7941 32.6623 47.983 32.3678 48.1204 32.0242C48.2579 31.6807 48.3266 31.3027 48.3266 30.8904C48.3266 30.4782 48.2603 30.1002 48.1278 29.7567C47.9977 29.4131 47.8112 29.1137 47.5781 28.856C47.345 28.5983 47.0726 28.3971 46.7633 28.2548C46.4541 28.11 46.1204 28.0388 45.767 28.0388C45.3989 28.0388 45.0602 28.11 44.751 28.2548C44.4418 28.3971 44.1718 28.5983 43.9412 28.856C43.7129 29.1137 43.5313 29.4131 43.4013 29.7567C43.2712 30.1002 43.2049 30.4782 43.2049 30.8904C43.2049 31.3027 43.2712 31.6807 43.4013 32.0242C43.5313 32.3678 43.7154 32.6623 43.9534 32.9077C44.189 33.1531 44.459 33.3494 44.7682 33.4918C45.0774 33.6341 45.4038 33.7077 45.7498 33.7077ZM45.767 37.352C44.9056 37.352 44.0835 37.1876 43.3007 36.8538C42.5178 36.5225 41.8282 36.0636 41.2392 35.4796C40.6503 34.8955 40.1766 34.2108 39.8232 33.4255C39.4674 32.6402 39.2907 31.796 39.2907 30.8904C39.2907 29.9972 39.4674 29.1554 39.8232 28.3652C40.1791 27.575 40.6503 26.8879 41.2392 26.3038C41.8307 25.7197 42.5178 25.2559 43.3007 24.9123C44.086 24.5688 44.9081 24.397 45.767 24.397C46.6578 24.397 47.4996 24.5688 48.2922 24.9123C49.0824 25.2559 49.772 25.7222 50.3537 26.3111C50.9377 26.9026 51.3991 27.5971 51.7353 28.3996C52.074 29.202 52.2408 30.0536 52.2408 30.9592C52.2408 31.8402 52.0715 32.6696 51.7353 33.4427C51.3966 34.2157 50.9377 34.8906 50.3537 35.4697C49.7696 36.0489 49.0824 36.5054 48.2922 36.844C47.502 37.1827 46.6603 37.3496 45.767 37.3496V37.352ZM57.1293 36.9986V32.2034H59.7356V36.9986H63.5541V24.8043H59.7356V29.364H57.1293V24.8043H53.3108V36.9986H57.1293ZM71.6967 31.0598H69.0414V29.5333H69.0439C69.0463 28.802 69.6377 28.2106 70.3691 28.2106C71.1004 28.2106 71.6918 28.802 71.6967 29.5333V31.0598ZM75.1668 27.8253C74.9508 27.1333 74.6269 26.532 74.195 26.0216C73.7655 25.5136 73.2354 25.1136 72.6047 24.8264C71.974 24.5418 71.2525 24.397 70.4378 24.397C69.6255 24.397 68.8966 24.5467 68.2561 24.8436C67.6156 25.143 67.0708 25.543 66.6217 26.0461C66.1751 26.5516 65.8315 27.1431 65.591 27.8253C65.3505 28.5075 65.2302 29.2364 65.2302 30.0168V36.9986H69.0463V33.9016H71.6918V36.9986H75.4907V30.0855C75.4907 29.2732 75.3803 28.5198 75.1643 27.8253H75.1668Z" fill="white"/>
<path fill-rule="evenodd" clip-rule="evenodd" d="M30.8683 59.4755C30.7235 59.8706 30.5763 60.2657 30.3873 60.6265C30.1984 60.9872 29.9677 61.3136 29.6953 61.505C29.4204 61.6965 29.1038 61.7529 28.8977 61.7676C28.6916 61.7799 28.5983 61.7504 28.5051 61.721C28.4707 61.6744 28.4363 61.6277 28.402 61.5811C28.3504 61.5026 28.2989 61.4241 28.2474 61.3455C28.4511 61.2915 28.6548 61.2375 28.8364 61.1197C29.018 61.0019 29.175 60.8179 29.3419 60.5627C29.5063 60.3074 29.6781 59.9786 29.8204 59.6669C29.9628 59.3577 30.0757 59.0657 30.191 58.7761C30.2425 58.6362 30.2916 58.4939 30.3432 58.354C30.4119 58.3884 30.4781 58.4227 30.5468 58.4571C30.6425 58.5724 30.7407 58.6878 30.8364 58.8031C30.8389 58.8743 30.8413 58.9479 30.8462 59.0191C30.8536 59.1712 30.8634 59.3258 30.8708 59.478L30.8683 59.4755Z" fill="black"/>
<path fill-rule="evenodd" clip-rule="evenodd" d="M28.8781 60.7661C28.9394 60.4716 29.0032 60.1795 29.1137 59.8041C29.2241 59.4286 29.3861 58.9746 29.4867 58.6924C29.5873 58.4101 29.629 58.3022 29.6683 58.1917C29.6879 58.0813 29.71 57.9709 29.7296 57.858C29.6683 57.8212 29.6069 57.7844 29.5456 57.75C29.3517 57.8138 29.1554 57.8776 29.0057 58.0298C28.856 58.1844 28.748 58.4273 28.6768 58.7022C28.6057 58.9746 28.5689 59.2764 28.5369 59.6544C28.505 60.0323 28.4756 60.4887 28.4903 60.7366C28.505 60.9845 28.5664 61.0262 28.6376 61.0139C28.7087 61.0016 28.7873 60.9354 28.8658 60.8691C28.8682 60.8348 28.8732 60.8004 28.8756 60.7661H28.8781Z" fill="black"/>
<path d="M43.5804 51.9561C43.4503 52.1844 43.308 52.4911 43.1583 52.6948C42.7387 53.2642 42.2748 53.4629 42.0343 52.4249C42 52.2752 41.973 52.0445 41.9509 51.7353C41.9288 51.4015 41.8969 51.161 41.8577 50.9941C41.7619 50.577 41.4552 50.6138 41.3619 50.6334C41.1533 50.68 40.9766 50.842 40.8392 51.1119C40.5889 51.6592 40.3852 52.1181 40.2183 52.5034C40.1791 52.0911 40.1521 51.7475 40.1423 51.4899C40.1226 51.0825 40.0981 50.815 40.0662 50.6776C40.0048 50.4101 39.811 50.2776 39.5606 50.334C39.352 50.3831 39.1778 50.5377 39.0477 50.7954C39.0453 50.8027 38.6772 51.6322 38.6772 51.6322L38.1815 52.8764C37.8992 53.6053 37.5434 54.5133 37.3127 55.0507C37.1311 55.4753 37.3348 55.6692 37.4452 55.7747L37.4796 55.8066C37.5581 55.8876 37.6612 55.9195 37.7594 55.8925C38.0514 55.8115 38.2232 55.2642 38.525 53.9857L38.6281 53.5562L38.7508 53.0482C38.8661 52.5598 39.0453 51.804 39.2441 51.539C39.2588 51.6494 39.2735 51.8285 39.2882 52.1451C39.3373 52.95 39.3913 53.4826 39.4625 53.782C39.5042 53.966 39.5557 54.1108 39.6171 54.2286L39.6318 54.2581L39.6564 54.2777C39.7373 54.3464 39.8429 54.3685 39.9557 54.344C40.1987 54.2875 40.3754 54.0691 40.476 53.6936C40.6527 53.0531 40.8392 52.5451 41.0257 52.1697C41.0306 52.1917 41.0429 52.2506 41.0429 52.2506C41.303 53.3746 41.7227 53.8801 42.2945 53.7476C42.6258 53.6715 42.962 53.3746 43.3227 52.8421C43.4209 52.6973 43.5411 52.5255 43.6467 52.3463C43.8454 53.0727 44.2185 53.1537 44.5056 53.0875C44.8148 53.0163 45.0946 52.7341 45.3572 52.2236C45.3817 52.1746 45.4185 52.0936 45.4602 51.9979C45.4651 52.0249 45.4651 52.0568 45.4725 52.0788C45.7007 53.0703 46.2897 53.1537 46.7437 53.0482C47.1977 52.9427 47.6272 52.5991 48.0223 52.0249C48.1842 51.7893 48.356 51.5242 48.4763 51.2518C48.6751 51.9635 49.0383 52.042 49.3156 51.9782C49.588 51.9169 49.8383 51.6985 50.0567 51.3353C50.226 51.053 50.4101 50.6334 50.6113 50.0886C50.6506 49.9831 50.6849 49.8825 50.7193 49.7843C50.8175 51.004 50.8911 53.3599 50.469 55.2961C50.3144 56.0005 49.9634 56.5845 49.6002 57.0753C49.1561 57.6839 48.653 58.0545 48.0984 58.1821C47.7499 58.2631 47.4554 58.2288 47.2002 58.0766C46.9474 57.9244 46.7879 57.6889 46.7093 57.3526C46.486 56.3784 47.0333 55.436 47.7131 54.798C47.8628 54.6581 48.0272 54.3317 47.7548 54.2163C47.2713 54.0102 46.6603 54.8446 46.4345 55.1759C45.9903 55.8262 45.7523 56.7072 45.929 57.4852C46.0468 57.9956 46.3241 58.3686 46.7511 58.5944C47.1707 58.8153 47.6394 58.8668 48.1499 58.749C49.4088 58.4594 50.653 57.4557 51.1365 55.5391C51.8629 52.658 51.7058 49.6959 51.6666 48.9057C51.6175 47.902 51.5856 47.6689 51.566 47.583C51.539 47.475 51.4433 47.3057 51.0629 47.394C50.6825 47.4799 50.6138 47.691 50.6138 47.8358C49.8481 50.815 49.5021 51.0874 49.4407 51.1119C49.3573 51.1291 49.3008 50.923 49.2788 50.8322C49.2469 50.6923 49.2444 50.4052 49.4113 49.8309C49.642 49.0481 49.7499 48.5916 49.7352 48.5327C49.7205 48.4665 49.642 48.2505 49.2935 48.3315C48.9426 48.4125 48.6039 49.2199 48.4787 49.8628C48.4076 50.2309 48.383 50.5549 48.4027 50.8346C48.2309 51.1782 48.0002 51.5856 47.7302 51.8948C47.4456 52.2187 46.5572 52.8028 46.3854 52.0568C46.3093 51.723 46.3658 51.1929 46.5523 50.4763C46.783 49.5953 46.8321 49.4162 46.8419 49.3892L46.8566 49.3426L46.8492 49.2861C46.8149 49.1438 46.729 49.026 46.6014 48.945C46.4713 48.864 46.3363 48.837 46.2014 48.8689C46.0713 48.8984 45.9682 48.9843 45.8921 49.1241L45.8848 49.1413L45.7007 49.8088C45.0381 52.015 44.697 52.1966 44.6357 52.2114C44.5645 52.2285 44.5031 52.1353 44.4565 51.939C44.4246 51.7991 44.4246 51.512 44.5964 50.9353C44.8369 50.15 44.9424 49.6935 44.9301 49.6321C44.9154 49.5659 44.8369 49.3524 44.4712 49.4334C44.1301 49.5119 43.7939 50.3193 43.6712 50.9622C43.5902 51.3353 43.5608 51.6666 43.5829 51.9488L43.5804 51.9561ZM34.9421 53.1415C35.0206 52.9525 35.0697 52.7586 35.1826 52.5304C35.666 51.539 35.8403 51.4801 35.8501 51.4751C35.8501 51.4751 35.9262 51.4457 35.9286 51.4432C35.9286 51.4457 35.9286 51.4506 35.9286 51.4506C36.2624 51.5193 36.1495 52.0887 35.6709 52.5672C35.455 52.7832 35.1482 52.9893 34.9421 53.1415ZM36.8563 54.0249C36.2746 54.4593 35.8722 54.7268 35.4476 54.7661C35.2341 54.7857 34.9642 54.7145 34.8881 54.3243C34.8611 54.1869 34.8586 54.0053 34.8709 53.7942C35.293 53.6421 35.9875 53.1096 36.3409 52.6482C36.7875 52.0543 36.8685 51.75 36.7704 51.3868C36.6894 51.0899 36.5544 51.0113 36.3139 50.9033C36.1078 50.8125 35.8746 50.8346 35.7617 50.8567C35.1605 50.9745 34.6525 51.4531 34.2476 52.2752C33.8795 53.031 33.7494 53.6985 33.8598 54.2605C34.0856 55.3992 34.7801 55.5096 35.3225 55.4041C35.8255 55.306 36.3409 55.0066 36.8587 54.5157C37.3397 54.0593 38.0318 53.0654 37.8821 53.1218C37.7275 53.1758 37.4109 53.6126 36.8563 54.0274V54.0249ZM32.1739 54.4765C32.0831 54.8716 31.8917 55.6986 31.4426 55.9857C31.369 56.0324 31.2659 56.0765 31.1751 56.0275C31.1064 55.9931 31.0548 55.9072 31.0278 55.7968C31.018 55.7575 31.0131 55.7158 31.0107 55.6692C30.9886 55.1194 31.153 54.4961 31.3002 53.9439L31.3101 53.9071C31.5162 53.1047 31.7641 52.5918 32.0463 52.3807L32.1224 52.3463C32.1984 52.3292 32.2598 52.5844 32.2671 52.6114C32.3776 53.0924 32.3457 53.7182 32.1714 54.474L32.1739 54.4765ZM33.2316 53.3329C33.2856 52.8642 33.2709 52.442 33.1874 52.0788C33.0156 51.3279 32.5862 51.3107 32.3481 51.3647C31.9481 51.4555 31.6414 51.75 31.1309 52.4789C30.8855 52.8322 30.78 53.0433 30.6671 53.2617C30.6671 53.2568 30.6548 53.2323 30.4683 53.0531C30.3579 52.9476 30.2352 52.8421 30.0536 52.8249C30.0192 52.8224 29.6462 52.874 29.5677 53.0188L29.5137 53.1243L29.5922 53.2224C29.7787 53.3672 29.9039 53.5096 29.9849 53.809C30.0536 54.0642 30.1542 54.5918 30.1714 55.2225C30.1885 55.8778 30.1738 56.8815 29.8131 58.2876C29.4548 59.6914 29.0989 60.6386 28.8756 60.7663C28.8658 60.6239 28.8953 60.2754 29.1137 59.4288C29.2707 58.83 29.4131 58.3686 29.5382 58.0373L28.721 58.1551C28.1517 59.6448 27.9308 60.619 28.0486 61.1246C28.1909 61.7479 28.5492 61.7626 28.7505 61.716C29.2879 61.5933 29.7664 60.8546 30.2573 59.3944C30.5616 58.4619 30.7775 57.5809 30.9051 56.7612C31.1579 56.7686 31.2291 56.7612 31.2634 56.7539C31.8254 56.6189 32.25 56.1943 32.5518 55.6937C32.7948 55.2912 32.915 54.7661 33.0353 54.3145C33.1285 53.966 33.1948 53.6372 33.2291 53.3304L33.2316 53.3329ZM29.3174 56.236C29.1554 56.5575 29.013 56.7367 28.8045 56.8766C28.5787 57.0312 28.1934 57.0459 27.9946 56.8397C27.5897 56.4201 27.9333 54.5501 28.0535 53.9685C28.3431 52.5549 28.4167 51.5709 28.2768 50.9647C28.0952 50.1794 27.5701 49.8628 26.7553 50.0518C26.2203 50.1745 25.6362 50.7978 24.9736 51.9611C24.9712 51.966 24.7601 52.3807 24.5147 52.8666C24.6473 52.1721 24.6841 50.7635 23.5969 50.7757C23.2018 50.7782 22.3453 51.2543 22.9539 51.1807C23.2386 51.1438 23.5699 51.4972 23.6264 52.4985C23.6632 53.1783 23.5527 53.9047 23.3294 54.7759C22.927 56.3538 22.5245 57.5293 22.1441 58.295C22.1441 58.295 22.0631 58.4251 22.0852 58.5232C22.122 58.6778 22.1932 58.7907 22.3012 58.857C22.4091 58.9233 22.5417 58.938 22.6963 58.9036C22.6963 58.9036 22.8681 58.8668 22.9417 58.7932C23.0153 58.7171 23.1675 57.8533 23.3122 57.441C23.7319 56.241 24.1687 55.117 24.7209 53.9587C25.4645 52.4028 26.159 51.431 26.7651 50.9647C26.9443 50.8346 27.0621 50.7905 27.1259 50.7733C27.1946 50.7586 27.3222 50.7291 27.4032 51.0727C27.4498 51.2813 27.4645 51.5905 27.4449 51.9954C27.4253 52.4101 27.3664 52.8862 27.2756 53.4139C27.2707 53.4556 27.2388 53.6495 27.0105 54.8176C26.8657 55.5955 26.8878 56.3268 27.0351 56.8128C27.2265 57.4434 27.602 57.7281 28.213 57.5882C28.5198 57.5171 28.8167 57.2864 29.04 57.0753C29.2928 56.8397 29.7174 55.9391 29.5603 55.7747C29.4032 55.6103 29.4916 55.8851 29.3174 56.2336V56.236ZM58.2803 48.5401C57.6668 49.6395 57.0189 50.2309 56.7465 49.0383C56.7121 48.891 56.6851 48.6603 56.6631 48.3511C56.6385 48.0198 56.6091 47.7744 56.5723 47.6075C56.4766 47.1903 56.1698 47.2272 56.0765 47.2468C55.8679 47.2959 55.6912 47.4554 55.5538 47.7253C55.3035 48.2726 55.0998 48.7315 54.9329 49.1168C54.8937 48.7045 54.8667 48.3585 54.8544 48.1033C54.8348 47.6959 54.8102 47.4284 54.7783 47.291C54.717 47.0235 54.5207 46.8909 54.2728 46.9498C54.0617 46.9989 53.8924 47.1535 53.7599 47.4112C53.755 47.421 53.3893 48.248 53.3893 48.248L52.8961 49.4923C52.6114 50.2211 52.2555 51.1267 52.0273 51.6666C51.8457 52.0887 52.0494 52.2825 52.1574 52.3881L52.1917 52.42C52.2703 52.5034 52.3733 52.5329 52.4715 52.5059C52.7635 52.4249 52.9353 51.8776 53.2347 50.599L53.3378 50.1696L53.463 49.6616C53.5783 49.1732 53.7574 48.4174 53.9587 48.1523C53.9709 48.2628 53.9857 48.4419 54.0028 48.7609C54.0519 49.5634 54.1059 50.0984 54.1746 50.3978C54.2164 50.5819 54.2679 50.7267 54.3292 50.842L54.3464 50.8714L54.371 50.8935C54.4519 50.9622 54.5575 50.9843 54.6679 50.9598C54.9133 50.9033 55.0875 50.6849 55.1882 50.3119C55.3649 49.6714 55.5489 49.1634 55.7379 48.7855C55.7428 48.8076 55.7551 48.8665 55.7551 48.8665C56.0152 49.9929 56.4348 50.496 57.0066 50.3635C57.3379 50.2874 57.7723 50.0444 58.0349 49.4604C58.4104 48.6235 58.5748 48.0075 58.2778 48.5425L58.2803 48.5401Z" fill="white"/>
</g>
<defs>
<clipPath id="clip0_1233_3398">
<rect width="78.5142" height="75.0602" fill="white" transform="translate(0.30481 0.234375)"/>
</clipPath>
</defs>
</svg>
