<svg width="82" height="55" viewBox="0 0 82 55" fill="none" xmlns="http://www.w3.org/2000/svg">
<g clip-path="url(#clip0_1233_3798)">
<path d="M33.2689 16.4598C33.3134 16.2901 33.4024 16.1149 33.65 15.8673C33.9449 15.5724 34.3372 15.411 34.7517 15.411C35.1691 15.411 35.5585 15.5724 35.8534 15.8673L41.056 21.0698L46.2585 15.8673C47.9889 14.1173 50.3148 13.1492 52.7741 13.0713C51.6223 11.7247 50.4483 10.7427 47.8999 10.2892C45.0093 9.95254 42.6278 11.1071 41.056 13.9003C39.4062 11.0431 37.136 10.1473 34.799 10.2363C34.7462 10.2363 34.6349 10.3532 34.6126 10.3587C33.433 11.2712 32.7236 12.7096 32.718 14.2008C32.7152 14.9992 32.9072 15.7727 33.2661 16.4626L33.2689 16.4598ZM46.9512 19.598L41.0587 25.4766L33.6528 18.0707C32.4537 17.1442 31.7554 15.7115 31.761 14.198C31.7666 12.743 32.4343 11.3269 33.5554 10.406C32.2757 10.7065 31.0293 11.3185 30.0695 12.2811C27.2484 14.7405 27.5628 18.8051 30.0695 21.6568L41.0615 32.6488L52.1231 21.6568L54.0622 19.8874C51.8644 16.9801 48.8236 17.7646 46.9568 19.598H46.9512ZM33.5109 27.8219L33.6723 27.1486L29.6243 22.8865L27.4543 31.8671L27.0342 33.642C28.8621 33.0216 30.6843 32.404 32.5622 31.7474L33.5165 27.8219H33.5109ZM25.6793 28.1085C25.6265 27.9916 25.5764 27.8748 25.5263 27.7551C24.6583 25.7047 24.1993 23.4679 24.1993 21.1699C24.1993 16.5016 26.0911 12.2756 29.1486 9.21807C32.2089 6.16055 36.4349 4.26594 41.1005 4.26594C45.7688 4.26594 49.9948 6.15777 53.0523 9.21807C56.1098 12.2756 58.0045 16.5016 58.0045 21.1699C58.0045 23.4846 57.5343 25.7409 56.6496 27.8136C56.6078 27.9137 56.5633 28.0111 56.5188 28.1085H56.5216L57.9544 33.873V33.8757C58.9865 32.5069 59.8434 31.0213 60.5139 29.4578C61.624 26.8565 62.2138 24.041 62.2138 21.1699C62.2138 15.3414 59.849 10.061 56.0292 6.24123C52.2094 2.42142 46.929 0.0566406 41.1005 0.0566406C35.272 0.0566406 29.9916 2.42142 26.1718 6.24123C22.352 10.061 19.9872 15.3414 19.9872 21.1699C19.9872 24.0077 20.5659 26.7981 21.6592 29.3854C22.3325 30.9768 23.2005 32.4875 24.2466 33.8757L24.28 33.8646L25.6793 28.1112V28.1085ZM55.2418 33.6866L54.7522 31.8643L52.5822 22.8837L48.5342 27.1459L48.6956 27.8191L49.6471 31.7447C51.1188 32.2593 55.7092 33.8451 55.2418 33.6838V33.6866Z" fill="black"/>
<path d="M34.0951 45.0624C34.0951 43.8801 34.0951 42.7005 33.6027 42.1106C32.8933 41.2454 31.2407 40.536 29.0762 40.536C25.7294 40.536 22.9751 43.6853 22.9751 47.622C22.9751 51.3611 25.3371 54.3129 29.0762 54.3129C31.4382 54.3129 33.2104 53.5256 34.4902 51.0662L34.0979 50.7713C33.0157 52.5435 31.6385 53.5283 29.6688 53.5283C26.322 53.5283 24.9448 50.5766 24.9448 47.622C24.9448 42.898 27.1093 41.3233 29.6688 41.3233C31.8333 41.3233 33.2132 42.5029 33.7029 45.0624H34.0951ZM38.6216 43.2903C38.6216 41.3205 38.2293 40.9283 36.8494 40.9283H35.0772V41.3205H35.4695C36.6519 41.3205 36.8466 42.1079 36.8466 43.2903V53.9178H45.6046V53.1305H38.616V43.2903H38.6216ZM47.3796 51.5558C47.3796 53.5228 47.7719 53.9178 49.1518 53.9178H50.924V53.5256H50.5317C49.3521 53.5256 49.1546 52.7382 49.1546 51.5586V40.9283H47.3824V51.5586L47.3796 51.5558ZM53.0885 53.9178H53.8758V43.5852L62.3389 54.1154H62.7312V40.9283H61.9439V50.6711L55.0554 42.1079C54.4656 41.379 53.6783 40.9255 52.3985 40.9255H51.1187V41.3178H51.3163C52.6934 41.3178 53.0885 42.1051 53.0885 43.2875V53.9151V53.9178ZM66.078 51.5558C66.078 53.5228 66.4703 53.9178 67.8502 53.9178H69.6224V53.5256H69.2302C68.0506 53.5256 67.853 52.7382 67.853 51.5586V40.9283H66.0808V51.5586L66.078 51.5558ZM81.5298 45.0597C81.5298 43.8773 81.5298 42.6977 81.0373 42.1079C80.3279 41.2426 78.6753 40.5332 76.5109 40.5332C73.164 40.5332 70.4098 43.6825 70.4098 47.6192C70.4098 51.3583 72.7718 54.3101 76.5109 54.3101C78.8729 54.3101 80.6451 53.5228 81.9248 51.0634L81.5326 50.7685C80.4503 52.5407 79.0732 53.5256 77.1035 53.5256C73.7566 53.5256 72.3795 50.5738 72.3795 47.6192C72.3795 42.8952 74.5439 41.3205 77.1035 41.3205C79.2679 41.3205 80.6479 42.5001 81.1375 45.0597H81.5298Z" fill="black"/>
<path fill-rule="evenodd" clip-rule="evenodd" d="M19.7423 47.0044C20.3349 47.0044 20.8162 47.4857 20.8162 48.0783C20.8162 48.6709 20.3349 49.1522 19.7423 49.1522C19.1498 49.1522 18.6685 48.6709 18.6685 48.0783C18.6685 47.4857 19.1498 47.0044 19.7423 47.0044Z" fill="black"/>
<path d="M1.84237 40.7778H5.17531L9.5265 51.5362L12.0137 45.6326C12.954 43.4041 13.5744 41.7877 13.8749 40.7778H17.5028V41.2564C16.913 41.2703 16.504 41.3676 16.2703 41.554C16.0366 41.7377 15.9197 42.0743 15.9197 42.5667C15.9197 42.6363 15.9225 42.7114 15.9309 42.8004L16.7126 50.9213C16.8072 51.9257 16.9658 52.5656 17.1856 52.8549C17.4082 53.1387 17.8533 53.2917 18.5266 53.3139V53.7925H13.5188V53.3139C14.0279 53.3 14.3868 53.1999 14.5983 53.0079C14.8069 52.8159 14.9098 52.4459 14.9098 51.8951C14.9098 51.7838 14.9071 51.6697 14.8932 51.5445L14.103 43.4347C12.9373 45.513 12.1083 47.1321 11.6159 48.2895L9.07302 54.2738H8.61398L3.84826 42.4304L3.5005 46.0916C3.3447 47.7442 3.26402 49.0518 3.26402 50.0144C3.26402 52.1566 3.80096 53.2555 4.87763 53.3167V53.7952H0.287182V53.3167C0.760137 53.2082 1.13294 52.905 1.41115 52.4042C1.68936 51.9034 1.97591 51.0159 2.27081 49.7362C2.56571 48.4564 2.77993 47.0876 2.91626 45.6354L3.16943 42.9284C3.17499 42.8004 3.18056 42.6585 3.18056 42.5083C3.18056 42.027 3.08596 41.6987 2.89956 41.5318C2.7076 41.3649 2.35706 41.2758 1.84793 41.2619V40.7834L1.84237 40.7778Z" fill="black"/>
</g>
<defs>
<clipPath id="clip0_1233_3798">
<rect width="81.6441" height="54.2563" fill="white" transform="translate(0.281189 0.0566406)"/>
</clipPath>
</defs>
</svg>
