<svg width="98" height="28" viewBox="0 0 98 28" fill="none" xmlns="http://www.w3.org/2000/svg">
<g clip-path="url(#clip0_1233_3491)">
<path fill-rule="evenodd" clip-rule="evenodd" d="M6.53506 14.546L6.53995 14.5509L6.54484 14.5558L6.54973 14.5606L6.55461 14.5655L6.5595 14.5704L6.56439 14.5753L6.56928 14.5802L12.8646 20.9293L19.3555 14.458L19.3506 20.8169C19.3506 22.9822 19.3506 25.1132 19.3506 27.2442C21.2177 27.2442 23.0897 27.2442 24.9568 27.2442C24.9568 25.0057 24.9568 22.7622 24.9568 18.2753C24.9568 13.7884 24.9568 7.05313 24.9568 0.317871C24.9422 0.317871 24.9275 0.317871 24.8688 0.322759C24.8102 0.327647 24.7076 0.337422 24.5805 0.371636C24.4534 0.40585 24.3068 0.46939 24.1748 0.547593C24.0379 0.625796 23.9206 0.723551 23.7496 0.884845C23.5785 1.04614 23.3634 1.27097 22.5716 2.08233L21.9704 2.70307L12.9135 11.76L2.42939 1.28075L2.41473 1.2612L2.40006 1.24653L2.3854 1.23187C2.23388 1.07547 2.14102 0.982599 2.06281 0.909283L2.05304 0.899508L2.04326 0.889733C1.87219 0.728438 1.75489 0.630684 1.61803 0.552481C1.48606 0.474278 1.33454 0.410737 1.21235 0.376524C1.08527 0.34231 0.98263 0.332534 0.923977 0.327647C0.865325 0.322759 0.850662 0.322759 0.835999 0.322759C0.835999 7.05802 0.835999 13.7933 0.835999 18.2802C0.835999 22.7671 0.835999 25.0106 0.835999 27.2491C2.7031 27.2491 4.57509 27.2491 6.4422 27.2491C6.4422 25.1181 6.4422 22.987 6.4422 20.8218L6.43731 14.458L6.52529 14.546H6.53506Z" fill="black"/>
<path fill-rule="evenodd" clip-rule="evenodd" d="M33.305 27.2603C31.3157 27.2603 29.3264 27.2603 27.3371 27.2603C31.1495 18.4869 34.9619 9.71348 36.873 5.295C38.789 0.881398 38.8085 0.827633 38.8428 0.764093C38.877 0.700552 38.9258 0.632125 38.9845 0.568584C39.0431 0.505044 39.1067 0.45128 39.1996 0.40729C39.2924 0.368189 39.4195 0.34375 39.5417 0.34375C39.6639 0.34375 39.7861 0.363301 39.8838 0.402402C39.9816 0.441504 40.0647 0.500157 40.1282 0.568584C40.1918 0.637012 40.2455 0.70544 40.2993 0.822745C40.3579 0.935162 40.4215 1.09157 42.3326 5.50028C44.2486 9.90899 48.0121 18.5798 51.7756 27.2457C49.4393 27.2457 47.103 27.2457 44.7667 27.2457C44.3512 26.229 43.9309 25.2075 43.5154 24.1909C40.5241 24.1909 37.5329 24.1909 34.5416 24.1909C34.131 25.2124 33.7156 26.2339 33.305 27.2555V27.2603ZM36.438 19.5524C37.3031 17.4312 38.1682 15.3099 39.0334 13.1886C39.8985 15.3099 40.7587 17.4263 41.6239 19.5475C39.8936 19.5475 38.1683 19.5524 36.438 19.5524Z" fill="black"/>
<path fill-rule="evenodd" clip-rule="evenodd" d="M54.0923 27.2503C54.0923 18.3596 54.0923 9.46886 54.0923 0.578125C56.6926 0.578125 59.2929 0.578125 60.808 0.578125C62.3232 0.578125 62.7582 0.578125 63.1004 0.583013C63.4425 0.5879 63.7016 0.592788 64.161 0.622114C64.6253 0.656328 65.295 0.719868 65.8228 0.788296C66.3507 0.861612 66.7368 0.944703 67.1132 1.04246C67.4895 1.1451 67.861 1.2624 68.2031 1.39437C68.5453 1.52634 68.863 1.67786 69.1562 1.83915C69.4544 2.00045 69.7281 2.1764 70.0165 2.38658C70.3049 2.59675 70.603 2.84113 70.8376 3.05619C71.0722 3.26636 71.2433 3.44721 71.3997 3.62805C71.5561 3.8089 71.6978 3.99952 71.8298 4.19503C71.9618 4.39054 72.0791 4.59093 72.1866 4.78155C72.2942 4.97217 72.387 5.15302 72.475 5.3583C72.563 5.56358 72.6461 5.79819 72.7096 5.98881C72.7731 6.18432 72.822 6.33584 72.8709 6.55579C72.9198 6.77574 72.9687 7.05922 73.0126 7.37204C73.0517 7.68485 73.0811 8.02699 73.086 8.37401C73.0908 8.72104 73.0713 9.07784 73.0322 9.41021C72.998 9.74257 72.9491 10.0554 72.8709 10.378C72.7976 10.6957 72.6949 11.0232 72.5679 11.336C72.4457 11.6488 72.2942 11.9567 72.1475 12.2158C72.0009 12.4797 71.8591 12.6947 71.7174 12.9C71.5708 13.1053 71.4241 13.291 71.2482 13.4866C71.0722 13.6821 70.8718 13.8776 70.647 14.078C70.427 14.2784 70.1876 14.4788 69.992 14.6254C69.7965 14.772 69.645 14.8649 69.6743 14.9773C69.6988 15.0946 69.9041 15.2315 70.0996 15.383C70.2951 15.5345 70.4906 15.7056 70.6812 15.8913C70.8718 16.077 71.0576 16.2823 71.2335 16.4925C71.4046 16.7027 71.561 16.9177 71.7076 17.1328C71.8543 17.3527 72.0009 17.5776 72.1671 17.8757C72.3381 18.1739 72.5336 18.5453 72.6998 18.8972C72.866 19.2492 73.0029 19.5864 73.1691 20.0214C73.3352 20.4515 73.5259 20.9794 73.7165 21.5073C73.9022 22.0352 74.0831 22.5581 74.2932 23.1593C74.5034 23.7654 74.7478 24.4448 74.9433 25.0264C75.1437 25.6081 75.2952 26.0822 75.4076 26.4341C75.52 26.786 75.5933 27.0206 75.6716 27.2503C73.3108 27.2503 70.95 27.2503 68.5893 27.2503C68.3107 26.1262 68.0321 24.9971 67.8072 24.1418C67.5824 23.2864 67.4162 22.695 67.2696 22.2111C67.123 21.7272 66.9959 21.3411 66.8346 20.9305C66.6733 20.52 66.4778 20.0752 66.292 19.7135C66.1112 19.3567 65.9401 19.083 65.7593 18.8386C65.5784 18.5942 65.3927 18.3791 65.1728 18.1934C64.9577 18.0077 64.7084 17.8513 64.4689 17.7291C64.2246 17.6118 63.9851 17.5287 63.7113 17.4651C63.4376 17.4065 63.1297 17.3674 62.5823 17.3527C62.0349 17.3332 61.2577 17.3332 60.4757 17.3332C60.4757 20.6373 60.4757 23.9462 60.4757 27.2503C58.3495 27.2503 56.2234 27.2503 54.0972 27.2503H54.0923ZM60.461 12.4601C60.461 10.0945 60.461 7.72884 60.461 5.36319C60.9351 5.36319 61.4141 5.36319 61.7758 5.36319C62.1375 5.36319 62.3917 5.36319 62.6947 5.37785C62.9977 5.3974 63.3545 5.43162 63.6625 5.48049C63.9704 5.52937 64.2294 5.58802 64.4641 5.66623C64.6987 5.74443 64.9137 5.84218 65.1337 5.97415C65.3487 6.10612 65.5687 6.27719 65.7691 6.50202C65.9695 6.72686 66.1503 7.00057 66.2823 7.28406C66.4142 7.56754 66.5022 7.85592 66.556 8.14429C66.6098 8.43267 66.6293 8.72104 66.6195 9.0143C66.6098 9.30757 66.5755 9.60572 66.5218 9.86477C66.468 10.1238 66.3898 10.3438 66.2872 10.5588C66.1845 10.7739 66.0526 10.984 65.8864 11.1844C65.7202 11.3848 65.5149 11.5803 65.2705 11.7465C65.0212 11.9176 64.7329 12.0642 64.4249 12.1669C64.1219 12.2695 63.8042 12.3282 63.423 12.3722C63.0417 12.4161 62.5921 12.4455 62.2401 12.4601C61.8882 12.4748 61.6292 12.4748 61.3506 12.4748C61.072 12.4748 60.7689 12.4699 60.4659 12.465L60.461 12.4601Z" fill="black"/>
<path fill-rule="evenodd" clip-rule="evenodd" d="M77.1086 23.5309C78.3403 22.2503 79.572 20.9697 80.8037 19.6941C80.9699 19.8945 81.1409 20.0997 81.3364 20.305C81.5319 20.5152 81.7617 20.7351 82.0012 20.9404C82.2407 21.1457 82.4948 21.3412 82.7734 21.5367C83.052 21.7273 83.3551 21.918 83.6581 22.0695C83.9611 22.2259 84.2593 22.3481 84.5526 22.4507C84.8507 22.5534 85.1489 22.6365 85.4861 22.7098C85.8234 22.7831 86.2046 22.8466 86.5614 22.876C86.9231 22.9053 87.2652 22.8955 87.5634 22.8711C87.8615 22.8466 88.1206 22.8124 88.3503 22.7635C88.58 22.7147 88.7853 22.656 88.9955 22.5778C89.2057 22.4996 89.4207 22.4018 89.6016 22.2943C89.7824 22.1868 89.9339 22.0646 90.0708 21.9228C90.2125 21.7811 90.3396 21.6198 90.4422 21.4536C90.5498 21.2874 90.628 21.1213 90.6915 20.9355C90.7551 20.7498 90.8088 20.5445 90.8235 20.3441C90.8381 20.1437 90.8235 19.9384 90.7893 19.7478C90.7551 19.5572 90.6964 19.3764 90.6377 19.2297C90.5791 19.0782 90.5107 18.9609 90.4227 18.8387C90.3347 18.7165 90.2321 18.5943 90.1099 18.4721C89.9877 18.3499 89.8459 18.218 89.6944 18.1007C89.5429 17.9834 89.3767 17.8807 89.191 17.7781C89.0053 17.6754 88.8 17.5728 88.5898 17.4701C88.3796 17.3675 88.1646 17.2698 87.8909 17.1573C87.6171 17.0449 87.2897 16.9227 86.8889 16.7859C86.4881 16.649 86.014 16.4926 85.5008 16.3167C84.9876 16.1456 84.445 15.955 84.0247 15.7986C83.6043 15.6421 83.3111 15.52 83.0032 15.3782C82.6952 15.2414 82.3775 15.085 82.0598 14.909C81.7421 14.733 81.4342 14.5424 81.1361 14.342C80.8428 14.1416 80.5642 13.9363 80.3247 13.7311C80.0852 13.5258 79.8799 13.3205 79.6795 13.0859C79.4791 12.8513 79.2738 12.5824 79.0979 12.3136C78.9219 12.0448 78.7655 11.7809 78.6482 11.5414C78.526 11.3019 78.438 11.0917 78.3598 10.8766C78.2816 10.6616 78.2132 10.4465 78.1448 10.1581C78.0763 9.86977 78.0128 9.50808 77.9786 9.14639C77.9444 8.7847 77.9444 8.42301 77.9639 8.06621C77.9835 7.7094 78.0226 7.3526 78.0959 6.99091C78.1692 6.62922 78.2767 6.26753 78.3892 5.94006C78.5016 5.61747 78.6238 5.32909 78.7557 5.06027C78.8877 4.79144 79.0343 4.53728 79.2005 4.27335C79.3667 4.0143 79.5524 3.74548 79.7528 3.49132C79.9532 3.23715 80.1683 3.00254 80.3882 2.7826C80.6131 2.56265 80.8428 2.35737 81.1165 2.1472C81.3902 1.93214 81.703 1.71219 82.0354 1.51668C82.3678 1.32117 82.7197 1.1501 83.0667 0.998586C83.4137 0.851955 83.7461 0.724874 84.1566 0.602682C84.5623 0.480489 85.0413 0.368072 85.4861 0.284981C85.9309 0.206778 86.3463 0.162788 86.7716 0.133462C87.1968 0.109024 87.6318 0.0992481 88.057 0.118799C88.4823 0.13835 88.9026 0.177451 89.3376 0.240992C89.7726 0.304532 90.2223 0.382735 90.628 0.475601C91.0337 0.568468 91.4002 0.67111 91.8059 0.803078C92.2116 0.939933 92.6613 1.111 93.0523 1.28207C93.4482 1.45314 93.7903 1.6291 94.152 1.83438C94.5088 2.03967 94.8852 2.27916 95.2371 2.53333C95.589 2.78749 95.9214 3.0612 96.1608 3.26648C96.4003 3.47665 96.547 3.6184 96.6936 3.76503C95.4668 5.05049 94.24 6.33596 93.0132 7.61654C92.8274 7.41614 92.6417 7.21086 92.412 6.9958C92.1823 6.78074 91.9086 6.55102 91.63 6.35062C91.3514 6.15023 91.063 5.97427 90.7502 5.81297C90.4374 5.65168 90.105 5.50505 89.8068 5.39263C89.5087 5.28022 89.2496 5.2069 88.9857 5.14825C88.7218 5.08959 88.4529 5.05049 88.1792 5.02605C87.9055 5.00162 87.622 4.98695 87.3483 4.99673C87.0697 5.0065 86.8009 5.03583 86.5565 5.08471C86.317 5.13358 86.1068 5.20201 85.9113 5.2851C85.7158 5.36819 85.535 5.46595 85.3737 5.58325C85.2075 5.70056 85.056 5.83741 84.9289 5.99382C84.7969 6.15023 84.6894 6.32618 84.6112 6.49237C84.533 6.65855 84.4841 6.81007 84.4548 6.96647C84.4255 7.11799 84.4108 7.26951 84.4108 7.42103C84.4108 7.57255 84.4255 7.72407 84.4597 7.88047C84.4939 8.03688 84.5477 8.20306 84.6308 8.36924C84.709 8.53543 84.8116 8.70161 84.9485 8.85801C85.0853 9.01931 85.2564 9.17083 85.4568 9.31746C85.6572 9.46409 85.8869 9.60095 86.1899 9.75246C86.493 9.90398 86.8596 10.0604 87.231 10.207C87.6025 10.3537 87.9691 10.4905 88.4041 10.6371C88.8391 10.7838 89.3425 10.9451 89.8166 11.1064C90.2907 11.2677 90.7306 11.4241 91.1461 11.5756C91.5615 11.732 91.9476 11.8835 92.3436 12.0595C92.7395 12.2354 93.1451 12.4407 93.5166 12.646C93.8881 12.8562 94.2302 13.0663 94.5284 13.2765C94.8265 13.4818 95.0807 13.6822 95.3299 13.9119C95.5792 14.1367 95.8187 14.3909 95.9996 14.5962C96.1804 14.8015 96.2928 14.953 96.4101 15.1192C96.5225 15.2853 96.6398 15.4613 96.7571 15.6617C96.8745 15.867 96.9918 16.0918 97.1042 16.3264C97.2166 16.561 97.3192 16.8005 97.4023 17.0547C97.4903 17.3089 97.5587 17.5826 97.6174 17.8709C97.676 18.1593 97.7249 18.4672 97.7494 18.741C97.7738 19.0147 97.7738 19.2542 97.7591 19.5377C97.7494 19.8211 97.7249 20.1437 97.6956 20.4077C97.6663 20.6716 97.6272 20.8818 97.5734 21.1115C97.5196 21.3412 97.4512 21.5905 97.3583 21.8642C97.2655 22.1379 97.1579 22.4361 97.0504 22.6756C96.9478 22.9151 96.8549 23.1057 96.7425 23.3061C96.6301 23.5114 96.503 23.7362 96.3515 23.9561C96.1999 24.181 96.0289 24.4009 95.8529 24.6111C95.677 24.8164 95.4912 25.0119 95.3299 25.1683C95.1686 25.3247 95.0318 25.4469 94.8558 25.5886C94.6799 25.7353 94.4599 25.9014 94.2253 26.0627C93.9858 26.2191 93.7317 26.3707 93.4775 26.5026C93.2185 26.6395 92.9643 26.7568 92.6808 26.879C92.3973 27.0012 92.0845 27.1185 91.7864 27.2162C91.4882 27.314 91.2047 27.3971 90.8284 27.4802C90.452 27.5682 89.9828 27.6561 89.5136 27.7197C89.0444 27.7832 88.5849 27.8125 88.1059 27.8321C87.6318 27.8467 87.1381 27.8516 86.7227 27.837C86.3072 27.8223 85.9602 27.7979 85.5887 27.7539C85.2124 27.7148 84.8116 27.6561 84.3228 27.5633C83.8389 27.4704 83.272 27.3335 82.7783 27.1869C82.2847 27.0403 81.8643 26.879 81.444 26.6981C81.0236 26.5173 80.6033 26.3169 80.1927 26.0725C79.7822 25.8281 79.3765 25.5398 79.0197 25.2709C78.6629 24.9972 78.3501 24.7382 78.0421 24.4498C77.7342 24.1614 77.4361 23.8388 77.133 23.5162L77.1086 23.5309Z" fill="black"/>
</g>
<defs>
<clipPath id="clip0_1233_3491">
<rect width="96.9036" height="27.749" fill="white" transform="translate(0.845703 0.113281)"/>
</clipPath>
</defs>
</svg>
