<svg width="92" height="70" viewBox="0 0 92 70" fill="none" xmlns="http://www.w3.org/2000/svg">
<g clip-path="url(#clip0_1233_3499)">
<path d="M6.42131 40.7291L4.96039 36.9465L3.70393 33.3684H3.55882V45.1844H0.392944V24.7777H3.47308L5.6859 30.5818L7.28533 35.0107H7.43043L9.07273 30.4664L11.2724 24.7777H14.3228V45.1844H11.1569V33.4278H11.0382L9.75208 37.062L8.32084 40.7258H6.42461L6.42131 40.7291ZM24.6119 45.1844L23.8205 40.9336H20.0676C19.9324 41.636 19.8005 42.345 19.6718 43.0606C19.5432 43.773 19.4212 44.482 19.3058 45.1877H16.0805C16.7632 41.7679 17.4491 38.3646 18.1318 34.9844C18.8144 31.6041 19.5004 28.2008 20.183 24.781H23.7017L27.8372 45.1877H24.6119V45.1844ZM21.855 29.4968C21.6604 30.905 21.4559 32.3065 21.2383 33.7048C21.0239 35.1031 20.7898 36.5244 20.5359 37.9722H23.3225L22.0034 29.4968H21.855ZM34.4328 24.5996C35.2737 24.5996 35.9959 24.7183 36.6027 24.9459C37.2095 25.18 37.7108 25.5032 38.1131 25.9187C38.5154 26.3342 38.8056 26.8322 38.9936 27.4027C39.1783 27.9733 39.2706 28.6064 39.2706 29.2891L36.1905 30.0805C36.1905 29.3385 36.0487 28.7317 35.7717 28.2635C35.488 27.7952 35.0396 27.561 34.4163 27.561C34.0502 27.561 33.7468 27.6402 33.516 27.7952C33.2818 27.9502 33.1004 28.1513 32.9718 28.3954C32.8498 28.6394 32.7608 28.9098 32.7113 29.1901C32.6618 29.4737 32.6388 29.7409 32.6388 29.9981V40.3664C32.6388 40.5609 32.6585 40.7753 32.6981 41.0127C32.7377 41.2535 32.8201 41.4711 32.9422 41.6789C33.0708 41.8833 33.2456 42.0548 33.4698 42.1933C33.6908 42.3285 33.9777 42.3978 34.3239 42.3978C35.4881 42.3978 36.0784 41.5569 36.0981 39.875C36.6258 39.9739 37.1534 40.0564 37.6811 40.1256C38.2087 40.1949 38.7364 40.2674 39.264 40.3466C39.2244 41.8899 38.799 43.1134 37.9878 44.0104C37.1765 44.9107 35.9794 45.3592 34.3965 45.3592C32.7146 45.3592 31.4746 44.9338 30.6733 44.083C29.8719 43.2321 29.4696 41.9856 29.4696 40.3433V30.1696C29.4696 29.4078 29.552 28.6889 29.7202 28.0161C29.8851 27.3401 30.1654 26.7498 30.5546 26.2419C30.947 25.734 31.4581 25.3317 32.0946 25.0415C32.7311 24.748 33.5061 24.6029 34.4262 24.6029L34.4328 24.5996ZM57.1282 24.7744V45.1811H41.5593V24.7744H44.7252V42.2197H47.7459V24.7744H50.9118V42.2197H53.9623V24.7744H57.1282ZM65.1616 27.7358V45.1811H61.9957V27.7358H58.7111V24.7744H68.4462V27.7358H65.1616ZM76.2751 45.1811L75.4837 40.9303H71.7308C71.5956 41.6327 71.4637 42.3417 71.3351 43.0574C71.2097 43.7697 71.0844 44.4787 70.969 45.1844H67.7438C68.4264 41.7646 69.1123 38.3613 69.795 34.9811C70.4776 31.6008 71.1636 28.1975 71.8462 24.7777H75.365L79.5004 45.1844H76.2751V45.1811ZM73.5182 29.4935C73.3236 30.9017 73.1192 32.3033 72.9015 33.7015C72.6871 35.0998 72.453 36.5211 72.1991 37.9689H74.9857L73.6666 29.4935H73.5215H73.5182ZM84.4537 42.19H85.6475C85.8025 42.19 85.941 42.1604 86.0531 42.101C86.9072 42.0218 87.4744 41.6855 87.7581 41.0886C88.0384 40.4917 88.1769 39.7431 88.1769 38.8461C88.1769 37.7314 87.9856 36.9169 87.6097 36.3991C87.2337 35.8814 86.5577 35.6208 85.5848 35.6208H84.4504V42.19H84.4537ZM84.4537 32.6594H85.7959C86.8479 32.6594 87.7152 32.8012 88.4044 33.0848C89.097 33.3684 89.651 33.7675 90.0698 34.2951C90.4886 34.8228 90.7821 35.4691 90.9602 36.2243C91.135 36.9861 91.224 37.8468 91.224 38.7999C91.224 40.927 90.7854 42.5198 89.9049 43.585C89.0244 44.6469 87.6657 45.1778 85.8288 45.1778H81.2845V24.7711H90.2281V27.7325H84.4504V32.6594H84.4537Z" fill="black"/>
<path fill-rule="evenodd" clip-rule="evenodd" d="M79.441 21.4895H77.8647V2.28972H57.8867V0.713379H79.441V21.4928V21.4895ZM79.441 48.4885H77.8647V67.6883H57.8867V69.2646H79.441V48.4852V48.4885ZM11.1503 48.4753H12.7267V67.6916H32.7047V69.2547H11.1503V48.4753ZM11.1503 21.4895H12.7267V2.28972H32.7047V0.713379H11.1503V21.4928V21.4895Z" fill="black"/>
<path d="M19.6124 58.7611V54.7774H20.9843C21.2943 54.7774 21.5317 54.7972 21.6933 54.8334C21.9209 54.8862 22.1155 54.9818 22.277 55.1204C22.4881 55.2984 22.6431 55.526 22.7486 55.7997C22.8542 56.0767 22.9069 56.3933 22.9069 56.7462C22.9069 57.0496 22.8706 57.3167 22.8014 57.5508C22.7321 57.785 22.6398 57.9795 22.531 58.1312C22.4188 58.2829 22.3001 58.405 22.1682 58.4907C22.0363 58.5797 21.878 58.6457 21.6933 58.6919C21.5054 58.738 21.2943 58.7611 21.0536 58.7611H19.6157H19.6124ZM20.1401 58.2928H20.9909C21.2547 58.2928 21.4592 58.2697 21.6076 58.2203C21.756 58.1708 21.8747 58.1016 21.9638 58.0125C22.0891 57.8872 22.1847 57.719 22.254 57.508C22.3232 57.2969 22.3595 57.0397 22.3595 56.7396C22.3595 56.3207 22.2902 56.0009 22.155 55.7766C22.0198 55.5524 21.8516 55.4007 21.6571 55.3248C21.5153 55.2688 21.2877 55.2424 20.9744 55.2424H20.1401V58.2928ZM29.8257 58.7611V54.7774H32.7047V55.2457H30.3566V56.4691H32.5563V56.9374H30.3566V58.2961H32.8003V58.7644H29.829L29.8257 58.7611ZM39.5377 57.4816L40.0324 57.4354C40.0554 57.6366 40.1115 57.8015 40.1972 57.9301C40.283 58.0587 40.4182 58.1609 40.5963 58.2401C40.7777 58.3192 40.9821 58.3588 41.2064 58.3588C41.4075 58.3588 41.5856 58.3291 41.7373 58.2697C41.8923 58.2104 42.0044 58.1279 42.0803 58.0224C42.1561 57.9169 42.1924 57.8048 42.1924 57.6794C42.1924 57.5541 42.1561 57.4453 42.0836 57.353C42.011 57.2606 41.8923 57.1815 41.7241 57.1188C41.6186 57.0792 41.3812 57.0133 41.0151 56.9242C40.649 56.8352 40.3918 56.7528 40.2467 56.6769C40.0554 56.578 39.9169 56.4527 39.8213 56.3043C39.729 56.1559 39.6828 55.991 39.6828 55.8096C39.6828 55.6084 39.7389 55.4204 39.8543 55.2457C39.9697 55.0709 40.1346 54.939 40.3555 54.8466C40.5732 54.7543 40.8172 54.7114 41.0877 54.7114C41.3812 54.7114 41.6417 54.7576 41.8692 54.8532C42.0935 54.9489 42.2683 55.0874 42.3903 55.272C42.5123 55.4567 42.5783 55.6678 42.5848 55.8986L42.077 55.9382C42.0506 55.6876 41.9583 55.4963 41.8 55.3677C41.6417 55.2391 41.4108 55.1764 41.1041 55.1764C40.7843 55.1764 40.5534 55.2358 40.405 55.3512C40.2599 55.4666 40.1874 55.6084 40.1874 55.7733C40.1874 55.9151 40.2401 56.0338 40.3424 56.1262C40.4446 56.2185 40.7084 56.3142 41.1371 56.4098C41.5658 56.5087 41.8593 56.5912 42.0176 56.6637C42.2485 56.7692 42.42 56.9045 42.5321 57.0693C42.6409 57.2342 42.697 57.4222 42.697 57.6333C42.697 57.8443 42.6376 58.0455 42.5156 58.2302C42.3936 58.4181 42.2221 58.5632 41.9945 58.6655C41.767 58.7677 41.5131 58.8205 41.2262 58.8205C40.8667 58.8205 40.5633 58.7677 40.3226 58.6622C40.0785 58.5566 39.8873 58.3984 39.7487 58.1873C39.6102 57.9762 39.5377 57.7388 39.5311 57.4717L39.5377 57.4816ZM49.6949 58.7611V54.7774H50.2225V58.7611H49.6949ZM59.2024 57.198V56.7297H60.8876V58.2071C60.6304 58.4116 60.36 58.5698 60.0862 58.6721C59.8092 58.7743 59.5289 58.8271 59.2387 58.8271C58.8463 58.8271 58.4934 58.7446 58.1735 58.5764C57.8536 58.4083 57.6129 58.1675 57.4513 57.8509C57.2897 57.5343 57.2073 57.1782 57.2073 56.789C57.2073 56.3999 57.2864 56.0404 57.4513 55.7041C57.6129 55.3677 57.847 55.1171 58.1504 54.9555C58.4538 54.7906 58.8067 54.7114 59.2024 54.7114C59.4893 54.7114 59.7499 54.7576 59.984 54.8532C60.2181 54.9456 60.3995 55.0775 60.5314 55.2424C60.6633 55.4106 60.7656 55.6282 60.8315 55.8953L60.3567 56.0239C60.2973 55.8228 60.2214 55.6612 60.1324 55.5458C60.0434 55.4303 59.918 55.338 59.7532 55.2688C59.5883 55.1995 59.4069 55.1632 59.2057 55.1632C58.965 55.1632 58.7572 55.1995 58.5824 55.272C58.4077 55.3446 58.2659 55.4402 58.157 55.5623C58.0482 55.681 57.9658 55.8129 57.9064 55.958C57.8042 56.2053 57.7547 56.4724 57.7547 56.7627C57.7547 57.1188 57.8174 57.4156 57.9361 57.6564C58.0581 57.8971 58.2362 58.0752 58.4703 58.1906C58.7045 58.306 58.9518 58.3654 59.2156 58.3654C59.4432 58.3654 59.6674 58.3225 59.8851 58.2335C60.1027 58.1444 60.2676 58.0521 60.3797 57.9499V57.2046H59.2123L59.2024 57.198ZM67.8459 58.7611V54.7774H68.3868L70.4776 57.9037V54.7774H70.9854V58.7611H70.4446L68.3538 55.6348V58.7611H67.8459Z" fill="black"/>
<path d="M19.3948 15.9495L20.925 11.9657H21.5054L23.1279 15.9495H22.5277L22.066 14.7425H20.3874L19.9554 15.9495H19.3948ZM20.5424 14.3138H21.9011L21.4856 13.209C21.3603 12.8726 21.2646 12.5956 21.1987 12.378C21.1426 12.6385 21.0701 12.8924 20.9777 13.1463L20.5424 14.3171V14.3138ZM24.3283 15.9495V11.9657H26.0959C26.4521 11.9657 26.7225 12.002 26.9071 12.0746C27.0918 12.1471 27.2402 12.2724 27.3491 12.4538C27.4579 12.6352 27.5139 12.8364 27.5139 13.054C27.5139 13.3376 27.4216 13.5751 27.2402 13.7696C27.0588 13.9642 26.7752 14.0862 26.3927 14.139C26.5312 14.2049 26.64 14.2709 26.7093 14.3369C26.8643 14.4787 27.0094 14.6534 27.1446 14.8678L27.8338 15.9528H27.1743L26.6466 15.125C26.4949 14.8843 26.3663 14.7029 26.2674 14.5743C26.1684 14.4457 26.0794 14.3599 26.0003 14.3072C25.9211 14.2577 25.842 14.2214 25.7595 14.2016C25.7002 14.1885 25.6012 14.1819 25.466 14.1819H24.8559V15.9528H24.3283V15.9495ZM24.8559 13.7235H25.9871C26.2278 13.7235 26.4158 13.6971 26.551 13.6476C26.6862 13.5981 26.7884 13.519 26.8577 13.4069C26.9269 13.298 26.9632 13.1793 26.9632 13.0507C26.9632 12.8627 26.894 12.7077 26.7587 12.5857C26.6235 12.4637 26.4059 12.4043 26.1124 12.4043H24.8526V13.7235H24.8559ZM31.9462 14.5512L32.4738 14.6831C32.365 15.1151 32.1638 15.4449 31.8769 15.6725C31.59 15.9 31.2404 16.0154 30.8249 16.0154C30.3962 16.0154 30.0466 15.9297 29.7795 15.7516C29.5091 15.5768 29.3079 15.3229 29.1661 14.9931C29.0276 14.66 28.9551 14.3072 28.9551 13.9246C28.9551 13.5091 29.0342 13.1496 29.1925 12.8397C29.3508 12.5297 29.5751 12.2955 29.8686 12.1372C30.1621 11.9756 30.482 11.8965 30.8315 11.8965C31.2306 11.8965 31.5636 11.9987 31.8373 12.1999C32.1078 12.4043 32.299 12.688 32.4046 13.054L31.8868 13.176C31.7945 12.8858 31.6593 12.6748 31.4845 12.5429C31.3097 12.4109 31.0887 12.345 30.8216 12.345C30.5149 12.345 30.261 12.4175 30.0565 12.5659C29.8521 12.711 29.707 12.9089 29.6245 13.1562C29.5421 13.4036 29.4992 13.6575 29.4992 13.9213C29.4992 14.261 29.5487 14.5545 29.6476 14.8084C29.7465 15.0624 29.8982 15.2503 30.106 15.3757C30.3138 15.501 30.538 15.5636 30.7788 15.5636C31.0723 15.5636 31.3229 15.4779 31.5274 15.3097C31.7318 15.1382 31.8703 14.8876 31.9429 14.5512H31.9462ZM33.9216 15.9495V11.9657H34.4492V13.608H36.507V11.9657H37.0347V15.9495H36.507V14.073H34.4492V15.9495H33.9216ZM38.7792 15.9495V11.9657H39.3068V15.9495H38.7792ZM42.0209 15.9495V12.4307H40.7084V11.9624H43.8644V12.4307H42.5519V15.9495H42.0242H42.0209ZM45.1934 15.9495V11.9657H48.0724V12.434H45.7243V13.6575H47.924V14.1258H45.7243V15.4845H48.168V15.9528H45.1967L45.1934 15.9495ZM52.5046 14.5512L53.0323 14.6831C52.9201 15.1151 52.7223 15.4449 52.4354 15.6725C52.1485 15.9 51.7989 16.0154 51.3834 16.0154C50.9547 16.0154 50.6051 15.9297 50.338 15.7516C50.0675 15.5768 49.8664 15.3229 49.7246 14.9931C49.5828 14.66 49.5135 14.3072 49.5135 13.9246C49.5135 13.5091 49.5927 13.1496 49.751 12.8397C49.9092 12.5297 50.1335 12.2955 50.427 12.1372C50.7205 11.9756 51.0404 11.8965 51.3933 11.8965C51.7923 11.8965 52.1254 11.9987 52.3991 12.1999C52.6695 12.4043 52.8608 12.688 52.9663 13.054L52.4486 13.176C52.3562 12.8858 52.221 12.6748 52.0462 12.5429C51.8714 12.4109 51.6505 12.345 51.3834 12.345C51.0767 12.345 50.8227 12.4175 50.6183 12.5659C50.4138 12.711 50.2687 12.9089 50.1863 13.1562C50.1038 13.4036 50.0609 13.6575 50.0609 13.9213C50.0609 14.261 50.1104 14.5545 50.2094 14.8084C50.3083 15.0624 50.46 15.2503 50.6677 15.3757C50.8755 15.501 51.0998 15.5636 51.3438 15.5636C51.6373 15.5636 51.8879 15.4779 52.0924 15.3097C52.2969 15.1382 52.4354 14.8876 52.5079 14.5512H52.5046ZM55.4726 15.9495V12.4307H54.1601V11.9624H57.3161V12.4307H56.0036V15.9495H55.4759H55.4726ZM61.2438 11.9657H61.7714V14.2676C61.7714 14.6699 61.7252 14.9865 61.6362 15.2207C61.5439 15.4548 61.3823 15.6461 61.1448 15.7945C60.9074 15.9429 60.6007 16.0154 60.2149 16.0154C59.8422 16.0154 59.5388 15.9528 59.3014 15.8242C59.0639 15.6955 58.8957 15.5109 58.7935 15.2668C58.6913 15.0228 58.6418 14.6897 58.6418 14.2676V11.9657H59.1695V14.2676C59.1695 14.6139 59.2024 14.8711 59.2651 15.0327C59.3277 15.1976 59.4399 15.3229 59.5949 15.4119C59.7499 15.501 59.9411 15.5438 60.1687 15.5438C60.5545 15.5438 60.8315 15.4548 60.9931 15.28C61.158 15.1052 61.2405 14.7656 61.2405 14.2643V11.9624L61.2438 11.9657ZM63.4368 15.9495V11.9657H65.2044C65.5606 11.9657 65.831 12.002 66.0157 12.0746C66.2003 12.1471 66.3487 12.2724 66.4576 12.4538C66.5664 12.6352 66.6225 12.8364 66.6225 13.054C66.6225 13.3376 66.5301 13.5751 66.3487 13.7696C66.1674 13.9642 65.8838 14.0862 65.5012 14.139C65.6397 14.2049 65.7485 14.2709 65.8178 14.3369C65.9728 14.4787 66.1179 14.6534 66.2531 14.8678L66.9423 15.9528H66.2828L65.7551 15.125C65.6034 14.8843 65.4748 14.7029 65.3759 14.5743C65.277 14.4457 65.1879 14.3599 65.1088 14.3072C65.0296 14.2577 64.9505 14.2214 64.868 14.2016C64.8087 14.1885 64.7097 14.1819 64.5745 14.1819H63.9644V15.9528H63.4368V15.9495ZM63.9644 13.7235H65.0956C65.3363 13.7235 65.5243 13.6971 65.6595 13.6476C65.7947 13.5981 65.8969 13.519 65.9662 13.4069C66.0355 13.298 66.0717 13.1793 66.0717 13.0507C66.0717 12.8627 66.0025 12.7077 65.8673 12.5857C65.7321 12.4637 65.5144 12.4043 65.2209 12.4043H63.9611V13.7235H63.9644ZM68.2285 15.9495V11.9657H71.1075V12.434H68.7594V13.6575H70.9591V14.1258H68.7594V15.4845H71.2031V15.9528H68.2318L68.2285 15.9495Z" fill="black"/>
</g>
<defs>
<clipPath id="clip0_1233_3499">
<rect width="90.8377" height="68.5564" fill="white" transform="translate(0.389648 0.708984)"/>
</clipPath>
</defs>
</svg>
