<svg width="59" height="64" viewBox="0 0 59 64" fill="none" xmlns="http://www.w3.org/2000/svg">
<g clip-path="url(#clip0_1233_3419)">
<path fill-rule="evenodd" clip-rule="evenodd" d="M3.36121 22.8356C4.89721 22.5763 5.66192 22.6354 6.73187 23.7546C6.93536 23.9679 7.257 24.237 7.26028 24.6013C6.50869 24.2403 4.83156 23.8826 3.76162 23.981C4.75936 24.2337 6.36428 24.516 7.11915 25.1133C6.76469 25.5597 6.06233 25.9174 5.36982 25.9732C4.21126 26.0651 4.19157 25.6089 3.43013 25.3431C3.42028 26.1439 3.39075 27.5092 3.47608 28.2707C3.53187 28.7564 4.15875 29.8067 4.39505 30.2596C5.01536 31.4444 5.95074 32.6981 6.84346 33.6893C7.3653 34.267 7.74602 34.6542 8.30397 35.1597C9.1934 35.9605 10.6277 37.0206 11.7074 37.6245C13.808 38.7995 15.7247 39.5412 18.0681 40.1484L21.7407 40.7884C22.4594 40.8573 22.4791 40.9164 22.9649 40.516C31.1503 33.8173 29.739 36.3281 37.0448 33.7057C38.1115 33.3972 39.7985 33.5022 38.7646 32.0483C38.5743 31.7792 38.6137 31.8711 38.3938 31.6676L37.9605 31.2343C36.2834 29.5999 34.2321 28.3691 32.0824 27.332C31.3275 26.9677 30.5004 26.669 29.7292 26.4196C28.2916 25.9535 28.5542 26.2161 27.1724 26.4984C25.1638 26.9053 23.5688 27.2335 21.3567 27.2926C16.5747 27.4206 12.203 26.3343 8.49433 23.8301L6.65638 22.4024C5.92777 21.7328 3.82069 19.803 3.6008 18.9365C3.43013 19.0842 3.27587 19.0087 3.29885 19.8063C3.3087 20.1312 3.32839 20.4528 3.33495 20.7843C3.34808 21.4703 3.37105 22.1529 3.35136 22.8389L3.36121 22.8356ZM5.59956 30.4368C7.11587 28.4118 9.97125 29.8887 10.1321 26.2227C8.96366 26.2883 7.35218 27.9425 7.06007 28.1361C7.18807 27.588 8.08407 26.8922 8.55669 26.5377C9.16386 26.0815 9.49207 26.0422 9.68899 25.6319C8.19566 25.5663 7.12571 25.8452 6.41679 26.8036C5.80633 27.6274 5.42233 29.101 5.59956 30.4368ZM7.46048 32.3502C9.2131 32.4028 9.69884 32.4717 11.1298 33.1018C10.3454 33.1051 10.1747 32.7146 7.37187 32.8327C7.44079 33.2397 7.6771 33.4661 7.95607 33.7648C8.40571 34.2407 9.03586 34.6346 9.7612 34.6542C11.1232 34.6903 11.2939 33.9552 13.5815 34.4934C13.2828 33.5219 12.2162 32.2945 11.2644 31.7431C10.6277 31.3722 9.97125 31.2606 9.10479 31.4116C8.7372 31.4739 8.46479 31.6085 8.15299 31.7792C7.97905 31.8743 7.85105 31.9498 7.74602 32.0352C7.47361 32.2485 7.57207 32.0713 7.4572 32.3568L7.46048 32.3502ZM15.9216 29.8198C15.2225 29.5671 14.4053 28.4807 13.7193 28.3297C13.0301 31.6052 16.2596 31.428 17.4707 32.8918L17.835 33.2889C18.1403 30.1972 17.5659 27.9064 14.1952 27.8703C14.448 28.5431 15.6196 28.8943 15.9183 29.8198H15.9216Z" fill="black"/>
<path fill-rule="evenodd" clip-rule="evenodd" d="M22.3446 15.2148C23.0109 15.2017 23.9167 15.3527 24.5764 15.484C25.2952 15.6251 25.9943 15.9861 26.654 16.1272C25.6923 15.1426 23.4408 14.9555 22.5908 14.6142C22.9288 14.1383 24.1596 13.8364 24.7832 13.8068C25.7317 13.7642 26.4669 14.0366 27.0708 14.4862C27.6976 14.9523 29.8244 17.6009 29.3715 18.2704C28.1374 17.3514 26.7721 17.7781 25.3411 17.7617C24.071 17.7453 22.5153 16.5309 22.3446 15.2148ZM27.8453 11.3912C28.3212 11.3486 28.5543 11.1779 29.2008 11.2797C29.7817 11.3715 31.6525 12.0444 32.2105 10.1999L30.4644 10.062C30.9534 9.87822 31.6098 9.87822 32.135 9.83883C31.3112 8.79842 29.0334 8.70653 27.8453 11.3912ZM25.5676 1.88315C25.6103 2.12603 25.6989 2.12274 26.0894 2.38203C26.2896 2.51659 26.48 2.6249 26.736 2.81197C27.0905 3.06797 27.6386 3.47495 27.7764 3.93443C26.9395 3.45854 26.329 2.66428 25.1639 2.36233C25.2295 3.56684 25.4888 4.3611 26.6179 4.80418C27.9865 5.33915 28.0554 5.04705 29.2205 6.13012C29.3682 4.99782 28.958 3.57669 28.4099 2.87761C27.8158 2.11946 26.8213 1.637 25.5676 1.88315ZM25.2788 7.9615C24.8915 7.18038 24.7011 5.79535 23.815 4.78777C21.9147 8.32909 24.99 7.91556 25.0884 10.725C26.014 9.86837 27.2414 7.31166 25.8072 5.61812C25.5085 5.26366 24.8652 4.64007 24.3631 4.65648C24.7143 5.76581 25.3116 6.48787 25.2788 7.9615ZM30.553 8.12232C30.9797 8.50632 31.2324 8.31268 32.0759 8.78858C33.2903 9.47781 33.799 10.1605 35.1906 9.86837L36.2933 9.32683C36.5034 9.13976 36.743 9.12335 35.8371 8.71966L34.1862 8.17812C33.8777 8.11904 33.5889 8.11576 33.3395 7.94509C34.9116 7.84663 35.4006 8.27002 36.7167 8.53914C36.5231 8.17812 36.5329 8.17812 36.2539 7.85648C36.0669 7.63986 35.8831 7.4495 35.6435 7.26243C35.1479 6.87843 34.6326 6.63884 33.8876 6.6454C32.3516 6.65853 31.5573 7.58079 30.553 8.11904V8.12232ZM31.1536 6.32048C31.5934 6.20233 31.3899 5.92335 32.473 5.45402C33.0244 5.21771 33.5725 5.09628 34.1206 4.9092C35.0461 4.59084 35.9421 3.429 35.6993 2.12274C35.3973 2.29669 34.8525 2.533 34.5243 2.71023C34.0189 2.98264 33.8055 3.25177 33.2509 3.43884C33.5988 2.74305 34.8459 2.17526 35.3776 1.65998C34.2224 1.45977 33.1623 1.6009 32.3778 2.42797C32.2531 2.55926 32.1678 2.64459 32.066 2.76931C31.3867 3.61608 31.1668 5.01094 31.1536 6.32048ZM31.0355 15.9303C31.8658 13.9119 37.2747 15.8023 37.3272 11.4109C35.5483 11.7621 34.3865 12.6548 33.6349 12.8813C34.1895 11.9492 36.0143 11.4142 37.058 10.7709C32.0267 9.17586 30.855 14.6503 31.0322 15.9303H31.0355ZM41.2262 18.0702C41.5282 14.8571 39.6443 14.9162 37.9376 10.3016C35.8076 4.53505 37.0219 1.65669 36.7298 0.862439C36.1325 0.685208 26.48 0.796798 25.1672 0.84931C24.6749 0.869003 24.4451 1.46962 24.0546 2.17197C22.3282 5.26366 21.5766 8.67043 21.5668 12.2282C21.5602 14.0595 21.7932 15.3034 21.9639 16.9674C22.233 18.4214 22.2757 18.7758 23.1028 19.6948C26.6507 23.6333 33.8121 24.5424 36.743 25.911C38.0919 26.5412 39.3194 27.2205 40.5206 28.1034L41.7612 29.0257C41.351 24.887 40.6453 22.6355 41.2262 18.0702Z" fill="black"/>
<path fill-rule="evenodd" clip-rule="evenodd" d="M12.2556 48.5734L12.4 48.6784C13.0827 48.9673 16.1547 48.7178 17.0638 48.58C29.1909 46.7387 33.2114 41.7533 44.2949 42.4163C45.204 42.4721 45.7981 42.6428 46.6678 42.6953C46.5136 40.7523 45.8703 39.085 44.8627 37.9101C43.8289 36.7023 41.2525 36.5513 39.6607 36.5414C35.7747 36.5152 32.3089 37.7164 29.1647 39.1933C27.8026 39.83 26.283 40.6965 24.9735 41.5334C24.2613 41.9896 23.7034 42.3868 23.0338 42.8561C20.9464 44.3232 19.6599 45.4062 17.0474 46.66C16.322 47.0079 15.6098 47.3394 14.8057 47.6807C13.9721 48.0352 12.9645 48.2518 12.2556 48.5701V48.5734Z" fill="black"/>
<path fill-rule="evenodd" clip-rule="evenodd" d="M3.7157 15.5889C4.50667 14.8668 5.91795 12.0213 9.80061 14.217L11.3202 15.3033C11.504 15.497 11.3924 15.3657 11.5335 15.5725C9.27548 15.4642 8.48123 17.2004 6.79426 17.4826C6 17.5253 4.59529 17.2529 4.08329 16.5997C3.88636 16.347 3.97826 16.5866 4.02421 16.4028C4.30975 15.7891 7.36862 15.2246 8.33354 15.1458C7.87077 15.0802 8.10379 14.8537 7.20451 14.9522C6.06564 15.0769 4.86441 15.3887 3.77149 15.7694L3.7157 15.5889ZM13.2829 21.0338C15.7116 20.9944 17.0342 24.0172 19.4039 21.8051C18.9641 21.0994 16.6273 20.8303 16.1054 20.6367C17.3099 20.5251 18.6326 20.8008 19.5319 21.1979C19.2857 20.1936 17.8876 19.186 16.4468 19.3304C15.3276 19.442 13.8703 20.3478 13.2829 21.0371V21.0338ZM4.72 3.56674L5.57005 4.73843C5.92123 5.14868 6.33805 5.4933 6.84349 5.73945C7.92984 6.26786 8.93415 6.01186 9.84984 5.28981L10.1026 5.05678C9.52492 4.96489 8.56984 5.06991 7.87405 4.90909L7.19795 4.66294C8.27774 4.68591 8.99323 4.80078 10.096 4.58089C9.89579 3.89822 8.77661 3.08756 7.84451 3.23853C7.41456 3.30745 6.74503 3.54048 6.30851 3.6455C5.36985 3.8654 5.26154 3.57002 4.71672 3.57002L4.72 3.56674ZM6.9518 12.1755C7.34892 11.739 7.23405 11.5224 8.08738 11.0334C8.58297 10.7479 9.0523 10.5345 9.60697 10.2654C10.4439 9.85842 11.5631 8.52591 10.9756 7.2656C10.8312 7.11791 10.6014 7.34765 10.2732 7.57411L8.22851 9.38252C8.38933 8.77206 8.82584 8.39463 9.24595 7.96139L10.1945 7.06868C10.5456 6.73063 10.3356 7.1015 10.5063 6.69124C7.21436 6.70109 6.47918 9.07729 6.94851 12.1821L6.9518 12.1755ZM9.56759 17.9519C10.4603 18.3819 11.5664 19.6849 11.8191 20.6202C11.4285 20.5251 11.6353 20.4627 11.1233 20.3839C10.1846 20.2362 9.26892 20.6334 8.50749 20.6104C7.48349 20.5809 6.99446 19.7997 6.48574 19.0646C7.37518 18.8184 9.36082 19.3238 9.58071 19.2352C8.84882 18.7954 7.58851 18.546 6.63344 18.5263C7.28656 17.8174 8.69456 17.5318 9.57087 17.9519H9.56759ZM16.1547 16.7573L16.2728 17.1183C15.4063 17.1216 15.1864 17.2102 14.4053 17.5089L16.4107 17.4793C16.2269 18.0964 15.495 18.7921 14.5957 18.7593C13.2993 18.7134 13.4962 18.2506 12.0685 18.7134C12.738 16.0123 15.193 16.1534 16.1547 16.7573ZM16.8603 16.6687C16.7782 16.3536 16.066 15.3821 15.833 15.0211C13.5487 11.4732 10.7951 4.80735 10.4406 0.839355L3.18073 0.872176L3.2037 5.84119C4.53949 5.86745 5.68493 6.15627 6.32492 7.09165C5.64554 7.0654 3.99467 6.96365 3.3678 7.31483L3.21355 7.41658C4.40165 7.45924 5.11057 7.3575 6.27898 7.62006C6.21334 8.10252 5.59959 8.59483 5.22216 8.83114C4.54934 9.25452 4.03734 9.19873 3.25621 9.09042C3.16431 10.0652 3.18073 15.9663 3.35467 16.6523C4.39836 18.1292 4.25395 18.3589 5.7998 19.9999L10.4701 23.3772C11.0051 23.6299 11.3661 23.7874 11.9142 23.9909C14.2412 24.8475 15.8199 25.0871 18.3963 25.3989C19.8174 25.5728 22.2035 25.2512 23.5852 24.7687C23.8149 24.69 24.0709 24.5981 24.3105 24.5128C24.8915 24.3027 24.8455 24.3027 24.9866 24.0664C24.6552 23.8137 24.2088 23.5938 23.8248 23.3378C19.2693 20.2986 17.3296 16.9805 16.8669 16.6752L16.8603 16.6687Z" fill="black"/>
<path fill-rule="evenodd" clip-rule="evenodd" d="M45.3189 13.8069C46.2182 14.529 47.0321 15.1591 47.6984 16.2225C47.6491 15.5464 46.7466 14.5782 46.2937 14.1023C46.1657 13.971 46.1657 13.9841 46.0213 13.8332C45.6996 13.4918 45.89 13.8233 45.7193 13.4229C49.6151 13.6691 48.7027 17.1152 48.9521 17.939L48.6108 18.6512C47.5146 16.8428 44.1636 16.508 45.3189 13.8069ZM48.962 8.38825C49.7825 8.18477 51.7714 7.61369 52.5755 7.97143C52.011 8.27995 49.9696 8.29307 49.0604 8.96261C50.6686 10.9023 52.4738 9.56979 53.6093 8.97902C54.5218 8.50641 54.6859 8.64097 55.0863 8.49328C55.3817 8.38497 55.165 8.5261 55.3882 8.33902C54.653 7.89266 53.6717 6.79318 52.2506 6.60282C50.7835 6.4059 49.4247 7.35113 48.9653 8.38825H48.962ZM46.5365 10.5807C48.0561 11.073 48.765 11.0894 49.9564 12.0937C49.6249 12.0248 49.4543 11.8869 49.1655 11.7524C48.4303 11.4143 47.1437 11.1156 46.3199 11.073C46.4512 12.051 47.3045 13.0914 48.3449 13.3113C50.2748 13.7216 50.0385 12.8026 52.0963 13.9841C51.9224 12.435 50.5439 10.0424 48.4697 10.0063C47.9609 9.99646 46.74 10.1803 46.5365 10.5774V10.5807ZM57.0292 17.2432C56.7897 17.2104 56.9406 17.2071 56.491 16.6951C54.292 14.2008 51.3283 15.681 51.1478 16.1273C51.7189 16.3242 52.7199 16.4522 53.3894 16.6656C54.0787 16.8855 54.8106 17.1415 55.2766 17.6108C53.6225 17.1973 53.7833 16.8592 51.1051 16.682C50.9542 16.8428 51.01 16.4325 50.9443 17.043C51.1872 17.2301 50.9509 16.9807 51.1938 17.3351C51.2791 17.4598 51.3152 17.5452 51.4005 17.6797C51.8075 18.3263 52.2998 18.8711 53.0941 19.1304C54.1936 19.4881 55.7427 18.9729 56.8881 19.2715C57.2688 19.3798 57.1671 19.3437 57.1704 19.8984C57.1736 20.1839 57.1572 20.4892 57.1572 20.7813C57.1572 21.3261 57.1605 21.8676 57.1638 22.4124C57.1802 30.0169 57.085 38.4715 57.2491 45.8758C53.8227 45.6756 50.9837 37.7035 48.1743 34.3656C46.7466 32.6688 45.2007 30.1712 44.6986 27.8967C44.1899 26.8104 43.6877 23.2887 43.5597 21.7954C43.4448 20.4695 43.1199 15.8844 43.865 15.1329C43.796 13.7971 45.309 11.2174 45.8834 10.3083L47.7115 7.89923C48.6009 6.87523 49.6282 5.89062 50.7146 5.02744C52.0569 3.96077 55.746 1.31544 57.0916 1.17432C57.0325 2.95647 57.3016 16.5999 57.0325 17.2498L57.0292 17.2432ZM55.4178 13.4131C55.4112 11.9558 54.9156 10.41 53.245 10.3476C53.0974 10.3411 52.7691 10.3509 52.6313 10.3837C52.0143 10.5347 52.4278 10.4198 52.2571 10.5774C52.5525 10.7546 52.8381 10.8596 53.1892 11.0664C53.9244 11.4996 53.7964 11.3388 53.9244 11.6539C53.2418 11.4898 52.9136 11.027 51.9519 10.9417C52.3261 13.3507 54.0294 12.5302 55.2274 13.2785C55.3127 13.331 55.3456 13.3573 55.4178 13.4098V13.4131Z" fill="black"/>
<path fill-rule="evenodd" clip-rule="evenodd" d="M3.49253 31.8679L3.50565 34.6642C4.16206 34.697 5.0876 34.5329 5.77355 35.2287C5.47488 35.3928 4.97601 35.3829 4.62483 35.4322C4.29335 35.4814 3.83386 35.6357 3.56801 35.7571L5.88842 35.6324C5.39611 37.2078 3.96186 36.9222 3.50894 36.9879L3.53519 39.6168C3.95529 39.0063 4.63796 38.304 5.49457 38.0217C6.34462 37.7427 7.79529 37.6902 8.54688 38.1497C7.82483 38.6486 6.08534 38.9998 4.7036 40.6474C5.2878 40.2568 5.77683 39.8859 6.50544 39.5577C7.32596 39.1901 8.06442 39.0096 8.84554 38.7274C8.84226 40.0402 7.99878 41.2873 6.91898 41.714C6.23303 41.9864 4.56904 42.1177 3.92576 42.3278C3.38422 42.505 3.54176 42.7183 3.54504 43.8244L3.5713 49.1117C6.45621 49.6894 13.5356 46.3647 16.1875 44.9468C17.5298 44.2281 18.8919 43.2336 19.6303 42.8299C18.5145 42.3343 16.601 41.9011 14.5596 40.9657C12.9448 40.224 11.3727 39.305 10.0993 38.3598C4.88411 34.4935 4.24083 31.5659 3.54176 30.7881L3.48596 31.8679H3.49253Z" fill="black"/>
<path fill-rule="evenodd" clip-rule="evenodd" d="M19.7354 17.0429C19.7912 16.7376 19.6435 15.3526 19.6369 14.8439C19.6008 12.1854 19.7748 10.7971 20.2835 8.18791C20.5493 6.83242 20.9071 5.63776 21.3534 4.35448L22.7614 0.793457L12.0062 0.849252C12.2851 3.73089 13.808 7.68904 14.9403 9.91754C15.9118 11.8277 17.0605 13.7608 18.416 15.4708C18.754 15.8974 19.6336 16.8197 19.7387 17.0429H19.7354ZM15.088 6.49109L15.577 6.84883C16.2269 7.17704 16.7487 7.42647 17.1458 7.99755C16.4533 7.67263 15.8527 7.11468 14.7696 6.91775C14.8189 7.38381 14.9699 7.78093 15.1536 8.05991C15.9085 9.20862 17.0047 8.52924 18.4652 9.60903C18.5046 7.82032 17.0244 5.62135 15.088 6.49437V6.49109ZM13.3288 3.09089C14.4972 3.15981 16.2203 3.10402 17.0211 3.74073C15.9315 3.64884 14.3069 3.1992 13.2763 3.70791C15.6853 7.00965 16.4402 4.12145 19.6336 5.06668C19.2168 4.03612 18.1108 2.88412 17.136 2.34586C15.8199 1.61725 14.1296 2.15222 13.3288 3.09089Z" fill="black"/>
<path fill-rule="evenodd" clip-rule="evenodd" d="M42.0106 13.2918C42.2699 12.9832 42.3716 12.5697 42.5456 12.1824C44.226 8.35556 46.9009 5.35905 50.3831 3.06818C51.1413 2.56931 53.501 1.15475 54.3642 0.947983C53.6356 0.757624 46.6514 0.859367 45.4994 0.931572C45.0531 1.54532 44.2588 2.56275 43.3825 2.94018C42.1353 3.47516 41.0358 3.05834 40.2514 2.25095C41.7087 2.0967 42.0106 2.25752 43.3169 1.79475C43.051 1.72583 42.3158 1.90962 41.8071 1.90962C41.1671 1.90634 40.7995 1.83085 40.2088 1.72583L40.7831 0.977521L38.5677 0.944701C38.1214 3.48172 38.3741 5.70695 39.1487 7.99454C39.4834 8.98571 39.9232 9.9572 40.3827 10.7974C41.2065 12.3006 41.3476 12.271 42.0139 13.2983L42.0106 13.2918ZM42.1583 6.61936C41.4133 6.13362 40.1792 4.34818 39.2701 4.37444C39.1487 7.29546 40.6354 7.2692 42.2797 8.2013C42.9887 8.60171 43.0477 8.8052 43.4219 9.38941C43.6615 7.95843 43.6385 6.49136 43.0083 5.40172C42.4668 4.46305 41.2721 3.71475 39.7427 3.90182C40.4451 4.58449 41.9286 5.70695 42.1583 6.62264V6.61936Z" fill="black"/>
<path d="M12.9383 51.7177H12.7938L8.18585 59.6898L3.31529 51.7505H3.17088L1.92042 61.7607C1.84165 62.3778 1.34607 62.7421 0.781554 62.7421H0.5354V62.8996L3.80104 62.8865V62.7388H3.55816C3.2234 62.7388 2.9116 62.4106 2.9477 62.0758L3.54175 56.4602L7.58195 63.1819H7.72636C7.74277 62.4237 8.3237 61.4555 8.3237 61.4555L11.225 56.388L11.865 62.0364C11.9011 62.3745 11.5959 62.7027 11.2578 62.706H11.015V62.8536L15.7017 62.834V62.6764H15.4556C14.8976 62.6797 14.4152 62.3187 14.3134 61.7049L12.9415 51.7111L12.9383 51.7177ZM24.9768 59.6208H24.8193C24.3434 61.17 23.3358 62.1447 21.7768 62.1513L19.7288 62.1611L19.7124 57.7698L21.7998 57.7599C22.5579 57.7796 23.106 58.3376 23.1093 59.0924V59.227L23.2636 59.2303L23.2504 55.6233L23.0962 55.6266V55.7611C23.1027 56.5193 22.5448 57.0871 21.7801 57.1035L19.7091 57.1133L19.6894 52.5743L22.3151 52.5644C23.2504 52.6005 23.8445 53.211 23.8445 54.1497V54.3335L24.002 54.3367L23.9922 51.6094C23.7034 51.7341 22.8041 51.8916 22.1313 51.9015L16.1514 51.9244L16.1547 52.082H16.3516C16.88 52.0787 17.3165 52.4889 17.3526 53.0075L17.3887 61.7049C17.3789 62.2497 16.9391 62.6863 16.3942 62.6895H16.1973L16.194 62.8471L24.2712 62.8143L24.9768 59.6307V59.6208ZM25.9778 51.8785L25.9811 52.036H26.178C26.7228 52.0327 27.1692 52.4693 27.1791 53.0108L27.2152 61.6623C27.2053 62.2038 26.7655 62.6403 26.2207 62.6403H26.0238L26.0205 62.7979L30.7663 62.7782L30.763 62.6206H30.5694C30.0213 62.6239 29.5749 62.1874 29.5618 61.6459L29.5257 52.5447C29.7226 52.548 30.2937 52.5316 30.7072 52.5447C31.7345 52.5677 32.4894 53.2307 32.5583 54.724C32.5715 55.0391 32.5386 55.2885 32.5025 55.4789C32.2301 56.8475 31.3801 57.2774 30.5399 57.2906L30.064 57.2939V57.4416C30.4709 57.5105 30.8188 57.8387 31.1241 58.4885C31.344 58.9546 32.0529 60.4971 32.4336 61.1568C33.1557 62.4007 34.3963 62.765 36.1029 62.7585L37.6225 62.7519V62.5944C36.8086 62.5845 36.3622 62.2727 35.6861 61.4194C35.0953 60.6875 34.1534 59.2073 34.1074 59.1318C33.7596 58.587 33.1688 57.97 32.5091 57.7566C34.2781 57.5761 35.056 56.0959 35.0494 54.7831C35.0396 52.6137 33.218 51.8489 31.3276 51.8588L25.9745 51.8818L25.9778 51.8785ZM43.3595 51.5897C39.6114 51.6061 37.232 53.7886 37.2451 57.2939C37.2582 60.7991 39.6574 62.962 43.4055 62.9488C47.1536 62.9324 49.5363 60.7499 49.5199 57.2446C49.5068 53.7394 47.1044 51.5765 43.3595 51.5897ZM43.4022 62.2924C41.2032 62.3023 39.8182 60.3823 39.8051 57.284C39.792 54.1858 41.1638 52.2559 43.3628 52.2461C45.5618 52.2362 46.9468 54.1562 46.9599 57.2545C46.9731 60.3527 45.6012 62.2826 43.4022 62.2924ZM54.0918 55.1572C53.4354 54.7339 52.9628 54.3236 52.9956 53.7099C53.0317 52.8729 53.803 52.2067 55.0338 52.2001C56.3532 52.1936 57.2327 52.9025 57.2393 53.9856H57.387L57.5839 51.6947L56.6026 51.698C55.8904 51.6094 54.978 51.5437 54.4791 51.547C52.5099 51.5536 51.3316 52.676 51.2069 54.2908C51.0986 55.4297 51.6336 56.3782 52.7101 57.0838L55.4375 58.8758C56.2777 59.4272 56.6879 59.8473 56.6879 60.484C56.6945 61.4588 55.8969 62.2169 54.5382 62.2465C52.6674 62.2859 51.4662 60.9501 51.5843 59.3189H51.4465C51.0395 60.0015 50.8295 61.3177 51.0888 61.9708C51.6598 62.555 52.9726 62.9094 54.3708 62.9029C56.8652 62.893 58.3946 61.6885 58.4799 59.6569C58.5423 58.4885 57.9975 57.6746 57.0719 57.0772L54.0885 55.1572H54.0918Z" fill="black"/>
</g>
<defs>
<clipPath id="clip0_1233_3419">
<rect width="57.9544" height="62.4221" fill="white" transform="translate(0.5354 0.763672)"/>
</clipPath>
</defs>
</svg>
