<svg width="92" height="38" viewBox="0 0 92 38" fill="none" xmlns="http://www.w3.org/2000/svg">
<g clip-path="url(#clip0_1233_3507)">
<path d="M69.5721 0.500477C67.8594 0.843531 65.8214 1.52456 64.1264 2.32502C64.1264 2.32502 64.068 2.35297 64.0299 2.37076C63.9892 2.35551 63.9282 2.33264 63.9282 2.33264C63.3158 2.10394 62.7288 1.95909 62.1342 1.8854C61.0542 1.75072 59.9005 1.79646 58.7062 2.02516C57.6999 2.21575 56.6428 2.56642 55.4662 3.10006C55.4662 3.10006 55.2782 3.18392 55.1511 3.24237C55.1359 3.12293 55.1028 2.86882 55.1028 2.86882L54.8309 2.9044L42.8367 4.53835C42.8367 4.53835 43.6194 10.2762 43.6474 10.4719C43.5381 10.477 43.3729 10.4897 43.3729 10.4897C43.3653 10.4897 42.3311 10.5558 41.8304 10.6523C40.7682 10.8607 39.7823 11.2495 39.0581 11.745C39.0581 11.745 38.8522 11.8873 38.715 11.9788C38.7048 11.8975 38.6947 11.8136 38.6947 11.8136C38.3415 9.22675 36.7482 7.37426 34.0851 6.45183C32.2986 5.82925 30.0548 5.74031 27.7652 6.19517C26.0525 6.53569 24.0171 7.21925 22.3196 8.01717C22.3196 8.01717 22.2611 8.04512 22.223 8.06291C22.1849 8.04767 22.1239 8.02734 22.1239 8.02734C21.4988 7.79609 20.9118 7.65125 20.3299 7.5801C19.2448 7.44542 18.0911 7.4937 16.8993 7.71986C15.8981 7.9079 14.8385 8.26112 13.6619 8.79476C13.6619 8.79476 13.4739 8.88116 13.3493 8.93706C13.3341 8.81763 13.2985 8.56606 13.2985 8.56606L1.03497 10.2356L2.14291 18.3672L2.3767 18.3698C2.96878 18.3774 3.39315 18.4867 3.63964 18.7001C4.13262 19.127 4.21648 19.5133 4.28255 20.0088C4.28509 20.0114 4.31813 20.2578 5.47689 28.7554L5.47943 28.7529C5.47943 28.7681 5.48197 28.7859 5.48197 28.8037C5.48705 28.8444 5.49213 28.8926 5.49213 28.9409C5.48959 29.2103 5.38032 29.566 5.07285 29.8735C4.90513 30.0489 4.64848 30.1988 4.30796 30.3258L4.10467 30.4021L5.00678 37.0141L43.035 31.8353C43.035 31.8353 42.3488 26.7962 42.3183 26.57C42.4454 26.5827 42.636 26.6005 42.636 26.6005C43.7312 26.6996 45.2127 26.4354 45.7946 26.2016L45.7591 26.2092L45.9776 26.1279C45.9776 26.1279 46.0386 26.105 46.0996 26.0771C46.1301 26.3083 46.8136 31.3194 46.8136 31.3194L84.2192 26.2244C84.2192 26.2244 83.0554 17.6481 83.0274 17.4651C83.2078 17.4397 87.0043 16.9137 87.0043 16.9137C88.4553 16.718 89.675 16.0548 90.4374 15.046C90.9151 14.4183 91.1718 13.7195 91.1769 13.0207L91.1515 12.6141L90.0308 4.3808C90.0308 4.3808 87.2965 4.75435 87.1187 4.77722C87.0983 4.60696 86.8823 2.95776 86.8823 2.95776C86.7883 2.3301 86.5215 1.84982 86.087 1.5271C85.6448 1.19929 85.0756 1.06969 84.486 1.15609C84.486 1.15609 78.5804 1.96163 78.1637 2.01754C78.1281 1.98959 78.0798 1.95147 78.0798 1.95147C77.4344 1.4407 76.6949 1.0392 75.8868 0.759673C74.8526 0.401373 73.6659 0.21841 72.408 0.215869C71.4906 0.213328 70.5326 0.309891 69.567 0.500477H69.5721Z" fill="black"/>
<path d="M5.00676 29.8202C5.05251 30.1505 4.96102 30.6639 4.52141 31.1136C4.28 31.3601 3.93949 31.5228 3.65996 31.6295C3.75652 32.3385 4.3791 36.9227 4.496 37.7587C5.4972 37.6215 40.9842 32.7857 41.9854 32.651C41.8685 31.7997 41.2587 27.3146 41.2587 27.3146L41.9168 27.3756C42.9739 27.4696 44.3944 27.2181 44.9459 26.997L45.5735 26.7429C45.5735 26.7429 46.1834 31.2102 46.2978 32.0615C47.299 31.9243 82.1685 27.1749 83.1672 27.0376C83.0401 26.1152 81.9779 18.2783 81.9779 18.2783L86.2216 17.6913C88.9254 17.3229 90.3611 15.3332 90.1375 13.6992C90.1375 13.6992 89.1769 6.65262 89.0524 5.73273C88.3485 5.82929 86.1403 6.13168 86.1403 6.13168L85.8684 4.04033C85.7871 3.4889 85.5508 3.06707 85.1797 2.79263C84.7986 2.50802 84.3005 2.39367 83.7821 2.47244L77.3403 3.34914L77.165 3.20937C76.5475 2.72147 75.8385 2.33522 75.0508 2.06332C73.3075 1.45853 71.112 1.37213 68.8732 1.81683C67.1808 2.1548 65.1708 2.8282 63.4911 3.62104L63.2904 3.71506L63.0845 3.63883C62.4899 3.41775 61.9232 3.27798 61.3515 3.20683C60.2969 3.07469 59.1712 3.12043 58.0048 3.34151C57.0239 3.52702 55.9846 3.87007 54.8284 4.39609L54.1829 4.69086C54.1829 4.69086 54.1473 4.4342 54.1219 4.22583C53.1969 4.35289 43.317 5.69715 42.3971 5.82421C42.5165 6.69836 43.2077 11.7781 43.2077 11.7781L42.6436 11.8137C42.6334 11.8137 41.617 11.8772 41.1342 11.9712C40.1075 12.172 39.1597 12.5455 38.4634 13.0207L37.7595 13.5035L37.6782 12.9013C37.3402 10.4237 35.8079 8.64741 33.249 7.76056C31.5058 7.15322 29.3102 7.06682 27.0715 7.51152C25.3791 7.8495 23.369 8.5229 21.6894 9.31319L21.4886 9.40721L21.2828 9.33098C20.6805 9.11244 20.1138 8.97014 19.5497 8.89899C18.4926 8.76939 17.3669 8.81513 16.2005 9.03621C15.2221 9.22171 14.1854 9.56477 13.0266 10.0908L12.3837 10.383C12.3837 10.383 12.3481 10.1264 12.3202 9.91798C11.4003 10.0425 1.51016 11.3893 0.592804 11.5164C0.709696 12.3829 1.5254 18.3673 1.63467 19.1474C2.08445 19.1525 2.69433 19.2186 3.07042 19.5438C3.63201 20.0317 3.73619 20.5018 3.80735 21.0228L4.99914 29.7694L5.00676 29.8227V29.8202Z" fill="black"/>
<path d="M69.6254 0.767412C67.9356 1.10284 65.923 1.77879 64.2433 2.56908L64.0425 2.6631L63.8367 2.58687C63.2421 2.36579 62.6754 2.22603 62.1036 2.15742C61.0491 2.02528 59.9233 2.07102 58.757 2.2921C57.7761 2.4776 56.7368 2.82065 55.5831 3.34667L54.9351 3.64144C54.9351 3.64144 54.9021 3.38479 54.8741 3.17641C53.9491 3.30347 44.0692 4.64773 43.1493 4.77225C43.2662 5.6464 43.9599 10.7261 43.9599 10.7261L43.3958 10.7617C43.3856 10.7617 42.3691 10.8252 41.8863 10.9193C40.8597 11.12 39.9093 11.4936 39.2156 11.9713L38.5117 12.4541L38.4304 11.8544C38.0924 9.37425 36.5626 7.598 34.0037 6.71368C32.2605 6.10635 30.0649 6.01995 27.8237 6.46465C26.1313 6.80262 24.1187 7.47602 22.4441 8.26632L22.2433 8.36034L22.0375 8.28411C21.4352 8.06303 20.8686 7.92072 20.3019 7.85211C19.2448 7.71997 18.119 7.76825 16.9552 7.98933C15.9769 8.17484 14.9401 8.51789 13.7813 9.04391L13.1359 9.33614C13.1359 9.33614 13.1003 9.07948 13.0723 8.87111C12.1524 8.99817 2.26232 10.345 1.34497 10.4695C1.46186 11.336 2.27757 17.3204 2.3843 18.1031C2.83408 18.1082 3.44649 18.1717 3.82258 18.4995C4.38417 18.9874 4.48836 19.4575 4.55951 19.9759L5.75131 28.7225L5.67253 28.509C5.71065 28.57 5.74368 28.6641 5.75893 28.7759C5.80467 29.1088 5.71319 29.6221 5.27357 30.0693C5.03217 30.3158 4.69165 30.4759 4.40959 30.5852C4.50615 31.2967 5.13127 35.8784 5.24562 36.7144C6.24683 36.5772 41.7339 31.7414 42.7351 31.6067C42.6182 30.7554 42.0083 26.2728 42.0083 26.2728L42.6665 26.3338C43.7236 26.4278 45.1466 26.1763 45.698 25.9552L46.3257 25.7011C46.3257 25.7011 46.9356 30.1684 47.0499 31.0197C48.0511 30.885 82.9207 26.1356 83.9219 25.9984C83.7948 25.076 82.7301 17.2365 82.7301 17.2365L86.9738 16.6495C89.6801 16.2811 91.1133 14.2888 90.8922 12.6574C90.8922 12.6574 89.9317 5.61083 89.8046 4.69093C89.1033 4.7875 86.8925 5.08735 86.8925 5.08735L86.6206 2.99599C86.5393 2.44456 86.3029 2.02274 85.9345 1.74829C85.5508 1.46368 85.0552 1.34933 84.5368 1.42811L78.095 2.3048L77.9222 2.16504C77.3022 1.6746 76.5958 1.29089 75.8106 1.01898C74.0648 0.414193 71.8718 0.325253 69.6305 0.772494L69.6254 0.767412Z" fill="#FEFEFE"/>
<path fill-rule="evenodd" clip-rule="evenodd" d="M81.0097 20.1866C80.5523 19.8918 80.2575 19.4598 80.1991 19.0024L78.5016 6.53556C78.2272 4.67291 77.1014 3.35151 75.2489 2.71115C73.803 2.208 71.9505 2.14701 70.0294 2.52819C68.4819 2.8382 66.0526 3.57768 64.1111 4.65766C63.486 4.28157 62.7516 4.03762 61.9257 3.93598C61.0668 3.82925 60.1342 3.86737 59.1432 4.05541C57.5346 4.35781 55.888 5.03629 54.6225 5.91807L53.5451 6.67024L53.3468 5.19892L45.2635 6.30178L45.8479 10.5988C46.8746 10.6293 47.8529 11.2926 47.9749 12.1134L49.4843 23.1927C49.5478 23.6476 49.3801 24.1406 49.0193 24.5472C48.788 24.8165 48.4907 25.0224 48.1578 25.1596L48.6686 28.9078L58.64 27.5483L58.1293 23.8001C57.771 23.7594 57.433 23.6374 57.1357 23.4418C56.6808 23.147 56.3861 22.715 56.3251 22.2576L54.8105 11.1401C54.7597 10.7894 54.836 10.4591 55.0697 10.1237C55.4458 9.53919 56.2107 9.05383 57.2882 8.90899C58.7849 8.70824 59.7785 9.53919 59.8852 10.2634L62.1748 27.068L70.5834 25.9245L70.0752 22.1763C69.7143 22.1331 69.3738 22.0137 69.0765 21.8154C68.6216 21.5207 68.3294 21.0887 68.2659 20.6338L66.7564 9.54173C66.7056 9.19614 66.7819 8.86325 67.0131 8.52782C67.3892 7.94336 68.1515 7.45546 69.2315 7.31061C70.7282 7.1124 71.7218 7.94081 71.8286 8.66504L74.1131 25.4391L82.5191 24.2956L82.0084 20.5474C81.6501 20.5042 81.3096 20.3848 81.0148 20.1891L81.0097 20.1866Z" fill="black"/>
<path d="M38.7709 14.3471C38.56 14.868 38.4888 15.4271 38.5625 15.9658C38.5625 15.9683 38.5625 15.9709 38.565 15.976C38.6921 16.8959 39.0987 17.5134 39.5993 18.0318C38.6082 18.8856 37.7493 20.024 37.9221 21.6351C37.9247 21.6732 37.9297 21.7139 37.9348 21.7545C38.0695 22.7303 38.56 23.5765 39.363 24.2118C40.4582 25.0733 42.0489 25.4417 43.7261 25.2206C44.8874 25.0707 45.9826 24.5904 46.9788 23.9247C47.2252 24.1178 47.7513 24.532 47.7513 24.532L51.9187 23.9628L50.9277 16.69L46.7755 17.2567L46.6281 17.7827C46.5722 17.9784 46.4451 18.1868 46.3613 18.3926C46.1707 18.2452 46.1554 18.235 45.9699 18.0877C46.8441 17.2618 47.5734 16.2047 47.3853 14.8147L47.3828 14.8045C47.1007 12.769 44.9611 11.4858 42.4123 11.8212C40.6767 12.0499 39.3147 12.9978 38.7709 14.3496V14.3471Z" fill="#FEFEFE"/>
<path fill-rule="evenodd" clip-rule="evenodd" d="M50.7346 21.4547L49.1947 21.6656L48.6051 21.2031C48.8542 20.827 49.0651 20.4255 49.2404 20.0037C49.2963 19.8665 49.3497 19.7318 49.398 19.5895L50.4576 19.4472L50.2111 17.6328L47.426 18.0114C47.2659 18.5781 47.0093 19.1575 46.684 19.7089L44.6486 18.1156C45.7717 17.2542 46.7425 16.2479 46.5544 14.9189C46.346 13.4221 44.7045 12.3599 42.5191 12.6471C40.9563 12.8555 39.9322 13.689 39.5409 14.6597C39.3833 15.0459 39.33 15.4627 39.3859 15.8616C39.5256 16.8527 40.0212 17.3863 40.8801 18.0801C39.64 18.9593 38.5803 20.0037 38.743 21.5487C38.9564 23.5613 41.0833 24.7302 43.6118 24.3948C44.8849 24.2322 46.0614 23.7011 47.0423 22.9184L47.9825 23.6579L50.9735 23.2487L50.7295 21.4547H50.7346ZM43.3983 22.372C42.3844 22.5067 41.4976 22.1383 41.373 21.2438C41.2993 20.7076 41.866 20.1435 42.7021 19.5082L45.2203 21.4852C44.6536 21.9629 44.0336 22.2907 43.3983 22.372ZM42.8113 14.2429C43.5406 14.1413 44.1556 14.4945 44.2369 15.1018C44.3258 15.732 43.6956 16.2504 42.9003 16.7637C42.4479 16.4232 41.7288 15.9099 41.6729 15.4906C41.5865 14.8833 42.0795 14.342 42.8088 14.2429H42.8113Z" fill="black"/>
<path fill-rule="evenodd" clip-rule="evenodd" d="M39.2054 25.884C38.7505 25.5918 38.4558 25.1573 38.3948 24.6999L36.6948 12.233C36.4229 10.3704 35.2971 9.04898 33.4421 8.40608C31.9962 7.90547 30.1437 7.84448 28.2226 8.22565C26.6725 8.53313 24.2457 9.27515 22.3043 10.3577C21.6792 9.98158 20.9448 9.73763 20.1164 9.63345C19.26 9.52672 18.3249 9.56484 17.3364 9.75542C15.7253 10.0578 14.0786 10.7338 12.8157 11.6181L11.7357 12.3677L11.5375 10.8989L3.4541 12.0018L4.0411 16.2963C5.06773 16.3268 6.04352 16.9926 6.16804 17.8134L7.67494 28.8877C7.73847 29.3451 7.57329 29.8406 7.21245 30.2446C6.97866 30.5165 6.68389 30.7198 6.351 30.8571L6.85923 34.6052L16.8307 33.2457L16.3199 29.4975C15.9616 29.4543 15.6211 29.3349 15.3263 29.1367C14.8689 28.8445 14.5767 28.4099 14.5157 27.9525L13.0012 16.8325C12.9503 16.4869 13.0266 16.154 13.2578 15.816C13.6365 15.2316 14.3963 14.7488 15.4762 14.6039C16.973 14.4032 17.9666 15.2341 18.0758 15.9583L20.3654 32.7655L28.774 31.6219L28.2633 27.8738C27.9024 27.8306 27.5644 27.7137 27.2671 27.5155C26.8123 27.2207 26.5175 26.7887 26.459 26.3313L24.9496 15.2417C24.8962 14.8936 24.9725 14.5633 25.2037 14.2253C25.5824 13.6434 26.3447 13.1555 27.4247 13.0106C28.9189 12.8099 29.9125 13.6434 30.0217 14.3651L32.3062 31.1442L40.7123 29.9981L40.199 26.25C39.8407 26.2068 39.5002 26.0848 39.2054 25.8891V25.884Z" fill="black"/>
<path fill-rule="evenodd" clip-rule="evenodd" d="M89.9164 11.9278C89.7411 10.6369 88.5518 9.96092 87.0957 9.69919C86.4605 9.58738 85.8252 9.52639 85.2661 9.4095C84.8697 9.31547 84.3818 9.20366 84.2954 8.72085C84.2116 8.25836 84.6105 7.73743 85.5202 7.64594C86.6561 7.53413 87.3905 8.28377 87.7869 8.90127L88.9813 8.73864L88.5976 5.91797L87.0297 6.11618L86.8975 6.3398C86.5291 6.24832 85.8277 6.16954 84.8951 6.28898C83.1214 6.51768 81.7593 7.75013 81.9626 9.29514C82.1329 10.5403 83.2027 11.1858 84.5571 11.4424C85.2102 11.5669 85.998 11.6533 86.5723 11.7778C86.9763 11.8769 87.4769 12.004 87.5709 12.5122C87.6573 13.0052 87.2507 13.5287 86.3207 13.6507C85.1696 13.798 84.4174 12.962 83.9269 12.2912L82.6691 12.4512L83.068 15.371L84.8087 15.1372L84.9459 14.8806C85.4288 15.0178 86.6739 15.1906 87.7717 14.8094C89.1464 14.3291 90.0994 13.2187 89.924 11.9303L89.9164 11.9278Z" fill="black"/>
<path fill-rule="evenodd" clip-rule="evenodd" d="M80.4024 3.80168L82.3591 3.54248L81.6425 6.1751L79.6833 6.43938L80.4024 3.80168Z" fill="black"/>
<path d="M84.9485 3.08482C85.1061 3.06449 85.2128 3.01367 85.1874 2.83325C85.1594 2.64266 84.9587 2.67316 84.8189 2.69349L84.4759 2.74177L84.5318 3.14581L84.9485 3.08736V3.08482ZM85.566 3.82684L85.2407 3.87258L84.8418 3.31861L84.5623 3.35927L84.6461 3.95643L84.3666 3.99709L84.1658 2.57914L84.857 2.48257C84.9765 2.46478 85.134 2.447 85.2509 2.49274C85.3907 2.55881 85.4491 2.6884 85.4669 2.83833C85.505 3.10007 85.3856 3.22458 85.1366 3.27795L85.566 3.82938V3.82684ZM85.8786 3.05179C85.7947 2.4597 85.2509 2.05058 84.6588 2.13698C84.0642 2.22083 83.6551 2.7621 83.7389 3.35418C83.8228 3.94881 84.3666 4.35793 84.9612 4.27408C85.5533 4.19022 85.9599 3.64896 85.876 3.05179H85.8786ZM83.4924 3.38976C83.3908 2.66553 83.8939 1.99213 84.6258 1.88794C85.3475 1.7863 86.0234 2.29453 86.1251 3.01621C86.2267 3.74044 85.7185 4.41892 84.9968 4.52057C84.2649 4.62475 83.5941 4.11653 83.4924 3.38976Z" fill="black"/>
</g>
<defs>
<clipPath id="clip0_1233_3507">
<rect width="90.5913" height="37.5428" fill="white" transform="translate(0.591675 0.21582)"/>
</clipPath>
</defs>
</svg>
