<svg width="98" height="25" viewBox="0 0 98 25" fill="none" xmlns="http://www.w3.org/2000/svg">
<g clip-path="url(#clip0_1233_3648)">
<path d="M10.4945 15.7981C10.0414 16.2102 9.38601 16.3485 8.97698 16.4002C8.14218 16.5052 7.27848 16.2269 6.72651 15.5609C6.2749 15.0165 6.04225 14.3125 5.59976 13.7483C4.90181 12.8573 3.7857 12.2719 2.63614 12.4787C0.362869 12.8922 -0.666566 15.5487 0.616807 17.3917C2.45367 20.0253 6.58206 19.5691 8.70175 17.7444C9.36168 17.1773 9.97752 16.5462 10.4945 15.7966V15.7981Z" fill="black"/>
<path d="M87.4893 15.7982C87.944 16.2118 88.5963 16.3486 89.0084 16.4003C89.8432 16.5052 90.7069 16.2285 91.2589 15.5609C91.712 15.0166 91.9446 14.3125 92.3856 13.7484C93.0851 12.8558 94.1997 12.2719 95.3492 12.4787C97.621 12.8908 98.6519 15.5488 97.367 17.3917C95.5317 20.0254 91.4018 19.5692 89.2836 17.7445C88.6237 17.1773 88.0063 16.5448 87.4893 15.7966V15.7982Z" fill="black"/>
<path d="M79.9229 1.75261C79.8651 1.75108 74.4427 1.75108 74.3925 1.75261C73.798 1.77085 73.3068 2.32282 73.278 2.89C73.2475 3.49367 73.7706 4.09126 74.3925 4.12168C74.4503 4.1232 79.8727 4.1232 79.9229 4.12168C80.5174 4.10343 81.0086 3.55146 81.036 2.98428C81.0664 2.38061 80.5433 1.78302 79.9229 1.75261Z" fill="black"/>
<path d="M45.3813 13.5688C45.3053 13.254 45.2657 12.9438 45.2444 12.6321C45.2399 12.182 45.2399 11.5494 45.2399 10.9655C45.2961 8.95381 45.6717 5.41389 42.9499 5.41389C41.1115 5.41389 40.0227 6.96489 39.7141 7.47124C39.67 6.0571 38.5584 5.03223 36.8584 5.03223C35.7742 5.03223 35.1295 5.89744 35.1295 5.89744C35.1295 5.89744 36.1863 6.26542 36.1863 7.69021C36.197 8.71052 36.1848 13.6783 36.1863 13.698C36.2274 14.5785 36.8417 15.4026 37.938 15.4026C39.0359 15.4026 39.7171 14.5572 39.7171 13.6965V9.29138C39.8692 8.57063 40.2736 7.83618 40.8834 7.83618C41.6741 7.83618 41.7182 8.7166 41.7212 8.7166L41.7182 12.9803C41.7212 13.1187 41.7395 13.2525 41.7638 13.3833C41.8033 13.6053 41.8703 13.8121 41.966 14.0021C42.3872 14.8613 43.3194 15.4209 44.5739 15.4209C45.6565 15.4209 46.3012 14.5572 46.3012 14.5572C46.3012 14.5572 45.6656 14.3321 45.3813 13.5673V13.5688Z" fill="black"/>
<path d="M71.5429 13.5689C71.4669 13.2542 71.4258 12.944 71.4045 12.6323L71.4076 2.07788C71.4076 1.05149 70.5774 0.219727 69.554 0.219727C68.5306 0.219727 67.7004 1.05149 67.7004 2.07788L67.7034 11.4249C67.7126 12.2673 67.6305 13.1264 68.0258 13.9004C68.4455 14.7596 69.481 15.4225 70.734 15.4225C71.8212 15.4225 72.4629 14.5588 72.4629 14.5588C72.4629 14.5588 71.8288 14.3338 71.5429 13.5689Z" fill="black"/>
<path d="M30.1207 5.32275C27.3396 5.32275 25.0845 7.58386 25.0845 10.3726C25.0845 13.1614 27.3396 15.4225 30.1207 15.4225C32.9019 15.4225 35.1569 13.1614 35.1569 10.3726C35.1569 7.58234 32.9019 5.32275 30.1207 5.32275ZM30.1572 13.2769V13.2785C30.1527 13.2785 30.1496 13.2769 30.1466 13.2769C30.142 13.2769 30.139 13.2785 30.1359 13.2785V13.2769C29.1856 13.2602 28.7081 12.1639 28.7081 10.3726C28.7081 8.58289 29.3118 7.48655 30.1359 7.46678C30.139 7.46678 30.142 7.46678 30.1466 7.46678C30.1496 7.46678 30.1527 7.46678 30.1572 7.46678C30.9798 7.48655 31.585 8.58289 31.585 10.3726C31.585 12.1639 31.1091 13.2602 30.1572 13.2769Z" fill="black"/>
<path d="M56.7097 13.5689C56.6336 13.2542 56.5926 12.944 56.5713 12.6323L56.5743 2.07788C56.5743 1.05149 55.7441 0.219727 54.7207 0.219727C53.6974 0.219727 52.8671 1.05149 52.8671 2.07788L52.8595 7.07604C52.414 6.45412 51.4317 5.40188 49.8838 5.40188C45.6261 5.40188 45.3585 13.0033 48.278 14.8827C49.1007 15.4119 50.3415 15.5487 51.2812 15.3039C51.9305 15.1351 52.9523 14.495 53.1165 13.7332C53.1393 13.7894 53.1652 13.8442 53.1925 13.9004C53.6122 14.7596 54.6477 15.4225 55.9007 15.4225C56.9864 15.4225 57.6296 14.5588 57.6296 14.5588C57.6296 14.5588 56.9955 14.3338 56.7097 13.5689ZM51.1854 12.9546V12.9561C51.1808 12.9561 51.1778 12.9561 51.1747 12.9561C51.1702 12.9561 51.1687 12.9561 51.1641 12.9561V12.9546C50.2122 12.9409 49.7378 11.9845 49.7378 10.4244C49.7378 8.86577 50.3399 7.91084 51.1641 7.89259V7.89107C51.1687 7.89107 51.1717 7.89259 51.1747 7.89259C51.1778 7.89259 51.1808 7.89107 51.1854 7.89107V7.89259C52.0095 7.91084 52.6132 8.86425 52.6132 10.4244C52.6132 11.9845 52.1357 12.9409 51.1854 12.9546Z" fill="black"/>
<path d="M66.3547 12.2975C66.3547 12.2975 65.8118 13.0441 63.7013 13.0441C61.5922 13.0441 61.1391 11.4004 61.1391 11.4004C64.2122 11.4004 66.7911 11.1936 66.7911 8.69829C66.7911 6.20301 63.9795 5.38037 62.3115 5.38037C59.5577 5.38037 57.546 7.58218 57.546 10.488C57.546 13.7618 60.1659 15.4208 62.3404 15.4208C66.1707 15.4208 66.3547 12.296 66.3547 12.296V12.2975ZM60.9414 9.79919C61.0494 9.0024 61.2395 7.99882 61.9541 7.53352C62.5472 7.14729 63.3789 7.58674 63.3911 8.3303C63.4048 9.11645 62.8984 9.65169 62.1929 9.80071C62.1184 9.81744 60.9323 9.87674 60.9414 9.79767V9.79919Z" fill="black"/>
<path d="M81.1835 12.2975C81.1835 12.2975 80.6391 13.0441 78.53 13.0441C76.421 13.0441 75.9679 11.4004 75.9679 11.4004C79.041 11.4004 81.6199 11.1936 81.6199 8.69829C81.6199 6.20301 78.8068 5.38037 77.1402 5.38037C74.3865 5.38037 72.3747 7.58218 72.3747 10.488C72.3747 13.7618 74.9947 15.4208 77.1691 15.4208C80.9995 15.4208 81.1835 12.296 81.1835 12.296V12.2975ZM75.7702 9.79919C75.8782 9.0024 76.0682 7.99882 76.7829 7.53352C77.3759 7.14729 78.2077 7.58674 78.2199 8.3303C78.2335 9.11645 77.7272 9.65169 77.0216 9.80071C76.9471 9.81744 75.7595 9.87674 75.7702 9.79767V9.79919Z" fill="black"/>
<path d="M88.1386 12.5682H86.0265C86.1816 12.5682 87.7448 11.2468 88.2633 10.8073C89.6197 9.65323 92.0602 7.98667 91.3486 5.82896L91.3501 5.84416C91.2193 5.33021 90.8255 5.03369 90.8255 5.03369C90.8255 5.03369 90.678 5.45337 90.1762 5.64193C89.9709 5.69058 89.7656 5.7286 89.5619 5.74076C89.3931 5.7438 83.6575 5.74076 83.6575 5.74076C82.882 5.73924 82.2327 6.36572 82.2205 7.10321C82.2114 7.84677 82.8257 8.44436 83.6118 8.45501L86.9571 8.47629C85.4061 9.34303 83.5541 10.3709 82.6143 11.9387C82.0776 12.8388 81.5028 14.2256 81.7202 15.29C82.4638 14.6301 84.4147 13.9899 85.8988 14.3017C86.4553 14.4187 87.0453 14.7031 87.5258 15.0042C90.31 16.7498 91.9842 13.3346 90.6537 11.8292C90.6537 11.8292 89.8934 12.5697 88.1371 12.5697L88.1386 12.5682Z" fill="black"/>
<path d="M25.3567 14.6926C23.6476 12.8147 23.1139 9.69141 23.009 7.61581C22.9177 5.82304 23.015 2.71649 24.4246 1.81326C23.9532 1.21871 23.0211 0.97998 22.314 0.97998C20.725 0.97998 19.9587 2.04135 19.4158 2.80468C19.2364 3.0571 16.5647 6.75212 16.5647 6.75212C16.5647 6.75212 14.3173 3.26542 14.0405 2.84726C13.6589 2.26944 12.9442 1.20655 11.6882 1.02408C11.1469 0.945007 9.74338 0.87354 8.98004 1.92426C10.2969 2.98107 10.2634 5.67098 9.97755 7.50785C9.11994 13.02 6.78128 13.5278 6.78128 13.5278C7.9795 16.7728 11.0663 15.4909 11.9376 12.9029C12.5017 11.2211 12.8667 9.0923 12.9518 7.3269L16.3382 12.5349C16.3382 12.5349 20.1731 7.3421 20.1731 7.34667C19.542 16.5295 22.6866 19.1342 25.4373 19.1342C28.1896 19.1342 29.1278 16.6101 29.1278 16.6101C27.6391 16.5203 26.336 15.7692 25.3583 14.6926H25.3567Z" fill="black"/>
<path d="M60.4549 17.4951C60.1979 17.4844 59.2475 17.4951 58.2713 17.5149H58.028C57.0639 17.5346 56.1394 17.5453 55.8308 17.5453C55.4962 17.5346 55.5738 18.1946 55.7927 18.1946C55.96 18.1946 56.5895 18.1839 57.3468 18.1641C57.3863 19.2407 57.5399 21.85 57.5399 22.6924C57.5399 23.0878 59.2734 22.9768 59.2612 22.7943C59.1578 21.6265 58.9662 19.078 58.8887 18.1337C59.5562 18.114 60.1477 18.1033 60.391 18.1033C60.686 18.1033 60.6358 17.5042 60.4549 17.4936V17.4951ZM60.8289 21.7801C60.8289 22.1754 61.06 22.6119 61.5101 22.8354C62.4605 23.3022 63.5781 22.7441 64.0921 21.7086C64.1955 21.4957 64.1955 21.6585 64.2077 21.9215C64.2594 22.7533 64.9406 22.8962 65.4028 22.8962C66.0962 22.8962 66.1479 22.5708 66.0962 22.5617C65.7237 22.5313 65.7358 20.7552 65.7237 20.4298C65.7495 19.8611 65.7495 19.2727 65.7495 18.6933C65.7495 18.3983 64.1833 18.4394 64.1696 18.6933C64.1575 19.0795 64.0541 20.4602 63.861 20.9772C63.7454 21.3118 63.4884 22.2165 62.9106 22.2256C62.5122 22.2363 62.5 21.9413 62.3845 19.4734C62.3465 18.9655 62.1533 18.6006 61.498 18.5184C60.8563 18.4379 60.5218 18.7222 60.6632 18.7222C60.9202 18.7222 60.8304 21.2099 60.8304 21.7786L60.8289 21.7801ZM71.4274 19.373C71.3757 19.0583 71.2343 18.5717 70.4253 18.5002C69.256 18.3983 68.704 19.221 68.4349 19.7486V19.6771C68.3969 19.1693 68.1901 18.8043 67.5362 18.7222C66.8945 18.6507 66.56 18.9244 66.7014 18.9244C66.9584 18.9244 66.7653 21.9702 66.7653 22.5389C66.7653 22.9038 68.628 22.9646 68.6021 22.5389C68.6021 22.4476 68.5383 21.4015 68.5003 20.5697C68.7436 19.8794 69.4248 19.1084 69.6818 19.1084C69.9387 19.1084 69.9129 19.2301 69.9129 19.4734C69.8992 19.7167 70.0026 20.0618 70.6063 20.0421C71.2236 20.0314 71.4806 19.6863 71.4289 19.3715L71.4274 19.373ZM76.4134 22.3883C76.272 22.3883 75.3338 21.292 74.7955 20.7233L75.0266 20.5408C75.7717 19.8915 75.9253 19.5464 76.0287 19.2407C76.1701 18.8241 75.1042 18.3269 75.0266 18.5306C74.8335 18.967 74.0762 19.7699 73.2034 20.3675C73.2034 19.3213 73.2414 18.4591 73.2156 18.1641C73.1776 17.6563 72.9708 17.2913 72.3291 17.2092C71.6737 17.1271 71.3529 17.4115 71.4806 17.4115C71.7376 17.4115 71.5445 21.9702 71.5445 22.5389C71.5445 23.1167 73.2779 23.1076 73.2536 22.7016C73.2278 22.2652 73.2156 21.8075 73.2019 21.3513C73.3433 21.3406 73.5364 21.2905 73.7417 21.219C74.0884 21.6858 74.7316 22.5693 74.8715 22.7016C75.2319 23.0361 75.6941 23.0878 76.0013 22.9662C76.3997 22.8141 76.5153 22.3868 76.4119 22.3868L76.4134 22.3883ZM80.8596 19.7897C80.9493 19.1191 80.3198 18.5306 79.1641 18.5306C77.5705 18.5306 76.4925 19.4034 76.4925 20.8358C76.4925 21.7801 76.9927 22.9783 79.1124 22.9783C80.0369 22.9783 80.5129 22.6833 80.6801 22.3899C80.8474 22.0949 80.3076 21.7801 80.2179 21.882C79.8332 22.3077 79.5245 22.4613 79.1641 22.4309C78.8037 22.3899 78.4312 22.1268 78.3035 21.4866H78.5224C79.2934 21.4866 80.668 21.1308 80.8611 19.7912L80.8596 19.7897ZM78.2396 20.8966C78.2396 20.8252 78.2518 20.7537 78.2518 20.6731C78.3293 19.5266 78.7779 19.0491 79.2797 19.0795C79.78 19.11 79.8317 19.7288 79.7936 20.0132C79.6781 20.7142 79.0744 20.9164 78.4707 20.9164C78.3932 20.9164 78.3172 20.9058 78.2396 20.8966ZM85.1263 18.5914C84.7158 19.5357 84.3295 20.48 83.9312 21.333C83.4567 20.5317 82.5048 18.9062 82.3893 18.5914C82.26 18.266 80.7577 18.5808 80.9113 18.8347C81.8236 20.2869 82.8379 22.145 83.2362 22.662C83.0431 22.9768 82.8637 23.2505 82.6706 23.4953C82.4395 23.7797 82.1445 24.0534 81.6047 24.0747C81.553 24.0747 81.5788 24.7042 82.3878 24.7042C82.7861 24.7042 83.4415 24.5521 84.0452 23.6078C84.5075 22.8673 86.0615 19.5981 86.4477 18.6933C86.5754 18.3983 85.2267 18.3786 85.1248 18.5914H85.1263Z" fill="black"/>
</g>
<defs>
<clipPath id="clip0_1233_3648">
<rect width="97.8703" height="24.4844" fill="white" transform="translate(0.0560608 0.219727)"/>
</clipPath>
</defs>
</svg>
