<svg width="97" height="25" viewBox="0 0 97 25" fill="none" xmlns="http://www.w3.org/2000/svg">
<g clip-path="url(#clip0_1233_3432)">
<path d="M94.1679 0.535991C94.4815 0.535991 94.783 0.596897 95.0723 0.715662C95.3616 0.834427 95.6174 1.00801 95.8428 1.23031C96.0651 1.45566 96.2356 1.71146 96.3574 1.99772C96.4792 2.28702 96.5371 2.5885 96.5371 2.90216C96.5371 3.21583 96.4762 3.52035 96.3574 3.80661C96.2386 4.09591 96.0651 4.35171 95.8428 4.57401C95.6174 4.79936 95.3616 4.9699 95.0723 5.09171C94.783 5.21047 94.4815 5.27138 94.1679 5.27138V5.01253C94.448 5.01253 94.7191 4.95772 94.9749 4.85113C95.2337 4.74455 95.4621 4.59229 95.66 4.3913C95.858 4.19336 96.0133 3.96496 96.1168 3.70611C96.2234 3.44727 96.2782 3.17928 96.2782 2.89912C96.2782 2.61895 96.2265 2.35097 96.1168 2.09212C96.0102 1.83327 95.858 1.60488 95.66 1.40694C95.4621 1.20899 95.2337 1.05673 94.9749 0.947102C94.7191 0.840518 94.448 0.785703 94.1679 0.785703V0.526855V0.535991ZM94.1679 3.17015H94.2379C94.5242 3.17015 94.6795 3.30414 94.7038 3.57212L94.7647 4.11722C94.7739 4.22076 94.7982 4.2908 94.8409 4.32735H95.3981C95.3372 4.2634 95.3007 4.17204 95.2855 4.05327L95.2276 3.48685C95.2124 3.35286 95.1728 3.24323 95.1028 3.15797C95.0358 3.0727 94.9475 3.02397 94.8439 3.00875C95.0084 2.94784 95.1363 2.85344 95.2246 2.72858C95.3129 2.60373 95.3586 2.45146 95.3586 2.27788C95.3586 2.02817 95.2702 1.83327 95.0967 1.69319C94.9231 1.55311 94.6795 1.48307 94.3658 1.48307H94.1648V1.92463H94.3658C94.6642 1.92463 94.8135 2.05558 94.8135 2.31443C94.8135 2.44233 94.7708 2.54282 94.6916 2.61591C94.6094 2.69204 94.5028 2.72858 94.3658 2.72858H94.1648V3.17015H94.1679ZM94.1648 5.27443C93.8512 5.27443 93.5466 5.21352 93.2604 5.09475C92.9711 4.97599 92.7153 4.80241 92.4899 4.57706C92.2676 4.35475 92.0971 4.09895 91.9783 3.80965C91.8565 3.52035 91.7986 3.21887 91.7986 2.90521C91.7986 2.59155 91.8595 2.28702 91.9783 2.00076C92.0971 1.71146 92.2707 1.45566 92.4899 1.23336C92.7153 1.01105 92.9711 0.840518 93.2604 0.718707C93.5497 0.599942 93.8512 0.539037 94.1648 0.539037H94.1679V0.797884H94.1648C93.8846 0.797884 93.6167 0.852699 93.3609 0.959283C93.1051 1.06587 92.8736 1.21813 92.6757 1.41912C92.4777 1.61706 92.3224 1.84546 92.2189 2.1043C92.1123 2.36315 92.0575 2.63113 92.0575 2.9113C92.0575 3.19146 92.1093 3.46249 92.2189 3.71829C92.3255 3.97714 92.4777 4.20554 92.6757 4.40348C92.8736 4.60142 93.102 4.75368 93.3609 4.86331C93.6197 4.9699 93.8877 5.02471 94.1648 5.02471H94.1679V5.28356H94.1648V5.27443ZM94.1679 1.48307V1.92463H93.5832V2.72858H94.1679V3.17015H93.5832V4.32735H93.0381V1.48307H94.1679Z" fill="black"/>
<path fill-rule="evenodd" clip-rule="evenodd" d="M34.773 11.1854L37.0996 11.1915V19.7366C37.0996 21.8743 38.7501 23.8812 40.8118 23.8812H45.7329V19.4777H43.5738C42.8917 19.4777 42.5384 18.6403 42.5384 17.9246V11.1915H45.7086L45.7329 6.52924H42.5384V0.831543L37.1179 2.86274L37.0996 6.52924H34.77L34.773 11.1854Z" fill="black"/>
<path fill-rule="evenodd" clip-rule="evenodd" d="M18.4534 17.751C18.4534 21.454 20.3019 24.3105 23.8923 24.3105C26.1001 24.3105 27.5161 23.4152 28.5546 22.4133V23.8811H33.9934V6.53223H28.5546V16.9775C28.5546 18.3722 27.6075 19.4807 26.2249 19.4807C24.7297 19.4807 23.9806 18.2656 23.9806 16.7186V6.53223H18.4565V17.754L18.4534 17.751Z" fill="black"/>
<path fill-rule="evenodd" clip-rule="evenodd" d="M77.5834 0.661133H72.0593V23.8813H77.5834V0.661133Z" fill="black"/>
<path fill-rule="evenodd" clip-rule="evenodd" d="M0.845703 6.5321V23.881H6.19623V12.918C6.19623 11.8857 7.29862 10.6737 8.35533 10.6737H8.69944C9.97236 10.6737 10.8585 11.8278 10.8585 13.0916V23.881H16.2974V11.7974C16.2974 8.5298 13.8855 6.18799 10.5997 6.18799C9.32068 6.18799 7.23163 6.75745 6.19623 7.82939V6.53515H0.845703L0.845703 6.5321Z" fill="black"/>
<path fill-rule="evenodd" clip-rule="evenodd" d="M69.9002 0.661133H64.376V23.8813H69.9002V0.661133Z" fill="black"/>
<path fill-rule="evenodd" clip-rule="evenodd" d="M58.185 13.0308C57.9049 11.5234 56.5406 10.5459 55.0636 10.555H55.0027V6.1881C60.9349 6.26119 63.3833 10.6037 63.298 16.5786L55.0027 16.6334V13.0521L58.182 13.0308H58.185ZM55.0058 24.4506V19.7974C55.0728 19.7974 55.1428 19.8004 55.2128 19.7974C56.3883 19.7883 57.2288 19.3832 57.8257 18.3326L63.1031 18.2991C62.4058 21.451 59.5249 24.4536 55.3103 24.4536C55.2068 24.4536 55.1063 24.4536 55.0058 24.4506ZM55.0058 10.555C53.4344 10.5855 52.1432 11.4564 51.8265 13.0704L55.0058 13.0491V16.6303L51.7534 16.6516C51.7656 18.8625 52.8771 19.7578 55.0058 19.7974V24.4506C50.0329 24.3409 46.2963 20.7658 46.2628 15.4183C46.2293 10.15 49.7375 6.21856 54.7713 6.18506C54.8505 6.18506 54.9266 6.18506 55.0058 6.18506V10.552V10.555Z" fill="black"/>
<path fill-rule="evenodd" clip-rule="evenodd" d="M87.8398 19.1364H87.8611C90.1085 19.1212 91.4058 17.4311 91.3906 15.2476C91.3784 13.1373 90.072 11.371 87.8367 11.3771V6.37373C88.933 6.56254 90.0567 7.01324 91.1652 7.78065L91.1591 6.61735L96.6863 6.57777L96.7868 23.8109L91.2596 23.8505L91.2535 22.9126C90.273 23.7622 89.0853 24.2312 87.8398 24.356V19.1334V19.1364ZM84.286 15.2994C84.2981 17.4768 85.6046 19.1425 87.8398 19.1364V24.3591C83.5825 24.7945 78.6126 21.2499 78.5791 15.3055C78.5487 10.0189 82.9095 5.5241 87.8398 6.37373V11.3771H87.8185C85.5711 11.3923 84.2768 13.1829 84.289 15.2994H84.286Z" fill="black"/>
</g>
<defs>
<clipPath id="clip0_1233_3432">
<rect width="95.9411" height="23.9191" fill="white" transform="translate(0.845703 0.535156)"/>
</clipPath>
</defs>
</svg>
