<svg width="88" height="48" viewBox="0 0 88 48" fill="none" xmlns="http://www.w3.org/2000/svg">
<g clip-path="url(#clip0_1233_3806)">
<path d="M56.908 30.4769C56.908 30.6134 56.908 30.8216 56.4134 30.8216C56.344 30.8216 56.2769 30.8148 56.212 30.8104V24.0649C56.2724 24.0582 56.3395 24.0537 56.4134 24.0537C56.908 24.0537 56.908 24.2775 56.908 24.3961V30.4791V30.4769ZM84.3129 23.9127C86.1168 23.9127 87.238 22.7937 87.238 20.9943V19.4299H82.2741L82.2785 15.0634L73.7068 19.6671V19.4791H73.2212C73.539 19.0069 73.7068 18.4071 73.7068 17.7155V16.1825H64.8777V20.6004H66.5115C65.8378 21.18 65.3611 21.9454 65.1037 22.8541C64.1638 20.6653 61.9906 19.4881 58.7857 19.4411H58.4993C57.6689 19.4545 56.8968 19.544 56.2053 19.7096V13.8348L52.0805 13.8325C49.8156 13.8325 47.3762 15.4171 47.3762 18.8972V19.4881H46.7473C45.7871 19.4881 44.8561 19.7678 44.0907 20.2781V19.4791L39.966 19.4769C38.1151 19.4769 36.0852 20.578 35.4608 22.9638C35.3936 24.7475 35.3287 26.529 35.2616 28.3127V35.2283H41.1969C42.8754 35.2283 43.9519 34.2704 44.075 32.6568L44.0773 28.8118C44.0773 26.5782 45.5141 25.7859 46.745 25.7859H47.3739V35.2283H53.3115C53.9874 35.2283 54.5625 35.0783 55.028 34.7807C55.8986 35.1522 56.9237 35.3648 58.074 35.4163C58.2128 35.4252 58.3516 35.4319 58.4545 35.4319C58.497 35.4364 59.0722 35.4252 59.1819 35.4163C61.9347 35.2909 63.884 34.2749 64.8755 32.4688V35.2283H70.813C72.6236 35.2283 73.7023 34.1495 73.7023 32.3412V32.1241C74.4476 34.2614 76.3857 35.2327 78.118 35.2327H84.3084C86.1123 35.2327 87.2336 34.1137 87.2336 32.3143V30.7589H83.0887C82.4374 30.7589 82.2696 30.591 82.2696 29.9442V23.9127H84.3084H84.3129Z" fill="black"/>
<path fill-rule="evenodd" clip-rule="evenodd" d="M22.8248 44.6485C12.1918 44.6485 3.57086 36.0298 3.57086 25.3946C3.57086 14.7616 12.1896 6.14062 22.8248 6.14062V7.64012C17.5318 9.1329 10.3812 12.8637 7.04655 17.4428C3.49477 22.324 4.27809 28.1675 6.57209 32.0975C8.86609 36.0275 12.6685 38.0395 16.471 39.1877C18.6352 39.8389 20.7994 40.2127 22.8248 40.1433V44.6485Z" fill="black"/>
<path d="M56.908 30.4771C56.908 30.6136 56.908 30.8217 56.4134 30.8217C56.344 30.8217 56.2769 30.815 56.212 30.8105V24.0651C56.2724 24.0583 56.3396 24.0539 56.4134 24.0539C56.908 24.0539 56.908 24.2777 56.908 24.3963V30.4793V30.4771ZM84.3129 23.9129C86.1168 23.9129 87.2381 22.7938 87.2381 20.9944V19.4301H82.2741L82.2785 15.0636L73.7068 19.6673V19.4793H73.2212C73.539 19.0071 73.7068 18.4073 73.7068 17.7157V16.1826H64.8777V20.6006H66.5115C65.8378 21.1802 65.3611 21.9456 65.1038 22.8543C64.1638 20.6655 61.9906 19.4882 58.7857 19.4412H58.4993C57.669 19.4547 56.8968 19.5442 56.2053 19.7098V13.8349L52.0805 13.8327C49.8156 13.8327 47.3762 15.4172 47.3762 18.8974V19.4882H46.7473C45.7872 19.4882 44.8561 19.768 44.0907 20.2783V19.4793L39.966 19.4771C38.1151 19.4771 36.0852 20.5782 35.4608 22.9639C34.4089 17.0644 29.1987 12.604 23.0978 12.604C16.1711 12.604 10.5356 18.2394 10.5356 25.1662C10.5356 32.0929 16.1711 37.7283 23.0978 37.7283C28.9391 37.7283 33.8651 33.7983 35.2616 28.3151V35.2307H41.1969C42.8755 35.2307 43.952 34.2728 44.075 32.6592L44.0773 28.8142C44.0773 26.5806 45.5141 25.7884 46.745 25.7884H47.3739V35.2307H53.3115C53.9874 35.2307 54.5625 35.0807 55.0281 34.7831C55.8987 35.1546 56.9237 35.3672 58.074 35.4187C58.2128 35.4276 58.3516 35.4343 58.4545 35.4343C58.497 35.4388 59.0722 35.4276 59.1819 35.4187C61.9347 35.2933 63.884 34.2773 64.8755 32.4712V35.2307H70.813C72.6236 35.2307 73.7023 34.1519 73.7023 32.3436V32.1265C74.4476 34.2638 76.3857 35.2352 78.118 35.2352H84.3084C86.1123 35.2352 87.2336 34.1161 87.2336 32.3167V30.7613H83.0887C82.4374 30.7613 82.2696 30.5934 82.2696 29.9466V23.9151H84.3084L84.3129 23.9129Z" fill="black"/>
<path fill-rule="evenodd" clip-rule="evenodd" d="M22.8248 44.6485C12.1918 44.6485 3.57086 36.0298 3.57086 25.3946C3.57086 14.7616 12.1896 6.14062 22.8248 6.14062V44.6463V44.6485Z" fill="black"/>
<path d="M22.6547 3.45264C28.7131 3.45264 34.1986 5.90778 38.1711 9.88031C39.7333 11.4425 41.0604 13.2374 42.0967 15.2113H40.6486C39.7243 13.5843 38.5874 12.0937 37.2737 10.78C33.5339 7.04023 28.3662 4.72609 22.657 4.72609C16.9477 4.72609 11.78 7.04023 8.04026 10.78C4.30048 14.5198 1.98634 19.6874 1.98634 25.3967C1.98634 31.106 4.30048 36.2736 8.04026 40.0134C11.78 43.7532 16.9477 46.0673 22.657 46.0673C28.3662 46.0673 33.5339 43.7532 37.2737 40.0134C41.0134 36.2736 43.3276 31.106 43.3276 25.3967C43.3276 24.2553 43.2358 23.1363 43.0568 22.0464L44.2922 21.7151C44.4936 22.9125 44.601 24.1412 44.601 25.3967C44.601 31.4551 42.1459 36.9406 38.1734 40.9131C34.2031 44.8834 28.7176 47.3408 22.657 47.3408C16.5986 47.3408 11.1131 44.8856 7.14057 40.9131C3.17027 36.9428 0.712891 31.4573 0.712891 25.3967C0.712891 19.3383 3.16803 13.8529 7.14057 9.88031C11.1109 5.91001 16.5963 3.45264 22.657 3.45264H22.6547Z" fill="black"/>
<path d="M43.0814 24.0474C43.0747 24.0765 43.0724 24.0966 43.0702 24.1056V24.0071V20.4956C43.0702 20.4956 41.8147 20.4956 39.9638 20.4956C38.1152 20.4956 36.28 21.7691 36.28 24.5398V34.2081H41.197C41.9736 34.2081 42.9538 33.9597 43.059 32.59V28.8122C43.059 26.0415 44.8965 24.7658 46.7428 24.7658H46.8458V20.5068H46.7428C45.0106 20.5068 43.2873 21.6258 43.0792 24.0496L43.0814 24.0474Z" fill="#FEFEFE"/>
<path d="M65.8961 24.5373V34.2057H70.8154C71.6367 34.2057 72.6864 33.9282 72.6864 32.3369V20.4932C72.6864 20.4932 71.4286 20.4932 69.5799 20.4932C67.7313 20.4932 65.8961 21.7666 65.8961 24.5373Z" fill="#FEFEFE"/>
<path d="M65.8961 19.5778H70.8154C71.6367 19.5778 72.6864 19.3025 72.6864 17.7112V17.1987H65.8961V19.5778Z" fill="#FEFEFE"/>
<path d="M84.3108 22.8589C85.1321 22.8589 86.184 22.5836 86.184 20.9923V20.4798H81.22L81.2245 16.8184L74.4343 20.4664V30.1348C74.4343 32.9055 76.2717 34.1789 78.1203 34.1789H84.3108C85.1321 34.1789 86.184 33.9036 86.184 32.3124V31.8088H83.091C82.2697 31.8088 81.22 31.5335 81.22 29.9423V22.8589H84.313H84.3108Z" fill="#FEFEFE"/>
<path d="M57.9264 30.4774C57.9264 31.3055 57.3333 31.8404 56.4135 31.8404C56.0398 31.8404 55.7197 31.7553 55.6861 31.7464L55.1938 31.6121V23.2575L55.6861 23.1254C55.7197 23.1165 56.042 23.0314 56.4135 23.0314C57.3333 23.0314 57.9264 23.5663 57.9264 24.3944V30.4774ZM64.5981 25.397C64.5175 22.2973 62.595 20.5136 58.7657 20.4577H58.5106C57.1677 20.4778 56.0599 20.7106 55.1803 21.138V20.4957V14.8514C55.1803 14.8514 53.9248 14.8491 52.0762 14.8491C50.2298 14.8491 48.3923 16.1226 48.3923 18.8933V34.206H53.3093C53.8465 34.206 54.4821 34.0851 54.8581 33.557C55.704 34.0493 56.7984 34.338 58.1413 34.3962C58.2621 34.4052 58.3875 34.4097 58.5106 34.4119C58.5329 34.4141 58.7411 34.4141 58.7657 34.4119C58.891 34.4097 59.0141 34.4052 59.1327 34.3962C62.7158 34.2351 64.5197 32.4693 64.5981 29.4703C64.5981 29.4457 64.5981 25.4172 64.5981 25.3948V25.397Z" fill="#FEFEFE"/>
<path fill-rule="evenodd" clip-rule="evenodd" d="M43.4574 23.9265C43.5201 23.6378 43.5828 23.3491 43.6566 23.1074C43.7327 22.8657 43.82 22.6687 43.9207 22.4852C44.0214 22.3017 44.1356 22.1294 44.2721 21.9705C44.4086 21.8138 44.5653 21.6683 44.7488 21.5363C44.9323 21.4042 45.1405 21.2834 45.3598 21.1827C45.5791 21.0842 45.8096 21.0081 45.9976 20.9611C46.1856 20.9119 46.3356 20.8917 46.4833 20.8716C46.4833 20.9007 46.4833 20.9298 46.4833 20.9566C46.302 20.9992 46.1185 21.0417 45.9126 21.1178C45.7067 21.1961 45.4762 21.308 45.2568 21.4512C45.0375 21.5945 44.8249 21.769 44.6436 21.9772C44.4623 22.1853 44.3079 22.4315 44.1938 22.6643C44.0796 22.897 44.0058 23.1186 43.9565 23.3021C43.9073 23.4879 43.8804 23.6356 43.8558 23.7833C43.7215 23.828 43.5895 23.875 43.4552 23.9198L43.4574 23.9265Z" fill="black"/>
<path d="M49.1443 18.8638H48.7705V33.8565H49.1443V18.8638Z" fill="black"/>
<path fill-rule="evenodd" clip-rule="evenodd" d="M48.7705 18.9579C48.7705 18.8908 48.7705 18.8236 48.7705 18.7543C48.7885 18.4902 48.8064 18.2283 48.8444 17.9911C48.8825 17.7539 48.9406 17.5435 49.0212 17.3309C49.0995 17.116 49.2003 16.8989 49.3301 16.6908C49.4599 16.4826 49.6188 16.2879 49.7799 16.1246C49.9433 15.9634 50.1089 15.8336 50.2991 15.7195C50.4894 15.6053 50.7042 15.5046 50.9437 15.4218C51.1832 15.339 51.4495 15.2741 51.7539 15.2428C52.0582 15.2114 52.4029 15.2114 52.9221 15.2114C53.4414 15.2114 54.1329 15.2114 54.8245 15.2114C54.8245 15.2942 54.8245 15.3793 54.8245 15.4621C54.0389 15.4621 53.2534 15.4621 52.7565 15.4666C52.2597 15.471 52.0515 15.48 51.8322 15.5068C51.6106 15.5337 51.3756 15.5762 51.1451 15.6523C50.9146 15.7284 50.6886 15.8403 50.4871 15.9746C50.2835 16.1111 50.1022 16.27 49.9366 16.4558C49.771 16.6415 49.621 16.8542 49.5046 17.0936C49.3882 17.3331 49.3077 17.6017 49.254 17.8344C49.2003 18.0672 49.1756 18.2641 49.1622 18.4118C49.1488 18.5595 49.1443 18.6558 49.1421 18.752C49.1421 18.8236 49.1421 18.8975 49.1421 18.9691C49.0167 18.9646 48.8936 18.9602 48.7683 18.9557L48.7705 18.9579Z" fill="black"/>
<path d="M37.0163 24.3945H36.6426V33.8548H37.0163V24.3945Z" fill="black"/>
<path fill-rule="evenodd" clip-rule="evenodd" d="M36.6426 24.6024C36.6426 24.5353 36.6426 24.4682 36.6426 24.3988C36.6537 24.1571 36.6649 23.9131 36.703 23.6759C36.741 23.4387 36.8059 23.2081 36.8887 22.9843C36.9716 22.7605 37.0723 22.5412 37.2021 22.3353C37.3319 22.1272 37.4908 21.9325 37.6519 21.7691C37.8153 21.6079 37.9809 21.4781 38.1711 21.364C38.3614 21.2499 38.5762 21.1491 38.8157 21.0663C39.0552 20.9835 39.3215 20.9186 39.6259 20.8873C39.9302 20.856 40.2749 20.856 40.7941 20.856C41.3134 20.856 42.0049 20.856 42.6965 20.856C42.6965 20.9388 42.6965 21.0238 42.6965 21.1066C41.9109 21.1066 41.1254 21.1066 40.6285 21.1111C40.1317 21.1156 39.9235 21.1245 39.7042 21.1514C39.4826 21.1782 39.2476 21.2208 39.0171 21.2969C38.7866 21.3729 38.5606 21.4848 38.3591 21.6191C38.1555 21.7557 37.9742 21.9146 37.8086 22.1003C37.643 22.2861 37.493 22.4987 37.3766 22.7382C37.2603 22.9776 37.1797 23.2462 37.126 23.4789C37.0723 23.7117 37.0476 23.9087 37.0342 24.0564C37.0208 24.2041 37.0163 24.3003 37.0141 24.3965C37.0141 24.4682 37.0141 24.542 37.0141 24.6136C36.8887 24.6092 36.7657 24.6047 36.6403 24.6002L36.6426 24.6024Z" fill="black"/>
<path d="M66.5765 24.3945H66.2027V33.8548H66.5765V24.3945Z" fill="black"/>
<path fill-rule="evenodd" clip-rule="evenodd" d="M66.2027 24.6024C66.2027 24.5353 66.2027 24.4682 66.2027 24.3988C66.2139 24.1571 66.2251 23.9131 66.2631 23.6759C66.3012 23.4387 66.3661 23.2081 66.4489 22.9843C66.5317 22.7605 66.6324 22.5412 66.7622 22.3353C66.892 22.1272 67.0509 21.9325 67.212 21.7691C67.3754 21.6079 67.541 21.4781 67.7313 21.364C67.9215 21.2499 68.1363 21.1491 68.3758 21.0663C68.6153 20.9835 68.8816 20.9186 69.186 20.8873C69.4904 20.856 69.835 20.856 70.3543 20.856C70.8735 20.856 71.565 20.856 72.2566 20.856C72.2566 20.9388 72.2566 21.0238 72.2566 21.1066C71.471 21.1066 70.6855 21.1066 70.1886 21.1111C69.6918 21.1156 69.4837 21.1245 69.2643 21.1514C69.0428 21.1782 68.8078 21.2208 68.5773 21.2969C68.3467 21.3729 68.1207 21.4848 67.9193 21.6191C67.7156 21.7557 67.5343 21.9146 67.3687 22.1003C67.2031 22.2861 67.0531 22.4987 66.9368 22.7382C66.8204 22.9776 66.7398 23.2462 66.6861 23.4789C66.6324 23.7117 66.6078 23.9087 66.5943 24.0564C66.5809 24.2041 66.5764 24.3003 66.5742 24.3965C66.5742 24.4682 66.5742 24.542 66.5742 24.6136C66.4489 24.6092 66.3258 24.6047 66.2004 24.6002L66.2027 24.6024Z" fill="black"/>
<path fill-rule="evenodd" clip-rule="evenodd" d="M55.1893 21.8093C55.1893 21.722 55.1893 21.6347 55.1893 21.5474C55.4757 21.4311 55.7622 21.3147 56.0599 21.2162C56.3553 21.1177 56.6619 21.0372 56.9954 20.9767C57.3288 20.9163 57.6869 20.8738 58.0786 20.8536C58.4703 20.8335 58.8955 20.8335 59.3185 20.8335C59.3185 20.8648 59.3185 20.8962 59.3185 20.9275C58.8977 20.9342 58.4747 20.9432 58.0875 20.9723C57.7004 21.0036 57.3445 21.0551 57.0155 21.1244C56.6865 21.1938 56.3821 21.2789 56.08 21.3975C55.7801 21.5139 55.4847 21.6616 55.1893 21.8093Z" fill="black"/>
<path d="M66.619 17.5615H66.2609V19.1819H66.619V17.5615Z" fill="black"/>
<path d="M72.3148 17.5615H66.2609V17.7764H72.3148V17.5615Z" fill="black"/>
<path d="M58.656 24.6919H58.2889V30.0878H58.656V24.6919Z" fill="black"/>
<path fill-rule="evenodd" clip-rule="evenodd" d="M58.2889 29.9041C58.2889 29.9645 58.2889 30.0272 58.2889 30.1234C58.2889 30.2197 58.2889 30.3517 58.2845 30.4793C58.28 30.6068 58.2733 30.7299 58.2509 30.8553C58.2285 30.9828 58.1905 31.1126 58.1256 31.2424C58.0629 31.3723 57.9756 31.5021 57.8771 31.6117C57.7809 31.7214 57.6735 31.8087 57.5369 31.8892C57.4004 31.9721 57.2326 32.0481 57.0535 32.0996C56.8745 32.1511 56.6798 32.1757 56.4873 32.2003C56.7156 32.1981 56.9439 32.1936 57.1386 32.1712C57.3333 32.1489 57.4922 32.1086 57.6399 32.0459C57.7876 31.9855 57.9197 31.9049 58.036 31.8132C58.1524 31.7214 58.2486 31.6184 58.3315 31.5088C58.412 31.3991 58.4792 31.285 58.5284 31.1664C58.5776 31.0455 58.6112 30.9202 58.6314 30.8105C58.6515 30.7008 58.6582 30.6068 58.6582 30.4882C58.6604 30.3696 58.6582 30.2264 58.656 30.1301C58.6537 30.0317 58.6537 29.9802 58.6537 29.9287C58.5329 29.9198 58.4098 29.9108 58.2867 29.9019L58.2889 29.9041Z" fill="black"/>
<path fill-rule="evenodd" clip-rule="evenodd" d="M58.2889 24.9627C58.2889 24.9023 58.2889 24.8397 58.2889 24.7434C58.2889 24.6472 58.2889 24.5151 58.2845 24.3876C58.28 24.26 58.2733 24.1369 58.2509 24.0116C58.2285 23.884 58.1905 23.7542 58.1256 23.6244C58.0629 23.4946 57.9756 23.3648 57.8771 23.2551C57.7809 23.1454 57.6735 23.0582 57.5369 22.9776C57.4004 22.8948 57.2326 22.8187 57.0535 22.7672C56.8745 22.7157 56.6798 22.6911 56.4873 22.6665C56.7156 22.6687 56.9439 22.6732 57.1386 22.6956C57.3333 22.718 57.4922 22.7583 57.6399 22.8209C57.7876 22.8814 57.9197 22.9619 58.036 23.0537C58.1524 23.1454 58.2486 23.2484 58.3315 23.3581C58.412 23.4677 58.4792 23.5819 58.5284 23.7005C58.5776 23.8213 58.6112 23.9467 58.6314 24.0563C58.6515 24.166 58.6582 24.26 58.6582 24.3786C58.6604 24.4972 58.6582 24.6405 58.656 24.7367C58.6537 24.8352 58.6537 24.8867 58.6537 24.9381C58.5329 24.9471 58.4098 24.956 58.2867 24.965L58.2889 24.9627Z" fill="black"/>
<path fill-rule="evenodd" clip-rule="evenodd" d="M78.1405 33.8027C77.9234 33.7915 77.7063 33.7803 77.487 33.7423C77.2654 33.7042 77.0394 33.6415 76.8469 33.5632C76.6544 33.4849 76.4933 33.3931 76.3344 33.2879C76.1732 33.1827 76.0143 33.0619 75.8778 32.9343C75.7413 32.8068 75.6294 32.6725 75.513 32.5113C75.3966 32.3502 75.278 32.1667 75.1907 31.9966C75.1034 31.8265 75.0497 31.6743 75.0027 31.5221C74.9557 31.3699 74.9177 31.2177 74.8886 31.0521C74.8573 30.8865 74.8349 30.7052 74.8237 30.5329C74.8125 30.3606 74.8125 30.1949 74.8125 29.2684C74.8125 28.3396 74.8125 26.6476 74.8125 25.0922C74.8125 23.5368 74.8125 22.1156 74.8125 20.6944C76.8245 19.6067 78.8365 18.5213 80.8485 17.4336C80.8485 17.5298 80.8485 17.6283 80.8485 17.7245C78.9574 18.7361 77.0685 19.75 75.1773 20.7616C75.1773 23.765 75.1773 26.7685 75.1773 28.3665C75.1773 29.9644 75.1773 30.1591 75.1818 30.3471C75.1863 30.5351 75.1974 30.7142 75.2265 30.9066C75.2556 31.0991 75.3026 31.305 75.3631 31.4997C75.4235 31.6944 75.4951 31.8757 75.5846 32.0525C75.6742 32.2293 75.7793 32.4017 75.9047 32.565C76.0278 32.7284 76.171 32.8851 76.3232 33.0216C76.4754 33.1581 76.6387 33.279 76.8111 33.3775C76.9834 33.4759 77.1669 33.552 77.3437 33.6124C77.5205 33.6729 77.6929 33.7154 77.8249 33.7445C77.957 33.7736 78.0487 33.787 78.1427 33.8004L78.1405 33.8027Z" fill="black"/>
<path fill-rule="evenodd" clip-rule="evenodd" d="M85.8304 32.167H83.2074L83.4469 32.3975H85.8304V32.167Z" fill="black"/>
<path d="M35.3176 8.53542C35.425 8.20866 35.9196 8.052 37.0744 8.19076C35.9017 8.02738 35.613 7.82372 35.5548 7.54172C35.4451 7.04711 38.7037 5.50062 40.4539 4.4756C38.6567 5.2701 35.3623 6.84345 35.0826 6.59503C34.8879 6.4227 34.8767 5.93257 35.5212 4.50693C34.7782 5.77814 34.0262 6.18994 33.8584 6.12728C33.4689 5.99523 32.3141 1.94212 31.8307 0.321777C32.5223 3.44609 32.896 6.10937 32.5693 6.37346C32.3566 6.54132 31.7188 6.50998 31.0116 6.0579C31.6785 6.50551 31.9202 7.00235 31.8643 7.17245C31.7143 7.63125 28.1245 7.82819 26.8466 7.82596C28.505 7.99829 31.3048 7.74986 31.3629 8.45709C31.4122 9.04346 28.957 10.3057 28.1737 10.863C29.051 10.525 32.012 9.00093 32.4305 9.26726C32.8356 9.52687 31.9695 12.4923 31.3159 15.037C32.1731 12.5326 33.0348 9.56492 33.5249 9.65668C33.9188 9.73277 34.4873 11.5366 34.8386 13.2062C34.6439 12.2909 34.3619 9.8223 34.6842 9.5873C34.9483 9.34783 37.6205 11.7157 39.2812 13.1838C37.7033 11.4561 35.1878 8.94051 35.3243 8.53318L35.3176 8.53542Z" fill="black"/>
<path d="M39.6146 18.394C39.308 18.394 39.0372 18.3089 38.8224 18.1545C38.7105 18.2955 38.5381 18.3783 38.3233 18.3783H38.2561C38.1375 18.3783 38.0301 18.3515 37.9406 18.3045C37.8354 18.3515 37.7168 18.3783 37.5892 18.3783C37.3766 18.3783 37.2042 18.3157 37.0588 18.1814C37.0565 18.1836 37.0565 18.1836 37.0565 18.1859C36.9469 18.3089 36.779 18.3783 36.5843 18.3783H36.5194C36.2777 18.3783 36.1277 18.2731 36.0472 18.1859C35.9397 18.2933 35.7719 18.3783 35.51 18.3783C35.2571 18.3783 35.0915 18.2955 34.9841 18.1903C34.8789 18.2955 34.7133 18.3783 34.4604 18.3783C33.968 18.3783 33.8046 18.0672 33.7509 17.8837L33.2877 16.2208L33.3973 16.053C33.5361 15.8426 33.7823 15.715 34.0531 15.715C34.2545 15.715 34.4335 15.8001 34.5611 15.9456C34.6775 15.8672 34.8252 15.8247 34.9931 15.8247C35.1587 15.8247 35.3019 15.865 35.4138 15.9411C35.5414 15.7979 35.7182 15.715 35.9196 15.715C36.0382 15.715 36.1501 15.7397 36.2508 15.7844C36.3471 15.7397 36.4567 15.715 36.5754 15.715H37.1192C37.4012 15.715 37.6295 15.7844 37.8063 15.8941C37.9182 15.78 38.0748 15.715 38.2651 15.715H38.3277C38.5516 15.715 38.7328 15.8068 38.8425 15.9635C39.0663 15.7956 39.3572 15.6904 39.7131 15.6904C40.06 15.6904 40.3241 15.7732 40.5098 15.9008C40.6195 15.7844 40.7806 15.7173 40.9731 15.7173H41.0358C41.376 15.7173 41.6154 15.9277 41.6624 16.2544C41.6938 16.0955 41.7654 15.9881 41.8258 15.9209C41.9153 15.827 42.0742 15.7173 42.3271 15.7173H43.0746C43.1977 15.7173 43.2962 15.7419 43.3745 15.7755C43.4685 15.7397 43.576 15.7173 43.6968 15.7173C43.9206 15.7173 44.1198 15.8113 44.2586 15.9747C44.4399 15.7553 44.6681 15.7173 44.8002 15.7173C45.0822 15.7173 45.3217 15.8628 45.4403 16.1067L45.5432 16.3193L44.8897 17.4204V17.7271C44.8897 18.1165 44.6346 18.3783 44.2563 18.3783H44.1937C43.9922 18.3783 43.8244 18.3045 43.7125 18.1769C43.708 18.1814 43.7035 18.1859 43.6991 18.1903C43.614 18.2776 43.4663 18.3783 43.2179 18.3783H42.3271C42.2152 18.3783 42.1235 18.3582 42.0474 18.3268C41.9646 18.3604 41.8728 18.3783 41.7699 18.3783H41.0268C40.9149 18.3783 40.8097 18.3559 40.718 18.3157L40.6866 18.3268C40.6531 18.3403 40.5479 18.3806 40.4091 18.3806C40.286 18.3806 40.1719 18.3515 40.0757 18.2978C39.9347 18.3604 39.7802 18.3918 39.6191 18.3918L39.6146 18.394Z" fill="black"/>
<path d="M44.6838 16.239H44.6905C44.7107 16.098 44.7801 15.9704 44.8897 15.8742C45.0039 15.7734 45.1516 15.7197 45.3149 15.7197C45.4806 15.7197 45.6328 15.7779 45.7558 15.8876C45.8543 15.9771 45.9662 16.1338 45.9662 16.3934C45.9662 16.8746 45.6551 17.1991 45.1538 17.2394L44.6816 17.2752V16.2412L44.6838 16.239Z" fill="black"/>
<path d="M46.161 18.414C46.0222 18.4095 45.541 18.3782 45.2344 18.1007L45.0509 17.9351L45.0912 17.6866C45.1337 17.5009 45.221 17.3554 45.3441 17.2547C45.2904 17.1853 45.2456 17.1048 45.212 17.0152C45.174 16.9011 45.1561 16.7959 45.1561 16.6728C45.1561 16.5587 45.1718 16.3886 45.2501 16.2319C45.306 16.1223 45.3821 16.0238 45.4784 15.941C45.7716 15.7015 46.1408 15.6836 46.2483 15.6836C46.3758 15.6836 46.8011 15.706 47.1345 15.9768L47.3404 16.1446L47.2934 16.4132C47.2621 16.5654 47.1927 16.6952 47.0987 16.7914C47.1614 16.8653 47.2106 16.9503 47.2464 17.0421C47.2889 17.1585 47.3091 17.2793 47.3091 17.4091C47.3091 17.718 47.1882 17.9865 46.9689 18.1634C46.7675 18.329 46.5012 18.4118 46.1744 18.4118H46.1632L46.161 18.414Z" fill="black"/>
<path d="M35.9197 16.1584C35.7831 16.1584 35.6891 16.2569 35.6556 16.4113C35.6131 16.6105 35.4855 17.2528 35.4743 17.2841C35.4653 17.2662 35.2662 16.512 35.2505 16.4382C35.2281 16.3531 35.1811 16.2658 34.9909 16.2658C34.7895 16.2658 34.7425 16.3643 34.7223 16.4382C34.7066 16.512 34.5164 17.2483 34.5007 17.2841C34.4896 17.2461 34.3351 16.512 34.3172 16.418C34.2859 16.2636 34.1852 16.1584 34.0509 16.1584C33.9032 16.1584 33.8069 16.2278 33.7599 16.2994L34.1695 17.7653C34.212 17.9086 34.3016 17.9444 34.4582 17.9444C34.5903 17.9444 34.6932 17.9198 34.7357 17.7653C34.738 17.7586 34.973 16.8858 34.9797 16.8679C34.9864 16.8858 35.2259 17.7631 35.2259 17.7631C35.2684 17.9063 35.3602 17.9421 35.5101 17.9421C35.6802 17.9421 35.7652 17.8974 35.7988 17.7631L36.1949 16.2972C36.1457 16.2076 36.0495 16.1562 35.9197 16.1562V16.1584ZM37.0566 17.0022H36.7746V16.5277H37.0499C37.258 16.5277 37.3699 16.606 37.3699 16.7604C37.3699 16.9238 37.2446 17.0022 37.0544 17.0022H37.0566ZM37.4348 17.2752C37.6788 17.2036 37.831 16.9999 37.831 16.7537C37.831 16.512 37.6855 16.1584 37.117 16.1584H36.5732C36.4926 16.1584 36.421 16.1808 36.3807 16.2233C36.3404 16.2681 36.3203 16.3375 36.3203 16.4292V17.7295C36.3203 17.8011 36.3359 17.8571 36.3695 17.8929C36.4008 17.9287 36.4523 17.9444 36.5195 17.9444H36.5844C36.6537 17.9444 36.703 17.9265 36.7343 17.8929C36.7656 17.8571 36.7836 17.8011 36.7836 17.7295V17.3625H36.9559C36.9559 17.3625 37.211 17.6915 37.2938 17.7967C37.3766 17.9018 37.4527 17.9444 37.5893 17.9444C37.7414 17.9444 37.8377 17.875 37.8712 17.8123L37.4348 17.2752ZM38.3233 16.1584H38.2607C38.1264 16.1584 38.066 16.2233 38.066 16.371V17.7295C38.066 17.8772 38.1241 17.9444 38.2562 17.9444H38.3233C38.4599 17.9444 38.5203 17.8772 38.5203 17.7295V16.371C38.5203 16.2233 38.4599 16.1584 38.3233 16.1584ZM40.3823 17.0089H39.6706C39.6594 17.0312 39.6415 17.0693 39.6415 17.1387C39.6415 17.2416 39.6975 17.349 39.8318 17.349H39.984C39.9414 17.4811 39.8183 17.5773 39.6505 17.5773C39.3909 17.5773 39.2185 17.3737 39.2185 17.0827C39.2185 16.803 39.4021 16.5165 39.7467 16.5165C39.937 16.5165 40.0757 16.5881 40.1764 16.7246C40.342 16.6911 40.4159 16.6194 40.4159 16.5143C40.4159 16.3397 40.2078 16.1338 39.7109 16.1338C39.0261 16.1338 38.7441 16.6553 38.7441 17.085C38.7441 17.5729 39.0485 17.9623 39.6147 17.9623C39.8474 17.9623 40.0601 17.8504 40.1787 17.6579V17.7586C40.1787 17.866 40.2682 17.9488 40.407 17.9488C40.4696 17.9488 40.5211 17.9265 40.5368 17.922V17.1476C40.5368 17.0268 40.4629 17.0111 40.3846 17.0111L40.3823 17.0089ZM41.7677 17.5527H41.2306V16.3733C41.2306 16.2255 41.1701 16.1606 41.0336 16.1606H40.9709C40.8344 16.1606 40.774 16.2255 40.774 16.3733V17.6825C40.774 17.7743 40.7941 17.8369 40.8344 17.8817C40.8747 17.9242 40.9441 17.9466 41.0224 17.9466H41.7654C41.9109 17.9466 41.9758 17.8839 41.9758 17.7474V17.7385C41.9758 17.6109 41.9109 17.5549 41.7654 17.5549L41.7677 17.5527ZM43.2157 17.5594H42.5353V17.2349H42.9874C43.0658 17.2349 43.1239 17.2192 43.153 17.1901C43.1844 17.1588 43.2 17.1141 43.2 17.0559V17.0447C43.2 16.9887 43.1866 16.9484 43.1553 16.9193C43.1239 16.8903 43.0658 16.8746 42.9874 16.8746H42.5353V16.5501H43.0725C43.1508 16.5501 43.2067 16.5344 43.2381 16.5053C43.2694 16.4762 43.2851 16.4292 43.2851 16.3665V16.3486C43.2851 16.2882 43.2672 16.2412 43.2358 16.2099C43.2023 16.1785 43.1463 16.1606 43.0702 16.1606H42.3227C42.2422 16.1606 42.1817 16.183 42.1414 16.2255C42.1012 16.2703 42.0788 16.3375 42.0788 16.4292V17.6848C42.0788 17.7765 42.1012 17.8437 42.1414 17.8862C42.1817 17.9287 42.2422 17.9488 42.3227 17.9488H43.2135C43.2896 17.9488 43.3455 17.9332 43.3768 17.8996C43.4082 17.866 43.4261 17.8146 43.4261 17.7497C43.4261 17.687 43.4127 17.6467 43.3768 17.6109C43.3455 17.5773 43.2896 17.5617 43.2135 17.5617L43.2157 17.5594ZM44.7958 16.1606C44.6861 16.1606 44.6033 16.2166 44.5406 16.3375C44.4936 16.4314 44.2609 16.8947 44.2497 16.9171C44.2385 16.8947 44.008 16.4203 43.9654 16.3307C43.9162 16.2255 43.8267 16.1606 43.6946 16.1606C43.5313 16.1606 43.4306 16.2367 43.397 16.2905L43.9945 17.3043V17.734C43.9945 17.8817 44.055 17.9488 44.1915 17.9488H44.2519C44.3884 17.9488 44.4489 17.8817 44.4489 17.734V17.3065L45.0442 16.3039C45.0061 16.2255 44.9345 16.1606 44.798 16.1606H44.7958Z" fill="#FEFEFE"/>
<path d="M45.1225 16.6417C45.1695 16.6373 45.2076 16.6261 45.2344 16.6082C45.2591 16.5925 45.2747 16.5724 45.2747 16.5522C45.2747 16.5298 45.2658 16.5142 45.2501 16.5075C45.2344 16.4985 45.2143 16.4896 45.1942 16.4761C45.174 16.4605 45.1561 16.4426 45.1427 16.4224C45.1293 16.4023 45.1225 16.3732 45.1225 16.3351C45.1225 16.2859 45.1404 16.2456 45.1785 16.212C45.2143 16.1807 45.2613 16.165 45.3173 16.165C45.3754 16.165 45.4247 16.1852 45.4672 16.221C45.5097 16.259 45.5299 16.3195 45.5299 16.4C45.5299 16.6507 45.3933 16.7872 45.1203 16.8096V16.644L45.1225 16.6417Z" fill="#FEFEFE"/>
<path d="M46.3512 17.2907C46.4609 17.3355 46.443 17.4429 46.443 17.4519C46.443 17.4541 46.4363 17.6018 46.1901 17.6018C46.1162 17.6018 46.0312 17.5884 45.9327 17.5638C45.926 17.5615 45.5925 17.4564 45.5209 17.7652L45.5187 17.7742L45.5276 17.7809C45.7402 17.9733 46.1543 17.9823 46.17 17.9823C46.3915 17.9823 46.5661 17.9308 46.6892 17.8323C46.8033 17.7383 46.8682 17.5973 46.8682 17.4161C46.8682 17.3355 46.857 17.2639 46.8347 17.2035C46.8123 17.143 46.7765 17.0916 46.7317 17.049C46.6847 17.0065 46.6265 16.9685 46.5527 16.9394C46.481 16.9103 46.396 16.8834 46.2953 16.861C46.2438 16.8498 46.2058 16.8364 46.1677 16.8252C46.1297 16.814 46.0983 16.7984 46.0737 16.7827C46.0491 16.767 46.0312 16.7491 46.0178 16.729C46.0066 16.7088 45.9999 16.6753 45.9999 16.6462C45.9999 16.6372 45.9999 16.6283 46.0021 16.6171C46.02 16.5388 46.0849 16.4985 46.208 16.4985C46.34 16.4985 46.481 16.5432 46.4833 16.5455C46.4855 16.5455 46.537 16.5634 46.6019 16.5634C46.7407 16.5634 46.8302 16.485 46.8615 16.3396L46.8637 16.3284L46.8548 16.3217C46.622 16.1314 46.2886 16.127 46.2505 16.127H46.246C46.2147 16.127 45.9417 16.1314 45.7604 16.2769C45.7089 16.3194 45.6686 16.3709 45.6395 16.4291C45.6082 16.4918 45.5903 16.5813 45.5903 16.6753C45.5903 16.7514 45.6015 16.8118 45.6216 16.8677C45.6418 16.9259 45.6731 16.9774 45.7156 17.0199C45.7581 17.0625 45.8096 17.1005 45.8723 17.1296C45.935 17.1587 46.0066 17.1855 46.0894 17.2079L46.3512 17.2863V17.2907Z" fill="#FEFEFE"/>
<path d="M22.9435 35.7525C28.7973 35.7525 33.5429 31.007 33.5429 25.1531C33.5429 19.2992 28.7973 14.5537 22.9435 14.5537C17.0896 14.5537 12.3441 19.2992 12.3441 25.1531C12.3441 31.007 17.0896 35.7525 22.9435 35.7525Z" fill="white"/>
<path fill-rule="evenodd" clip-rule="evenodd" d="M22.3571 25.1529V34.8571C17.2588 34.8571 13.1229 30.513 13.1229 25.1529C13.1229 19.7928 17.2565 15.4487 22.3571 15.4487V25.1529Z" fill="white"/>
<path d="M35.3176 8.53542C35.425 8.20866 35.9196 8.052 37.0744 8.19076C35.9017 8.02738 35.613 7.82372 35.5548 7.54172C35.4451 7.04711 38.7037 5.50062 40.4539 4.4756C38.6567 5.2701 35.3623 6.84345 35.0826 6.59503C34.8879 6.4227 34.8767 5.93257 35.5212 4.50693C34.7782 5.77814 34.0262 6.18994 33.8584 6.12728C33.4689 5.99523 32.3141 1.94212 31.8307 0.321777C32.5223 3.44609 32.896 6.10937 32.5693 6.37346C32.3566 6.54132 31.7188 6.50998 31.0116 6.0579C31.6785 6.50551 31.9202 7.00235 31.8643 7.17245C31.7143 7.63125 28.1245 7.82819 26.8466 7.82596C28.505 7.99829 31.3048 7.74986 31.3629 8.45709C31.4122 9.04346 28.957 10.3057 28.1737 10.863C29.051 10.525 32.012 9.00093 32.4305 9.26726C32.8356 9.52687 31.9695 12.4923 31.3159 15.037C32.1731 12.5326 33.0348 9.56492 33.5249 9.65668C33.9188 9.73277 34.4873 11.5366 34.8386 13.2062C34.6439 12.2909 34.3619 9.8223 34.6842 9.5873C34.9483 9.34783 37.6205 11.7157 39.2812 13.1838C37.7033 11.4561 35.1878 8.94051 35.3243 8.53318L35.3176 8.53542Z" fill="black"/>
</g>
<defs>
<clipPath id="clip0_1233_3806">
<rect width="86.523" height="47.0174" fill="white" transform="translate(0.712891 0.321289)"/>
</clipPath>
</defs>
</svg>
