<svg width="101" height="43" viewBox="0 0 101 43" fill="none" xmlns="http://www.w3.org/2000/svg">
<g clip-path="url(#clip0_1233_4046)">
<path fill-rule="evenodd" clip-rule="evenodd" d="M19.3189 0.244141C8.70902 0.244141 0.10791 8.84525 0.10791 19.4552C0.10791 30.0651 8.70902 38.6662 19.3189 38.6662H38.5299V19.4552C38.5299 8.84525 29.9288 0.244141 19.3189 0.244141ZM19.3248 32.7895C26.726 32.7895 32.7272 26.8214 32.7272 19.461C32.7272 12.0986 26.726 6.13249 19.3248 6.13249C11.9235 6.13249 5.92236 12.1006 5.92236 19.461C5.92236 26.8234 11.9235 32.7895 19.3248 32.7895Z" fill="black"/>
<path fill-rule="evenodd" clip-rule="evenodd" d="M16.7251 12.3321C16.7251 12.0385 16.9643 11.7993 17.2579 11.7993H21.4991C21.7928 11.7993 22.032 12.0385 22.032 12.3321V16.8359H26.563C26.8566 16.8359 27.0958 17.0751 27.0958 17.3687V21.5867C27.0958 21.8822 26.8566 22.1195 26.563 22.1195H22.032V26.6621C22.032 26.9558 21.7928 27.195 21.4991 27.195H17.2579C16.9643 27.195 16.7251 26.9558 16.7251 26.6621V22.1195H12.1941C11.9004 22.1195 11.6613 21.8803 11.6613 21.5867V17.3687C11.6613 17.0751 11.9004 16.8359 12.1941 16.8359H16.7251V12.3321Z" fill="black"/>
<path d="M52.2379 20.3731C51.3375 21.2618 50.2388 21.7052 48.9417 21.7052C47.6446 21.7052 46.5459 21.2618 45.6455 20.3731C44.7569 19.4727 44.3135 18.374 44.3135 17.077C44.3135 15.7799 44.7569 14.687 45.6455 13.7983C46.5459 12.8979 47.6446 12.4487 48.9417 12.4487C50.2388 12.4487 51.3375 12.8979 52.2379 13.7983C53.1382 14.687 53.5874 15.7799 53.5874 17.077C53.5874 18.374 53.1382 19.4727 52.2379 20.3731ZM47.2421 18.8135C47.6971 19.2686 48.265 19.498 48.9417 19.498C49.6204 19.498 50.1863 19.2705 50.6413 18.8135C51.0963 18.3585 51.3239 17.779 51.3239 17.0789C51.3239 16.3769 51.0963 15.7993 50.6413 15.3443C50.1863 14.8892 49.6184 14.6617 48.9417 14.6617C48.263 14.6617 47.6971 14.8892 47.2421 15.3443C46.7987 15.7993 46.5751 16.3788 46.5751 17.0789C46.5751 17.7809 46.7968 18.3585 47.2421 18.8135ZM57.0761 15.1848C57.0761 15.4182 57.2278 15.6107 57.5311 15.7624C57.8462 15.9024 58.2273 16.0307 58.6707 16.1474C59.1141 16.2524 59.5594 16.3924 60.0028 16.5675C60.4461 16.7308 60.8215 17.0108 61.1248 17.4095C61.4398 17.8062 61.5974 18.304 61.5974 18.8991C61.5974 19.7994 61.259 20.4937 60.5803 20.9857C59.9133 21.464 59.0791 21.7052 58.0737 21.7052C56.2749 21.7052 55.0478 21.009 54.3925 19.6186L56.3566 18.514C56.6133 19.2744 57.1869 19.6536 58.0737 19.6536C58.8807 19.6536 59.2833 19.4027 59.2833 18.8991C59.2833 18.6657 59.1257 18.479 58.8107 18.339C58.5073 18.1873 58.132 18.0532 57.6887 17.9365C57.2453 17.8198 56.8 17.674 56.3566 17.4989C55.9132 17.3239 55.5321 17.0497 55.217 16.6744C54.9137 16.2894 54.762 15.8091 54.762 15.2373C54.762 14.372 55.077 13.6952 55.709 13.2032C56.3507 12.7015 57.1461 12.4487 58.0931 12.4487C58.8068 12.4487 59.4544 12.6121 60.0397 12.9388C60.6231 13.2538 61.0859 13.7108 61.4243 14.3059L59.4952 15.3579C59.2152 14.7628 58.7465 14.4634 58.0931 14.4634C57.8014 14.4634 57.5564 14.5275 57.3561 14.6559C57.1694 14.7842 57.0761 14.9593 57.0761 15.1809V15.1848ZM70.4007 20.3731C69.5004 21.2618 68.4016 21.7052 67.1046 21.7052C65.8075 21.7052 64.7088 21.2618 63.8084 20.3731C62.9197 19.4727 62.4763 18.374 62.4763 17.077C62.4763 15.7799 62.9197 14.687 63.8084 13.7983C64.7088 12.8979 65.8075 12.4487 67.1046 12.4487C68.4016 12.4487 69.5004 12.8979 70.4007 13.7983C71.3011 14.687 71.7503 15.7799 71.7503 17.077C71.7503 18.374 71.2991 19.4727 70.4007 20.3731ZM65.405 18.8135C65.86 19.2686 66.4278 19.498 67.1046 19.498C67.7832 19.498 68.3491 19.2705 68.8042 18.8135C69.2592 18.3585 69.4887 17.779 69.4887 17.0789C69.4887 16.3769 69.2612 15.7993 68.8042 15.3443C68.3491 14.8892 67.7813 14.6617 67.1046 14.6617C66.4259 14.6617 65.86 14.8892 65.405 15.3443C64.9616 15.7993 64.7379 16.3788 64.7379 17.0789C64.7379 17.7809 64.9596 18.3585 65.405 18.8135ZM78.2142 12.4507C79.1729 12.4507 79.9605 12.7715 80.5809 13.4152C81.2129 14.0569 81.5279 14.9456 81.5279 16.0794V21.4602H79.2663V16.3594C79.2663 15.7741 79.1088 15.3307 78.7918 15.0273C78.4768 14.7123 78.0548 14.5548 77.5297 14.5548C76.9463 14.5548 76.4777 14.7356 76.1277 15.0973C75.7776 15.459 75.6026 16.0035 75.6026 16.7269V21.4602H73.341V12.6957H75.6026V13.6777C76.1529 12.859 77.0222 12.4507 78.2142 12.4507ZM51.4328 30.2441H53.6944V39.0085H51.4328V37.974C50.756 38.8277 49.8032 39.2535 48.5761 39.2535C47.4074 39.2535 46.402 38.8102 45.5619 37.9215C44.7316 37.0211 44.3174 35.9224 44.3174 34.6253C44.3174 33.3282 44.7316 32.2354 45.5619 31.3467C46.404 30.4463 47.4074 29.9971 48.5761 29.9971C49.8032 29.9971 50.756 30.423 51.4328 31.2767V30.2421V30.2441ZM47.2615 36.4144C47.7166 36.8694 48.2961 37.0989 48.9961 37.0989C49.6982 37.0989 50.2757 36.8714 50.7308 36.4144C51.1975 35.9477 51.4328 35.3507 51.4328 34.6273C51.4328 33.9019 51.1994 33.3127 50.7308 32.8576C50.2757 32.3909 49.6962 32.1556 48.9961 32.1556C48.2941 32.1556 47.7166 32.389 47.2615 32.8576C46.8065 33.3127 46.577 33.9039 46.577 34.6273C46.577 35.3526 46.8045 35.9477 47.2615 36.4144ZM60.8467 29.999C62.0271 29.999 63.0325 30.4482 63.8609 31.3486C64.7029 32.2373 65.123 33.3302 65.123 34.6273C65.123 35.9243 64.7029 37.023 63.8609 37.9234C63.0306 38.8121 62.0271 39.2555 60.8467 39.2555C59.6197 39.2555 58.6726 38.8296 58.0076 37.9759V42.5166H55.746V30.246H58.0076V31.2806C58.6746 30.4269 59.6197 30.001 60.8467 30.001V29.999ZM58.6901 36.4144C59.1452 36.8694 59.7247 37.0989 60.4248 37.0989C61.1268 37.0989 61.7043 36.8714 62.1594 36.4144C62.6261 35.9477 62.8614 35.3507 62.8614 34.6273C62.8614 33.9019 62.628 33.3127 62.1594 32.8576C61.7043 32.3909 61.1248 32.1556 60.4248 32.1556C59.7227 32.1556 59.1452 32.389 58.6901 32.8576C58.2351 33.3127 58.0056 33.9039 58.0056 34.6273C58.0056 35.3526 58.2332 35.9477 58.6901 36.4144ZM71.5422 32.4182H69.5626V36.0643C69.5626 36.3677 69.6384 36.5894 69.7901 36.7314C69.9418 36.8714 70.1635 36.953 70.4571 36.9764C70.7488 36.988 71.1124 36.9822 71.5422 36.9589V39.0105C69.9885 39.1855 68.8897 39.0396 68.248 38.5729C67.6179 38.1062 67.301 37.27 67.301 36.0663V32.4201H65.7764V30.246H67.301V28.4764L69.5626 27.7919V30.246H71.5422V32.4201V32.4182ZM74.7742 35.5548C75.0776 36.6536 75.9021 37.202 77.2458 37.202C78.1092 37.202 78.7646 36.9103 79.2099 36.3249L81.032 37.377C80.1686 38.6274 78.8949 39.2516 77.2108 39.2516C75.7621 39.2516 74.5992 38.8141 73.7221 37.937C72.8451 37.06 72.4076 35.9554 72.4076 34.6234C72.4076 33.303 72.8393 32.2042 73.7046 31.3272C74.5681 30.4385 75.6784 29.9951 77.0339 29.9951C78.3193 29.9951 79.3771 30.4385 80.2075 31.3272C81.0495 32.2159 81.4696 33.3146 81.4696 34.6234C81.4696 34.9151 81.4404 35.2243 81.3821 35.5529H74.7742V35.5548ZM74.7392 33.8027H79.2099C79.0816 33.2077 78.8132 32.7624 78.4029 32.4707C78.0062 32.179 77.5492 32.0331 77.0358 32.0331C76.4291 32.0331 75.9274 32.1906 75.5287 32.5057C75.132 32.809 74.8675 33.2427 74.7392 33.8027ZM91.1305 39.0085H88.5013L85.3102 35.0298V39.0085H83.0486V26.7379H85.3102V34.1003L88.3263 30.2441H91.0255L87.5018 34.5728L91.1305 39.0085ZM98.2867 30.2441H100.548V39.0085H98.2867V37.974C97.6081 38.8277 96.6552 39.2535 95.4301 39.2535C94.2613 39.2535 93.256 38.8102 92.414 37.9215C91.5836 37.0211 91.1694 35.9224 91.1694 34.6253C91.1694 33.3282 91.5836 32.2354 92.414 31.3467C93.254 30.4463 94.2613 29.9971 95.4301 29.9971C96.6571 29.9971 97.61 30.423 98.2867 31.2767V30.2421V30.2441ZM94.1155 36.4144C94.5705 36.8694 95.15 37.0989 95.8501 37.0989C96.5502 37.0989 97.1297 36.8714 97.5847 36.4144C98.0514 35.9477 98.2848 35.3507 98.2848 34.6273C98.2848 33.9019 98.0514 33.3127 97.5847 32.8576C97.1297 32.3909 96.5502 32.1556 95.8501 32.1556C95.15 32.1556 94.5705 32.389 94.1155 32.8576C93.6605 33.3127 93.431 33.9039 93.431 34.6273C93.431 35.3526 93.6585 35.9477 94.1155 36.4144Z" fill="black"/>
</g>
<defs>
<clipPath id="clip0_1233_4046">
<rect width="100.437" height="42.2705" fill="white" transform="translate(0.10791 0.244141)"/>
</clipPath>
</defs>
</svg>
