<svg width="70" height="28" viewBox="0 0 70 28" fill="none" xmlns="http://www.w3.org/2000/svg">
<g clip-path="url(#clip0_1233_3850)">
<path d="M66.5226 6.74694C64.9108 6.74335 63.6006 5.44029 63.6006 3.8357C63.6006 2.2347 64.918 0.931641 66.5298 0.931641C68.1451 0.931641 69.4518 2.24188 69.4482 3.84288C69.4482 5.44388 68.1379 6.74694 66.5226 6.74694Z" fill="#FEFEFE"/>
<path d="M68.942 11.3307C69.7533 12.2353 69.362 13.9763 68.0051 15.0855C49.0157 30.7186 21.4361 30.6827 2.48613 15.0066C1.1364 13.8902 0.748717 12.1492 1.55999 11.2482C3.6779 8.83947 5.79941 6.43079 7.91732 4.02211C8.73218 3.11392 10.1573 3.09956 11.1373 3.90724C25.0868 15.4481 45.4044 15.4696 59.3863 3.96468C60.3663 3.16418 61.7914 3.18213 62.6026 4.09032C64.7206 6.499 66.8277 8.91486 68.942 11.3307Z" fill="white"/>
<path d="M29.5452 19.0848C29.4591 19.8135 29.337 20.9263 28.795 21.1417C28.2852 21.3463 28.1165 20.4238 28.296 19.2392C28.4001 18.5607 28.6693 16.9418 29.2293 17.1069C29.6134 17.2217 29.678 17.9505 29.5452 19.0848ZM29.4088 15.7751C28.5221 15.6746 27.9263 16.3746 27.5996 16.9453C27.4022 17.2935 27.1258 17.9325 26.8601 19.3576C26.2678 22.4447 27.2406 23.7693 28.4145 23.8699C29.0319 23.9237 29.4519 23.615 29.879 22.9617C30.3385 22.2581 30.7154 21.2817 30.8519 19.7274C31.0529 17.3115 30.5108 15.9079 29.4088 15.7787V15.7751ZM38.2251 22.6709C38.0564 22.6565 37.9199 22.5129 37.9164 22.3263C37.9164 21.9099 37.9128 21.4935 37.9128 21.0735C37.9128 20.8868 38.0241 20.7253 38.164 20.7145C38.3005 20.7002 38.3794 20.6894 38.5517 20.7073C38.8748 20.7396 39.1476 21.0807 39.1261 21.6873C39.1081 22.1396 38.9969 22.7391 38.2215 22.6673L38.2251 22.6709ZM37.7082 18.672C37.6938 18.252 37.6758 17.8392 37.6615 17.4192C37.6543 17.2325 37.7584 17.0638 37.8984 17.053C38.0348 17.0351 38.1138 17.0207 38.2861 17.0351C38.6092 17.0566 38.8963 17.3869 38.8963 17.9935C38.8963 18.4458 38.8066 19.0489 38.0276 19.0058C37.8589 18.9951 37.7153 18.8586 37.7082 18.672ZM39.3056 19.7417C39.2374 19.7274 39.2194 19.652 39.2769 19.6053C39.704 19.2679 40.0379 18.5212 39.9122 17.4946C39.7615 16.2669 39.1404 15.6279 38.0958 15.7643C37.7189 15.811 37.342 15.8756 36.9615 15.89C36.6779 15.9043 36.4266 16.2166 36.4554 16.5936C36.5559 18.094 36.5379 19.6017 36.581 21.1058C36.5846 21.296 36.5846 21.6048 36.581 21.795C36.5702 22.2401 36.5989 22.6888 36.5487 23.134C36.5092 23.5109 36.6348 23.8878 37.1087 23.8878C37.6328 23.8878 38.1533 23.9309 38.681 23.9381C39.4133 23.9596 40.8455 23.7981 40.5979 21.655C40.465 20.5027 39.8656 19.8673 39.3127 19.7381L39.3056 19.7417ZM34.6821 19.555C34.6318 19.5191 34.6282 19.415 34.6821 19.4007C35.4072 19.1566 35.3928 18.0366 35.3928 18.0402C35.5149 16.7623 35.5759 16.31 35.6333 15.7248C35.6656 15.3946 34.2477 15.3408 34.2944 16.4715C34.3159 16.9597 34.2118 18.0043 34.0251 18.3812C33.7703 18.8981 33.2749 18.8192 33.2749 18.8192C33.2749 18.8192 33.3826 17.8069 33.4041 16.913C33.4328 15.7607 32.478 15.4664 32.137 15.4413C31.9826 15.4305 31.8498 15.5777 31.839 15.7751C31.7959 17.0028 31.7529 18.2305 31.7134 19.4581C31.7062 19.6556 31.6882 19.975 31.6667 20.1689C31.5662 21.2207 31.4657 22.2724 31.3616 23.3242C31.3436 23.5181 31.48 23.6724 31.6667 23.6652C31.9395 23.6545 32.7436 23.7299 32.8872 22.7499C33.0487 21.6335 33.178 20.2407 33.178 20.2407C33.178 20.2407 33.9533 20.2084 34.0251 20.7576C34.079 21.1596 34.0287 22.0176 34.079 22.5201C34.1544 23.2632 34.2656 23.7478 34.8579 23.8447C35.1774 23.895 35.4323 23.9165 35.7123 23.9057C35.7518 23.0801 35.6225 22.233 35.6333 21.576C35.6477 20.6104 35.2133 19.914 34.6785 19.5515L34.6821 19.555ZM42.7912 20.0971C42.626 20.1114 42.5183 19.9894 42.4824 19.8027C42.4214 19.494 42.3999 19.1566 42.4035 18.6217C42.4071 18.2233 42.4824 17.7351 42.5004 17.3294C42.5076 17.1894 42.6655 17.0746 42.7804 17.3366C42.8953 17.5987 42.9706 17.7961 43.0065 17.9217C43.0568 18.1048 43.4158 18.9412 43.5055 19.7309C43.527 19.9176 43.3511 20.0468 42.7912 20.0971ZM43.0281 15.5669C42.8019 15.1864 41.6927 15.4449 41.6317 15.8756C41.2727 17.7135 41.0573 20.2299 41.3553 22.9868C41.4414 23.7693 41.5671 23.8016 41.8507 23.7334C42.0301 23.6904 42.2778 23.6616 42.4645 23.6365C42.644 23.6078 42.7876 23.4283 42.7876 23.2381C42.784 22.8683 42.7373 22.4806 42.7337 22.1109C42.7301 21.9207 42.8378 21.7483 43.0137 21.7268C43.1429 21.7089 43.3906 21.6766 43.5199 21.655C43.6922 21.6335 43.9399 21.7196 44.0009 21.8991C44.1193 22.2365 44.1409 22.6422 44.2629 22.9832C44.3275 23.1627 44.525 23.2811 44.7045 23.2488C45.0096 23.1842 45.128 23.1735 45.4296 23.1052C45.6055 23.0694 45.6485 22.9006 45.6234 22.7104C45.4009 21.0699 44.7547 18.4746 43.0281 15.5669ZM63.5288 12.6952C63.2739 13.2587 62.5093 12.6485 61.838 11.55C61.4539 10.9218 60.5565 9.407 61.1022 9.10547C61.4791 8.89726 62.0283 9.43572 62.7032 10.4516C63.1339 11.1085 63.8016 12.0957 63.5288 12.6952ZM65.1226 12.3505C64.997 11.428 64.6236 10.3475 63.6652 8.98701C62.1683 6.88345 60.7827 6.17269 59.8386 6.93011C59.0812 7.54036 59.0955 8.57419 59.2355 9.28495C59.3181 9.7193 59.5406 10.448 60.3124 11.8085C61.9637 14.7592 63.6257 15.0643 64.6093 14.2279C65.1298 13.79 65.2411 13.2121 65.1262 12.3505H65.1226ZM59.8745 12.6916C59.774 12.5228 59.6124 12.2429 59.5119 12.0741C58.9771 11.1444 58.4386 10.2219 57.9037 9.29213C57.8032 9.11982 57.6238 9.06598 57.5053 9.16649C57.3258 9.31367 57.1463 9.45725 56.9668 9.60443C56.8412 9.70135 56.8268 9.92032 56.9202 10.0926C57.3079 10.7783 57.6955 11.4675 58.0832 12.1531C58.1802 12.3254 58.1478 12.5408 58.0114 12.6305C57.7853 12.7741 57.5627 12.9177 57.3402 13.0613C57.2002 13.1475 57.0135 13.0721 56.9238 12.8962C56.6402 12.3326 56.134 11.41 55.7392 10.6203C55.4843 10.1142 54.612 10.7352 54.7017 10.9111C55.3694 12.25 56.2381 13.8403 56.9094 15.172C56.9991 15.3479 57.1391 15.6423 57.2253 15.8218C57.5699 16.5684 57.9181 17.3151 58.2627 18.0653C58.3453 18.2448 58.5463 18.331 58.7114 18.2484C58.934 18.1443 59.1565 18.0294 59.3791 17.9181C59.5406 17.8356 59.6053 17.6202 59.5191 17.4371C59.1314 16.6079 58.7437 15.7823 58.3489 14.9531C58.2627 14.7736 58.313 14.551 58.4566 14.4613C58.6181 14.3572 58.7832 14.2495 58.9448 14.1418C59.0883 14.0485 59.2894 14.1095 59.3899 14.2782C59.5837 14.5977 59.7704 14.91 59.9606 15.2295C60.0611 15.3982 60.1868 15.6997 60.3052 15.8613C60.797 16.5325 61.3247 16.2023 61.497 16.0479C61.637 15.9259 61.6657 15.6854 61.5616 15.5166C60.9981 14.5726 60.4345 13.6285 59.8709 12.6844L59.8745 12.6916ZM49.8377 13.729C49.7803 13.5531 49.6116 13.4382 49.4752 13.4921C48.8936 13.7218 48.7895 13.9659 48.9044 14.2962C49.3746 15.6495 50.0351 17.7423 50.5054 19.0956C50.5664 19.2679 50.491 19.4689 50.3367 19.5407C50.1859 19.6125 50.0316 19.6807 49.8772 19.7489C49.7228 19.8207 49.5505 19.7309 49.4967 19.5586C49.3639 19.1279 48.2977 15.4879 47.9854 14.4182C47.9352 14.2423 47.7844 14.1454 47.648 14.2064C47.4649 14.2854 47.3788 14.3105 47.1957 14.3859C47.0593 14.4397 46.9911 14.63 47.0449 14.8059C47.2711 15.531 48.2295 19.3181 48.3516 19.7848C48.3983 19.9607 48.3049 20.133 48.1398 20.1617C47.9818 20.1904 47.8275 20.2155 47.6695 20.2407C47.5044 20.2694 47.3357 20.1438 47.289 19.9643C47.2567 19.8386 47.2208 19.713 47.1921 19.5874C47.1526 19.4402 46.4096 16.4787 46.047 14.9531C45.9716 14.6444 45.6414 14.4469 44.9557 14.6587C44.8193 14.7018 44.7439 14.8885 44.787 15.0643C45.0024 15.9187 46.0326 20.6571 46.3019 21.8453C46.4526 22.5094 47.0234 22.3263 47.1706 22.2796C47.7557 22.0894 48.3372 21.8883 48.9152 21.673C49.0767 21.6119 49.3495 21.5258 49.5182 21.4791C50.369 21.2494 51.2126 20.9981 52.0526 20.7181C52.2177 20.6607 52.3002 20.4776 52.2356 20.3053C51.7726 19.0992 50.0998 14.49 49.8377 13.729ZM55.9258 15.3156C55.8361 15.1397 55.6961 14.8454 55.6099 14.6659C55.0751 13.5208 54.5366 12.3721 54.0018 11.227C53.9156 11.0475 53.7289 10.9577 53.5854 11.0295C53.4166 11.1121 53.2479 11.1947 53.0792 11.2736C52.9356 11.3418 52.8351 11.5536 52.8531 11.7475C52.9607 12.8423 53.0469 13.9444 53.1115 15.0536C53.1223 15.251 53.1546 15.5705 53.1833 15.7643C53.2156 15.9725 53.2407 16.1807 53.2695 16.3889C53.2982 16.5864 53.2587 16.5971 53.1869 16.4069C52.7849 15.3587 52.2177 13.9156 51.8013 12.871C51.3741 11.7941 50.9182 12.3685 50.6633 12.4582C50.6454 12.4654 50.631 12.469 50.6167 12.4726C50.4659 12.5264 50.4013 12.7167 50.4731 12.9069C50.771 13.6823 51.0726 14.4577 51.3705 15.2331C51.4423 15.4197 51.5536 15.7248 51.6254 15.9079C52.1279 17.2684 52.6269 18.6361 53.133 19.9966C53.1977 20.1868 53.3987 20.273 53.571 20.194C53.7612 20.1079 53.9551 20.0181 54.1453 19.932C54.3176 19.8494 54.4576 19.6197 54.4541 19.4222C54.4361 18.471 54.4038 17.5233 54.3535 16.5792C54.3428 16.3818 54.3176 16.0623 54.2997 15.8648C54.2746 15.5777 54.2459 15.2905 54.2171 15.0069C54.1956 14.8095 54.2459 14.7951 54.3284 14.9782C54.7987 16.0013 55.391 17.4515 55.9079 18.4494C56.4068 19.4115 56.992 18.7438 57.2073 18.6253C57.3761 18.532 57.4407 18.313 57.3509 18.1335C56.8735 17.193 56.3997 16.2561 55.9258 15.3156ZM17.2541 15.3264C16.9669 16.0048 16.5434 17.0387 15.9331 17.0889C15.3588 17.1392 15.4413 16.2023 15.9475 15.111C16.2382 14.4864 16.9526 13.0075 17.4731 13.3305C17.8321 13.5531 17.6992 14.2746 17.2577 15.3264H17.2541ZM18.0187 12.0993C17.1464 11.7475 16.3495 12.2464 15.8649 12.7023C15.5705 12.9787 15.1182 13.5136 14.4577 14.8095C13.0147 17.6094 13.6465 19.1638 14.8095 19.6017C15.4234 19.835 15.9295 19.6556 16.5434 19.153C17.2003 18.611 17.8464 17.7817 18.41 16.3207C19.2715 14.0556 19.1028 12.5444 18.0223 12.0993H18.0187ZM22.391 13.2516C20.9012 12.8136 19.5766 14.9315 18.8623 16.773C17.9362 19.153 18.1515 21.2278 19.67 21.7448C20.2012 21.9242 21.0807 21.6299 21.6587 20.9837C22.3012 20.2694 22.6207 19.1853 22.6351 19.1422C22.6602 19.0561 22.5453 18.934 22.3802 18.8694C22.2079 18.794 22.0356 18.7186 21.8597 18.6433C21.6981 18.5715 21.5115 18.6648 21.4433 18.8515C21.3571 19.092 20.6069 20.1904 20.1474 19.9786C19.4546 19.6591 20.1474 17.5305 20.2156 17.3474C20.4812 16.6079 20.8546 15.8433 21.3176 15.2043C21.5258 14.9136 21.7951 14.8849 21.9674 14.9567C22.2976 15.0967 22.0571 16.0982 21.971 16.4105C21.9207 16.6007 22.0069 16.8089 22.1648 16.8735C22.2258 16.8987 22.2869 16.9202 22.3443 16.9418C22.5022 17.0028 22.7571 17.0853 22.9079 17.1212C23.0622 17.1571 23.2309 17.0387 23.2848 16.852C23.8268 15.0751 23.3063 13.5136 22.3874 13.248L22.391 13.2516ZM11.3311 7.77369C10.667 7.26754 9.79833 6.49217 9.53987 6.24807C9.42141 6.13679 9.23475 6.17269 9.12347 6.32346C8.29784 7.43626 4.85892 11.5034 4.2738 12.2105C4.15534 12.3577 4.1697 12.5875 4.30969 12.7203C4.52508 12.9249 4.72969 13.0003 4.94866 13.2013C5.08866 13.3305 5.29686 13.3054 5.40455 13.1475C6.13685 12.0885 8.73937 8.97624 8.99065 8.62804C9.10552 8.47368 9.29577 8.43778 9.42141 8.55265C9.60807 8.71778 9.83781 9.00495 10.0245 9.16649C10.1501 9.27418 10.1645 9.49315 10.0568 9.6511C9.01937 11.1516 8.10041 12.7167 7.06299 14.2136C6.9517 14.3715 6.99478 14.5833 7.15273 14.6838C7.35016 14.8095 7.66246 15.0392 7.8599 15.1613C8.02143 15.2582 8.23681 15.2043 8.33732 15.0428C8.9045 14.1274 10.7065 11.3131 11.6829 9.77315C12.2214 8.92598 11.7727 8.10394 11.3347 7.7701L11.3311 7.77369ZM13.449 12.889C13.2049 13.2516 12.8137 13.6931 12.207 13.248C12.0742 13.151 12.0347 12.9644 12.128 12.81C12.3398 12.4654 12.548 12.1208 12.7598 11.7726C12.8532 11.6182 13.029 11.5393 13.1475 11.6039C13.266 11.6613 13.3378 11.69 13.4706 11.7906C13.7219 11.9808 13.7757 12.4008 13.449 12.889ZM14.6229 13.3054C14.8418 12.8675 15.0859 12.2752 15.0357 11.6075C15.0034 11.209 14.8454 10.6598 14.1383 10.308C13.7721 10.1213 13.406 9.93468 13.0434 9.73366C12.9106 9.66187 12.7275 9.73007 12.6306 9.88802C11.9952 10.929 11.3563 11.9736 10.7209 13.0182C10.624 13.1726 10.466 13.4239 10.3655 13.5782C9.89166 14.2997 9.41782 15.0177 8.94398 15.732C8.84347 15.8828 8.88296 16.091 9.03013 16.1915C9.1809 16.292 9.41782 16.4643 9.55782 16.572C9.60449 16.6115 9.65474 16.6474 9.70141 16.6833C9.8414 16.7946 10.0352 16.7515 10.125 16.5936C10.4696 15.9941 10.8142 15.3982 11.1588 14.7987C11.2486 14.6408 11.4388 14.5905 11.5788 14.6838C11.6578 14.7413 11.7403 14.7915 11.8229 14.849C12.5839 15.3623 13.7578 15.0572 14.6193 13.309L14.6229 13.3054ZM27.9657 15.6172C28.3104 15.4341 28.3498 14.9243 28.3857 14.4792C28.4001 14.2926 28.3462 14.1274 28.1991 14.1023C27.8437 14.0449 26.8386 13.7972 26.4832 13.729C26.336 13.7039 26.0991 13.6392 25.9591 13.589C25.6396 13.4777 25.1442 13.3341 24.8248 13.2121C24.6848 13.1618 24.5268 13.2623 24.473 13.4454C24.3258 13.948 24.1822 14.4541 24.035 14.9567C23.9812 15.1361 24.035 15.3084 24.1535 15.3336C24.2684 15.3587 24.6632 15.4484 24.814 15.4951C24.8571 15.5059 24.9001 15.5238 24.9396 15.5382C25.0904 15.5849 25.173 15.7715 25.1263 15.9582C24.7099 17.5879 23.9632 20.4525 23.5432 22.0822C23.4966 22.2653 23.5791 22.4519 23.7227 22.5022C23.8699 22.5524 24.4837 22.696 24.5591 22.7247C24.7243 22.7965 24.893 22.6996 24.9325 22.5201C25.3345 20.6463 26.0201 17.6274 26.4186 15.7536C26.4581 15.5669 26.6124 15.4592 26.7596 15.5095C26.8135 15.5274 27.7324 15.7392 27.9622 15.6172H27.9657Z" fill="black"/>
<path d="M66.5872 3.7677C66.6877 3.7677 66.7739 3.75334 66.8564 3.67436C66.9103 3.61334 66.9354 3.54155 66.9318 3.46257C66.9318 3.3836 66.9031 3.31539 66.8421 3.26155C66.7631 3.19694 66.6697 3.19335 66.6159 3.19335H66.1457V3.7677H66.5908H66.5872ZM66.6159 2.98155C66.8241 2.98155 66.9462 3.04617 67.0072 3.08924C67.14 3.18258 67.2046 3.33334 67.2046 3.46616C67.2046 3.56667 67.1651 3.70667 67.0754 3.79641C67.0179 3.85744 66.9174 3.90051 66.878 3.91128L67.2333 4.70101H66.9533L66.6231 3.96872L66.1492 3.96513L66.1457 4.70101H65.8944V2.98155H66.6195H66.6159ZM66.5333 2.56874C65.8298 2.56874 65.2554 3.1395 65.2554 3.8359C65.2554 4.52871 65.8298 5.10665 66.5333 5.10665C67.2297 5.10665 67.8149 4.53589 67.8113 3.83949C67.8149 3.14309 67.2333 2.57233 66.5333 2.56874ZM66.5333 2.35695C67.359 2.35695 68.0195 3.01745 68.0195 3.83949C68.0159 4.66512 67.3554 5.32203 66.5298 5.31844C65.7005 5.31844 65.0364 4.65794 65.0364 3.8359C65.04 3.01027 65.7005 2.35336 66.5333 2.35695Z" fill="black"/>
<path d="M9.53627 3.94697C9.08038 3.94697 8.67116 4.11927 8.38757 4.43875L2.03382 11.6576C1.78255 11.9376 1.75024 12.3109 1.77178 12.573C1.81844 13.2586 2.24203 13.9909 2.88458 14.5258C11.9378 22.0103 23.4212 26.1456 35.2241 26.1635C47.0342 26.1779 58.5319 22.0677 67.6031 14.6083C68.2528 14.0699 68.6728 13.3412 68.7267 12.6555C68.7446 12.3935 68.7159 12.0202 68.4718 11.7438L62.1288 4.49978C61.8452 4.18388 61.4396 4.00799 60.9909 4.00799C60.5601 4.00799 60.1293 4.16235 59.7811 4.44952C52.9069 10.1033 44.1911 13.212 35.2456 13.2012C26.2965 13.1904 17.5951 10.0602 10.7352 4.3885C10.3906 4.10132 9.95986 3.94338 9.53268 3.94338L9.53627 3.94697ZM35.2241 27.4128C23.1304 27.3984 11.3634 23.159 2.08408 15.4878C1.18307 14.7412 0.594359 13.6858 0.518976 12.6699C0.46872 11.9556 0.673332 11.3022 1.09333 10.832L7.4399 3.61312C7.97476 3.02442 8.71424 2.69775 9.53627 2.69775C10.2578 2.69775 10.965 2.9598 11.5321 3.42646C18.1731 8.91868 26.5873 11.9448 35.242 11.9556C43.9004 11.9627 52.3325 8.95817 58.9806 3.48749C59.5514 3.01724 60.2622 2.76237 60.9873 2.76237C61.7986 2.76237 62.5416 3.08903 63.0657 3.67774L69.4087 10.9217C69.8287 11.3848 70.0225 12.0381 69.9687 12.7525C69.8969 13.7684 69.3082 14.8237 68.4036 15.5668C59.1027 23.2164 47.3213 27.4271 35.2205 27.4128H35.2241Z" fill="black"/>
</g>
<defs>
<clipPath id="clip0_1233_3850">
<rect width="69.4712" height="26.4788" fill="white" transform="translate(0.511841 0.931152)"/>
</clipPath>
</defs>
</svg>
