<svg width="115" height="48" viewBox="0 0 115 48" fill="none" xmlns="http://www.w3.org/2000/svg">
<g clip-path="url(#clip0_1233_3522)">
<path fill-rule="evenodd" clip-rule="evenodd" d="M13.4735 26.6144C14.5356 26.2638 16.4949 25.0006 17.3507 24.4025C20.7536 22.0204 24.3731 17.1533 21.7951 12.4666C18.1602 5.86185 4.1774 13.5957 1.27463 17.1636C0.155798 18.5351 0.284696 20.5562 2.39862 20.7882C4.86314 21.0563 5.27045 18.6124 9.69938 15.988C11.6019 14.8589 17.2476 12.1881 18.0983 15.8798C18.7892 18.8908 14.0716 21.9998 12.6176 22.4639C12.0917 21.4585 12.3289 19.7983 11.8391 18.7671C11.3802 17.8029 10.1995 17.3647 8.8435 17.8751C6.31195 18.8289 7.83294 21.9431 8.04949 24.4076C6.6677 24.7479 4.92501 25.2016 5.28592 26.9598C5.62106 28.5994 7.18845 28.5633 8.96208 28.4499C9.33331 28.9809 10.4367 32.7189 10.7924 33.6934C11.4318 35.431 11.9216 37.55 14.4016 36.9932C17.7426 36.2456 13.9839 31.0794 13.4735 26.6144Z" fill="black"/>
<path fill-rule="evenodd" clip-rule="evenodd" d="M63.295 47.6041C71.0598 47.2277 80.031 44.7941 86.5069 40.9581C87.8577 40.1589 91.9206 37.7975 91.539 36.1837C90.1882 35.7919 85.4035 38.0553 83.9908 38.5915C81.5623 39.5144 79.1648 40.3239 76.5096 41.02C70.8432 42.5203 64.7232 43.237 58.5051 42.9895C52.6687 42.7575 46.7239 41.649 41.6041 39.9269C39.088 39.0814 36.8658 38.2048 34.4013 37.2149C33.7981 36.9726 31.1634 35.8228 30.5344 36.2198C28.24 37.6738 44.4141 48.5218 63.295 47.6041Z" fill="black"/>
<path fill-rule="evenodd" clip-rule="evenodd" d="M73.8439 27.625C72.787 25.3461 74.2512 22.2423 74.3131 19.8035C74.3492 18.4114 73.4624 17.2771 71.962 17.7102C70.8793 18.0248 70.7555 19.5767 70.5854 20.9121C70.2709 23.3611 69.5955 27.0063 70.3843 29.2749C70.7504 30.3164 71.6166 31.2187 72.8488 31.4043C74.4575 31.6467 75.3443 30.832 76.3394 30.3061C79.3659 33.2553 80.5002 31.0795 81.9799 30.1514C82.7069 30.9455 83.2277 32.7655 84.9807 32.1468C86.4707 31.6209 86.2026 30.0483 86.1614 28.5016C86.0583 24.5315 87.5792 21.438 87.5586 20.1129C87.538 18.6589 85.6922 17.8082 84.6404 18.8188C82.7636 20.6233 83.0214 29.3265 79.4896 27.8004C78.9998 25.9752 79.7577 24.5264 80.1393 22.7218C80.825 19.4993 78.4378 19.5715 77.783 20.0252C75.5815 21.5566 77.2778 28.4139 73.8388 27.6147L73.8439 27.625Z" fill="black"/>
<path fill-rule="evenodd" clip-rule="evenodd" d="M25.8838 22.5156C26.6881 22.1908 27.941 22.3867 28.2091 23.1086C28.3122 23.3921 28.4721 25.3153 28.5597 25.8412C28.735 26.8982 29.0341 27.4911 28.6474 28.5223C28.3896 29.208 27.9668 29.9195 27.1883 30.1206C24.1566 30.8991 22.945 23.7118 25.889 22.5156H25.8838ZM28.4308 19.2932C25.4971 18.3445 23.1821 19.8346 21.8931 21.3195C18.3253 25.4339 20.6145 31.8891 24.2545 33.6318C25.4301 34.1938 26.6881 34.3484 27.8585 33.6885C28.9464 33.0749 29.6167 31.9767 30.3127 31.5591C31.545 33.4874 34.3189 33.9721 34.4632 32.0128C34.5767 30.4506 33.0969 28.1923 32.6329 26.7693C31.1583 22.2166 33.0763 18.8498 30.6633 18.2208C29.2455 17.8495 28.9464 18.6075 28.4308 19.2932Z" fill="black"/>
<path fill-rule="evenodd" clip-rule="evenodd" d="M107.1 24.9336C108.043 24.6242 109.007 25.0522 109.43 25.609C109.93 26.2638 109.451 27.0785 109.198 27.9653C108.636 29.9503 108.739 31.4816 106.899 32.0642C103.217 33.2346 103.475 26.1298 107.1 24.9284V24.9336ZM108.203 34.8896C108.595 35.364 108.677 36.2817 109.708 36.7561C110.858 37.2923 111.781 36.8644 112.121 36.091C112.663 34.8742 112.188 31.7342 112.549 29.9709C112.962 27.955 113.694 26.6866 114.302 25.0006C114.952 23.1909 113.581 21.4379 111.405 22.83C110.487 22.2525 109.92 21.6493 108.363 21.4791C104.754 21.0873 101.676 23.4693 100.696 26.9392C99.938 29.6203 100.583 32.3426 101.949 33.9977C103.851 36.2972 106.177 35.6527 108.203 34.8845V34.8896Z" fill="black"/>
<path fill-rule="evenodd" clip-rule="evenodd" d="M94.0241 23.3249C94.1788 22.1597 94.6273 20.5768 93.9055 19.6333C93.2713 18.8032 91.7194 18.4113 90.9099 19.4425C90.4201 20.0664 90.3376 22.1132 90.1726 23.1238C89.389 27.9549 86.7182 32.4508 89.3013 32.8427C91.9463 33.2448 91.8586 29.0479 92.962 27.7487C93.3487 28.388 93.524 29.3934 93.8333 30.0585C97.1331 37.0912 99.4791 33.5697 99.4327 31.8528C99.3914 30.3524 96.3082 28.2178 96.2205 25.9338C97.2723 24.9748 103.202 22.9794 100.948 20.814C99.0511 18.9888 95.4678 22.7165 94.0241 23.3249Z" fill="black"/>
<path fill-rule="evenodd" clip-rule="evenodd" d="M63.7538 29.0635C64.2282 31.4456 68.0539 33.0387 67.3372 27.7385C66.5741 22.0824 67.5073 23.1136 67.8631 19.2054C67.9456 18.2825 67.8064 17.6638 67.2495 17.3132C66.7185 16.9729 66.0018 16.8647 65.4604 17.1637C64.6303 17.6226 64.3107 19.2673 64.089 20.5511C63.7384 22.6187 63.857 27.5013 61.2429 27.094C59.7786 25.1193 61.3666 21.3761 61.3202 18.8858C61.2893 17.3235 59.7683 16.3388 58.6392 17.3648C57.3966 18.4991 56.7057 26.7434 57.9225 29.2285C58.8299 31.0898 61.1037 31.5332 62.5628 30.2855C62.8928 30.0071 62.8773 29.971 63.1454 29.6513L63.7435 29.0635H63.7538Z" fill="black"/>
<path fill-rule="evenodd" clip-rule="evenodd" d="M34.9581 24.3873C34.9581 26.8002 36.3502 29.6721 37.5155 30.7393C39.1911 32.2706 42.0784 32.6676 44.0428 30.9662C45.9608 29.306 46.6569 25.171 44.1769 25.2483C42.5115 25.2999 42.9395 26.8724 42.2589 27.8056C41.0008 29.5277 38.2373 27.1508 38.5879 23.9696C38.6962 22.9849 39.2427 21.3143 40.0161 20.9483C41.1865 20.3914 41.0472 22.6652 42.6301 22.526C43.6252 22.4383 44.4656 21.0308 44.0738 19.7573C43.3983 17.566 40.2584 17.2309 38.1032 18.458C36.1543 19.5716 34.9633 21.4123 34.9633 24.3821L34.9581 24.3873Z" fill="black"/>
<path fill-rule="evenodd" clip-rule="evenodd" d="M52.6635 20.6902C53.5245 20.618 54.8909 20.783 55.4735 20.288C56.0716 19.7776 56.0819 18.4525 55.6642 17.7822C54.8084 16.4159 52.1325 17.0243 50.5805 17.2306C49.0544 17.4316 46.5125 17.906 46.0743 19.1279C45.7649 19.9993 46.0279 21.2573 46.6208 21.6543C47.322 22.1235 48.2243 21.4687 49.0544 21.3295C49.6164 22.304 49.6731 25.9698 49.7607 27.3258C49.8742 29.1252 49.5287 31.9919 51.7715 31.796C54.5609 31.5485 52.3542 22.5205 52.6687 20.6953L52.6635 20.6902Z" fill="black"/>
<path fill-rule="evenodd" clip-rule="evenodd" d="M89.5694 11.4508C88.033 9.02236 84.3878 10.0381 84.7641 13.2244C84.991 15.1321 87.801 17.7565 88.9971 18.5247C89.9407 18.2411 91.4101 17.2512 92.034 16.7511C92.9259 16.0344 93.7354 15.4724 94.1427 14.2814C94.6429 12.8119 93.952 11.5281 93.1167 10.9661C91.6627 9.99167 90.5903 10.9661 89.5746 11.4508H89.5694Z" fill="black"/>
<path fill-rule="evenodd" clip-rule="evenodd" d="M57.4482 0.319336H58.1494H58.8506C59.0981 0.319336 59.4281 0.324492 59.9643 0.355427C60.5778 0.391519 61.4647 0.463701 62.2741 0.546196C63.0785 0.62869 63.8054 0.726652 64.5118 0.834926C65.2182 0.9432 65.9142 1.0721 66.6412 1.22677C67.3682 1.38661 68.1364 1.57738 68.9149 1.80939C69.6935 2.04141 70.4823 2.30951 70.9154 2.45904C71.3485 2.60856 71.4259 2.63434 71.4929 2.67043C71.5599 2.70652 71.6115 2.75808 71.663 2.81995C71.7146 2.87666 71.7662 2.94369 71.8022 3.01587C71.8383 3.08806 71.8641 3.16539 71.8796 3.28914C71.8951 3.41288 71.8951 3.58818 71.9002 3.76348V8.33161C71.8951 8.50691 71.8951 8.68221 71.8796 8.80595C71.8641 8.92969 71.8383 9.00703 71.8022 9.07922C71.7662 9.1514 71.7146 9.21843 71.663 9.2803C71.6115 9.34217 71.5599 9.39888 71.4517 9.46591C71.3485 9.53294 71.1887 9.61027 70.7762 9.77011C70.3637 9.92994 69.6935 10.1774 68.9717 10.4198C68.2498 10.6621 67.4816 10.8993 66.7237 11.1055C65.9658 11.3117 65.213 11.4922 64.486 11.652C63.759 11.8067 63.0527 11.9459 62.3515 12.0387C61.6503 12.1315 60.9542 12.1882 60.3355 12.2243C59.722 12.2604 59.1909 12.2759 58.8403 12.2862C58.5619 12.2913 58.3917 12.2965 58.2525 12.2965H58.1443H58.036C57.8916 12.2965 57.7266 12.2965 57.4482 12.2862C57.0976 12.2759 56.5666 12.2604 55.953 12.2243C55.3394 12.1882 54.6382 12.1367 53.937 12.0387C53.2358 11.9459 52.5295 11.8118 51.8025 11.652C51.0755 11.4973 50.3279 11.3169 49.5648 11.1055C48.8069 10.8993 48.0335 10.6569 47.3169 10.4198C46.595 10.1774 45.9299 9.92994 45.5123 9.77011C45.0998 9.61027 44.9451 9.53294 44.8369 9.46591C44.7337 9.39888 44.677 9.34217 44.6255 9.2803C44.5739 9.21843 44.5275 9.1514 44.4863 9.07922C44.4502 9.00703 44.4244 8.92969 44.4089 8.80595C44.3935 8.68221 44.3935 8.50691 44.3883 8.33161V3.76348C44.3935 3.58818 44.3935 3.41288 44.4089 3.28914C44.4244 3.16539 44.4502 3.08806 44.4863 3.01587C44.5224 2.94369 44.5739 2.87666 44.6255 2.81995C44.677 2.76323 44.7286 2.71168 44.7956 2.67043C44.8626 2.63434 44.94 2.60856 45.3731 2.45904C45.8062 2.30951 46.595 2.04141 47.3736 1.80939C48.1521 1.57738 48.9152 1.38661 49.6473 1.22677C50.3743 1.06694 51.0652 0.9432 51.7767 0.834926C52.4831 0.726652 53.2101 0.62869 54.0144 0.546196C54.8187 0.463701 55.7055 0.391519 56.3242 0.355427C56.8604 0.324492 57.1904 0.319336 57.4379 0.319336L57.4482 0.319336ZM46.528 7.43964C46.5332 7.32621 46.5486 7.10966 46.5589 6.70234C46.5693 6.30018 46.5693 5.71241 46.5693 5.19166C46.5693 4.67092 46.5693 4.21204 46.5589 3.92331C46.5486 3.63974 46.5332 3.52631 46.5228 3.46444C46.5125 3.40257 46.5125 3.39225 46.5125 3.38194C46.5125 3.37163 46.5177 3.36647 46.6517 3.35616C46.7858 3.3407 47.0539 3.32007 47.3272 3.3046C47.6004 3.29429 47.8737 3.28914 48.1521 3.32007C48.4254 3.35101 48.6986 3.41288 48.9307 3.49537C49.1575 3.58302 49.3431 3.68614 49.4875 3.79957C49.6319 3.913 49.7401 4.03159 49.8278 4.16048C49.9154 4.28938 49.9825 4.43375 50.0392 4.60389C50.0907 4.76888 50.132 4.95965 50.1474 5.15042C50.1629 5.34119 50.1578 5.53195 50.1268 5.71757C50.101 5.90318 50.0495 6.07848 49.9825 6.23831C49.9206 6.39815 49.8381 6.54251 49.7504 6.67657C49.6576 6.81062 49.5545 6.9292 49.4102 7.04263C49.2709 7.15606 49.0956 7.26949 48.91 7.35714C48.7244 7.44479 48.5337 7.51182 48.3326 7.55822C48.1315 7.60463 47.9149 7.63041 47.6881 7.63556C47.4612 7.64072 47.2189 7.63556 47.0281 7.61494C46.8374 7.59947 46.6981 7.57369 46.626 7.55822C46.5538 7.54276 46.5435 7.54276 46.5383 7.54276C46.5332 7.54276 46.5229 7.54276 46.528 7.42933V7.43964ZM47.4458 6.85702C47.4458 5.93412 47.4458 5.01121 47.4458 4.08315C47.6314 4.07283 47.817 4.06768 47.9923 4.08315C48.1727 4.10377 48.3429 4.14502 48.4976 4.21204C48.6574 4.27907 48.8018 4.36672 48.9203 4.47499C49.0389 4.58327 49.1266 4.70701 49.1936 4.86684C49.2555 5.02152 49.2967 5.20713 49.3019 5.39275C49.307 5.57836 49.2761 5.76397 49.2245 5.92896C49.173 6.08879 49.0956 6.228 48.9977 6.34143C48.8997 6.45486 48.776 6.54767 48.6522 6.62501C48.5285 6.70234 48.4048 6.75906 48.2655 6.79515C48.1263 6.83124 47.9768 6.84155 47.8376 6.85187C47.6984 6.85702 47.5695 6.85702 47.4458 6.85702ZM50.0186 7.51182C50.0598 7.17669 50.0959 6.84155 50.1474 6.53736C50.199 6.23316 50.2609 5.95474 50.364 5.64023C50.462 5.33087 50.6012 4.99058 50.7352 4.6967C50.8693 4.40281 50.9982 4.16564 51.1374 3.95425C51.2766 3.74801 51.421 3.57271 51.5705 3.39741C51.8489 3.39741 52.1273 3.39741 52.4057 3.39741C52.5501 3.56756 52.6945 3.7377 52.844 3.96456C52.9935 4.19142 53.1585 4.47499 53.2977 4.79982C53.4421 5.12464 53.5658 5.49586 53.6638 5.84646C53.7617 6.20222 53.8339 6.54251 53.8803 6.81577C53.9267 7.08904 53.9474 7.29527 53.9731 7.50151C53.6638 7.50151 53.3544 7.50151 53.0451 7.50151C53.0244 7.33137 52.9987 7.15606 52.978 7.0117C52.9574 6.86218 52.9368 6.73844 52.9213 6.61469C52.2923 6.61469 51.6633 6.61469 51.0343 6.61469C51.0085 6.76937 50.9827 6.91889 50.9621 7.06841C50.9415 7.21794 50.9363 7.3623 50.926 7.50151C50.6269 7.50151 50.3279 7.50151 50.0289 7.50151L50.0186 7.51182ZM51.1838 5.85678C51.6994 5.85678 52.215 5.85678 52.7306 5.85678C52.6687 5.66085 52.6068 5.47008 52.5346 5.28447C52.4624 5.09886 52.3748 4.92356 52.3026 4.77404C52.2304 4.62452 52.1686 4.50077 52.1118 4.40281C52.0551 4.30485 52.0087 4.23267 51.9623 4.16564C51.9159 4.23267 51.8695 4.29454 51.8128 4.3925C51.7561 4.48531 51.6891 4.60905 51.622 4.75341C51.555 4.89778 51.4828 5.05761 51.4055 5.24322C51.3333 5.42884 51.256 5.64538 51.1786 5.85678H51.1838ZM54.1381 7.51182C54.1381 6.14035 54.1381 4.77404 54.1381 3.40257C54.3908 3.40257 54.6434 3.40257 54.896 3.40257C55.1796 3.65005 55.458 3.89753 55.6849 4.11408C55.9117 4.33063 56.0871 4.5214 56.2572 4.73795C56.4325 4.95449 56.6078 5.19167 56.7831 5.43399C56.7831 4.75857 56.7831 4.08315 56.7831 3.40772C57.0718 3.40772 57.3606 3.40772 57.6544 3.40772C57.6544 4.77919 57.6544 6.14551 57.6544 7.51698C57.3812 7.51698 57.1131 7.51698 56.8398 7.51698C56.8089 7.37261 56.7728 7.2334 56.6903 7.03232C56.6078 6.83124 56.4789 6.56829 56.3294 6.3105C56.1799 6.0527 56.0097 5.80522 55.8447 5.58867C55.6797 5.37212 55.5199 5.18135 55.3859 5.04214C55.2518 4.90293 55.1332 4.81013 55.0198 4.71732C55.0198 5.65054 55.0198 6.5786 55.0198 7.51182C54.7259 7.51182 54.432 7.51182 54.1381 7.51182ZM62.2535 7.51182C62.2535 6.14035 62.2535 4.77404 62.2535 3.40257C62.5062 3.40257 62.7588 3.40257 63.0114 3.40257C63.295 3.65005 63.5734 3.89753 63.8003 4.11408C64.0271 4.33063 64.2024 4.5214 64.3726 4.73795C64.5479 4.95449 64.7232 5.19167 64.8985 5.43399C64.8985 4.75857 64.8985 4.08315 64.8985 3.40772C65.1872 3.40772 65.476 3.40772 65.7698 3.40772C65.7698 4.77919 65.7698 6.14551 65.7698 7.51698C65.4966 7.51698 65.2285 7.51698 64.9552 7.51698C64.9243 7.37261 64.8882 7.2334 64.8057 7.03232C64.7232 6.83124 64.5943 6.56829 64.4448 6.3105C64.2953 6.0527 64.1251 5.80522 63.9601 5.58867C63.7951 5.37212 63.6353 5.18135 63.5012 5.04214C63.3672 4.90293 63.2486 4.81013 63.1352 4.71732C63.1352 5.65054 63.1352 6.5786 63.1352 7.51182C62.8413 7.51182 62.5474 7.51182 62.2535 7.51182ZM59.9694 3.26851C58.8351 3.26851 57.9174 4.24813 57.9174 5.44946C57.9174 6.65594 58.8351 7.63041 59.9694 7.63041C61.1037 7.63041 62.0215 6.65079 62.0215 5.44946C62.0215 4.24298 61.1037 3.26851 59.9694 3.26851ZM59.9488 4.03674C59.2631 4.03674 58.7063 4.67092 58.7063 5.44946C58.7063 6.23316 59.2631 6.86218 59.9488 6.86218C60.6346 6.86218 61.1914 6.228 61.1914 5.44946C61.1914 4.66576 60.6346 4.03674 59.9488 4.03674ZM67.8941 7.67165C67.9353 7.67165 67.9766 7.67165 68.0178 7.6665C68.0591 7.6665 68.1003 7.66134 68.1467 7.65619C68.2241 7.64587 68.3169 7.63041 68.4354 7.59947C68.5489 7.56854 68.6881 7.52729 68.8118 7.47057C68.9356 7.41902 69.0541 7.35714 69.1573 7.27981C69.2655 7.20247 69.3635 7.10966 69.446 7.02201C69.5285 6.9292 69.6007 6.8364 69.6729 6.74875C69.3996 6.68172 69.1212 6.60954 68.8479 6.54251C68.8118 6.5786 68.7757 6.61985 68.7293 6.65594C68.6829 6.69203 68.6262 6.73328 68.554 6.76422C68.4818 6.80031 68.3994 6.83124 68.3065 6.85187C68.2137 6.87249 68.1209 6.87765 68.0333 6.87765C67.9456 6.87765 67.8734 6.86733 67.791 6.84671C67.7136 6.82609 67.626 6.79515 67.5435 6.76422C67.5229 6.7539 67.5022 6.74359 67.4816 6.73328C67.3682 6.66625 67.2444 6.56829 67.1568 6.46002C67.064 6.35174 67.0021 6.22285 66.9609 6.10942C66.9196 5.99599 66.9041 5.88771 66.8887 5.77944H68.0178H68.0281H68.0745H68.1209H68.1673H68.2137H68.2601H68.3065H68.3529H68.3993H68.4458H68.4922H68.5386H68.585H68.6314H68.6778H68.7242H68.7706H68.817H68.8634H68.9098H68.9562H69.0026H69.049H69.0954H69.1418H69.1882H69.2346H69.281H69.3274H69.3738H69.4202H69.4666H69.513H69.5594H69.6058H69.6522H69.6986H69.745H69.7914H69.8843V5.1762C69.8843 4.1347 69.0335 3.27882 67.9869 3.27882C66.9454 3.27882 66.0895 4.12955 66.0895 5.1762V5.77944C66.0895 6.77453 66.8681 7.59947 67.8425 7.67165H67.8477H67.8528C67.8992 7.67681 67.9405 7.67681 67.9869 7.67681L67.8941 7.67165ZM67.9405 4.04705C67.3836 4.04705 66.9299 4.51109 66.9145 5.08855H68.9717C68.9562 4.51109 68.5025 4.04705 67.9456 4.04705H67.9405ZM52.7099 10.2702C52.978 10.3888 53.3441 10.5435 53.7617 10.6879C54.1742 10.8322 54.6382 10.9663 55.1229 11.0797C55.6076 11.188 56.1231 11.2756 56.6181 11.3272C57.1182 11.3839 57.6029 11.4045 58.1339 11.3942C58.665 11.3839 59.2373 11.3427 59.7323 11.2756C60.2272 11.2086 60.6449 11.121 61.0419 11.0178C61.4389 10.9147 61.8153 10.8013 62.1916 10.6672C62.568 10.5332 62.9496 10.3785 63.3569 10.1877C63.7642 9.99697 64.1973 9.76495 64.5273 9.55356C64.8624 9.34217 65.0944 9.15655 65.2491 9.0225C65.4038 8.88329 65.476 8.79564 65.5224 8.72861C65.5688 8.66159 65.5894 8.61518 65.5894 8.57394C65.5894 8.53269 65.5739 8.50175 65.5378 8.48113C65.5069 8.46051 65.4553 8.46051 65.3831 8.46566C65.311 8.47598 65.213 8.49144 65.0789 8.53785C64.9449 8.57909 64.7799 8.65128 64.4963 8.76471C64.2128 8.88329 63.8158 9.04828 63.4033 9.20296C62.9908 9.35763 62.5629 9.49685 62.1504 9.62059C61.7379 9.74433 61.3409 9.84229 60.9284 9.92994C60.5211 10.0176 60.0983 10.0846 59.6807 10.1362C59.2631 10.1877 58.8506 10.2187 58.4124 10.229C57.9741 10.2393 57.5152 10.2341 57.0615 10.2084C56.613 10.1826 56.1747 10.1362 55.7416 10.0743C55.3085 10.0124 54.8806 9.92478 54.4629 9.82682C54.0453 9.72886 53.6483 9.61543 53.2668 9.49684C52.8852 9.37826 52.5295 9.2442 52.184 9.11015C51.8386 8.9761 51.5035 8.83689 51.2611 8.73893C51.0188 8.64096 50.8744 8.57909 50.7662 8.53785C50.6579 8.4966 50.5805 8.47598 50.5032 8.46566C50.431 8.45535 50.3588 8.46051 50.3176 8.48113C50.2763 8.50175 50.266 8.53785 50.2867 8.59972C50.3073 8.65643 50.3588 8.73893 50.4517 8.8472C50.5496 8.95547 50.6888 9.08437 50.8641 9.21843C51.0394 9.35248 51.2508 9.49684 51.4622 9.62574C51.6736 9.75464 51.8798 9.87838 52.0706 9.97634C52.2614 10.0743 52.4315 10.1516 52.6996 10.2702H52.7099Z" fill="black"/>
</g>
<defs>
<clipPath id="clip0_1233_3522">
<rect width="113.884" height="47.3366" fill="white" transform="translate(0.578613 0.319336)"/>
</clipPath>
</defs>
</svg>
