<svg width="87" height="44" viewBox="0 0 87 44" fill="none" xmlns="http://www.w3.org/2000/svg">
<g clip-path="url(#clip0_1233_4053)">
<path fill-rule="evenodd" clip-rule="evenodd" d="M60.2311 30.5418C61.1478 30.9347 63.3254 30.9702 64.562 30.8262C65.7406 30.6896 66.0811 30.0367 67.269 28.9217C67.7049 28.5139 68.0173 28.1996 68.414 27.7581L70.6477 25.3766C71.3081 24.776 71.4577 24.4019 71.9759 24.2728C72.2229 24.7854 72.7729 28.2071 72.9899 29.1144C73.2574 30.2369 73.1265 30.5044 74.2583 30.7607C75.102 30.9534 75.9832 30.9759 76.8887 30.8748C79.5302 30.5774 79.7341 30.4258 79.0925 28.0181L77.3545 20.8324C76.8961 18.8007 77.0645 19.7492 79.2253 17.3939C80.2767 16.249 86.2801 10.9228 86.4166 9.78536C85.8423 9.168 83.9659 9.05949 82.8995 9.07633C81.0456 9.10439 79.0419 11.5289 77.912 12.7375C77.1861 13.5139 76.5126 14.2379 75.8242 15.0984C75.4631 14.597 74.9075 11.2857 74.6905 10.3765C74.4828 9.51035 74.1816 9.03891 73.2013 8.9566C72.2117 8.87241 71.3418 9.04453 70.5223 9.23535C69.7366 9.42056 68.8424 9.55151 68.7002 10.3578C68.485 11.5795 71.1135 18.9392 70.5579 19.6856C70.0546 20.361 66.9491 23.2962 66.1073 24.0988C64.8856 25.2606 60.291 29.1406 60.2311 30.5456V30.5418ZM6.94148 11.123C6.88536 13.9928 3.2822 23.1821 1.93523 26.3176C1.62468 27.0397 0.0681761 30.9534 0.245902 31.1068C0.466656 31.2976 3.89957 31.4024 5.04262 30.7719C7.01631 29.6831 7.31564 27.9265 8.0995 25.7545L11.0572 17.856C11.4856 16.6998 11.8336 14.8777 12.9467 14.3688C15.7567 13.0873 15.867 14.3613 17.3506 14.1219C18.1232 13.9965 18.647 13.4259 19.0081 12.947C21.7731 9.27837 18.5161 7.57595 12.9598 9.94999C11.9047 10.4009 12.4098 9.61512 11.003 9.6226C9.27249 9.63196 7.98912 10.4102 6.94335 11.1211L6.94148 11.123ZM23.7319 18.0094C24.1491 16.4922 25.8533 14.2828 27.3818 13.5382C31.2674 11.6468 28.914 17.3958 28.6221 17.6745C27.6325 17.8504 25.0134 18.0112 23.7319 18.0094ZM29.883 25.457C29.1572 25.8031 28.0852 26.1717 27.1704 26.4261C25.8384 26.7946 21.9527 27.4906 21.5131 25.4177C21.2998 24.4112 21.6609 22.9558 22.0313 22.2729C25.0321 21.9025 30.3208 22.7649 32.6556 20.6266C33.8996 19.4892 35.1437 15.2799 35.2186 13.3567C35.43 7.93514 26.9627 6.99413 21.1221 13.1191C18.2691 16.1105 13.811 25.3429 16.2917 29.1949C18.4487 32.5417 25.917 31.915 28.6034 29.6177C29.6511 28.7234 30.4368 26.7797 29.8812 25.4551L29.883 25.457ZM40.7655 27.2997C39.8581 27.3147 39.4484 27.4962 39.9049 26.1698C41.2818 22.1719 43.0347 18.116 44.4753 14.047C45.1656 12.0995 48.6378 3.03366 48.7706 1.73907C49.2402 -0.550784 43.5735 0.440737 43.132 2.56409L37.7479 17.3621C37.6001 17.7138 37.4523 17.9813 37.3326 18.3499L35.3963 23.6966C34.8874 25.0997 34.3861 26.5308 33.8735 27.9227C33.5629 28.7646 33.5928 29.5447 34.0044 30.2088C35.5815 32.7512 40.468 30.9927 40.7655 27.3016V27.2997ZM55.5709 21.0438C55.5878 21.2758 54.0706 25.255 53.8629 25.6778C53.4794 26.456 53.5318 26.5271 51.8013 26.9574C51.0923 27.1332 49.5058 27.3671 49.0157 26.9368C48.316 26.3251 49.0306 24.9594 49.2738 24.3458C49.938 22.6658 51.2026 21.8819 52.8209 21.3487C53.4775 21.1317 54.9592 20.8717 55.5728 21.0419L55.5709 21.0438ZM57.1143 17.0459C54.31 17.7437 52.5795 17.2236 48.8922 18.8905C43.7531 21.2122 40.7187 28.4952 44.7147 30.8112C47.4236 32.3827 50.5497 31.3463 53.0023 30.5082C55.1706 32.6745 59.7989 31.9524 59.8607 27.5111C59.5239 27.3185 59.4285 27.4326 59.0562 27.3241C58.8617 26.441 62.2553 18.1534 62.867 16.5857C63.4713 14.8141 64.5807 12.6028 63.4975 10.9041C61.0973 7.13819 51.356 9.50848 50.1026 12.0696C49.7023 12.8871 49.3374 14.2379 50.1999 14.7411C51.4758 15.4838 59.2508 11.6562 58.235 14.4418C57.8963 15.3678 57.5727 16.2864 57.1162 17.044L57.1143 17.0459Z" fill="black"/>
<path fill-rule="evenodd" clip-rule="evenodd" d="M57.3425 33.797C53.4325 35.2619 33.9706 43.7946 16.4693 35.1552C16.2074 35.0411 15.5227 34.753 15.2028 34.8877C14.0728 35.3592 15.5134 37.8642 15.9848 38.4572C22.6841 46.8758 49.3336 44.5111 57.292 34.7605C57.5202 34.5547 58.1245 33.7839 57.3443 33.797H57.3425Z" fill="black"/>
<path fill-rule="evenodd" clip-rule="evenodd" d="M54.6391 35.8009C51.2155 36.9982 33.5721 43.3028 18.2484 36.9683C18.0183 36.8897 16.8752 36.3603 16.5946 36.4538C15.6049 36.7793 17.3953 38.8503 17.8237 39.2394C24.0778 44.9192 47.2756 43.3065 54.5942 36.4632C54.7944 36.321 55.3238 35.7915 54.6391 35.8009Z" fill="black"/>
</g>
<defs>
<clipPath id="clip0_1233_4053">
<rect width="86.1842" height="43.1817" fill="white" transform="translate(0.232422 0.427734)"/>
</clipPath>
</defs>
</svg>
