<svg width="86" height="27" viewBox="0 0 86 27" fill="none" xmlns="http://www.w3.org/2000/svg">
<g clip-path="url(#clip0_1233_4060)">
<path d="M46.366 20.5948C45.3854 20.5948 44.5896 19.799 44.5896 18.8184V13.4364V6.93046C44.5896 3.32487 41.6667 0.403809 38.063 0.403809H35.9434V6.28364H37.1653C38.1459 6.28364 38.9417 7.07943 38.9417 8.06004V13.442V19.9479C38.9417 23.5535 41.8647 26.4746 45.4684 26.4746H47.588V20.5966H46.366V20.5948Z" fill="black"/>
<path d="M58.0031 20.5948C57.0225 20.5948 56.2267 19.799 56.2267 18.8184V13.4364V6.93046C56.2267 3.32487 53.3038 0.403809 49.7 0.403809H47.5804V6.28364H48.8024C49.783 6.28364 50.5769 7.07943 50.5769 8.06004V13.442V19.9479C50.5769 23.5535 53.4999 26.4746 57.1036 26.4746H59.2232V20.5966H58.0012L58.0031 20.5948Z" fill="black"/>
<path d="M68.9255 6.95703C63.568 6.95703 59.2251 11.3 59.2251 16.6574C59.2251 22.0149 63.568 26.3578 68.9255 26.3578C74.283 26.3578 78.6259 22.0149 78.6259 16.6574C78.6259 11.3 74.283 6.95703 68.9255 6.95703ZM68.9255 21.2285C66.4005 21.2285 64.3525 19.1806 64.3525 16.6555C64.3525 14.1305 66.4005 12.0826 68.9255 12.0826C71.4506 12.0826 73.4985 14.1305 73.4985 16.6555C73.4985 19.1806 71.4506 21.2285 68.9255 21.2285Z" fill="black"/>
<path d="M85.5806 23.6385C85.5806 25.1735 84.336 26.4181 82.801 26.4181C81.266 26.4181 80.0214 25.1735 80.0214 23.6385C80.0214 22.1035 81.266 20.8589 82.801 20.8589C84.336 20.8589 85.5806 22.1035 85.5806 23.6385Z" fill="black"/>
<path d="M80.3476 0.405762V1.81443H80.3457V19.6123H85.4354V1.81632H85.4373V0.405762H80.3476Z" fill="black"/>
<path d="M0.128784 23.137L2.6048 19.1278C4.76589 20.5573 7.13631 21.2889 9.08996 21.2889C10.2403 21.2889 11.1756 20.9401 11.1756 20.2084C11.1756 19.4767 9.71793 19.1278 7.73032 18.6036C4.00027 17.5928 1.03584 16.3727 1.03584 12.5031C1.03584 8.49398 4.24354 6.26123 8.60155 6.26123C11.3567 6.26123 14.2155 7.06268 16.3766 8.45815L14.1099 12.6427C12.1581 11.5621 10.031 10.9002 8.53178 10.9002C7.521 10.9002 6.99865 11.283 6.99865 11.8771C6.99865 12.6087 8.07919 12.9576 10.0668 13.5497C13.7968 14.6303 16.7613 15.8862 16.7613 19.6163C16.7613 23.765 13.6573 25.926 9.05602 25.926C5.88416 25.926 2.74623 25.019 0.13067 23.137H0.128784Z" fill="black"/>
<path d="M36.9937 16.6555C36.9937 11.2999 32.6489 6.95508 27.2933 6.95508C21.9377 6.95508 17.5929 11.2999 17.5929 16.6555C17.5929 22.1167 21.949 26.3559 27.4819 26.3559C31.9304 26.3559 34.7553 24.2306 36.1715 21.7037L30.6104 20.1083C29.841 20.6194 28.9999 21.0192 27.5498 21.0135C25.2642 21.006 23.6123 19.767 23.1484 17.9831H36.9937V16.7649H36.9956V16.6536L36.9937 16.6555ZM27.2933 12.3031C29.2564 12.3031 30.914 13.5986 31.4608 15.3769L23.1333 15.3713C23.682 13.5949 25.3359 12.3012 27.2933 12.3012V12.3031Z" fill="black"/>
</g>
<defs>
<clipPath id="clip0_1233_4060">
<rect width="85.453" height="26.0689" fill="white" transform="translate(0.128174 0.405762)"/>
</clipPath>
</defs>
</svg>
