<svg width="91" height="28" viewBox="0 0 91 28" fill="none" xmlns="http://www.w3.org/2000/svg">
<g clip-path="url(#clip0_1233_3537)">
<path fill-rule="evenodd" clip-rule="evenodd" d="M1.08328 21.6278C1.8553 21.412 3.37008 21.0022 4.1787 20.7863C4.98731 20.5741 5.0861 20.5631 5.15562 20.5704C5.22148 20.5777 5.25807 20.607 5.28734 20.6802C5.31661 20.757 5.34588 20.8778 5.38613 21.0461C5.43004 21.2107 5.48492 21.4193 5.57639 21.6425C5.66421 21.8657 5.78495 22.0998 5.97155 22.3011C6.15816 22.5023 6.40696 22.667 6.72163 22.7694C7.03263 22.8682 7.4095 22.9048 7.84856 22.8609C8.28763 22.817 8.7889 22.6999 9.22065 22.5352C9.6524 22.3706 10.0146 22.162 10.3 21.9352C10.5854 21.7083 10.7903 21.4668 10.9293 21.2144C11.0684 20.9619 11.1452 20.7058 11.1525 20.468C11.1599 20.2301 11.1013 20.0143 10.9916 19.8386C10.8818 19.663 10.7171 19.524 10.4793 19.4142C10.2415 19.3044 9.93413 19.2239 9.56824 19.1544C9.20235 19.0886 8.77792 19.0337 8.24738 18.9971C7.71684 18.9605 7.0802 18.9385 6.33378 18.8837C5.58737 18.8288 4.73119 18.7373 4.16406 18.6532C3.59693 18.569 3.3152 18.4885 3.02981 18.3714C2.74441 18.2507 2.4517 18.0897 2.19558 17.8958C1.94311 17.7018 1.72358 17.475 1.52234 17.2042C1.31744 16.9335 1.12352 16.6225 0.966191 16.2932C0.8052 15.9639 0.677139 15.6163 0.582008 15.2431C0.486877 14.8735 0.421017 14.4784 0.391745 14.0137C0.362474 13.549 0.369792 13.0185 0.421017 12.5026C0.4759 11.9867 0.578349 11.489 0.746658 11.0134C0.914967 10.5377 1.14914 10.084 1.45282 9.63765C1.75651 9.19126 2.12972 8.75585 2.49561 8.37899C2.8615 8.00212 3.22007 7.69112 3.67377 7.37645C4.12747 7.06179 4.67265 6.74346 5.25807 6.48002C5.84349 6.21658 6.46916 6.00437 7.10215 5.84704C7.7388 5.6897 8.38276 5.5836 9.03404 5.55067C9.68533 5.51774 10.3476 5.55432 10.9733 5.66775C11.5989 5.78118 12.188 5.96778 12.6929 6.23854C13.1979 6.5093 13.6186 6.86055 14.0101 7.26669C14.4016 7.67282 14.7602 8.13018 15.0273 8.62779C15.2944 9.12174 15.4737 9.65594 15.5761 9.9889C15.6786 10.3255 15.7042 10.4646 15.7152 10.5633C15.7225 10.6621 15.7152 10.7207 15.6932 10.7682C15.6713 10.8158 15.631 10.8487 15.4371 10.9073C15.2395 10.9658 14.8883 11.0463 14.1126 11.2366C13.3369 11.4232 12.1368 11.7196 11.4965 11.8696C10.8562 12.0196 10.7793 12.0232 10.7098 11.994C10.6403 11.9647 10.5818 11.9062 10.5269 11.7818C10.4683 11.6537 10.4134 11.4598 10.311 11.2476C10.2049 11.0353 10.0512 10.8085 9.88291 10.6402C9.7146 10.4719 9.52799 10.3694 9.31578 10.3036C9.0999 10.2377 8.85476 10.2121 8.54009 10.2377C8.22177 10.2633 7.83393 10.3402 7.47902 10.4536C7.1241 10.567 6.79846 10.7207 6.53868 10.867C6.2789 11.017 6.08864 11.1634 5.93862 11.3244C5.78861 11.4854 5.67884 11.6647 5.61664 11.8805C5.55078 12.0964 5.53249 12.3489 5.56908 12.5684C5.60566 12.788 5.70445 12.9709 5.91667 13.1355C6.12889 13.3002 6.45819 13.4429 6.98872 13.527C7.51926 13.6112 8.24738 13.6332 8.96818 13.6624C9.68899 13.6917 10.3988 13.721 10.9879 13.7795C11.577 13.8381 12.0453 13.9185 12.4697 14.032C12.8978 14.1491 13.282 14.2954 13.6625 14.5003C14.0431 14.7016 14.4199 14.9613 14.7346 15.2321C15.0456 15.5028 15.2944 15.7846 15.5286 16.0992C15.7627 16.4139 15.9823 16.7578 16.1652 17.1676C16.3482 17.5774 16.4945 18.0531 16.5567 18.58C16.6189 19.1032 16.6006 19.6776 16.5421 20.2594C16.4835 20.8448 16.3884 21.4412 16.1945 22.0047C16.0042 22.5718 15.7152 23.1097 15.4444 23.5524C15.17 23.9988 14.9102 24.35 14.5992 24.6867C14.2882 25.0233 13.9223 25.3416 13.465 25.6636C13.0076 25.9856 12.4624 26.3076 11.8807 26.582C11.2989 26.8564 10.6842 27.0759 10.0402 27.2772C9.39627 27.4784 8.73036 27.654 8.07907 27.7565C7.42779 27.8589 6.7948 27.8809 6.20572 27.8516C5.61664 27.8223 5.06781 27.7345 4.60313 27.6101C4.13845 27.4821 3.75061 27.3137 3.34813 27.0832C2.94565 26.8527 2.52488 26.5637 2.15533 26.2161C1.78578 25.8685 1.46746 25.4587 1.20402 25.0269C0.940579 24.5952 0.728363 24.1378 0.578349 23.6805C0.428334 23.2231 0.336862 22.7621 0.289297 22.4767C0.238072 22.195 0.230754 22.0889 0.234413 22.0193C0.238072 21.9498 0.249049 21.9132 0.274661 21.8876C0.296614 21.862 0.329544 21.8474 1.10523 21.6315L1.08328 21.6278Z" fill="black"/>
<path fill-rule="evenodd" clip-rule="evenodd" d="M17.475 21.4409C17.1787 18.2613 16.5859 11.9278 16.2896 8.74454C15.9932 5.55765 15.9932 5.52106 16.0005 5.49179C16.0042 5.46252 16.0151 5.44423 16.0371 5.42593C16.0591 5.40764 16.0993 5.38934 16.8164 5.24299C17.5336 5.09663 18.924 4.82221 19.6484 4.68683C20.3729 4.55146 20.4278 4.55146 20.4863 4.56243C20.5448 4.57341 20.6034 4.59902 20.6436 4.65025C20.6839 4.70147 20.7058 4.78197 20.8559 6.17234C21.0059 7.55906 21.2766 10.2557 21.551 12.9523C22.2682 11.6973 22.989 10.4423 23.3659 9.79099C23.7464 9.13971 23.7866 9.08848 23.8415 9.04823C23.9001 9.00799 23.9732 8.97871 24.9026 8.8287C25.8283 8.67503 27.6065 8.40061 28.5212 8.26523C29.436 8.12619 29.4835 8.12619 29.5274 8.14815C29.5713 8.1701 29.6116 8.21401 29.6299 8.27621C29.6482 8.33841 29.6445 8.41524 29.5969 8.52135C29.5494 8.62746 29.4579 8.75918 28.8249 9.68122C28.1919 10.6033 27.0138 12.3156 25.8356 14.028C27.1638 16.1758 28.492 18.3199 29.3628 19.7249C30.2336 21.1299 30.6507 21.7958 30.8629 22.1544C31.0715 22.513 31.0751 22.5715 31.0642 22.6191C31.0532 22.6666 31.0239 22.7069 30.9654 22.7288C30.9032 22.7544 30.8117 22.7618 29.9738 22.8825C29.1359 23.0069 27.5516 23.2447 26.732 23.3618C25.9124 23.4789 25.8576 23.4752 25.7917 23.4277C25.7258 23.3801 25.6527 23.2923 25.1331 22.4361C24.6135 21.5799 23.6549 19.959 22.6963 18.3345C22.495 18.6016 22.2975 18.865 22.0962 19.1321C22.2353 20.6981 22.3706 22.2678 22.4402 23.0837C22.5097 23.8997 22.5097 23.9619 22.4804 24.0131C22.4511 24.0643 22.3926 24.1046 21.6425 24.2509C20.8961 24.3973 19.4618 24.6534 18.7081 24.7741C17.9544 24.8949 17.8848 24.8766 17.8446 24.84C17.8007 24.7998 17.786 24.7376 17.7787 24.69C17.7714 24.6461 17.7714 24.6168 17.475 21.4372V21.4409Z" fill="black"/>
<path fill-rule="evenodd" clip-rule="evenodd" d="M31.3386 19.8638C31.1227 17.5404 30.6873 12.9156 30.4714 10.5739C30.2556 8.23221 30.2592 8.17001 30.2739 8.11878C30.2885 8.06756 30.3104 8.03097 30.3653 7.99804C30.4165 7.96877 30.5007 7.94315 31.2581 7.83339C32.0155 7.72362 33.4498 7.52604 34.1962 7.43091C34.9426 7.33578 35.0048 7.3431 35.0524 7.36871C35.0999 7.39432 35.1402 7.43823 35.1694 7.54068C35.1987 7.64313 35.2243 7.80046 35.4548 10.1531C35.6853 12.5095 36.1171 17.0611 36.333 19.3735C36.5488 21.6859 36.5452 21.7591 36.5196 21.8177C36.4903 21.8762 36.4354 21.9165 36.2781 21.9567C36.1208 21.997 35.861 22.0299 35.1146 22.1287C34.3718 22.2275 33.1461 22.3921 32.4985 22.4726C31.8508 22.5531 31.7813 22.5458 31.7264 22.5202C31.6715 22.4946 31.6276 22.4433 31.602 22.3921C31.5764 22.3409 31.5654 22.2823 31.5618 22.2458C31.5581 22.2055 31.5581 22.1836 31.3422 19.8638H31.3386Z" fill="black"/>
<path fill-rule="evenodd" clip-rule="evenodd" d="M35.9231 10.2338C35.8719 9.66297 35.7731 8.5653 35.7256 7.98719C35.678 7.40543 35.6853 7.34323 35.7182 7.29566C35.7548 7.2481 35.817 7.21517 35.9085 7.19687C35.9963 7.17858 36.1097 7.17858 36.3585 7.15663C36.6073 7.13467 36.9915 7.09442 37.3757 7.05418C37.2367 5.73332 37.0976 4.41246 37.0318 3.72459C36.9659 3.03671 36.9769 2.98549 36.9952 2.94158C37.0171 2.89768 37.0501 2.86475 37.094 2.84279C37.1379 2.82084 37.1964 2.80986 37.9282 2.72937C38.6563 2.64887 40.0577 2.50252 40.7895 2.433C41.5212 2.35982 41.5798 2.36348 41.631 2.38177C41.6822 2.40007 41.7261 2.44032 41.7591 2.50983C41.7883 2.58301 41.803 2.68912 41.8798 3.3587C41.953 4.02827 42.0847 5.26498 42.2164 6.49803C42.8458 6.43217 43.4787 6.36631 43.8263 6.33338C44.1776 6.30045 44.2435 6.30776 44.291 6.32606C44.3386 6.34435 44.3642 6.37728 44.3935 6.47241C44.4227 6.56754 44.4484 6.72122 44.5142 7.29932C44.5801 7.87743 44.6789 8.87996 44.7264 9.4105C44.774 9.94104 44.774 9.99958 44.7301 10.0398C44.6862 10.0801 44.5984 10.102 44.2325 10.1386C43.8666 10.1752 43.2226 10.2264 42.5787 10.2777C42.7653 12.0852 42.9519 13.8963 43.0689 14.8988C43.186 15.9014 43.2299 16.099 43.3104 16.2563C43.3909 16.4173 43.5007 16.538 43.6653 16.6185C43.83 16.699 44.0459 16.7356 44.3239 16.7393C44.5984 16.7429 44.935 16.71 45.1472 16.6917C45.3594 16.6771 45.4472 16.6771 45.5167 16.699C45.5863 16.721 45.6338 16.7576 45.6668 16.9076C45.6997 17.0576 45.718 17.3174 45.7802 18.0089C45.8424 18.7004 45.9522 19.8237 46.007 20.4091C46.0619 20.9946 46.0656 21.0421 46.0473 21.086C46.0326 21.1299 45.9997 21.1775 45.7838 21.2141C45.568 21.2507 45.1692 21.2799 44.635 21.3202C44.0971 21.3604 43.4239 21.4117 42.8933 21.4043C42.3628 21.397 41.9749 21.3312 41.6054 21.2104C41.2322 21.0933 40.8773 20.925 40.5407 20.7055C40.2077 20.486 39.893 20.2189 39.6223 19.9188C39.3515 19.6188 39.121 19.2858 38.9234 18.9273C38.7222 18.5687 38.5539 18.1772 38.4368 17.7418C38.3161 17.3064 38.2465 16.8234 38.1368 15.6635C38.027 14.5037 37.877 12.6633 37.7306 10.8228C37.2403 10.885 36.75 10.9472 36.472 10.9692C36.1939 10.9911 36.1317 10.9765 36.0878 10.9582C36.0439 10.9363 36.0183 10.9106 36 10.8741C35.9817 10.8411 35.9744 10.7972 35.9231 10.2264V10.2338Z" fill="black"/>
<path fill-rule="evenodd" clip-rule="evenodd" d="M45.6083 9.27135C45.557 8.70056 45.4582 7.6029 45.4107 7.02479C45.3631 6.44303 45.3704 6.38083 45.4034 6.33326C45.4399 6.2857 45.5021 6.25276 45.5936 6.23447C45.6814 6.21618 45.7949 6.21618 46.0437 6.19422C46.2925 6.17227 46.6766 6.13202 47.0608 6.09177C46.9218 4.77091 46.7828 3.45005 46.7169 2.76218C46.651 2.07431 46.662 2.02309 46.6803 1.97918C46.7023 1.93527 46.7352 1.90234 46.7791 1.88039C46.823 1.85844 46.8816 1.84746 47.6133 1.76697C48.3414 1.68647 49.7428 1.54011 50.4746 1.4706C51.2064 1.39742 51.2649 1.40108 51.3161 1.41937C51.3673 1.43767 51.4113 1.47791 51.4442 1.54743C51.4735 1.62061 51.4881 1.72672 51.5649 2.42557C51.6418 3.12441 51.7771 4.41234 51.9125 5.70027C52.5345 5.65637 53.1529 5.61612 53.5005 5.59416C53.8444 5.57587 53.9139 5.57953 53.9615 5.59782C54.0091 5.61612 54.0347 5.64905 54.0639 5.74418C54.0932 5.83931 54.1188 5.99298 54.1847 6.57109C54.2506 7.14919 54.3493 8.15173 54.3969 8.68227C54.4445 9.21281 54.4445 9.27135 54.4006 9.3116C54.3567 9.35184 54.2688 9.3738 53.9066 9.39575C53.5444 9.42136 52.9114 9.44698 52.2784 9.47625C52.4614 11.2325 52.6406 12.9888 52.7577 13.962C52.8712 14.939 52.9187 15.1366 52.9956 15.2939C53.076 15.4549 53.1858 15.5756 53.3505 15.6561C53.5151 15.7366 53.731 15.7732 54.0091 15.7769C54.2835 15.7805 54.6201 15.7476 54.8323 15.7293C55.0445 15.7147 55.1323 15.7147 55.2019 15.7366C55.2714 15.7586 55.3189 15.7952 55.3519 15.9452C55.3848 16.0952 55.4031 16.355 55.4616 17.0684C55.5202 17.7819 55.6226 18.9491 55.6739 19.5528C55.7251 20.1602 55.7287 20.2041 55.7104 20.2517C55.6958 20.2956 55.6629 20.3432 55.447 20.3797C55.2311 20.4163 54.8323 20.4456 54.2981 20.4858C53.7603 20.5261 53.087 20.5773 52.5565 20.57C52.0259 20.5627 51.6381 20.4968 51.2686 20.3761C50.8953 20.259 50.5404 20.0907 50.2038 19.8712C49.8709 19.6516 49.5562 19.3845 49.2854 19.0845C49.0147 18.7845 48.7842 18.4515 48.5866 18.0929C48.3854 17.7344 48.217 17.3429 48.1036 16.8855C47.9865 16.4281 47.9243 15.9013 47.8182 14.7194C47.7121 13.5376 47.5621 11.6972 47.4157 9.85677C46.9255 9.91897 46.4352 9.98117 46.1571 10.0031C45.879 10.0251 45.8168 10.0104 45.7729 9.99215C45.729 9.9702 45.7034 9.94459 45.6851 9.908C45.6668 9.87507 45.6595 9.83116 45.6083 9.26037V9.27135Z" fill="black"/>
<path fill-rule="evenodd" clip-rule="evenodd" d="M56.2373 16.6113C55.93 13.4134 55.319 7.06893 55.0153 3.8674C54.7116 0.665872 54.7116 0.610989 54.7299 0.548788C54.7518 0.486587 54.7921 0.424386 54.847 0.380479C54.9019 0.336572 54.9714 0.314619 55.7215 0.270712C56.4715 0.226805 57.9021 0.160945 58.6559 0.135333C59.4096 0.106062 59.4828 0.11338 59.545 0.142651C59.6072 0.171922 59.6621 0.223147 59.6913 0.340231C59.7243 0.453657 59.7352 0.629283 60.0389 3.84545C60.3426 7.06161 60.939 13.322 61.2354 16.4833C61.5318 19.6445 61.5281 19.7067 61.4988 19.7653C61.4696 19.8238 61.411 19.886 61.2427 19.919C61.0744 19.9519 60.7963 19.9629 60.0499 19.9921C59.3035 20.0251 58.0851 20.0799 57.4448 20.1019C56.8045 20.1239 56.7386 20.1129 56.6874 20.0763C56.6362 20.0397 56.5959 19.9775 56.574 19.919C56.5484 19.8604 56.541 19.8092 56.2337 16.6113H56.2373Z" fill="black"/>
<path fill-rule="evenodd" clip-rule="evenodd" d="M62.7721 15.6196C62.5855 15.1586 62.4099 14.5842 62.2745 14.0207C62.1428 13.4572 62.0513 12.8974 62.0001 12.3303C61.9488 11.7595 61.9379 11.1777 61.9854 10.585C62.033 9.9886 62.1428 9.37757 62.3001 8.81776C62.4574 8.25795 62.6623 7.75302 62.8819 7.32859C63.1014 6.90416 63.3356 6.56754 63.5953 6.26385C63.8551 5.96016 64.1442 5.69307 64.4808 5.4406C64.8174 5.18814 65.2016 4.94665 65.6846 4.74907C66.1675 4.55149 66.7456 4.39782 67.3494 4.30635C67.9531 4.21487 68.5861 4.18926 69.2227 4.25512C69.8594 4.32098 70.4997 4.47831 71.0631 4.69053C71.6266 4.90275 72.1096 5.16984 72.5889 5.55037C73.0682 5.93089 73.5475 6.42119 73.939 6.92611C74.3305 7.43104 74.6342 7.94694 74.8977 8.52139C75.1611 9.09583 75.3806 9.72516 75.5453 10.3508C75.7099 10.9765 75.8197 11.5949 75.8819 12.0888C75.9441 12.5828 75.9587 12.9486 75.9624 13.1572C75.9661 13.3658 75.9551 13.4133 75.9185 13.4536C75.8819 13.4902 75.816 13.5158 75.4538 13.5304C75.0916 13.545 74.4293 13.545 73.017 13.5743C71.6047 13.5999 69.4422 13.6548 67.2798 13.706C67.3237 13.9658 67.364 14.2256 67.4518 14.4817C67.5396 14.7378 67.6677 14.994 67.836 15.1989C68.0006 15.4074 68.2019 15.5648 68.447 15.6745C68.6922 15.7843 68.9812 15.8428 69.2739 15.8501C69.563 15.8575 69.8557 15.8099 70.0789 15.7331C70.3021 15.6562 70.4521 15.5501 70.5655 15.433C70.679 15.3123 70.7485 15.1806 70.7924 15.0745C70.8363 14.9684 70.8546 14.8915 70.8729 14.8183C72.4974 14.7671 74.122 14.7159 74.9672 14.6976C75.8124 14.6793 75.8746 14.6939 75.9221 14.7195C75.9697 14.7452 76.0026 14.7818 76.0209 14.8659C76.0429 14.9501 76.0502 15.0818 75.999 15.3635C75.9478 15.6452 75.8343 16.0807 75.688 16.4831C75.5416 16.8856 75.3623 17.2552 75.1538 17.5845C74.9452 17.9138 74.7074 18.1992 74.411 18.4589C74.1146 18.7187 73.7634 18.9529 73.3719 19.1651C72.9804 19.3773 72.5523 19.5676 72.0474 19.703C71.5425 19.8383 70.9607 19.9152 70.3862 19.9518C69.8081 19.9884 69.2337 19.9884 68.7214 19.9481C68.2092 19.9079 67.7628 19.831 67.2725 19.6883C66.7822 19.5456 66.248 19.3371 65.7431 19.0517C65.2382 18.7663 64.7589 18.4004 64.3637 18.0126C63.9685 17.6211 63.6539 17.2039 63.3978 16.8198C63.1453 16.4356 62.9514 16.0843 62.7684 15.6233L62.7721 15.6196ZM66.6029 9.69955C66.6359 9.46904 66.6908 9.25317 66.8005 9.04827C66.9103 8.84337 67.0713 8.64945 67.2798 8.52139C67.4884 8.39333 67.7445 8.32747 68.0006 8.32747C68.2568 8.32747 68.5165 8.38967 68.7544 8.50675C68.9959 8.62384 69.2154 8.79215 69.3691 8.97509C69.5227 9.15804 69.6069 9.35562 69.6837 9.54588C69.7606 9.7398 69.8228 9.9264 69.863 10.0691C69.9033 10.2118 69.9142 10.3106 69.9289 10.4094C68.8019 10.4094 67.675 10.4094 66.5481 10.4094C66.5554 10.1679 66.5664 9.93006 66.5993 9.69955H66.6029Z" fill="black"/>
<path fill-rule="evenodd" clip-rule="evenodd" d="M77.6748 14.5807C78.37 14.5807 79.7165 14.5807 80.4226 14.5807C81.1324 14.5807 81.202 14.5807 81.2678 14.588C81.33 14.5953 81.3849 14.6136 81.4288 14.6795C81.4727 14.7453 81.502 14.8588 81.5386 15.0051C81.5752 15.1515 81.6191 15.3344 81.6923 15.5284C81.7618 15.7223 81.8569 15.9308 81.9996 16.1028C82.1423 16.2748 82.3326 16.4065 82.5594 16.4943C82.7826 16.5821 83.0387 16.626 83.2802 16.6224C83.5217 16.615 83.7522 16.5565 83.9315 16.4687C84.1108 16.3772 84.2388 16.2565 84.3084 16.0882C84.3742 15.9199 84.3779 15.7076 84.3376 15.5284C84.2974 15.3491 84.2096 15.1954 84.0413 15.0564C83.873 14.9173 83.6205 14.7856 83.1448 14.6027C82.6728 14.4197 81.9776 14.1782 81.3008 13.9075C80.6239 13.6367 79.9653 13.333 79.4457 13.0586C78.9261 12.7878 78.542 12.5464 78.1907 12.261C77.8394 11.9719 77.5175 11.6353 77.2723 11.2621C77.0272 10.8889 76.8552 10.4827 76.7198 10.0656C76.5844 9.64851 76.4857 9.22042 76.4417 8.79965C76.3978 8.37522 76.4125 7.95445 76.4857 7.55929C76.5588 7.16413 76.6869 6.79092 76.8589 6.44698C77.0308 6.10305 77.2467 5.78838 77.5541 5.50299C77.8614 5.2176 78.2675 4.95781 78.7432 4.75658C79.2188 4.55534 79.7677 4.41264 80.3787 4.3358C80.9897 4.25897 81.6593 4.25531 82.2667 4.28824C82.8777 4.32117 83.4266 4.398 83.9388 4.51509C84.4511 4.63217 84.9304 4.79316 85.4133 5.04929C85.8963 5.30541 86.3866 5.65666 86.7744 6.00792C87.1659 6.35917 87.4587 6.71042 87.6892 7.03972C87.9197 7.36902 88.0807 7.67271 88.2124 7.96542C88.3441 8.25813 88.4429 8.54353 88.4941 8.77038C88.5453 9.00089 88.549 9.17286 88.5307 9.27896C88.5124 9.38141 88.4758 9.418 88.3551 9.4363C88.2343 9.45459 88.0294 9.45825 87.305 9.46191C86.5805 9.46191 85.3328 9.46191 84.6596 9.44361C83.9864 9.42166 83.8839 9.38141 83.7998 9.28994C83.7193 9.19847 83.6571 9.05577 83.5802 8.88746C83.5034 8.72281 83.4156 8.53255 83.2839 8.38985C83.1521 8.24716 82.9765 8.14837 82.7863 8.09348C82.5923 8.0386 82.3801 8.02762 82.1972 8.03494C82.0142 8.0386 81.8569 8.06055 81.7179 8.13007C81.5825 8.19959 81.4654 8.32033 81.4069 8.46303C81.3483 8.60573 81.3447 8.77404 81.4069 8.93137C81.4691 9.0887 81.5935 9.23872 81.8789 9.39239C82.1606 9.54241 82.6033 9.69242 83.1412 9.87902C83.679 10.062 84.3193 10.2815 84.9194 10.5193C85.5194 10.7535 86.0793 11.006 86.5915 11.284C87.1037 11.5621 87.5721 11.8621 87.9563 12.2207C88.3405 12.5793 88.6405 12.9964 88.8564 13.4172C89.0722 13.8379 89.2076 14.266 89.3027 14.7271C89.3979 15.1881 89.4564 15.682 89.4564 16.1357C89.4564 16.5894 89.4052 16.9992 89.2771 17.4054C89.1527 17.8152 88.9588 18.2213 88.7283 18.5652C88.4978 18.9128 88.2307 19.1982 87.8245 19.4726C87.4184 19.7471 86.8732 20.0068 86.1854 20.1642C85.4975 20.3215 84.6706 20.3764 83.9352 20.3691C83.1997 20.3617 82.5521 20.2922 81.9374 20.1861C81.3227 20.0764 80.7373 19.9263 80.2397 19.7361C79.7384 19.5458 79.3213 19.3116 78.9188 18.9897C78.5163 18.6677 78.1248 18.2542 77.8138 17.8481C77.5028 17.442 77.265 17.0468 77.0674 16.5894C76.8662 16.1321 76.7052 15.6125 76.6174 15.2942C76.5296 14.9759 76.5222 14.8551 76.5369 14.7746C76.5552 14.6905 76.5954 14.6466 76.6576 14.6209C76.7198 14.5953 76.8003 14.5917 76.8625 14.5917C76.9247 14.5917 76.9686 14.5917 77.6638 14.5917L77.6748 14.5807Z" fill="black"/>
<path d="M89.9065 5.70058C90.0345 5.70424 90.1223 5.67497 90.1223 5.53227C90.1223 5.3786 89.9613 5.3786 89.8516 5.3786H89.5772V5.70058H89.9101H89.9065ZM90.3053 6.35186H90.0455L89.7967 5.87255H89.5735L89.5698 6.35186H89.3466L89.3503 5.2176L89.9028 5.22126C89.9979 5.22126 90.126 5.22492 90.2101 5.27615C90.3126 5.34201 90.3419 5.45177 90.3419 5.57252C90.3419 5.78107 90.2321 5.86523 90.0309 5.87986L90.3053 6.36284V6.35186ZM90.6382 5.78107C90.6419 5.30542 90.2614 4.92489 89.7857 4.92123C89.3101 4.91758 88.9259 5.2981 88.9222 5.7701C88.9186 6.24575 89.2991 6.62994 89.7747 6.63359C90.2467 6.63725 90.6309 6.25673 90.6346 5.78107H90.6382ZM88.7283 5.7701C88.732 5.19199 89.204 4.72 89.7894 4.72365C90.3675 4.72731 90.8395 5.20297 90.8358 5.78107C90.8322 6.36284 90.3565 6.83483 89.7784 6.83117C89.193 6.82752 88.7246 6.35186 88.7283 5.7701Z" fill="black"/>
<path fill-rule="evenodd" clip-rule="evenodd" d="M32.0264 0.428223C30.3507 0.428223 28.9896 1.78933 28.9896 3.4651C28.9896 5.14087 30.3507 6.50198 32.0264 6.50198C33.7022 6.50198 35.0633 5.14087 35.0633 3.4651C35.0633 1.78933 33.7022 0.428223 32.0264 0.428223ZM31.0971 4.06516C31.1959 4.04687 31.3861 4.01394 31.4886 3.99564C31.591 3.97735 31.602 3.97735 31.613 3.98101C31.6203 3.98101 31.624 3.98832 31.6276 3.99564C31.6313 4.00662 31.6349 4.02125 31.6386 4.04321C31.6423 4.06516 31.6496 4.09077 31.6569 4.12004C31.6679 4.14931 31.6788 4.17859 31.7008 4.20786C31.7228 4.23347 31.752 4.25908 31.7923 4.27372C31.8289 4.28835 31.8764 4.29933 31.9313 4.29933C31.9862 4.29933 32.0484 4.28835 32.1069 4.27372C32.1618 4.25908 32.2094 4.23713 32.246 4.21152C32.2826 4.1859 32.3118 4.16029 32.3301 4.12736C32.3484 4.09809 32.3594 4.06516 32.3631 4.03589C32.3667 4.00662 32.3594 3.98101 32.3484 3.95539C32.3374 3.93344 32.3155 3.91515 32.2862 3.89685C32.257 3.88222 32.2204 3.86758 32.1728 3.85294C32.1289 3.84197 32.074 3.83099 32.0081 3.82001C31.9423 3.80904 31.8618 3.79806 31.7703 3.78343C31.6788 3.76879 31.5727 3.74684 31.4996 3.7322C31.43 3.71391 31.3935 3.70293 31.3605 3.68464C31.3239 3.66634 31.291 3.64439 31.2617 3.61512C31.2325 3.5895 31.2068 3.55657 31.1812 3.51999C31.1593 3.4834 31.1373 3.44315 31.119 3.39924C31.1007 3.35534 31.0861 3.31143 31.0788 3.26386C31.0715 3.2163 31.0642 3.16873 31.0642 3.11019C31.0642 3.05165 31.0678 2.98579 31.0788 2.92359C31.0898 2.86138 31.1044 2.79918 31.13 2.74064C31.1556 2.6821 31.1886 2.63087 31.2288 2.57965C31.269 2.52843 31.3203 2.4772 31.3678 2.43695C31.4154 2.39305 31.463 2.36012 31.5215 2.32719C31.5801 2.29426 31.6496 2.26133 31.7264 2.23206C31.8032 2.20644 31.8801 2.18815 31.9606 2.17351C32.0411 2.16254 32.1216 2.15522 32.2057 2.15888C32.2862 2.16254 32.3704 2.17351 32.4472 2.19547C32.524 2.21742 32.5972 2.24669 32.6594 2.28694C32.7216 2.32719 32.7692 2.37475 32.8168 2.42964C32.8607 2.48452 32.9046 2.54672 32.9338 2.60892C32.9631 2.67478 32.9814 2.74064 32.9924 2.78455C33.0034 2.82845 33.0034 2.84675 33.0034 2.85773C33.0034 2.8687 33.0034 2.87602 32.9997 2.88334C32.996 2.89066 32.9924 2.89432 32.9668 2.89797C32.9412 2.90163 32.8973 2.90895 32.7985 2.92359C32.6997 2.93822 32.5497 2.96018 32.4655 2.97115C32.385 2.98213 32.374 2.98213 32.3667 2.97847C32.3594 2.97481 32.3521 2.96749 32.3448 2.9492C32.3374 2.9309 32.3338 2.90895 32.3228 2.87968C32.3118 2.85041 32.2935 2.82114 32.2752 2.79918C32.2569 2.77723 32.235 2.76259 32.2057 2.75162C32.1801 2.74064 32.1508 2.73332 32.1106 2.73332C32.0703 2.73332 32.0228 2.73698 31.9752 2.74796C31.9313 2.75894 31.8874 2.77357 31.8545 2.78821C31.8215 2.80284 31.7959 2.82114 31.7776 2.83943C31.7557 2.85773 31.741 2.87968 31.7337 2.90529C31.7228 2.9309 31.7191 2.96383 31.7228 2.98945C31.7264 3.01872 31.7374 3.04067 31.763 3.06262C31.7886 3.08458 31.8289 3.10653 31.8947 3.12483C31.9606 3.13946 32.0521 3.15044 32.1399 3.16507C32.2277 3.17605 32.3192 3.18703 32.3923 3.20166C32.4655 3.2163 32.524 3.23093 32.5753 3.24923C32.6265 3.26752 32.6741 3.28948 32.7216 3.32241C32.7692 3.35168 32.8131 3.38827 32.8497 3.42485C32.8863 3.46144 32.9155 3.49803 32.9412 3.54194C32.9668 3.58219 32.9924 3.62975 33.0107 3.68098C33.029 3.7322 33.0436 3.7944 33.0473 3.86026C33.0509 3.92612 33.0436 3.99564 33.0326 4.06882C33.0217 4.142 33.0034 4.21517 32.9778 4.28103C32.9485 4.35055 32.9082 4.41276 32.8716 4.46398C32.8351 4.5152 32.7985 4.55545 32.7582 4.5957C32.718 4.63229 32.6667 4.66888 32.6082 4.70547C32.5497 4.74205 32.4765 4.77499 32.4033 4.8006C32.3301 4.82621 32.2496 4.84816 32.1691 4.86646C32.0886 4.88475 32.0008 4.89939 31.9203 4.90305C31.8398 4.9067 31.7593 4.90305 31.6862 4.89207C31.613 4.88109 31.5435 4.86646 31.4886 4.8445C31.43 4.82255 31.3825 4.79694 31.3349 4.76401C31.2873 4.73108 31.2361 4.69083 31.1922 4.64326C31.1483 4.5957 31.1117 4.54082 31.0824 4.48593C31.0532 4.43105 31.0312 4.36885 31.0129 4.31031C30.9983 4.25176 30.991 4.19322 30.9873 4.15663C30.9837 4.12004 30.9837 4.10907 30.9837 4.09809C30.9837 4.09077 30.9873 4.08345 30.991 4.08345C30.9946 4.0798 30.9983 4.0798 31.0971 4.0615V4.06516Z" fill="black"/>
</g>
<defs>
<clipPath id="clip0_1233_3537">
<rect width="90.6271" height="27.749" fill="white" transform="translate(0.212402 0.113281)"/>
</clipPath>
</defs>
</svg>
