<svg width="113" height="28" viewBox="0 0 113 28" fill="none" xmlns="http://www.w3.org/2000/svg">
<g clip-path="url(#clip0_1233_3551)">
<path d="M112.34 4.07893C112.34 5.88115 110.921 7.2993 109.08 7.2993C107.258 7.2993 105.804 5.88115 105.804 4.07893C105.804 2.31281 107.258 0.897949 109.08 0.897949C110.921 0.897949 112.34 2.31281 112.34 4.07893ZM106.618 4.07893C106.618 5.49379 107.665 6.61977 109.099 6.61977C110.498 6.61977 111.525 5.49379 111.525 4.10191C111.525 2.68376 110.498 1.54137 109.08 1.54137C107.665 1.54137 106.618 2.68376 106.618 4.07893ZM108.574 5.74656H107.839V2.5623C108.131 2.50649 108.535 2.4671 109.06 2.4671C109.661 2.4671 109.933 2.5623 110.163 2.70018C110.34 2.83477 110.475 3.08754 110.475 3.39612C110.475 3.74409 110.202 4.01656 109.815 4.13473V4.17413C110.124 4.29231 110.301 4.5221 110.396 4.95214C110.495 5.4347 110.55 5.62838 110.629 5.74656H109.835C109.74 5.62838 109.677 5.33622 109.582 4.96855C109.526 4.6173 109.329 4.46301 108.922 4.46301H108.571V5.74656H108.574ZM108.597 3.94105H108.945C109.352 3.94105 109.681 3.80318 109.681 3.47819C109.681 3.1893 109.467 2.99234 109.004 2.99234C108.807 2.99234 108.673 3.01204 108.597 3.03173V3.94434V3.94105Z" fill="black"/>
<path d="M112.34 4.07893C112.34 5.88115 110.921 7.2993 109.08 7.2993C107.258 7.2993 105.804 5.88115 105.804 4.07893C105.804 2.31281 107.258 0.897949 109.08 0.897949C110.921 0.897949 112.34 2.31281 112.34 4.07893ZM106.618 4.07893C106.618 5.49379 107.665 6.61977 109.099 6.61977C110.498 6.61977 111.525 5.49379 111.525 4.10191C111.525 2.68376 110.498 1.54137 109.08 1.54137C107.665 1.54137 106.618 2.68376 106.618 4.07893ZM108.574 5.74656H107.839V2.5623C108.131 2.50649 108.535 2.4671 109.06 2.4671C109.661 2.4671 109.933 2.5623 110.163 2.70018C110.34 2.83477 110.475 3.08754 110.475 3.39612C110.475 3.74409 110.202 4.01656 109.815 4.13473V4.17413C110.124 4.29231 110.301 4.5221 110.396 4.95214C110.495 5.4347 110.55 5.62838 110.629 5.74656H109.835C109.74 5.62838 109.677 5.33622 109.582 4.96855C109.526 4.6173 109.329 4.46301 108.922 4.46301H108.571V5.74656H108.574ZM108.597 3.94105H108.945C109.352 3.94105 109.681 3.80318 109.681 3.47819C109.681 3.1893 109.467 2.99234 109.004 2.99234C108.807 2.99234 108.673 3.01204 108.597 3.03173V3.94434V3.94105Z" fill="black"/>
<path d="M95.0888 24.7698C94.9509 26.1092 95.4105 26.3817 95.985 26.5261V27.5175H90.2139L90.1614 26.4933C90.5126 26.4211 90.8278 26.2701 91.0411 25.8138C91.2545 25.3575 91.3891 24.6648 91.5139 24.1494C91.6386 23.634 91.7896 22.9184 91.9734 21.9861L94.6062 5.47388C94.8262 4.41683 94.8885 3.69791 94.9279 3.32368C95.0494 2.28305 94.731 2.41436 94.4618 2.32244V1.33105H102.019V2.32244C101.736 2.40123 101.47 2.61789 101.47 3.2055C101.47 3.33681 104.799 25.8728 104.993 26.1355C105.246 26.49 105.285 26.4867 105.515 26.5524V27.4978L99.9013 27.5142V26.5228C100.207 26.4703 100.377 26.316 100.495 25.8269C100.578 25.5019 100.594 25.2097 100.495 23.8868C100.413 22.8199 100.256 21.4576 100.157 21.2114C99.7929 20.3119 99.2973 19.6127 98.8541 19.0316C98.0071 17.9253 96.7597 17.3443 96.2148 17.2852C96.2148 17.2852 95.1643 24.1199 95.0986 24.7633L95.0888 24.7698ZM97.7708 5.62817L96.7531 13.1161C97.8594 13.5888 99.143 14.3209 99.5303 15.3549L98.5783 5.65771L97.7708 5.62488V5.62817Z" fill="black"/>
<path d="M95.0888 24.7698C94.9509 26.1092 95.4105 26.3817 95.985 26.5261V27.5175H90.2139L90.1614 26.4933C90.5126 26.4211 90.8278 26.2701 91.0411 25.8138C91.2545 25.3575 91.3891 24.6648 91.5139 24.1494C91.6386 23.634 91.7896 22.9184 91.9734 21.9861L94.6062 5.47388C94.8262 4.41683 94.8885 3.69791 94.9279 3.32368C95.0494 2.28305 94.731 2.41436 94.4618 2.32244V1.33105H102.019V2.32244C101.736 2.40123 101.47 2.61789 101.47 3.2055C101.47 3.33681 104.799 25.8728 104.993 26.1355C105.246 26.49 105.285 26.4867 105.515 26.5524V27.4978L99.9013 27.5142V26.5228C100.207 26.4703 100.377 26.316 100.495 25.8269C100.578 25.5019 100.594 25.2097 100.495 23.8868C100.413 22.8199 100.256 21.4576 100.157 21.2114C99.7929 20.3119 99.2973 19.6127 98.8541 19.0316C98.0071 17.9253 96.7597 17.3443 96.2148 17.2852C96.2148 17.2852 95.1643 24.1199 95.0986 24.7633L95.0888 24.7698ZM97.7708 5.62817L96.7531 13.1161C97.8594 13.5888 99.143 14.3209 99.5303 15.3549L98.5783 5.65771L97.7708 5.62488V5.62817Z" fill="black"/>
<path d="M28.7478 3.28108C28.9021 2.67049 29.168 2.36519 29.5455 2.36519V1.38037H23.5939C23.0325 1.39678 21.25 1.4887 20.3932 1.85965C19.0768 2.421 18.1642 3.52072 17.7933 4.14772C17.0251 5.4083 16.467 6.61963 16.2766 8.5663C16.037 11.0251 16.1979 13.4018 16.1979 15.5027C16.1979 17.2689 16.2766 27.4815 16.2766 27.4815L20.344 27.511C20.344 27.511 20.2225 17.6365 20.2225 16.0969C20.2225 14.902 20.2586 12.824 20.3046 11.3402C20.3538 9.65945 20.4359 8.89457 20.6328 7.74233C20.8725 6.35701 21.122 5.48708 21.5914 4.77145C22.1889 3.85884 22.9308 3.88839 23.5446 3.91137C24.0567 3.92778 24.5229 4.44645 24.5032 4.90604C24.4704 5.69061 24.5492 6.38984 24.5492 7.53552L24.6772 20.4104C24.6772 21.4543 24.5754 27.5044 24.5754 27.5044L29.5521 27.511L29.5094 26.385C29.1483 26.3062 28.7215 25.8204 28.7084 25.4298C28.6788 24.6255 28.6788 23.7818 28.6788 22.3702L28.7084 6.34716C28.7084 4.93558 28.6001 3.88839 28.7543 3.28108H28.7478Z" fill="black"/>
<path d="M28.7478 3.28108C28.9021 2.67049 29.168 2.36519 29.5455 2.36519V1.38037H23.5939C23.0325 1.39678 21.25 1.4887 20.3932 1.85965C19.0768 2.421 18.1642 3.52072 17.7933 4.14772C17.0251 5.4083 16.467 6.61963 16.2766 8.5663C16.037 11.0251 16.1979 13.4018 16.1979 15.5027C16.1979 17.2689 16.2766 27.4815 16.2766 27.4815L20.344 27.511C20.344 27.511 20.2225 17.6365 20.2225 16.0969C20.2225 14.902 20.2586 12.824 20.3046 11.3402C20.3538 9.65945 20.4359 8.89457 20.6328 7.74233C20.8725 6.35701 21.122 5.48708 21.5914 4.77145C22.1889 3.85884 22.9308 3.88839 23.5446 3.91137C24.0567 3.92778 24.5229 4.44645 24.5032 4.90604C24.4704 5.69061 24.5492 6.38984 24.5492 7.53552L24.6772 20.4104C24.6772 21.4543 24.5754 27.5044 24.5754 27.5044L29.5521 27.511L29.5094 26.385C29.1483 26.3062 28.7215 25.8204 28.7084 25.4298C28.6788 24.6255 28.6788 23.7818 28.6788 22.3702L28.7084 6.34716C28.7084 4.93558 28.6001 3.88839 28.7543 3.28108H28.7478Z" fill="black"/>
<path d="M12.2578 27.8623C12.1593 27.58 12.0444 27.406 11.9131 27.3371C11.7818 27.2714 11.6143 27.1697 11.3583 27.2386C11.3583 27.2386 9.91059 27.7244 8.56467 27.7835C7.21546 27.8361 6.55891 27.4191 5.59378 26.7528C4.67133 26.1192 3.89004 25.2427 3.14486 24.0412C2.39967 22.8463 1.81863 21.3526 1.39515 19.5603C0.971679 17.7744 0.758301 15.7326 0.758301 13.4347C0.758301 11.3797 0.938852 9.53804 1.29011 7.90652C1.64792 6.27171 2.14362 4.9028 2.78047 3.78667C3.41732 2.67382 4.15266 1.83672 4.98647 1.26881C5.82029 0.704175 6.70663 0.425142 7.65206 0.425142C8.4432 0.425142 9.34268 0.622107 10.3505 1.0226C10.6459 1.12437 10.879 1.17361 11.0399 1.17361C11.4699 1.17361 11.7818 0.819071 11.9754 0.113281L13.039 11.314L12.6451 11.5438C12.4219 10.1683 12.11 8.89462 11.7063 7.71283C11.2992 6.53433 10.8232 5.57905 10.2553 4.85685C9.68736 4.13136 9.07349 3.77682 8.40053 3.77682C7.65863 3.77682 7.02178 4.18717 6.48669 5.0177C5.94832 5.84824 5.55111 6.94467 5.28192 8.30373C5.01274 9.6595 4.88143 11.1138 4.88143 12.6501C4.88143 14.0354 4.97334 15.4076 5.16046 16.7699C5.34758 18.1323 5.62333 19.3403 5.98115 20.3842C6.40134 21.5824 6.93314 22.5311 7.57328 23.2337C8.21341 23.9329 8.87981 24.2874 9.57903 24.2874C10.4194 24.2874 11.1777 23.8048 11.8441 22.843C12.5138 21.8779 13.0029 20.5713 13.3082 18.9234L13.735 19.2385L12.2545 27.8689L12.2578 27.8623Z" fill="black"/>
<path d="M12.2578 27.8623C12.1593 27.58 12.0444 27.406 11.9131 27.3371C11.7818 27.2714 11.6143 27.1697 11.3583 27.2386C11.3583 27.2386 9.91059 27.7244 8.56467 27.7835C7.21546 27.8361 6.55891 27.4191 5.59378 26.7528C4.67133 26.1192 3.89004 25.2427 3.14486 24.0412C2.39967 22.8463 1.81863 21.3526 1.39515 19.5603C0.971679 17.7744 0.758301 15.7326 0.758301 13.4347C0.758301 11.3797 0.938852 9.53804 1.29011 7.90652C1.64792 6.27171 2.14362 4.9028 2.78047 3.78667C3.41732 2.67382 4.15266 1.83672 4.98647 1.26881C5.82029 0.704175 6.70663 0.425142 7.65206 0.425142C8.4432 0.425142 9.34268 0.622107 10.3505 1.0226C10.6459 1.12437 10.879 1.17361 11.0399 1.17361C11.4699 1.17361 11.7818 0.819071 11.9754 0.113281L13.039 11.314L12.6451 11.5438C12.4219 10.1683 12.11 8.89462 11.7063 7.71283C11.2992 6.53433 10.8232 5.57905 10.2553 4.85685C9.68736 4.13136 9.07349 3.77682 8.40053 3.77682C7.65863 3.77682 7.02178 4.18717 6.48669 5.0177C5.94832 5.84824 5.55111 6.94467 5.28192 8.30373C5.01274 9.6595 4.88143 11.1138 4.88143 12.6501C4.88143 14.0354 4.97334 15.4076 5.16046 16.7699C5.34758 18.1323 5.62333 19.3403 5.98115 20.3842C6.40134 21.5824 6.93314 22.5311 7.57328 23.2337C8.21341 23.9329 8.87981 24.2874 9.57903 24.2874C10.4194 24.2874 11.1777 23.8048 11.8441 22.843C12.5138 21.8779 13.0029 20.5713 13.3082 18.9234L13.735 19.2385L12.2545 27.8689L12.2578 27.8623Z" fill="black"/>
<path d="M57.6063 15.7163C57.2157 14.5575 56.7036 13.6285 56.0634 12.9391C55.4233 12.2497 54.9046 11.8361 53.8279 11.5111C52.7085 11.1697 50.8439 11.3798 50.3285 11.4947V10.0766C50.3318 10.0766 50.3351 10.0766 50.3383 10.0766V7.72611L50.3416 3.96737C50.3416 3.96737 51.4118 3.95424 52.1406 3.95424C52.7741 3.9805 53.3552 4.2464 53.8771 4.74538C54.4089 5.24435 55.3412 6.69861 55.7779 8.00514L56.1554 7.72939L55.5875 0.697754C55.5349 0.953808 55.4364 1.12779 55.2986 1.20658C55.1607 1.29521 54.9342 1.33461 54.6322 1.33461H45.4832L45.4667 2.326C45.8475 2.326 46.1134 2.63129 46.2677 3.24516C46.422 3.85575 46.5008 4.8734 46.5008 6.29812V8.16271C46.4975 8.16271 46.4942 8.16271 46.491 8.16271V22.4952C46.491 23.9199 46.4155 24.9375 46.2579 25.5481C46.1036 26.162 45.8344 26.4706 45.4536 26.4706V27.4587H52.7019C53.4668 27.4587 54.1463 27.3701 54.7503 27.1862C55.3544 27.0089 55.8829 26.6314 56.3392 26.0734C56.9301 25.3774 57.3897 24.4977 57.7114 23.4406C58.0331 22.377 58.1972 21.1755 58.1972 19.8394C58.1972 18.2506 58.0003 16.8718 57.6063 15.7065V15.7163ZM53.8739 22.4065C53.6375 23.2174 53.3092 23.8214 52.889 24.2317C52.4656 24.6421 51.9896 24.8489 51.4545 24.8489C51.0967 24.8489 50.8373 24.7767 50.6797 24.6191C50.5222 24.4681 50.427 24.2219 50.3876 23.8838C50.3482 23.5457 50.3285 22.9909 50.3285 22.2194V14.3573C50.3285 14.3573 52.8102 13.7073 53.6835 15.7097C54.1332 16.7438 54.2284 18.0372 54.2284 19.4488C54.2284 20.6109 54.1102 21.5957 53.8739 22.4065Z" fill="black"/>
<path d="M57.6063 15.7163C57.2157 14.5575 56.7036 13.6285 56.0634 12.9391C55.4233 12.2497 54.9046 11.8361 53.8279 11.5111C52.7085 11.1697 50.8439 11.3798 50.3285 11.4947V10.0766C50.3318 10.0766 50.3351 10.0766 50.3383 10.0766V7.72611L50.3416 3.96737C50.3416 3.96737 51.4118 3.95424 52.1406 3.95424C52.7741 3.9805 53.3552 4.2464 53.8771 4.74538C54.4089 5.24435 55.3412 6.69861 55.7779 8.00514L56.1554 7.72939L55.5875 0.697754C55.5349 0.953808 55.4364 1.12779 55.2986 1.20658C55.1607 1.29521 54.9342 1.33461 54.6322 1.33461H45.4832L45.4667 2.326C45.8475 2.326 46.1134 2.63129 46.2677 3.24516C46.422 3.85575 46.5008 4.8734 46.5008 6.29812V8.16271C46.4975 8.16271 46.4942 8.16271 46.491 8.16271V22.4952C46.491 23.9199 46.4155 24.9375 46.2579 25.5481C46.1036 26.162 45.8344 26.4706 45.4536 26.4706V27.4587H52.7019C53.4668 27.4587 54.1463 27.3701 54.7503 27.1862C55.3544 27.0089 55.8829 26.6314 56.3392 26.0734C56.9301 25.3774 57.3897 24.4977 57.7114 23.4406C58.0331 22.377 58.1972 21.1755 58.1972 19.8394C58.1972 18.2506 58.0003 16.8718 57.6063 15.7065V15.7163ZM53.8739 22.4065C53.6375 23.2174 53.3092 23.8214 52.889 24.2317C52.4656 24.6421 51.9896 24.8489 51.4545 24.8489C51.0967 24.8489 50.8373 24.7767 50.6797 24.6191C50.5222 24.4681 50.427 24.2219 50.3876 23.8838C50.3482 23.5457 50.3285 22.9909 50.3285 22.2194V14.3573C50.3285 14.3573 52.8102 13.7073 53.6835 15.7097C54.1332 16.7438 54.2284 18.0372 54.2284 19.4488C54.2284 20.6109 54.1102 21.5957 53.8739 22.4065Z" fill="black"/>
<path d="M88.9861 26.523C88.6086 26.523 88.3427 26.2145 88.1884 25.6039C88.1129 25.292 88.0538 24.8718 88.021 24.3564H87.8043C87.7977 23.841 87.7977 23.2501 87.7977 22.4918L87.8273 6.38013C87.8273 4.96198 87.7189 3.9115 87.8765 3.29763C88.0308 2.68376 88.2967 2.37518 88.6742 2.37518V1.38379H82.7226C82.1613 1.4002 80.3754 1.49212 79.5186 1.86635C78.2023 2.43427 77.2929 3.53399 76.9187 4.16756C76.1506 5.4347 75.5925 6.65259 75.4054 8.61239C75.1624 11.0843 75.32 13.4741 75.32 15.5882C75.32 16.7306 75.3561 21.3527 75.3791 24.5304L74.9556 24.537C74.9556 24.537 74.7554 26.6741 74.089 27.5177H88.9861V26.5296V26.523ZM79.4563 24.4516C79.4563 24.4188 79.3447 17.141 79.3447 16.1791C79.3447 14.9776 79.3775 12.8898 79.4267 11.3962C79.4793 9.70226 79.5548 8.93082 79.755 7.77857C79.9946 6.38013 80.2441 5.50692 80.7136 4.78799C81.311 3.86883 82.1219 4.00014 82.739 4.00014C83.2117 4.00014 83.6451 4.45972 83.6254 4.92587C83.5925 5.72029 83.6746 6.4228 83.6746 7.56848L83.8026 20.5222C83.8026 21.0343 83.7764 22.7545 83.7534 24.3794L79.4596 24.4516H79.4563Z" fill="black"/>
<path d="M88.9861 26.523C88.6086 26.523 88.3427 26.2145 88.1884 25.6039C88.1129 25.292 88.0538 24.8718 88.021 24.3564H87.8043C87.7977 23.841 87.7977 23.2501 87.7977 22.4918L87.8273 6.38013C87.8273 4.96198 87.7189 3.9115 87.8765 3.29763C88.0308 2.68376 88.2967 2.37518 88.6742 2.37518V1.38379H82.7226C82.1613 1.4002 80.3754 1.49212 79.5186 1.86635C78.2023 2.43427 77.2929 3.53399 76.9187 4.16756C76.1506 5.4347 75.5925 6.65259 75.4054 8.61239C75.1624 11.0843 75.32 13.4741 75.32 15.5882C75.32 16.7306 75.3561 21.3527 75.3791 24.5304L74.9556 24.537C74.9556 24.537 74.7554 26.6741 74.089 27.5177H88.9861V26.5296V26.523ZM79.4563 24.4516C79.4563 24.4188 79.3447 17.141 79.3447 16.1791C79.3447 14.9776 79.3775 12.8898 79.4267 11.3962C79.4793 9.70226 79.5548 8.93082 79.755 7.77857C79.9946 6.38013 80.2441 5.50692 80.7136 4.78799C81.311 3.86883 82.1219 4.00014 82.739 4.00014C83.2117 4.00014 83.6451 4.45972 83.6254 4.92587C83.5925 5.72029 83.6746 6.4228 83.6746 7.56848L83.8026 20.5222C83.8026 21.0343 83.7764 22.7545 83.7534 24.3794L79.4596 24.4516H79.4563Z" fill="black"/>
<path d="M32.5919 24.2909C32.1552 23.444 31.7909 22.4657 31.4987 21.3561C31.2032 20.2466 30.9833 19.0713 30.8389 17.8206C30.6977 16.5732 30.6255 15.2995 30.6255 13.9995C30.6255 11.9215 30.7995 10.0307 31.154 8.33677C31.5053 6.63631 31.9977 5.19846 32.628 4.01339C33.2615 2.83489 33.9969 1.92885 34.8372 1.31169C35.6809 0.687973 36.5902 0.379395 37.5554 0.379395C38.1561 0.379395 38.7437 0.494291 39.3215 0.727365C39.896 0.96044 40.454 1.33467 40.9891 1.85335C41.5242 2.36874 41.9871 3.01872 42.3876 3.80001C43.0441 5.06715 43.5365 6.62317 43.8615 8.47792C44.1898 10.3294 44.3539 12.2629 44.3539 14.2785C44.3539 15.5063 44.2883 16.7209 44.1471 17.9191C44.006 19.1173 43.7991 20.2498 43.5234 21.3069C43.2476 22.3672 42.9062 23.2962 42.5025 24.0874C41.8886 25.2856 41.1401 26.2015 40.2439 26.8285C39.3477 27.462 38.4548 27.7805 37.5554 27.7805C36.6296 27.7805 35.7236 27.4916 34.8372 26.9171C33.9542 26.3393 33.2024 25.4628 32.5919 24.2811V24.2909ZM39.8631 20.9655C40.1126 19.6228 40.2374 17.8764 40.2374 15.7164C40.2374 12.7258 40.0634 10.2539 39.7154 8.28753C39.5677 7.50295 39.374 6.7709 39.1311 6.08152C38.8882 5.39871 38.6026 4.84064 38.271 4.40732C37.9427 3.97072 37.5849 3.75734 37.2074 3.75734C36.7544 3.75734 36.3539 4.07248 36.0125 4.70933C35.6743 5.33962 35.392 6.15374 35.1819 7.14185C34.8963 8.54358 34.7486 10.3425 34.7486 12.5452C34.7486 15.4538 34.9423 17.9289 35.3297 19.9774C35.5726 21.2281 35.9041 22.2819 36.3276 23.1354C36.7511 23.9889 37.2369 24.4156 37.7884 24.4156C38.2677 24.4156 38.6912 24.0939 39.0523 23.4505C39.4134 22.8071 39.6859 21.9766 39.8664 20.9655H39.8631Z" fill="black"/>
<path d="M32.5919 24.2909C32.1552 23.444 31.7909 22.4657 31.4987 21.3561C31.2032 20.2466 30.9833 19.0713 30.8389 17.8206C30.6977 16.5732 30.6255 15.2995 30.6255 13.9995C30.6255 11.9215 30.7995 10.0307 31.154 8.33677C31.5053 6.63631 31.9977 5.19846 32.628 4.01339C33.2615 2.83489 33.9969 1.92885 34.8372 1.31169C35.6809 0.687973 36.5902 0.379395 37.5554 0.379395C38.1561 0.379395 38.7437 0.494291 39.3215 0.727365C39.896 0.96044 40.454 1.33467 40.9891 1.85335C41.5242 2.36874 41.9871 3.01872 42.3876 3.80001C43.0441 5.06715 43.5365 6.62317 43.8615 8.47792C44.1898 10.3294 44.3539 12.2629 44.3539 14.2785C44.3539 15.5063 44.2883 16.7209 44.1471 17.9191C44.006 19.1173 43.7991 20.2498 43.5234 21.3069C43.2476 22.3672 42.9062 23.2962 42.5025 24.0874C41.8886 25.2856 41.1401 26.2015 40.2439 26.8285C39.3477 27.462 38.4548 27.7805 37.5554 27.7805C36.6296 27.7805 35.7236 27.4916 34.8372 26.9171C33.9542 26.3393 33.2024 25.4628 32.5919 24.2811V24.2909ZM39.8631 20.9655C40.1126 19.6228 40.2374 17.8764 40.2374 15.7164C40.2374 12.7258 40.0634 10.2539 39.7154 8.28753C39.5677 7.50295 39.374 6.7709 39.1311 6.08152C38.8882 5.39871 38.6026 4.84064 38.271 4.40732C37.9427 3.97072 37.5849 3.75734 37.2074 3.75734C36.7544 3.75734 36.3539 4.07248 36.0125 4.70933C35.6743 5.33962 35.392 6.15374 35.1819 7.14185C34.8963 8.54358 34.7486 10.3425 34.7486 12.5452C34.7486 15.4538 34.9423 17.9289 35.3297 19.9774C35.5726 21.2281 35.9041 22.2819 36.3276 23.1354C36.7511 23.9889 37.2369 24.4156 37.7884 24.4156C38.2677 24.4156 38.6912 24.0939 39.0523 23.4505C39.4134 22.8071 39.6859 21.9766 39.8664 20.9655H39.8631Z" fill="black"/>
<path d="M61.5129 24.2909C61.0763 23.444 60.7119 22.4657 60.4197 21.3561C60.1243 20.2466 59.9043 19.0713 59.7632 17.8206C59.6187 16.5732 59.5465 15.2995 59.5465 13.9995C59.5465 11.9215 59.7205 10.0307 60.075 8.33677C60.423 6.63631 60.9154 5.19846 61.549 4.01339C62.1793 2.83489 62.9146 1.92885 63.755 1.31169C64.5954 0.687973 65.5047 0.379395 66.4665 0.379395C67.0673 0.379395 67.6549 0.494291 68.2326 0.727365C68.8071 0.96044 69.3652 1.33467 69.897 1.85335C70.4321 2.36874 70.895 3.01872 71.2954 3.80001C71.9487 5.06715 72.4378 6.62317 72.7661 8.47792C73.0944 10.3294 73.2552 12.2629 73.2552 14.2785C73.2552 15.5063 73.1863 16.7209 73.0517 17.9191C72.9106 19.1173 72.7037 20.2498 72.428 21.3069C72.1522 22.3672 71.8076 23.2962 71.4038 24.0874C70.7965 25.2856 70.0447 26.2015 69.1551 26.8285C68.2556 27.462 67.366 27.7805 66.4698 27.7805C65.5474 27.7805 64.6446 27.4916 63.7583 26.9171C62.8752 26.3393 62.1267 25.4628 61.5162 24.2811L61.5129 24.2909ZM68.771 20.9655C69.0205 19.6228 69.1453 17.8764 69.1453 15.7164C69.1453 12.7258 68.9713 10.2539 68.62 8.28753C68.4756 7.50295 68.2786 6.7709 68.039 6.08152C67.796 5.39871 67.5137 4.84064 67.1822 4.40732C66.8506 3.97072 66.4994 3.75734 66.1186 3.75734C65.6688 3.75734 65.265 4.07248 64.9269 4.70933C64.5855 5.33962 64.3065 6.15374 64.0997 7.14185C63.8108 8.54358 63.6664 10.3425 63.6664 12.5452C63.6664 15.4538 63.86 17.9289 64.2474 19.9774C64.4936 21.2281 64.8219 22.2819 65.2421 23.1354C65.6623 23.9889 66.1481 24.4156 66.6996 24.4156C67.1789 24.4156 67.6024 24.0939 67.9635 23.4505C68.3278 22.8071 68.597 21.9766 68.7743 20.9655H68.771Z" fill="black"/>
<path d="M61.5129 24.2909C61.0763 23.444 60.7119 22.4657 60.4197 21.3561C60.1243 20.2466 59.9043 19.0713 59.7632 17.8206C59.6187 16.5732 59.5465 15.2995 59.5465 13.9995C59.5465 11.9215 59.7205 10.0307 60.075 8.33677C60.423 6.63631 60.9154 5.19846 61.549 4.01339C62.1793 2.83489 62.9146 1.92885 63.755 1.31169C64.5954 0.687973 65.5047 0.379395 66.4665 0.379395C67.0673 0.379395 67.6549 0.494291 68.2326 0.727365C68.8071 0.96044 69.3652 1.33467 69.897 1.85335C70.4321 2.36874 70.895 3.01872 71.2954 3.80001C71.9487 5.06715 72.4378 6.62317 72.7661 8.47792C73.0944 10.3294 73.2552 12.2629 73.2552 14.2785C73.2552 15.5063 73.1863 16.7209 73.0517 17.9191C72.9106 19.1173 72.7037 20.2498 72.428 21.3069C72.1522 22.3672 71.8076 23.2962 71.4038 24.0874C70.7965 25.2856 70.0447 26.2015 69.1551 26.8285C68.2556 27.462 67.366 27.7805 66.4698 27.7805C65.5474 27.7805 64.6446 27.4916 63.7583 26.9171C62.8752 26.3393 62.1267 25.4628 61.5162 24.2811L61.5129 24.2909ZM68.771 20.9655C69.0205 19.6228 69.1453 17.8764 69.1453 15.7164C69.1453 12.7258 68.9713 10.2539 68.62 8.28753C68.4756 7.50295 68.2786 6.7709 68.039 6.08152C67.796 5.39871 67.5137 4.84064 67.1822 4.40732C66.8506 3.97072 66.4994 3.75734 66.1186 3.75734C65.6688 3.75734 65.265 4.07248 64.9269 4.70933C64.5855 5.33962 64.3065 6.15374 64.0997 7.14185C63.8108 8.54358 63.6664 10.3425 63.6664 12.5452C63.6664 15.4538 63.86 17.9289 64.2474 19.9774C64.4936 21.2281 64.8219 22.2819 65.2421 23.1354C65.6623 23.9889 66.1481 24.4156 66.6996 24.4156C67.1789 24.4156 67.6024 24.0939 67.9635 23.4505C68.3278 22.8071 68.597 21.9766 68.7743 20.9655H68.771Z" fill="black"/>
</g>
<defs>
<clipPath id="clip0_1233_3551">
<rect width="111.582" height="27.749" fill="white" transform="translate(0.758301 0.113281)"/>
</clipPath>
</defs>
</svg>
