<svg width="105" height="27" viewBox="0 0 105 27" fill="none" xmlns="http://www.w3.org/2000/svg">
<g clip-path="url(#clip0_1233_3573)">
<path fill-rule="evenodd" clip-rule="evenodd" d="M82.7355 14.5382C82.8297 14.7265 83.2639 15.0301 83.443 16.0139C83.5645 16.6941 83.4643 17.3438 83.2669 17.9542C82.9116 19.0442 82.5078 20.1252 82.1313 21.2213C81.9461 21.7648 81.7639 22.2992 81.5665 22.8458C81.4724 23.11 81.3722 23.4014 81.2811 23.6686L81.0716 24.2759C81.0321 24.3974 81.0503 24.3974 80.9137 24.4004C80.191 24.4217 79.4228 24.3974 78.6941 24.3974C77.9563 24.3974 77.2154 24.4035 76.4806 24.3974C76.5079 24.2031 78.5575 18.2274 78.7154 17.7781C78.9097 17.2163 79.4653 15.7285 78.4542 15.7315L75.3237 24.3974H70.6811C70.7023 24.2425 72.5302 19.2841 72.5636 19.196C72.8916 18.3216 73.1861 17.4653 73.5171 16.5848C73.8419 15.7163 74.1577 14.857 74.4674 13.9765C75.0838 12.2306 75.7336 10.4786 76.3682 8.75694L78.1536 3.86532C78.187 3.77726 78.2083 3.61026 78.3024 3.57079C79.3135 3.57079 80.3246 3.57079 81.3358 3.57079C82.2953 3.57079 83.4339 3.51613 84.3691 3.59508C86.1879 3.74993 87.3569 4.83392 87.2051 6.81669C87.1353 7.74582 86.8377 8.44419 86.5614 9.21543C86.2942 9.96542 86.0148 10.7124 85.7416 11.4533C85.447 12.2518 85.0918 12.8834 84.6029 13.348C84.1778 13.7518 83.8408 14.0524 83.273 14.3105C83.1728 14.356 82.8175 14.4836 82.7416 14.5352L82.7355 14.5382ZM51.652 12.4917L47.0063 12.4947C47.0033 12.3915 48.1086 9.44013 48.2391 9.0788C48.3758 8.69925 48.8069 7.67902 48.8282 7.31162C48.8555 6.8683 48.3909 6.8683 48.1025 7.02012C47.8717 7.14158 47.7442 7.43307 47.6318 7.73671C46.7908 10.0292 45.9649 12.3065 45.1359 14.602C44.7199 15.7528 44.304 16.8702 43.888 18.024C43.6785 18.6009 43.4781 19.1657 43.2625 19.7456C43.1562 20.0341 43.056 20.3074 42.9528 20.5958C42.8526 20.8782 42.6977 21.3367 43.0742 21.4065C43.8303 21.5462 43.9821 20.7446 44.1825 20.2193C44.7139 18.8226 45.2301 17.3469 45.7523 15.935C45.8555 15.6587 45.9892 15.3398 46.0681 15.0666L50.7138 15.0635L48.6794 20.6535C48.3363 21.5766 47.9051 22.5452 47.3464 23.1221C46.6572 23.8296 45.9132 24.2486 44.8627 24.4611C43.7483 24.6858 42.5034 24.7587 41.3253 24.6585C40.1016 24.5553 39.2089 24.2365 38.5955 23.5715C37.9184 22.8367 37.9609 21.61 38.2798 20.5381C38.468 19.9096 39.0328 18.4127 39.2909 17.7234C40.3111 14.9846 41.304 12.1091 42.3333 9.34903C42.6856 8.40775 42.9922 7.47558 43.393 6.58288C44.2584 4.66389 45.2726 3.69224 47.8505 3.42504C49.484 3.255 51.5761 3.30662 53.2158 3.59811C53.5801 3.66188 54.4759 3.8471 54.7248 4.01714L51.6459 12.4947L51.652 12.4917ZM82.5898 24.1484C82.5533 24.1423 82.5139 24.1363 82.4774 24.1271C82.4683 24.1241 82.444 24.118 82.438 24.115C82.359 24.0816 82.4167 24.1059 82.3833 24.0816L82.1647 24.0452L82.4774 23.1555C82.6961 22.5573 84.6242 17.2194 84.7153 17.0615L89.3579 17.0554C89.3397 17.186 88.3954 19.6394 88.2648 19.9764C88.0887 20.4379 87.6545 21.2608 88.1525 21.4005C88.7871 21.5796 88.9875 20.9146 89.1818 20.441C89.4399 19.8033 89.6949 19.1444 89.9348 18.5037C90.621 16.6455 89.8134 16.1536 88.6322 14.939C87.8033 14.0858 86.8316 13.1111 87.0077 11.2012C87.1262 9.93202 87.7577 8.21646 88.2557 7.06871C88.8356 5.73269 89.5158 4.68514 90.6332 4.06572C92.37 3.10318 95.6372 3.15176 97.7323 3.4554C98.1877 3.5222 99.6179 3.79244 99.8972 3.98981C99.8577 4.20235 97.9175 9.47656 97.6017 10.3753C97.5713 10.4634 97.5683 10.5211 97.4924 10.5575H92.8497C92.9014 10.2934 93.0805 9.88344 93.1777 9.6132L93.8457 7.75189C93.9762 7.37235 94.0522 6.9594 93.536 6.96851C92.8953 6.97761 92.7587 7.75797 92.4975 8.46241C92.291 9.0211 91.9236 9.81664 92.0147 10.4968C92.1058 11.18 92.6524 11.7083 92.9773 12.0636C93.4752 12.6071 93.706 12.7741 94.1918 13.3814C95.0329 14.432 95.373 15.6556 95.0299 17.353C94.7627 18.6799 94.2556 20.0007 93.7698 21.1515C93.2627 22.3569 92.5097 23.4318 91.4955 23.9389C89.704 24.8377 86.8589 24.783 84.7729 24.5128C84.4025 24.4642 84.0381 24.4095 83.6738 24.3488C83.3792 24.3002 82.8388 24.1545 82.5868 24.1454L82.5898 24.1484ZM21.1819 10.5575L16.4785 10.5636C16.5301 10.351 17.0402 8.99681 17.1586 8.66585C17.2771 8.34095 17.3894 8.04035 17.5017 7.71849C17.6536 7.28429 17.6414 6.91992 17.0979 6.97458C16.7305 7.01101 16.5817 7.29036 16.4633 7.60311C16.3418 7.92193 16.2325 8.22557 16.1141 8.54439C15.4188 10.4118 15.3793 10.7245 16.7062 12.1577C17.2679 12.765 17.3712 12.7741 17.936 13.5119C18.7983 14.6384 18.9926 15.9228 18.6222 17.5959C18.3944 18.6252 17.7507 20.4804 17.2922 21.4065C16.6637 22.6757 16.0959 23.529 14.8328 24.0907C12.9988 24.9075 10.0353 24.7405 7.97052 24.4581C7.55757 24.4004 6.08492 24.1697 5.80558 24.033C5.82987 23.8448 6.03634 23.368 6.11529 23.1525C6.22156 22.8701 6.33087 22.5634 6.43107 22.2841C6.64362 21.695 6.8592 21.1181 7.06871 20.5472C7.28126 19.9612 7.49684 19.3843 7.70332 18.8104C7.80959 18.5189 7.91283 18.2335 8.02214 17.942C8.12234 17.6718 8.27112 17.3287 8.33792 17.0645L12.9988 17.0584C12.9654 17.2345 12.0393 19.6211 11.8935 19.9916C11.7174 20.441 11.2863 21.2729 11.8116 21.4065C12.0302 21.4612 12.2245 21.4096 12.3611 21.3003C12.5676 21.1333 12.7043 20.7385 12.8318 20.4258C13.0838 19.7912 13.3328 19.1323 13.5848 18.4886C13.8945 17.7021 13.9644 17.0402 13.5362 16.3358C12.6709 14.9178 10.3845 14.0372 10.6486 11.18C10.7761 9.80146 11.4016 8.21039 11.8935 7.06871C12.1607 6.44625 12.4978 5.81771 12.8561 5.341C14.268 3.45844 16.4572 3.24589 18.8651 3.27626C19.7183 3.2884 20.5442 3.34002 21.3731 3.46148C21.859 3.53131 23.2162 3.78333 23.5411 3.99284L21.1849 10.5606L21.1819 10.5575ZM24.5553 14.7872L24.528 14.7508C24.5067 14.8935 24.3792 15.2032 24.3215 15.358L21.1424 24.2577C21.109 24.3549 21.1272 24.3458 21.0513 24.3852H17.3651L24.9743 3.57079L30.2607 3.56168C30.1453 5.14667 29.957 6.76203 29.8082 8.34703C29.7718 8.72961 29.3467 12.8652 29.368 13.1324L29.3892 13.2235L32.7353 3.56775L36.4397 3.56168L35.9721 4.88554C35.8142 5.31367 35.6594 5.75395 35.5015 6.18512C34.5602 8.76301 33.6371 11.429 32.6837 13.9917C32.04 15.7194 31.4175 17.4683 30.8011 19.2052L28.9823 24.2425C28.9459 24.3427 28.9611 24.3518 28.8852 24.3883H23.6778L24.5583 14.7933L24.5553 14.7872ZM76.0828 7.06871H72.4968C72.4088 7.08996 72.2691 7.58793 72.2418 7.66384C72.0566 8.19217 70.7084 11.8814 70.6659 12.0848H73.4837L72.2023 15.6161L69.3815 15.6253C69.3177 15.7315 67.4564 20.8084 67.4412 20.9389H71.0242L69.8036 24.3913L61.2197 24.3943C61.25 24.2273 61.3806 23.9359 61.4413 23.7597L63.1053 19.1991C63.752 17.4653 64.3623 15.7133 65.0091 13.9826C66.3026 10.518 67.5172 7.03227 68.8107 3.57079H77.3976L76.0828 7.06567V7.06871ZM35.5743 24.3913L30.4216 24.4004L38.0004 3.57079H43.138L35.5743 24.3883V24.3913ZM58.745 9.76502L58.7632 9.7802C58.8361 9.66178 58.9424 9.52515 59.0335 9.40065C60.2237 7.75493 61.4201 5.97561 62.6073 4.35114C62.7925 4.09912 62.9747 3.79851 63.163 3.57079H68.1426C68.0759 3.72564 65.2156 7.55756 65.1123 7.70028L60.5486 13.8945C60.5031 14.0099 60.6701 20.2102 60.6853 20.8934C60.7005 21.6009 60.7885 23.8782 60.7581 24.3913L55.9364 24.3974L56.0639 17.0797L54.8281 20.7082C54.6277 21.3154 54.4182 21.9227 54.2087 22.5421C54.1054 22.8488 54.0052 23.1464 53.905 23.45C53.8079 23.7537 53.6712 24.0786 53.5953 24.3761L48.6369 24.3974L56.2248 3.57382H61.1316C61.1104 3.7469 59.498 7.78529 59.3402 8.21039C59.246 8.46241 58.7693 9.62838 58.745 9.76806V9.76502ZM3.36128 25.5968C13.5362 25.6302 23.7203 25.5968 33.8952 25.5968L87.2901 25.5907C88.5775 25.5907 89.6403 25.6393 90.8366 25.3144C91.8629 25.035 92.6827 24.5705 93.3477 24.03C95.0147 22.6788 95.3669 21.0938 96.0835 19.1201C96.7667 17.2436 97.4225 15.3763 98.0845 13.4998C99.0683 10.7093 100.122 7.84906 101.084 5.05558L102.077 2.24692C101.513 2.19834 100.741 2.24085 100.155 2.24085C72.8278 2.24388 45.5003 2.29247 18.1758 2.29247C15.5311 2.29247 13.7214 2.39267 12.0605 3.78637C11.3925 4.3481 10.9037 5.07076 10.4786 6.02419C10.2326 6.57378 9.69519 8.14662 9.44621 8.8207L4.36329 22.8033C4.19325 23.2678 4.02321 23.7324 3.85621 24.197C3.77119 24.4338 3.68921 24.6555 3.60116 24.8923C3.53132 25.0866 3.38557 25.4267 3.35825 25.6028L3.36128 25.5968Z" fill="white"/>
<path fill-rule="evenodd" clip-rule="evenodd" d="M3.3578 25.5968C3.38816 25.4207 3.53087 25.0806 3.60071 24.8863C3.68573 24.6495 3.76771 24.4278 3.85577 24.191C4.0258 23.7264 4.1928 23.2618 4.36284 22.7973L9.44576 8.8147C9.69171 8.14062 10.2322 6.56777 10.4781 6.01819C10.9032 5.06476 11.3921 4.3421 12.0601 3.78037C13.721 2.38667 15.5307 2.28647 18.1754 2.28647C45.4998 2.28647 72.8304 2.23788 100.155 2.23485C100.741 2.23485 101.512 2.19234 102.077 2.24092L101.084 5.04958C100.118 7.84306 99.0678 10.7033 98.084 13.4938C97.4221 15.3733 96.7663 17.2407 96.0831 19.1141C95.3665 21.0878 95.0143 22.6728 93.3473 24.024C92.6793 24.5645 91.8594 25.029 90.8362 25.3084C89.6398 25.6363 88.5771 25.5847 87.2897 25.5847L33.8948 25.5908C23.7168 25.5908 13.5358 25.6242 3.36083 25.5908L3.3578 25.5968ZM0.658447 26.9085H90.1985C90.2957 26.866 91.1216 26.7962 91.325 26.7598C93.5507 26.3711 95.4454 25.0928 96.6326 23.1768C97.3735 21.9774 97.6438 20.9147 98.1326 19.6121C98.5972 18.3733 99.0253 17.1162 99.4778 15.8682C99.9302 14.6203 100.373 13.3845 100.817 12.1426C101.263 10.8916 101.728 9.65578 102.162 8.39568C102.59 7.15683 103.049 5.9028 103.498 4.67003L104.503 1.87655C104.612 1.57595 104.752 1.22677 104.837 0.929199H15.2847C15.0145 1.04458 13.2838 0.926163 11.3587 2.10428C8.93261 3.58908 8.30408 5.71455 7.37494 8.27119L0.99245 25.9673C0.889213 26.2588 0.734357 26.611 0.658447 26.9055L0.658447 26.9085Z" fill="black"/>
<path fill-rule="evenodd" clip-rule="evenodd" d="M24.3913 23.9813C24.367 24.0269 24.4308 24.0451 24.2395 24.0451C24.1727 24.0451 24.1271 24.0421 24.0603 24.0299C24.0543 23.9419 24.0482 23.9358 24.0877 23.872C24.0543 23.617 24.1879 22.6453 24.2152 22.3204L24.9257 14.6718C24.9743 14.1768 25.0077 13.6516 25.0654 13.1566C25.0897 12.9593 25.2051 12.7012 25.2719 12.5129C25.3053 12.4157 25.4389 11.9846 25.5148 11.9178L24.3883 23.9783L24.3913 23.9813ZM17.8813 24.0299C17.8904 23.8811 18.2578 22.949 18.3337 22.7425C19.4086 19.8245 20.4622 16.8458 21.5432 13.9552C22.4844 11.4471 23.368 8.92389 24.2972 6.42191C24.5219 5.81463 25.0411 4.46344 25.2142 3.90778L25.5573 3.91081L18.191 24.0269L17.8813 24.0299ZM29.04 16.2082C29.0339 15.9258 29.0947 15.5432 29.119 15.2517C29.1463 14.9086 29.2283 14.7325 29.3315 14.438C29.5107 13.937 29.6807 13.4329 29.8538 12.9289C30.543 10.9401 31.2444 8.86013 31.9458 6.89862L32.7323 4.6274C33.0268 3.79847 32.8841 3.90474 33.3031 3.91385L32.7748 5.46241C32.5956 5.96949 32.4195 6.47656 32.2464 6.98971C31.5481 9.04231 30.8042 11.0888 30.1149 13.1414C29.9995 13.4845 29.1038 16.111 29.037 16.2082H29.04ZM24.5219 14.7507L24.5704 14.6505C24.5765 14.6991 24.5826 14.6718 24.5765 14.7264C24.5644 14.8388 24.5765 14.7447 24.5492 14.7902L23.6686 24.3852H28.876C28.952 24.3487 28.9368 24.3427 28.9732 24.2394L30.792 19.2021C31.4084 17.4683 32.0309 15.7193 32.6746 13.9886C33.631 11.4228 34.5541 8.75993 35.4923 6.18203C35.6502 5.7539 35.8051 5.31363 35.963 4.88246L36.4306 3.55859L32.7262 3.56467L29.3801 13.2204L29.3285 13.3297C29.3254 13.272 29.3103 13.1566 29.3588 13.1293C29.3406 12.8621 29.7627 8.72653 29.7991 8.34394C29.9479 6.75895 30.1392 5.14359 30.2515 3.55859L24.9652 3.5677L17.356 24.3822H21.0422C21.1181 24.3427 21.0999 24.3518 21.1333 24.2546L24.3124 15.355C24.37 15.2001 24.4976 14.8904 24.5188 14.7477L24.5219 14.7507Z" fill="black"/>
<path fill-rule="evenodd" clip-rule="evenodd" d="M56.6043 24.03C56.5193 24.0755 56.3827 24.0604 56.2855 24.0512C56.243 23.9237 56.2612 23.4743 56.3098 23.3741C56.2764 23.195 56.3675 19.1596 56.3736 18.9046C56.3948 18.1607 56.3948 17.4198 56.413 16.6759C56.4222 16.3297 56.3796 15.9107 56.4798 15.6101C56.5709 15.3368 56.662 15.0301 56.7683 14.7629L56.6043 24.03ZM49.4233 24.0391L49.1409 24.0361L56.4616 3.93517L56.7835 3.92909L55.8695 6.45537C55.5568 7.3086 55.2623 8.12538 54.9525 8.96646C53.7258 12.3065 52.5356 15.7164 51.2876 19.0169C50.7471 20.4501 50.2249 21.9713 49.6814 23.4227C49.6419 23.529 49.6085 23.6231 49.569 23.7324C49.5326 23.8296 49.5113 23.9844 49.4172 24.0361L49.4233 24.0391ZM57.7035 12.3581L57.6823 12.4371C57.6549 12.4006 57.6519 12.4037 57.6732 12.3611C57.995 11.3288 58.326 11.0251 58.9575 10.1264L61.8877 5.98777C62.0243 5.7904 63.3148 3.94731 63.3725 3.93213L63.6609 3.9382C63.6002 4.07788 63.3846 4.34204 63.2844 4.48779L62.17 6.06368C61.663 6.75901 61.1741 7.46952 60.6853 8.16486C60.1842 8.87537 59.6863 9.56463 59.1883 10.2782L58.074 11.8541C57.9677 11.9968 57.8189 12.2458 57.7035 12.3611V12.3581ZM58.7602 9.78325C58.7207 9.86524 58.7754 9.81665 58.6964 9.85613C58.7146 9.74682 58.7086 9.79844 58.742 9.76807C58.7662 9.6284 59.246 8.46242 59.3371 8.2104C59.495 7.78531 61.1073 3.74691 61.1286 3.57384H56.2218L48.6338 24.3974L53.5922 24.3761C53.6682 24.0786 53.8018 23.7537 53.902 23.45C54.0022 23.1464 54.1024 22.8488 54.2056 22.5422C54.4151 21.9227 54.6216 21.3155 54.825 20.7082L56.0608 17.0797L55.9333 24.3974L60.7551 24.3913C60.7854 23.8782 60.6974 21.6039 60.6822 20.8934C60.667 20.2102 60.497 14.0099 60.5456 13.8945L65.1093 7.70029C65.2125 7.55758 68.0728 3.72566 68.1396 3.5708H63.1599C62.9717 3.80157 62.7895 4.09913 62.6042 4.35115C61.417 5.97562 60.2207 7.75495 59.0304 9.40067C58.9393 9.52516 58.8361 9.65876 58.7602 9.78022V9.78325Z" fill="black"/>
<path fill-rule="evenodd" clip-rule="evenodd" d="M78.9218 15.3883C79.3074 15.3822 79.5716 15.6768 79.6657 15.9865C79.7933 16.3994 79.69 16.7607 79.6141 17.1585L79.5625 17.3194L77.2943 24.0299L76.9664 24.0329L77.6982 21.8528C78.1688 20.4409 78.7487 18.8619 79.1829 17.4804C79.2983 17.1099 79.4259 16.6545 79.3803 16.2203C79.3408 15.8255 79.0797 15.4338 78.7062 15.4096L78.5575 15.364C78.6637 15.3397 78.8429 15.3185 78.9158 15.3822L78.9218 15.3883ZM79.6111 12.4855L81.5604 7.14754C82.5564 7.13539 82.5442 7.59389 82.2619 8.40157C82.1617 8.69003 81.1779 11.438 81.0564 11.6809C80.7649 12.2639 80.4734 12.5219 79.6081 12.4855H79.6111ZM81.9157 6.79228C82.8084 6.72852 83.2548 7.19309 83.0483 8.104C82.9754 8.4289 82.8418 8.73861 82.7295 9.05439C82.4683 9.79223 81.9673 11.3013 81.694 11.8691C81.4329 12.4126 80.9441 12.9258 80.1242 12.8408C80.8165 12.689 81.102 12.4096 81.4117 11.7477C81.5696 11.4137 82.6293 8.42586 82.6869 8.21939C82.772 7.91575 82.8205 7.52709 82.6627 7.24167C82.4926 6.93499 82.3013 6.89248 81.9157 6.79228ZM71.4675 24.0359H71.1699C71.2792 23.6442 71.4796 23.1554 71.6254 22.7667C72.0839 21.5704 72.5606 20.201 72.9978 18.9986L78.3783 4.22957C78.5089 3.8652 78.4239 3.91986 78.8247 3.92289C78.7882 4.09597 78.4573 4.95223 78.3692 5.19818C77.3247 8.12526 76.2194 11.0675 75.1658 13.9916C74.0393 17.116 72.843 20.2981 71.7286 23.4226L71.5586 23.8872C71.5252 23.9782 71.5404 23.9934 71.4645 24.0359H71.4675ZM82.7355 14.5351C82.8114 14.4835 83.1637 14.3559 83.2669 14.3104C83.8377 14.0493 84.1717 13.7517 84.5968 13.3478C85.0857 12.8833 85.441 12.2517 85.7355 11.4531C86.0088 10.7123 86.2881 9.96227 86.5553 9.21532C86.8316 8.44408 87.1292 7.74571 87.199 6.81657C87.3508 4.83685 86.1818 3.75286 84.363 3.59496C83.4278 3.51602 82.2892 3.57067 81.3297 3.57067C80.3186 3.57067 79.3074 3.57067 78.2963 3.57067C78.2052 3.61015 78.1809 3.77715 78.1475 3.8652L76.3621 8.75683C75.7275 10.4785 75.0778 12.2274 74.4614 13.9764C74.1517 14.8569 73.8359 15.7162 73.511 16.5846C73.183 17.4652 72.8885 18.3215 72.5575 19.1959C72.5241 19.287 70.6962 24.2454 70.675 24.3973H75.3176L78.4481 15.7314C79.4593 15.7284 78.9036 17.2162 78.7093 17.7779C78.5544 18.2304 76.5018 24.2029 76.4745 24.3973C77.2093 24.4064 77.9502 24.3973 78.688 24.3973C79.4168 24.3973 80.1819 24.4216 80.9076 24.4003C81.0443 24.3973 81.0291 24.3973 81.0655 24.2758L81.275 23.6685C81.3661 23.4013 81.4663 23.1129 81.5604 22.8457C81.7548 22.2991 81.937 21.7647 82.1252 21.2212C82.5017 20.122 82.9056 19.0441 83.2608 17.954C83.4582 17.3437 83.5614 16.697 83.4369 16.0138C83.2608 15.03 82.8266 14.7264 82.7295 14.5381L82.7355 14.5351Z" fill="black"/>
<path fill-rule="evenodd" clip-rule="evenodd" d="M43.3991 21.756C44.0763 21.6406 44.2281 21.0971 44.4588 20.4928C44.6744 19.925 44.8718 19.3694 45.0813 18.7955C45.2544 18.3188 46.141 15.8229 46.3232 15.419L46.6299 15.416C46.6238 15.5678 44.9052 20.2256 44.7018 20.76C44.4649 21.3794 44.1886 21.8379 43.3991 21.756ZM48.9831 6.60437C49.2381 6.62563 49.4355 6.81692 49.4993 7.0568C49.563 7.31185 49.4689 7.63675 49.3899 7.8584L48.0843 11.4322C48.0084 11.6296 47.9112 11.9757 47.8141 12.1427L47.5074 12.1458C47.5438 11.9484 48.4335 9.57396 48.5276 9.31587C48.6946 8.85434 48.8646 8.38977 49.0347 7.9252C49.2047 7.46064 49.3019 6.71672 48.7341 6.62866L48.9223 6.57401C49.0165 6.59223 48.9527 6.58312 48.9831 6.60134V6.60437ZM48.3211 3.7866C47.9355 3.75017 46.9153 4.00522 46.5722 4.12061C44.468 4.84327 43.9002 7.0325 43.1654 8.99401C41.8627 12.4798 40.6148 16.0992 39.3122 19.594C38.7535 21.094 38.0673 23.0646 40.0318 23.933C40.3324 24.0666 41.3678 24.3551 41.7261 24.2883C41.8658 24.2853 42.2392 24.2974 42.3516 24.3521C42.3152 24.3642 41.7018 24.4098 41.55 24.3247C40.2808 24.2579 39.1178 23.8966 38.6502 23.0495C38.0612 21.9776 38.6017 20.678 38.9508 19.6851C39.3122 18.6528 39.7008 17.6416 40.0682 16.6093C40.4356 15.5799 40.8061 14.5658 41.1796 13.5547C41.9326 11.5051 42.634 9.45554 43.4174 7.43027C43.8182 6.39183 44.3344 5.39589 44.9902 4.83416C45.3789 4.50016 45.7341 4.28761 46.3232 4.08721C46.6784 3.96575 47.6987 3.73802 48.0934 3.77142C48.1693 3.67729 49.7361 3.67729 49.9729 3.68944L48.3181 3.78964L48.3211 3.7866ZM54.7309 4.01737C54.4789 3.85037 53.5832 3.66515 53.2219 3.59835C51.5822 3.30382 49.4901 3.25524 47.8566 3.42527C45.2787 3.69248 44.2615 4.66412 43.3991 6.58312C42.9953 7.47582 42.6917 8.40799 42.3395 9.34927C41.3101 12.1093 40.3172 14.9848 39.297 17.7236C39.0389 18.4129 38.4741 19.9098 38.2859 20.5384C37.9671 21.6102 37.9245 22.8369 38.6017 23.5717C39.215 24.2367 40.1077 24.5555 41.3314 24.6587C42.5095 24.7589 43.7544 24.6861 44.8688 24.4614C45.9194 24.2488 46.6663 23.8298 47.3525 23.1223C47.9112 22.5485 48.3424 21.5798 48.6855 20.6537L50.7199 15.0638L46.0742 15.0668C45.9983 15.3401 45.8617 15.6559 45.7584 15.9352C45.2331 17.3471 44.72 18.8228 44.1886 20.2195C43.9882 20.7448 43.8364 21.5434 43.0803 21.4068C42.7008 21.3369 42.8587 20.8815 42.9589 20.5961C43.0591 20.3076 43.1593 20.0313 43.2686 19.7459C43.4842 19.169 43.6876 18.6011 43.8941 18.0242C44.3101 16.8704 44.723 15.753 45.142 14.6022C45.974 12.3067 46.7999 10.0294 47.6379 7.73695C47.7503 7.43331 47.8778 7.14181 48.1086 7.02036C48.397 6.86854 48.8586 6.86854 48.8343 7.31185C48.813 7.68229 48.3819 8.70252 48.2452 9.07903C48.1147 9.44036 47.0094 12.3917 47.0125 12.495L51.6581 12.4919L54.737 4.01433L54.7309 4.01737Z" fill="black"/>
<path fill-rule="evenodd" clip-rule="evenodd" d="M84.9673 17.4078L85.274 17.4047C85.2375 17.6233 84.2051 20.3743 84.108 20.6415C83.7102 21.7164 83.3398 22.7761 82.9359 23.8449C82.8357 23.8358 82.7113 23.8115 82.6323 23.769L84.9703 17.4108L84.9673 17.4078ZM93.3447 10.1963C93.5208 9.53439 94.286 7.8826 94.292 7.33908C94.2951 7.12957 94.2404 6.96257 94.1433 6.83808C94.0279 6.69233 93.9246 6.69233 93.7546 6.61035C94.9722 6.51926 94.6048 7.62754 94.3922 8.2166C94.2677 8.56275 94.1493 8.88461 94.0279 9.22468C93.9398 9.47063 93.7728 10.0172 93.6665 10.2024L93.3447 10.1933V10.1963ZM88.0553 9.51921C88.0492 9.55261 88.0462 9.57994 88.034 9.61638C88.0037 9.70747 88.0219 9.64067 88.0006 9.67407C87.6727 11.0465 87.4055 12.0789 88.113 13.3451C88.9267 14.8025 90.7577 15.5859 90.87 17.2013C90.9186 17.8905 90.6727 18.4371 90.4632 18.9806C90.3022 19.3966 89.701 21.0028 89.4885 21.3277C89.3792 21.4947 89.1241 21.765 88.8417 21.7589C88.7597 21.8166 88.614 21.8075 88.529 21.768L88.6535 21.7194C89.033 21.6648 89.3184 21.0605 89.4611 20.6719C89.6281 20.2164 89.8103 19.7792 89.9864 19.3237C90.3447 18.3915 90.8488 17.3956 90.3053 16.342C89.9227 15.6011 89.118 14.9756 88.5502 14.3501C87.9885 13.7337 87.4055 13.0384 87.3357 11.8178C87.2446 10.1781 88.4622 7.27836 89.115 6.10631C90.2172 4.13569 91.9601 3.71364 94.1463 3.64076L92.8012 3.80776C90.5937 4.19946 89.6858 5.38365 88.8448 7.33908C88.6808 7.72471 88.1099 9.16092 88.0492 9.51314L88.0553 9.51921ZM82.3864 24.0817C82.4228 24.0878 82.4653 24.0908 82.5017 24.103C82.5989 24.1303 82.5534 24.1151 82.5928 24.1516C82.8448 24.1607 83.3853 24.3034 83.6799 24.355C84.0442 24.4157 84.4086 24.4704 84.779 24.519C86.865 24.7892 89.7101 24.8469 91.5016 23.9451C92.5157 23.435 93.2688 22.3601 93.7759 21.1577C94.2617 20.0039 94.7687 18.6861 95.036 17.3592C95.3791 15.6618 95.039 14.4351 94.1979 13.3876C93.7121 12.7803 93.4844 12.6133 92.9833 12.0698C92.6585 11.7145 92.1119 11.1862 92.0208 10.503C91.9297 9.82285 92.2971 9.02732 92.5036 8.46862C92.7647 7.76418 92.9014 6.98383 93.542 6.97472C94.0582 6.96561 93.9823 7.37856 93.8518 7.75811L93.1838 9.61941C93.0866 9.88965 92.9105 10.2996 92.8558 10.5637H97.4985C97.5744 10.5243 97.5774 10.4666 97.6078 10.3815C97.9236 9.47974 99.8638 4.20857 99.9033 3.99602C99.6239 3.79865 98.1938 3.52842 97.7383 3.46162C95.6432 3.15494 92.373 3.10939 90.6393 4.07193C89.5219 4.69135 88.8417 5.73891 88.2618 7.07492C87.7638 8.22267 87.1292 9.93823 87.0138 11.2074C86.8377 13.1173 87.8093 14.092 88.6383 14.9452C89.8194 16.1598 90.6271 16.6517 89.9409 18.51C89.7041 19.1537 89.449 19.8126 89.1879 20.4472C88.9966 20.9209 88.7931 21.5858 88.1585 21.4067C87.6606 21.264 88.0917 20.4411 88.2709 19.9826C88.4014 19.6456 89.3458 17.1922 89.364 17.0616L84.7213 17.0677C84.6302 17.2256 82.7021 22.5666 82.4835 23.1617L82.1708 24.0514L82.3894 24.0878L82.3864 24.0817Z" fill="black"/>
<path fill-rule="evenodd" clip-rule="evenodd" d="M6.27925 23.796C6.30354 23.5987 7.87335 19.4115 8.02214 18.9955L8.59601 17.4105H8.91787C8.88751 17.5988 8.70532 18.036 8.62941 18.2334C8.40776 18.8133 6.65576 23.7323 6.57074 23.8568L6.27621 23.796H6.27925ZM16.9916 10.2082C17.0099 10.0382 17.2437 9.46731 17.3135 9.27298C17.4653 8.85396 17.9177 7.72139 17.9268 7.3388C17.939 6.71331 17.52 6.70116 17.3924 6.6131C17.8509 6.58578 18.1576 6.71938 18.2457 7.11411C18.3307 7.50277 18.1455 7.90661 18.0331 8.22239C17.9117 8.5655 17.7902 8.8904 17.6687 9.22744C17.5564 9.52804 17.4349 9.94706 17.3044 10.2052H16.9947L16.9916 10.2082ZM17.8479 3.67388C17.5564 3.64048 16.7214 3.76801 16.3995 3.82874C14.0251 4.27509 13.184 5.61413 12.3277 7.73961C12.097 8.31652 11.6445 9.52804 11.5261 10.1171C11.5231 10.1414 11.5231 10.193 11.514 10.2234C11.4867 10.3357 11.4927 10.272 11.4745 10.3023C11.4411 10.6029 11.3591 10.8944 11.3288 11.2284C11.2984 11.5685 11.3045 11.9389 11.3591 12.2578C11.6506 13.9733 13.2083 14.8053 14.0615 15.9955C14.8935 17.1524 14.438 18.1241 13.9765 19.3113C13.7761 19.8275 13.5635 20.3406 13.3662 20.8629C13.184 21.3457 12.8439 21.8953 12.1759 21.7799C12.6435 21.71 12.9138 21.1787 13.0595 20.7961C13.2356 20.3406 13.4117 19.8852 13.5909 19.4297C13.9461 18.5218 14.4562 17.5137 13.9886 16.4632C13.7639 15.9561 13.4846 15.6949 13.184 15.3701C12.2792 14.3923 11.1041 13.5786 10.9857 11.9329C10.8703 10.3357 11.9877 7.48151 12.7498 6.14246C13.5332 4.77002 14.5564 4.10505 16.102 3.82266C16.4997 3.74979 17.4198 3.61923 17.8054 3.66781C17.8904 3.58886 18.2092 3.62833 18.3185 3.63137L17.8479 3.67995V3.67388ZM23.535 3.98966C23.2102 3.78015 21.8559 3.53117 21.3671 3.4583C20.5381 3.33988 19.7122 3.28522 18.859 3.27308C16.4512 3.24271 14.265 3.45526 12.85 5.33782C12.4917 5.81453 12.1547 6.44307 11.8875 7.06553C11.3956 8.20721 10.7701 9.79828 10.6425 11.1768C10.3784 14.0371 12.6648 14.9146 13.5301 16.3326C13.9613 17.037 13.8884 17.699 13.5787 18.4854C13.3267 19.1291 13.0808 19.788 12.8257 20.4226C12.7012 20.7384 12.5646 21.1301 12.3551 21.2971C12.2184 21.4064 12.0271 21.458 11.8055 21.4034C11.2802 21.2698 11.7144 20.4378 11.8875 19.9884C12.0332 19.618 12.9593 17.2314 12.9927 17.0552L8.33185 17.0613C8.26505 17.3255 8.11626 17.6686 8.01606 17.9388C7.90675 18.2334 7.80352 18.5188 7.69724 18.8072C7.49077 19.3811 7.27518 19.958 7.06264 20.5441C6.85313 21.1149 6.63754 21.6918 6.425 22.2809C6.32479 22.5602 6.21549 22.8669 6.10921 23.1493C6.03027 23.3649 5.82683 23.8416 5.7995 24.0298C6.08188 24.1665 7.55453 24.3972 7.96445 24.4549C10.0292 24.7373 12.9927 24.9043 14.8267 24.0875C16.0898 23.5258 16.6576 22.6756 17.2862 21.4034C17.7447 20.4773 18.3884 18.6251 18.6161 17.5927C18.9865 15.9166 18.7922 14.6352 17.9299 13.5087C17.3651 12.7709 17.2619 12.7618 16.7001 12.1545C15.3763 10.7183 15.4127 10.4086 16.108 8.54121C16.2265 8.21935 16.3358 7.91572 16.4572 7.59993C16.5756 7.28718 16.7244 7.01087 17.0918 6.9714C17.6353 6.91674 17.6475 7.28111 17.4957 7.71531C17.3833 8.03717 17.2679 8.33777 17.1526 8.66267C17.0341 8.99363 16.524 10.3479 16.4724 10.5604L21.1758 10.5543L23.532 3.98663L23.535 3.98966Z" fill="black"/>
<path fill-rule="evenodd" clip-rule="evenodd" d="M62.0516 24.0148C62.0122 24.0634 62.082 24.0361 61.9757 24.0573L61.7116 24.0512C61.7116 24.0452 61.6842 24.0391 61.7359 23.9693C61.83 23.5958 62.0577 23.0917 62.1913 22.7152C62.3371 22.2992 62.498 21.8833 62.6498 21.4582C62.9534 20.6141 63.2632 19.7942 63.5668 18.9471C64.1619 17.2922 64.836 15.5585 65.4008 13.9249C65.6923 13.0808 66.0232 12.2609 66.3178 11.4138C66.6123 10.5697 66.925 9.74378 67.2348 8.9027L68.838 4.51815C69.087 3.82889 68.9625 3.91695 69.3845 3.92909L62.0516 24.0087V24.0148ZM77.3976 3.5708H68.8106C67.5171 7.03228 66.3026 10.5181 65.0091 13.9826C64.3623 15.7133 63.7551 17.4653 63.1053 19.1991L61.4413 23.7598C61.3806 23.9359 61.25 24.2274 61.2197 24.3944L69.8035 24.3913L71.0242 20.9389H67.4412C67.4564 20.8084 69.3177 15.7346 69.3815 15.6253L72.2023 15.6162L73.4836 12.0848H70.6659C70.7084 11.8814 72.0565 8.19219 72.2418 7.66385C72.2691 7.58491 72.4057 7.08998 72.4968 7.06872H76.0828L77.3976 3.57384V3.5708Z" fill="black"/>
<path fill-rule="evenodd" clip-rule="evenodd" d="M38.2433 3.93202H38.5804L31.2596 24.0451L30.9226 24.042L38.2433 3.92899V3.93202ZM43.138 3.57373H38.0004L30.4216 24.4034L35.5743 24.3943L43.138 3.57677V3.57373Z" fill="black"/>
<path fill-rule="evenodd" clip-rule="evenodd" d="M48.0934 3.76504C48.1298 3.762 48.1784 3.7529 48.2088 3.7529C48.2634 3.7529 48.2057 3.74682 48.2573 3.75593C48.3181 3.76808 48.2847 3.75593 48.3181 3.7863L49.9729 3.68609C49.7361 3.67091 48.1663 3.67091 48.0934 3.76808V3.76504Z" fill="black"/>
<path fill-rule="evenodd" clip-rule="evenodd" d="M41.55 24.3215C41.6987 24.4096 42.3151 24.364 42.3516 24.3489C42.2392 24.2942 41.8657 24.2821 41.7261 24.2851C41.6836 24.3246 41.7412 24.3033 41.6441 24.3215C41.638 24.3215 41.553 24.3215 41.55 24.3215Z" fill="black"/>
<path fill-rule="evenodd" clip-rule="evenodd" d="M56.6043 24.03H56.2855L56.3098 23.3711C56.2612 23.4713 56.243 23.9207 56.2855 24.0482C56.3827 24.0573 56.5193 24.0755 56.6043 24.027V24.03Z" fill="black"/>
<path fill-rule="evenodd" clip-rule="evenodd" d="M17.8479 3.67117L18.3185 3.62259C18.2092 3.61955 17.8934 3.57704 17.8054 3.65903L17.8448 3.67117H17.8479Z" fill="black"/>
<path fill-rule="evenodd" clip-rule="evenodd" d="M24.3905 23.9811C24.2845 24.0356 24.2088 24.0144 24.0846 24.0144L24.0876 23.8721C24.0482 23.9357 24.0543 23.9417 24.0603 24.0296C24.1239 24.0417 24.1724 24.0447 24.2391 24.0447C24.4299 24.0447 24.3663 24.0266 24.3905 23.9811Z" fill="black"/>
<path fill-rule="evenodd" clip-rule="evenodd" d="M78.7089 15.4159C78.7423 15.3765 78.6665 15.3947 78.7938 15.3826C78.824 15.3795 78.8816 15.3886 78.918 15.3916C78.8453 15.328 78.6665 15.3492 78.5605 15.3735L78.7089 15.4189V15.4159Z" fill="black"/>
<path fill-rule="evenodd" clip-rule="evenodd" d="M62.0508 24.0146L61.763 24.0327C61.7206 24.0055 61.7146 24.0812 61.7358 23.9722C61.6813 24.0418 61.7115 24.0479 61.7115 24.054L61.9751 24.06C62.0811 24.0388 62.0114 24.063 62.0508 24.0176V24.0146Z" fill="black"/>
<path fill-rule="evenodd" clip-rule="evenodd" d="M88.844 21.7586C88.8319 21.7586 88.738 21.7738 88.738 21.7738C88.6471 21.7616 88.6895 21.795 88.6592 21.7192L88.535 21.7677C88.6168 21.8071 88.7652 21.8162 88.847 21.7586H88.844Z" fill="black"/>
<path fill-rule="evenodd" clip-rule="evenodd" d="M29.3858 13.217L29.3646 13.1265C29.3164 13.1536 29.3284 13.2683 29.3345 13.3256L29.3858 13.217Z" fill="black"/>
<path fill-rule="evenodd" clip-rule="evenodd" d="M82.5885 24.148C82.5463 24.1118 82.5945 24.1269 82.498 24.0997C82.4618 24.0907 82.4195 24.0877 82.3833 24.0786C82.4165 24.1058 82.3592 24.0786 82.4376 24.1118C82.4437 24.1148 82.4678 24.1209 82.4769 24.1239C82.5131 24.1329 82.5523 24.139 82.5885 24.145V24.148Z" fill="black"/>
<path fill-rule="evenodd" clip-rule="evenodd" d="M24.5249 14.7471L24.5521 14.7833C24.5762 14.7381 24.5642 14.8346 24.5792 14.72C24.5853 14.6657 24.5823 14.6928 24.5732 14.6445L24.5249 14.7441V14.7471Z" fill="black"/>
<path fill-rule="evenodd" clip-rule="evenodd" d="M58.7599 9.78026L58.7418 9.76514C58.7085 9.79538 58.7146 9.74397 58.6964 9.85284C58.775 9.81353 58.7206 9.86192 58.7599 9.78026Z" fill="black"/>
<path fill-rule="evenodd" clip-rule="evenodd" d="M11.4745 10.2954C11.4956 10.2682 11.4866 10.3286 11.5137 10.2169C11.5198 10.1898 11.5228 10.1385 11.5258 10.1113C11.5228 10.1174 11.5168 10.1204 11.5137 10.1324L11.4745 10.2924V10.2954Z" fill="black"/>
<path fill-rule="evenodd" clip-rule="evenodd" d="M88.0006 9.66998C88.0217 9.6368 88.0036 9.70015 88.0338 9.61266C88.0459 9.57947 88.0489 9.55232 88.0549 9.51611C88.0217 9.56439 88.0579 9.47086 88.0217 9.57344C88.0097 9.60964 88.0097 9.6368 88.0006 9.66998Z" fill="black"/>
<path fill-rule="evenodd" clip-rule="evenodd" d="M57.7003 12.355L57.6701 12.358C57.6489 12.4003 57.6519 12.3973 57.6792 12.4336L57.7003 12.355Z" fill="black"/>
<path fill-rule="evenodd" clip-rule="evenodd" d="M79.5625 17.3215L79.6138 17.1616C79.5987 17.1888 79.6047 17.1375 79.5746 17.2431C79.5625 17.2883 79.5716 17.2733 79.5625 17.3215Z" fill="black"/>
<path fill-rule="evenodd" clip-rule="evenodd" d="M48.734 6.62825C48.7734 6.57979 48.7461 6.59796 48.84 6.59191C48.8764 6.59191 48.943 6.59796 48.9824 6.60099C48.9521 6.58282 49.0157 6.59191 48.9218 6.57373L48.734 6.62825Z" fill="black"/>
</g>
<defs>
<clipPath id="clip0_1233_3573">
<rect width="104.183" height="25.9793" fill="white" transform="translate(0.656616 0.929199)"/>
</clipPath>
</defs>
</svg>
