<svg width="80" height="25" viewBox="0 0 80 25" fill="none" xmlns="http://www.w3.org/2000/svg">
<g clip-path="url(#clip0_1233_3664)">
<path fill-rule="evenodd" clip-rule="evenodd" d="M6.05143 19.3262C5.94163 17.4491 5.75372 14.0138 5.65237 12.2359C5.55102 10.4581 5.53412 10.3377 5.49401 10.1773C5.45178 10.0168 5.38421 9.8162 5.26808 9.64095C5.15406 9.46569 4.99148 9.31367 4.78245 9.18909C4.5713 9.06452 4.3137 8.96739 4.03288 8.89138C3.75206 8.81537 3.44801 8.76258 3.15029 8.72035C2.85257 8.67812 2.55908 8.64856 2.27615 8.59789C1.99321 8.54721 1.71872 8.47331 1.48646 8.34451C1.2542 8.21571 1.06417 8.02991 0.899478 7.82087C0.734784 7.61395 0.599651 7.3838 0.49619 7.12409C0.392729 6.86438 0.325162 6.57722 0.282933 6.27529C0.240704 5.97546 0.225924 5.66296 0.268153 5.34625C0.310382 5.03164 0.407509 4.71281 0.544753 4.41721C0.681998 4.1216 0.857249 3.84711 1.09373 3.60852C1.33021 3.36992 1.62793 3.163 1.93198 3.01098C2.23392 2.85684 2.54219 2.75338 2.86102 2.69426C3.17774 2.63303 3.50501 2.61402 5.49189 2.50634C7.47878 2.39865 11.1231 2.20229 13.0382 2.10727C14.9533 2.01226 15.1391 2.01648 15.3862 2.06716C15.6332 2.11783 15.9415 2.21707 16.2012 2.32898C16.463 2.44088 16.6784 2.56757 16.879 2.74704C17.0796 2.92441 17.2654 3.15455 17.4364 3.42271C17.6074 3.69086 17.7637 3.99914 17.8524 4.29896C17.941 4.59879 17.96 4.89228 17.9453 5.21534C17.9305 5.53839 17.8819 5.88889 17.7869 6.20983C17.6919 6.53077 17.5504 6.81793 17.3963 7.03963C17.2421 7.26134 17.0753 7.41758 16.8642 7.54849C16.6509 7.67729 16.3933 7.78075 16.0682 7.87788C15.743 7.97501 15.3524 8.06791 15.0357 8.16082C14.719 8.25372 14.474 8.34662 14.2439 8.46698C14.0137 8.58733 13.7984 8.73302 13.6273 8.91883C13.4563 9.10464 13.3296 9.32845 13.2642 9.58605C13.1987 9.84153 13.1924 10.1308 13.2072 10.5679C13.2219 11.0049 13.2557 11.5919 13.3275 12.7786C13.3993 13.9652 13.5049 15.7536 13.5893 17.2021C13.6717 18.6505 13.7308 19.759 13.7604 20.4938C13.7899 21.2265 13.7899 21.5833 13.7477 21.9275C13.7055 22.2717 13.6231 22.6032 13.4563 22.9199C13.2895 23.2345 13.0403 23.5322 12.7215 23.7856C12.4006 24.0368 12.01 24.2417 11.6172 24.3958C11.2245 24.5499 10.8275 24.6534 10.3609 24.6872C9.89428 24.721 9.35586 24.6872 8.91457 24.6112C8.47327 24.5352 8.12488 24.419 7.82928 24.2776C7.53367 24.1361 7.28874 23.9693 7.07126 23.7476C6.85378 23.5259 6.66375 23.2472 6.52651 22.9199C6.38926 22.5926 6.30692 22.2168 6.24991 21.8684C6.1929 21.52 6.16123 21.2012 6.05143 19.3262Z" fill="black"/>
<path fill-rule="evenodd" clip-rule="evenodd" d="M16.3427 19.0727C16.0429 18.3654 15.7156 17.4701 15.458 16.2687C15.2004 15.0694 15.0125 13.564 15.08 12.1282C15.1096 11.5053 15.1856 10.8972 15.3123 10.3144C15.6227 10.2511 15.9014 10.1941 16.1653 10.1286C16.6763 10.0062 17.1345 9.86257 17.4617 9.73378C17.789 9.60498 17.9833 9.48885 18.2177 9.2967C18.4541 9.10667 18.7307 8.84063 18.9672 8.55347C19.2037 8.26631 19.398 7.95593 19.5626 7.57376C19.7273 7.19158 19.8625 6.73973 19.9448 6.33855C20.0251 5.93738 20.0504 5.58899 20.0652 5.29338C20.0757 5.02945 20.0778 4.80986 20.0673 4.52059C20.2953 4.42135 20.517 4.33056 20.7303 4.2461C21.3933 3.98428 21.9803 3.77102 22.5419 3.61266C22.1619 2.94333 21.4418 2.49148 20.6163 2.49148C20.2637 2.49148 19.93 2.57383 19.6344 2.71952C19.5035 2.49359 19.3494 2.27611 19.1868 2.06074C18.982 1.78626 18.7666 1.51388 18.5491 1.2415C19.153 0.880441 19.8604 0.671407 20.6163 0.671407C22.3392 0.671407 23.8109 1.75247 24.3873 3.27272C24.457 3.26639 24.5267 3.26005 24.5964 3.25583C25.2657 3.20515 26.0131 3.20093 26.6973 3.2326L26.7543 3.23471C27.204 1.49699 28.7813 0.215332 30.6583 0.215332C32.8859 0.215332 34.6912 2.02063 34.6912 4.24821C34.6912 5.16881 34.383 6.0155 33.8657 6.69539L33.9184 6.76507C34.2246 7.17469 34.478 7.56953 34.7039 7.98971C34.9298 8.40989 35.1304 8.85541 35.312 9.33471C35.4936 9.81401 35.6541 10.3229 35.7512 10.8887C35.8483 11.4546 35.8779 12.0733 35.7871 12.5864C35.6963 13.0994 35.483 13.5027 35.2487 13.8258C35.0164 14.1488 34.763 14.3916 34.4442 14.5986C34.1275 14.8055 33.7453 14.9807 33.3652 15.099C32.9852 15.2172 32.6093 15.2785 32.1364 15.2827C31.6634 15.2848 31.0954 15.2299 30.4324 15.1708C29.7694 15.1117 29.0114 15.0504 28.397 15.0335C27.7847 15.0166 27.318 15.0441 26.9506 15.1117C26.5832 15.1792 26.313 15.2848 26.1208 15.4326C25.9287 15.5783 25.8168 15.7641 25.7471 16.0217C25.6774 16.2793 25.6479 16.6129 25.6901 16.9148C25.7323 17.2189 25.8442 17.4934 25.9794 17.7467C26.1145 18.0001 26.2707 18.2303 26.5157 18.4182C26.7606 18.6061 27.0921 18.7518 27.4299 18.8025C27.7678 18.8532 28.1098 18.8088 28.549 18.7349C28.9882 18.661 29.5203 18.5597 30.1199 18.3844C30.7175 18.207 31.3826 17.9537 31.9041 17.7805C32.4277 17.6053 32.8078 17.5103 33.1245 17.4723C33.4391 17.4321 33.6862 17.449 33.9142 17.5082C34.1423 17.5673 34.3492 17.6686 34.5118 17.8038C34.6743 17.9389 34.7926 18.1078 34.8623 18.3971C34.9319 18.6863 34.9552 19.096 34.9277 19.4613C34.9003 19.8265 34.82 20.1475 34.6152 20.5043C34.4104 20.8611 34.0789 21.2539 33.6883 21.6361C33.2977 22.0182 32.8479 22.3898 32.2673 22.7488C31.6866 23.1077 30.9708 23.4561 30.1896 23.7454C29.4084 24.0347 28.5596 24.2648 27.6685 24.4337C26.7775 24.6026 25.8442 24.7082 24.8941 24.6744C23.9418 24.6385 22.9727 24.4633 22.1745 24.2395C21.3785 24.0157 20.7535 23.7475 20.1898 23.4287C19.6239 23.112 19.1192 22.7467 18.6273 22.3012C18.1353 21.8578 17.6581 21.3341 17.2844 20.8147C16.9107 20.2932 16.6404 19.7759 16.3406 19.0685L16.3427 19.0727ZM28.6039 3.42686C29.0494 3.49231 29.3999 3.56199 29.7758 3.6739C30.179 3.79425 30.6119 3.96106 31.0236 4.16587C31.4333 4.36857 31.8218 4.60927 32.13 4.83731C32.3158 4.97667 32.4721 5.1118 32.6304 5.26805C32.7867 4.964 32.8754 4.61983 32.8754 4.25455C32.8754 3.03201 31.883 2.03963 30.6605 2.03963C29.7293 2.03963 28.9333 2.61395 28.606 3.42686H28.6039ZM25.8527 12.4576C26.3446 12.1429 26.8366 11.8283 27.2462 11.5158C27.6559 11.2033 27.9831 10.8951 28.245 10.6058C28.5068 10.3165 28.7031 10.0463 28.8404 9.83301C28.9776 9.61976 29.0536 9.4614 29.0895 9.27137C29.1254 9.07922 29.1191 8.85541 29.0726 8.64638C29.0262 8.43734 28.9396 8.2452 28.8045 8.05939C28.6694 7.87358 28.4857 7.69833 28.2893 7.55898C28.0908 7.41962 27.8797 7.31616 27.6326 7.26548C27.3856 7.21481 27.1069 7.21903 26.8556 7.26337C26.6044 7.30771 26.3827 7.39428 26.2095 7.4893C26.0364 7.5822 25.9097 7.68144 25.8147 7.77434C25.7175 7.86514 25.65 7.94959 25.5824 8.03405C25.4177 7.90525 25.2551 7.77646 25.0862 7.67933C24.9173 7.5822 24.7442 7.51886 24.5161 7.48296C24.2881 7.44707 24.0052 7.44073 23.7539 7.48296C23.5005 7.52519 23.2788 7.61387 23.0909 7.73212C22.903 7.85036 22.7488 7.99394 22.6221 8.1523C22.4955 8.31065 22.3962 8.48591 22.3265 8.68227C22.2569 8.88075 22.2189 9.10245 22.2231 9.29037C22.2273 9.47829 22.2759 9.63243 22.3519 9.7929C22.4279 9.95337 22.5292 10.1202 22.7214 10.3482C22.9135 10.5741 23.1922 10.8613 23.509 11.1189C23.8257 11.3765 24.1783 11.6087 24.514 11.8009C24.8476 11.993 25.1622 12.1429 25.3839 12.2464C25.6035 12.3499 25.7302 12.4048 25.8548 12.4576H25.8527Z" fill="black"/>
<path fill-rule="evenodd" clip-rule="evenodd" d="M35.1495 23.1942C35.3775 22.9408 35.8252 22.4446 36.1419 22.0202C36.4586 21.5958 36.6423 21.2453 36.7816 20.8863C36.921 20.5274 37.0139 20.1621 37.0582 19.7884C37.1047 19.4147 37.1047 19.0346 37.0625 18.6524C37.0202 18.2724 36.9358 17.8902 36.8387 17.565C36.7415 17.2399 36.636 16.9696 36.5008 16.75C36.3657 16.5304 36.2031 16.3594 36.1123 16.2665C36.0215 16.1736 36.0025 16.1588 36.0173 16.1398C36.03 16.1208 36.0743 16.0997 36.2284 15.9434C36.3826 15.7872 36.6444 15.5 36.8767 15.177C37.1089 14.856 37.3137 14.4992 37.4848 14.1128C37.6558 13.7264 37.7973 13.3083 37.8754 12.8375C37.9535 12.3666 37.9683 11.8409 37.9218 11.2898C37.8754 10.7387 37.7677 10.1623 37.622 9.60272C37.4763 9.04319 37.2905 8.50477 37.1089 8.05503C36.9273 7.60529 36.75 7.24634 36.6296 7.01197C36.5093 6.7776 36.4459 6.66569 36.4143 6.60657C36.3826 6.54745 36.3826 6.539 36.4269 6.39965C36.4713 6.25818 36.5599 5.9858 36.6275 5.67753C36.693 5.36926 36.7394 5.02509 36.7648 4.65769C36.7901 4.2903 36.7985 3.89757 36.75 3.49428C36.7014 3.09099 36.598 2.67715 36.5219 2.41955C36.4459 2.16195 36.3974 2.06272 36.3741 2.01204C36.3509 1.96137 36.3509 1.96137 36.467 1.90224C36.5832 1.84312 36.8175 1.72488 37.1617 1.60242C37.508 1.47995 37.9662 1.35538 38.4624 1.28148C38.9586 1.20758 39.4906 1.18646 40.0016 1.22024C40.5126 1.25614 41.0003 1.34693 41.4184 1.46517C41.8365 1.5813 42.1849 1.72277 42.4974 1.90436C42.812 2.08594 43.0928 2.30764 43.3335 2.58424C43.5742 2.86085 43.7727 3.19446 43.9437 3.55763C44.1147 3.9208 44.2541 4.31142 44.5159 5.21301C44.7777 6.1146 45.1641 7.52294 45.4386 8.51321C45.7131 9.50349 45.8799 10.0778 46.0256 10.4895C46.1692 10.9013 46.2916 11.1525 46.4204 11.3531C46.5492 11.5537 46.6865 11.7015 46.7646 11.7754C46.8427 11.8493 46.8617 11.8493 46.9631 11.729C47.0644 11.6086 47.2502 11.3679 47.4107 11.1356C47.5712 10.9034 47.7084 10.6775 47.8583 10.3101C48.0083 9.94478 48.1708 9.43803 48.3989 8.68213C48.6269 7.92834 48.9183 6.9254 49.1527 6.12093C49.387 5.31647 49.5644 4.71048 49.7734 4.21218C49.9825 3.71387 50.2232 3.32537 50.4512 3.02976C50.6814 2.73416 50.8988 2.52935 51.1205 2.35621C51.3422 2.18307 51.5682 2.03738 51.8891 1.90436C52.2101 1.77133 52.6281 1.64887 53.0567 1.57286C53.4833 1.49684 53.9203 1.46728 54.3595 1.48206C54.7987 1.49684 55.2379 1.55597 55.6918 1.65732C56.1458 1.75867 56.6103 1.90436 56.9946 2.08594C57.3768 2.26964 57.6766 2.49134 57.93 2.78061C58.1834 3.06988 58.3903 3.42883 58.5275 3.87223C58.6648 4.31353 58.7302 4.83928 58.8738 5.90979C59.0153 6.9803 59.2349 8.59767 59.4587 10.2805C59.6825 11.9633 59.9126 13.7116 60.1027 15.1812C60.2927 16.6487 60.4447 17.8374 60.5588 18.7284C60.6728 19.6195 60.7488 20.217 60.791 20.633C60.8332 21.0489 60.8396 21.2833 60.8058 21.524C60.772 21.7647 60.6981 22.0139 60.5862 22.2672C60.4743 22.5206 60.3265 22.7824 60.1301 23.0041C59.9338 23.2258 59.6888 23.4095 59.4228 23.5468C59.1567 23.684 58.8654 23.779 58.5634 23.8508C58.2594 23.9226 57.9405 23.9754 57.5563 23.9817C57.172 23.9881 56.7222 23.9501 56.3506 23.8551C55.979 23.76 55.6855 23.608 55.3688 23.4074C55.0521 23.2047 54.7121 22.9513 54.444 22.6515C54.1779 22.3517 53.9837 22.0075 53.8401 21.6739C53.6944 21.3403 53.5994 21.0151 53.4833 20.4303C53.3671 19.8454 53.232 18.9987 53.0842 18.0971C52.9364 17.1955 52.7759 16.2369 52.6936 15.7407C52.6112 15.2445 52.6091 15.2086 52.5965 15.1833C52.5838 15.1601 52.5606 15.1474 52.5183 15.1537C52.4761 15.1601 52.4149 15.1854 52.3389 15.2424C52.2607 15.2994 52.1678 15.386 52.0834 15.5085C51.9989 15.633 51.9208 15.7935 51.6906 16.4396C51.4605 17.0857 51.0783 18.2175 50.7426 19.1423C50.409 20.0671 50.1218 20.785 49.8642 21.3129C49.6066 21.8428 49.3786 22.1828 49.1527 22.4509C48.9267 22.7191 48.7008 22.9155 48.4812 23.0823C48.2616 23.247 48.0505 23.3821 47.7443 23.4898C47.4382 23.5975 47.0391 23.6777 46.6865 23.7051C46.3318 23.7326 46.0235 23.7073 45.7068 23.6143C45.3879 23.5236 45.0607 23.3652 44.7714 23.1287C44.4842 22.8922 44.2351 22.5776 43.9458 22.1152C43.6544 21.6528 43.3208 21.0447 43.0569 20.4324C42.793 19.8201 42.6008 19.2014 42.3749 18.4455C42.149 17.6896 41.8914 16.7965 41.7182 16.2327C41.543 15.6689 41.4501 15.4388 41.3656 15.2699C41.2812 15.101 41.2073 14.9954 41.1502 14.9363C41.0932 14.8793 41.051 14.8687 41.0003 14.9067C40.9497 14.9447 40.8927 15.0313 40.7807 15.4726C40.6688 15.9139 40.5063 16.7078 40.3141 17.5988C40.122 18.4898 39.9045 19.478 39.6976 20.1917C39.4906 20.9075 39.2943 21.3509 39.0852 21.7056C38.8762 22.0603 38.6545 22.3285 38.3948 22.5671C38.1351 22.8057 37.8395 23.0189 37.4932 23.1688C37.1448 23.3187 36.7479 23.4053 36.3657 23.4475C35.9835 23.4898 35.6203 23.4855 35.3902 23.4855C35.16 23.4834 35.0629 23.4834 35.0038 23.4813C34.9447 23.4771 34.9257 23.4708 34.9215 23.4623C34.9151 23.4518 34.9236 23.4391 35.1516 23.1857L35.1495 23.1942Z" fill="black"/>
<path fill-rule="evenodd" clip-rule="evenodd" d="M62.7884 22.7742C62.8159 22.656 62.8813 22.4132 62.9299 22.164C62.9784 21.9149 63.0101 21.6573 63.0164 21.3912C63.0228 21.1252 63.0038 20.8507 62.9109 20.0315C62.8201 19.2122 62.6554 17.8461 62.4421 16.2034C62.2289 14.5586 61.9692 12.6371 61.8024 11.3766C61.6356 10.1161 61.5659 9.5164 61.53 9.20391C61.4941 8.8893 61.4941 8.85974 61.5004 8.8344C61.5067 8.80696 61.5194 8.78162 61.9037 8.01516C62.288 7.2487 63.046 5.74112 63.5506 4.75718C64.0553 3.77325 64.3108 3.31295 64.5114 3.00468C64.7119 2.6964 64.8555 2.54227 65.0751 2.39447C65.2947 2.24666 65.5861 2.1052 65.9218 1.99329C66.2575 1.88138 66.6334 1.80115 67.1422 1.74625C67.6511 1.68924 68.2909 1.65757 68.9032 1.67446C69.5155 1.69135 70.0983 1.75892 70.6177 1.84549C71.1371 1.92994 71.5953 2.03341 71.9922 2.15587C72.3892 2.27834 72.7228 2.4198 72.9952 2.56127C73.2676 2.70274 73.4766 2.84421 73.6624 3.01946C73.8482 3.19471 74.0129 3.40374 74.1586 3.7099C74.3043 4.01606 74.4289 4.41935 74.8364 5.72212C75.2439 7.02489 75.9322 9.22925 76.5593 11.2415C77.1843 13.2537 77.7481 15.0716 78.2379 16.6616C78.7278 18.2515 79.1416 19.6155 79.3823 20.4749C79.623 21.3342 79.6906 21.6889 79.7202 22.0331C79.7518 22.3752 79.7476 22.7046 79.6653 23.0234C79.5829 23.3422 79.4182 23.6484 79.1628 23.8975C78.9073 24.1446 78.5589 24.3346 78.0627 24.4676C77.5665 24.6006 76.9225 24.6788 76.3524 24.6893C75.7823 24.6999 75.2861 24.645 74.8364 24.5373C74.3866 24.4296 73.9833 24.2713 73.6286 24.0538C73.2739 23.8363 72.972 23.5639 72.6531 23.1627C72.3343 22.7637 72.0007 22.2358 71.6966 21.8431C71.3926 21.4482 71.1181 21.1864 70.6958 20.9879C70.2735 20.7895 69.7034 20.6564 69.165 20.5614C68.6266 20.4664 68.1198 20.4115 67.554 20.3883C66.9881 20.3651 66.3673 20.3714 65.8796 20.4369C65.3918 20.5023 65.0413 20.6248 64.7331 20.8064C64.4248 20.9901 64.163 21.235 63.9518 21.4651C63.7407 21.6974 63.5823 21.9149 63.424 22.1239C63.2656 22.3329 63.1115 22.5335 63.0038 22.6581C62.8961 22.7827 62.8349 22.8334 62.8011 22.8608C62.7673 22.8883 62.7588 22.8925 62.7863 22.7742H62.7884ZM68.6012 9.95981C68.4936 10.1182 68.293 10.418 68.0924 10.7558C67.8918 11.0958 67.6912 11.4758 67.5223 11.8538C67.3513 12.2317 67.2098 12.6034 67.0958 12.956C66.9818 13.3065 66.8931 13.638 66.8783 13.9188C66.8614 14.2017 66.9184 14.434 67.0409 14.6325C67.1633 14.8288 67.3513 14.9872 67.592 15.0885C67.8327 15.1899 68.1283 15.2342 68.3753 15.2553C68.6224 15.2765 68.8187 15.2765 69.0299 15.249C69.2389 15.2216 69.4627 15.1645 69.6443 15.0674C69.8259 14.9703 69.9674 14.8352 70.0603 14.6726C70.1532 14.51 70.1975 14.3221 70.2017 14.0793C70.206 13.8364 70.1722 13.5387 70.1152 13.203C70.0582 12.8673 69.98 12.4936 69.8364 12.0269C69.6929 11.5603 69.4817 10.9986 69.3213 10.6101C69.1587 10.2237 69.0447 10.0105 68.9771 9.89436C68.9116 9.77822 68.8926 9.755 68.8715 9.74233C68.8504 9.72966 68.8272 9.72755 68.8039 9.73177C68.7807 9.736 68.7617 9.74655 68.7427 9.76344C68.7237 9.78034 68.7089 9.79934 68.6012 9.95981Z" fill="black"/>
</g>
<defs>
<clipPath id="clip0_1233_3664">
<rect width="79.4978" height="24.4844" fill="white" transform="translate(0.243256 0.219727)"/>
</clipPath>
</defs>
</svg>
