<svg width="44" height="30" viewBox="0 0 44 30" fill="none" xmlns="http://www.w3.org/2000/svg">
<g clip-path="url(#clip0_1233_3452)">
<path fill-rule="evenodd" clip-rule="evenodd" d="M21.7846 4.36914H26.0785L24.5539 15.9585H20.2599L21.7846 4.36914Z" fill="black"/>
<path d="M24.5777 2.92221C26.1861 2.92221 27.4899 2.28762 27.4899 1.50481C27.4899 0.721996 26.1861 0.0874023 24.5777 0.0874023C22.9693 0.0874023 21.6655 0.721996 21.6655 1.50481C21.6655 2.28762 22.9693 2.92221 24.5777 2.92221Z" fill="black"/>
<path fill-rule="evenodd" clip-rule="evenodd" d="M9.49841 7.05542H19.6406L20.1528 4.61963H9.77237L9.49841 7.05542Z" fill="black"/>
<path d="M16.4948 1.87988H12.0639L10.7016 12.402H15.1325L16.4948 1.87988Z" fill="black"/>
<path fill-rule="evenodd" clip-rule="evenodd" d="M10.8086 11.5575C10.7907 11.6945 10.7729 11.8315 10.755 11.9684C10.7371 12.1114 10.7193 12.2543 10.6954 12.433C10.6716 12.6116 10.6478 12.826 10.6478 13.0643C10.6418 13.3084 10.6597 13.5764 10.7074 13.8563C10.755 14.1362 10.8384 14.4221 10.9515 14.6663C11.0587 14.9164 11.1957 15.1248 11.3684 15.3273C11.5411 15.5298 11.7496 15.7204 12.0176 15.8633C12.2915 16.0063 12.625 16.1075 12.8811 16.1611C13.1432 16.2207 13.3278 16.2385 13.8935 16.2445C14.4593 16.2504 15.4003 16.2504 16.0256 16.2266C16.645 16.2028 16.9487 16.1551 17.2346 16.0599C17.5204 15.9646 17.7884 15.8216 18.0088 15.6311C18.2291 15.4405 18.4078 15.2023 18.5507 14.9402C18.6937 14.6782 18.8009 14.3864 18.8783 14.035C18.9557 13.6896 18.9974 13.2846 19.0153 13.0285C19.0272 12.7724 19.0093 12.6652 18.9795 12.5997C18.9497 12.5342 18.9081 12.5223 18.8545 12.5342C18.8009 12.5461 18.7413 12.5938 18.6401 12.701C18.5448 12.8082 18.4078 12.9868 18.241 13.1357C18.0683 13.2846 17.8599 13.4097 17.6872 13.4811C17.5145 13.5526 17.3835 13.5764 17.1512 13.5824C16.9189 13.5943 16.5795 13.5943 16.3234 13.5705C16.0673 13.5466 15.8886 13.505 15.7278 13.4335C15.567 13.362 15.4241 13.2548 15.3229 13.1357C15.2216 13.0107 15.1621 12.8677 15.1382 12.7427C15.1144 12.6116 15.1204 12.4985 15.1382 12.3496C15.1561 12.2007 15.1799 12.022 15.2037 11.8374C13.7387 11.7362 12.2796 11.6349 10.8146 11.5337L10.8086 11.5575Z" fill="black"/>
<path fill-rule="evenodd" clip-rule="evenodd" d="M0.386536 20.5265H10.5287L11.0409 18.0967H0.660488L0.386536 20.5265Z" fill="black"/>
<path d="M7.38226 15.3564H2.95139L1.58912 25.8786H6.02L7.38226 15.3564Z" fill="black"/>
<path fill-rule="evenodd" clip-rule="evenodd" d="M1.69672 25.0351C1.67886 25.172 1.66099 25.309 1.64312 25.446C1.62526 25.5889 1.60739 25.7318 1.58357 25.9105C1.55975 26.0892 1.53593 26.3036 1.53593 26.5418C1.52997 26.786 1.54784 27.054 1.59548 27.3339C1.64312 27.6138 1.7265 27.8996 1.83966 28.1438C1.94685 28.3939 2.08383 28.6024 2.25654 28.8049C2.42925 29.0074 2.63769 29.1979 2.90569 29.3409C3.17964 29.4838 3.51315 29.585 3.76923 29.6386C4.03127 29.6982 4.21589 29.7161 4.78166 29.722C5.34744 29.728 6.2884 29.728 6.91373 29.7041C7.5331 29.6803 7.83683 29.6327 8.12269 29.5374C8.40855 29.4421 8.67655 29.2992 8.8969 29.1086C9.11726 28.918 9.29592 28.6798 9.43885 28.4178C9.58178 28.1557 9.68898 27.8639 9.7664 27.5125C9.84382 27.1671 9.88551 26.7621 9.90338 26.5061C9.91529 26.25 9.89742 26.1428 9.86765 26.0773C9.83787 26.0118 9.79618 25.9998 9.74258 26.0118C9.68898 26.0237 9.62943 26.0713 9.52818 26.1785C9.4329 26.2857 9.29592 26.4644 9.12917 26.6133C8.95646 26.7621 8.74802 26.8872 8.57531 26.9587C8.4026 27.0301 8.27158 27.054 8.03931 27.0599C7.80705 27.0718 7.46759 27.0718 7.2115 27.048C6.95542 27.0242 6.77675 26.9825 6.61595 26.911C6.45515 26.8396 6.31222 26.7324 6.21098 26.6133C6.10974 26.4882 6.05018 26.3453 6.02636 26.2202C6.00254 26.0892 6.00849 25.976 6.02636 25.8271C6.04423 25.6782 6.06805 25.4996 6.09187 25.315C4.62682 25.2137 3.16773 25.1125 1.70268 25.0112L1.69672 25.0351Z" fill="black"/>
<path fill-rule="evenodd" clip-rule="evenodd" d="M12.9407 21.533C12.9407 20.6337 12.9407 19.7345 12.9407 18.8352C13.2146 18.6446 13.4826 18.454 13.8221 18.2932C14.1616 18.1324 14.5665 17.9955 14.9894 17.8823C15.4122 17.7692 15.841 17.6798 16.3532 17.6143C16.8594 17.5548 17.449 17.519 18.0862 17.5131C18.7235 17.5071 19.4143 17.519 20.0456 17.5845C20.6769 17.65 21.2486 17.7632 21.7846 17.9478C22.3206 18.1384 22.8149 18.4064 23.2139 18.7399C23.6129 19.0734 23.9226 19.4784 24.1191 19.8893C24.3157 20.3002 24.405 20.7231 24.3931 21.2769C24.3812 21.8368 24.268 22.5276 24.0655 23.939C23.863 25.3505 23.5653 27.4706 23.2675 29.5967C21.8144 29.5967 20.3672 29.5967 18.914 29.5967C18.9736 29.1739 19.0332 28.7511 19.0927 28.3223C18.8068 28.5248 18.515 28.7272 18.1517 28.9C17.7885 29.0727 17.3478 29.2096 16.9011 29.3109C16.4544 29.4121 16.0018 29.4776 15.4956 29.4955C14.9894 29.5134 14.4236 29.4776 13.9769 29.4062C13.5303 29.3347 13.1968 29.2156 12.8931 29.0488C12.5893 28.8821 12.3154 28.6677 12.1069 28.4176C11.8985 28.1674 11.7615 27.8875 11.6603 27.5778C11.559 27.2682 11.4995 26.9287 11.4876 26.5535C11.4756 26.1783 11.5173 25.7733 11.6543 25.3564C11.7913 24.9396 12.0295 24.5167 12.3094 24.1832C12.5953 23.8497 12.9228 23.6055 13.3993 23.3673C13.8698 23.1291 14.4832 22.9028 15.4658 22.6229C16.4485 22.343 17.8004 22.0035 18.6639 21.7891C19.5334 21.5747 19.9146 21.4854 20.3017 21.3901C20.3195 21.1757 20.3434 20.9613 20.2957 20.7886C20.2481 20.6159 20.1349 20.4908 19.9622 20.3836C19.7835 20.2824 19.5453 20.199 19.2416 20.1394C18.9379 20.0799 18.5686 20.0442 18.1279 20.0322C17.6872 20.0203 17.1691 20.0263 16.6807 20.0858C16.1864 20.1454 15.7219 20.2526 15.2514 20.4015C14.7809 20.5563 14.3045 20.7469 13.9174 20.9434C13.5303 21.134 13.2385 21.3246 12.9407 21.5092V21.533ZM19.7061 23.6353C19.6227 24.3857 19.5394 25.1361 19.45 25.6066C19.3667 26.083 19.2833 26.2795 19.1582 26.4701C19.0332 26.6666 18.8724 26.8572 18.6818 27.0061C18.4972 27.155 18.2887 27.2622 18.0088 27.3396C17.7349 27.4111 17.3894 27.4468 17.0857 27.429C16.782 27.4051 16.514 27.3277 16.3055 27.2026C16.0971 27.0776 15.9423 26.9049 15.8231 26.7143C15.704 26.5237 15.6207 26.3212 15.5909 26.1068C15.5552 25.8924 15.5671 25.678 15.6207 25.4756C15.6743 25.2731 15.7636 25.0884 15.8767 24.9396C15.9959 24.7907 16.1328 24.6775 16.3532 24.5822C16.5676 24.4869 16.8534 24.4036 17.4252 24.2487C17.9969 24.0939 18.8485 23.8616 19.7002 23.6353H19.7061Z" fill="black"/>
<path fill-rule="evenodd" clip-rule="evenodd" d="M37.1378 25.9699C36.9413 26.9763 36.7448 27.9888 36.5482 28.9952C36.5304 29.025 36.5065 29.0607 36.3041 29.156C36.1016 29.2513 35.7145 29.4062 35.3095 29.5134C34.9045 29.6206 34.4876 29.6861 34.0529 29.7278C33.6241 29.7695 33.1834 29.7873 32.6534 29.7873C32.1233 29.7814 31.5099 29.7575 30.9203 29.6861C30.3367 29.6146 29.7769 29.5015 29.2289 29.3407C28.681 29.1739 28.1391 28.9595 27.6746 28.6856C27.21 28.4116 26.817 28.084 26.4954 27.7148C26.1738 27.3456 25.9237 26.9287 25.7629 26.5237C25.6021 26.1187 25.5365 25.7316 25.5068 25.2433C25.477 24.7549 25.4829 24.1594 25.5723 23.5757C25.6557 22.9921 25.8165 22.4144 26.0547 21.8665C26.2869 21.3246 26.5966 20.8124 26.942 20.3657C27.2875 19.925 27.6627 19.5439 28.157 19.1925C28.6453 18.8411 29.2468 18.5076 29.89 18.2396C30.5332 17.9716 31.224 17.7691 31.9089 17.6322C32.5998 17.4952 33.2846 17.4297 34.0112 17.4297C34.7378 17.4297 35.506 17.5012 36.1135 17.6143C36.715 17.7215 37.1557 17.8644 37.4475 17.9955C37.7334 18.1205 37.8704 18.2337 38.0073 18.3468C37.8525 19.3295 37.6976 20.3062 37.5368 21.2888C37.3046 21.0983 37.0723 20.9136 36.7626 20.7469C36.453 20.5801 36.0718 20.4372 35.6192 20.3598C35.1725 20.2883 34.6603 20.2824 34.1839 20.3241C33.7134 20.3657 33.2787 20.461 32.8618 20.6218C32.439 20.7826 32.034 21.0089 31.7064 21.2472C31.3789 21.4794 31.1347 21.7236 30.9263 22.0154C30.7178 22.3072 30.5392 22.6586 30.4379 22.9981C30.3367 23.3375 30.3069 23.677 30.3128 23.9867C30.3188 24.2964 30.3545 24.5882 30.426 24.8562C30.4975 25.1242 30.6106 25.3803 30.7893 25.6244C30.9679 25.8686 31.2062 26.1068 31.4861 26.3034C31.766 26.4999 32.0876 26.6547 32.439 26.7738C32.7903 26.887 33.1834 26.9644 33.642 26.9704C34.1065 26.9763 34.6425 26.9049 35.1606 26.7858C35.6847 26.6666 36.1909 26.4939 36.5185 26.351C36.846 26.2081 36.9889 26.089 37.1378 25.9758V25.9699Z" fill="black"/>
<path fill-rule="evenodd" clip-rule="evenodd" d="M38.6088 12.4865C38.4123 13.4929 38.2157 14.5054 38.0192 15.5118C38.0013 15.5416 37.9775 15.5773 37.775 15.6726C37.5726 15.7679 37.1854 15.9228 36.7805 16.03C36.3755 16.1372 35.9586 16.2027 35.5239 16.2444C35.0951 16.286 34.6544 16.3039 34.1243 16.3039C33.5943 16.298 32.9809 16.2741 32.3913 16.2027C31.8076 16.1312 31.2478 16.0181 30.6999 15.8573C30.152 15.6905 29.6101 15.4761 29.1455 15.2022C28.681 14.9282 28.288 14.6006 27.9664 14.2314C27.6448 13.8622 27.3946 13.4453 27.2338 13.0403C27.073 12.6353 27.0075 12.2482 26.9777 11.7599C26.948 11.2715 26.9539 10.676 27.0433 10.0923C27.1266 9.50871 27.2874 8.93103 27.5257 8.38312C27.7579 7.84117 28.0676 7.329 28.413 6.88234C28.7584 6.44164 29.1336 6.06049 29.6279 5.70911C30.1163 5.35774 30.7178 5.02423 31.361 4.75623C32.0042 4.48824 32.695 4.28575 33.3799 4.14878C34.0707 4.0118 34.7556 3.94629 35.4822 3.94629C36.2087 3.94629 36.977 4.01775 37.5845 4.13091C38.186 4.23811 38.6267 4.38104 38.9185 4.51206C39.2044 4.63712 39.3413 4.75028 39.4783 4.86343C39.3235 5.84609 39.1686 6.82279 39.0078 7.80544C38.7756 7.61487 38.5433 7.43025 38.2336 7.26349C37.9239 7.09674 37.5428 6.95381 37.0902 6.87639C36.6435 6.80492 36.1313 6.79897 35.6549 6.84065C35.1844 6.88234 34.7497 6.97763 34.3328 7.13843C33.9099 7.29923 33.505 7.52553 33.1774 7.76375C32.8499 7.99602 32.6057 8.24019 32.3972 8.53201C32.1888 8.82383 32.0101 9.1752 31.9089 9.51467C31.8076 9.85413 31.7779 10.1936 31.7838 10.5033C31.7898 10.813 31.8255 11.1048 31.897 11.3728C31.9684 11.6408 32.0816 11.8969 32.2603 12.141C32.4389 12.3852 32.6771 12.6234 32.9571 12.82C33.237 13.0165 33.5586 13.1713 33.9099 13.2904C34.2613 13.4036 34.6544 13.481 35.1129 13.487C35.5775 13.4929 36.1135 13.4215 36.6316 13.3024C37.1557 13.1832 37.6619 13.0105 37.9894 12.8676C38.317 12.7247 38.4599 12.6056 38.6088 12.4924V12.4865Z" fill="black"/>
<path d="M41.6819 5.05431C41.3365 5.05431 41.0268 5.19128 40.8005 5.41759C40.5742 5.6439 40.4372 5.95358 40.4372 6.299C40.4372 6.64442 40.5742 6.95411 40.8005 7.18041C41.0268 7.40672 41.3365 7.5437 41.6819 7.5437C42.0273 7.5437 42.337 7.40672 42.5633 7.18041C42.7896 6.95411 42.9266 6.64442 42.9266 6.299C42.9266 5.95358 42.7896 5.6439 42.5633 5.41759C42.337 5.19128 42.0273 5.05431 41.6819 5.05431ZM40.5622 5.17937C40.8481 4.89351 41.2471 4.71484 41.6819 4.71484C42.1166 4.71484 42.5156 4.89351 42.8015 5.17937C43.0874 5.46523 43.266 5.86425 43.266 6.299C43.266 6.73375 43.0874 7.13277 42.8015 7.41863C42.5156 7.7045 42.1166 7.88316 41.6819 7.88316C41.2471 7.88316 40.8481 7.7045 40.5622 7.41863C40.2764 7.13277 40.0977 6.73375 40.0977 6.299C40.0977 5.86425 40.2764 5.46523 40.5622 5.17937Z" fill="black"/>
<path d="M41.3245 5.48926H40.9672V7.12702H41.3245V5.48926Z" fill="black"/>
<path d="M41.8254 5.78669L41.8254 5.48633L40.9708 5.48633L40.9708 5.78669L41.8254 5.78669Z" fill="black"/>
<path d="M41.8254 6.47419L41.8254 6.17383L40.9708 6.17383L40.9708 6.47419L41.8254 6.47419Z" fill="black"/>
<path fill-rule="evenodd" clip-rule="evenodd" d="M41.67 5.78664C41.7236 5.78664 41.7712 5.78664 41.8188 5.79259C41.8605 5.79855 41.8963 5.81046 41.9201 5.84024C41.9439 5.87002 41.9618 5.91766 41.9618 5.9653C41.9618 6.01295 41.9439 6.05464 41.9201 6.09037C41.8963 6.1261 41.8605 6.14992 41.8248 6.16183C41.7891 6.17375 41.7593 6.17375 41.7295 6.17375C41.658 6.27499 41.5866 6.37623 41.5092 6.47748C41.5628 6.50725 41.6164 6.53703 41.67 6.59063C41.7236 6.64423 41.7771 6.72761 41.8307 6.81694C41.8843 6.90627 41.9439 7.01347 41.9975 7.11471C42.1285 7.11471 42.2595 7.11471 42.3906 7.11471C42.3191 6.98369 42.2536 6.85863 42.1881 6.75143C42.1226 6.65018 42.069 6.56681 42.0273 6.51916C41.9856 6.47152 41.9558 6.45365 41.926 6.43579C42.0035 6.3941 42.0868 6.35837 42.1464 6.30477C42.2059 6.25117 42.2536 6.19161 42.2834 6.12015C42.3131 6.05464 42.3251 5.98317 42.3191 5.90575C42.3131 5.82833 42.2834 5.739 42.2476 5.67944C42.2059 5.61393 42.1583 5.57224 42.1047 5.54246C42.0571 5.51269 42.0035 5.49482 41.9618 5.48887C41.9141 5.48291 41.8724 5.48291 41.8307 5.48291C41.7891 5.48291 41.7533 5.48291 41.7236 5.48291C41.7116 5.5782 41.6997 5.67349 41.6878 5.76282C41.6819 5.76877 41.6759 5.77473 41.67 5.78068V5.78664Z" fill="black"/>
</g>
<defs>
<clipPath id="clip0_1233_3452">
<rect width="42.8795" height="29.7003" fill="white" transform="translate(0.386536 0.0869141)"/>
</clipPath>
</defs>
</svg>
