<svg width="101" height="22" viewBox="0 0 101 22" fill="none" xmlns="http://www.w3.org/2000/svg">
<g clip-path="url(#clip0_1233_3859)">
<path fill-rule="evenodd" clip-rule="evenodd" d="M90.2298 7.32046L91.5451 12.5533C91.5175 12.5907 89.5886 12.6913 87.8894 12.9344C88.2759 10.9076 89.0917 8.34013 90.2298 7.32046ZM0.537826 8.98399C1.94667 9.32774 3.83996 8.43987 5.53912 8.38376C5.56405 10.9699 4.53726 19.2475 5.85615 20.6635C7.51167 21.5255 11.9199 20.7213 13.2485 20.0214C13.3296 17.9188 11.7364 9.60025 13.0143 7.85656C13.0553 7.82539 13.1283 7.74168 13.1515 7.78621L13.8274 7.60454C18.0219 7.09515 18.2142 8.88247 18.013 4.72897C17.8829 2.0333 16.6103 2.43583 11.3374 2.46165C8.51531 2.4759 5.57207 2.58633 2.88708 3.04139C1.53345 3.27115 0.679423 3.49112 0.371295 4.84029C0.146878 5.82434 0.234151 8.25998 0.538717 8.9831L0.537826 8.98399ZM27.2621 16.6863C22.9947 17.0309 23.13 9.86741 24.7472 7.90287C28.8482 2.92117 32.6579 15.029 27.2621 16.6863ZM23.9306 20.6563C30.0326 22.4 36.7366 17.3061 35.4756 9.78904C34.7997 5.76022 30.5625 2.26306 26.881 2.17222C25.5559 2.13927 24.1924 2.42959 23.0445 2.93364C17.3905 5.41647 20.8867 7.14858 18.3816 8.73553C17.785 9.11401 17.5018 8.62154 17.3139 11.0759C17.0369 14.7084 20.3408 19.6313 23.9306 20.6563ZM51.1225 13.1357C52.2098 12.6976 52.0522 10.3438 51.7752 9.6421C51.0379 7.77641 47.6814 8.76046 44.2056 8.96351L44.4024 6.48691C52.7913 5.59903 53.1493 7.86101 53.1939 2.07248C49.9487 1.1009 44.0159 1.25407 40.4867 1.8543C38.6406 2.16866 38.2203 2.30046 37.8071 3.94173C36.7722 8.04892 37.1 12.3048 37.4099 16.5331C37.677 20.1844 37.1391 21.2655 43.6072 19.9947L45.5886 19.6607L44.8842 14.061L51.1225 13.1357ZM57.5379 0.293178C54.1459 1.16858 53.3328 4.5945 56.9074 5.57232C58.4009 5.98108 60.3111 5.73885 61.4545 4.94538C64.6284 2.74395 61.6104 -0.399664 57.5388 0.292288L57.5379 0.293178ZM55.6624 8.58235C55.5021 10.497 55.528 12.4295 55.3365 14.3192C55.2038 15.6239 54.4914 19.0284 54.7105 19.7346C54.8984 20.2983 60.6611 21.3047 61.5258 20.2743C62.639 19.3775 62.899 7.95096 61.6665 7.80936C60.2461 7.64105 55.4291 7.44869 55.6616 8.58235H55.6624ZM68.3847 19.2181C71.0724 20.1461 72.5943 20.7249 75.8751 19.9875C77.4193 14.679 77.1468 11.4731 77.0506 6.47355L81.7776 6.42457C81.7794 6.46286 81.7928 6.31147 81.7963 6.33997L81.8729 3.63272C81.8017 2.58989 81.8106 1.91931 81.0679 1.51233C78.9662 0.362641 65.2287 1.03945 64.3755 2.3343C63.8857 3.62737 64.1814 6.17165 64.8146 7.24565L69.5727 6.82353C69.6262 9.06859 69.4792 11.3324 69.1738 13.5462C69.0803 14.2213 67.7444 19.0703 68.383 19.2181H68.3847ZM88.4425 2.05556C88.2439 2.21408 88.2732 2.94967 87.9794 2.98707C87.8565 3.08503 87.4326 2.07337 86.144 2.45275C85.2169 2.72525 84.7868 3.71108 84.0868 4.91332C83.3441 6.18947 82.5943 7.90465 82.1196 9.27253C81.5764 10.8363 79.4079 17.5519 79.6305 19.081C80.7891 19.9163 84.801 20.9084 86.347 20.0374C87.86 18.7488 84.4858 16.5857 92.5986 17.3667C92.7794 19.2894 92.7366 20.0543 94.7145 19.7231C96.6185 19.4051 100.14 19.3125 100.302 16.9214C100.031 15.4761 95.5347 2.89891 93.8463 1.13118C92.4624 -0.318625 89.2849 1.38409 88.4416 2.05645L88.4425 2.05556Z" fill="black"/>
</g>
<defs>
<clipPath id="clip0_1233_3859">
<rect width="100.059" height="20.8432" fill="white" transform="translate(0.244171 0.195312)"/>
</clipPath>
</defs>
</svg>
