<svg width="116" height="58" viewBox="0 0 116 58" fill="none" xmlns="http://www.w3.org/2000/svg">
<g clip-path="url(#clip0_1233_3604)">
<path fill-rule="evenodd" clip-rule="evenodd" d="M12.737 6.51785C18.249 5.14187 23.8016 3.74158 29.4271 2.91072C33.7698 2.26833 38.149 1.8833 42.5221 1.5003C45.7787 1.21456 49.0373 0.957201 52.2979 0.734289C54.373 0.592436 56.4542 0.41208 58.5374 0.420186C60.6854 0.428292 62.8294 0.592436 64.9694 0.738342C68.0922 0.951122 71.2109 1.20646 74.3277 1.48611C78.642 1.87519 82.9604 2.27644 87.2464 2.91072C92.8719 3.74158 98.4245 5.14187 103.936 6.51785C106.518 7.16227 109.063 9.05499 110.739 11.0896C114.754 15.9632 115.83 22.8492 115.83 28.9854C115.83 35.1215 114.752 42.0075 110.739 46.8812C109.063 48.9157 106.518 50.8085 103.936 51.4529C98.4245 52.8289 92.8719 54.2292 87.2464 55.06C82.9604 55.6943 78.642 56.0955 74.3277 56.4846C71.2109 56.7663 68.0902 57.0196 64.9694 57.2324C62.8274 57.3783 60.6834 57.5425 58.5374 57.5506C56.4562 57.5587 54.373 57.3763 52.2979 57.2365C49.0373 57.0135 45.7787 56.7562 42.5221 56.4704C38.149 56.0874 33.7698 55.7024 29.4271 55.06C23.8016 54.2292 18.249 52.8289 12.737 51.4529C10.1553 50.8085 7.61003 48.9157 5.93413 46.8812C1.91969 42.0075 0.843628 35.1215 0.843628 28.9854C0.843628 22.8492 1.92171 15.9632 5.93413 11.0896C7.61003 9.05499 10.1553 7.16227 12.737 6.51785Z" fill="black"/>
<path fill-rule="evenodd" clip-rule="evenodd" d="M13.4109 9.23641C18.7223 7.78545 24.3903 6.48648 29.8334 5.68197C34.089 5.05376 38.4763 4.66671 42.7623 4.29181C46.0006 4.0081 49.241 3.75074 52.4833 3.52985C54.449 3.39611 56.5545 3.21575 58.5222 3.22183C60.5811 3.22791 62.7191 3.39205 64.7739 3.53391C67.8764 3.74669 70.9769 3.99797 74.0734 4.27762C78.3108 4.6586 82.6251 5.06187 86.8341 5.684C92.2752 6.48851 97.9453 7.78748 103.257 9.23843C105.267 9.68223 107.316 11.3419 108.574 12.8719C112.139 17.2005 113.026 23.5717 113.026 28.9885C113.026 34.4052 112.139 40.7765 108.574 45.105C107.316 46.633 105.267 48.2947 103.257 48.7385C97.9453 50.1894 92.2772 51.4884 86.8341 52.2929C82.6251 52.9151 78.3108 53.3163 74.0734 53.6993C70.9769 53.979 67.8764 54.2302 64.7739 54.443C62.7191 54.5828 60.5811 54.747 58.5222 54.7551C56.5545 54.7612 54.449 54.5808 52.4833 54.4471C49.241 54.2262 45.9986 53.9688 42.7623 53.6851C38.4743 53.3102 34.089 52.9232 29.8334 52.295C24.3923 51.4904 18.7223 50.1915 13.4109 48.7405C11.4006 48.2967 9.35184 46.637 8.0934 45.107C4.52883 40.7785 3.64124 34.4073 3.64124 28.9905C3.64124 23.5737 4.52883 17.2025 8.0934 12.8739C9.35184 11.346 11.4006 9.68426 13.4109 9.24046V9.23641ZM13.7432 10.5982C17.8529 9.47553 22.1207 8.49066 26.3013 7.70237C27.5415 7.46932 28.7878 7.25249 30.0361 7.06808C31.943 6.7864 33.8681 6.56957 35.7852 6.36692C38.148 6.11564 40.517 5.89475 42.8839 5.68602C46.1121 5.40232 49.3443 5.14698 52.5786 4.9261C53.7985 4.84301 55.0184 4.76398 56.2384 4.70116C56.9922 4.66265 57.7623 4.61807 58.5161 4.6201C60.5446 4.62618 62.6522 4.79032 64.6766 4.92812C67.769 5.13888 70.8594 5.39016 73.9457 5.66981C78.1567 6.04876 82.4448 6.44798 86.6274 7.06605C87.8777 7.25046 89.122 7.46527 90.3642 7.70034C94.5448 8.48864 98.8126 9.47351 102.922 10.5962C104.616 10.9549 106.438 12.4788 107.492 13.7595C110.828 17.8084 111.626 23.9284 111.626 28.9844C111.626 34.0405 110.828 40.1604 107.492 44.2093C106.438 45.488 104.616 47.014 102.922 47.3726C98.8126 48.4953 94.5448 49.4802 90.3642 50.2685C89.124 50.5015 87.8777 50.7184 86.6274 50.9028C82.4448 51.5208 78.1567 51.9201 73.9457 52.299C70.8594 52.5766 67.769 52.8279 64.6766 53.0407C62.6522 53.1785 60.5446 53.3426 58.5161 53.3487C57.7623 53.3507 56.9902 53.3082 56.2384 53.2677C55.0184 53.2048 53.7965 53.1258 52.5786 53.0427C49.3463 52.8218 46.1121 52.5665 42.8839 52.2828C40.517 52.0761 38.148 51.8532 35.7852 51.6019C33.8681 51.3993 31.943 51.1824 30.0361 50.9007C28.7857 50.7163 27.5415 50.5015 26.3013 50.2665C22.1207 49.4782 17.8529 48.4933 13.7432 47.3706C12.0491 47.0119 10.2273 45.488 9.17351 44.2073C5.83793 40.1584 5.04153 34.0384 5.04153 28.9824C5.04153 23.9263 5.83996 17.8064 9.17351 13.7575C10.2273 12.4788 12.0491 10.9528 13.7432 10.5941V10.5982Z" fill="#FEFEFE"/>
<path fill-rule="evenodd" clip-rule="evenodd" d="M17.7597 18.8541C17.7597 18.8541 17.5753 22.3741 20.0942 22.5605C22.6152 22.7449 24.4674 22.672 24.4674 22.672V39.7937C24.4674 39.7937 25.2455 41.6459 29.7666 41.3135V22.6355H34.3626C34.3626 22.6355 36.8086 22.5605 37.0315 18.7082V18.0962C37.0315 18.0962 36.1054 18.9493 27.6368 18.9108C19.1681 18.8744 17.78 18.2441 17.78 18.2441L17.7617 18.8561L17.7597 18.8541Z" fill="#FEFEFE"/>
<path fill-rule="evenodd" clip-rule="evenodd" d="M38.7906 24.4707H44.3492C47.4071 24.4707 49.9078 26.9714 49.9078 30.0293V35.6629C49.9078 38.7209 47.4071 41.2215 44.3492 41.2215H38.7906C35.7326 41.2215 33.2319 38.7209 33.2319 35.6629V30.0293C33.2319 26.9714 35.7326 24.4707 38.7906 24.4707ZM40.9224 27.5874H42.2193C43.5649 27.5874 44.6653 28.6878 44.6653 30.0334V35.4907C44.6653 36.8363 43.5649 37.9366 42.2193 37.9366H40.9224C39.5768 37.9366 38.4764 36.8363 38.4764 35.4907V30.0334C38.4764 28.6878 39.5768 27.5874 40.9224 27.5874Z" fill="#FEFEFE"/>
<path fill-rule="evenodd" clip-rule="evenodd" d="M51.8349 24.1004C51.8349 24.1004 53.8735 25.213 57.3205 24.4348C60.7676 23.6567 64.2126 23.8411 64.5105 27.0287C64.5652 27.8433 64.3261 28.9559 62.8792 30.2528C62.8792 30.2528 62.026 26.6943 57.1726 27.8818V40.4825C57.1726 40.4825 52.5178 41.2343 51.5775 39.0376V24.1025V23.9424L51.8369 24.1025L51.8349 24.1004Z" fill="#FEFEFE"/>
<path fill-rule="evenodd" clip-rule="evenodd" d="M66.0222 16.6769C66.0222 16.6769 70.061 16.1217 71.3579 18.5291C71.3579 18.5291 71.364 29.0789 71.3579 29.6828C71.5525 29.5835 73.3581 28.7203 74.3227 26.5702C75.2852 24.4201 76.4342 23.6804 78.4729 23.8283C80.5115 23.9763 81.5126 24.1242 81.5126 24.1242C81.5126 24.1242 80.0616 25.9359 79.4314 27.3443C78.8012 28.7527 77.6582 30.3131 75.8425 30.8318C75.4555 30.9473 75.5142 31.2452 75.8425 31.3506C76.1708 31.456 79.5388 32.7023 80.854 36.2243C82.1692 39.7443 82.6332 39.3937 82.6332 39.3937C82.6332 39.3937 80.7425 40.486 78.6674 40.0786C76.5923 39.6713 75.8324 37.7259 75.1474 36.2993C74.4625 34.8726 72.9791 33.1116 71.1634 33.4095V40.4515C71.1634 40.4515 66.466 40.4698 65.9006 38.3399V16.6952L66.0222 16.6789V16.6769Z" fill="#FEFEFE"/>
<path fill-rule="evenodd" clip-rule="evenodd" d="M83.3467 23.7273C83.3467 23.7273 86.737 23.2835 88.7027 25.3019V35.2884C88.7209 35.7889 89.4971 36.9845 91.5924 36.4475C93.6858 35.9105 93.8175 36.2347 93.8175 36.2347V23.3241C93.8175 23.3241 98.0427 22.787 98.9141 25.1945V39.9999C98.9141 39.9999 96.1905 38.9624 93.5581 39.4811C90.9278 39.9999 86.3682 40.0364 84.9598 38.5915C83.5514 37.1466 83.1805 36.4799 83.1805 34.1069C83.1805 31.736 83.3467 23.7273 83.3467 23.7273Z" fill="#FEFEFE"/>
</g>
<defs>
<clipPath id="clip0_1233_3604">
<rect width="114.989" height="57.1304" fill="white" transform="translate(0.840088 0.422363)"/>
</clipPath>
</defs>
</svg>
