<svg width="72" height="32" viewBox="0 0 72 32" fill="none" xmlns="http://www.w3.org/2000/svg">
<g clip-path="url(#clip0_1233_4071)">
<path d="M71.2849 20.1965C70.8357 19.8126 63.7321 13.6001 63.7321 13.6001C63.7321 13.6001 66.9199 7.74261 67.1662 7.30068C67.5936 6.53272 67.1915 5.86982 66.3113 5.96762C65.7389 6.03282 63.6162 6.26828 63.6162 6.26828L60.9429 11.1875L56.2373 7.08333C56.2373 7.08333 50.9884 7.66292 50.532 7.71726C49.9089 7.78608 49.5902 8.55041 50.148 9.0648C50.3509 9.25317 57.7696 15.7953 57.7696 15.7953C57.7696 15.7953 54.1218 22.4497 53.9153 22.8156C53.4118 23.703 53.9262 24.4058 54.8065 24.2573C55.3933 24.1595 57.5921 23.7864 57.5921 23.7864L60.6023 18.3201L65.2825 22.4968C65.2825 22.4968 70.4517 21.6346 70.9697 21.5477C71.6145 21.4427 71.8536 20.6783 71.2885 20.2002L71.2849 20.1965ZM40.3022 8.83296C39.6574 8.90541 38.4765 9.0322 38.4765 9.0322C38.4765 9.0322 37.5419 18.5266 37.5202 19.1641C37.1616 18.5882 32.1844 10.8072 32.1844 10.8072C31.7026 10.0247 31.1556 9.78204 29.924 9.91607C28.859 10.032 28.1888 10.3254 28.1309 11.2201L27.3883 20.6059L21.4439 10.9231C21.4439 10.9231 17.8794 11.3216 16.8035 11.4375C15.9522 11.5317 15.561 12.3793 16.0645 13.1835C16.4956 13.8754 25.3706 28.3144 25.3706 28.3144C25.7908 28.9701 26.6964 29.1222 28.1417 28.8686C29.5219 28.6296 30.3007 28.1333 30.355 27.2059L30.8658 19.1641L35.4083 26.5756C35.8865 27.3327 36.8066 27.4414 38.0563 27.2313C39.5053 26.9886 40.3493 26.5358 40.4182 25.6881C40.4182 25.6881 41.744 10.9485 41.8092 10.3073C41.8889 9.47051 41.2622 8.72791 40.2986 8.83296H40.3022Z" fill="black"/>
<path d="M13.4527 31.1722L8.33424 11.6726C8.20746 11.1908 7.8742 10.9119 7.21491 10.9952L0.995197 11.6437L0.198262 8.66239C0.0352525 8.03571 0.404741 7.61551 0.944483 7.56479L19.7739 5.76807L20.4223 8.48489C20.5962 9.15142 20.2702 9.61509 19.5384 9.68754L11.5039 10.5388C11.3155 10.5569 11.2358 10.6439 11.2539 10.7779C11.2684 10.9119 11.3771 10.9663 11.6596 10.9916L13.4093 11.1619C14.2424 11.2343 14.5684 11.6618 14.6952 12.158L19.14 29.0929C19.3102 29.7377 18.9733 30.2557 18.2959 30.3644L13.4455 31.1794L13.4527 31.1722ZM51.6151 24.7822C52.3939 24.6518 52.7018 24.2026 52.4736 23.3441L48.4309 7.94153L43.7363 8.45591C43.0734 8.52836 42.6677 9.07535 42.8307 9.69478L47.0073 25.5538L51.6151 24.7858V24.7822Z" fill="black"/>
<path d="M43.892 1.64233C45.2649 1.52641 46.6668 2.49723 47.0254 3.87375C47.3841 5.24665 46.5328 6.46017 45.1925 6.59782C43.7979 6.74272 42.396 5.66685 42.0518 4.34467C41.6968 2.99712 42.5155 1.76187 43.8957 1.64233H43.892ZM43.6711 0.96856C41.9033 1.11708 40.8456 2.66748 41.3092 4.43523C41.7729 6.19935 43.5733 7.48169 45.3301 7.29695C47.087 7.10858 48.1448 5.55818 47.692 3.83028C47.2392 2.10238 45.4388 0.823662 43.6711 0.972182V0.96856Z" fill="black"/>
<path d="M45.3555 5.50396C45.2613 5.50396 45.1671 5.43513 45.1454 5.3482L44.4535 2.71831C44.4426 2.68571 44.4498 2.65311 44.468 2.62775C44.4861 2.60239 44.5223 2.58066 44.5621 2.58066L44.9497 2.54443C45.0584 2.54443 45.1598 2.61326 45.1852 2.7002L45.8735 5.32284C45.8807 5.35906 45.8771 5.39167 45.859 5.41702C45.8409 5.446 45.8046 5.46411 45.7648 5.46774L45.3772 5.50758H45.3555V5.50396Z" fill="black"/>
<path d="M44.2434 5.60866C44.1492 5.60866 44.0551 5.53983 44.0297 5.45289L43.3414 2.81938C43.3306 2.78316 43.3342 2.75418 43.3523 2.72882C43.3704 2.70347 43.403 2.68535 43.4465 2.68173L43.8341 2.64551C43.9464 2.64551 44.0478 2.71433 44.0696 2.80127L44.7578 5.42391C44.7687 5.45651 44.7614 5.48912 44.7433 5.51447C44.7252 5.54345 44.689 5.56157 44.6455 5.56519L44.2615 5.60503L44.2398 5.60866H44.2434Z" fill="black"/>
</g>
<defs>
<clipPath id="clip0_1233_4071">
<rect width="71.4416" height="30.2165" fill="white" transform="translate(0.162109 0.957031)"/>
</clipPath>
</defs>
</svg>
