<svg width="76" height="46" viewBox="0 0 76 46" fill="none" xmlns="http://www.w3.org/2000/svg">
<g clip-path="url(#clip0_1233_3672)">
<path fill-rule="evenodd" clip-rule="evenodd" d="M36.3481 3.75802C40.4177 3.79109 45.1543 4.4383 50.2393 6.28839L64.8901 0.627847C64.8901 0.627847 67.5892 -0.439432 67.2408 2.32579L63.6928 15.1916C63.6928 15.1916 63.6498 16.9336 63.9541 17.8035C64.2584 18.6746 70.1361 28.1224 58.9903 37.7015C53.4301 42.48 45.033 45.4017 36.3481 45.4194C27.6633 45.4017 19.2662 42.48 13.706 37.7015C2.56017 28.1224 8.43792 18.6746 8.74223 17.8035C9.04654 16.9325 9.00354 15.1916 9.00354 15.1916L5.4555 2.32579C5.10709 -0.439432 7.80615 0.627847 7.80615 0.627847L22.457 6.28839C27.542 4.43719 32.2786 3.79109 36.3481 3.75802Z" fill="black"/>
<path d="M3.90968 20.5081H2.42122C2.22938 20.5555 1.21612 20.8499 1.21612 21.7672C1.21612 22.3185 1.22825 23.4023 1.24369 24.528C1.25912 25.7022 1.27897 26.9481 1.29 27.7177C1.30323 28.5546 1.79166 29.3385 2.48517 29.9317C3.25696 30.591 4.27132 31.0067 5.16991 30.9956C7.63303 30.9648 8.03767 30.1786 8.03877 30.1764C8.12036 30.0276 8.30669 29.9725 8.45554 30.0529L8.46877 30.0607C8.56028 30.1136 9.89328 30.8743 11.4755 30.8743C12.288 30.8743 13.287 30.4763 14.0764 29.925C14.8085 29.4135 15.3465 28.7894 15.3465 28.2657V21.3868C15.3465 21.3769 15.3465 21.3659 15.3476 21.3559C15.3465 21.2578 15.2627 20.5411 13.0246 20.4805V27.3737C13.0246 27.4079 13.019 27.441 13.008 27.4718C12.9551 27.6824 12.6342 28.7056 11.4093 28.7056C10.7356 28.7056 10.3178 28.4487 10.0653 28.0816C9.82382 27.7309 9.75105 27.2943 9.75105 26.8941V20.4717L9.75215 20.4518C9.74553 20.3295 9.65623 19.6481 8.49303 19.6481C7.77416 19.6481 7.36731 19.7594 7.149 19.9248C6.97811 20.0538 6.934 20.2357 6.934 20.4177V26.9724C6.94503 27.1499 6.99244 28.6814 5.35955 28.6814C3.69909 28.6814 3.88763 26.9106 3.91299 26.7177L3.90968 20.507V20.5081ZM2.38815 19.8906H4.21729V19.8917C4.38709 19.8917 4.52491 20.0296 4.52491 20.1994L4.52822 26.7232C4.53042 26.7453 4.52932 26.7684 4.52601 26.7916C4.52601 26.7949 4.32755 28.0661 5.36065 28.0661C6.35516 28.0661 6.3276 27.1267 6.32098 27.0165C6.31988 27.0055 6.31878 26.9933 6.31878 26.9812V20.4188C6.31878 20.0681 6.4136 19.7109 6.77965 19.4342C7.09718 19.1938 7.62531 19.0317 8.49523 19.0317C10.2152 19.0317 10.3575 20.2082 10.3685 20.4353C10.3696 20.4474 10.3707 20.4596 10.3707 20.4717V26.8941C10.3707 27.1907 10.4181 27.5049 10.5736 27.732C10.718 27.9415 10.9749 28.0882 11.4115 28.0882C12.1679 28.0882 12.3718 27.4873 12.4093 27.3439V20.1685C12.4093 19.9976 12.5471 19.8598 12.718 19.8598C15.7821 19.8598 15.9585 21.1277 15.9651 21.3681L15.9662 21.3879V28.2668C15.9662 29.0066 15.3157 29.8126 14.4303 30.43C13.5472 31.0463 12.4137 31.4929 11.4777 31.4929C10.0884 31.4929 8.8679 30.957 8.38056 30.7112C8.03436 31.0386 7.16113 31.5877 5.17873 31.612C4.1335 31.6252 2.96479 31.1522 2.08604 30.4014C1.26794 29.7023 0.691305 28.7585 0.675869 27.7265C0.663741 26.9581 0.644997 25.7122 0.629562 24.5368C0.613023 23.313 0.599792 22.1895 0.599792 21.7694C0.599792 20.3559 2.09707 19.9546 2.30215 19.9061C2.32971 19.8984 2.35948 19.8939 2.38925 19.8939L2.38815 19.8906Z" fill="black"/>
<path fill-rule="evenodd" clip-rule="evenodd" d="M4.21726 20.1994H2.38811C2.38811 20.1994 0.907372 20.5037 0.907372 21.7672C0.907372 22.7386 0.959192 26.1829 0.982346 27.721C1.01211 29.6759 3.31206 31.3253 5.17428 31.3021C7.81932 31.2691 8.30886 30.3231 8.30886 30.3231C8.30886 30.3231 9.75652 31.1831 11.4765 31.1831C13.1965 31.1831 15.6563 29.5502 15.6563 28.2657C15.6563 26.9812 15.6563 21.3868 15.6563 21.3868C15.6563 21.3868 15.7655 20.1674 12.7169 20.1674V27.3726C12.7169 27.3726 12.5206 28.3958 11.4104 28.3958C10.3001 28.3958 10.0608 27.5898 10.0608 26.8941C10.0608 26.1973 10.0608 20.4717 10.0608 20.4717C10.0608 20.4717 10.0829 19.3394 8.49299 19.3394C6.9042 19.3394 6.62415 19.8862 6.62415 20.4177C6.62415 20.9502 6.62415 26.9801 6.62415 26.9801C6.62415 26.9801 6.75094 28.3737 5.35731 28.3737C3.96367 28.3737 4.21726 26.7464 4.21726 26.7464L4.21395 20.1994H4.21726Z" fill="#FEFEFE"/>
<path fill-rule="evenodd" clip-rule="evenodd" d="M17.1592 14.9635V30.8558H20.1636V23.5194C20.1636 23.5194 20.5815 22.2239 21.9487 22.3441C23.3159 22.4632 23.4504 23.7807 23.4504 23.7807V30.7687H26.7161V23.5194C26.7161 23.5194 26.973 20.5028 24.4526 20.0585C21.931 19.6141 20.1857 20.9515 20.1857 20.9515V16.0529C20.1857 16.0529 19.8814 14.6162 17.1592 14.9646V14.9635Z" fill="#FEFEFE"/>
<path fill-rule="evenodd" clip-rule="evenodd" d="M27.9565 20.1662V29.7662C27.9565 30.1366 28.0866 30.9415 30.9169 30.9415V21.3625C30.9169 20.8399 30.3072 19.7505 27.9565 20.1651V20.1662ZM29.4373 14.9092C30.4594 14.9092 31.2874 15.7372 31.2874 16.7593C31.2874 17.7814 30.4594 18.6094 29.4373 18.6094C28.4152 18.6094 27.5872 17.7814 27.5872 16.7593C27.5872 15.7372 28.4152 14.9092 29.4373 14.9092Z" fill="#FEFEFE"/>
<path fill-rule="evenodd" clip-rule="evenodd" d="M42.216 14.9632V30.8555H45.2205V26.3603C45.2205 26.3603 46.3958 27.5798 47.9195 29.7783C49.4433 31.9768 52.2305 30.5776 52.2305 30.5776L48.1125 25.1122L51.8601 20.8961C51.3209 19.6248 50.0089 19.745 49.3606 19.8949C48.9229 19.9964 48.8181 20.2025 48.6175 20.4308L45.2205 24.368L45.2425 16.0514C45.2425 16.0514 44.9382 14.6148 42.2171 14.9632H42.216Z" fill="#FEFEFE"/>
<path fill-rule="evenodd" clip-rule="evenodd" d="M53.4598 23.3229C53.4598 23.3229 51.9581 21.5599 53.8512 20.4276C55.7454 19.2953 59.1413 19.6657 60.0994 20.5577C61.0576 21.4508 61.6011 21.8201 61.6011 23.6702C61.6011 25.5203 61.6011 28.9162 61.6011 28.9162C61.6011 28.9162 61.6232 30.7663 62.4942 30.9405C62.4942 30.9405 60.1435 31.6594 58.7499 30.1787C58.7499 30.1787 57.5702 31.2217 55.8546 31.0717C54.1379 30.9218 52.3065 30.0927 52.3065 27.6538C52.3065 25.216 54.2492 23.7408 58.364 23.958C58.3486 22.9128 58.5095 22.249 57.7311 22.0803C55.8932 21.6812 53.8479 22.689 53.4598 23.3218V23.3229ZM58.2868 25.6901V28.3892C58.2868 28.3892 57.9142 29.0695 56.6109 28.9548C55.3066 28.8413 55.15 27.9096 55.2614 27.2789C55.3728 26.6483 55.8711 25.7111 58.2879 25.6901H58.2868Z" fill="#FEFEFE"/>
<path d="M70.3169 22.8972C70.4448 22.8487 70.6047 22.7175 70.7381 22.5367C70.8373 22.4022 70.9145 22.2434 70.9454 22.0736C70.9751 21.9104 70.963 21.7329 70.8847 21.5532C70.7061 21.1419 70.2 20.7131 69.1361 20.3602C68.0699 20.0074 66.9916 19.992 66.0533 20.1882C64.9772 20.4121 64.0929 20.906 63.6299 21.4771C63.3256 21.852 63.1591 22.2787 63.0929 22.7263C63.0135 23.2644 63.0753 23.8333 63.2175 24.3846C63.5031 25.4927 65.0279 25.8907 66.3433 26.2347C67.6233 26.5688 68.7358 26.8587 68.7358 27.775C68.7358 28.2116 68.5925 28.5423 68.3466 28.7871C68.0269 29.1046 67.5462 29.2524 66.996 29.2822C66.4877 29.3097 65.9111 29.2369 65.351 29.1091C64.4921 28.9139 63.6541 28.5721 63.1414 28.2524C62.9761 29.4277 63.4204 30.0683 64.1018 30.4145C64.9342 30.8379 66.1283 30.8731 67.0544 30.8731C67.6465 30.8731 68.2375 30.7728 68.7711 30.5953C69.3125 30.4156 69.7976 30.1576 70.168 29.8467C70.3842 29.6647 70.5694 29.4795 70.7248 29.291C71.2001 28.7143 71.4095 28.0991 71.3919 27.5015C71.3732 26.9017 71.124 26.3096 70.6807 25.7815C70.5209 25.5908 70.3367 25.41 70.1317 25.2402C69.4668 24.6922 68.4403 24.4331 67.5638 24.2104C66.9276 24.0494 66.3642 23.9072 66.0026 23.6723C65.5252 23.3636 65.3752 22.959 65.7766 22.3382C65.8471 22.2291 65.9364 22.1354 66.0401 22.056C66.4601 21.7362 67.1382 21.659 67.8472 21.7572C68.5219 21.8509 69.2408 22.1045 69.7833 22.4551C69.9894 22.5885 70.1714 22.7362 70.3191 22.8972H70.3169ZM71.2331 22.9027C70.9387 23.3008 70.4966 23.551 70.1725 23.5312C70.0865 23.5257 70.0027 23.4849 69.9453 23.411C69.8252 23.2534 69.6521 23.1045 69.4448 22.9711C68.9773 22.669 68.351 22.4496 67.759 22.3669C67.2011 22.2897 66.6895 22.3327 66.4105 22.5455C66.3609 22.583 66.3201 22.626 66.2892 22.6734C66.136 22.9105 66.1768 23.0549 66.3345 23.1574C66.6079 23.3338 67.125 23.465 67.7104 23.6128C68.6476 23.8498 69.7458 24.1277 70.5198 24.765C70.7579 24.9612 70.9685 25.1685 71.1504 25.3857C71.6819 26.0186 71.9807 26.7396 72.0038 27.4817C72.027 28.2259 71.7734 28.9812 71.1978 29.6802C71.0159 29.9007 70.8042 30.1135 70.5617 30.3175C70.135 30.6758 69.5793 30.9724 68.9619 31.1764C68.3621 31.3759 67.7049 31.4884 67.0522 31.4884C66.0599 31.4884 64.7754 31.4487 63.8206 30.9625C62.803 30.4443 62.1734 29.4663 62.6387 27.614H62.6398C62.6596 27.5335 62.7125 27.4618 62.7908 27.4188C62.9397 27.3372 63.1271 27.3924 63.2076 27.5423C63.3498 27.8025 64.3763 28.2546 65.4844 28.5071C65.9949 28.6228 66.5142 28.689 66.9629 28.6647C67.3698 28.6427 67.7104 28.5478 67.9111 28.3483C68.0412 28.2182 68.1173 28.0307 68.1173 27.7727C68.1173 27.3317 67.2198 27.0969 66.1878 26.8279C64.7093 26.442 62.9981 25.9954 62.621 24.5345C62.4601 23.9094 62.3895 23.2578 62.4821 22.6359C62.5637 22.0846 62.771 21.5565 63.1514 21.0879C63.6982 20.4143 64.7126 19.8376 65.9265 19.5851C66.9629 19.369 68.1526 19.3856 69.3279 19.7748C70.5859 20.1915 71.2067 20.7516 71.4481 21.3073C71.5793 21.6094 71.6003 21.9082 71.5496 22.1839C71.4999 22.4529 71.382 22.6988 71.2309 22.9027H71.2331Z" fill="black"/>
<path fill-rule="evenodd" clip-rule="evenodd" d="M70.1912 23.2248C70.9101 23.2678 72.6334 21.1939 69.2331 20.0682C66.813 19.2677 64.3322 20.1233 63.3917 21.2832C62.6519 22.1961 62.6376 23.3659 62.9198 24.4608C63.5262 26.8081 68.4271 26.2756 68.4271 27.7751C68.4271 30.1456 63.33 28.4113 62.9375 27.6913C62.0973 31.0332 65.1338 31.182 67.0522 31.182C68.3102 31.182 69.5749 30.7443 70.3643 30.0827C72.2794 28.4752 72.0126 26.3936 70.3246 25.0032C68.6366 23.614 65.0632 24.0043 66.0323 22.5059C66.6564 21.5412 69.3742 22.1531 70.1901 23.2248H70.1912Z" fill="#FEFEFE"/>
<path fill-rule="evenodd" clip-rule="evenodd" d="M39.7903 23.2248C40.5091 23.2678 42.2324 21.1939 38.8321 20.0682C36.412 19.2677 33.9324 20.1233 32.9908 21.2832C32.251 22.1961 32.2366 23.3659 32.5189 24.4608C33.1253 26.8081 38.0262 26.2756 38.0262 27.7751C38.0262 30.1456 32.9301 28.4113 32.5365 27.6913C31.1363 30.9549 34.7328 31.182 36.6513 31.182C37.9104 31.182 39.1739 30.7443 39.9634 30.0827C41.8785 28.4752 41.6117 26.3936 39.9237 25.0032C38.2357 23.614 34.6623 24.0043 35.6314 22.5059C36.2555 21.5412 38.9733 22.1531 39.7892 23.2248H39.7903Z" fill="#FEFEFE"/>
<path d="M73.7371 19.3154C74.1439 19.3154 74.5122 19.4808 74.779 19.7465C75.0458 20.0133 75.2101 20.3816 75.2101 20.7884C75.2101 21.1953 75.0447 21.5636 74.779 21.8304C74.5122 22.0972 74.1439 22.2615 73.7371 22.2615C73.3302 22.2615 72.962 22.0961 72.6951 21.8304C72.4283 21.5636 72.264 21.1953 72.264 20.7884C72.264 20.3816 72.4294 20.0133 72.6951 19.7465C72.962 19.4797 73.3302 19.3154 73.7371 19.3154ZM73.1913 21.4125V20.0409H73.7746C73.9212 20.0409 74.0281 20.053 74.0943 20.0784C74.1616 20.1027 74.2145 20.1468 74.2542 20.2096C74.2939 20.2725 74.3137 20.3452 74.3137 20.4257C74.3137 20.5293 74.2839 20.6142 74.2233 20.6804C74.1627 20.7477 74.0733 20.7896 73.9532 20.8072C74.0127 20.8425 74.0623 20.88 74.1009 20.9219C74.1395 20.9638 74.1924 21.0376 74.2586 21.1446L74.4262 21.4125H74.0954L73.8969 21.1126C73.8253 21.0068 73.7768 20.9395 73.7503 20.9119C73.7238 20.8844 73.6963 20.8656 73.6665 20.8546C73.6367 20.8447 73.5904 20.8392 73.5265 20.8392H73.4702V21.4114H73.1924L73.1913 21.4125ZM73.4691 20.6209H73.6742C73.8065 20.6209 73.8903 20.6153 73.9234 20.6043C73.9565 20.5933 73.9829 20.5735 74.0006 20.5459C74.0193 20.5183 74.0292 20.4841 74.0292 20.4433C74.0292 20.397 74.0171 20.3596 73.9918 20.3309C73.9675 20.3022 73.9322 20.2846 73.8881 20.2769C73.865 20.2736 73.7977 20.2725 73.6863 20.2725H73.4702V20.6209H73.4691ZM74.6048 19.9218C74.3832 19.7002 74.0767 19.5624 73.7382 19.5624C73.3997 19.5624 73.0932 19.7002 72.8704 19.9218C72.6488 20.1435 72.511 20.45 72.511 20.7896C72.511 21.128 72.6477 21.4346 72.8704 21.6562C73.0921 21.8778 73.3986 22.0156 73.7382 22.0156C74.0767 22.0156 74.3832 21.8778 74.6048 21.6562C74.8264 21.4346 74.9642 21.128 74.9642 20.7896C74.9642 20.4511 74.8264 20.1446 74.6048 19.9218Z" fill="black"/>
</g>
<defs>
<clipPath id="clip0_1233_3672">
<rect width="74.6103" height="44.9936" fill="white" transform="translate(0.599792 0.425781)"/>
</clipPath>
</defs>
</svg>
