<svg width="159" height="43" viewBox="0 0 159 43" fill="none" xmlns="http://www.w3.org/2000/svg">
<path fill-rule="evenodd" clip-rule="evenodd" d="M0 5.50216H15.4285C18.7386 5.43845 22.0095 6.22141 24.9261 7.77563C27.6411 9.26267 29.86 11.5031 31.3108 14.2224C32.0867 15.6575 32.6637 17.19 33.0261 18.7784V13.8533H48.3367L54.3855 31.3478L60.7657 13.8533H75.3275V19.2556C75.525 18.8236 75.7572 18.4081 76.0218 18.013C77.0738 16.5126 78.5343 15.34 80.2328 14.6321C82.3301 13.7549 84.5918 13.3313 86.8671 13.3896C88.701 13.3901 90.5285 13.6032 92.3125 14.0243C93.7973 14.3474 95.2235 14.894 96.5417 15.645V13.8668H105.386V22.7941C105.654 22.0171 105.988 21.264 106.384 20.5431C107.545 18.3533 109.303 16.5313 111.457 15.2849C113.705 14.0532 116.232 13.4072 118.8 13.4072C121.368 13.4072 123.894 14.0532 126.142 15.2849C128.297 16.5177 130.056 18.3316 131.215 20.5161C131.573 21.1903 131.877 21.8919 132.123 22.614V13.8533H140.549V16.9686C141.514 15.8283 142.723 14.9162 144.089 14.2989C145.492 13.6745 147.016 13.3596 148.554 13.3761C151.688 13.3761 154.21 14.4265 156.118 16.5274C158.027 18.6283 158.988 21.8262 159 26.1211V42.5081H150.156V27.7508C150.156 23.8491 148.775 21.8982 146.013 21.8982C145.316 21.8796 144.625 22.023 143.995 22.3169C143.365 22.6109 142.812 23.0472 142.383 23.591C141.475 24.7164 141.021 26.4077 141.021 28.6646V42.5126H132.141V33.6798C131.894 34.4046 131.591 35.1091 131.233 35.7867C130.075 37.9884 128.313 39.8206 126.151 41.072C123.912 42.319 121.388 42.9739 118.82 42.9739C116.252 42.9739 113.728 42.319 111.489 41.072C109.328 39.8151 107.563 37.9847 106.393 35.7867C105.994 35.0577 105.66 34.2955 105.395 33.5087V42.5126H96.5417V37.9702C96.457 38.1172 96.3662 38.2673 96.2694 38.4204C95.2084 39.927 93.7276 41.094 92.0084 41.7788C89.8596 42.6403 87.555 43.0541 85.238 42.9943C83.131 42.9939 81.0332 42.7184 78.9986 42.175C77.7281 41.8512 76.4971 41.3908 75.3275 40.8019V42.5171H66.4833V21.286L58.7691 42.4991H49.6481L41.8794 21.0609V42.4991H33.0261V29.2184C32.664 30.8068 32.0871 32.3394 31.3108 33.7744C29.849 36.4994 27.6154 38.7404 24.8853 40.2211C21.9687 41.7754 18.6978 42.5583 15.3877 42.4946H0V5.50216ZM118.804 34.9944C119.538 35.0109 120.267 34.8566 120.93 34.5439C121.593 34.2312 122.174 33.7688 122.625 33.1936C123.614 31.9781 124.11 30.2959 124.113 28.1469C124.116 25.998 123.62 24.3473 122.625 23.1948C122.162 22.6335 121.58 22.1812 120.919 21.8706C120.259 21.56 119.537 21.3988 118.806 21.3988C118.076 21.3988 117.354 21.56 116.693 21.8706C116.033 22.1812 115.45 22.6335 114.988 23.1948C113.996 24.3953 113.499 26.046 113.499 28.1469C113.499 30.2478 113.996 31.9301 114.988 33.1936C115.438 33.7687 116.018 34.2312 116.68 34.5439C117.343 34.8566 118.07 35.0109 118.804 34.9944ZM96.5689 16.5364L94.2002 22.623C92.0384 21.2335 89.5156 20.4983 86.9397 20.5071C85.5421 20.5071 84.5211 20.6917 83.8676 21.0609C83.5837 21.1877 83.3415 21.3915 83.1689 21.6487C82.9964 21.9059 82.9004 22.2061 82.892 22.515C82.885 22.834 82.987 23.146 83.1815 23.4002C83.3759 23.6544 83.6513 23.8359 83.9629 23.9151C85.1157 24.2871 86.2983 24.5612 87.4979 24.7345C89.2488 25.0117 90.9764 25.418 92.6664 25.95C94.0694 26.4362 95.3046 27.3073 96.2286 28.4621C96.3466 28.6106 96.4646 28.7637 96.5689 28.9123V16.5409V16.5364ZM75.3275 26.8234V36.7276L76.7206 33.1261C77.9677 33.9847 79.347 34.637 80.8046 35.0574C82.328 35.5219 83.912 35.7616 85.5058 35.7687C86.9367 35.7687 87.9532 35.6006 88.5552 35.2645C88.8311 35.1353 89.0636 34.9297 89.2246 34.6726C89.3856 34.4154 89.4683 34.1176 89.4627 33.8149C89.4627 33.1801 89.0997 32.7299 88.3691 32.4643C87.238 32.1099 86.0781 31.8539 84.9023 31.699C83.162 31.4872 81.4434 31.1272 79.7655 30.623C78.3341 30.1436 77.0732 29.2633 76.1352 28.0884C75.8225 27.7066 75.5588 27.2877 75.3502 26.8414L75.3275 26.8234ZM70.9077 10.6794C71.6329 10.7083 72.356 10.5845 73.0295 10.316C73.7029 10.0475 74.3114 9.64045 74.8147 9.12171C75.8177 8.05639 76.3531 6.63943 76.3031 5.18251C76.3275 4.49361 76.2079 3.80716 75.9517 3.16639C75.6956 2.52562 75.3084 1.94443 74.8147 1.45941C74.2958 0.968432 73.6822 0.586536 73.0108 0.336657C72.3394 0.0867776 71.6241 -0.0259368 70.9077 0.00527588C70.1841 -0.0246512 69.4622 0.0960833 68.7885 0.35971C68.1148 0.623338 67.5042 1.02402 66.9961 1.53595C66.0388 2.57616 65.5081 3.93381 65.5081 5.34233C65.5081 6.75086 66.0388 8.10851 66.9961 9.14872C67.5042 9.66064 68.1148 10.0613 68.7885 10.3249C69.4622 10.5886 70.1841 10.7093 70.9077 10.6794ZM37.4459 10.6794C38.1719 10.709 38.8959 10.5854 39.5702 10.3169C40.2444 10.0484 40.8536 9.64103 41.3575 9.12171C42.3605 8.05639 42.8959 6.63943 42.8459 5.18251C42.8703 4.49361 42.7507 3.80716 42.4945 3.16639C42.2384 2.52562 41.8512 1.94443 41.3575 1.45941C40.838 0.967873 40.2237 0.585659 39.5515 0.335764C38.8793 0.085868 38.1631 -0.0265509 37.4459 0.00527588C36.7231 -0.0242956 36.002 0.0966215 35.3291 0.360246C34.6562 0.623871 34.0463 1.02437 33.5389 1.53595C32.5787 2.57473 32.0461 3.93292 32.0461 5.34233C32.0461 6.75175 32.5787 8.10994 33.5389 9.14872C34.0463 9.6603 34.6562 10.0608 35.3291 10.3244C36.002 10.588 36.7231 10.709 37.4459 10.6794ZM15.0156 34.148C17.8109 34.148 20.0541 33.2476 21.7451 31.4468C23.4362 29.6461 24.2818 27.1625 24.2818 23.9961C24.2818 20.8238 23.4362 18.3387 21.7451 16.5409C20.0541 14.7431 17.8109 13.8428 15.0156 13.8398H9.19812V34.1345L15.0156 34.148Z" fill="white"/>
</svg>
