<svg width="10" height="7" viewBox="0 0 10 7" fill="none" xmlns="http://www.w3.org/2000/svg">
<path d="M6.62891 3.55227L10.0001 5.72225V1.29065L6.62891 3.55227Z" fill="white"/>
<path d="M0 1.29065V5.72225L3.37123 3.55227L0 1.29065Z" fill="white"/>
<path d="M9.37501 0H0.625046C0.313173 0 0.0656736 0.236725 0.0187988 0.541541L5.00003 3.88306L9.98125 0.541541C9.93438 0.236725 9.68688 0 9.37501 0Z" fill="white"/>
<path d="M6.05624 3.93655L5.17187 4.52964C5.11937 4.56464 5.06 4.58182 5 4.58182C4.94 4.58182 4.88062 4.56464 4.82812 4.52964L3.94375 3.93591L0.0200195 6.46289C0.0681443 6.76516 0.314393 6.99998 0.625017 6.99998H9.37498C9.6856 6.99998 9.93185 6.76516 9.97998 6.46289L6.05624 3.93655Z" fill="white"/>
</svg>
