<svg width="6" height="10" viewBox="0 0 6 10" fill="none" xmlns="http://www.w3.org/2000/svg">
<path d="M5.73443 0.279959V0.278926C5.56542 0.100491 5.3357 0.000103306 5.09607 0H0.902951C0.404926 0.00170455 0.00162295 0.425284 0 0.948347V9.05062C9.83607e-05 9.3023 0.0956804 9.54357 0.265574 9.72107C0.434336 9.89925 0.663664 9.99961 0.902951 10H5.09705C5.33634 9.99961 5.56566 9.89925 5.73443 9.72107C5.90407 9.54383 5.99963 9.30297 6 9.05165V0.94938C5.99963 0.698063 5.90407 0.457206 5.73443 0.279959ZM3 9.3564C2.86527 9.3564 2.75607 9.24171 2.75607 9.10021C2.75607 8.9587 2.86527 8.84401 3 8.84401C3.13473 8.84401 3.24393 8.9587 3.24393 9.10021C3.24393 9.24171 3.13473 9.3564 3 9.3564ZM5.28295 7.74793C5.28295 8.09026 5.01873 8.36777 4.69279 8.36777H1.30623C0.980287 8.36777 0.716066 8.09026 0.716066 7.74793V1.70971C0.716066 1.36738 0.980287 1.08988 1.30623 1.08988H4.69377C5.01971 1.08988 5.28393 1.36738 5.28393 1.70971L5.28295 7.74793Z" fill="white"/>
</svg>
