<svg width="32" height="32" viewBox="0 0 32 32" fill="none" xmlns="http://www.w3.org/2000/svg">
<g clip-path="url(#clip0_1330_5773)">
<path d="M19.1177 12.7064L18.735 11.0868L16.1946 0.380859L17.4616 13.8337L19.1177 12.7064Z" fill="#FFE2C9"/>
<path d="M12.3357 17.3022L3.62744 27.7635L14.7122 19.4298L12.3357 17.3022Z" fill="#FFE2C9"/>
<path d="M13.4998 12.3317L0.91333 9.88208L13.6767 13.5023L13.4998 12.3317Z" fill="#FFE2C9"/>
<path d="M9.6408 16.7788L3.5791 20.8977L10.8371 17.6274L9.6408 16.7788Z" fill="#FFE2C9"/>
<path d="M13.7506 13.6416L13.7088 13.6478L10.1296 14.2176L16.6062 13.9172L13.7506 13.6416Z" fill="#E4A33D"/>
<path d="M32 23.1553L20.8735 18.3799L21.3044 21.2569L32 23.1553Z" fill="#FFE2C9"/>
<path d="M11.5542 5.67651L13.8953 10.2351L14.1461 8.94681L11.5542 5.67651Z" fill="#DFC293"/>
<path d="M18.1755 17.5005L22.4268 29.5783L20.7481 18.3305L18.1755 17.5005Z" fill="#DFC293"/>
<path d="M17.365 13.998L9.40601 14.3697L15.7346 16.5406L18.0049 17.321L17.365 13.998Z" fill="#DFC293"/>
<path d="M12.1941 17.175L11.9111 16.921L0.752441 10.3247L11.1329 17.6953L12.1941 17.175Z" fill="#DFC293"/>
<path d="M3.97778 27.6457L15.3712 21.2909L14.7731 19.5288L3.97778 27.6457Z" fill="#DFC293"/>
<path d="M27.6877 6.3208L19.375 12.6632L23.414 12.3938L27.6877 6.3208Z" fill="#DFC293"/>
<path d="M18.1273 17.3268L29.9388 12.1147L17.4841 13.9853L18.1273 17.3268Z" fill="#E4A33D"/>
<path d="M11.0429 17.7732L10.9464 17.7051L3.31543 21.1457L8.78865 20.74L11.0429 17.7732Z" fill="#E4A33D"/>
<path d="M21.1918 28.3676L14.9854 19.7861L15.4967 21.2912L21.1918 28.3676Z" fill="#E4A33D"/>
<path d="M13.5062 12.2142L13.8567 10.4212L11.3098 5.45996L11.8179 11.886L13.5062 12.2142Z" fill="#E4A33D"/>
<path d="M17.3458 13.874L16.037 0L13.8181 13.5333L17.3458 13.874Z" fill="#E6C054"/>
<path d="M20.7898 18.2221L22.9218 16.8192L29.7457 12.3257L18.2429 17.4015L20.7898 18.2221Z" fill="#E6C054"/>
<path d="M16.0918 32L18.0084 24.5985L15.5129 21.4985L16.0918 32Z" fill="#E6C054"/>
<path d="M27.3017 6.46948L18.8604 11.1055L19.2237 12.6292L27.3017 6.46948Z" fill="#E6C054"/>
<path d="M14.8087 19.3616L17.9472 17.423L9.35474 14.4717L14.8087 19.3616Z" fill="#E6C054"/>
<path d="M9.05878 14.3663V14.3137H9.08773L13.4772 13.6138L0 9.74268L11.4706 16.5248L9.05878 14.3663Z" fill="#BF924B"/>
<path d="M14.8889 19.4486L22.3881 29.8231L18.05 17.4976L14.8889 19.4486Z" fill="#BF924B"/>
<path d="M28.9804 12.1431L19.2078 12.7903L17.6545 13.8433L28.9804 12.1431Z" fill="#BF924B"/>
<path d="M13.9275 22.2295L15.947 31.5821L15.3907 21.415L13.9275 22.2295Z" fill="#BF924B"/>
<path d="M20.9216 18.2749L31.942 23.0038L22.954 16.937L20.9216 18.2749Z" fill="#BF924B"/>
<path d="M11.1651 17.807L11.0204 17.999L4.90723 26.0385L12.1748 17.3115L11.1651 17.807Z" fill="#BF924B"/>
<path d="M13.7506 13.1989L15.3745 3.31055L13.6123 12.2822L13.7506 13.1989Z" fill="#BF924B"/>
</g>
<defs>
<clipPath id="clip0_1330_5773">
<rect width="32" height="32" fill="white"/>
</clipPath>
</defs>
</svg>
