<svg width="825" height="206" viewBox="0 0 825 206" fill="none" xmlns="http://www.w3.org/2000/svg">
<path d="M110.4 147H73.76L41.76 97.56V147H10.88V35H41.76V82.2L71.36 35H107.04L71.2 89.24L110.4 147ZM199.494 103C199.494 105.453 199.28 108.067 198.854 110.84H134.694C135.654 115.747 137.627 119.48 140.614 122.04C143.707 124.6 147.6 125.88 152.294 125.88C154.64 125.88 156.827 125.56 158.854 124.92C160.88 124.28 162.64 123.373 164.134 122.2C165.734 120.92 167.014 119.427 167.974 117.72H197.574C194.587 127.64 188.987 135.48 180.774 141.24C172.667 147 163.174 149.88 152.294 149.88C138.854 149.88 127.654 145.507 118.694 136.76C109.84 127.907 105.414 116.92 105.414 103.8C105.414 95.0533 107.44 87.16 111.494 80.12C115.547 73.08 121.147 67.5867 128.294 63.64C135.44 59.6933 143.44 57.72 152.294 57.72C161.467 57.72 169.627 59.7467 176.774 63.8C184.027 67.7467 189.627 73.1867 193.574 80.12C197.52 86.9467 199.494 94.5733 199.494 103ZM152.294 81.08C148.027 81.08 144.4 82.2533 141.414 84.6C138.534 86.84 136.454 90.0933 135.174 94.36H170.214C167.547 85.5067 161.574 81.08 152.294 81.08ZM277.994 29.4V48.6H232.074V29.4H277.994ZM276.714 60.6H293.834V147H265.194V108.28L230.474 147H213.034V60.6H241.674V99L276.714 60.6ZM355.441 149.88C346.268 149.88 338.055 147.907 330.801 143.96C323.548 140.013 317.841 134.52 313.681 127.48C309.628 120.44 307.601 112.547 307.601 103.8C307.601 94.9467 309.628 87.0533 313.681 80.12C317.841 73.08 323.548 67.64 330.801 63.8C338.055 59.8533 346.268 57.88 355.441 57.88C363.441 57.88 370.695 59.48 377.201 62.68C383.815 65.88 389.201 70.36 393.361 76.12C397.521 81.88 400.135 88.5467 401.201 96.12H372.241C370.961 92.6 368.775 89.8267 365.681 87.8C362.695 85.6667 359.281 84.6 355.441 84.6C350.215 84.6 345.895 86.4133 342.481 90.04C339.175 93.56 337.521 98.1467 337.521 103.8C337.521 109.453 339.175 114.093 342.481 117.72C345.895 121.347 350.215 123.16 355.441 123.16C359.388 123.16 362.855 122.04 365.841 119.8C368.935 117.453 371.068 114.36 372.241 110.52H401.521C399.815 122.253 394.748 131.747 386.321 139C377.895 146.253 367.601 149.88 355.441 149.88ZM455.4 82.68C465.853 82.68 474.173 85.6667 480.36 91.64C486.653 97.5067 489.8 105.24 489.8 114.84C489.8 124.44 486.653 132.227 480.36 138.2C474.173 144.067 465.853 147 455.4 147H414.44V60.6H441.96V82.68H455.4ZM501.48 60.6H531.08V147H501.48V60.6ZM452.04 124.44C455.133 124.44 457.587 123.587 459.4 121.88C461.213 120.173 462.12 117.827 462.12 114.84C462.12 111.853 461.213 109.56 459.4 107.96C457.587 106.253 455.133 105.4 452.04 105.4H441.96V124.44H452.04Z" fill="black"/>
</svg>
