<svg width="12" height="21" viewBox="0 0 12 21" fill="none" xmlns="http://www.w3.org/2000/svg">
<g clip-path="url(#clip0_1321_3025)">
<path d="M7.23994 1.35484L7.36696 1.37601H9.12402V3.40827H7.36696C7.26817 3.40827 7.17291 3.41532 7.08117 3.42944C6.98944 3.44355 6.91535 3.46825 6.8589 3.50353C6.80244 3.53881 6.74952 3.57762 6.70013 3.61996C6.65073 3.6623 6.60839 3.70464 6.57311 3.74698C6.53783 3.78931 6.5096 3.83518 6.48843 3.88458C6.46726 3.93397 6.45315 3.97631 6.44609 4.01159L6.42492 4.11744L6.41434 4.19153V7.45161H9.84378L9.35688 9.48387H6.41434V19.6452H4.38208V9.48387H1.6724V7.45161H4.38208V4.29738C4.38208 3.85988 4.43853 3.46825 4.55144 3.12248C4.66434 2.77671 4.81605 2.50504 5.00658 2.30746C5.1971 2.10988 5.39115 1.94052 5.58874 1.7994C5.78632 1.65827 6.00507 1.55948 6.24499 1.50302C6.4849 1.44657 6.67543 1.40776 6.81656 1.38659C6.95769 1.36542 7.09882 1.35484 7.23994 1.35484ZM7.23994 0C6.36494 0 5.58168 0.211694 4.89015 0.635081C3.64821 1.38306 3.02724 2.60383 3.02724 4.29738V6.09677H1.6724C1.30547 6.09677 0.987929 6.23085 0.719784 6.49899C0.451638 6.76714 0.317566 7.08468 0.317566 7.45161V9.48387C0.317566 9.85081 0.451638 10.1683 0.719784 10.4365C0.987929 10.7046 1.30547 10.8387 1.6724 10.8387H3.02724V19.624C3.02724 20.005 3.15779 20.3261 3.41888 20.5872C3.67997 20.8483 4.00103 20.9788 4.38208 20.9788H6.41434C6.78128 20.9788 7.09882 20.8483 7.36696 20.5872C7.63511 20.3261 7.76918 20.005 7.76918 19.624V10.8387H9.35688C9.66736 10.8387 9.94257 10.747 10.1825 10.5635C10.4224 10.38 10.5847 10.1472 10.6694 9.86492L11.1351 7.83266C11.2621 7.39516 11.1916 6.99647 10.9234 6.63659C10.6553 6.27671 10.2954 6.09677 9.84378 6.09677H7.76918V4.7631H9.12402C9.49095 4.7631 9.80849 4.62903 10.0766 4.36089C10.3448 4.09274 10.4789 3.7752 10.4789 3.40827V1.37601C10.4789 0.99496 10.3483 0.673891 10.0872 0.412802C9.82613 0.151714 9.51212 0.0211694 9.14519 0.0211694H7.4093C7.35285 0.00705645 7.2964 0 7.23994 0Z" fill="white"/>
</g>
<defs>
<clipPath id="clip0_1321_3025">
<rect width="11.1774" height="21" fill="white"/>
</clipPath>
</defs>
</svg>
