<svg width="14" height="22" viewBox="0 0 14 22" fill="none" xmlns="http://www.w3.org/2000/svg">
<path d="M13.3601 0.615909V0.613636C12.967 0.22108 12.4327 0.000227273 11.8753 0H2.12262C0.964272 0.00375 0.0262357 0.935625 0.0224609 2.08636V19.9114C0.0226897 20.4651 0.245002 20.9959 0.640155 21.3864C1.03268 21.7784 1.56607 21.9991 2.12262 22H11.8776C12.4342 21.9991 12.9675 21.7784 13.3601 21.3864C13.7546 20.9964 13.9769 20.4665 13.9778 19.9136V2.08864C13.9769 1.53574 13.7546 1.00585 13.3601 0.615909ZM7.00011 20.5841C6.68674 20.5841 6.43275 20.3318 6.43275 20.0205C6.43275 19.7091 6.68674 19.4568 7.00011 19.4568C7.31347 19.4568 7.56747 19.7091 7.56747 20.0205C7.56747 20.3318 7.31347 20.5841 7.00011 20.5841ZM12.31 17.0455C12.31 17.7986 11.6954 18.4091 10.9373 18.4091H3.0606C2.30249 18.4091 1.68795 17.7986 1.68795 17.0455V3.76136C1.68795 3.00824 2.30249 2.39773 3.0606 2.39773H10.9396C11.6977 2.39773 12.3123 3.00824 12.3123 3.76136L12.31 17.0455Z" fill="white"/>
</svg>
