<svg width="19" height="14" viewBox="0 0 19 14" fill="none" xmlns="http://www.w3.org/2000/svg">
<g clip-path="url(#clip0_1402_38)">
<path d="M12.5947 7.10023L19.0001 11.2775V2.74658L12.5947 7.10023Z" fill="white"/>
<path d="M0 2.74658V11.2775L6.40538 7.10023L0 2.74658Z" fill="white"/>
<path d="M17.8125 0.262695H1.18752C0.594957 0.262695 0.124707 0.718395 0.0356445 1.30517L9.50002 7.73765L18.9644 1.30517C18.8753 0.718395 18.4051 0.262695 17.8125 0.262695Z" fill="white"/>
<path d="M11.507 7.84009L9.82665 8.98179C9.7269 9.04917 9.61409 9.08224 9.50009 9.08224C9.38609 9.08224 9.27327 9.04917 9.17352 8.98179L7.49321 7.83887L0.0380859 12.7033C0.129523 13.2852 0.597398 13.7372 1.18759 13.7372H17.8126C18.4028 13.7372 18.8707 13.2852 18.9621 12.7033L11.507 7.84009Z" fill="white"/>
</g>
<defs>
<clipPath id="clip0_1402_38">
<rect width="19" height="14" fill="white"/>
</clipPath>
</defs>
</svg>
