<svg width="22" height="22" viewBox="0 0 22 22" fill="none" xmlns="http://www.w3.org/2000/svg">
<path d="M10.9693 5.70276C9.56409 5.70276 8.21644 6.26097 7.22281 7.2546C6.22918 8.24823 5.67096 9.59589 5.67096 11.0011C5.67096 12.4063 6.22918 13.7539 7.22281 14.7476C8.21644 15.7412 9.56409 16.2994 10.9693 16.2994C12.3745 16.2994 13.7221 15.7412 14.7158 14.7476C15.7094 13.7539 16.2676 12.4063 16.2676 11.0011C16.2676 9.59589 15.7094 8.24823 14.7158 7.2546C13.7221 6.26097 12.3745 5.70276 10.9693 5.70276ZM10.9693 14.442C10.0564 14.442 9.18089 14.0794 8.53537 13.4339C7.88986 12.7883 7.52721 11.9128 7.52721 10.9999C7.52721 10.087 7.88986 9.21154 8.53537 8.56603C9.18089 7.92051 10.0564 7.55786 10.9693 7.55786C11.8822 7.55786 12.7577 7.92051 13.4032 8.56603C14.0487 9.21154 14.4114 10.087 14.4114 10.9999C14.4114 11.9128 14.0487 12.7883 13.4032 13.4339C12.7577 14.0794 11.8822 14.442 10.9693 14.442Z" fill="white"/>
<path d="M16.4773 6.74312C17.1595 6.74312 17.7125 6.1901 17.7125 5.50791C17.7125 4.82573 17.1595 4.27271 16.4773 4.27271C15.7951 4.27271 15.2421 4.82573 15.2421 5.50791C15.2421 6.1901 15.7951 6.74312 16.4773 6.74312Z" fill="white"/>
<path d="M20.7478 4.25229C20.4826 3.56729 20.0772 2.94522 19.5577 2.4259C19.0382 1.90658 18.4159 1.50145 17.7308 1.23645C16.9291 0.935509 16.0822 0.772782 15.226 0.755204C14.1226 0.707079 13.7731 0.693329 10.975 0.693329C8.17688 0.693329 7.81824 0.693329 6.72397 0.755204C5.86847 0.771883 5.02213 0.934643 4.22147 1.23645C3.53619 1.50114 2.9138 1.90616 2.39425 2.42552C1.87469 2.94488 1.46944 3.56711 1.20449 4.25229C0.903483 5.05393 0.74113 5.90095 0.724384 6.75708C0.675113 7.85937 0.660217 8.20885 0.660217 11.0081C0.660217 13.8062 0.660217 14.1626 0.724384 15.2592C0.741571 16.1162 0.903134 16.9619 1.20449 17.7651C1.47018 18.45 1.87583 19.072 2.39551 19.5913C2.91519 20.1106 3.53748 20.5158 4.22261 20.7809C5.02176 21.094 5.86845 21.2683 6.72626 21.2966C7.8297 21.3447 8.17917 21.3596 10.9773 21.3596C13.7754 21.3596 14.1341 21.3596 15.2283 21.2966C16.0844 21.2791 16.9313 21.1168 17.7331 20.8165C18.4181 20.5508 19.0401 20.1454 19.5596 19.6259C20.079 19.1064 20.4845 18.4844 20.7501 17.7995C21.0515 16.9974 21.213 16.1518 21.2302 15.2947C21.2795 14.1924 21.2944 13.8429 21.2944 11.0436C21.2944 8.24437 21.2944 7.88916 21.2302 6.7926C21.2169 5.92437 21.0537 5.06497 20.7478 4.25229ZM19.3522 15.1744C19.3448 15.8347 19.2243 16.4889 18.9958 17.1085C18.8238 17.5541 18.5603 17.9587 18.2225 18.2964C17.8846 18.634 17.4799 18.8972 17.0342 19.0691C16.4214 19.2964 15.7742 19.417 15.1206 19.4254C14.0321 19.4758 13.725 19.4884 10.9338 19.4884C8.14022 19.4884 7.8549 19.4884 6.74574 19.4254C6.09253 19.4174 5.44559 19.2969 4.83334 19.0691C4.38611 18.8983 3.9797 18.6356 3.6404 18.2979C3.30111 17.9601 3.03649 17.555 2.86365 17.1085C2.63844 16.4956 2.51797 15.8491 2.5073 15.1961C2.45803 14.1076 2.44657 13.8005 2.44657 11.0093C2.44657 8.21687 2.44657 7.93156 2.5073 6.82125C2.51471 6.16127 2.63524 5.50746 2.86365 4.88822C3.21313 3.98416 3.92928 3.2726 4.83334 2.92656C5.44589 2.69984 6.09264 2.57933 6.74574 2.5702C7.83542 2.52093 8.14136 2.50718 10.9338 2.50718C13.7262 2.50718 14.0126 2.50718 15.1206 2.5702C15.7742 2.57807 16.4216 2.69862 17.0342 2.92656C17.4798 3.09875 17.8845 3.36221 18.2224 3.70003C18.5602 4.03785 18.8237 4.44258 18.9958 4.88822C19.2211 5.50119 19.3415 6.14768 19.3522 6.80062C19.4015 7.89031 19.4141 8.19625 19.4141 10.9886C19.4141 13.7799 19.4141 14.0801 19.3648 15.1755H19.3522V15.1744Z" fill="white"/>
</svg>
