<svg width="1262" height="404" viewBox="0 0 1262 404" fill="none" xmlns="http://www.w3.org/2000/svg">
<rect width="1262" height="404" fill="white"/>
<path fill-rule="evenodd" clip-rule="evenodd" d="M193 92.5818H278.002C296.239 92.2277 314.26 96.5794 330.329 105.218C345.287 113.483 357.512 125.936 365.505 141.05C369.78 149.027 372.958 157.545 374.955 166.373V138.998H459.308L492.634 236.235L527.785 138.998H608.012V169.025C609.1 166.624 610.379 164.315 611.837 162.119C617.633 153.779 625.68 147.262 635.038 143.327C646.592 138.452 659.053 136.097 671.589 136.421C681.692 136.424 691.76 137.608 701.589 139.949C709.77 141.745 717.628 144.783 724.89 148.957V139.073H773.617V188.693C775.092 184.374 776.932 180.188 779.117 176.182C785.513 164.01 795.198 153.883 807.068 146.955C819.453 140.11 833.37 136.519 847.519 136.519C861.667 136.519 875.584 140.11 887.97 146.955C899.846 153.808 909.537 163.89 915.921 176.032C917.895 179.779 919.567 183.678 920.921 187.692V138.998H967.347V156.314C972.662 149.976 979.324 144.906 986.848 141.476C994.581 138.005 1002.97 136.255 1011.45 136.346C1028.72 136.346 1042.61 142.185 1053.12 153.862C1063.64 165.539 1068.93 183.313 1069 207.184V298.266H1020.27V216.243C1020.27 194.556 1012.67 183.713 997.448 183.713C993.612 183.61 989.805 184.407 986.331 186.041C982.858 187.674 979.816 190.1 977.447 193.122C972.447 199.377 969.947 208.778 969.947 221.322V298.291H921.021V249.197C919.663 253.226 917.991 257.141 916.021 260.908C909.639 273.145 899.933 283.328 888.02 290.284C875.685 297.215 861.777 300.855 847.631 300.855C833.485 300.855 819.577 297.215 807.242 290.284C795.335 283.298 785.611 273.124 779.167 260.908C776.968 256.856 775.128 252.619 773.667 248.246V298.291H724.89V273.044C724.423 273.861 723.923 274.695 723.39 275.546C717.544 283.92 709.386 290.406 699.914 294.212C688.075 299.001 675.378 301.301 662.613 300.969C651.005 300.966 639.447 299.435 628.237 296.414C621.238 294.615 614.456 292.056 608.012 288.783V298.316H559.285V180.31L516.784 298.216H466.533L423.732 179.059V298.216H374.955V224.4C372.96 233.229 369.782 241.747 365.505 249.723C357.451 264.868 345.145 277.324 330.104 285.555C314.035 294.193 296.014 298.545 277.777 298.191H193V92.5818ZM847.544 256.504C851.589 256.595 855.601 255.738 859.256 254C862.911 252.262 866.109 249.692 868.594 246.495C874.044 239.739 876.778 230.389 876.794 218.445C876.811 206.501 874.078 197.326 868.594 190.92C866.045 187.8 862.836 185.286 859.197 183.56C855.559 181.833 851.583 180.938 847.556 180.938C843.53 180.938 839.553 181.833 835.915 183.56C832.277 185.286 829.067 187.8 826.518 190.92C821.051 197.593 818.318 206.767 818.318 218.445C818.318 230.122 821.051 239.472 826.518 246.495C828.998 249.691 832.191 252.262 835.843 254C839.494 255.738 843.501 256.595 847.544 256.504ZM725.04 153.912L711.99 187.742C700.079 180.019 686.18 175.932 671.989 175.981C664.288 175.981 658.663 177.007 655.063 179.059C653.499 179.764 652.164 180.897 651.214 182.326C650.263 183.756 649.734 185.425 649.688 187.141C649.65 188.915 650.212 190.649 651.283 192.062C652.354 193.475 653.871 194.483 655.588 194.923C661.939 196.991 668.455 198.514 675.064 199.478C684.71 201.019 694.228 203.277 703.54 206.234C711.269 208.936 718.075 213.778 723.165 220.196C723.815 221.022 724.465 221.873 725.04 222.698V153.937V153.912ZM608.012 211.088V266.137L615.687 246.119C622.558 250.892 630.157 254.517 638.188 256.854C646.581 259.436 655.308 260.768 664.088 260.807C671.972 260.807 677.572 259.873 680.889 258.005C682.409 257.287 683.69 256.144 684.577 254.715C685.464 253.286 685.92 251.63 685.889 249.948C685.889 246.42 683.889 243.917 679.864 242.441C673.632 240.472 667.241 239.048 660.763 238.187C651.176 237.01 641.707 235.01 632.463 232.207C624.576 229.542 617.63 224.649 612.462 218.119C610.739 215.997 609.286 213.669 608.137 211.188L608.012 211.088ZM583.661 121.358C587.657 121.518 591.641 120.83 595.351 119.338C599.061 117.845 602.414 115.583 605.187 112.7C610.713 106.779 613.662 98.9029 613.387 90.8051C613.521 86.9761 612.862 83.1607 611.451 79.5992C610.04 76.0378 607.907 72.8074 605.187 70.1116C602.328 67.3827 598.947 65.26 595.248 63.8712C591.549 62.4823 587.608 61.8558 583.661 62.0293C579.675 61.863 575.697 62.534 571.986 63.9993C568.274 65.4646 564.91 67.6917 562.111 70.537C556.837 76.3187 553.913 83.8646 553.913 91.6934C553.913 99.5222 556.837 107.068 562.111 112.85C564.91 115.695 568.274 117.922 571.986 119.387C575.697 120.853 579.675 121.524 583.661 121.358ZM399.306 121.358C403.305 121.522 407.294 120.835 411.009 119.343C414.724 117.85 418.08 115.586 420.856 112.7C426.382 106.779 429.332 98.9029 429.057 90.8051C429.191 86.9761 428.532 83.1607 427.121 79.5992C425.709 76.0378 423.577 72.8074 420.856 70.1116C417.995 67.3796 414.61 65.2552 410.906 63.8662C407.203 62.4773 403.257 61.8524 399.306 62.0293C395.323 61.865 391.351 62.537 387.643 64.0023C383.936 65.4676 380.576 67.6936 377.78 70.537C372.49 76.3107 369.556 83.8597 369.556 91.6934C369.556 99.5272 372.49 107.076 377.78 112.85C380.576 115.693 383.936 117.919 387.643 119.385C391.351 120.85 395.323 121.522 399.306 121.358ZM275.727 251.799C291.128 251.799 303.486 246.795 312.803 236.786C322.12 226.777 326.779 212.973 326.779 195.374C326.779 177.741 322.12 163.929 312.803 153.937C303.486 143.944 291.128 138.94 275.727 138.923H243.676V251.724L275.727 251.799Z" fill="black"/>
</svg>
