<svg width="146" height="40" viewBox="0 0 146 40" fill="none" xmlns="http://www.w3.org/2000/svg">
<path fill-rule="evenodd" clip-rule="evenodd" d="M0 5.11829H14.1671C17.2065 5.05902 20.21 5.78736 22.8881 7.23315C25.3812 8.61644 27.4186 10.7006 28.7508 13.2302C29.4633 14.5652 29.9931 15.9907 30.3259 17.4683V12.8868H44.3846L49.9389 29.1607L55.7974 12.8868H69.1686V17.9122C69.35 17.5104 69.5632 17.1238 69.8062 16.7563C70.7721 15.3605 72.1133 14.2697 73.6729 13.6113C75.5987 12.7952 77.6755 12.4012 79.7648 12.4554C81.4487 12.4559 83.1268 12.6541 84.7649 13.0459C86.1283 13.3464 87.438 13.8549 88.6484 14.5535V12.8993H96.7694V21.2038C97.0154 20.481 97.3221 19.7805 97.6861 19.1099C98.7521 17.0728 100.366 15.3779 102.345 14.2185C104.409 13.0728 106.728 12.4719 109.086 12.4719C111.445 12.4719 113.764 13.0728 115.828 14.2185C117.808 15.3653 119.423 17.0527 120.487 19.0848C120.816 19.7119 121.095 20.3645 121.32 21.0363V12.8868H129.058V15.7848C129.944 14.724 131.054 13.8755 132.308 13.3013C133.597 12.7204 134.996 12.4275 136.408 12.4428C139.286 12.4428 141.601 13.42 143.354 15.3743C145.107 17.3287 145.989 20.3034 146 24.2987V39.5424H137.879V25.8147C137.879 22.1852 136.611 20.3704 134.075 20.3704C133.435 20.3531 132.801 20.4865 132.222 20.7599C131.643 21.0334 131.136 21.4393 130.741 21.9451C129.908 22.992 129.491 24.5653 129.491 26.6648V39.5466H121.337V31.3301C121.11 32.0043 120.832 32.6596 120.503 33.29C119.44 35.3381 117.822 37.0424 115.837 38.2065C113.781 39.3665 111.463 39.9758 109.105 39.9758C106.748 39.9758 104.43 39.3665 102.374 38.2065C100.389 37.0373 98.7685 35.3346 97.6945 33.29C97.328 32.6118 97.0213 31.9028 96.7778 31.1709V39.5466H88.6484V35.3211C88.5706 35.4579 88.4872 35.5975 88.3984 35.7399C87.424 37.1414 86.0644 38.227 84.4857 38.864C82.5125 39.6654 80.3964 40.0503 78.2689 39.9947C76.3341 39.9943 74.4078 39.738 72.5396 39.2325C71.373 38.9314 70.2427 38.5031 69.1686 37.9552V39.5508H61.0476V19.8009L53.964 39.5341H45.5888L38.4553 19.5915V39.5341H30.3259V27.1799C29.9934 28.6575 29.4636 30.0831 28.7508 31.418C27.4086 33.9529 25.3575 36.0376 22.8507 37.415C20.1725 38.8608 17.169 39.5891 14.1296 39.5299H0V5.11829ZM109.091 32.5529C109.765 32.5683 110.433 32.4248 111.043 32.1339C111.652 31.843 112.185 31.4128 112.599 30.8778C113.507 29.747 113.963 28.1822 113.966 26.1832C113.969 24.1842 113.513 22.6486 112.599 21.5765C112.174 21.0544 111.639 20.6336 111.033 20.3447C110.426 20.0558 109.764 19.9059 109.093 19.9059C108.422 19.9059 107.759 20.0558 107.152 20.3447C106.546 20.6336 106.011 21.0544 105.586 21.5765C104.675 22.6933 104.22 24.2289 104.22 26.1832C104.22 28.1375 104.675 29.7024 105.586 30.8778C106 31.4127 106.532 31.8429 107.14 32.1338C107.749 32.4248 108.417 32.5683 109.091 32.5529ZM88.6734 15.3827L86.4983 21.0447C84.5132 19.7521 82.1967 19.0682 79.8314 19.0764C78.5481 19.0764 77.6105 19.2481 77.0105 19.5915C76.7498 19.7095 76.5274 19.899 76.3689 20.1383C76.2105 20.3776 76.1224 20.6569 76.1147 20.9442C76.1083 21.241 76.2019 21.5312 76.3805 21.7677C76.559 22.0041 76.8119 22.1729 77.098 22.2466C78.1566 22.5926 79.2425 22.8476 80.344 23.0088C81.9517 23.2667 83.5381 23.6447 85.0899 24.1395C86.3782 24.5918 87.5124 25.4021 88.3609 26.4763C88.4692 26.6145 88.5775 26.7569 88.6734 26.8951V15.3869V15.3827ZM69.1686 24.952V34.1652L70.4478 30.815C71.593 31.6137 72.8595 32.2204 74.198 32.6115C75.5968 33.0437 77.0513 33.2666 78.5147 33.2732C79.8287 33.2732 80.762 33.1169 81.3148 32.8042C81.5682 32.684 81.7817 32.4928 81.9295 32.2536C82.0774 32.0143 82.1533 31.7373 82.1482 31.4557C82.1482 30.8652 81.8148 30.4464 81.144 30.1993C80.1054 29.8697 79.0402 29.6315 77.9606 29.4874C76.3626 29.2905 74.7845 28.9556 73.2438 28.4865C71.9294 28.0406 70.7717 27.2217 69.9103 26.1287C69.6232 25.7735 69.3811 25.3839 69.1895 24.9687L69.1686 24.952ZM65.1102 9.93432C65.7761 9.96123 66.4401 9.84601 67.0585 9.59625C67.6769 9.34649 68.2356 8.96786 68.6978 8.48531C69.6188 7.49432 70.1104 6.17622 70.0645 4.82094C70.0869 4.1801 69.9771 3.54154 69.7418 2.94548C69.5066 2.34942 69.1511 1.80877 68.6978 1.35759C68.2213 0.900867 67.6579 0.545615 67.0414 0.313169C66.4249 0.0807234 65.768 -0.0241273 65.1102 0.00490779C64.4458 -0.0229313 63.7829 0.0893798 63.1643 0.334614C62.5457 0.579849 61.985 0.952581 61.5184 1.42879C60.6394 2.39643 60.1521 3.65935 60.1521 4.96961C60.1521 6.27987 60.6394 7.5428 61.5184 8.51044C61.985 8.98664 62.5457 9.35936 63.1643 9.6046C63.7829 9.84983 64.4458 9.96216 65.1102 9.93432ZM34.3843 9.93432C35.0509 9.96183 35.7157 9.8469 36.3349 9.59712C36.954 9.34735 37.5134 8.9684 37.9761 8.48531C38.8971 7.49432 39.3887 6.17622 39.3428 4.82094C39.3652 4.1801 39.2553 3.54154 39.0201 2.94548C38.7849 2.34942 38.4294 1.80877 37.9761 1.35759C37.4991 0.900347 36.935 0.544799 36.3177 0.312338C35.7005 0.0798772 35.0428 -0.0246985 34.3843 0.00490779C33.7206 -0.0226005 33.0584 0.0898805 32.4405 0.335113C31.8226 0.580345 31.2627 0.952905 30.7967 1.42879C29.9151 2.3951 29.4259 3.65853 29.4259 4.96961C29.4259 6.2807 29.9151 7.54413 30.7967 8.51044C31.2627 8.98632 31.8226 9.35888 32.4405 9.60411C33.0584 9.84935 33.7206 9.96183 34.3843 9.93432ZM13.7879 31.7656C16.3546 31.7656 18.4144 30.928 19.9672 29.2529C21.5201 27.5777 22.2965 25.2674 22.2965 22.322C22.2965 19.3709 21.5201 17.0592 19.9672 15.3869C18.4144 13.7146 16.3546 12.877 13.7879 12.8742H8.44608V31.753L13.7879 31.7656Z" fill="black"/>
</svg>
