<svg width="876" height="239" viewBox="0 0 876 239" fill="none" xmlns="http://www.w3.org/2000/svg">
<path fill-rule="evenodd" clip-rule="evenodd" d="M0 30.5818H85.0024C103.239 30.2277 121.26 34.5794 137.329 43.2181C152.287 51.4832 164.512 63.9358 172.505 79.0502C176.78 87.0268 179.958 95.5447 181.955 104.373V76.9983H266.308L299.634 174.235L334.785 76.9983H415.012V107.025C416.1 104.624 417.379 102.315 418.837 100.119C424.633 91.7792 432.68 85.2617 442.038 81.3272C453.592 76.4516 466.053 74.0972 478.589 74.421C488.692 74.4243 498.76 75.6083 508.589 77.9492C516.77 79.7449 524.628 82.7827 531.89 86.9573V77.0734H580.617V126.693C582.092 122.374 583.932 118.188 586.117 114.182C592.513 102.01 602.198 91.883 614.068 84.9555C626.453 78.1099 640.37 74.5193 654.519 74.5193C668.667 74.5193 682.584 78.1099 694.97 84.9555C706.846 91.8079 716.537 101.89 722.921 114.032C724.895 117.779 726.567 121.678 727.921 125.692V76.9983H774.347V94.3139C779.662 87.9759 786.324 82.9063 793.848 79.4755C801.581 76.0046 809.974 74.2545 818.448 74.346C835.715 74.346 849.608 80.1845 860.125 91.8617C870.642 103.539 875.933 121.313 876 145.184V236.266H827.274V154.243C827.274 132.556 819.665 121.713 804.448 121.713C800.612 121.61 796.805 122.407 793.331 124.041C789.858 125.674 786.816 128.1 784.447 131.122C779.447 137.377 776.947 146.778 776.947 159.322V236.291H728.021V187.197C726.663 191.226 724.991 195.141 723.021 198.908C716.639 211.145 706.933 221.328 695.02 228.284C682.685 235.215 668.777 238.855 654.631 238.855C640.485 238.855 626.577 235.215 614.242 228.284C602.335 221.298 592.611 211.124 586.167 198.908C583.968 194.856 582.128 190.619 580.667 186.246V236.291H531.89V211.044C531.423 211.861 530.923 212.695 530.39 213.546C524.544 221.92 516.386 228.406 506.914 232.212C495.075 237.001 482.378 239.301 469.613 238.969C458.005 238.966 446.447 237.435 435.237 234.414C428.238 232.615 421.456 230.056 415.012 226.783V236.316H366.285V118.31L323.784 236.216H273.533L230.732 117.059V236.216H181.955V162.4C179.96 171.229 176.782 179.747 172.505 187.723C164.451 202.868 152.145 215.324 137.104 223.555C121.035 232.193 103.014 236.545 84.7774 236.191H0V30.5818ZM654.544 194.504C658.589 194.595 662.601 193.738 666.256 192C669.911 190.262 673.109 187.692 675.594 184.495C681.044 177.739 683.778 168.389 683.794 156.445C683.811 144.501 681.078 135.326 675.594 128.92C673.045 125.8 669.836 123.286 666.197 121.56C662.559 119.833 658.583 118.938 654.556 118.938C650.53 118.938 646.553 119.833 642.915 121.56C639.277 123.286 636.067 125.8 633.518 128.92C628.051 135.593 625.318 144.767 625.318 156.445C625.318 168.122 628.051 177.472 633.518 184.495C635.998 187.691 639.191 190.262 642.843 192C646.494 193.738 650.501 194.595 654.544 194.504ZM532.04 91.9117L518.99 125.742C507.079 118.019 493.18 113.932 478.989 113.981C471.288 113.981 465.663 115.007 462.063 117.059C460.499 117.764 459.164 118.897 458.214 120.326C457.263 121.756 456.734 123.425 456.688 125.141C456.65 126.915 457.212 128.649 458.283 130.062C459.354 131.475 460.871 132.483 462.588 132.923C468.939 134.991 475.455 136.514 482.064 137.478C491.71 139.019 501.228 141.277 510.54 144.234C518.269 146.936 525.075 151.778 530.165 158.196C530.815 159.022 531.465 159.873 532.04 160.698V91.9367V91.9117ZM415.012 149.088V204.137L422.687 184.119C429.558 188.892 437.157 192.517 445.188 194.854C453.581 197.436 462.308 198.768 471.088 198.807C478.972 198.807 484.572 197.873 487.889 196.005C489.409 195.287 490.69 194.144 491.577 192.715C492.464 191.286 492.92 189.63 492.889 187.948C492.889 184.42 490.889 181.917 486.864 180.441C480.632 178.472 474.241 177.048 467.763 176.187C458.176 175.01 448.707 173.01 439.463 170.207C431.576 167.542 424.63 162.649 419.462 156.119C417.739 153.997 416.286 151.669 415.137 149.188L415.012 149.088ZM390.661 59.3576C394.657 59.5184 398.641 58.8299 402.351 57.3376C406.061 55.8453 409.414 53.583 412.187 50.6997C417.713 44.7785 420.662 36.9029 420.387 28.8051C420.521 24.9761 419.862 21.1607 418.451 17.5992C417.04 14.0378 414.907 10.8074 412.187 8.1116C409.328 5.38268 405.947 3.26005 402.248 1.87118C398.549 0.482322 394.608 -0.144161 390.661 0.0293241C386.675 -0.137015 382.697 0.534045 378.986 1.99932C375.274 3.4646 371.91 5.69167 369.111 8.53701C363.837 14.3187 360.913 21.8646 360.913 29.6934C360.913 37.5222 363.837 45.0682 369.111 50.8499C371.91 53.6952 375.274 55.9222 378.986 57.3875C382.697 58.8528 386.675 59.5239 390.661 59.3576ZM206.306 59.3576C210.305 59.5219 214.294 58.8352 218.009 57.3428C221.724 55.8504 225.08 53.5862 227.856 50.6997C233.382 44.7785 236.332 36.9029 236.057 28.8051C236.191 24.9761 235.532 21.1607 234.121 17.5992C232.709 14.0378 230.577 10.8074 227.856 8.1116C224.995 5.37957 221.61 3.25518 217.906 1.86622C214.203 0.477267 210.257 -0.147573 206.306 0.0293241C202.323 -0.135038 198.351 0.537036 194.643 2.0023C190.936 3.46756 187.576 5.69361 184.78 8.53701C179.49 14.3107 176.556 21.8597 176.556 29.6934C176.556 37.5272 179.49 45.0762 184.78 50.8499C187.576 53.6933 190.936 55.9193 194.643 57.3846C198.351 58.8498 202.323 59.5219 206.306 59.3576ZM82.7273 189.799C98.1278 189.799 110.486 184.795 119.803 174.786C129.12 164.777 133.779 150.973 133.779 133.374C133.779 115.741 129.12 101.929 119.803 91.9367C110.486 81.9444 98.1278 76.94 82.7273 76.9233H50.6765V189.724L82.7273 189.799Z" fill="black"/>
</svg>
