<svg width="1460" height="150" viewBox="0 0 1460 150" fill="none" xmlns="http://www.w3.org/2000/svg">
<path d="M96.6 117H64.54L36.54 73.74V117H9.52V19H36.54V60.3L62.44 19H93.66L62.3 66.46L96.6 117ZM174.557 78.5C174.557 80.6467 174.37 82.9333 173.997 85.36H117.857C118.697 89.6533 120.424 92.92 123.037 95.16C125.744 97.4 129.15 98.52 133.257 98.52C135.31 98.52 137.224 98.24 138.997 97.68C140.77 97.12 142.31 96.3267 143.617 95.3C145.017 94.18 146.137 92.8733 146.977 91.38H172.877C170.264 100.06 165.364 106.92 158.177 111.96C151.084 117 142.777 119.52 133.257 119.52C121.497 119.52 111.697 115.693 103.857 108.04C96.1104 100.293 92.237 90.68 92.237 79.2C92.237 71.5467 94.0104 64.64 97.557 58.48C101.104 52.32 106.004 47.5133 112.257 44.06C118.51 40.6067 125.51 38.88 133.257 38.88C141.284 38.88 148.424 40.6533 154.677 44.2C161.024 47.6533 165.924 52.4133 169.377 58.48C172.83 64.4533 174.557 71.1267 174.557 78.5ZM133.257 59.32C129.524 59.32 126.35 60.3467 123.737 62.4C121.217 64.36 119.397 67.2067 118.277 70.94H148.937C146.604 63.1933 141.377 59.32 133.257 59.32ZM243.245 14.1V30.9H203.065V14.1H243.245ZM242.125 41.4H257.105V117H232.045V83.12L201.665 117H186.405V41.4H211.465V75L242.125 41.4ZM311.011 119.52C302.984 119.52 295.798 117.793 289.451 114.34C283.104 110.887 278.111 106.08 274.471 99.92C270.924 93.76 269.151 86.8533 269.151 79.2C269.151 71.4533 270.924 64.5467 274.471 58.48C278.111 52.32 283.104 47.56 289.451 44.2C295.798 40.7467 302.984 39.02 311.011 39.02C318.011 39.02 324.358 40.42 330.051 43.22C335.838 46.02 340.551 49.94 344.191 54.98C347.831 60.02 350.118 65.8533 351.051 72.48H325.711C324.591 69.4 322.678 66.9733 319.971 65.2C317.358 63.3333 314.371 62.4 311.011 62.4C306.438 62.4 302.658 63.9867 299.671 67.16C296.778 70.24 295.331 74.2533 295.331 79.2C295.331 84.1467 296.778 88.2067 299.671 91.38C302.658 94.5533 306.438 96.14 311.011 96.14C314.464 96.14 317.498 95.16 320.111 93.2C322.818 91.1467 324.684 88.44 325.711 85.08H351.331C349.838 95.3467 345.404 103.653 338.031 110C330.658 116.347 321.651 119.52 311.011 119.52ZM398.475 60.72C407.622 60.72 414.902 63.3333 420.315 68.56C425.822 73.6933 428.575 80.46 428.575 88.86C428.575 97.26 425.822 104.073 420.315 109.3C414.902 114.433 407.622 117 398.475 117H362.635V41.4H386.715V60.72H398.475ZM438.795 41.4H464.695V117H438.795V41.4ZM395.535 97.26C398.242 97.26 400.388 96.5133 401.975 95.02C403.562 93.5267 404.355 91.4733 404.355 88.86C404.355 86.2467 403.562 84.24 401.975 82.84C400.388 81.3467 398.242 80.6 395.535 80.6H386.715V97.26H395.535Z" fill="black"/>
</svg>
