<svg width="1460" height="150" viewBox="0 0 1460 150" fill="none" xmlns="http://www.w3.org/2000/svg">
<path d="M56.42 119.52C41.58 119.52 29.1667 114.62 19.18 104.82C9.28667 95.02 4.34 82.7933 4.34 68.14C4.34 53.3933 9.28667 41.12 19.18 31.32C29.1667 21.4267 41.58 16.48 56.42 16.48C69.3 16.48 80.2667 20.3533 89.32 28.1C98.4667 35.8467 104.02 45.9267 105.98 58.34H78.68C77.56 54.98 75.9267 52.0867 73.78 49.66C71.6333 47.14 69.0667 45.18 66.08 43.78C63.0933 42.38 59.92 41.68 56.56 41.68C49.56 41.68 43.7733 44.2 39.2 49.24C34.72 54.1867 32.48 60.4867 32.48 68.14C32.48 73.0867 33.5067 77.5667 35.56 81.58C37.6133 85.5 40.46 88.58 44.1 90.82C47.8333 93.06 51.9867 94.18 56.56 94.18C60.1067 94.18 63.3733 93.4333 66.36 91.94C69.44 90.4467 72.0067 88.3467 74.06 85.64C76.2067 82.9333 77.7467 79.8067 78.68 76.26H106.26C104.393 89.14 98.8867 99.5933 89.74 107.62C80.5933 115.553 69.4867 119.52 56.42 119.52ZM179.085 41.26H198.405V116.86H178.385L176.145 111.54C169.612 116.86 162.005 119.52 153.325 119.52C145.672 119.52 138.812 117.793 132.745 114.34C126.772 110.887 122.058 106.08 118.605 99.92C115.245 93.76 113.565 86.8067 113.565 79.06C113.565 67.3933 117.298 57.8267 124.765 50.36C132.232 42.8 141.752 39.02 153.325 39.02C162.098 39.02 169.798 41.7267 176.425 47.14L179.085 41.26ZM144.645 91.52C147.818 94.7867 151.832 96.42 156.685 96.42C161.632 96.42 165.692 94.7867 168.865 91.52C172.038 88.2533 173.625 84.1467 173.625 79.2C173.625 74.2533 172.038 70.1467 168.865 66.88C165.692 63.6133 161.678 61.98 156.825 61.98C151.878 61.98 147.818 63.6133 144.645 66.88C141.472 70.1467 139.885 74.2533 139.885 79.2C139.885 84.1467 141.472 88.2533 144.645 91.52ZM244.099 119.52C233.832 119.52 225.712 117.047 219.739 112.1C213.859 107.153 210.872 100.527 210.779 92.22H235.839C235.839 94.8333 236.632 96.84 238.219 98.24C239.805 99.64 241.905 100.34 244.519 100.34C245.825 100.34 247.039 100.153 248.159 99.78C249.279 99.3133 250.165 98.6133 250.819 97.68C251.565 96.7467 251.939 95.6733 251.939 94.46C251.939 93.06 251.285 91.8933 249.979 90.96C248.765 90.0267 247.365 89.3733 245.779 89C244.192 88.5333 241.905 88.0667 238.919 87.6C236.025 87.1333 233.552 86.6667 231.499 86.2C229.539 85.7333 227.205 84.94 224.499 83.82C221.792 82.6067 219.599 81.2067 217.919 79.62C216.239 78.0333 214.792 75.8867 213.579 73.18C212.365 70.4733 211.759 67.3467 211.759 63.8C211.759 56.24 214.699 50.22 220.579 45.74C226.459 41.1667 234.252 38.88 243.959 38.88C253.572 38.88 261.272 41.2133 267.059 45.88C272.939 50.5467 275.925 56.7533 276.019 64.5H251.659C251.659 62.9133 251.285 61.6067 250.539 60.58C249.885 59.46 248.952 58.6667 247.739 58.2C246.619 57.64 245.265 57.36 243.679 57.36C241.532 57.36 239.805 57.8733 238.499 58.9C237.285 59.9267 236.679 61.28 236.679 62.96C236.679 63.7067 236.819 64.36 237.099 64.92C237.379 65.48 237.845 65.9933 238.499 66.46C239.245 66.8333 239.899 67.16 240.459 67.44C241.019 67.72 241.905 68 243.119 68.28C244.425 68.56 245.452 68.7933 246.199 68.98C246.945 69.0733 248.112 69.26 249.699 69.54C251.659 69.9133 253.012 70.1933 253.759 70.38C254.599 70.4733 255.999 70.7533 257.959 71.22C259.919 71.6867 261.365 72.1067 262.299 72.48C263.232 72.76 264.492 73.2733 266.079 74.02C267.759 74.7667 269.019 75.5133 269.859 76.26C270.699 77.0067 271.679 77.9867 272.799 79.2C274.012 80.32 274.899 81.5333 275.459 82.84C276.019 84.1467 276.485 85.7333 276.859 87.6C277.325 89.3733 277.559 91.2867 277.559 93.34C277.559 101.273 274.479 107.62 268.319 112.38C262.252 117.14 254.179 119.52 244.099 119.52ZM367.604 78.5C367.604 80.6467 367.417 82.9333 367.044 85.36H310.904C311.744 89.6533 313.471 92.92 316.084 95.16C318.791 97.4 322.197 98.52 326.304 98.52C328.357 98.52 330.271 98.24 332.044 97.68C333.817 97.12 335.357 96.3267 336.664 95.3C338.064 94.18 339.184 92.8733 340.024 91.38H365.924C363.311 100.06 358.411 106.92 351.224 111.96C344.131 117 335.824 119.52 326.304 119.52C314.544 119.52 304.744 115.693 296.904 108.04C289.157 100.293 285.284 90.68 285.284 79.2C285.284 71.5467 287.057 64.64 290.604 58.48C294.151 52.32 299.051 47.5133 305.304 44.06C311.557 40.6067 318.557 38.88 326.304 38.88C334.331 38.88 341.471 40.6533 347.724 44.2C354.071 47.6533 358.971 52.4133 362.424 58.48C365.877 64.4533 367.604 71.1267 367.604 78.5ZM326.304 59.32C322.571 59.32 319.397 60.3467 316.784 62.4C314.264 64.36 312.444 67.2067 311.324 70.94H341.984C339.651 63.1933 334.424 59.32 326.304 59.32ZM408.571 119.52C398.305 119.52 390.185 117.047 384.211 112.1C378.331 107.153 375.345 100.527 375.251 92.22H400.311C400.311 94.8333 401.105 96.84 402.691 98.24C404.278 99.64 406.378 100.34 408.991 100.34C410.298 100.34 411.511 100.153 412.631 99.78C413.751 99.3133 414.638 98.6133 415.291 97.68C416.038 96.7467 416.411 95.6733 416.411 94.46C416.411 93.06 415.758 91.8933 414.451 90.96C413.238 90.0267 411.838 89.3733 410.251 89C408.665 88.5333 406.378 88.0667 403.391 87.6C400.498 87.1333 398.025 86.6667 395.971 86.2C394.011 85.7333 391.678 84.94 388.971 83.82C386.265 82.6067 384.071 81.2067 382.391 79.62C380.711 78.0333 379.265 75.8867 378.051 73.18C376.838 70.4733 376.231 67.3467 376.231 63.8C376.231 56.24 379.171 50.22 385.051 45.74C390.931 41.1667 398.725 38.88 408.431 38.88C418.045 38.88 425.745 41.2133 431.531 45.88C437.411 50.5467 440.398 56.7533 440.491 64.5H416.131C416.131 62.9133 415.758 61.6067 415.011 60.58C414.358 59.46 413.425 58.6667 412.211 58.2C411.091 57.64 409.738 57.36 408.151 57.36C406.005 57.36 404.278 57.8733 402.971 58.9C401.758 59.9267 401.151 61.28 401.151 62.96C401.151 63.7067 401.291 64.36 401.571 64.92C401.851 65.48 402.318 65.9933 402.971 66.46C403.718 66.8333 404.371 67.16 404.931 67.44C405.491 67.72 406.378 68 407.591 68.28C408.898 68.56 409.925 68.7933 410.671 68.98C411.418 69.0733 412.585 69.26 414.171 69.54C416.131 69.9133 417.485 70.1933 418.231 70.38C419.071 70.4733 420.471 70.7533 422.431 71.22C424.391 71.6867 425.838 72.1067 426.771 72.48C427.705 72.76 428.965 73.2733 430.551 74.02C432.231 74.7667 433.491 75.5133 434.331 76.26C435.171 77.0067 436.151 77.9867 437.271 79.2C438.485 80.32 439.371 81.5333 439.931 82.84C440.491 84.1467 440.958 85.7333 441.331 87.6C441.798 89.3733 442.031 91.2867 442.031 93.34C442.031 101.273 438.951 107.62 432.791 112.38C426.725 117.14 418.651 119.52 408.571 119.52Z" fill="black"/>
</svg>
