<svg width="825" height="150" viewBox="0 0 825 150" fill="none" xmlns="http://www.w3.org/2000/svg">
<path d="M66.72 119.88C48.6933 119.88 33.8667 114.387 22.24 103.4C10.72 92.3067 4.96 78.1733 4.96 61C4.96 43.8267 10.72 29.7467 22.24 18.76C33.8667 7.66666 48.6933 2.11999 66.72 2.11999C84.64 2.11999 99.36 7.66666 110.88 18.76C122.4 29.7467 128.16 43.8267 128.16 61C128.16 78.1733 122.4 92.3067 110.88 103.4C99.36 114.387 84.64 119.88 66.72 119.88ZM45.44 82.6C51.0933 88.2533 58.1867 91.08 66.72 91.08C75.2533 91.08 82.24 88.2533 87.68 82.6C93.2267 76.9467 96 69.7467 96 61C96 52.2533 93.2267 45.0533 87.68 39.4C82.24 33.7467 75.2533 30.92 66.72 30.92C58.1867 30.92 51.0933 33.7467 45.44 39.4C39.8933 45.0533 37.12 52.2533 37.12 61C37.12 69.7467 39.8933 76.9467 45.44 82.6ZM230.533 30.6H260.133V117H230.533V86.6H206.853V117H177.253V30.6H206.853V60.36H230.533V30.6ZM348.731 30.44H370.811V116.84H347.931L345.371 110.76C337.905 116.84 329.211 119.88 319.291 119.88C310.545 119.88 302.705 117.907 295.771 113.96C288.945 110.013 283.558 104.52 279.611 97.48C275.771 90.44 273.851 82.4933 273.851 73.64C273.851 60.3067 278.118 49.3733 286.651 40.84C295.185 32.2 306.065 27.88 319.291 27.88C329.318 27.88 338.118 30.9733 345.691 37.16L348.731 30.44ZM309.371 87.88C312.998 91.6133 317.585 93.48 323.131 93.48C328.785 93.48 333.425 91.6133 337.051 87.88C340.678 84.1467 342.491 79.4533 342.491 73.8C342.491 68.1467 340.678 63.4533 337.051 59.72C333.425 55.9867 328.838 54.12 323.291 54.12C317.638 54.12 312.998 55.9867 309.371 59.72C305.745 63.4533 303.931 68.1467 303.931 73.8C303.931 79.4533 305.745 84.1467 309.371 87.88ZM432.473 119.88C423.299 119.88 415.086 117.907 407.833 113.96C400.579 110.013 394.873 104.52 390.713 97.48C386.659 90.44 384.633 82.5467 384.633 73.8C384.633 64.9467 386.659 57.0533 390.713 50.12C394.873 43.08 400.579 37.64 407.833 33.8C415.086 29.8533 423.299 27.88 432.473 27.88C440.473 27.88 447.726 29.48 454.233 32.68C460.846 35.88 466.233 40.36 470.393 46.12C474.553 51.88 477.166 58.5467 478.233 66.12H449.273C447.993 62.6 445.806 59.8267 442.713 57.8C439.726 55.6667 436.313 54.6 432.473 54.6C427.246 54.6 422.926 56.4133 419.513 60.04C416.206 63.56 414.553 68.1467 414.553 73.8C414.553 79.4533 416.206 84.0933 419.513 87.72C422.926 91.3467 427.246 93.16 432.473 93.16C436.419 93.16 439.886 92.04 442.873 89.8C445.966 87.4533 448.099 84.36 449.273 80.52H478.553C476.846 92.2533 471.779 101.747 463.353 109C454.926 116.253 444.633 119.88 432.473 119.88Z" fill="black"/>
</svg>
