<svg width="1460" height="150" viewBox="0 0 1460 150" fill="none" xmlns="http://www.w3.org/2000/svg">
<path d="M96.6 117H64.54L36.54 73.74V117H9.52V19H36.54V60.3L62.44 19H93.66L62.3 66.46L96.6 117ZM134.657 119.52C122.337 119.52 112.164 115.74 104.137 108.18C96.2037 100.527 92.237 90.8667 92.237 79.2C92.237 67.44 96.2037 57.78 104.137 50.22C112.164 42.66 122.337 38.88 134.657 38.88C146.977 38.88 157.104 42.7067 165.037 50.36C173.064 57.92 177.077 67.5333 177.077 79.2C177.077 90.8667 173.064 100.527 165.037 108.18C157.01 115.74 146.884 119.52 134.657 119.52ZM122.897 91.38C125.977 94.5533 129.897 96.14 134.657 96.14C139.417 96.14 143.29 94.5533 146.277 91.38C149.357 88.2067 150.897 84.1467 150.897 79.2C150.897 74.2533 149.357 70.1933 146.277 67.02C143.29 63.8467 139.417 62.26 134.657 62.26C131.484 62.26 128.637 63.0067 126.117 64.5C123.69 65.9 121.777 67.9067 120.377 70.52C118.977 73.04 118.277 75.9333 118.277 79.2C118.277 84.1467 119.817 88.2067 122.897 91.38ZM235.759 41.4H261.659V117H235.759V90.4H215.039V117H189.139V41.4H215.039V67.44H235.759V41.4ZM345.203 41.4V63.94H321.403V117H295.923V63.94H271.983V41.4H345.203ZM415.198 41.26H434.518V116.86H414.498L412.258 111.54C405.725 116.86 398.118 119.52 389.438 119.52C381.785 119.52 374.925 117.793 368.858 114.34C362.885 110.887 358.172 106.08 354.718 99.92C351.358 93.76 349.678 86.8067 349.678 79.06C349.678 67.3933 353.412 57.8267 360.878 50.36C368.345 42.8 377.865 39.02 389.438 39.02C398.212 39.02 405.912 41.7267 412.538 47.14L415.198 41.26ZM380.758 91.52C383.932 94.7867 387.945 96.42 392.798 96.42C397.745 96.42 401.805 94.7867 404.978 91.52C408.152 88.2533 409.738 84.1467 409.738 79.2C409.738 74.2533 408.152 70.1467 404.978 66.88C401.805 63.6133 397.792 61.98 392.938 61.98C387.992 61.98 383.932 63.6133 380.758 66.88C377.585 70.1467 375.998 74.2533 375.998 79.2C375.998 84.1467 377.585 88.2533 380.758 91.52ZM526.692 117H496.032L477.132 84.94V117H451.092V41.4H477.132V71.08L495.192 41.4H524.312L500.652 77.52L526.692 117ZM600.593 41.4V63.94H576.793V117H551.313V63.94H527.373V41.4H600.593ZM646.756 60.72C655.903 60.72 663.183 63.3333 668.596 68.56C674.103 73.6933 676.856 80.46 676.856 88.86C676.856 97.26 674.103 104.073 668.596 109.3C663.183 114.433 655.903 117 646.756 117H610.916V41.4H634.996V60.72H646.756ZM687.076 41.4H712.976V117H687.076V41.4ZM643.816 97.26C646.523 97.26 648.67 96.5133 650.256 95.02C651.843 93.5267 652.636 91.4733 652.636 88.86C652.636 86.2467 651.843 84.24 650.256 82.84C648.67 81.3467 646.523 80.6 643.816 80.6H634.996V97.26H643.816Z" fill="black"/>
</svg>
