<svg width="1460" height="150" viewBox="0 0 1460 150" fill="none" xmlns="http://www.w3.org/2000/svg">
<path d="M74.48 117L69.02 101.04H34.3L28.84 117H0L38.5 19H64.82L104.16 117H74.48ZM62.44 79.9L51.66 49.52L40.88 79.9H62.44ZM156.96 39.02C168.533 39.02 178.006 42.8 185.38 50.36C192.846 57.8267 196.58 67.44 196.58 79.2C196.58 90.96 192.846 100.62 185.38 108.18C178.006 115.74 168.533 119.52 156.96 119.52C148.186 119.52 140.58 116.813 134.14 111.4L131.62 117H112.44V14.1H138.06V44.2C143.753 40.7467 150.053 39.02 156.96 39.02ZM153.46 96.42C158.313 96.42 162.326 94.7867 165.5 91.52C168.766 88.2533 170.4 84.1467 170.4 79.2C170.4 74.2533 168.766 70.1467 165.5 66.88C162.326 63.6133 158.313 61.98 153.46 61.98C148.606 61.98 144.546 63.6133 141.28 66.88C138.106 70.1467 136.52 74.2533 136.52 79.2C136.52 82.4667 137.22 85.4067 138.62 88.02C140.113 90.6333 142.12 92.6867 144.64 94.18C147.253 95.6733 150.193 96.42 153.46 96.42ZM246.493 119.52C234.173 119.52 224 115.74 215.973 108.18C208.04 100.527 204.073 90.8667 204.073 79.2C204.073 67.44 208.04 57.78 215.973 50.22C224 42.66 234.173 38.88 246.493 38.88C258.813 38.88 268.94 42.7067 276.873 50.36C284.9 57.92 288.913 67.5333 288.913 79.2C288.913 90.8667 284.9 100.527 276.873 108.18C268.846 115.74 258.72 119.52 246.493 119.52ZM234.733 91.38C237.813 94.5533 241.733 96.14 246.493 96.14C251.253 96.14 255.126 94.5533 258.113 91.38C261.193 88.2067 262.733 84.1467 262.733 79.2C262.733 74.2533 261.193 70.1933 258.113 67.02C255.126 63.8467 251.253 62.26 246.493 62.26C243.32 62.26 240.473 63.0067 237.953 64.5C235.526 65.9 233.613 67.9067 232.213 70.52C230.813 73.04 230.113 75.9333 230.113 79.2C230.113 84.1467 231.653 88.2067 234.733 91.38ZM337.235 119.52C326.035 119.52 317.028 116.347 310.215 110C303.402 103.56 299.995 95.0667 299.995 84.52V41.4H326.035V83.4C326.035 87.4133 327.015 90.54 328.975 92.78C330.935 95.02 333.642 96.14 337.095 96.14C340.642 96.14 343.395 95.02 345.355 92.78C347.408 90.4467 348.435 87.32 348.435 83.4V41.4H374.475V84.52C374.475 91.52 372.935 97.68 369.855 103C366.775 108.227 362.388 112.287 356.695 115.18C351.095 118.073 344.608 119.52 337.235 119.52ZM430.722 94.18H440.802V117H422.882C414.482 117 407.902 114.62 403.142 109.86C398.382 105.007 396.002 98.38 396.002 89.98V61.42H382.142V55.4L416.022 19.28H421.342V41.4H440.382V61.42H422.042V85.5C422.042 88.2067 422.789 90.3533 424.282 91.94C425.869 93.4333 428.015 94.18 430.722 94.18ZM519.618 119.52C508.418 119.52 499.411 116.347 492.598 110C485.784 103.56 482.378 95.0667 482.378 84.52V41.4H508.418V83.4C508.418 87.4133 509.398 90.54 511.358 92.78C513.318 95.02 516.024 96.14 519.478 96.14C523.024 96.14 525.778 95.02 527.738 92.78C529.791 90.4467 530.818 87.32 530.818 83.4V41.4H556.858V84.52C556.858 91.52 555.318 97.68 552.238 103C549.158 108.227 544.771 112.287 539.078 115.18C533.478 118.073 526.991 119.52 519.618 119.52ZM601.345 119.52C591.078 119.52 582.958 117.047 576.985 112.1C571.105 107.153 568.118 100.527 568.025 92.22H593.085C593.085 94.8333 593.878 96.84 595.465 98.24C597.052 99.64 599.152 100.34 601.765 100.34C603.072 100.34 604.285 100.153 605.405 99.78C606.525 99.3133 607.412 98.6133 608.065 97.68C608.812 96.7467 609.185 95.6733 609.185 94.46C609.185 93.06 608.532 91.8933 607.225 90.96C606.012 90.0267 604.612 89.3733 603.025 89C601.438 88.5333 599.152 88.0667 596.165 87.6C593.272 87.1333 590.798 86.6667 588.745 86.2C586.785 85.7333 584.452 84.94 581.745 83.82C579.038 82.6067 576.845 81.2067 575.165 79.62C573.485 78.0333 572.038 75.8867 570.825 73.18C569.612 70.4733 569.005 67.3467 569.005 63.8C569.005 56.24 571.945 50.22 577.825 45.74C583.705 41.1667 591.498 38.88 601.205 38.88C610.818 38.88 618.518 41.2133 624.305 45.88C630.185 50.5467 633.172 56.7533 633.265 64.5H608.905C608.905 62.9133 608.532 61.6067 607.785 60.58C607.132 59.46 606.198 58.6667 604.985 58.2C603.865 57.64 602.512 57.36 600.925 57.36C598.778 57.36 597.052 57.8733 595.745 58.9C594.532 59.9267 593.925 61.28 593.925 62.96C593.925 63.7067 594.065 64.36 594.345 64.92C594.625 65.48 595.092 65.9933 595.745 66.46C596.492 66.8333 597.145 67.16 597.705 67.44C598.265 67.72 599.152 68 600.365 68.28C601.672 68.56 602.698 68.7933 603.445 68.98C604.192 69.0733 605.358 69.26 606.945 69.54C608.905 69.9133 610.258 70.1933 611.005 70.38C611.845 70.4733 613.245 70.7533 615.205 71.22C617.165 71.6867 618.612 72.1067 619.545 72.48C620.478 72.76 621.738 73.2733 623.325 74.02C625.005 74.7667 626.265 75.5133 627.105 76.26C627.945 77.0067 628.925 77.9867 630.045 79.2C631.258 80.32 632.145 81.5333 632.705 82.84C633.265 84.1467 633.732 85.7333 634.105 87.6C634.572 89.3733 634.805 91.2867 634.805 93.34C634.805 101.273 631.725 107.62 625.565 112.38C619.498 117.14 611.425 119.52 601.345 119.52Z" fill="black"/>
</svg>
