<svg width="1460" height="150" viewBox="0 0 1460 150" fill="none" xmlns="http://www.w3.org/2000/svg">
<path d="M56.42 119.52C41.58 119.52 29.1667 114.62 19.18 104.82C9.28667 95.02 4.34 82.7933 4.34 68.14C4.34 53.3933 9.28667 41.12 19.18 31.32C29.1667 21.4267 41.58 16.48 56.42 16.48C69.3 16.48 80.2667 20.3533 89.32 28.1C98.4667 35.8467 104.02 45.9267 105.98 58.34H78.68C77.56 54.98 75.9267 52.0867 73.78 49.66C71.6333 47.14 69.0667 45.18 66.08 43.78C63.0933 42.38 59.92 41.68 56.56 41.68C49.56 41.68 43.7733 44.2 39.2 49.24C34.72 54.1867 32.48 60.4867 32.48 68.14C32.48 73.0867 33.5067 77.5667 35.56 81.58C37.6133 85.5 40.46 88.58 44.1 90.82C47.8333 93.06 51.9867 94.18 56.56 94.18C60.1067 94.18 63.3733 93.4333 66.36 91.94C69.44 90.4467 72.0067 88.3467 74.06 85.64C76.2067 82.9333 77.7467 79.8067 78.68 76.26H106.26C104.393 89.14 98.8867 99.5933 89.74 107.62C80.5933 115.553 69.4867 119.52 56.42 119.52ZM155.985 119.52C143.665 119.52 133.492 115.74 125.465 108.18C117.532 100.527 113.565 90.8667 113.565 79.2C113.565 67.44 117.532 57.78 125.465 50.22C133.492 42.66 143.665 38.88 155.985 38.88C168.305 38.88 178.432 42.7067 186.365 50.36C194.392 57.92 198.405 67.5333 198.405 79.2C198.405 90.8667 194.392 100.527 186.365 108.18C178.338 115.74 168.212 119.52 155.985 119.52ZM144.225 91.38C147.305 94.5533 151.225 96.14 155.985 96.14C160.745 96.14 164.618 94.5533 167.605 91.38C170.685 88.2067 172.225 84.1467 172.225 79.2C172.225 74.2533 170.685 70.1933 167.605 67.02C164.618 63.8467 160.745 62.26 155.985 62.26C152.812 62.26 149.965 63.0067 147.445 64.5C145.018 65.9 143.105 67.9067 141.705 70.52C140.305 73.04 139.605 75.9333 139.605 79.2C139.605 84.1467 141.145 88.2067 144.225 91.38ZM256.107 39.16C264.88 39.16 271.88 42.0533 277.107 47.84C282.427 53.6267 285.087 61.3267 285.087 70.94V117H259.047V74.44C259.047 65.6667 255.78 61.28 249.247 61.28C246.54 61.28 244.207 61.8867 242.247 63.1C240.38 64.3133 238.934 66.0867 237.907 68.42C236.974 70.66 236.507 73.4133 236.507 76.68V117H210.467V41.4H228.667L232.307 49.24C238.28 42.52 246.214 39.16 256.107 39.16ZM341.035 94.18H351.115V117H333.195C324.795 117 318.215 114.62 313.455 109.86C308.695 105.007 306.315 98.38 306.315 89.98V61.42H292.455V55.4L326.335 19.28H331.655V41.4H350.695V61.42H332.355V85.5C332.355 88.2067 333.101 90.3533 334.595 91.94C336.181 93.4333 338.328 94.18 341.035 94.18ZM423.675 41.26H442.995V116.86H422.975L420.735 111.54C414.202 116.86 406.595 119.52 397.915 119.52C390.262 119.52 383.402 117.793 377.335 114.34C371.362 110.887 366.648 106.08 363.195 99.92C359.835 93.76 358.155 86.8067 358.155 79.06C358.155 67.3933 361.888 57.8267 369.355 50.36C376.822 42.8 386.342 39.02 397.915 39.02C406.688 39.02 414.388 41.7267 421.015 47.14L423.675 41.26ZM389.235 91.52C392.408 94.7867 396.422 96.42 401.275 96.42C406.222 96.42 410.282 94.7867 413.455 91.52C416.628 88.2533 418.215 84.1467 418.215 79.2C418.215 74.2533 416.628 70.1467 413.455 66.88C410.282 63.6133 406.268 61.98 401.415 61.98C396.468 61.98 392.408 63.6133 389.235 66.88C386.062 70.1467 384.475 74.2533 384.475 79.2C384.475 84.1467 386.062 88.2533 389.235 91.52ZM496.949 119.52C488.922 119.52 481.735 117.793 475.389 114.34C469.042 110.887 464.049 106.08 460.409 99.92C456.862 93.76 455.089 86.8533 455.089 79.2C455.089 71.4533 456.862 64.5467 460.409 58.48C464.049 52.32 469.042 47.56 475.389 44.2C481.735 40.7467 488.922 39.02 496.949 39.02C503.949 39.02 510.295 40.42 515.989 43.22C521.775 46.02 526.489 49.94 530.129 54.98C533.769 60.02 536.055 65.8533 536.989 72.48H511.649C510.529 69.4 508.615 66.9733 505.909 65.2C503.295 63.3333 500.309 62.4 496.949 62.4C492.375 62.4 488.595 63.9867 485.609 67.16C482.715 70.24 481.269 74.2533 481.269 79.2C481.269 84.1467 482.715 88.2067 485.609 91.38C488.595 94.5533 492.375 96.14 496.949 96.14C500.402 96.14 503.435 95.16 506.049 93.2C508.755 91.1467 510.622 88.44 511.649 85.08H537.269C535.775 95.3467 531.342 103.653 523.969 110C516.595 116.347 507.589 119.52 496.949 119.52ZM588.769 94.18H598.849V117H580.929C572.529 117 565.949 114.62 561.189 109.86C556.429 105.007 554.049 98.38 554.049 89.98V61.42H540.189V55.4L574.069 19.28H579.389V41.4H598.429V61.42H580.089V85.5C580.089 88.2067 580.836 90.3533 582.329 91.94C583.916 93.4333 586.062 94.18 588.769 94.18ZM640.173 119.52C629.906 119.52 621.786 117.047 615.813 112.1C609.933 107.153 606.946 100.527 606.853 92.22H631.913C631.913 94.8333 632.706 96.84 634.293 98.24C635.88 99.64 637.98 100.34 640.593 100.34C641.9 100.34 643.113 100.153 644.233 99.78C645.353 99.3133 646.24 98.6133 646.893 97.68C647.64 96.7467 648.013 95.6733 648.013 94.46C648.013 93.06 647.36 91.8933 646.053 90.96C644.84 90.0267 643.44 89.3733 641.853 89C640.266 88.5333 637.98 88.0667 634.993 87.6C632.1 87.1333 629.626 86.6667 627.573 86.2C625.613 85.7333 623.28 84.94 620.573 83.82C617.866 82.6067 615.673 81.2067 613.993 79.62C612.313 78.0333 610.866 75.8867 609.653 73.18C608.44 70.4733 607.833 67.3467 607.833 63.8C607.833 56.24 610.773 50.22 616.653 45.74C622.533 41.1667 630.326 38.88 640.033 38.88C649.646 38.88 657.346 41.2133 663.133 45.88C669.013 50.5467 672 56.7533 672.093 64.5H647.733C647.733 62.9133 647.36 61.6067 646.613 60.58C645.96 59.46 645.026 58.6667 643.813 58.2C642.693 57.64 641.34 57.36 639.753 57.36C637.606 57.36 635.88 57.8733 634.573 58.9C633.36 59.9267 632.753 61.28 632.753 62.96C632.753 63.7067 632.893 64.36 633.173 64.92C633.453 65.48 633.92 65.9933 634.573 66.46C635.32 66.8333 635.973 67.16 636.533 67.44C637.093 67.72 637.98 68 639.193 68.28C640.5 68.56 641.526 68.7933 642.273 68.98C643.02 69.0733 644.186 69.26 645.773 69.54C647.733 69.9133 649.086 70.1933 649.833 70.38C650.673 70.4733 652.073 70.7533 654.033 71.22C655.993 71.6867 657.44 72.1067 658.373 72.48C659.306 72.76 660.566 73.2733 662.153 74.02C663.833 74.7667 665.093 75.5133 665.933 76.26C666.773 77.0067 667.753 77.9867 668.873 79.2C670.086 80.32 670.973 81.5333 671.533 82.84C672.093 84.1467 672.56 85.7333 672.933 87.6C673.4 89.3733 673.633 91.2867 673.633 93.34C673.633 101.273 670.553 107.62 664.393 112.38C658.326 117.14 650.253 119.52 640.173 119.52Z" fill="black"/>
</svg>
