<svg width="825" height="150" viewBox="0 0 825 150" fill="none" xmlns="http://www.w3.org/2000/svg">
<g clip-path="url(#clip0_1593_3771)">
<path d="M110.4 117H73.76L41.76 67.56V117H10.88V4.99999H41.76V52.2L71.36 4.99999H107.04L71.2 59.24L110.4 117ZM199.494 73C199.494 75.4533 199.28 78.0667 198.854 80.84H134.694C135.654 85.7467 137.627 89.48 140.614 92.04C143.707 94.6 147.6 95.88 152.294 95.88C154.64 95.88 156.827 95.56 158.854 94.92C160.88 94.28 162.64 93.3733 164.134 92.2C165.734 90.92 167.014 89.4267 167.974 87.72H197.574C194.587 97.64 188.987 105.48 180.774 111.24C172.667 117 163.174 119.88 152.294 119.88C138.854 119.88 127.654 115.507 118.694 106.76C109.84 97.9067 105.414 86.92 105.414 73.8C105.414 65.0533 107.44 57.16 111.494 50.12C115.547 43.08 121.147 37.5867 128.294 33.64C135.44 29.6933 143.44 27.72 152.294 27.72C161.467 27.72 169.627 29.7467 176.774 33.8C184.027 37.7467 189.627 43.1867 193.574 50.12C197.52 56.9467 199.494 64.5733 199.494 73ZM152.294 51.08C148.027 51.08 144.4 52.2533 141.414 54.6C138.534 56.84 136.454 60.0933 135.174 64.36H170.214C167.547 55.5067 161.574 51.08 152.294 51.08ZM277.994 -0.600002V18.6H232.074V-0.600002H277.994ZM276.714 30.6H293.834V117H265.194V78.28L230.474 117H213.034V30.6H241.674V69L276.714 30.6ZM355.441 119.88C346.268 119.88 338.055 117.907 330.801 113.96C323.548 110.013 317.841 104.52 313.681 97.48C309.628 90.44 307.601 82.5467 307.601 73.8C307.601 64.9467 309.628 57.0533 313.681 50.12C317.841 43.08 323.548 37.64 330.801 33.8C338.055 29.8533 346.268 27.88 355.441 27.88C363.441 27.88 370.695 29.48 377.201 32.68C383.815 35.88 389.201 40.36 393.361 46.12C397.521 51.88 400.135 58.5467 401.201 66.12H372.241C370.961 62.6 368.775 59.8267 365.681 57.8C362.695 55.6667 359.281 54.6 355.441 54.6C350.215 54.6 345.895 56.4133 342.481 60.04C339.175 63.56 337.521 68.1467 337.521 73.8C337.521 79.4533 339.175 84.0933 342.481 87.72C345.895 91.3467 350.215 93.16 355.441 93.16C359.388 93.16 362.855 92.04 365.841 89.8C368.935 87.4533 371.068 84.36 372.241 80.52H401.521C399.815 92.2533 394.748 101.747 386.321 109C377.895 116.253 367.601 119.88 355.441 119.88ZM455.4 52.68C465.853 52.68 474.173 55.6667 480.36 61.64C486.653 67.5067 489.8 75.24 489.8 84.84C489.8 94.44 486.653 102.227 480.36 108.2C474.173 114.067 465.853 117 455.4 117H414.44V30.6H441.96V52.68H455.4ZM501.48 30.6H531.08V117H501.48V30.6ZM452.04 94.44C455.133 94.44 457.587 93.5867 459.4 91.88C461.213 90.1733 462.12 87.8267 462.12 84.84C462.12 81.8533 461.213 79.56 459.4 77.96C457.587 76.2533 455.133 75.4 452.04 75.4H441.96V94.44H452.04Z" fill="black"/>
</g>
<defs>
<clipPath id="clip0_1593_3771">
<rect width="825" height="150" fill="white"/>
</clipPath>
</defs>
</svg>
