<svg width="825" height="150" viewBox="0 0 825 150" fill="none" xmlns="http://www.w3.org/2000/svg">
<g clip-path="url(#clip0_2323_5678)">
<path d="M106.72 117H71.68L53.28 82.6L34.72 117H-0.32L33.28 58.76L1.6 4.99999H36.32L53.12 36.68L70.08 4.99999H104.48L72.96 59.24L106.72 117ZM115.85 19.72V-5.40001H145.13V19.72H115.85ZM115.69 117V30.6H145.45V117H115.69ZM199.648 90.6H232.608V117H157.888V112.52L191.008 56.84H160.928V30.6H232.288V35.4L199.648 90.6ZM348.228 28.04C357.508 28.04 364.974 31.2933 370.628 37.8C376.281 44.2 379.108 52.52 379.108 62.76V117H349.348V66.44C349.348 57.5867 346.148 53.16 339.748 53.16C331.428 53.16 327.268 58.6533 327.268 69.64V117H298.308V66.44C298.308 57.5867 295.161 53.16 288.868 53.16C284.814 53.16 281.721 54.6 279.588 57.48C277.454 60.2533 276.388 64.3067 276.388 69.64V117H246.628V30.6H267.428L271.748 39.88C278.468 31.9867 286.894 28.04 297.028 28.04C302.254 28.04 307.001 29.16 311.268 31.4C315.534 33.64 319.001 36.7867 321.667 40.84C323.801 38.1733 326.201 35.88 328.868 33.96C331.641 32.04 334.681 30.6 337.988 29.64C341.294 28.5733 344.708 28.04 348.228 28.04ZM466.7 30.44H488.78V116.84H465.9L463.34 110.76C455.873 116.84 447.18 119.88 437.26 119.88C428.513 119.88 420.673 117.907 413.74 113.96C406.913 110.013 401.527 104.52 397.58 97.48C393.74 90.44 391.82 82.4933 391.82 73.64C391.82 60.3067 396.087 49.3733 404.62 40.84C413.153 32.2 424.033 27.88 437.26 27.88C447.287 27.88 456.087 30.9733 463.66 37.16L466.7 30.44ZM427.34 87.88C430.967 91.6133 435.553 93.48 441.1 93.48C446.753 93.48 451.393 91.6133 455.02 87.88C458.647 84.1467 460.46 79.4533 460.46 73.8C460.46 68.1467 458.647 63.4533 455.02 59.72C451.393 55.9867 446.807 54.12 441.26 54.12C435.607 54.12 430.967 55.9867 427.34 59.72C423.713 63.4533 421.9 68.1467 421.9 73.8C421.9 79.4533 423.713 84.1467 427.34 87.88ZM554.441 90.92H565.961V117H545.481C535.881 117 528.361 114.28 522.921 108.84C517.481 103.293 514.761 95.72 514.761 86.12V53.48H498.921V46.6L537.641 5.32H543.721V30.6H565.481V53.48H544.521V81C544.521 84.0933 545.375 86.5467 547.081 88.36C548.895 90.0667 551.348 90.92 554.441 90.92ZM579.909 117V-0.600002H609.669V117H579.909ZM698.106 30.44H720.186V116.84H697.306L694.746 110.76C687.28 116.84 678.586 119.88 668.666 119.88C659.92 119.88 652.08 117.907 645.146 113.96C638.32 110.013 632.933 104.52 628.986 97.48C625.146 90.44 623.226 82.4933 623.226 73.64C623.226 60.3067 627.493 49.3733 636.026 40.84C644.56 32.2 655.44 27.88 668.666 27.88C678.693 27.88 687.493 30.9733 695.066 37.16L698.106 30.44ZM658.746 87.88C662.373 91.6133 666.96 93.48 672.506 93.48C678.16 93.48 682.8 91.6133 686.426 87.88C690.053 84.1467 691.866 79.4533 691.866 73.8C691.866 68.1467 690.053 63.4533 686.426 59.72C682.8 55.9867 678.213 54.12 672.666 54.12C667.013 54.12 662.373 55.9867 658.746 59.72C655.12 63.4533 653.306 68.1467 653.306 73.8C653.306 79.4533 655.12 84.1467 658.746 87.88ZM787.448 30.12H795.288V57.48H783.768C778.541 57.48 774.754 58.7067 772.408 61.16C770.061 63.6133 768.888 67.56 768.888 73V117H739.128V30.6H758.968L763.608 40.2C769.368 33.48 777.314 30.12 787.448 30.12Z" fill="black"/>
</g>
<defs>
<clipPath id="clip0_2323_5678">
<rect width="825" height="150" fill="white"/>
</clipPath>
</defs>
</svg>
