<svg width="1460" height="150" viewBox="0 0 1460 150" fill="none" xmlns="http://www.w3.org/2000/svg">
<g clip-path="url(#clip0_2370_7665)">
<path d="M71.4 65.2C76.0667 67.44 79.7067 70.66 82.32 74.86C85.0267 79.06 86.38 83.82 86.38 89.14C86.38 97.0733 83.3467 103.7 77.28 109.02C71.2133 114.34 63.6533 117 54.6 117H9.52V19H53.76C59.4533 19 64.5867 20.0733 69.16 22.22C73.7333 24.3667 77.3267 27.3533 79.94 31.18C82.5533 35.0067 83.86 39.3 83.86 44.06C83.86 48.3533 82.74 52.4133 80.5 56.24C78.26 59.9733 75.2267 62.96 71.4 65.2ZM58.24 48.54C58.24 46.02 57.4 43.9667 55.72 42.38C54.04 40.7933 51.8 40 49 40H35.42V57.08H49C50.8667 57.08 52.5 56.7533 53.9 56.1C55.3 55.3533 56.3733 54.3267 57.12 53.02C57.8667 51.7133 58.24 50.22 58.24 48.54ZM50.12 94.88C53.0133 94.88 55.3467 94.04 57.12 92.36C58.8933 90.68 59.78 88.5333 59.78 85.92C59.78 83.3067 58.8933 81.16 57.12 79.48C55.3467 77.8 53.0133 76.96 50.12 76.96H35.42V94.88H50.12ZM99.5914 31.88V9.89999H125.211V31.88H99.5914ZM99.4514 117V41.4H125.491V117H99.4514ZM172.914 93.9H201.754V117H136.374V113.08L165.354 64.36H139.034V41.4H201.474V45.6L172.914 93.9ZM290.573 39.16C299.253 39.16 306.16 42.1 311.293 47.98C316.427 53.86 318.993 61.7 318.993 71.5V117H292.953V74.44C292.953 65.6667 289.687 61.28 283.153 61.28C281.567 61.28 280.073 61.5133 278.673 61.98C277.367 62.4467 276.2 63.1 275.173 63.94C274.147 64.78 273.26 65.8067 272.513 67.02C271.86 68.2333 271.347 69.68 270.973 71.36C270.6 72.9467 270.413 74.72 270.413 76.68V117H244.373V14.1H270.413V46.44C276.293 41.5867 283.013 39.16 290.573 39.16ZM395.648 41.26H414.968V116.86H394.948L392.708 111.54C386.174 116.86 378.568 119.52 369.888 119.52C362.234 119.52 355.374 117.793 349.308 114.34C343.334 110.887 338.621 106.08 335.168 99.92C331.808 93.76 330.128 86.8067 330.128 79.06C330.128 67.3933 333.861 57.8267 341.328 50.36C348.794 42.8 358.314 39.02 369.888 39.02C378.661 39.02 386.361 41.7267 392.988 47.14L395.648 41.26ZM361.208 91.52C364.381 94.7867 368.394 96.42 373.248 96.42C378.194 96.42 382.254 94.7867 385.428 91.52C388.601 88.2533 390.188 84.1467 390.188 79.2C390.188 74.2533 388.601 70.1467 385.428 66.88C382.254 63.6133 378.241 61.98 373.388 61.98C368.441 61.98 364.381 63.6133 361.208 66.88C358.034 70.1467 356.448 74.2533 356.448 79.2C356.448 84.1467 358.034 88.2533 361.208 91.52ZM493.281 41.4H510.921V144.3H485.161V114.48C479.561 117.84 473.401 119.52 466.681 119.52C455.108 119.52 445.588 115.74 438.121 108.18C430.748 100.62 427.061 90.96 427.061 79.2C427.061 67.44 430.748 57.78 438.121 50.22C445.588 42.66 455.108 38.88 466.681 38.88C475.641 38.88 483.388 41.7267 489.921 47.42L493.281 41.4ZM470.181 96.56C475.035 96.56 479.048 94.9267 482.221 91.66C485.488 88.3 487.121 84.1467 487.121 79.2C487.121 76.7733 486.701 74.4867 485.861 72.34C485.021 70.1933 483.855 68.3733 482.361 66.88C480.868 65.2933 479.048 64.08 476.901 63.24C474.848 62.3067 472.608 61.84 470.181 61.84C467.008 61.84 464.115 62.6333 461.501 64.22C458.888 65.7133 456.835 67.7667 455.341 70.38C453.941 72.9933 453.241 75.9333 453.241 79.2C453.241 84.1467 454.828 88.3 458.001 91.66C461.268 94.9267 465.328 96.56 470.181 96.56ZM527.384 31.88V9.89999H553.004V31.88H527.384ZM527.244 117V41.4H553.284V117H527.244ZM658.527 39.16C666.647 39.16 673.181 42.0067 678.127 47.7C683.074 53.3 685.547 60.58 685.547 69.54V117H659.507V72.76C659.507 65.0133 656.707 61.14 651.107 61.14C643.827 61.14 640.187 65.9467 640.187 75.56V117H614.847V72.76C614.847 65.0133 612.094 61.14 606.587 61.14C603.041 61.14 600.334 62.4 598.467 64.92C596.601 67.3467 595.667 70.8933 595.667 75.56V117H569.627V41.4H587.827L591.607 49.52C597.487 42.6133 604.861 39.16 613.727 39.16C618.301 39.16 622.454 40.14 626.187 42.1C629.921 44.06 632.954 46.8133 635.287 50.36C637.154 48.0267 639.254 46.02 641.587 44.34C644.014 42.66 646.674 41.4 649.567 40.56C652.461 39.6267 655.447 39.16 658.527 39.16ZM701.291 31.88V9.89999H726.911V31.88H701.291ZM701.151 117V41.4H727.191V117H701.151ZM774.613 93.9H803.453V117H738.073V113.08L767.053 64.36H740.733V41.4H803.173V45.6L774.613 93.9ZM868.667 14.1H894.427V117H875.107L872.727 111.4C866.194 116.813 858.587 119.52 849.907 119.52C838.334 119.52 828.814 115.74 821.347 108.18C813.881 100.62 810.147 90.96 810.147 79.2C810.147 67.44 813.881 57.78 821.347 50.22C828.814 42.66 838.334 38.88 849.907 38.88C856.814 38.88 863.067 40.6533 868.667 44.2V14.1ZM841.227 91.66C844.494 94.9267 848.554 96.56 853.407 96.56C858.261 96.56 862.274 94.9267 865.447 91.66C868.714 88.3 870.347 84.1467 870.347 79.2C870.347 76.7733 869.881 74.4867 868.947 72.34C868.107 70.1933 866.941 68.3733 865.447 66.88C863.954 65.2933 862.134 64.08 859.987 63.24C857.934 62.3067 855.741 61.84 853.407 61.84C848.554 61.84 844.494 63.52 841.227 66.88C838.054 70.1467 836.467 74.2533 836.467 79.2C836.467 84.1467 838.054 88.3 841.227 91.66ZM971.78 41.26H991.1V116.86H971.08L968.84 111.54C962.307 116.86 954.7 119.52 946.02 119.52C938.367 119.52 931.507 117.793 925.44 114.34C919.467 110.887 914.754 106.08 911.3 99.92C907.94 93.76 906.26 86.8067 906.26 79.06C906.26 67.3933 909.994 57.8267 917.46 50.36C924.927 42.8 934.447 39.02 946.02 39.02C954.794 39.02 962.494 41.7267 969.12 47.14L971.78 41.26ZM937.34 91.52C940.514 94.7867 944.527 96.42 949.38 96.42C954.327 96.42 958.387 94.7867 961.56 91.52C964.734 88.2533 966.32 84.1467 966.32 79.2C966.32 74.2533 964.734 70.1467 961.56 66.88C958.387 63.6133 954.374 61.98 949.52 61.98C944.574 61.98 940.514 63.6133 937.34 66.88C934.167 70.1467 932.58 74.2533 932.58 79.2C932.58 84.1467 934.167 88.2533 937.34 91.52Z" fill="black"/>
</g>
<defs>
<clipPath id="clip0_2370_7665">
<rect width="1460" height="150" fill="white"/>
</clipPath>
</defs>
</svg>
