<svg width="825" height="150" viewBox="0 0 825 150" fill="none" xmlns="http://www.w3.org/2000/svg">
<path d="M110.4 117H73.76L41.76 67.56V117H10.88V4.99999H41.76V52.2L71.36 4.99999H107.04L71.2 59.24L110.4 117ZM153.894 119.88C139.814 119.88 128.187 115.56 119.014 106.92C109.947 98.1733 105.414 87.1333 105.414 73.8C105.414 60.36 109.947 49.32 119.014 40.68C128.187 32.04 139.814 27.72 153.894 27.72C167.974 27.72 179.547 32.0933 188.614 40.84C197.787 49.48 202.374 60.4667 202.374 73.8C202.374 87.1333 197.787 98.1733 188.614 106.92C179.44 115.56 167.867 119.88 153.894 119.88ZM140.454 87.72C143.974 91.3467 148.454 93.16 153.894 93.16C159.334 93.16 163.76 91.3467 167.174 87.72C170.694 84.0933 172.454 79.4533 172.454 73.8C172.454 68.1467 170.694 63.5067 167.174 59.88C163.76 56.2533 159.334 54.44 153.894 54.44C150.267 54.44 147.014 55.2933 144.134 57C141.36 58.6 139.174 60.8933 137.574 63.88C135.974 66.76 135.174 70.0667 135.174 73.8C135.174 79.4533 136.934 84.0933 140.454 87.72ZM269.439 30.6H299.039V117H269.439V86.6H245.759V117H216.159V30.6H245.759V60.36H269.439V30.6ZM394.518 30.6V56.36H367.318V117H338.198V56.36H310.838V30.6H394.518ZM474.513 30.44H496.593V116.84H473.713L471.153 110.76C463.686 116.84 454.993 119.88 445.073 119.88C436.326 119.88 428.486 117.907 421.553 113.96C414.726 110.013 409.339 104.52 405.393 97.48C401.553 90.44 399.633 82.4933 399.633 73.64C399.633 60.3067 403.899 49.3733 412.433 40.84C420.966 32.2 431.846 27.88 445.073 27.88C455.099 27.88 463.899 30.9733 471.473 37.16L474.513 30.44ZM435.153 87.88C438.779 91.6133 443.366 93.48 448.913 93.48C454.566 93.48 459.206 91.6133 462.833 87.88C466.459 84.1467 468.273 79.4533 468.273 73.8C468.273 68.1467 466.459 63.4533 462.833 59.72C459.206 55.9867 454.619 54.12 449.073 54.12C443.419 54.12 438.779 55.9867 435.153 59.72C431.526 63.4533 429.713 68.1467 429.713 73.8C429.713 79.4533 431.526 84.1467 435.153 87.88ZM601.934 117H566.894L545.294 80.36V117H515.534V30.6H545.294V64.52L565.934 30.6H599.214L572.174 71.88L601.934 117ZM686.393 30.6V56.36H659.193V117H630.073V56.36H602.713V30.6H686.393ZM739.15 52.68C749.603 52.68 757.923 55.6667 764.11 61.64C770.403 67.5067 773.55 75.24 773.55 84.84C773.55 94.44 770.403 102.227 764.11 108.2C757.923 114.067 749.603 117 739.15 117H698.19V30.6H725.71V52.68H739.15ZM785.23 30.6H814.83V117H785.23V30.6ZM735.79 94.44C738.883 94.44 741.337 93.5867 743.15 91.88C744.963 90.1733 745.87 87.8267 745.87 84.84C745.87 81.8533 744.963 79.56 743.15 77.96C741.337 76.2533 738.883 75.4 735.79 75.4H725.71V94.44H735.79Z" fill="black"/>
</svg>
