<svg width="1460" height="150" viewBox="0 0 1460 150" fill="none" xmlns="http://www.w3.org/2000/svg">
<g clip-path="url(#clip0_2370_7667)">
<path d="M96.6 117H64.54L36.54 73.74V117H9.52V19H36.54V60.3L62.44 19H93.66L62.3 66.46L96.6 117ZM174.557 78.5C174.557 80.6467 174.37 82.9333 173.997 85.36H117.857C118.697 89.6533 120.424 92.92 123.037 95.16C125.744 97.4 129.15 98.52 133.257 98.52C135.31 98.52 137.224 98.24 138.997 97.68C140.77 97.12 142.31 96.3267 143.617 95.3C145.017 94.18 146.137 92.8733 146.977 91.38H172.877C170.264 100.06 165.364 106.92 158.177 111.96C151.084 117 142.777 119.52 133.257 119.52C121.497 119.52 111.697 115.693 103.857 108.04C96.1104 100.293 92.237 90.68 92.237 79.2C92.237 71.5467 94.0104 64.64 97.557 58.48C101.104 52.32 106.004 47.5133 112.257 44.06C118.51 40.6067 125.51 38.88 133.257 38.88C141.284 38.88 148.424 40.6533 154.677 44.2C161.024 47.6533 165.924 52.4133 169.377 58.48C172.83 64.4533 174.557 71.1267 174.557 78.5ZM133.257 59.32C129.524 59.32 126.35 60.3467 123.737 62.4C121.217 64.36 119.397 67.2067 118.277 70.94H148.937C146.604 63.1933 141.377 59.32 133.257 59.32ZM233.81 41.4H261.81L230.17 113.64C224.943 125.4 219.53 133.567 213.93 138.14C208.33 142.807 200.723 145.14 191.11 145.14H182.15V122.74H189.29C194.237 122.74 197.783 121.947 199.93 120.36C202.077 118.773 204.037 115.553 205.81 110.7L174.59 41.4H202.87L218.83 82.98L233.81 41.4ZM295.778 119.52C285.512 119.52 277.392 117.047 271.418 112.1C265.538 107.153 262.552 100.527 262.458 92.22H287.518C287.518 94.8333 288.312 96.84 289.898 98.24C291.485 99.64 293.585 100.34 296.198 100.34C297.505 100.34 298.718 100.153 299.838 99.78C300.958 99.3133 301.845 98.6133 302.498 97.68C303.245 96.7467 303.618 95.6733 303.618 94.46C303.618 93.06 302.965 91.8933 301.658 90.96C300.445 90.0267 299.045 89.3733 297.458 89C295.872 88.5333 293.585 88.0667 290.598 87.6C287.705 87.1333 285.232 86.6667 283.178 86.2C281.218 85.7333 278.885 84.94 276.178 83.82C273.472 82.6067 271.278 81.2067 269.598 79.62C267.918 78.0333 266.472 75.8867 265.258 73.18C264.045 70.4733 263.438 67.3467 263.438 63.8C263.438 56.24 266.378 50.22 272.258 45.74C278.138 41.1667 285.932 38.88 295.638 38.88C305.252 38.88 312.952 41.2133 318.738 45.88C324.618 50.5467 327.605 56.7533 327.698 64.5H303.338C303.338 62.9133 302.965 61.6067 302.218 60.58C301.565 59.46 300.632 58.6667 299.418 58.2C298.298 57.64 296.945 57.36 295.358 57.36C293.212 57.36 291.485 57.8733 290.178 58.9C288.965 59.9267 288.358 61.28 288.358 62.96C288.358 63.7067 288.498 64.36 288.778 64.92C289.058 65.48 289.525 65.9933 290.178 66.46C290.925 66.8333 291.578 67.16 292.138 67.44C292.698 67.72 293.585 68 294.798 68.28C296.105 68.56 297.132 68.7933 297.878 68.98C298.625 69.0733 299.792 69.26 301.378 69.54C303.338 69.9133 304.692 70.1933 305.438 70.38C306.278 70.4733 307.678 70.7533 309.638 71.22C311.598 71.6867 313.045 72.1067 313.978 72.48C314.912 72.76 316.172 73.2733 317.758 74.02C319.438 74.7667 320.698 75.5133 321.538 76.26C322.378 77.0067 323.358 77.9867 324.478 79.2C325.692 80.32 326.578 81.5333 327.138 82.84C327.698 84.1467 328.165 85.7333 328.538 87.6C329.005 89.3733 329.238 91.2867 329.238 93.34C329.238 101.273 326.158 107.62 319.998 112.38C313.932 117.14 305.858 119.52 295.778 119.52ZM341.444 117V14.1H367.484V117H341.444ZM444.866 41.26H464.186V116.86H444.166L441.926 111.54C435.393 116.86 427.786 119.52 419.106 119.52C411.453 119.52 404.593 117.793 398.526 114.34C392.553 110.887 387.84 106.08 384.386 99.92C381.026 93.76 379.346 86.8067 379.346 79.06C379.346 67.3933 383.08 57.8267 390.546 50.36C398.013 42.8 407.533 39.02 419.106 39.02C427.88 39.02 435.58 41.7267 442.206 47.14L444.866 41.26ZM410.426 91.52C413.6 94.7867 417.613 96.42 422.466 96.42C427.413 96.42 431.473 94.7867 434.646 91.52C437.82 88.2533 439.406 84.1467 439.406 79.2C439.406 74.2533 437.82 70.1467 434.646 66.88C431.473 63.6133 427.46 61.98 422.606 61.98C417.66 61.98 413.6 63.6133 410.426 66.88C407.253 70.1467 405.666 74.2533 405.666 79.2C405.666 84.1467 407.253 88.2533 410.426 91.52ZM523.04 40.98H529.9V64.92H519.82C515.247 64.92 511.933 65.9933 509.88 68.14C507.827 70.2867 506.8 73.74 506.8 78.5V117H480.76V41.4H498.12L502.18 49.8C507.22 43.92 514.173 40.98 523.04 40.98Z" fill="black"/>
</g>
<defs>
<clipPath id="clip0_2370_7667">
<rect width="1460" height="150" fill="white"/>
</clipPath>
</defs>
</svg>
