<svg width="1460" height="150" viewBox="0 0 1460 150" fill="none" xmlns="http://www.w3.org/2000/svg">
<path d="M44.24 119.38C32.1067 119.38 22.4933 116.393 15.4 110.42C8.30667 104.353 4.76 96 4.76 85.36H32.62C32.62 88.72 33.6933 91.2867 35.84 93.06C38.08 94.8333 40.8333 95.72 44.1 95.72C47.0867 95.72 49.6533 94.9733 51.8 93.48C54.04 91.9867 55.16 89.98 55.16 87.46C55.16 86.62 55.0667 85.92 54.88 85.36C54.6933 84.7067 54.32 84.1 53.76 83.54C53.2933 82.98 52.8267 82.5133 52.36 82.14C51.8933 81.6733 51.1467 81.2533 50.12 80.88C49.1867 80.4133 48.3933 80.0867 47.74 79.9C47.0867 79.62 46.06 79.2933 44.66 78.92C43.3533 78.5467 42.3267 78.2667 41.58 78.08C40.9267 77.8933 39.8067 77.6133 38.22 77.24C35.42 76.4933 33.32 75.9333 31.92 75.56C30.52 75.1867 28.4667 74.5333 25.76 73.6C23.0533 72.6667 20.9533 71.78 19.46 70.94C17.9667 70.0067 16.24 68.7467 14.28 67.16C12.32 65.5733 10.8267 63.8933 9.8 62.12C8.77333 60.3467 7.88667 58.1533 7.14 55.54C6.39333 52.9267 6.02 50.08 6.02 47C6.02 37.48 9.28667 30.06 15.82 24.74C22.4467 19.3267 31.5933 16.62 43.26 16.62C54.9267 16.62 63.98 19.4667 70.42 25.16C76.9533 30.8533 80.22 38.6933 80.22 48.68H53.2C53.2 45.6933 52.22 43.4533 50.26 41.96C48.3 40.3733 45.8733 39.58 42.98 39.58C40.3667 39.58 38.1267 40.14 36.26 41.26C34.3933 42.38 33.46 44.06 33.46 46.3C33.46 47.14 33.6467 47.9333 34.02 48.68C34.3933 49.4267 35 50.1267 35.84 50.78C36.68 51.34 37.4733 51.8533 38.22 52.32C39.06 52.6933 40.2267 53.16 41.72 53.72C43.3067 54.1867 44.5667 54.56 45.5 54.84C46.5267 55.12 48.0667 55.4933 50.12 55.96C52.92 56.7067 55.0667 57.3133 56.56 57.78C58.0533 58.1533 60.1533 58.8533 62.86 59.88C65.66 60.8133 67.8067 61.7467 69.3 62.68C70.8867 63.6133 72.7067 64.8733 74.76 66.46C76.8133 68.0467 78.3533 69.7733 79.38 71.64C80.5 73.5067 81.4333 75.7467 82.18 78.36C83.02 80.9733 83.44 83.82 83.44 86.9C83.44 97.26 79.8467 105.287 72.66 110.98C65.4733 116.58 56 119.38 44.24 119.38ZM174.147 78.5C174.147 80.6467 173.96 82.9333 173.587 85.36H117.447C118.287 89.6533 120.014 92.92 122.627 95.16C125.334 97.4 128.74 98.52 132.847 98.52C134.9 98.52 136.814 98.24 138.587 97.68C140.36 97.12 141.9 96.3267 143.207 95.3C144.607 94.18 145.727 92.8733 146.567 91.38H172.467C169.854 100.06 164.954 106.92 157.767 111.96C150.674 117 142.367 119.52 132.847 119.52C121.087 119.52 111.287 115.693 103.447 108.04C95.7002 100.293 91.8269 90.68 91.8269 79.2C91.8269 71.5467 93.6002 64.64 97.1469 58.48C100.694 52.32 105.594 47.5133 111.847 44.06C118.1 40.6067 125.1 38.88 132.847 38.88C140.874 38.88 148.014 40.6533 154.267 44.2C160.614 47.6533 165.514 52.4133 168.967 58.48C172.42 64.4533 174.147 71.1267 174.147 78.5ZM132.847 59.32C129.114 59.32 125.94 60.3467 123.327 62.4C120.807 64.36 118.987 67.2067 117.867 70.94H148.527C146.194 63.1933 140.967 59.32 132.847 59.32ZM228.274 40.98H235.134V64.92H225.054C220.481 64.92 217.168 65.9933 215.114 68.14C213.061 70.2867 212.034 73.74 212.034 78.5V117H185.994V41.4H203.354L207.414 49.8C212.454 43.92 219.408 40.98 228.274 40.98ZM294.324 41.4H322.184L291.804 117H268.144L237.344 41.4H265.904L280.184 86.2L294.324 41.4ZM330.783 31.88V9.89999H356.403V31.88H330.783ZM330.643 117V41.4H356.683V117H330.643ZM410.406 119.52C402.379 119.52 395.192 117.793 388.846 114.34C382.499 110.887 377.506 106.08 373.866 99.92C370.319 93.76 368.546 86.8533 368.546 79.2C368.546 71.4533 370.319 64.5467 373.866 58.48C377.506 52.32 382.499 47.56 388.846 44.2C395.192 40.7467 402.379 39.02 410.406 39.02C417.406 39.02 423.752 40.42 429.446 43.22C435.232 46.02 439.946 49.94 443.586 54.98C447.226 60.02 449.512 65.8533 450.446 72.48H425.106C423.986 69.4 422.072 66.9733 419.366 65.2C416.752 63.3333 413.766 62.4 410.406 62.4C405.832 62.4 402.052 63.9867 399.066 67.16C396.172 70.24 394.726 74.2533 394.726 79.2C394.726 84.1467 396.172 88.2067 399.066 91.38C402.052 94.5533 405.832 96.14 410.406 96.14C413.859 96.14 416.892 95.16 419.506 93.2C422.212 91.1467 424.079 88.44 425.106 85.08H450.726C449.232 95.3467 444.799 103.653 437.426 110C430.052 116.347 421.046 119.52 410.406 119.52ZM539.87 78.5C539.87 80.6467 539.683 82.9333 539.31 85.36H483.17C484.01 89.6533 485.736 92.92 488.35 95.16C491.056 97.4 494.463 98.52 498.57 98.52C500.623 98.52 502.536 98.24 504.31 97.68C506.083 97.12 507.623 96.3267 508.93 95.3C510.33 94.18 511.45 92.8733 512.29 91.38H538.19C535.576 100.06 530.676 106.92 523.49 111.96C516.396 117 508.09 119.52 498.57 119.52C486.81 119.52 477.01 115.693 469.17 108.04C461.423 100.293 457.55 90.68 457.55 79.2C457.55 71.5467 459.323 64.64 462.87 58.48C466.416 52.32 471.316 47.5133 477.57 44.06C483.823 40.6067 490.823 38.88 498.57 38.88C506.596 38.88 513.736 40.6533 519.99 44.2C526.336 47.6533 531.236 52.4133 534.69 58.48C538.143 64.4533 539.87 71.1267 539.87 78.5ZM498.57 59.32C494.836 59.32 491.663 60.3467 489.05 62.4C486.53 64.36 484.71 67.2067 483.59 70.94H514.25C511.916 63.1933 506.69 59.32 498.57 59.32ZM580.837 119.52C570.57 119.52 562.45 117.047 556.477 112.1C550.597 107.153 547.61 100.527 547.517 92.22H572.577C572.577 94.8333 573.37 96.84 574.957 98.24C576.544 99.64 578.644 100.34 581.257 100.34C582.564 100.34 583.777 100.153 584.897 99.78C586.017 99.3133 586.904 98.6133 587.557 97.68C588.304 96.7467 588.677 95.6733 588.677 94.46C588.677 93.06 588.024 91.8933 586.717 90.96C585.504 90.0267 584.104 89.3733 582.517 89C580.93 88.5333 578.644 88.0667 575.657 87.6C572.764 87.1333 570.29 86.6667 568.237 86.2C566.277 85.7333 563.944 84.94 561.237 83.82C558.53 82.6067 556.337 81.2067 554.657 79.62C552.977 78.0333 551.53 75.8867 550.317 73.18C549.104 70.4733 548.497 67.3467 548.497 63.8C548.497 56.24 551.437 50.22 557.317 45.74C563.197 41.1667 570.99 38.88 580.697 38.88C590.31 38.88 598.01 41.2133 603.797 45.88C609.677 50.5467 612.664 56.7533 612.757 64.5H588.397C588.397 62.9133 588.024 61.6067 587.277 60.58C586.624 59.46 585.69 58.6667 584.477 58.2C583.357 57.64 582.004 57.36 580.417 57.36C578.27 57.36 576.544 57.8733 575.237 58.9C574.024 59.9267 573.417 61.28 573.417 62.96C573.417 63.7067 573.557 64.36 573.837 64.92C574.117 65.48 574.584 65.9933 575.237 66.46C575.984 66.8333 576.637 67.16 577.197 67.44C577.757 67.72 578.644 68 579.857 68.28C581.164 68.56 582.19 68.7933 582.937 68.98C583.684 69.0733 584.85 69.26 586.437 69.54C588.397 69.9133 589.75 70.1933 590.497 70.38C591.337 70.4733 592.737 70.7533 594.697 71.22C596.657 71.6867 598.104 72.1067 599.037 72.48C599.97 72.76 601.23 73.2733 602.817 74.02C604.497 74.7667 605.757 75.5133 606.597 76.26C607.437 77.0067 608.417 77.9867 609.537 79.2C610.75 80.32 611.637 81.5333 612.197 82.84C612.757 84.1467 613.224 85.7333 613.597 87.6C614.064 89.3733 614.297 91.2867 614.297 93.34C614.297 101.273 611.217 107.62 605.057 112.38C598.99 117.14 590.917 119.52 580.837 119.52Z" fill="black"/>
</svg>
