<svg width="1460" height="150" viewBox="0 0 1460 150" fill="none" xmlns="http://www.w3.org/2000/svg">
<g clip-path="url(#clip0_2370_7671)">
<path d="M93.38 117H62.72L46.62 86.9L30.38 117H-0.28L29.12 66.04L1.4 19H31.78L46.48 46.72L61.32 19H91.42L63.84 66.46L93.38 117ZM101.369 31.88V9.89999H126.989V31.88H101.369ZM101.229 117V41.4H127.269V117H101.229ZM174.692 93.9H203.532V117H138.152V113.08L167.132 64.36H140.812V41.4H203.252V45.6L174.692 93.9ZM304.699 39.16C312.819 39.16 319.352 42.0067 324.299 47.7C329.246 53.3 331.719 60.58 331.719 69.54V117H305.679V72.76C305.679 65.0133 302.879 61.14 297.279 61.14C289.999 61.14 286.359 65.9467 286.359 75.56V117H261.019V72.76C261.019 65.0133 258.266 61.14 252.759 61.14C249.212 61.14 246.506 62.4 244.639 64.92C242.772 67.3467 241.839 70.8933 241.839 75.56V117H215.799V41.4H233.999L237.779 49.52C243.659 42.6133 251.032 39.16 259.899 39.16C264.472 39.16 268.626 40.14 272.359 42.1C276.092 44.06 279.126 46.8133 281.459 50.36C283.326 48.0267 285.426 46.02 287.759 44.34C290.186 42.66 292.846 41.4 295.739 40.56C298.632 39.6267 301.619 39.16 304.699 39.16ZM408.363 41.26H427.683V116.86H407.663L405.423 111.54C398.889 116.86 391.283 119.52 382.603 119.52C374.949 119.52 368.089 117.793 362.023 114.34C356.049 110.887 351.336 106.08 347.883 99.92C344.523 93.76 342.843 86.8067 342.843 79.06C342.843 67.3933 346.576 57.8267 354.043 50.36C361.509 42.8 371.029 39.02 382.603 39.02C391.376 39.02 399.076 41.7267 405.703 47.14L408.363 41.26ZM373.923 91.52C377.096 94.7867 381.109 96.42 385.963 96.42C390.909 96.42 394.969 94.7867 398.143 91.52C401.316 88.2533 402.903 84.1467 402.903 79.2C402.903 74.2533 401.316 70.1467 398.143 66.88C394.969 63.6133 390.956 61.98 386.103 61.98C381.156 61.98 377.096 63.6133 373.923 66.88C370.749 70.1467 369.163 74.2533 369.163 79.2C369.163 84.1467 370.749 88.2533 373.923 91.52ZM485.136 94.18H495.216V117H477.296C468.896 117 462.316 114.62 457.556 109.86C452.796 105.007 450.416 98.38 450.416 89.98V61.42H436.556V55.4L470.436 19.28H475.756V41.4H494.796V61.42H476.456V85.5C476.456 88.2067 477.203 90.3533 478.696 91.94C480.283 93.4333 482.429 94.18 485.136 94.18ZM507.42 117V14.1H533.46V117H507.42ZM610.843 41.26H630.163V116.86H610.143L607.903 111.54C601.37 116.86 593.763 119.52 585.083 119.52C577.43 119.52 570.57 117.793 564.503 114.34C558.53 110.887 553.816 106.08 550.363 99.92C547.003 93.76 545.323 86.8067 545.323 79.06C545.323 67.3933 549.056 57.8267 556.523 50.36C563.99 42.8 573.51 39.02 585.083 39.02C593.856 39.02 601.556 41.7267 608.183 47.14L610.843 41.26ZM576.403 91.52C579.576 94.7867 583.59 96.42 588.443 96.42C593.39 96.42 597.45 94.7867 600.623 91.52C603.796 88.2533 605.383 84.1467 605.383 79.2C605.383 74.2533 603.796 70.1467 600.623 66.88C597.45 63.6133 593.436 61.98 588.583 61.98C583.636 61.98 579.576 63.6133 576.403 66.88C573.23 70.1467 571.643 74.2533 571.643 79.2C571.643 84.1467 573.23 88.2533 576.403 91.52ZM689.017 40.98H695.877V64.92H685.797C681.223 64.92 677.91 65.9933 675.857 68.14C673.803 70.2867 672.777 73.74 672.777 78.5V117H646.737V41.4H664.097L668.157 49.8C673.197 43.92 680.15 40.98 689.017 40.98Z" fill="black"/>
</g>
<defs>
<clipPath id="clip0_2370_7671">
<rect width="1460" height="150" fill="white"/>
</clipPath>
</defs>
</svg>
