<svg width="1460" height="150" viewBox="0 0 1460 150" fill="none" xmlns="http://www.w3.org/2000/svg">
<path d="M63.84 19H92.96L65.8 84.8C60.8533 96.7467 55.1133 105.193 48.58 110.14C42.14 115.087 33.5067 117.56 22.68 117.56H14V92.92H21C23.4267 92.92 25.5267 92.7333 27.3 92.36C29.0733 91.9867 30.6133 91.38 31.92 90.54C33.32 89.6067 34.5333 88.3933 35.56 86.9L0 19H30.94L49.56 59.46L63.84 19ZM128.218 119.52C120.191 119.52 113.005 117.793 106.658 114.34C100.311 110.887 95.3181 106.08 91.6781 99.92C88.1315 93.76 86.3581 86.8533 86.3581 79.2C86.3581 71.4533 88.1315 64.5467 91.6781 58.48C95.3181 52.32 100.311 47.56 106.658 44.2C113.005 40.7467 120.191 39.02 128.218 39.02C135.218 39.02 141.565 40.42 147.258 43.22C153.045 46.02 157.758 49.94 161.398 54.98C165.038 60.02 167.325 65.8533 168.258 72.48H142.918C141.798 69.4 139.885 66.9733 137.178 65.2C134.565 63.3333 131.578 62.4 128.218 62.4C123.645 62.4 119.865 63.9867 116.878 67.16C113.985 70.24 112.538 74.2533 112.538 79.2C112.538 84.1467 113.985 88.2067 116.878 91.38C119.865 94.5533 123.645 96.14 128.218 96.14C131.671 96.14 134.705 95.16 137.318 93.2C140.025 91.1467 141.891 88.44 142.918 85.08H168.538C167.045 95.3467 162.611 103.653 155.238 110C147.865 116.347 138.858 119.52 128.218 119.52ZM193.292 41.4H252.232V117H226.612V63.24H214.852L212.752 84.66C211.539 96.0467 208.272 104.353 202.952 109.58C197.725 114.713 190.212 117.28 180.412 117.28H173.552V95.86H176.912C180.459 95.86 183.119 94.9267 184.892 93.06C186.759 91.1933 187.925 88.16 188.392 83.96L193.292 41.4ZM319.669 41.4H347.669L316.029 113.64C310.803 125.4 305.389 133.567 299.789 138.14C294.189 142.807 286.583 145.14 276.969 145.14H268.009V122.74H275.149C280.096 122.74 283.643 121.947 285.789 120.36C287.936 118.773 289.896 115.553 291.669 110.7L260.449 41.4H288.729L304.689 82.98L319.669 41.4ZM408.446 41.4V63.8H381.006V117H355.526V41.4H408.446ZM474.546 41.4H489.526V117H464.466V83.12L434.086 117H418.826V41.4H443.886V75L474.546 41.4Z" fill="black"/>
</svg>
