<svg width="825" height="150" viewBox="0 0 825 150" fill="none" xmlns="http://www.w3.org/2000/svg">
<path d="M72.96 4.99999H106.24L75.2 80.2C69.5467 93.8533 62.9867 103.507 55.52 109.16C48.16 114.813 38.2933 117.64 25.92 117.64H16V89.48H24C26.7733 89.48 29.1733 89.2667 31.2 88.84C33.2267 88.4133 34.9867 87.72 36.48 86.76C38.08 85.6933 39.4667 84.3067 40.64 82.6L0 4.99999H35.36L56.64 51.24L72.96 4.99999ZM146.535 119.88C137.362 119.88 129.148 117.907 121.895 113.96C114.642 110.013 108.935 104.52 104.775 97.48C100.722 90.44 98.695 82.5467 98.695 73.8C98.695 64.9467 100.722 57.0533 104.775 50.12C108.935 43.08 114.642 37.64 121.895 33.8C129.148 29.8533 137.362 27.88 146.535 27.88C154.535 27.88 161.788 29.48 168.295 32.68C174.908 35.88 180.295 40.36 184.455 46.12C188.615 51.88 191.228 58.5467 192.295 66.12H163.335C162.055 62.6 159.868 59.8267 156.775 57.8C153.788 55.6667 150.375 54.6 146.535 54.6C141.308 54.6 136.988 56.4133 133.575 60.04C130.268 63.56 128.615 68.1467 128.615 73.8C128.615 79.4533 130.268 84.0933 133.575 87.72C136.988 91.3467 141.308 93.16 146.535 93.16C150.482 93.16 153.948 92.04 156.935 89.8C160.028 87.4533 162.162 84.36 163.335 80.52H192.615C190.908 92.2533 185.842 101.747 177.415 109C168.988 116.253 158.695 119.88 146.535 119.88ZM220.905 30.6H288.265V117H258.985V55.56H245.545L243.145 80.04C241.758 93.0533 238.025 102.547 231.945 108.52C225.972 114.387 217.385 117.32 206.185 117.32H198.345V92.84H202.185C206.238 92.84 209.278 91.7733 211.305 89.64C213.438 87.5067 214.772 84.04 215.305 79.24L220.905 30.6ZM365.336 30.6H397.336L361.176 113.16C355.203 126.6 349.016 135.933 342.616 141.16C336.216 146.493 327.523 149.16 316.536 149.16H306.296V123.56H314.456C320.11 123.56 324.163 122.653 326.616 120.84C329.07 119.027 331.31 115.347 333.336 109.8L297.656 30.6H329.976L348.216 78.12L365.336 30.6ZM466.795 30.6V56.2H435.435V117H406.315V30.6H466.795ZM542.339 30.6H559.459V117H530.819V78.28L496.099 117H478.659V30.6H507.299V69L542.339 30.6Z" fill="black"/>
</svg>
