<svg width="1460" height="150" viewBox="0 0 1460 150" fill="none" xmlns="http://www.w3.org/2000/svg">
<g clip-path="url(#clip0_2370_7669)">
<path d="M74.48 117L69.02 101.04H34.3L28.84 117H0L38.5 19H64.82L104.16 117H74.48ZM62.44 79.9L51.66 49.52L40.88 79.9H62.44ZM112.44 117V14.1H138.48V117H112.44ZM192.763 119.52C180.443 119.52 170.269 115.74 162.243 108.18C154.309 100.527 150.343 90.8667 150.343 79.2C150.343 67.44 154.309 57.78 162.243 50.22C170.269 42.66 180.443 38.88 192.763 38.88C205.083 38.88 215.209 42.7067 223.143 50.36C231.169 57.92 235.183 67.5333 235.183 79.2C235.183 90.8667 231.169 100.527 223.143 108.18C215.116 115.74 204.989 119.52 192.763 119.52ZM181.003 91.38C184.083 94.5533 188.003 96.14 192.763 96.14C197.523 96.14 201.396 94.5533 204.383 91.38C207.463 88.2067 209.003 84.1467 209.003 79.2C209.003 74.2533 207.463 70.1933 204.383 67.02C201.396 63.8467 197.523 62.26 192.763 62.26C189.589 62.26 186.743 63.0067 184.223 64.5C181.796 65.9 179.883 67.9067 178.483 70.52C177.083 73.04 176.383 75.9333 176.383 79.2C176.383 84.1467 177.923 88.2067 181.003 91.38ZM308.984 41.4H326.624V144.3H300.864V114.48C295.264 117.84 289.104 119.52 282.384 119.52C270.811 119.52 261.291 115.74 253.824 108.18C246.451 100.62 242.764 90.96 242.764 79.2C242.764 67.44 246.451 57.78 253.824 50.22C261.291 42.66 270.811 38.88 282.384 38.88C291.344 38.88 299.091 41.7267 305.624 47.42L308.984 41.4ZM285.884 96.56C290.738 96.56 294.751 94.9267 297.924 91.66C301.191 88.3 302.824 84.1467 302.824 79.2C302.824 76.7733 302.404 74.4867 301.564 72.34C300.724 70.1933 299.558 68.3733 298.064 66.88C296.571 65.2933 294.751 64.08 292.604 63.24C290.551 62.3067 288.311 61.84 285.884 61.84C282.711 61.84 279.818 62.6333 277.204 64.22C274.591 65.7133 272.538 67.7667 271.044 70.38C269.644 72.9933 268.944 75.9333 268.944 79.2C268.944 84.1467 270.531 88.3 273.704 91.66C276.971 94.9267 281.031 96.56 285.884 96.56ZM403.988 41.26H423.308V116.86H403.288L401.048 111.54C394.514 116.86 386.908 119.52 378.228 119.52C370.574 119.52 363.714 117.793 357.648 114.34C351.674 110.887 346.961 106.08 343.508 99.92C340.148 93.76 338.468 86.8067 338.468 79.06C338.468 67.3933 342.201 57.8267 349.668 50.36C357.134 42.8 366.654 39.02 378.228 39.02C387.001 39.02 394.701 41.7267 401.328 47.14L403.988 41.26ZM369.548 91.52C372.721 94.7867 376.734 96.42 381.588 96.42C386.534 96.42 390.594 94.7867 393.768 91.52C396.941 88.2533 398.528 84.1467 398.528 79.2C398.528 74.2533 396.941 70.1467 393.768 66.88C390.594 63.6133 386.581 61.98 381.728 61.98C376.781 61.98 372.721 63.6133 369.548 66.88C366.374 70.1467 364.788 74.2533 364.788 79.2C364.788 84.1467 366.374 88.2533 369.548 91.52ZM559.133 39.16C567.253 39.16 573.786 42.0067 578.733 47.7C583.679 53.3 586.153 60.58 586.153 69.54V117H560.113V72.76C560.113 65.0133 557.313 61.14 551.713 61.14C544.433 61.14 540.793 65.9467 540.793 75.56V117H515.453V72.76C515.453 65.0133 512.699 61.14 507.193 61.14C503.646 61.14 500.939 62.4 499.073 64.92C497.206 67.3467 496.273 70.8933 496.273 75.56V117H470.233V41.4H488.433L492.213 49.52C498.093 42.6133 505.466 39.16 514.333 39.16C518.906 39.16 523.059 40.14 526.793 42.1C530.526 44.06 533.559 46.8133 535.893 50.36C537.759 48.0267 539.859 46.02 542.193 44.34C544.619 42.66 547.279 41.4 550.173 40.56C553.066 39.6267 556.053 39.16 559.133 39.16ZM662.796 41.26H682.116V116.86H662.096L659.856 111.54C653.323 116.86 645.716 119.52 637.036 119.52C629.383 119.52 622.523 117.793 616.456 114.34C610.483 110.887 605.769 106.08 602.316 99.92C598.956 93.76 597.276 86.8067 597.276 79.06C597.276 67.3933 601.009 57.8267 608.476 50.36C615.943 42.8 625.463 39.02 637.036 39.02C645.809 39.02 653.509 41.7267 660.136 47.14L662.796 41.26ZM628.356 91.52C631.529 94.7867 635.543 96.42 640.396 96.42C645.343 96.42 649.403 94.7867 652.576 91.52C655.749 88.2533 657.336 84.1467 657.336 79.2C657.336 74.2533 655.749 70.1467 652.576 66.88C649.403 63.6133 645.389 61.98 640.536 61.98C635.589 61.98 631.529 63.6133 628.356 66.88C625.183 70.1467 623.596 74.2533 623.596 79.2C623.596 84.1467 625.183 88.2533 628.356 91.52ZM719.13 18.58C718.29 21.8467 717.216 25.3933 715.91 29.22C714.603 32.9533 713.203 36.7333 711.71 40.56C710.216 44.2933 708.676 47.8867 707.09 51.34H692.11C692.763 48.54 693.416 45.6467 694.07 42.66C694.723 39.6733 695.33 36.6867 695.89 33.7C696.543 30.62 697.103 27.68 697.57 24.88C698.13 22.08 698.596 19.4667 698.97 17.04H718.15L719.13 18.58ZM729.041 117V14.1H755.081V117H729.041ZM807.684 119.52C796.484 119.52 787.477 116.347 780.664 110C773.851 103.56 770.444 95.0667 770.444 84.52V41.4H796.484V83.4C796.484 87.4133 797.464 90.54 799.424 92.78C801.384 95.02 804.091 96.14 807.544 96.14C811.091 96.14 813.844 95.02 815.804 92.78C817.857 90.4467 818.884 87.32 818.884 83.4V41.4H844.924V84.52C844.924 91.52 843.384 97.68 840.304 103C837.224 108.227 832.837 112.287 827.144 115.18C821.544 118.073 815.057 119.52 807.684 119.52ZM949.191 39.16C957.311 39.16 963.845 42.0067 968.791 47.7C973.738 53.3 976.211 60.58 976.211 69.54V117H950.171V72.76C950.171 65.0133 947.371 61.14 941.771 61.14C934.491 61.14 930.851 65.9467 930.851 75.56V117H905.511V72.76C905.511 65.0133 902.758 61.14 897.251 61.14C893.705 61.14 890.998 62.4 889.131 64.92C887.265 67.3467 886.331 70.8933 886.331 75.56V117H860.291V41.4H878.491L882.271 49.52C888.151 42.6133 895.525 39.16 904.391 39.16C908.965 39.16 913.118 40.14 916.851 42.1C920.585 44.06 923.618 46.8133 925.951 50.36C927.818 48.0267 929.918 46.02 932.251 44.34C934.678 42.66 937.338 41.4 940.231 40.56C943.125 39.6267 946.111 39.16 949.191 39.16ZM1029.75 119.52C1017.43 119.52 1007.26 115.74 999.235 108.18C991.301 100.527 987.335 90.8667 987.335 79.2C987.335 67.44 991.301 57.78 999.235 50.22C1007.26 42.66 1017.43 38.88 1029.75 38.88C1042.07 38.88 1052.2 42.7067 1060.13 50.36C1068.16 57.92 1072.17 67.5333 1072.17 79.2C1072.17 90.8667 1068.16 100.527 1060.13 108.18C1052.11 115.74 1041.98 119.52 1029.75 119.52ZM1017.99 91.38C1021.07 94.5533 1024.99 96.14 1029.75 96.14C1034.51 96.14 1038.39 94.5533 1041.37 91.38C1044.45 88.2067 1045.99 84.1467 1045.99 79.2C1045.99 74.2533 1044.45 70.1933 1041.37 67.02C1038.39 63.8467 1034.51 62.26 1029.75 62.26C1026.58 62.26 1023.73 63.0067 1021.21 64.5C1018.79 65.9 1016.87 67.9067 1015.47 70.52C1014.07 73.04 1013.37 75.9333 1013.37 79.2C1013.37 84.1467 1014.91 88.2067 1017.99 91.38ZM1124.02 94.18H1134.1V117H1116.18C1107.78 117 1101.2 114.62 1096.44 109.86C1091.68 105.007 1089.3 98.38 1089.3 89.98V61.42H1075.44V55.4L1109.32 19.28H1114.64V41.4H1133.68V61.42H1115.34V85.5C1115.34 88.2067 1116.09 90.3533 1117.58 91.94C1119.17 93.4333 1121.32 94.18 1124.02 94.18ZM1146.31 117V14.1H1172.35V117H1146.31ZM1249.73 41.26H1269.05V116.86H1249.03L1246.79 111.54C1240.26 116.86 1232.65 119.52 1223.97 119.52C1216.32 119.52 1209.46 117.793 1203.39 114.34C1197.42 110.887 1192.7 106.08 1189.25 99.92C1185.89 93.76 1184.21 86.8067 1184.21 79.06C1184.21 67.3933 1187.94 57.8267 1195.41 50.36C1202.88 42.8 1212.4 39.02 1223.97 39.02C1232.74 39.02 1240.44 41.7267 1247.07 47.14L1249.73 41.26ZM1215.29 91.52C1218.46 94.7867 1222.48 96.42 1227.33 96.42C1232.28 96.42 1236.34 94.7867 1239.51 91.52C1242.68 88.2533 1244.27 84.1467 1244.27 79.2C1244.27 74.2533 1242.68 70.1467 1239.51 66.88C1236.34 63.6133 1232.32 61.98 1227.47 61.98C1222.52 61.98 1218.46 63.6133 1215.29 66.88C1212.12 70.1467 1210.53 74.2533 1210.53 79.2C1210.53 84.1467 1212.12 88.2533 1215.29 91.52ZM1327.9 40.98H1334.76V64.92H1324.68C1320.11 64.92 1316.8 65.9933 1314.74 68.14C1312.69 70.2867 1311.66 73.74 1311.66 78.5V117H1285.62V41.4H1302.98L1307.04 49.8C1312.08 43.92 1319.04 40.98 1327.9 40.98ZM1344.83 31.88V9.89999H1370.45V31.88H1344.83ZM1344.69 117V41.4H1370.73V117H1344.69Z" fill="black"/>
</g>
<defs>
<clipPath id="clip0_2370_7669">
<rect width="1460" height="150" fill="white"/>
</clipPath>
</defs>
</svg>
