<svg width="825" height="150" viewBox="0 0 825 150" fill="none" xmlns="http://www.w3.org/2000/svg">
<path d="M64.48 119.88C47.52 119.88 33.3333 114.28 21.92 103.08C10.6133 91.88 4.96 77.9067 4.96 61.16C4.96 44.3067 10.6133 30.28 21.92 19.08C33.3333 7.77332 47.52 2.11999 64.48 2.11999C79.2 2.11999 91.7333 6.54666 102.08 15.4C112.533 24.2533 118.88 35.7733 121.12 49.96H89.92C88.64 46.12 86.7733 42.8133 84.32 40.04C81.8667 37.16 78.9333 34.92 75.52 33.32C72.1067 31.72 68.48 30.92 64.64 30.92C56.64 30.92 50.0267 33.8 44.8 39.56C39.68 45.2133 37.12 52.4133 37.12 61.16C37.12 66.8133 38.2933 71.9333 40.64 76.52C42.9867 81 46.24 84.52 50.4 87.08C54.6667 89.64 59.4133 90.92 64.64 90.92C68.6933 90.92 72.4267 90.0667 75.84 88.36C79.36 86.6533 82.2933 84.2533 84.64 81.16C87.0933 78.0667 88.8533 74.4933 89.92 70.44H121.44C119.307 85.16 113.013 97.1067 102.56 106.28C92.1067 115.347 79.4133 119.88 64.48 119.88ZM204.669 30.44H226.749V116.84H203.869L201.309 110.76C193.842 116.84 185.149 119.88 175.229 119.88C166.482 119.88 158.642 117.907 151.709 113.96C144.882 110.013 139.495 104.52 135.549 97.48C131.709 90.44 129.789 82.4933 129.789 73.64C129.789 60.3067 134.055 49.3733 142.589 40.84C151.122 32.2 162.002 27.88 175.229 27.88C185.255 27.88 194.055 30.9733 201.629 37.16L204.669 30.44ZM165.309 87.88C168.935 91.6133 173.522 93.48 179.069 93.48C184.722 93.48 189.362 91.6133 192.989 87.88C196.615 84.1467 198.429 79.4533 198.429 73.8C198.429 68.1467 196.615 63.4533 192.989 59.72C189.362 55.9867 184.775 54.12 179.229 54.12C173.575 54.12 168.935 55.9867 165.309 59.72C161.682 63.4533 159.869 68.1467 159.869 73.8C159.869 79.4533 161.682 84.1467 165.309 87.88ZM278.97 119.88C267.237 119.88 257.957 117.053 251.13 111.4C244.41 105.747 240.997 98.1733 240.89 88.68H269.53C269.53 91.6667 270.437 93.96 272.25 95.56C274.063 97.16 276.463 97.96 279.45 97.96C280.943 97.96 282.33 97.7467 283.61 97.32C284.89 96.7867 285.903 95.9867 286.65 94.92C287.503 93.8533 287.93 92.6267 287.93 91.24C287.93 89.64 287.183 88.3067 285.69 87.24C284.303 86.1733 282.703 85.4267 280.89 85C279.077 84.4667 276.463 83.9333 273.05 83.4C269.743 82.8667 266.917 82.3333 264.57 81.8C262.33 81.2667 259.663 80.36 256.57 79.08C253.477 77.6933 250.97 76.0933 249.05 74.28C247.13 72.4667 245.477 70.0133 244.09 66.92C242.703 63.8267 242.01 60.2533 242.01 56.2C242.01 47.56 245.37 40.68 252.09 35.56C258.81 30.3333 267.717 27.72 278.81 27.72C289.797 27.72 298.597 30.3867 305.21 35.72C311.93 41.0533 315.343 48.1467 315.45 57H287.61C287.61 55.1867 287.183 53.6933 286.33 52.52C285.583 51.24 284.517 50.3333 283.13 49.8C281.85 49.16 280.303 48.84 278.49 48.84C276.037 48.84 274.063 49.4267 272.57 50.6C271.183 51.7733 270.49 53.32 270.49 55.24C270.49 56.0933 270.65 56.84 270.97 57.48C271.29 58.12 271.823 58.7067 272.57 59.24C273.423 59.6667 274.17 60.04 274.81 60.36C275.45 60.68 276.463 61 277.85 61.32C279.343 61.64 280.517 61.9067 281.37 62.12C282.223 62.2267 283.557 62.44 285.37 62.76C287.61 63.1867 289.157 63.5067 290.01 63.72C290.97 63.8267 292.57 64.1467 294.81 64.68C297.05 65.2133 298.703 65.6933 299.77 66.12C300.837 66.44 302.277 67.0267 304.09 67.88C306.01 68.7333 307.45 69.5867 308.41 70.44C309.37 71.2933 310.49 72.4133 311.77 73.8C313.157 75.08 314.17 76.4667 314.81 77.96C315.45 79.4533 315.983 81.2667 316.41 83.4C316.943 85.4267 317.21 87.6133 317.21 89.96C317.21 99.0267 313.69 106.28 306.65 111.72C299.717 117.16 290.49 119.88 278.97 119.88ZM420.119 73C420.119 75.4533 419.905 78.0667 419.479 80.84H355.319C356.279 85.7467 358.252 89.48 361.239 92.04C364.332 94.6 368.225 95.88 372.919 95.88C375.265 95.88 377.452 95.56 379.479 94.92C381.505 94.28 383.265 93.3733 384.759 92.2C386.359 90.92 387.639 89.4267 388.599 87.72H418.199C415.212 97.64 409.612 105.48 401.399 111.24C393.292 117 383.799 119.88 372.919 119.88C359.479 119.88 348.279 115.507 339.319 106.76C330.465 97.9067 326.039 86.92 326.039 73.8C326.039 65.0533 328.065 57.16 332.119 50.12C336.172 43.08 341.772 37.5867 348.919 33.64C356.065 29.6933 364.065 27.72 372.919 27.72C382.092 27.72 390.252 29.7467 397.399 33.8C404.652 37.7467 410.252 43.1867 414.199 50.12C418.145 56.9467 420.119 64.5733 420.119 73ZM372.919 51.08C368.652 51.08 365.025 52.2533 362.039 54.6C359.159 56.84 357.079 60.0933 355.799 64.36H390.839C388.172 55.5067 382.199 51.08 372.919 51.08ZM466.939 119.88C455.205 119.88 445.925 117.053 439.099 111.4C432.379 105.747 428.965 98.1733 428.859 88.68H457.499C457.499 91.6667 458.405 93.96 460.219 95.56C462.032 97.16 464.432 97.96 467.419 97.96C468.912 97.96 470.299 97.7467 471.579 97.32C472.859 96.7867 473.872 95.9867 474.619 94.92C475.472 93.8533 475.899 92.6267 475.899 91.24C475.899 89.64 475.152 88.3067 473.659 87.24C472.272 86.1733 470.672 85.4267 468.859 85C467.045 84.4667 464.432 83.9333 461.019 83.4C457.712 82.8667 454.885 82.3333 452.539 81.8C450.299 81.2667 447.632 80.36 444.539 79.08C441.445 77.6933 438.939 76.0933 437.019 74.28C435.099 72.4667 433.445 70.0133 432.059 66.92C430.672 63.8267 429.979 60.2533 429.979 56.2C429.979 47.56 433.339 40.68 440.059 35.56C446.779 30.3333 455.685 27.72 466.779 27.72C477.765 27.72 486.565 30.3867 493.179 35.72C499.899 41.0533 503.312 48.1467 503.419 57H475.579C475.579 55.1867 475.152 53.6933 474.299 52.52C473.552 51.24 472.485 50.3333 471.099 49.8C469.819 49.16 468.272 48.84 466.459 48.84C464.005 48.84 462.032 49.4267 460.539 50.6C459.152 51.7733 458.459 53.32 458.459 55.24C458.459 56.0933 458.619 56.84 458.939 57.48C459.259 58.12 459.792 58.7067 460.539 59.24C461.392 59.6667 462.139 60.04 462.779 60.36C463.419 60.68 464.432 61 465.819 61.32C467.312 61.64 468.485 61.9067 469.339 62.12C470.192 62.2267 471.525 62.44 473.339 62.76C475.579 63.1867 477.125 63.5067 477.979 63.72C478.939 63.8267 480.539 64.1467 482.779 64.68C485.019 65.2133 486.672 65.6933 487.739 66.12C488.805 66.44 490.245 67.0267 492.059 67.88C493.979 68.7333 495.419 69.5867 496.379 70.44C497.339 71.2933 498.459 72.4133 499.739 73.8C501.125 75.08 502.139 76.4667 502.779 77.96C503.419 79.4533 503.952 81.2667 504.379 83.4C504.912 85.4267 505.179 87.6133 505.179 89.96C505.179 99.0267 501.659 106.28 494.619 111.72C487.685 117.16 478.459 119.88 466.939 119.88Z" fill="black"/>
</svg>
