<svg width="1460" height="150" viewBox="0 0 1460 150" fill="none" xmlns="http://www.w3.org/2000/svg">
<path d="M58.38 119.52C42.6067 119.52 29.6333 114.713 19.46 105.1C9.38 95.3933 4.34 83.0267 4.34 68C4.34 52.9733 9.38 40.6533 19.46 31.04C29.6333 21.3333 42.6067 16.48 58.38 16.48C74.06 16.48 86.94 21.3333 97.02 31.04C107.1 40.6533 112.14 52.9733 112.14 68C112.14 83.0267 107.1 95.3933 97.02 105.1C86.94 114.713 74.06 119.52 58.38 119.52ZM39.76 86.9C44.7067 91.8467 50.9133 94.32 58.38 94.32C65.8467 94.32 71.96 91.8467 76.72 86.9C81.5733 81.9533 84 75.6533 84 68C84 60.3467 81.5733 54.0467 76.72 49.1C71.96 44.1533 65.8467 41.68 58.38 41.68C50.9133 41.68 44.7067 44.1533 39.76 49.1C34.9067 54.0467 32.48 60.3467 32.48 68C32.48 75.6533 34.9067 81.9533 39.76 86.9ZM201.716 41.4H227.616V117H201.716V90.4H180.996V117H155.096V41.4H180.996V67.44H201.716V41.4ZM305.14 41.26H324.46V116.86H304.44L302.2 111.54C295.667 116.86 288.06 119.52 279.38 119.52C271.727 119.52 264.867 117.793 258.8 114.34C252.827 110.887 248.113 106.08 244.66 99.92C241.3 93.76 239.62 86.8067 239.62 79.06C239.62 67.3933 243.353 57.8267 250.82 50.36C258.287 42.8 267.807 39.02 279.38 39.02C288.153 39.02 295.853 41.7267 302.48 47.14L305.14 41.26ZM270.7 91.52C273.873 94.7867 277.887 96.42 282.74 96.42C287.687 96.42 291.747 94.7867 294.92 91.52C298.093 88.2533 299.68 84.1467 299.68 79.2C299.68 74.2533 298.093 70.1467 294.92 66.88C291.747 63.6133 287.733 61.98 282.88 61.98C277.933 61.98 273.873 63.6133 270.7 66.88C267.527 70.1467 265.94 74.2533 265.94 79.2C265.94 84.1467 267.527 88.2533 270.7 91.52ZM378.413 119.52C370.387 119.52 363.2 117.793 356.853 114.34C350.507 110.887 345.513 106.08 341.873 99.92C338.327 93.76 336.553 86.8533 336.553 79.2C336.553 71.4533 338.327 64.5467 341.873 58.48C345.513 52.32 350.507 47.56 356.853 44.2C363.2 40.7467 370.387 39.02 378.413 39.02C385.413 39.02 391.76 40.42 397.453 43.22C403.24 46.02 407.953 49.94 411.593 54.98C415.233 60.02 417.52 65.8533 418.453 72.48H393.113C391.993 69.4 390.08 66.9733 387.373 65.2C384.76 63.3333 381.773 62.4 378.413 62.4C373.84 62.4 370.06 63.9867 367.073 67.16C364.18 70.24 362.733 74.2533 362.733 79.2C362.733 84.1467 364.18 88.2067 367.073 91.38C370.06 94.5533 373.84 96.14 378.413 96.14C381.867 96.14 384.9 95.16 387.513 93.2C390.22 91.1467 392.087 88.44 393.113 85.08H418.733C417.24 95.3467 412.807 103.653 405.433 110C398.06 116.347 389.053 119.52 378.413 119.52Z" fill="black"/>
</svg>
