<svg width="825" height="150" viewBox="0 0 825 150" fill="none" xmlns="http://www.w3.org/2000/svg">
<g clip-path="url(#clip0_2323_5680)">
<path d="M110.4 117H73.76L41.76 67.56V117H10.88V4.99999H41.76V52.2L71.36 4.99999H107.04L71.2 59.24L110.4 117ZM199.494 73C199.494 75.4533 199.28 78.0667 198.854 80.84H134.694C135.654 85.7467 137.627 89.48 140.614 92.04C143.707 94.6 147.6 95.88 152.294 95.88C154.64 95.88 156.827 95.56 158.854 94.92C160.88 94.28 162.64 93.3733 164.134 92.2C165.734 90.92 167.014 89.4267 167.974 87.72H197.574C194.587 97.64 188.987 105.48 180.774 111.24C172.667 117 163.174 119.88 152.294 119.88C138.854 119.88 127.654 115.507 118.694 106.76C109.84 97.9067 105.414 86.92 105.414 73.8C105.414 65.0533 107.44 57.16 111.494 50.12C115.547 43.08 121.147 37.5867 128.294 33.64C135.44 29.6933 143.44 27.72 152.294 27.72C161.467 27.72 169.627 29.7467 176.774 33.8C184.027 37.7467 189.627 43.1867 193.574 50.12C197.52 56.9467 199.494 64.5733 199.494 73ZM152.294 51.08C148.027 51.08 144.4 52.2533 141.414 54.6C138.534 56.84 136.454 60.0933 135.174 64.36H170.214C167.547 55.5067 161.574 51.08 152.294 51.08ZM267.211 30.6H299.211L263.051 113.16C257.078 126.6 250.891 135.933 244.491 141.16C238.091 146.493 229.398 149.16 218.411 149.16H208.171V123.56H216.331C221.985 123.56 226.038 122.653 228.491 120.84C230.945 119.027 233.185 115.347 235.211 109.8L199.531 30.6H231.851L250.091 78.12L267.211 30.6ZM338.033 119.88C326.299 119.88 317.019 117.053 310.193 111.4C303.473 105.747 300.059 98.1733 299.953 88.68H328.593C328.593 91.6667 329.499 93.96 331.313 95.56C333.126 97.16 335.526 97.96 338.513 97.96C340.006 97.96 341.393 97.7467 342.673 97.32C343.953 96.7867 344.966 95.9867 345.713 94.92C346.566 93.8533 346.993 92.6267 346.993 91.24C346.993 89.64 346.246 88.3067 344.753 87.24C343.366 86.1733 341.766 85.4267 339.953 85C338.139 84.4667 335.526 83.9333 332.113 83.4C328.806 82.8667 325.979 82.3333 323.633 81.8C321.393 81.2667 318.726 80.36 315.633 79.08C312.539 77.6933 310.033 76.0933 308.113 74.28C306.193 72.4667 304.539 70.0133 303.153 66.92C301.766 63.8267 301.073 60.2533 301.073 56.2C301.073 47.56 304.433 40.68 311.153 35.56C317.873 30.3333 326.779 27.72 337.873 27.72C348.859 27.72 357.659 30.3867 364.273 35.72C370.993 41.0533 374.406 48.1467 374.513 57H346.673C346.673 55.1867 346.246 53.6933 345.393 52.52C344.646 51.24 343.579 50.3333 342.193 49.8C340.913 49.16 339.366 48.84 337.552 48.84C335.099 48.84 333.126 49.4267 331.633 50.6C330.246 51.7733 329.553 53.32 329.553 55.24C329.553 56.0933 329.713 56.84 330.033 57.48C330.353 58.12 330.886 58.7067 331.633 59.24C332.486 59.6667 333.233 60.04 333.873 60.36C334.513 60.68 335.526 61 336.913 61.32C338.406 61.64 339.579 61.9067 340.433 62.12C341.286 62.2267 342.619 62.44 344.433 62.76C346.673 63.1867 348.219 63.5067 349.073 63.72C350.033 63.8267 351.633 64.1467 353.873 64.68C356.113 65.2133 357.766 65.6933 358.833 66.12C359.899 66.44 361.339 67.0267 363.153 67.88C365.073 68.7333 366.513 69.5867 367.473 70.44C368.433 71.2933 369.553 72.4133 370.833 73.8C372.219 75.08 373.233 76.4667 373.873 77.96C374.513 79.4533 375.046 81.2667 375.473 83.4C376.006 85.4267 376.273 87.6133 376.273 89.96C376.273 99.0267 372.753 106.28 365.713 111.72C358.779 117.16 349.553 119.88 338.033 119.88ZM390.221 117V-0.600002H419.981V117H390.221ZM508.419 30.44H530.499V116.84H507.619L505.059 110.76C497.592 116.84 488.899 119.88 478.979 119.88C470.232 119.88 462.392 117.907 455.459 113.96C448.632 110.013 443.245 104.52 439.299 97.48C435.459 90.44 433.539 82.4933 433.539 73.64C433.539 60.3067 437.805 49.3733 446.339 40.84C454.872 32.2 465.752 27.88 478.979 27.88C489.005 27.88 497.805 30.9733 505.379 37.16L508.419 30.44ZM469.059 87.88C472.685 91.6133 477.272 93.48 482.819 93.48C488.472 93.48 493.112 91.6133 496.739 87.88C500.365 84.1467 502.179 79.4533 502.179 73.8C502.179 68.1467 500.365 63.4533 496.739 59.72C493.112 55.9867 488.525 54.12 482.979 54.12C477.325 54.12 472.685 55.9867 469.059 59.72C465.432 63.4533 463.619 68.1467 463.619 73.8C463.619 79.4533 465.432 84.1467 469.059 87.88ZM597.76 30.12H605.6V57.48H594.08C588.853 57.48 585.067 58.7067 582.72 61.16C580.373 63.6133 579.2 67.56 579.2 73V117H549.44V30.6H569.28L573.92 40.2C579.68 33.48 587.627 30.12 597.76 30.12Z" fill="black"/>
</g>
<defs>
<clipPath id="clip0_2323_5680">
<rect width="825" height="150" fill="white"/>
</clipPath>
</defs>
</svg>
