<svg width="825" height="150" viewBox="0 0 825 150" fill="none" xmlns="http://www.w3.org/2000/svg">
<path d="M64.48 119.88C47.52 119.88 33.3333 114.28 21.92 103.08C10.6133 91.88 4.96 77.9067 4.96 61.16C4.96 44.3067 10.6133 30.28 21.92 19.08C33.3333 7.77332 47.52 2.11999 64.48 2.11999C79.2 2.11999 91.7333 6.54666 102.08 15.4C112.533 24.2533 118.88 35.7733 121.12 49.96H89.92C88.64 46.12 86.7733 42.8133 84.32 40.04C81.8667 37.16 78.9333 34.92 75.52 33.32C72.1067 31.72 68.48 30.92 64.64 30.92C56.64 30.92 50.0267 33.8 44.8 39.56C39.68 45.2133 37.12 52.4133 37.12 61.16C37.12 66.8133 38.2933 71.9333 40.64 76.52C42.9867 81 46.24 84.52 50.4 87.08C54.6667 89.64 59.4133 90.92 64.64 90.92C68.6933 90.92 72.4267 90.0667 75.84 88.36C79.36 86.6533 82.2933 84.2533 84.64 81.16C87.0933 78.0667 88.8533 74.4933 89.92 70.44H121.44C119.307 85.16 113.013 97.1067 102.56 106.28C92.1067 115.347 79.4133 119.88 64.48 119.88ZM178.269 119.88C164.189 119.88 152.562 115.56 143.389 106.92C134.322 98.1733 129.789 87.1333 129.789 73.8C129.789 60.36 134.322 49.32 143.389 40.68C152.562 32.04 164.189 27.72 178.269 27.72C192.349 27.72 203.922 32.0933 212.989 40.84C222.162 49.48 226.749 60.4667 226.749 73.8C226.749 87.1333 222.162 98.1733 212.989 106.92C203.815 115.56 192.242 119.88 178.269 119.88ZM164.829 87.72C168.349 91.3467 172.829 93.16 178.269 93.16C183.709 93.16 188.135 91.3467 191.549 87.72C195.069 84.0933 196.829 79.4533 196.829 73.8C196.829 68.1467 195.069 63.5067 191.549 59.88C188.135 56.2533 183.709 54.44 178.269 54.44C174.642 54.44 171.389 55.2933 168.509 57C165.735 58.6 163.549 60.8933 161.949 63.88C160.349 66.76 159.549 70.0667 159.549 73.8C159.549 79.4533 161.309 84.0933 164.829 87.72ZM292.694 28.04C302.72 28.04 310.72 31.3467 316.694 37.96C322.774 44.5733 325.814 53.3733 325.814 64.36V117H296.054V68.36C296.054 58.3333 292.32 53.32 284.854 53.32C281.76 53.32 279.094 54.0133 276.854 55.4C274.72 56.7867 273.067 58.8133 271.894 61.48C270.827 64.04 270.294 67.1867 270.294 70.92V117H240.534V30.6H261.334L265.494 39.56C272.32 31.88 281.387 28.04 292.694 28.04ZM389.754 90.92H401.274V117H380.794C371.194 117 363.674 114.28 358.234 108.84C352.794 103.293 350.074 95.72 350.074 86.12V53.48H334.234V46.6L372.954 5.32H379.034V30.6H400.794V53.48H379.834V81C379.834 84.0933 380.687 86.5467 382.394 88.36C384.207 90.0667 386.66 90.92 389.754 90.92ZM484.2 30.44H506.28V116.84H483.4L480.84 110.76C473.373 116.84 464.68 119.88 454.76 119.88C446.013 119.88 438.173 117.907 431.24 113.96C424.413 110.013 419.027 104.52 415.08 97.48C411.24 90.44 409.32 82.4933 409.32 73.64C409.32 60.3067 413.587 49.3733 422.12 40.84C430.653 32.2 441.533 27.88 454.76 27.88C464.787 27.88 473.587 30.9733 481.16 37.16L484.2 30.44ZM444.84 87.88C448.467 91.6133 453.053 93.48 458.6 93.48C464.253 93.48 468.893 91.6133 472.52 87.88C476.147 84.1467 477.96 79.4533 477.96 73.8C477.96 68.1467 476.147 63.4533 472.52 59.72C468.893 55.9867 464.307 54.12 458.76 54.12C453.107 54.12 448.467 55.9867 444.84 59.72C441.213 63.4533 439.4 68.1467 439.4 73.8C439.4 79.4533 441.213 84.1467 444.84 87.88ZM567.941 119.88C558.768 119.88 550.555 117.907 543.301 113.96C536.048 110.013 530.341 104.52 526.181 97.48C522.128 90.44 520.101 82.5467 520.101 73.8C520.101 64.9467 522.128 57.0533 526.181 50.12C530.341 43.08 536.048 37.64 543.301 33.8C550.555 29.8533 558.768 27.88 567.941 27.88C575.941 27.88 583.195 29.48 589.701 32.68C596.315 35.88 601.701 40.36 605.861 46.12C610.021 51.88 612.635 58.5467 613.701 66.12H584.741C583.461 62.6 581.275 59.8267 578.181 57.8C575.195 55.6667 571.781 54.6 567.941 54.6C562.715 54.6 558.395 56.4133 554.981 60.04C551.675 63.56 550.021 68.1467 550.021 73.8C550.021 79.4533 551.675 84.0933 554.981 87.72C558.395 91.3467 562.715 93.16 567.941 93.16C571.888 93.16 575.355 92.04 578.341 89.8C581.435 87.4533 583.568 84.36 584.741 80.52H614.021C612.315 92.2533 607.248 101.747 598.821 109C590.395 116.253 580.101 119.88 567.941 119.88ZM672.879 90.92H684.399V117H663.919C654.319 117 646.799 114.28 641.359 108.84C635.919 103.293 633.199 95.72 633.199 86.12V53.48H617.359V46.6L656.079 5.32H662.159V30.6H683.919V53.48H662.959V81C662.959 84.0933 663.812 86.5467 665.519 88.36C667.332 90.0667 669.785 90.92 672.879 90.92ZM731.626 119.88C719.893 119.88 710.613 117.053 703.786 111.4C697.066 105.747 693.653 98.1733 693.546 88.68H722.186C722.186 91.6667 723.093 93.96 724.906 95.56C726.72 97.16 729.12 97.96 732.106 97.96C733.6 97.96 734.986 97.7467 736.266 97.32C737.546 96.7867 738.56 95.9867 739.306 94.92C740.16 93.8533 740.586 92.6267 740.586 91.24C740.586 89.64 739.84 88.3067 738.346 87.24C736.96 86.1733 735.36 85.4267 733.546 85C731.733 84.4667 729.12 83.9333 725.706 83.4C722.4 82.8667 719.573 82.3333 717.226 81.8C714.986 81.2667 712.32 80.36 709.226 79.08C706.133 77.6933 703.626 76.0933 701.706 74.28C699.786 72.4667 698.133 70.0133 696.746 66.92C695.36 63.8267 694.666 60.2533 694.666 56.2C694.666 47.56 698.026 40.68 704.746 35.56C711.466 30.3333 720.373 27.72 731.466 27.72C742.453 27.72 751.253 30.3867 757.866 35.72C764.586 41.0533 768 48.1467 768.106 57H740.266C740.266 55.1867 739.84 53.6933 738.986 52.52C738.24 51.24 737.173 50.3333 735.786 49.8C734.506 49.16 732.96 48.84 731.146 48.84C728.693 48.84 726.72 49.4267 725.226 50.6C723.84 51.7733 723.146 53.32 723.146 55.24C723.146 56.0933 723.306 56.84 723.626 57.48C723.946 58.12 724.48 58.7067 725.226 59.24C726.08 59.6667 726.826 60.04 727.466 60.36C728.106 60.68 729.12 61 730.506 61.32C732 61.64 733.173 61.9067 734.026 62.12C734.88 62.2267 736.213 62.44 738.026 62.76C740.266 63.1867 741.813 63.5067 742.666 63.72C743.626 63.8267 745.226 64.1467 747.466 64.68C749.706 65.2133 751.36 65.6933 752.426 66.12C753.493 66.44 754.933 67.0267 756.746 67.88C758.666 68.7333 760.106 69.5867 761.066 70.44C762.026 71.2933 763.146 72.4133 764.426 73.8C765.813 75.08 766.826 76.4667 767.466 77.96C768.106 79.4533 768.64 81.2667 769.066 83.4C769.6 85.4267 769.866 87.6133 769.866 89.96C769.866 99.0267 766.346 106.28 759.306 111.72C752.373 117.16 743.146 119.88 731.626 119.88Z" fill="black"/>
</svg>
