<svg width="825" height="150" viewBox="0 0 825 150" fill="none" xmlns="http://www.w3.org/2000/svg">
<g clip-path="url(#clip0_2323_5676)">
<path d="M85.12 117L78.88 98.76H39.2L32.96 117H0L44 4.99999H74.08L119.04 117H85.12ZM71.36 74.6L59.04 39.88L46.72 74.6H71.36ZM128.503 117V-0.600002H158.263V117H128.503ZM220.3 119.88C206.22 119.88 194.593 115.56 185.42 106.92C176.353 98.1733 171.82 87.1333 171.82 73.8C171.82 60.36 176.353 49.32 185.42 40.68C194.593 32.04 206.22 27.72 220.3 27.72C234.38 27.72 245.953 32.0933 255.02 40.84C264.193 49.48 268.78 60.4667 268.78 73.8C268.78 87.1333 264.193 98.1733 255.02 106.92C245.847 115.56 234.273 119.88 220.3 119.88ZM206.86 87.72C210.38 91.3467 214.86 93.16 220.3 93.16C225.74 93.16 230.167 91.3467 233.58 87.72C237.1 84.0933 238.86 79.4533 238.86 73.8C238.86 68.1467 237.1 63.5067 233.58 59.88C230.167 56.2533 225.74 54.44 220.3 54.44C216.673 54.44 213.42 55.2933 210.54 57C207.767 58.6 205.58 60.8933 203.98 63.88C202.38 66.76 201.58 70.0667 201.58 73.8C201.58 79.4533 203.34 84.0933 206.86 87.72ZM353.125 30.6H373.285V148.2H343.845V114.12C337.445 117.96 330.405 119.88 322.725 119.88C309.498 119.88 298.618 115.56 290.085 106.92C281.658 98.28 277.445 87.24 277.445 73.8C277.445 60.36 281.658 49.32 290.085 40.68C298.618 32.04 309.498 27.72 322.725 27.72C332.965 27.72 341.818 30.9733 349.285 37.48L353.125 30.6ZM326.725 93.64C332.272 93.64 336.858 91.7733 340.485 88.04C344.218 84.2 346.085 79.4533 346.085 73.8C346.085 71.0267 345.605 68.4133 344.645 65.96C343.685 63.5067 342.352 61.4267 340.645 59.72C338.938 57.9067 336.858 56.52 334.405 55.56C332.058 54.4933 329.498 53.96 326.725 53.96C323.098 53.96 319.792 54.8667 316.805 56.68C313.818 58.3867 311.472 60.7333 309.765 63.72C308.165 66.7067 307.365 70.0667 307.365 73.8C307.365 79.4533 309.178 84.2 312.805 88.04C316.538 91.7733 321.178 93.64 326.725 93.64ZM461.7 30.44H483.78V116.84H460.9L458.34 110.76C450.873 116.84 442.18 119.88 432.26 119.88C423.513 119.88 415.673 117.907 408.74 113.96C401.913 110.013 396.527 104.52 392.58 97.48C388.74 90.44 386.82 82.4933 386.82 73.64C386.82 60.3067 391.087 49.3733 399.62 40.84C408.153 32.2 419.033 27.88 432.26 27.88C442.287 27.88 451.087 30.9733 458.66 37.16L461.7 30.44ZM422.34 87.88C425.967 91.6133 430.553 93.48 436.1 93.48C441.753 93.48 446.393 91.6133 450.02 87.88C453.647 84.1467 455.46 79.4533 455.46 73.8C455.46 68.1467 453.647 63.4533 450.02 59.72C446.393 55.9867 441.807 54.12 436.26 54.12C430.607 54.12 425.967 55.9867 422.34 59.72C418.713 63.4533 416.9 68.1467 416.9 73.8C416.9 79.4533 418.713 84.1467 422.34 87.88ZM639.009 28.04C648.289 28.04 655.755 31.2933 661.409 37.8C667.062 44.2 669.889 52.52 669.889 62.76V117H640.129V66.44C640.129 57.5867 636.929 53.16 630.529 53.16C622.209 53.16 618.049 58.6533 618.049 69.64V117H589.089V66.44C589.089 57.5867 585.942 53.16 579.649 53.16C575.595 53.16 572.502 54.6 570.369 57.48C568.235 60.2533 567.169 64.3067 567.169 69.64V117H537.409V30.6H558.209L562.529 39.88C569.249 31.9867 577.675 28.04 587.809 28.04C593.035 28.04 597.782 29.16 602.049 31.4C606.315 33.64 609.782 36.7867 612.449 40.84C614.582 38.1733 616.982 35.88 619.649 33.96C622.422 32.04 625.462 30.6 628.769 29.64C632.075 28.5733 635.489 28.04 639.009 28.04ZM757.481 30.44H779.561V116.84H756.681L754.121 110.76C746.655 116.84 737.961 119.88 728.041 119.88C719.295 119.88 711.455 117.907 704.521 113.96C697.695 110.013 692.308 104.52 688.361 97.48C684.521 90.44 682.601 82.4933 682.601 73.64C682.601 60.3067 686.868 49.3733 695.401 40.84C703.935 32.2 714.815 27.88 728.041 27.88C738.068 27.88 746.868 30.9733 754.441 37.16L757.481 30.44ZM718.121 87.88C721.748 91.6133 726.335 93.48 731.881 93.48C737.535 93.48 742.175 91.6133 745.801 87.88C749.428 84.1467 751.241 79.4533 751.241 73.8C751.241 68.1467 749.428 63.4533 745.801 59.72C742.175 55.9867 737.588 54.12 732.041 54.12C726.388 54.12 721.748 55.9867 718.121 59.72C714.495 63.4533 712.681 68.1467 712.681 73.8C712.681 79.4533 714.495 84.1467 718.121 87.88ZM821.863 4.52C820.903 8.25333 819.676 12.3067 818.183 16.68C816.689 20.9467 815.089 25.2667 813.383 29.64C811.676 33.9067 809.916 38.0133 808.103 41.96H790.983C791.729 38.76 792.476 35.4533 793.223 32.04C793.969 28.6267 794.663 25.2133 795.303 21.8C796.049 18.28 796.689 14.92 797.223 11.72C797.863 8.51999 798.396 5.53333 798.823 2.75999H820.743L821.863 4.52ZM833.19 117V-0.600002H862.95V117H833.19ZM923.068 119.88C910.268 119.88 899.974 116.253 892.188 109C884.401 101.64 880.508 91.9333 880.508 79.88V30.6H910.268V78.6C910.268 83.1867 911.388 86.76 913.628 89.32C915.868 91.88 918.961 93.16 922.908 93.16C926.961 93.16 930.108 91.88 932.348 89.32C934.694 86.6533 935.868 83.08 935.868 78.6V30.6H965.628V79.88C965.628 87.88 963.868 94.92 960.347 101C956.828 106.973 951.814 111.613 945.308 114.92C938.908 118.227 931.494 119.88 923.068 119.88ZM1084.79 28.04C1094.07 28.04 1101.54 31.2933 1107.19 37.8C1112.84 44.2 1115.67 52.52 1115.67 62.76V117H1085.91V66.44C1085.91 57.5867 1082.71 53.16 1076.31 53.16C1067.99 53.16 1063.83 58.6533 1063.83 69.64V117H1034.87V66.44C1034.87 57.5867 1031.72 53.16 1025.43 53.16C1021.38 53.16 1018.28 54.6 1016.15 57.48C1014.02 60.2533 1012.95 64.3067 1012.95 69.64V117H983.19V30.6H1003.99L1008.31 39.88C1015.03 31.9867 1023.46 28.04 1033.59 28.04C1038.82 28.04 1043.56 29.16 1047.83 31.4C1052.1 33.64 1055.56 36.7867 1058.23 40.84C1060.36 38.1733 1062.76 35.88 1065.43 33.96C1068.2 32.04 1071.24 30.6 1074.55 29.64C1077.86 28.5733 1081.27 28.04 1084.79 28.04ZM1176.86 119.88C1162.78 119.88 1151.16 115.56 1141.98 106.92C1132.92 98.1733 1128.38 87.1333 1128.38 73.8C1128.38 60.36 1132.92 49.32 1141.98 40.68C1151.16 32.04 1162.78 27.72 1176.86 27.72C1190.94 27.72 1202.52 32.0933 1211.58 40.84C1220.76 49.48 1225.34 60.4667 1225.34 73.8C1225.34 87.1333 1220.76 98.1733 1211.58 106.92C1202.41 115.56 1190.84 119.88 1176.86 119.88ZM1163.42 87.72C1166.94 91.3467 1171.42 93.16 1176.86 93.16C1182.3 93.16 1186.73 91.3467 1190.14 87.72C1193.66 84.0933 1195.42 79.4533 1195.42 73.8C1195.42 68.1467 1193.66 63.5067 1190.14 59.88C1186.73 56.2533 1182.3 54.44 1176.86 54.44C1173.24 54.44 1169.98 55.2933 1167.1 57C1164.33 58.6 1162.14 60.8933 1160.54 63.88C1158.94 66.76 1158.14 70.0667 1158.14 73.8C1158.14 79.4533 1159.9 84.0933 1163.42 87.72ZM1284.6 90.92H1296.12V117H1275.64C1266.04 117 1258.52 114.28 1253.08 108.84C1247.64 103.293 1244.92 95.72 1244.92 86.12V53.48H1229.08V46.6L1267.8 5.32H1273.88V30.6H1295.64V53.48H1274.68V81C1274.68 84.0933 1275.53 86.5467 1277.24 88.36C1279.05 90.0667 1281.5 90.92 1284.6 90.92ZM1310.07 117V-0.600002H1339.83V117H1310.07ZM1428.26 30.44H1450.34V116.84H1427.46L1424.9 110.76C1417.44 116.84 1408.74 119.88 1398.82 119.88C1390.08 119.88 1382.24 117.907 1375.3 113.96C1368.48 110.013 1363.09 104.52 1359.14 97.48C1355.3 90.44 1353.38 82.4933 1353.38 73.64C1353.38 60.3067 1357.65 49.3733 1366.18 40.84C1374.72 32.2 1385.6 27.88 1398.82 27.88C1408.85 27.88 1417.65 30.9733 1425.22 37.16L1428.26 30.44ZM1388.9 87.88C1392.53 91.6133 1397.12 93.48 1402.66 93.48C1408.32 93.48 1412.96 91.6133 1416.58 87.88C1420.21 84.1467 1422.02 79.4533 1422.02 73.8C1422.02 68.1467 1420.21 63.4533 1416.58 59.72C1412.96 55.9867 1408.37 54.12 1402.82 54.12C1397.17 54.12 1392.53 55.9867 1388.9 59.72C1385.28 63.4533 1383.46 68.1467 1383.46 73.8C1383.46 79.4533 1385.28 84.1467 1388.9 87.88ZM1517.6 30.12H1525.44V57.48H1513.92C1508.7 57.48 1504.91 58.7067 1502.56 61.16C1500.22 63.6133 1499.04 67.56 1499.04 73V117H1469.28V30.6H1489.12L1493.76 40.2C1499.52 33.48 1507.47 30.12 1517.6 30.12ZM1536.94 19.72V-5.40001H1566.22V19.72H1536.94ZM1536.78 117V30.6H1566.54V117H1536.78Z" fill="black"/>
</g>
<defs>
<clipPath id="clip0_2323_5676">
<rect width="825" height="150" fill="white"/>
</clipPath>
</defs>
</svg>
