<svg width="825" height="150" viewBox="0 0 825 150" fill="none" xmlns="http://www.w3.org/2000/svg">
<g clip-path="url(#clip0_2323_5657)">
<path d="M50.56 119.72C36.6933 119.72 25.7067 116.307 17.6 109.48C9.49333 102.547 5.44 93 5.44 80.84H37.28C37.28 84.68 38.5067 87.6133 40.96 89.64C43.52 91.6667 46.6667 92.68 50.4 92.68C53.8133 92.68 56.7467 91.8267 59.2 90.12C61.76 88.4133 63.04 86.12 63.04 83.24C63.04 82.28 62.9333 81.48 62.72 80.84C62.5067 80.0933 62.08 79.4 61.44 78.76C60.9067 78.12 60.3733 77.5867 59.84 77.16C59.3067 76.6267 58.4533 76.1467 57.28 75.72C56.2133 75.1867 55.3067 74.8133 54.56 74.6C53.8133 74.28 52.64 73.9067 51.04 73.48C49.5467 73.0533 48.3733 72.7333 47.52 72.52C46.7733 72.3067 45.4933 71.9867 43.68 71.56C40.48 70.7067 38.08 70.0667 36.48 69.64C34.88 69.2133 32.5333 68.4667 29.44 67.4C26.3467 66.3333 23.9467 65.32 22.24 64.36C20.5333 63.2933 18.56 61.8533 16.32 60.04C14.08 58.2267 12.3733 56.3067 11.2 54.28C10.0267 52.2533 9.01333 49.7467 8.16 46.76C7.30667 43.7733 6.88 40.52 6.88 37C6.88 26.12 10.6133 17.64 18.08 11.56C25.6533 5.37333 36.1067 2.28 49.44 2.28C62.7733 2.28 73.12 5.53333 80.48 12.04C87.9467 18.5467 91.68 27.5067 91.68 38.92H60.8C60.8 35.5067 59.68 32.9467 57.44 31.24C55.2 29.4267 52.4267 28.52 49.12 28.52C46.1333 28.52 43.5733 29.16 41.44 30.44C39.3067 31.72 38.24 33.64 38.24 36.2C38.24 37.16 38.4533 38.0667 38.88 38.92C39.3067 39.7733 40 40.5733 40.96 41.32C41.92 41.96 42.8267 42.5467 43.68 43.08C44.64 43.5067 45.9733 44.04 47.68 44.68C49.4933 45.2133 50.9333 45.64 52 45.96C53.1733 46.28 54.9333 46.7067 57.28 47.24C60.48 48.0933 62.9333 48.7867 64.64 49.32C66.3467 49.7467 68.7467 50.5467 71.84 51.72C75.04 52.7867 77.4933 53.8533 79.2 54.92C81.0133 55.9867 83.0933 57.4267 85.44 59.24C87.7867 61.0533 89.5467 63.0267 90.72 65.16C92 67.2933 93.0667 69.8533 93.92 72.84C94.88 75.8267 95.36 79.08 95.36 82.6C95.36 94.44 91.2533 103.613 83.04 110.12C74.8267 116.52 64 119.72 50.56 119.72ZM199.025 73C199.025 75.4533 198.812 78.0667 198.385 80.84H134.225C135.185 85.7467 137.158 89.48 140.145 92.04C143.238 94.6 147.132 95.88 151.825 95.88C154.172 95.88 156.358 95.56 158.385 94.92C160.412 94.28 162.172 93.3733 163.665 92.2C165.265 90.92 166.545 89.4267 167.505 87.72H197.105C194.118 97.64 188.518 105.48 180.305 111.24C172.198 117 162.705 119.88 151.825 119.88C138.385 119.88 127.185 115.507 118.225 106.76C109.372 97.9067 104.945 86.92 104.945 73.8C104.945 65.0533 106.972 57.16 111.025 50.12C115.078 43.08 120.678 37.5867 127.825 33.64C134.972 29.6933 142.972 27.72 151.825 27.72C160.998 27.72 169.158 29.7467 176.305 33.8C183.558 37.7467 189.158 43.1867 193.105 50.12C197.052 56.9467 199.025 64.5733 199.025 73ZM151.825 51.08C147.558 51.08 143.932 52.2533 140.945 54.6C138.065 56.84 135.985 60.0933 134.705 64.36H169.745C167.078 55.5067 161.105 51.08 151.825 51.08ZM260.885 30.12H268.725V57.48H257.205C251.978 57.48 248.192 58.7067 245.845 61.16C243.498 63.6133 242.325 67.56 242.325 73V117H212.565V30.6H232.405L237.045 40.2C242.805 33.48 250.752 30.12 260.885 30.12ZM336.37 30.6H368.21L333.49 117H306.45L271.25 30.6H303.89L320.21 81.8L336.37 30.6ZM378.038 19.72V-5.40001H407.318V19.72H378.038ZM377.878 117V30.6H407.638V117H377.878ZM469.035 119.88C459.862 119.88 451.648 117.907 444.395 113.96C437.142 110.013 431.435 104.52 427.275 97.48C423.222 90.44 421.195 82.5467 421.195 73.8C421.195 64.9467 423.222 57.0533 427.275 50.12C431.435 43.08 437.142 37.64 444.395 33.8C451.648 29.8533 459.862 27.88 469.035 27.88C477.035 27.88 484.288 29.48 490.795 32.68C497.408 35.88 502.795 40.36 506.955 46.12C511.115 51.88 513.728 58.5467 514.795 66.12H485.835C484.555 62.6 482.368 59.8267 479.275 57.8C476.288 55.6667 472.875 54.6 469.035 54.6C463.808 54.6 459.488 56.4133 456.075 60.04C452.768 63.56 451.115 68.1467 451.115 73.8C451.115 79.4533 452.768 84.0933 456.075 87.72C459.488 91.3467 463.808 93.16 469.035 93.16C472.982 93.16 476.448 92.04 479.435 89.8C482.528 87.4533 484.662 84.36 485.835 80.52H515.115C513.408 92.2533 508.342 101.747 499.915 109C491.488 116.253 481.195 119.88 469.035 119.88ZM616.994 73C616.994 75.4533 616.78 78.0667 616.354 80.84H552.194C553.154 85.7467 555.127 89.48 558.114 92.04C561.207 94.6 565.1 95.88 569.794 95.88C572.14 95.88 574.327 95.56 576.354 94.92C578.38 94.28 580.14 93.3733 581.634 92.2C583.234 90.92 584.514 89.4267 585.474 87.72H615.074C612.087 97.64 606.487 105.48 598.274 111.24C590.167 117 580.674 119.88 569.794 119.88C556.354 119.88 545.154 115.507 536.194 106.76C527.34 97.9067 522.914 86.92 522.914 73.8C522.914 65.0533 524.94 57.16 528.994 50.12C533.047 43.08 538.647 37.5867 545.794 33.64C552.94 29.6933 560.94 27.72 569.794 27.72C578.967 27.72 587.127 29.7467 594.274 33.8C601.527 37.7467 607.127 43.1867 611.074 50.12C615.02 56.9467 616.994 64.5733 616.994 73ZM569.794 51.08C565.527 51.08 561.9 52.2533 558.914 54.6C556.034 56.84 553.954 60.0933 552.674 64.36H587.714C585.047 55.5067 579.074 51.08 569.794 51.08ZM663.814 119.88C652.08 119.88 642.8 117.053 635.974 111.4C629.254 105.747 625.84 98.1733 625.734 88.68H654.374C654.374 91.6667 655.28 93.96 657.094 95.56C658.907 97.16 661.307 97.96 664.294 97.96C665.787 97.96 667.174 97.7467 668.454 97.32C669.734 96.7867 670.747 95.9867 671.494 94.92C672.347 93.8533 672.774 92.6267 672.774 91.24C672.774 89.64 672.027 88.3067 670.534 87.24C669.147 86.1733 667.547 85.4267 665.734 85C663.92 84.4667 661.307 83.9333 657.894 83.4C654.587 82.8667 651.76 82.3333 649.414 81.8C647.174 81.2667 644.507 80.36 641.414 79.08C638.32 77.6933 635.814 76.0933 633.894 74.28C631.974 72.4667 630.32 70.0133 628.934 66.92C627.547 63.8267 626.854 60.2533 626.854 56.2C626.854 47.56 630.214 40.68 636.934 35.56C643.654 30.3333 652.56 27.72 663.654 27.72C674.64 27.72 683.44 30.3867 690.054 35.72C696.774 41.0533 700.187 48.1467 700.294 57H672.454C672.454 55.1867 672.027 53.6933 671.174 52.52C670.427 51.24 669.36 50.3333 667.974 49.8C666.694 49.16 665.147 48.84 663.334 48.84C660.88 48.84 658.907 49.4267 657.414 50.6C656.027 51.7733 655.334 53.32 655.334 55.24C655.334 56.0933 655.494 56.84 655.814 57.48C656.134 58.12 656.667 58.7067 657.414 59.24C658.267 59.6667 659.014 60.04 659.654 60.36C660.294 60.68 661.307 61 662.694 61.32C664.187 61.64 665.36 61.9067 666.214 62.12C667.067 62.2267 668.4 62.44 670.214 62.76C672.454 63.1867 674 63.5067 674.854 63.72C675.814 63.8267 677.414 64.1467 679.654 64.68C681.894 65.2133 683.547 65.6933 684.614 66.12C685.68 66.44 687.12 67.0267 688.934 67.88C690.854 68.7333 692.294 69.5867 693.254 70.44C694.214 71.2933 695.334 72.4133 696.614 73.8C698 75.08 699.014 76.4667 699.654 77.96C700.294 79.4533 700.827 81.2667 701.254 83.4C701.787 85.4267 702.054 87.6133 702.054 89.96C702.054 99.0267 698.534 106.28 691.494 111.72C684.56 117.16 675.334 119.88 663.814 119.88Z" fill="black"/>
</g>
<defs>
<clipPath id="clip0_2323_5657">
<rect width="825" height="150" fill="white"/>
</clipPath>
</defs>
</svg>
