<svg width="825" height="150" viewBox="0 0 825 150" fill="none" xmlns="http://www.w3.org/2000/svg">
<g clip-path="url(#clip0_2327_5629)">
<path d="M81.6 57.8C86.9333 60.36 91.0933 64.04 94.08 68.84C97.1733 73.64 98.72 79.08 98.72 85.16C98.72 94.2267 95.2533 101.8 88.32 107.88C81.3867 113.96 72.7467 117 62.4 117H10.88V4.99999H61.44C67.9467 4.99999 73.8133 6.22666 79.04 8.67999C84.2667 11.1333 88.3733 14.5467 91.36 18.92C94.3467 23.2933 95.84 28.2 95.84 33.64C95.84 38.5467 94.56 43.1867 92 47.56C89.44 51.8267 85.9733 55.24 81.6 57.8ZM66.56 38.76C66.56 35.88 65.6 33.5333 63.68 31.72C61.76 29.9067 59.2 29 56 29H40.48V48.52H56C58.1333 48.52 60 48.1467 61.6 47.4C63.2 46.5467 64.4267 45.3733 65.28 43.88C66.1333 42.3867 66.56 40.68 66.56 38.76ZM57.28 91.72C60.5867 91.72 63.2533 90.76 65.28 88.84C67.3067 86.92 68.32 84.4667 68.32 81.48C68.32 78.4933 67.3067 76.04 65.28 74.12C63.2533 72.2 60.5867 71.24 57.28 71.24H40.48V91.72H57.28ZM113.819 19.72V-5.40001H143.099V19.72H113.819ZM113.659 117V30.6H143.419V117H113.659ZM197.616 90.6H230.576V117H155.856V112.52L188.976 56.84H158.896V30.6H230.256V35.4L197.616 90.6Z" fill="black"/>
</g>
<defs>
<clipPath id="clip0_2327_5629">
<rect width="825" height="150" fill="white"/>
</clipPath>
</defs>
</svg>
