<svg width="825" height="150" viewBox="0 0 825 150" fill="none" xmlns="http://www.w3.org/2000/svg">
<g clip-path="url(#clip0_2327_5627)">
<path d="M152.64 117H121.6L112.8 52.52L83.2 117.16H74.08L44.32 52.52L35.68 117H4.48L21.44 4.99999H52.16L78.56 65.96L105.12 4.99999H136L152.64 117ZM206.65 52.68C217.103 52.68 225.423 55.6667 231.61 61.64C237.903 67.5067 241.05 75.24 241.05 84.84C241.05 94.44 237.903 102.227 231.61 108.2C225.423 114.067 217.103 117 206.65 117H165.69V30.6H193.21V52.68H206.65ZM252.73 30.6H282.33V117H252.73V30.6ZM203.29 94.44C206.383 94.44 208.837 93.5867 210.65 91.88C212.463 90.1733 213.37 87.8267 213.37 84.84C213.37 81.8533 212.463 79.56 210.65 77.96C208.837 76.2533 206.383 75.4 203.29 75.4H193.21V94.44H203.29Z" fill="black"/>
</g>
<defs>
<clipPath id="clip0_2327_5627">
<rect width="825" height="150" fill="white"/>
</clipPath>
</defs>
</svg>
