<svg width="825" height="150" viewBox="0 0 825 150" fill="none" xmlns="http://www.w3.org/2000/svg">
<g clip-path="url(#clip0_2327_5631)">
<path d="M134.24 4.99999H167.04L132.48 117H105.44L83.84 62.92L62.88 117H35.68L0.64 4.99999H33.76L51.84 69.48L78.56 5.48H89.28L116.48 69.64L134.24 4.99999ZM258.088 73C258.088 75.4533 257.874 78.0667 257.448 80.84H193.288C194.248 85.7467 196.221 89.48 199.208 92.04C202.301 94.6 206.194 95.88 210.888 95.88C213.234 95.88 215.421 95.56 217.448 94.92C219.474 94.28 221.234 93.3733 222.728 92.2C224.328 90.92 225.608 89.4267 226.568 87.72H256.168C253.181 97.64 247.581 105.48 239.368 111.24C231.261 117 221.768 119.88 210.888 119.88C197.448 119.88 186.248 115.507 177.288 106.76C168.434 97.9067 164.008 86.92 164.008 73.8C164.008 65.0533 166.034 57.16 170.088 50.12C174.141 43.08 179.741 37.5867 186.888 33.64C194.034 29.6933 202.034 27.72 210.888 27.72C220.061 27.72 228.221 29.7467 235.368 33.8C242.621 37.7467 248.221 43.1867 252.168 50.12C256.114 56.9467 258.088 64.5733 258.088 73ZM210.888 51.08C206.621 51.08 202.994 52.2533 200.008 54.6C197.128 56.84 195.048 60.0933 193.768 64.36H228.808C226.141 55.5067 220.168 51.08 210.888 51.08Z" fill="black"/>
</g>
<defs>
<clipPath id="clip0_2327_5631">
<rect width="825" height="150" fill="white"/>
</clipPath>
</defs>
</svg>
