<svg width="161" height="161" viewBox="0 0 161 161" fill="none" xmlns="http://www.w3.org/2000/svg">
<path d="M0 0H49.0798C49.0798 27.106 27.106 49.0798 0 49.0798V0Z" fill="white"/>
<path d="M0 55.9602H49.0798C49.0798 83.0662 27.106 105.04 0 105.04V55.9602Z" fill="white"/>
<path d="M0 111.92H49.0798C49.0798 139.026 27.106 161 0 161V111.92Z" fill="white"/>
<path d="M55.9604 0H105.04C105.04 27.106 83.0665 49.0798 55.9604 49.0798V0Z" fill="white"/>
<path d="M55.9604 55.9602H105.04C105.04 83.0662 83.0665 105.04 55.9604 105.04V55.9602Z" fill="white"/>
<path d="M55.9604 111.92H105.04C105.04 139.026 83.0665 161 55.9604 161V111.92Z" fill="white"/>
<path d="M111.92 0H161C161 27.106 139.026 49.0798 111.92 49.0798V0Z" fill="white"/>
<path d="M111.92 55.9602H161C161 83.0662 139.026 105.04 111.92 105.04V55.9602Z" fill="white"/>
<path d="M111.92 111.92H161C161 139.026 139.026 161 111.92 161V111.92Z" fill="white"/>
</svg>
