<svg width="23" height="22" viewBox="0 0 23 22" fill="none" xmlns="http://www.w3.org/2000/svg">
<path d="M10.8809 9.81749L20.3895 0.31213C20.8067 -0.104043 21.4827 -0.104043 21.9009 0.31213C22.3182 0.728304 22.3182 1.40428 21.9009 1.82045L13.1466 10.5716L21.8999 19.3228C22.3171 19.7389 22.3171 20.4149 21.8999 20.8321C21.4827 21.2483 20.8056 21.2483 20.3884 20.8321L10.8799 11.3268C10.469 10.9149 10.469 10.2283 10.8809 9.81749Z" fill="white"/>
<path d="M0.309163 9.81749L9.81769 0.31213C10.2349 -0.104043 10.9109 -0.104043 11.3292 0.31213C11.7464 0.728304 11.7464 1.40428 11.3292 1.82045L2.57485 10.5716L11.3281 19.3228C11.7453 19.7389 11.7453 20.4149 11.3281 20.8321C10.9109 21.2483 10.2339 21.2483 9.81663 20.8321L0.308108 11.3268C-0.102798 10.9149 -0.102797 10.2283 0.309163 9.81749Z" fill="white"/>
</svg>
